<svg width="79" height="64" viewBox="0 0 79 64" fill="none" xmlns="http://www.w3.org/2000/svg">
<g clip-path="url(#clip0_2044_94)">
<path d="M32.3524 62.4416C28.1984 62.4416 24.1673 61.6367 20.3725 60.0486C16.7076 58.5152 13.4162 56.3209 10.5904 53.5251C7.76459 50.7292 5.54538 47.4745 3.995 43.8496C2.38947 40.0953 1.57568 36.1088 1.57568 32C1.57568 27.8912 2.38947 23.904 3.995 20.1505C5.54538 16.5256 7.76381 13.2701 10.5904 10.475C13.417 7.67998 16.7076 5.48493 20.3725 3.95144C24.168 2.3634 28.1984 1.55847 32.3524 1.55847C36.5065 1.55847 40.5376 2.3634 44.3324 3.95144C47.9972 5.48493 51.2886 7.6792 54.1145 10.475C56.9403 13.2708 59.1595 16.5256 60.7099 20.1505C62.3154 23.9048 63.1292 27.8912 63.1292 32C63.1292 36.1088 62.3154 40.0961 60.7099 43.8496C59.1595 47.4745 56.9411 50.73 54.1145 53.5251C51.2879 56.3201 47.9972 58.5152 44.3324 60.0486C40.5368 61.6367 36.5065 62.4416 32.3524 62.4416Z" fill="#C3FF81"/>
<path d="M32.3523 3.11686C48.4801 3.11686 61.5535 16.0479 61.5535 32C61.5535 47.9521 48.4801 60.8831 32.3523 60.8831C16.2246 60.8831 3.15118 47.9521 3.15118 32C3.15118 16.0479 16.2246 3.11686 32.3523 3.11686ZM32.3523 0C27.9864 0 23.7488 0.846227 19.7587 2.51608C15.9056 4.12828 12.4464 6.43475 9.47638 9.37239C6.50639 12.31 4.17295 15.7323 2.54379 19.5435C0.855545 23.4902 0 27.6816 0 32C0 36.3184 0.855545 40.5098 2.54379 44.4565C4.17373 48.2677 6.5056 51.6892 9.47559 54.6268C12.4456 57.5645 15.9056 59.8717 19.7579 61.4831C23.7488 63.153 27.9856 63.9992 32.3516 63.9992C36.7175 63.9992 40.9551 63.153 44.9452 61.4831C48.7983 59.8709 52.2575 57.5645 55.2275 54.6268C58.1975 51.6892 60.5302 48.2669 62.1593 44.4565C63.8476 40.509 64.7031 36.3184 64.7031 32C64.7031 27.6816 63.8476 23.4902 62.1593 19.5435C60.5294 15.7323 58.1975 12.3108 55.2275 9.37317C52.2575 6.43553 48.7976 4.12828 44.9452 2.51686C40.9558 0.846227 36.7183 0 32.3523 0Z" fill="#053C48"/>
<path d="M32.3523 56.5125C46.0392 56.5125 57.1347 45.5378 57.1347 32C57.1347 18.4621 46.0392 7.48743 32.3523 7.48743C18.6653 7.48743 7.56982 18.4621 7.56982 32C7.56982 45.5378 18.6653 56.5125 32.3523 56.5125Z" fill="#ABFF4F"/>
<path d="M45.3187 11.078C47.7868 14.8892 49.2175 19.4203 49.2175 24.2818C49.2175 37.8199 38.1222 48.7944 24.4351 48.7944C19.6815 48.7944 15.2415 47.4697 11.4688 45.1741C15.8733 51.9751 23.5803 56.4829 32.3524 56.4829C46.0395 56.4829 57.1348 45.5084 57.1348 31.9703C57.1348 23.1341 52.4073 15.391 45.3179 11.0773L45.3187 11.078Z" fill="#95DE45"/>
<path d="M41.6657 46.3897C41.6429 46.3897 41.6193 46.3897 41.5956 46.3882C41.1521 46.3687 40.7369 46.1646 40.4533 45.8272L26.5306 29.2431C25.9744 28.5808 26.0666 27.5982 26.7362 27.0489C27.4059 26.4987 28.3993 26.5899 28.9547 27.2522L41.7681 42.5155L76.3058 8.07889C76.9187 7.46798 77.9161 7.46409 78.5337 8.07032C79.1513 8.67654 79.1553 9.66303 78.5424 10.2739L42.7836 45.9292C42.4874 46.2245 42.0841 46.3905 41.6649 46.3905L41.6657 46.3897Z" fill="#053C48"/>
</g>
<defs>
<clipPath id="clip0_2044_94">
<rect width="79" height="64" fill="white"/>
</clipPath>
</defs>
</svg>
