<svg width="65" height="49" viewBox="0 0 65 49" fill="none" xmlns="http://www.w3.org/2000/svg">
<g clip-path="url(#clip0_2041_31)">
<path fill-rule="evenodd" clip-rule="evenodd" d="M57.8701 9.9292H15.0916C13.1237 9.93002 11.5271 11.5208 11.5271 13.4815V41.8963C11.5271 43.857 13.1245 45.4477 15.0916 45.4477H57.8709C59.838 45.4477 61.4362 43.8562 61.4362 41.8955V13.4815C61.4362 11.5208 59.8388 9.9292 57.8709 9.9292H57.8701Z" fill="#ABFF4F"/>
<path fill-rule="evenodd" clip-rule="evenodd" d="M57.8702 9.9292H38.2919C37.7862 10.7107 37.2945 11.5093 36.8207 12.3276C30.2498 23.6663 28.3401 35.935 30.7883 45.4486H57.8702C59.8373 45.4486 61.4356 43.857 61.4356 41.8963V13.4815C61.4356 11.5208 59.8381 9.9292 57.8702 9.9292Z" fill="#95DE45"/>
<path d="M45.9512 30.3535H43.4726C42.7959 30.3535 42.2473 30.9001 42.2473 31.5743V32.6849C42.2473 33.3592 42.7959 33.9058 43.4726 33.9058H45.9512C46.6279 33.9058 47.1765 33.3592 47.1765 32.6849V31.5743C47.1765 30.9001 46.6279 30.3535 45.9512 30.3535Z" fill="#053C48"/>
<path fill-rule="evenodd" clip-rule="evenodd" d="M57.8701 6.37774H57.0005C56.6358 2.79526 53.5999 0 49.9083 0H7.12988C3.19242 0 0 3.1807 0 7.10371V35.5177C0 39.4407 3.19242 42.6223 7.12988 42.6223H7.99868C8.36423 46.2039 11.4001 49.0008 15.0917 49.0008H57.8709C61.8084 49 65.0008 45.8201 65.0008 41.8971V13.4815C65.0008 9.55845 61.8084 6.37774 57.8709 6.37774H57.8701ZM57.8701 9.92919C59.838 9.92919 61.4347 11.5216 61.4347 13.4815V17.1448H11.5263V13.4815C11.5263 11.5199 13.1229 9.93001 15.0909 9.93001H57.8701V9.92919ZM7.96179 39.07H7.12988C5.16197 39.07 3.56535 37.4792 3.56535 35.5186V19.535H7.96179V39.07ZM8.5011 10.767H3.56535V7.10371C3.56535 5.14221 5.16197 3.55226 7.12988 3.55226H49.9091C51.6279 3.55145 53.063 4.76575 53.3991 6.37856H15.0917C12.1189 6.37856 9.57235 8.19062 8.50192 10.767H8.5011ZM57.8701 45.4486H15.0917C13.1238 45.4486 11.5271 43.8578 11.5271 41.8971V25.9136H61.4355V41.8955C61.4355 43.857 59.838 45.4477 57.8709 45.4477L57.8701 45.4486Z" fill="#053C48"/>
<path d="M16.5416 30.3535H38.6812C39.3574 30.3535 39.9073 30.9006 39.9073 31.5752V32.6849C39.9073 33.3586 39.3582 33.9066 38.6812 33.9066H16.5416C15.8654 33.9066 15.3154 33.3595 15.3154 32.6849V31.5752C15.3154 30.9015 15.8646 30.3543 16.5408 30.3543L16.5416 30.3535Z" fill="#053C48"/>
<path fill-rule="evenodd" clip-rule="evenodd" d="M49.9092 3.55139H7.12996C5.16205 3.55221 3.56543 5.14297 3.56543 7.10365V10.767H8.50118C9.57161 8.19057 12.119 6.3785 15.0909 6.3785H53.3984C53.0623 4.76569 51.6272 3.55139 49.9084 3.55139H49.9092Z" fill="#ABFF4F"/>
<path fill-rule="evenodd" clip-rule="evenodd" d="M49.9091 3.55139H43.1136C42.3186 4.45538 41.5449 5.39857 40.7949 6.3785H53.399C53.063 4.76569 51.6278 3.55139 49.9091 3.55139Z" fill="#95DE45"/>
<path fill-rule="evenodd" clip-rule="evenodd" d="M3.56543 35.5186C3.56543 37.4793 5.16287 39.07 7.12996 39.07H7.96187V19.535H3.56543V35.5186Z" fill="#ABFF4F"/>
</g>
<defs>
<clipPath id="clip0_2041_31">
<rect width="65" height="49" fill="white"/>
</clipPath>
</defs>
</svg>
