<svg width="88" height="47" viewBox="0 0 88 47" fill="none" xmlns="http://www.w3.org/2000/svg">
<g clip-path="url(#clip0_2042_52)">
<path fill-rule="evenodd" clip-rule="evenodd" d="M3 44.0001C3 21.3557 21.356 2.99988 44.0007 2.99988C66.6454 2.99988 85.0013 21.3557 85.0013 44.0001" fill="#ABFF4F"/>
<path fill-rule="evenodd" clip-rule="evenodd" d="M69.0907 11.5712C78.7697 19.0709 85.0012 30.8077 85.0012 44.0001H44.0005L69.0907 11.5712Z" fill="#FA7921"/>
<path d="M85.0001 47C83.3429 47 82.0001 45.6572 82.0001 44.0001C82.0001 33.8496 78.0474 24.3076 70.8704 17.1306C63.6934 9.95366 54.15 6.001 44.0006 6.001C33.8512 6.001 24.3078 9.95366 17.1308 17.1306C9.95377 24.3076 6.00106 33.8508 6.00106 44.0001C6.00106 45.6572 4.65829 47 3.00113 47C1.34397 47 0 45.656 0 44.0001C0 38.0615 1.16397 32.2993 3.45952 26.8719C5.67587 21.6317 8.8486 16.9266 12.8877 12.8876C16.928 8.8473 21.6331 5.67581 26.8722 3.45948C32.2985 1.16396 38.0619 0 44.0006 0C49.9393 0 55.7015 1.16396 61.1278 3.45948C66.3681 5.67581 71.0732 8.8485 75.1123 12.8876C79.1526 16.9278 82.3241 21.6329 84.5405 26.8719C86.836 32.2981 88 38.0615 88 44.0001C88 45.6572 86.6572 47 85.0001 47Z" fill="#053C48"/>
<path d="M41.2562 45.4976C40.661 44.4644 40.7198 43.1301 41.5046 42.1377L56.7154 22.9228C57.7438 21.6244 59.6301 21.4048 60.9297 22.4332C62.2293 23.4616 62.4477 25.3479 61.4193 26.6475L46.2084 45.8624C45.1801 47.1608 43.2937 47.3804 41.9941 46.352C41.6869 46.1084 41.4398 45.818 41.2562 45.4976Z" fill="#053C48"/>
</g>
<defs>
<clipPath id="clip0_2042_52">
<rect width="88" height="47" fill="white"/>
</clipPath>
</defs>
</svg>
