<svg width="90" height="71" viewBox="0 0 90 71" fill="none" xmlns="http://www.w3.org/2000/svg">
<g clip-path="url(#clip0_2044_108)">
<path d="M13.6688 69.0907C10.2016 69.0907 7.38161 66.2745 7.38161 62.8121V30.9425C7.05946 31.0542 6.71915 31.1125 6.37215 31.1125C5.36555 31.1125 4.42109 30.6199 3.84562 29.7941L2.45187 27.7999C1.99111 27.1364 1.81809 26.3383 1.96243 25.5488C2.10678 24.7613 2.54842 24.0787 3.20801 23.6253L13.0799 16.7958V8.70527C13.0799 7.04993 14.4278 5.7039 16.0844 5.7039H23.2883C24.6151 5.7039 25.7431 6.56689 26.1408 7.76114L33.8103 2.45527C34.3226 2.0992 34.9239 1.91113 35.5481 1.91113C36.1724 1.91113 36.7746 2.0992 37.287 2.45623L67.893 23.63C68.5478 24.0806 68.9904 24.7632 69.1348 25.5508C69.2791 26.3402 69.1061 27.1374 68.6482 27.797L67.2497 29.7979C66.6761 30.6208 65.7317 31.1134 64.7251 31.1134C64.3771 31.1134 64.0368 31.0552 63.7137 30.9435V62.814C63.7137 66.2764 60.8937 69.0926 57.4265 69.0926H13.6688V69.0907Z" fill="#ABFF4F"/>
<path d="M35.5484 3.81854C35.7759 3.81854 36.0025 3.88727 36.1975 4.02379L50.5957 13.9844L66.8045 25.1976C67.2987 25.5374 67.4192 26.2143 67.0769 26.7069L65.6813 28.704C65.4547 29.0285 65.0924 29.2032 64.7244 29.2032C64.4959 29.2032 64.2646 29.1364 64.0619 28.9961L61.8011 27.4333V62.8121C61.8011 65.2254 59.8444 67.1815 57.4258 67.1815H13.669C11.2524 67.1815 9.29374 65.2254 9.29374 62.8121V27.4352L7.03487 28.9961C6.83222 29.1355 6.60088 29.2032 6.37241 29.2032C6.00438 29.2032 5.64208 29.0295 5.41552 28.704L4.01986 26.7069C3.67764 26.2143 3.79809 25.5374 4.29231 25.1976L14.992 17.7953V8.70436C14.992 8.10294 15.4834 7.61226 16.0847 7.61226H23.2886C23.8899 7.61226 24.3812 8.10294 24.3812 8.70436V11.3L34.8993 4.02379C35.0943 3.88727 35.3218 3.81854 35.5484 3.81854ZM35.5484 0C34.5294 0 33.5495 0.307392 32.7131 0.889719L26.6257 5.10061C25.7482 4.28917 24.5753 3.79276 23.2886 3.79276H16.0847C13.3737 3.79276 11.1683 5.99606 11.1683 8.7034V15.7944L2.12043 22.0549C1.04118 22.7986 0.317542 23.9174 0.0814267 25.2052C-0.154688 26.4968 0.128267 27.8037 0.877718 28.8834C0.87963 28.8863 0.881541 28.8892 0.883453 28.892L2.27911 30.8891C3.03717 31.9745 4.18906 32.7039 5.46906 32.9387V62.8111C5.46906 67.3256 9.14748 70.999 13.6681 70.999H57.4258C61.9464 70.999 65.6249 67.3256 65.6249 62.8111V32.9387C66.9058 32.7039 68.0587 31.9736 68.8167 30.8882L70.2124 28.8911C70.2124 28.8911 70.2162 28.8853 70.2181 28.8825C70.9685 27.8028 71.2515 26.4968 71.0154 25.2043C70.7802 23.9174 70.0575 22.7995 68.9811 22.0559L52.7733 10.8437L38.3818 0.888765C37.5463 0.307392 36.5674 0 35.5484 0Z" fill="#053C48"/>
<path d="M67.0777 26.7069L65.682 28.704C65.315 29.231 64.5904 29.3608 64.0627 28.9961L61.8019 27.4334V62.8121C61.8019 65.2255 59.8451 67.1815 57.4266 67.1815H38.047C32.4911 61.3229 29.0833 53.4109 29.0833 44.7056C29.0833 30.5875 38.0442 18.5601 50.5965 13.9845L66.8053 25.1976C67.2995 25.5375 67.4199 26.2143 67.0777 26.7069Z" fill="#95DE45"/>
<path d="M43.4882 63.2159C42.9385 63.2159 42.3937 62.9811 42.0161 62.5267L28.1751 45.8807C27.5002 45.0693 27.6121 43.8655 28.4246 43.1924C29.2372 42.5185 30.4426 42.6302 31.1165 43.4416L43.7559 58.6422L86.8904 24.0301C87.7134 23.3694 88.9169 23.5002 89.5784 24.3222C90.2399 25.1441 90.109 26.346 89.2859 27.0066L44.685 62.7959C44.3323 63.0784 43.9088 63.2169 43.4882 63.2169V63.2159Z" fill="#053C48"/>
</g>
<defs>
<clipPath id="clip0_2044_108">
<rect width="90" height="71" fill="white"/>
</clipPath>
</defs>
</svg>
