<svg width="83" height="65" viewBox="0 0 83 65" fill="none" xmlns="http://www.w3.org/2000/svg">
<g clip-path="url(#clip0_2043_82)">
<path d="M64.311 65H58.7565C56.6088 65 54.8085 63.4663 54.3732 61.4261C54.3183 61.4432 54.2634 61.4614 54.2084 61.4785C54.0856 61.5169 53.9648 61.5532 53.844 61.5885L53.7721 61.6097C53.6453 61.648 53.5195 61.6854 53.3927 61.7217C53.2799 61.754 53.168 61.7853 53.0562 61.8155L52.8955 61.8599C52.7866 61.8902 52.6778 61.9205 52.5689 61.9487C52.4601 61.978 52.3483 62.0062 52.2355 62.0345L52.0747 62.0749C51.9629 62.1031 51.851 62.1314 51.7382 62.1586C51.6194 62.1879 51.5016 62.2141 51.3838 62.2413L51.222 62.2787C51.1142 62.3039 51.0073 62.3281 50.8995 62.3523C50.7817 62.3786 50.6639 62.4028 50.547 62.427L50.3713 62.4633C50.2645 62.4855 50.1576 62.5077 50.0498 62.5289C49.937 62.5511 49.8211 62.5723 49.7053 62.5935L49.5106 62.6298C49.4058 62.649 49.3019 62.6692 49.1971 62.6873C49.0813 62.7075 48.9665 62.7257 48.8506 62.7448L48.6459 62.7781C48.5421 62.7953 48.4383 62.8124 48.3334 62.8286C48.2176 62.8457 48.0998 62.8629 47.983 62.879L47.7643 62.9103C47.6644 62.9244 47.5656 62.9386 47.4658 62.9517C47.3409 62.9678 47.2161 62.983 47.0903 62.9971L46.8757 63.0223C46.7818 63.0334 46.6869 63.0455 46.5921 63.0556C46.4673 63.0687 46.3445 63.0808 46.2217 63.0919L45.989 63.1141C45.8962 63.1232 45.8033 63.1323 45.7104 63.1404C45.5796 63.1515 45.4508 63.1616 45.322 63.1707L45.0774 63.1888C44.9915 63.1959 44.9067 63.2019 44.8208 63.208C44.678 63.2171 44.5362 63.2241 44.3935 63.2322L44.1728 63.2443C44.0909 63.2494 44.009 63.2534 43.9262 63.2574C43.7454 63.2655 43.5637 63.2705 43.383 63.2756L43.2222 63.2806C43.1583 63.2827 43.0944 63.2857 43.0295 63.2867C42.4185 63.2998 41.8034 63.2998 41.1983 63.2867C41.1364 63.2857 41.0715 63.2827 41.0076 63.2806L40.8639 63.2756C40.6702 63.2705 40.4754 63.2645 40.2827 63.2564C40.2079 63.2534 40.133 63.2483 40.0571 63.2443L39.8484 63.2332C39.6897 63.2251 39.5299 63.2171 39.3721 63.206C39.2903 63.2009 39.2104 63.1939 39.1295 63.1878L38.9128 63.1717C38.7641 63.1606 38.6143 63.1495 38.4665 63.1363C38.3886 63.1293 38.3108 63.1212 38.2339 63.1141L38.0222 63.093C37.8704 63.0788 37.7187 63.0637 37.5669 63.0465C37.489 63.0375 37.4121 63.0284 37.3363 63.0193L37.1675 62.9991C37.0018 62.9799 36.836 62.9598 36.6713 62.9386C36.5994 62.9295 36.5245 62.9184 36.4496 62.9073L36.2759 62.8821C36.1121 62.8589 35.9494 62.8357 35.7866 62.8104C35.7137 62.7993 35.6398 62.7872 35.567 62.7741L35.4412 62.7529C35.2624 62.7237 35.0837 62.6944 34.906 62.6631C34.8371 62.651 34.7712 62.6389 34.7053 62.6258L34.5815 62.6026C34.3977 62.5683 34.214 62.534 34.0313 62.4976C33.9644 62.4845 33.8935 62.4694 33.8236 62.4542L33.7418 62.4371C33.552 62.3977 33.3583 62.3574 33.1666 62.314C33.1047 62.2999 33.0458 62.2867 32.9879 62.2726L32.897 62.2514C32.6983 62.206 32.5026 62.1596 32.3069 62.1122C32.249 62.0981 32.1931 62.0829 32.1372 62.0688L32.0533 62.0466C31.8526 61.9951 31.6539 61.9447 31.4563 61.8912C31.4023 61.8771 31.3494 61.8619 31.2965 61.8468L31.2196 61.8256C31.1927 61.8176 31.1647 61.8105 31.1377 61.8034C30.5726 63.653 28.8652 65 26.8523 65H21.2978C18.9045 65 16.9425 63.095 16.8196 60.7066L15.7343 53.2197C14.4593 52.0129 13.293 50.7183 12.2506 49.3531C8.83387 49.4157 4.51348 48.6488 3.03774 43.1689L0.234026 32.775C-0.228267 31.0566 0.000383156 29.2555 0.879039 27.7026C1.75769 26.1497 3.17852 25.0378 4.87892 24.5696L7.28024 23.9087C7.86635 21.5718 8.70506 19.3429 9.78541 17.2512C6.05412 11.1497 6.68416 4.95327 6.71511 4.67176C6.84391 3.52955 7.58278 2.58006 8.64416 2.18654C15.0573 -0.18465 20.9773 1.29659 25.1319 3.21877C30.1143 1.08167 35.8216 0 42.1189 0C50.8096 0 58.2792 2.02207 64.318 6.00972C68.9099 9.04182 72.5005 13.1536 74.8419 18.0281C74.9557 17.8788 75.0605 17.7214 75.1594 17.5569C76.1688 15.8719 78.1698 15.105 80.0279 15.6913C81.8891 16.2765 83.1082 18.0574 82.9934 20.023C82.8157 23.046 81.91 28.4109 77.9561 32.0838V32.113C77.9561 32.3936 77.9511 32.6922 77.9391 33.0272L77.9331 33.1998C77.7434 38.0198 76.2517 42.7915 73.6177 47.0062L73.5938 47.0445C73.474 47.2362 73.3462 47.434 73.2154 47.6318L73.1774 47.6903C73.0516 47.88 72.9248 48.0656 72.796 48.2503L72.7341 48.3411C72.6123 48.5146 72.4855 48.6912 72.3567 48.8658L72.2788 48.9727C72.155 49.1402 72.0282 49.3067 71.9004 49.4732L71.8065 49.5963C71.6817 49.7557 71.5549 49.9142 71.4271 50.0716L71.3173 50.2078C71.1915 50.3612 71.0647 50.5125 70.9368 50.6628L70.9039 50.7012C70.8729 50.7385 70.842 50.7748 70.81 50.8112C70.6852 50.9555 70.5574 51.0998 70.4296 51.244L70.2898 51.4015C70.2309 51.467 70.171 51.5326 70.1111 51.5972L68.7901 60.7086C68.6673 63.097 66.7053 65.002 64.312 65.002L64.311 65ZM59.5063 59.6139H63.5601L65.0848 49.0958L65.6949 48.4682C65.7658 48.3956 65.8366 48.3219 65.9065 48.2483L66.0363 48.11C66.1432 47.996 66.25 47.881 66.3549 47.7649L66.4707 47.6348C66.5785 47.5147 66.6843 47.3946 66.7882 47.2736L66.892 47.1515C66.9999 47.0243 67.1057 46.8992 67.2095 46.7731L67.3024 46.6581C67.4082 46.5279 67.5131 46.3967 67.6169 46.2635L67.6938 46.1626C67.7996 46.0254 67.9055 45.8872 68.0083 45.7479L68.0702 45.6632C68.1781 45.5158 68.2829 45.3705 68.3857 45.2242L68.4337 45.1546C68.5415 45.0002 68.6463 44.8469 68.7482 44.6925L68.7831 44.639C68.888 44.4806 68.9928 44.3181 69.0957 44.1547L69.1176 44.1184C71.2943 40.6352 72.4715 36.8534 72.6103 32.887L72.6123 32.8194C72.6213 32.556 72.6253 32.3249 72.6253 32.113C72.6253 31.7468 72.6173 31.3643 72.6013 30.9456L72.5454 29.5148L73.6876 28.6672C75.5458 27.2879 76.5513 25.2305 77.0914 23.2932C76.3865 23.832 75.6017 24.2931 74.74 24.6725L72.1031 25.8339L71.1585 23.0874C69.3742 17.9 66.0004 13.5531 61.4034 10.518C56.2453 7.11258 49.7572 5.38513 42.1199 5.38513C36.1081 5.38513 30.7573 6.47588 26.2163 8.62711L25.0301 9.18914L23.8649 8.58272C20.9613 7.07121 16.6629 5.62629 12.016 6.77254C12.1228 8.74012 12.673 12.2878 15.0504 15.5036L16.1197 16.9495L15.2021 18.4983C13.7444 20.9583 12.7149 23.6867 12.1408 26.6068L11.8193 28.2435L6.27977 29.7671C5.83945 29.8882 5.60581 30.201 5.50696 30.3775C5.40711 30.5531 5.25834 30.9143 5.37815 31.3603L8.17787 41.7552C8.53632 43.0841 8.81889 44.1345 12.7099 43.9509L12.7778 43.9478L14.9765 43.9579L15.7673 45.1021C16.9534 46.8155 18.3743 48.4158 19.9918 49.8577L20.7237 50.5105L22.0437 59.6149H26.0974L26.8243 54.6041L29.9585 55.7745C30.1403 55.8411 30.321 55.9057 30.5027 55.9693L30.6655 56.0268C30.8422 56.0873 31.0219 56.1469 31.2016 56.2054L31.3834 56.2649C31.5531 56.3194 31.7308 56.3729 31.9086 56.4264L32.1033 56.4849C32.273 56.5353 32.4487 56.5838 32.6235 56.6322L32.8292 56.6897C33.0009 56.7361 33.1746 56.7805 33.3474 56.8249L33.569 56.8814C33.7358 56.9228 33.9065 56.9622 34.0772 57.0015L34.3149 57.057C34.4796 57.0933 34.6474 57.1286 34.8161 57.164L34.919 57.1862C34.9669 57.1962 35.0148 57.2063 35.0627 57.2164C35.2235 57.2487 35.3822 57.278 35.54 57.3072L35.6848 57.3345C35.7317 57.3436 35.7776 57.3526 35.8246 57.3607C35.9753 57.388 36.1301 57.4122 36.2849 57.4374L36.4346 57.4626C36.4856 57.4707 36.5365 57.4798 36.5874 57.4879C36.7272 57.5101 36.867 57.5292 37.0068 57.5484L37.2025 57.5766C37.2544 57.5847 37.3063 57.5918 37.3582 57.5989C37.5 57.618 37.6388 57.6342 37.7786 57.6503L37.9773 57.6745C38.0312 57.6816 38.0851 57.6876 38.14 57.6937C38.2658 57.7078 38.3926 57.7199 38.5204 57.732L38.7611 57.7552C38.815 57.7603 38.8689 57.7663 38.9228 57.7714C39.0466 57.7825 39.1714 57.7916 39.2953 57.8007L39.5439 57.8198C39.5998 57.8239 39.6567 57.8289 39.7126 57.8329C39.8454 57.842 39.9802 57.8491 40.114 57.8551L40.3566 57.8683C40.4066 57.8713 40.4565 57.8743 40.5074 57.8763C40.6751 57.8834 40.8429 57.8884 41.0106 57.8935L41.1953 57.8995C41.2333 57.9005 41.2712 57.9026 41.3092 57.9036C41.8424 57.9157 42.3785 57.9157 42.9077 57.9036C42.9457 57.9036 42.9866 57.9016 43.0275 57.8995L43.2302 57.8935C43.385 57.8894 43.5398 57.8844 43.6945 57.8783C43.7534 57.8753 43.8113 57.8723 43.8703 57.8693L44.1209 57.8561C44.2397 57.8501 44.3575 57.844 44.4763 57.837C44.5392 57.8329 44.6011 57.8279 44.664 57.8228L44.9356 57.8027C45.0415 57.7946 45.1463 57.7875 45.2521 57.7785C45.321 57.7724 45.3929 57.7653 45.4638 57.7583L45.7214 57.733C45.8213 57.724 45.9221 57.7139 46.021 57.7038C46.0919 57.6957 46.1657 57.6876 46.2386 57.6786L46.4743 57.6503C46.5771 57.6382 46.681 57.6261 46.7838 57.613C46.8617 57.6029 46.9396 57.5918 47.0174 57.5807L47.2541 57.5474C47.3499 57.5343 47.4458 57.5211 47.5406 57.506C47.6235 57.4939 47.7054 57.4798 47.7873 57.4667L48.0119 57.4303C48.1048 57.4152 48.1976 57.4001 48.2905 57.3839C48.3744 57.3688 48.4582 57.3537 48.5431 57.3375L48.7528 57.2992C48.8466 57.282 48.9405 57.2649 49.0334 57.2467C49.1212 57.2295 49.2061 57.2114 49.292 57.1932L49.4837 57.1539C49.5795 57.1347 49.6754 57.1145 49.7702 57.0933C49.8581 57.0742 49.946 57.054 50.0338 57.0328L50.2066 56.9924C50.3044 56.9702 50.4023 56.948 50.4991 56.9248C50.591 56.9026 50.6838 56.8784 50.7767 56.8552L50.9434 56.8128C51.0343 56.7896 51.1262 56.7664 51.216 56.7432C51.3089 56.719 51.3977 56.6938 51.4876 56.6695L51.6524 56.6241C51.7452 56.5989 51.8391 56.5727 51.9309 56.5464C52.0378 56.5162 52.1446 56.4839 52.2514 56.4516L52.3313 56.4274C52.4332 56.3971 52.535 56.3668 52.6368 56.3345C52.7407 56.3023 52.8475 56.2679 52.9544 56.2326L53.0532 56.2003C53.1471 56.1701 53.2399 56.1398 53.3328 56.1085C53.4386 56.0732 53.5455 56.0359 53.6523 55.9985L53.7242 55.9733C53.823 55.939 53.9229 55.9047 54.0207 55.8694C54.1226 55.8331 54.2244 55.7947 54.3263 55.7564L54.4081 55.7261C54.505 55.6898 54.6008 55.6545 54.6967 55.6171C54.8175 55.5707 54.9353 55.5243 55.0521 55.4769L55.0771 55.4668C55.174 55.4284 55.2708 55.3901 55.3677 55.3497L55.5324 55.2821L58.6866 53.9744L59.5043 59.6139H59.5063Z" fill="#053C48"/>
<path d="M27.4573 61.0689H22.1335C21.1699 61.0689 20.3901 60.2798 20.3901 59.3072L18.9214 49.1786C18.9214 48.2049 19.7022 47.4169 20.6647 47.4169H28.9251C29.8886 47.4169 30.6684 48.2059 30.6684 49.1786L29.1997 59.3072C29.1997 60.2809 28.4189 61.0689 27.4563 61.0689H27.4573Z" fill="#689B30"/>
<path d="M63.3621 61.0689H58.0383C57.0747 61.0689 56.2949 60.2798 56.2949 59.3072L54.8262 49.1786C54.8262 48.2049 55.607 47.4169 56.5695 47.4169H64.8299C65.7934 47.4169 66.5732 48.2059 66.5732 49.1786L65.1044 59.3072C65.1044 60.2809 64.3236 61.0689 63.3611 61.0689H63.3621Z" fill="#689B30"/>
<path d="M73.886 32.1282C73.886 47.209 59.6518 59.4342 42.0927 59.4342C24.5335 59.4342 10.2993 47.209 10.2993 32.1282C10.2993 17.0474 21.1657 3.93213 42.0927 3.93213C63.0196 3.93213 73.886 17.0484 73.886 32.1292V32.1282Z" fill="#ABFF4F"/>
<path d="M18.9212 46.0748L14.0237 46.0536C9.78518 46.2534 7.91205 45.0749 7.0973 42.0488L4.4134 32.0858C3.86624 30.0556 5.06241 27.9427 7.07134 27.3908L13.153 25.7179C16.1474 24.8945 19.2647 26.6966 20.0794 29.7227L22.5686 38.4678C23.3834 41.4939 21.9156 45.2515 18.9202 46.0758L18.9212 46.0748Z" fill="#ABFF4F"/>
<path d="M29.1374 9.43537C29.0525 9.36373 20.5326 2.30363 10.8903 5.8695C10.7855 5.90784 10.7116 6.0037 10.6996 6.1157C10.6876 6.22669 9.59131 17.3027 20.1751 22.8836C20.218 22.9058 20.265 22.9169 20.3109 22.9169C20.4058 22.9169 20.4986 22.8705 20.5545 22.7857L29.1933 9.82889C29.2772 9.70276 29.2532 9.53325 29.1384 9.43537H29.1374Z" fill="#ABFF4F"/>
<path d="M77.6674 18.8534C76.9984 18.6426 76.3075 18.9089 75.945 19.5133C74.0849 22.6221 70.769 23.2235 69.3531 23.4798C68.8299 23.5746 68.5903 23.618 68.3587 23.8148C68.0791 24.0519 67.9732 24.4374 68.0921 24.7855L70.4205 31.6488C70.4994 31.8809 70.6681 32.0686 70.8888 32.1705C71.0046 32.224 71.1294 32.2512 71.2542 32.2512C71.3661 32.2512 71.4789 32.229 71.5847 32.1856C77.3269 29.8356 78.5191 23.7855 78.7178 20.3882C78.7587 19.6808 78.3364 19.0643 77.6664 18.8534H77.6674Z" fill="#ABFF4F"/>
<path d="M21.7208 27.6511C22.7807 27.6511 23.6399 26.7829 23.6399 25.7118C23.6399 24.6407 22.7807 23.7725 21.7208 23.7725C20.661 23.7725 19.8018 24.6407 19.8018 25.7118C19.8018 26.7829 20.661 27.6511 21.7208 27.6511Z" fill="#053C48"/>
<path d="M19.3155 51.1774C25.0906 56.27 33.1603 59.4352 42.0916 59.4352C59.3272 59.4352 73.3578 47.656 73.869 32.9596C56.4396 56.501 30.6681 53.6172 19.3145 51.1774H19.3155Z" fill="#95DE45"/>
<path d="M57.8888 14.8336C57.6321 14.8336 57.3725 14.7589 57.1429 14.6046C54.439 12.7772 50.6618 11.4463 46.5062 10.8591C41.8782 10.2042 37.4181 10.5745 34.2699 11.8732C33.5829 12.1567 32.7981 11.8237 32.5176 11.1295C32.237 10.4353 32.5665 9.64221 33.2534 9.35867C36.828 7.88349 41.7944 7.44961 46.8786 8.16904C51.4266 8.8128 55.6032 10.2961 58.6376 12.3464C59.2547 12.7641 59.4204 13.6077 59.008 14.2312C58.7484 14.6227 58.3231 14.8346 57.8897 14.8346L57.8888 14.8336Z" fill="#053C48"/>
</g>
<defs>
<clipPath id="clip0_2043_82">
<rect width="83" height="65" fill="white"/>
</clipPath>
</defs>
</svg>
