<svg width="67" height="67" viewBox="0 0 67 67" fill="none" xmlns="http://www.w3.org/2000/svg">
<g clip-path="url(#clip0_2044_142)">
<path d="M65.1629 33.5001C65.1629 41.9978 61.8155 49.7142 56.3663 55.401C56.3345 55.4341 56.3026 55.4672 56.2695 55.5002C50.5117 61.4578 42.4389 65.1616 33.5002 65.1616C24.5615 65.1616 16.4875 61.4578 10.7308 55.5002C10.699 55.4672 10.6659 55.4341 10.634 55.401C5.18483 49.7142 1.8374 41.9978 1.8374 33.5001C1.8374 16.0133 16.0134 1.83728 33.5002 1.83728C50.9869 1.83728 65.1629 16.0133 65.1629 33.5001Z" fill="#ABFF4F"/>
<path d="M33.5 67C28.8775 67 24.3996 66.0753 20.1911 64.2515C16.1272 62.4902 12.4993 59.9757 9.40905 56.7777C9.37231 56.7409 9.33679 56.7042 9.30249 56.6674C3.30578 50.4086 0 42.1791 0 33.5C0 24.8209 3.48461 16.1394 9.81202 9.81202C16.1394 3.48461 24.5515 0 33.5 0C42.4485 0 50.8606 3.48461 57.188 9.81202C63.5154 16.1394 67 24.5515 67 33.5C67 42.4485 63.6942 50.4086 57.6926 56.6723C57.6595 56.7066 57.6216 56.7458 57.5836 56.785C54.4995 59.9769 50.8716 62.4914 46.8076 64.2515C42.5992 66.0753 38.1225 67 33.4988 67H33.5ZM33.5 3.67445C25.5338 3.67445 18.0428 6.77692 12.4099 12.4099C6.77692 18.0428 3.67445 25.5326 3.67445 33.5C3.67445 41.4674 6.61769 48.5542 11.9603 54.1308C11.9897 54.1615 12.0142 54.1872 12.0387 54.2129L12.051 54.2251C14.8044 57.0741 18.0342 59.313 21.6523 60.8808C25.3966 62.5037 29.3822 63.3255 33.5 63.3255C37.6178 63.3255 41.6034 62.5025 45.3477 60.8808C48.9658 59.313 52.1956 57.0741 54.949 54.2251C54.9821 54.1909 55.009 54.1627 55.036 54.1357C60.3835 48.5542 63.3268 41.2274 63.3268 33.5012C63.3268 25.7751 60.2243 18.044 54.5914 12.4111C48.9584 6.77814 41.4674 3.67445 33.5 3.67445Z" fill="#053C48"/>
<path d="M33.4999 43.993C38.2628 43.993 42.1239 40.1319 42.1239 35.3691C42.1239 30.6062 38.2628 26.7451 33.4999 26.7451C28.737 26.7451 24.876 30.6062 24.876 35.3691C24.876 40.1319 28.737 43.993 33.4999 43.993Z" fill="#053C48"/>
<path d="M49.6284 57.0067V58.3197C45.5497 62.5392 39.8323 65.1628 33.5 65.1628C27.1677 65.1628 21.4502 62.5392 17.3716 58.3197V57.0067C17.3716 50.378 21.2163 46.8604 33.5 46.8604C45.7837 46.8604 49.6284 50.9647 49.6284 57.0067Z" fill="#053C48"/>
</g>
<defs>
<clipPath id="clip0_2044_142">
<rect width="67" height="67" fill="white"/>
</clipPath>
</defs>
</svg>
