<svg width="39" height="30" viewBox="0 0 39 30" fill="none" xmlns="http://www.w3.org/2000/svg">
<mask id="path-1-outside-1_142_3501" maskUnits="userSpaceOnUse" x="-1" y="-1" width="41" height="32" fill="black">
<rect fill="white" x="-1" y="-1" width="41" height="32"/>
<path d="M0.12 14.36C0.12 11.56 0.6 9.16 1.64 7.08C2.64 5.04 4.04 3.48 5.88 2.4C7.72 1.32 9.8 0.759999 12.16 0.759999C14.48 0.759999 16.56 1.32 18.4 2.4C20.24 3.48 21.64 5.04 22.68 7.08C23.68 9.16 24.2 11.56 24.2 14.36V15.64C24.2 18.44 23.68 20.88 22.68 22.92C21.64 25 20.24 26.56 18.4 27.64C16.56 28.72 14.48 29.24 12.16 29.24C9.8 29.24 7.72 28.72 5.88 27.64C4.04 26.56 2.64 25 1.64 22.92C0.6 20.88 0.12 18.44 0.12 15.64V14.36ZM15.8 8.68C14.88 7.32 13.68 6.6 12.16 6.6C10.64 6.6 9.4 7.32 8.52 8.68C7.6 10.08 7.16 12.04 7.16 14.6V15.4C7.16 18 7.6 20 8.52 21.36C9.4 22.72 10.64 23.4 12.16 23.4C13.68 23.4 14.88 22.72 15.8 21.36C16.68 20 17.16 18 17.16 15.4V14.6C17.16 12.04 16.68 10.08 15.8 8.68ZM38.8481 0.999998V29H31.8081V12.16H30.4881H25.7281V6.44H29.6881C30.4081 6.44 30.9281 6.16 31.3281 5.56C31.7281 5 31.9281 4.28 31.9281 3.4V0.999998H38.8481Z"/>
</mask>
<path d="M1.64 7.08L2.53446 7.52723L2.53792 7.52015L1.64 7.08ZM22.68 7.08L23.5813 6.6467L23.5762 6.6362L23.5709 6.62581L22.68 7.08ZM22.68 22.92L23.5745 23.3672L23.5779 23.3602L22.68 22.92ZM18.4 27.64L18.9062 28.5024L18.4 27.64ZM5.88 27.64L5.3738 28.5024L5.88 27.64ZM1.64 22.92L2.54125 22.4867L2.5362 22.4762L2.53091 22.4658L1.64 22.92ZM15.8 8.68L16.6466 8.14783L16.6377 8.1336L16.6283 8.11969L15.8 8.68ZM8.52 8.68L9.35573 9.22919L9.35957 9.22325L8.52 8.68ZM8.52 21.36L9.35957 20.8167L9.35401 20.8082L9.34828 20.7997L8.52 21.36ZM15.8 21.36L16.6283 21.9203L16.634 21.9118L16.6396 21.9033L15.8 21.36ZM1.12 14.36C1.12 11.6745 1.58003 9.436 2.53443 7.52721L0.745573 6.63279C-0.380033 8.884 -0.88 11.4455 -0.88 14.36H1.12ZM2.53792 7.52015C3.4597 5.63973 4.73059 4.23419 6.3862 3.26241L5.3738 1.53758C3.34941 2.72581 1.8203 4.44027 0.742079 6.63984L2.53792 7.52015ZM6.3862 3.26241C8.06325 2.27806 9.96667 1.76 12.16 1.76V-0.240002C9.63334 -0.240002 7.37675 0.361938 5.3738 1.53758L6.3862 3.26241ZM12.16 1.76C14.3117 1.76 16.2154 2.27725 17.8938 3.26241L18.9062 1.53758C16.9046 0.362743 14.6483 -0.240002 12.16 -0.240002V1.76ZM17.8938 3.26241C19.5491 4.23403 20.8245 5.64215 21.7891 7.53419L23.5709 6.62581C22.4555 4.43785 20.9309 2.72597 18.9062 1.53758L17.8938 3.26241ZM21.7787 7.51329C22.7044 9.43865 23.2 11.6868 23.2 14.36H25.2C25.2 11.4332 24.6556 8.88135 23.5813 6.6467L21.7787 7.51329ZM23.2 14.36V15.64H25.2V14.36H23.2ZM23.2 15.64C23.2 18.3175 22.7028 20.6015 21.7821 22.4798L23.5779 23.3602C24.6572 21.1585 25.2 18.5625 25.2 15.64H23.2ZM21.7856 22.4728C20.8215 24.4009 19.5476 25.8069 17.8938 26.7776L18.9062 28.5024C20.9324 27.3131 22.4585 25.5991 23.5744 23.3672L21.7856 22.4728ZM17.8938 26.7776C16.2257 27.7567 14.3246 28.24 12.16 28.24V30.24C14.6354 30.24 16.8943 29.6833 18.9062 28.5024L17.8938 26.7776ZM12.16 28.24C9.9537 28.24 8.05306 27.756 6.3862 26.7776L5.3738 28.5024C7.38694 29.684 9.6463 30.24 12.16 30.24V28.24ZM6.3862 26.7776C4.73212 25.8067 3.46273 24.4034 2.54125 22.4867L0.738748 23.3533C1.81727 25.5966 3.34788 27.3133 5.3738 28.5024L6.3862 26.7776ZM2.53091 22.4658C1.58165 20.6038 1.12 18.3302 1.12 15.64H-0.88C-0.88 18.5498 -0.381646 21.1562 0.749094 23.3742L2.53091 22.4658ZM1.12 15.64V14.36H-0.88V15.64H1.12ZM16.6283 8.11969C15.5542 6.53186 14.0651 5.6 12.16 5.6V7.6C13.2949 7.6 14.2058 8.10813 14.9717 9.24031L16.6283 8.11969ZM12.16 5.6C10.2671 5.6 8.72563 6.52144 7.68043 8.13675L9.35957 9.22325C10.0744 8.11856 11.0129 7.6 12.16 7.6V5.6ZM7.68429 8.13082C6.6122 9.76227 6.16 11.9469 6.16 14.6H8.16C8.16 12.1331 8.5878 10.3977 9.35571 9.22918L7.68429 8.13082ZM6.16 14.6V15.4H8.16V14.6H6.16ZM6.16 15.4C6.16 18.0825 6.60843 20.3189 7.69172 21.9203L9.34828 20.7997C8.59157 19.6811 8.16 17.9175 8.16 15.4H6.16ZM7.68043 21.9033C8.73618 23.5349 10.2854 24.4 12.16 24.4V22.4C10.9946 22.4 10.0638 21.9051 9.35957 20.8167L7.68043 21.9033ZM12.16 24.4C14.0473 24.4 15.543 23.5246 16.6283 21.9203L14.9717 20.7997C14.217 21.9154 13.3127 22.4 12.16 22.4V24.4ZM16.6396 21.9033C17.665 20.3185 18.16 18.1009 18.16 15.4H16.16C16.16 17.8991 15.695 19.6815 14.9604 20.8167L16.6396 21.9033ZM18.16 15.4V14.6H16.16V15.4H18.16ZM18.16 14.6C18.16 11.929 17.6613 9.76201 16.6466 8.14783L14.9534 9.21217C15.6987 10.398 16.16 12.151 16.16 14.6H18.16ZM38.8481 0.999998H39.8481V-1.90735e-06H38.8481V0.999998ZM38.8481 29V30H39.8481V29H38.8481ZM31.8081 29H30.8081V30H31.8081V29ZM31.8081 12.16H32.8081V11.16H31.8081V12.16ZM25.7281 12.16H24.7281V13.16H25.7281V12.16ZM25.7281 6.44V5.44H24.7281V6.44H25.7281ZM31.3281 5.56L30.5144 4.97876L30.505 4.99188L30.4961 5.0053L31.3281 5.56ZM31.9281 0.999998V-1.90735e-06H30.9281V0.999998H31.9281ZM37.8481 0.999998V29H39.8481V0.999998H37.8481ZM38.8481 28H31.8081V30H38.8481V28ZM32.8081 29V12.16H30.8081V29H32.8081ZM31.8081 11.16H30.4881V13.16H31.8081V11.16ZM30.4881 11.16H25.7281V13.16H30.4881V11.16ZM26.7281 12.16V6.44H24.7281V12.16H26.7281ZM25.7281 7.44H29.6881V5.44H25.7281V7.44ZM29.6881 7.44C30.1813 7.44 30.66 7.34295 31.1013 7.10599C31.5422 6.86919 31.8873 6.52402 32.1602 6.1147L30.4961 5.0053C30.369 5.19598 30.2541 5.29081 30.155 5.34401C30.0562 5.39705 29.915 5.44 29.6881 5.44V7.44ZM32.1419 6.14124C32.6929 5.36974 32.9281 4.43023 32.9281 3.4H30.9281C30.9281 4.12977 30.7633 4.63026 30.5144 4.97876L32.1419 6.14124ZM32.9281 3.4V0.999998H30.9281V3.4H32.9281ZM31.9281 2H38.8481V-1.90735e-06H31.9281V2Z" fill="#C3CBE4" mask="url(#path-1-outside-1_142_3501)"/>
</svg>
