<svg width="48" height="30" viewBox="0 0 48 30" fill="none" xmlns="http://www.w3.org/2000/svg">
<mask id="path-1-outside-1_142_3506" maskUnits="userSpaceOnUse" x="-1" y="-1" width="50" height="32" fill="black">
<rect fill="white" x="-1" y="-1" width="50" height="32"/>
<path d="M0.12 14.36C0.12 11.56 0.6 9.16 1.64 7.08C2.64 5.04 4.04 3.48 5.88 2.4C7.72 1.32 9.8 0.759999 12.16 0.759999C14.48 0.759999 16.56 1.32 18.4 2.4C20.24 3.48 21.64 5.04 22.68 7.08C23.68 9.16 24.2 11.56 24.2 14.36V15.64C24.2 18.44 23.68 20.88 22.68 22.92C21.64 25 20.24 26.56 18.4 27.64C16.56 28.72 14.48 29.24 12.16 29.24C9.8 29.24 7.72 28.72 5.88 27.64C4.04 26.56 2.64 25 1.64 22.92C0.6 20.88 0.12 18.44 0.12 15.64V14.36ZM15.8 8.68C14.88 7.32 13.68 6.6 12.16 6.6C10.64 6.6 9.4 7.32 8.52 8.68C7.6 10.08 7.16 12.04 7.16 14.6V15.4C7.16 18 7.6 20 8.52 21.36C9.4 22.72 10.64 23.4 12.16 23.4C13.68 23.4 14.88 22.72 15.8 21.36C16.68 20 17.16 18 17.16 15.4V14.6C17.16 12.04 16.68 10.08 15.8 8.68ZM36.8481 15.24C38.0481 14.28 38.9681 13.4 39.5281 12.6C40.0881 11.8 40.3681 10.96 40.3681 10.08C40.3681 8.96 40.0081 8.08 39.3681 7.48C38.7281 6.88 37.8481 6.56 36.7681 6.56C35.7281 6.56 34.8881 6.96 34.2481 7.72C33.5681 8.48 33.2481 9.48 33.2481 10.72V11.12H26.1281V10.32C26.1281 8.56 26.5681 6.92 27.4481 5.48C28.3281 4.04 29.5681 2.88 31.1681 2C32.7681 1.16 34.6481 0.719999 36.7681 0.719999C40.2081 0.719999 42.8481 1.56 44.6881 3.2C46.5281 4.88 47.4881 7.08 47.4881 9.8C47.4881 11.72 47.0081 13.4 46.1281 14.76C45.2081 16.16 43.7681 17.64 41.8481 19.16L36.7281 23.2H47.6081V29H26.3681V23.68L36.8481 15.24Z"/>
</mask>
<path d="M1.64 7.08L2.53446 7.52723L2.53792 7.52015L1.64 7.08ZM22.68 7.08L23.5813 6.6467L23.5762 6.6362L23.5709 6.62581L22.68 7.08ZM22.68 22.92L23.5745 23.3672L23.5779 23.3602L22.68 22.92ZM18.4 27.64L18.9062 28.5024L18.4 27.64ZM5.88 27.64L5.3738 28.5024L5.88 27.64ZM1.64 22.92L2.54125 22.4867L2.5362 22.4762L2.53091 22.4658L1.64 22.92ZM15.8 8.68L16.6466 8.14783L16.6377 8.1336L16.6283 8.11969L15.8 8.68ZM8.52 8.68L9.35573 9.22919L9.35957 9.22325L8.52 8.68ZM8.52 21.36L9.35957 20.8167L9.35401 20.8082L9.34828 20.7997L8.52 21.36ZM15.8 21.36L16.6283 21.9203L16.634 21.9118L16.6396 21.9033L15.8 21.36ZM1.12 14.36C1.12 11.6745 1.58003 9.436 2.53443 7.52721L0.745573 6.63279C-0.380033 8.884 -0.88 11.4455 -0.88 14.36H1.12ZM2.53792 7.52015C3.4597 5.63973 4.73059 4.23419 6.3862 3.26241L5.3738 1.53758C3.34941 2.72581 1.8203 4.44027 0.742079 6.63984L2.53792 7.52015ZM6.3862 3.26241C8.06325 2.27806 9.96667 1.76 12.16 1.76V-0.240002C9.63334 -0.240002 7.37675 0.361938 5.3738 1.53758L6.3862 3.26241ZM12.16 1.76C14.3117 1.76 16.2154 2.27725 17.8938 3.26241L18.9062 1.53758C16.9046 0.362743 14.6483 -0.240002 12.16 -0.240002V1.76ZM17.8938 3.26241C19.5491 4.23403 20.8245 5.64215 21.7891 7.53419L23.5709 6.62581C22.4555 4.43785 20.9309 2.72597 18.9062 1.53758L17.8938 3.26241ZM21.7787 7.51329C22.7044 9.43865 23.2 11.6868 23.2 14.36H25.2C25.2 11.4332 24.6556 8.88135 23.5813 6.6467L21.7787 7.51329ZM23.2 14.36V15.64H25.2V14.36H23.2ZM23.2 15.64C23.2 18.3175 22.7028 20.6015 21.7821 22.4798L23.5779 23.3602C24.6572 21.1585 25.2 18.5625 25.2 15.64H23.2ZM21.7856 22.4728C20.8215 24.4009 19.5476 25.8069 17.8938 26.7776L18.9062 28.5024C20.9324 27.3131 22.4585 25.5991 23.5744 23.3672L21.7856 22.4728ZM17.8938 26.7776C16.2257 27.7567 14.3246 28.24 12.16 28.24V30.24C14.6354 30.24 16.8943 29.6833 18.9062 28.5024L17.8938 26.7776ZM12.16 28.24C9.9537 28.24 8.05306 27.756 6.3862 26.7776L5.3738 28.5024C7.38694 29.684 9.6463 30.24 12.16 30.24V28.24ZM6.3862 26.7776C4.73212 25.8067 3.46273 24.4034 2.54125 22.4867L0.738748 23.3533C1.81727 25.5966 3.34788 27.3133 5.3738 28.5024L6.3862 26.7776ZM2.53091 22.4658C1.58165 20.6038 1.12 18.3302 1.12 15.64H-0.88C-0.88 18.5498 -0.381646 21.1562 0.749094 23.3742L2.53091 22.4658ZM1.12 15.64V14.36H-0.88V15.64H1.12ZM16.6283 8.11969C15.5542 6.53186 14.0651 5.6 12.16 5.6V7.6C13.2949 7.6 14.2058 8.10813 14.9717 9.24031L16.6283 8.11969ZM12.16 5.6C10.2671 5.6 8.72563 6.52144 7.68043 8.13675L9.35957 9.22325C10.0744 8.11856 11.0129 7.6 12.16 7.6V5.6ZM7.68429 8.13082C6.6122 9.76227 6.16 11.9469 6.16 14.6H8.16C8.16 12.1331 8.5878 10.3977 9.35571 9.22918L7.68429 8.13082ZM6.16 14.6V15.4H8.16V14.6H6.16ZM6.16 15.4C6.16 18.0825 6.60843 20.3189 7.69172 21.9203L9.34828 20.7997C8.59157 19.6811 8.16 17.9175 8.16 15.4H6.16ZM7.68043 21.9033C8.73618 23.5349 10.2854 24.4 12.16 24.4V22.4C10.9946 22.4 10.0638 21.9051 9.35957 20.8167L7.68043 21.9033ZM12.16 24.4C14.0473 24.4 15.543 23.5246 16.6283 21.9203L14.9717 20.7997C14.217 21.9154 13.3127 22.4 12.16 22.4V24.4ZM16.6396 21.9033C17.665 20.3185 18.16 18.1009 18.16 15.4H16.16C16.16 17.8991 15.695 19.6815 14.9604 20.8167L16.6396 21.9033ZM18.16 15.4V14.6H16.16V15.4H18.16ZM18.16 14.6C18.16 11.929 17.6613 9.76201 16.6466 8.14783L14.9534 9.21217C15.6987 10.398 16.16 12.151 16.16 14.6H18.16ZM36.8481 15.24L36.2234 14.4591L36.2209 14.4612L36.8481 15.24ZM39.5281 12.6L38.7089 12.0265L39.5281 12.6ZM39.3681 7.48L40.0521 6.75046V6.75046L39.3681 7.48ZM34.2481 7.72L34.9934 8.3868L35.0034 8.37561L35.013 8.36414L34.2481 7.72ZM33.2481 11.12V12.12H34.2481V11.12H33.2481ZM26.1281 11.12H25.1281V12.12H26.1281V11.12ZM27.4481 5.48L28.3014 6.00145V6.00145L27.4481 5.48ZM31.1681 2L30.7033 1.1146L30.6947 1.11911L30.6862 1.12378L31.1681 2ZM44.6881 3.2L45.3624 2.46146L45.3535 2.45349L44.6881 3.2ZM46.1281 14.76L46.9639 15.3092L46.9677 15.3033L46.1281 14.76ZM41.8481 19.16L42.4676 19.945L42.4688 19.944L41.8481 19.16ZM36.7281 23.2L36.1087 22.415L33.8465 24.2H36.7281V23.2ZM47.6081 23.2H48.6081V22.2H47.6081V23.2ZM47.6081 29V30H48.6081V29H47.6081ZM26.3681 29H25.3681V30H26.3681V29ZM26.3681 23.68L25.7409 22.9012L25.3681 23.2014V23.68H26.3681ZM37.4728 16.0209C38.6949 15.0432 39.7044 14.092 40.3474 13.1735L38.7089 12.0265C38.2319 12.708 37.4014 13.5168 36.2234 14.4591L37.4728 16.0209ZM40.3474 13.1735C41.0115 12.2246 41.3681 11.1875 41.3681 10.08H39.3681C39.3681 10.7325 39.1647 11.3754 38.7089 12.0265L40.3474 13.1735ZM41.3681 10.08C41.3681 8.73848 40.9305 7.57404 40.0521 6.75046L38.6842 8.20953C39.0857 8.58596 39.3681 9.18151 39.3681 10.08H41.3681ZM40.0521 6.75046C39.1924 5.94455 38.0509 5.56 36.7681 5.56V7.56C37.6453 7.56 38.2638 7.81545 38.6842 8.20954L40.0521 6.75046ZM36.7681 5.56C35.4343 5.56 34.314 6.08936 33.4832 7.07586L35.013 8.36414C35.4623 7.83064 36.022 7.56 36.7681 7.56V5.56ZM33.5029 7.05321C32.6175 8.04272 32.2481 9.30387 32.2481 10.72H34.2481C34.2481 9.65613 34.5187 8.91728 34.9934 8.3868L33.5029 7.05321ZM32.2481 10.72V11.12H34.2481V10.72H32.2481ZM33.2481 10.12H26.1281V12.12H33.2481V10.12ZM27.1281 11.12V10.32H25.1281V11.12H27.1281ZM27.1281 10.32C27.1281 8.73124 27.5238 7.2739 28.3014 6.00145L26.5948 4.95855C25.6124 6.5661 25.1281 8.38876 25.1281 10.32H27.1281ZM28.3014 6.00145C29.0832 4.7221 30.1897 3.6794 31.65 2.87622L30.6862 1.12378C28.9465 2.08059 27.573 3.3579 26.5948 4.95855L28.3014 6.00145ZM31.633 2.8854C33.0711 2.13038 34.7878 1.72 36.7681 1.72V-0.280001C34.5084 -0.280001 32.4652 0.18962 30.7033 1.1146L31.633 2.8854ZM36.7681 1.72C40.054 1.72 42.4242 2.52173 44.0228 3.94651L45.3535 2.45349C43.272 0.598265 40.3622 -0.280001 36.7681 -0.280001V1.72ZM44.0139 3.93848C45.634 5.41776 46.4881 7.34384 46.4881 9.8H48.4881C48.4881 6.81616 47.4222 4.34224 45.3624 2.46151L44.0139 3.93848ZM46.4881 9.8C46.4881 11.5513 46.0515 13.0377 45.2886 14.2167L46.9677 15.3033C47.9648 13.7623 48.4881 11.8887 48.4881 9.8H46.4881ZM45.2924 14.2108C44.4515 15.4905 43.0988 16.8944 41.2274 18.376L42.4688 19.944C44.4374 18.3856 45.9648 16.8295 46.9638 15.3092L45.2924 14.2108ZM41.2287 18.375L36.1087 22.415L37.3476 23.985L42.4676 19.945L41.2287 18.375ZM36.7281 24.2H47.6081V22.2H36.7281V24.2ZM46.6081 23.2V29H48.6081V23.2H46.6081ZM47.6081 28H26.3681V30H47.6081V28ZM27.3681 29V23.68H25.3681V29H27.3681ZM26.9954 24.4588L37.4754 16.0188L36.2209 14.4612L25.7409 22.9012L26.9954 24.4588Z" fill="#C3CBE4" mask="url(#path-1-outside-1_142_3506)"/>
</svg>
