<svg width="49" height="30" viewBox="0 0 49 30" fill="none" xmlns="http://www.w3.org/2000/svg">
<mask id="path-1-outside-1_142_3511" maskUnits="userSpaceOnUse" x="-1" y="-1" width="51" height="32" fill="black">
<rect fill="white" x="-1" y="-1" width="51" height="32"/>
<path d="M0.12 14.36C0.12 11.56 0.6 9.16 1.64 7.08C2.64 5.04 4.04 3.48 5.88 2.4C7.72 1.32 9.8 0.759999 12.16 0.759999C14.48 0.759999 16.56 1.32 18.4 2.4C20.24 3.48 21.64 5.04 22.68 7.08C23.68 9.16 24.2 11.56 24.2 14.36V15.64C24.2 18.44 23.68 20.88 22.68 22.92C21.64 25 20.24 26.56 18.4 27.64C16.56 28.72 14.48 29.24 12.16 29.24C9.8 29.24 7.72 28.72 5.88 27.64C4.04 26.56 2.64 25 1.64 22.92C0.6 20.88 0.12 18.44 0.12 15.64V14.36ZM15.8 8.68C14.88 7.32 13.68 6.6 12.16 6.6C10.64 6.6 9.4 7.32 8.52 8.68C7.6 10.08 7.16 12.04 7.16 14.6V15.4C7.16 18 7.6 20 8.52 21.36C9.4 22.72 10.64 23.4 12.16 23.4C13.68 23.4 14.88 22.72 15.8 21.36C16.68 20 17.16 18 17.16 15.4V14.6C17.16 12.04 16.68 10.08 15.8 8.68ZM48.6528 21.16C48.6528 22.8 48.1728 24.24 47.2528 25.44C46.3328 26.64 45.0128 27.6 43.3328 28.24C41.6528 28.92 39.6528 29.24 37.3728 29.24C33.8928 29.24 31.1328 28.36 29.1328 26.6C27.1328 24.84 26.1328 22.44 26.1328 19.32H33.1328C33.1328 20.76 33.5728 21.88 34.4528 22.68C35.2928 23.48 36.4128 23.88 37.7728 23.88C38.8128 23.88 39.6928 23.6 40.4128 23C41.1328 22.44 41.4928 21.6 41.4928 20.56C41.4928 19.64 41.1328 18.92 40.4128 18.4C39.6928 17.88 38.6928 17.6 37.3328 17.6H34.3328V12.08H36.9328C38.2128 12.08 39.1728 11.8 39.8928 11.24C40.5728 10.68 40.9328 9.92 40.9328 8.96C40.9328 8.04 40.6128 7.32 40.0128 6.84C39.4128 6.36 38.6128 6.12 37.6528 6.12C36.5328 6.12 35.5728 6.44 34.8528 7.08C34.1328 7.72 33.7328 8.6 33.6928 9.72H26.8528C26.8528 6.96 27.8128 4.76 29.7328 3.16C31.6128 1.56 34.1728 0.759999 37.3728 0.759999C40.7328 0.759999 43.3728 1.44 45.2128 2.8C47.0528 4.16 48.0128 5.96 48.0128 8.28C48.0128 9.92 47.4928 11.24 46.4528 12.24C45.4128 13.24 44.0928 13.96 42.4128 14.36C46.5728 15.4 48.6528 17.64 48.6528 21.16Z"/>
</mask>
<path d="M1.64 7.08L2.53446 7.52723L2.53792 7.52015L1.64 7.08ZM22.68 7.08L23.5813 6.6467L23.5762 6.6362L23.5709 6.62581L22.68 7.08ZM22.68 22.92L23.5745 23.3672L23.5779 23.3602L22.68 22.92ZM18.4 27.64L18.9062 28.5024L18.4 27.64ZM5.88 27.64L5.3738 28.5024L5.88 27.64ZM1.64 22.92L2.54125 22.4867L2.5362 22.4762L2.53091 22.4658L1.64 22.92ZM15.8 8.68L16.6466 8.14783L16.6377 8.1336L16.6283 8.11969L15.8 8.68ZM8.52 8.68L9.35573 9.22919L9.35957 9.22325L8.52 8.68ZM8.52 21.36L9.35957 20.8167L9.35401 20.8082L9.34828 20.7997L8.52 21.36ZM15.8 21.36L16.6283 21.9203L16.634 21.9118L16.6396 21.9033L15.8 21.36ZM1.12 14.36C1.12 11.6745 1.58003 9.436 2.53443 7.52721L0.745573 6.63279C-0.380033 8.884 -0.88 11.4455 -0.88 14.36H1.12ZM2.53792 7.52015C3.4597 5.63973 4.73059 4.23419 6.3862 3.26241L5.3738 1.53758C3.34941 2.72581 1.8203 4.44027 0.742079 6.63984L2.53792 7.52015ZM6.3862 3.26241C8.06325 2.27806 9.96667 1.76 12.16 1.76V-0.240002C9.63334 -0.240002 7.37675 0.361938 5.3738 1.53758L6.3862 3.26241ZM12.16 1.76C14.3117 1.76 16.2154 2.27725 17.8938 3.26241L18.9062 1.53758C16.9046 0.362743 14.6483 -0.240002 12.16 -0.240002V1.76ZM17.8938 3.26241C19.5491 4.23403 20.8245 5.64215 21.7891 7.53419L23.5709 6.62581C22.4555 4.43785 20.9309 2.72597 18.9062 1.53758L17.8938 3.26241ZM21.7787 7.51329C22.7044 9.43865 23.2 11.6868 23.2 14.36H25.2C25.2 11.4332 24.6556 8.88135 23.5813 6.6467L21.7787 7.51329ZM23.2 14.36V15.64H25.2V14.36H23.2ZM23.2 15.64C23.2 18.3175 22.7028 20.6015 21.7821 22.4798L23.5779 23.3602C24.6572 21.1585 25.2 18.5625 25.2 15.64H23.2ZM21.7856 22.4728C20.8215 24.4009 19.5476 25.8069 17.8938 26.7776L18.9062 28.5024C20.9324 27.3131 22.4585 25.5991 23.5744 23.3672L21.7856 22.4728ZM17.8938 26.7776C16.2257 27.7567 14.3246 28.24 12.16 28.24V30.24C14.6354 30.24 16.8943 29.6833 18.9062 28.5024L17.8938 26.7776ZM12.16 28.24C9.9537 28.24 8.05306 27.756 6.3862 26.7776L5.3738 28.5024C7.38694 29.684 9.6463 30.24 12.16 30.24V28.24ZM6.3862 26.7776C4.73212 25.8067 3.46273 24.4034 2.54125 22.4867L0.738748 23.3533C1.81727 25.5966 3.34788 27.3133 5.3738 28.5024L6.3862 26.7776ZM2.53091 22.4658C1.58165 20.6038 1.12 18.3302 1.12 15.64H-0.88C-0.88 18.5498 -0.381646 21.1562 0.749094 23.3742L2.53091 22.4658ZM1.12 15.64V14.36H-0.88V15.64H1.12ZM16.6283 8.11969C15.5542 6.53186 14.0651 5.6 12.16 5.6V7.6C13.2949 7.6 14.2058 8.10813 14.9717 9.24031L16.6283 8.11969ZM12.16 5.6C10.2671 5.6 8.72563 6.52144 7.68043 8.13675L9.35957 9.22325C10.0744 8.11856 11.0129 7.6 12.16 7.6V5.6ZM7.68429 8.13082C6.6122 9.76227 6.16 11.9469 6.16 14.6H8.16C8.16 12.1331 8.5878 10.3977 9.35571 9.22918L7.68429 8.13082ZM6.16 14.6V15.4H8.16V14.6H6.16ZM6.16 15.4C6.16 18.0825 6.60843 20.3189 7.69172 21.9203L9.34828 20.7997C8.59157 19.6811 8.16 17.9175 8.16 15.4H6.16ZM7.68043 21.9033C8.73618 23.5349 10.2854 24.4 12.16 24.4V22.4C10.9946 22.4 10.0638 21.9051 9.35957 20.8167L7.68043 21.9033ZM12.16 24.4C14.0473 24.4 15.543 23.5246 16.6283 21.9203L14.9717 20.7997C14.217 21.9154 13.3127 22.4 12.16 22.4V24.4ZM16.6396 21.9033C17.665 20.3185 18.16 18.1009 18.16 15.4H16.16C16.16 17.8991 15.695 19.6815 14.9604 20.8167L16.6396 21.9033ZM18.16 15.4V14.6H16.16V15.4H18.16ZM18.16 14.6C18.16 11.929 17.6613 9.76201 16.6466 8.14783L14.9534 9.21217C15.6987 10.398 16.16 12.151 16.16 14.6H18.16ZM47.2528 25.44L48.0464 26.0484L47.2528 25.44ZM43.3328 28.24L42.9768 27.3055L42.9672 27.3092L42.9576 27.3131L43.3328 28.24ZM29.1328 26.6L28.4722 27.3507L29.1328 26.6ZM26.1328 19.32V18.32H25.1328V19.32H26.1328ZM33.1328 19.32H34.1328V18.32H33.1328V19.32ZM34.4528 22.68L35.1425 21.9559L35.1341 21.9479L35.1255 21.9401L34.4528 22.68ZM40.4128 23L39.7989 22.2106L39.7856 22.221L39.7726 22.2318L40.4128 23ZM40.4128 18.4L40.9983 17.5893L40.4128 18.4ZM34.3328 17.6H33.3328V18.6H34.3328V17.6ZM34.3328 12.08V11.08H33.3328V12.08H34.3328ZM39.8928 11.24L40.5068 12.0294L40.5178 12.0208L40.5285 12.0119L39.8928 11.24ZM40.0128 6.84L39.3881 7.62087L39.3881 7.62087L40.0128 6.84ZM34.8528 7.08L34.1884 6.33259V6.33259L34.8528 7.08ZM33.6928 9.72V10.72H34.6577L34.6922 9.75569L33.6928 9.72ZM26.8528 9.72H25.8528V10.72H26.8528V9.72ZM29.7328 3.16L30.373 3.92826L30.3809 3.92154L29.7328 3.16ZM46.4528 12.24L47.1459 12.9608V12.9608L46.4528 12.24ZM42.4128 14.36L42.1812 13.3872L42.1703 15.3301L42.4128 14.36ZM47.6528 21.16C47.6528 22.5936 47.2373 23.8166 46.4592 24.8316L48.0464 26.0484C49.1083 24.6634 49.6528 23.0064 49.6528 21.16H47.6528ZM46.4592 24.8316C45.6667 25.8653 44.5075 26.7224 42.9768 27.3055L43.6888 29.1745C45.5181 28.4776 46.999 27.4147 48.0464 26.0484L46.4592 24.8316ZM42.9576 27.3131C41.4295 27.9316 39.5649 28.24 37.3728 28.24V30.24C39.7407 30.24 41.8761 29.9084 43.708 29.1669L42.9576 27.3131ZM37.3728 28.24C34.0583 28.24 31.5599 27.4038 29.7934 25.8493L28.4722 27.3507C30.7057 29.3162 33.7274 30.24 37.3728 30.24V28.24ZM29.7934 25.8493C28.0438 24.3096 27.1328 22.2022 27.1328 19.32H25.1328C25.1328 22.6778 26.2218 25.3704 28.4722 27.3507L29.7934 25.8493ZM26.1328 20.32H33.1328V18.32H26.1328V20.32ZM32.1328 19.32C32.1328 20.9774 32.6484 22.3911 33.7801 23.4199L35.1255 21.9401C34.4973 21.3689 34.1328 20.5426 34.1328 19.32H32.1328ZM33.7632 23.4041C34.8235 24.414 36.2079 24.88 37.7728 24.88V22.88C36.6177 22.88 35.7621 22.546 35.1425 21.9559L33.7632 23.4041ZM37.7728 24.88C39.0039 24.88 40.1229 24.5433 41.053 23.7682L39.7726 22.2318C39.2627 22.6567 38.6217 22.88 37.7728 22.88V24.88ZM41.0268 23.7894C42.0365 23.004 42.4928 21.8449 42.4928 20.56H40.4928C40.4928 21.3551 40.2291 21.876 39.7989 22.2106L41.0268 23.7894ZM42.4928 20.56C42.4928 19.3325 41.9895 18.3052 40.9983 17.5893L39.8273 19.2107C40.2762 19.5348 40.4928 19.9475 40.4928 20.56H42.4928ZM40.9983 17.5893C40.0517 16.9057 38.8211 16.6 37.3328 16.6V18.6C38.5645 18.6 39.3339 18.8543 39.8273 19.2107L40.9983 17.5893ZM37.3328 16.6H34.3328V18.6H37.3328V16.6ZM35.3328 17.6V12.08H33.3328V17.6H35.3328ZM34.3328 13.08H36.9328V11.08H34.3328V13.08ZM36.9328 13.08C38.356 13.08 39.5576 12.7676 40.5068 12.0294L39.2789 10.4506C38.7881 10.8324 38.0696 11.08 36.9328 11.08V13.08ZM40.5285 12.0119C41.4497 11.2533 41.9328 10.2049 41.9328 8.96H39.9328C39.9328 9.63513 39.6959 10.1067 39.2571 10.4681L40.5285 12.0119ZM41.9328 8.96C41.9328 7.79202 41.5151 6.76122 40.6375 6.05913L39.3881 7.62087C39.7105 7.87877 39.9328 8.28798 39.9328 8.96H41.9328ZM40.6375 6.05913C39.8162 5.4021 38.7763 5.12 37.6528 5.12V7.12C38.4493 7.12 39.0094 7.3179 39.3881 7.62087L40.6375 6.05913ZM37.6528 5.12C36.3404 5.12 35.1273 5.49807 34.1884 6.33259L35.5172 7.82741C36.0183 7.38193 36.7252 7.12 37.6528 7.12V5.12ZM34.1884 6.33259C33.2402 7.17545 32.742 8.32512 32.6935 9.68431L34.6922 9.75569C34.7236 8.87488 35.0254 8.26455 35.5172 7.82741L34.1884 6.33259ZM33.6928 8.72H26.8528V10.72H33.6928V8.72ZM27.8528 9.72C27.8528 7.21915 28.7084 5.31538 30.373 3.92822L29.0926 2.39178C26.9172 4.20462 25.8528 6.70085 25.8528 9.72H27.8528ZM30.3809 3.92154C32.031 2.51721 34.3368 1.76 37.3728 1.76V-0.240002C34.0088 -0.240002 31.1946 0.602787 29.0847 2.39846L30.3809 3.92154ZM37.3728 1.76C40.6179 1.76 43.016 2.41975 44.6184 3.60418L45.8072 1.99582C43.7297 0.460244 40.8478 -0.240002 37.3728 -0.240002V1.76ZM44.6184 3.60418C46.215 4.78423 47.0128 6.29142 47.0128 8.28H49.0128C49.0128 5.62858 47.8907 3.53577 45.8072 1.99582L44.6184 3.60418ZM47.0128 8.28C47.0128 9.6887 46.5761 10.7342 45.7597 11.5192L47.1459 12.9608C48.4095 11.7458 49.0128 10.1513 49.0128 8.28H47.0128ZM45.7597 11.5192C44.8605 12.3838 43.7049 13.0244 42.1812 13.3872L42.6444 15.3328C44.4808 14.8956 45.9651 14.0962 47.1459 12.9608L45.7597 11.5192ZM42.1703 15.3301C44.135 15.8213 45.493 16.5684 46.357 17.5072C47.2028 18.4261 47.6528 19.6125 47.6528 21.16H49.6528C49.6528 19.1875 49.0629 17.4939 47.8286 16.1528C46.6126 14.8316 44.8506 13.9387 42.6553 13.3899L42.1703 15.3301Z" fill="#C3CBE4" mask="url(#path-1-outside-1_142_3511)"/>
</svg>
