<svg width="165" height="56" viewBox="0 0 165 56" fill="none" xmlns="http://www.w3.org/2000/svg">
<rect width="165" height="56" rx="28" fill="black"/>
<path fill-rule="evenodd" clip-rule="evenodd" d="M51.8334 39.9332C52.8168 38.4332 53.1834 37.6665 53.9334 35.9832C48.4001 33.8832 47.5168 25.9998 52.9834 22.9832C51.3168 20.8832 48.9668 19.6665 46.7501 19.6665C45.1501 19.6665 44.0501 20.0832 43.0668 20.4665C42.2334 20.7832 41.4834 21.0665 40.5501 21.0665C39.5501 21.0665 38.6668 20.7499 37.7334 20.4165C36.7168 20.0499 35.6501 19.6665 34.3168 19.6665C31.8334 19.6665 29.1834 21.1832 27.5001 23.7832C25.1334 27.4498 25.5501 34.3165 29.3668 40.1832C30.7334 42.2832 32.5668 44.6332 34.9501 44.6665C35.9501 44.6832 36.6001 44.3832 37.3168 44.0665C38.1334 43.6999 39.0168 43.2998 40.5668 43.2998C42.1168 43.2832 42.9834 43.6999 43.8001 44.0665C44.5001 44.3832 45.1334 44.6832 46.1168 44.6665C48.5334 44.6332 50.4668 42.0332 51.8334 39.9332Z" fill="white"/>
<path fill-rule="evenodd" clip-rule="evenodd" d="M46.4007 11.3335C46.6674 13.1668 45.9174 14.9835 44.9341 16.2502C43.8841 17.6168 42.0507 18.6835 40.2841 18.6168C39.9674 16.8502 40.7841 15.0335 41.7841 13.8168C42.9007 12.4835 44.784 11.4502 46.4007 11.3335Z" fill="white"/>
<path d="M68.996 15.568C69.32 14.92 69.788 14.428 70.4 14.068C71 13.708 71.708 13.528 72.512 13.528C73.436 13.528 74.216 13.78 74.84 14.284C75.464 14.788 75.86 15.484 76.028 16.348H74.984C74.828 15.772 74.528 15.316 74.084 14.98C73.64 14.656 73.1 14.488 72.464 14.488C71.888 14.488 71.372 14.632 70.94 14.908C70.496 15.196 70.16 15.58 69.92 16.084C69.68 16.588 69.572 17.152 69.572 17.8C69.572 18.448 69.68 19.012 69.92 19.516C70.16 20.02 70.496 20.416 70.94 20.692C71.372 20.98 71.888 21.112 72.464 21.112C73.112 21.112 73.652 20.956 74.084 20.632C74.516 20.308 74.804 19.852 74.972 19.252H76.016C75.848 20.128 75.464 20.812 74.84 21.316C74.216 21.82 73.448 22.072 72.512 22.072C71.708 22.072 71 21.904 70.4 21.544C69.788 21.184 69.32 20.692 68.996 20.044C68.66 19.396 68.504 18.652 68.504 17.8C68.504 16.96 68.66 16.216 68.996 15.568ZM78.4275 21.676C77.9715 21.412 77.6115 21.052 77.3595 20.572C77.0955 20.104 76.9755 19.564 76.9755 18.94C76.9755 18.328 77.0955 17.788 77.3595 17.308C77.6115 16.84 77.9715 16.468 78.4275 16.204C78.8835 15.94 79.4115 15.808 80.0115 15.808C80.5995 15.808 81.1275 15.94 81.5835 16.204C82.0395 16.468 82.3995 16.84 82.6635 17.308C82.9155 17.788 83.0475 18.328 83.0475 18.94C83.0475 19.564 82.9155 20.104 82.6635 20.572C82.3995 21.052 82.0395 21.412 81.5835 21.676C81.1275 21.94 80.5995 22.072 80.0115 22.072C79.4115 22.072 78.8835 21.94 78.4275 21.676ZM81.0675 20.908C81.3795 20.716 81.6195 20.452 81.7875 20.104C81.9555 19.768 82.0395 19.372 82.0395 18.94C82.0395 18.508 81.9555 18.124 81.7875 17.776C81.6195 17.44 81.3795 17.164 81.0675 16.972C80.7555 16.78 80.4075 16.684 80.0115 16.684C79.6035 16.684 79.2555 16.78 78.9435 16.972C78.6315 17.164 78.4035 17.44 78.2355 17.776C78.0675 18.124 77.9835 18.508 77.9835 18.94C77.9835 19.372 78.0675 19.768 78.2355 20.104C78.4035 20.452 78.6315 20.716 78.9435 20.908C79.2555 21.1 79.6035 21.196 80.0115 21.196C80.4075 21.196 80.7555 21.1 81.0675 20.908ZM92.6719 16.456C93.1039 16.888 93.3199 17.56 93.3199 18.472V22H92.3359V18.532C92.3359 17.944 92.2039 17.488 91.9519 17.176C91.6999 16.864 91.3399 16.708 90.8839 16.708C90.3679 16.708 89.9599 16.888 89.6719 17.248C89.3839 17.608 89.2399 18.1 89.2399 18.724V22H88.2559V18.532C88.2559 17.944 88.1239 17.488 87.8719 17.176C87.6079 16.864 87.2479 16.708 86.7799 16.708C86.2759 16.708 85.8799 16.9 85.5919 17.284C85.3039 17.668 85.1599 18.16 85.1599 18.772V22H84.1759V15.88H85.0279L85.1599 16.72C85.5919 16.12 86.1919 15.808 86.9479 15.808C87.3799 15.808 87.7759 15.916 88.1119 16.108C88.4479 16.3 88.7119 16.588 88.8799 16.972C89.3119 16.204 90.0199 15.808 91.0039 15.808C91.6879 15.808 92.2399 16.024 92.6719 16.456ZM95.5302 13.696C95.6502 13.816 95.7102 13.972 95.7102 14.152C95.7102 14.344 95.6502 14.488 95.5302 14.608C95.4102 14.728 95.2542 14.788 95.0742 14.788C94.8822 14.788 94.7382 14.728 94.6182 14.608C94.4982 14.488 94.4382 14.344 94.4382 14.152C94.4382 13.972 94.4982 13.816 94.6182 13.696C94.7382 13.576 94.8822 13.516 95.0742 13.516C95.2542 13.516 95.4102 13.576 95.5302 13.696ZM94.5822 15.88H95.5662V22H94.5822V15.88ZM101.702 16.48C102.158 16.936 102.386 17.632 102.386 18.592V22H101.402V18.652C101.402 18.028 101.258 17.548 100.97 17.212C100.682 16.876 100.274 16.708 99.7462 16.708C99.1702 16.708 98.7142 16.912 98.3902 17.308C98.0542 17.716 97.8982 18.256 97.8982 18.94V22H96.9142V15.88H97.7662L97.8982 16.708C98.3542 16.108 99.0262 15.808 99.9142 15.808C100.658 15.808 101.246 16.036 101.702 16.48ZM109.449 15.88V21.7C109.449 23.548 108.429 24.472 106.413 24.472C105.621 24.472 104.973 24.292 104.469 23.932C103.965 23.572 103.677 23.068 103.605 22.396H104.613C104.685 22.78 104.889 23.08 105.225 23.284C105.549 23.5 105.969 23.596 106.485 23.596C107.805 23.596 108.465 22.96 108.465 21.664V20.944C108.021 21.7 107.325 22.072 106.365 22.072C105.789 22.072 105.285 21.952 104.841 21.7C104.397 21.46 104.049 21.1 103.797 20.62C103.545 20.152 103.425 19.588 103.425 18.94C103.425 18.328 103.545 17.788 103.797 17.308C104.049 16.84 104.397 16.468 104.853 16.204C105.297 15.94 105.801 15.808 106.365 15.808C106.857 15.808 107.277 15.916 107.637 16.108C107.985 16.3 108.261 16.576 108.465 16.936L108.597 15.88H109.449ZM107.505 20.92C107.817 20.728 108.057 20.464 108.225 20.128C108.393 19.792 108.477 19.396 108.477 18.964C108.477 18.532 108.393 18.136 108.225 17.788C108.057 17.44 107.817 17.164 107.505 16.972C107.193 16.78 106.845 16.684 106.461 16.684C105.849 16.684 105.357 16.9 104.985 17.32C104.613 17.74 104.433 18.28 104.433 18.94C104.433 19.612 104.613 20.152 104.985 20.572C105.357 20.992 105.849 21.196 106.461 21.196C106.845 21.196 107.193 21.112 107.505 20.92ZM114.698 19.984C114.71 20.356 114.866 20.656 115.178 20.884C115.49 21.124 115.886 21.232 116.378 21.232C116.81 21.232 117.158 21.148 117.422 20.98C117.686 20.812 117.83 20.584 117.83 20.296C117.83 20.056 117.758 19.876 117.638 19.744C117.506 19.624 117.338 19.528 117.134 19.48C116.93 19.432 116.642 19.384 116.27 19.336C115.742 19.276 115.31 19.192 114.974 19.084C114.638 18.988 114.362 18.82 114.158 18.592C113.942 18.364 113.846 18.052 113.846 17.644C113.846 17.284 113.942 16.972 114.146 16.684C114.35 16.408 114.626 16.192 114.986 16.036C115.334 15.88 115.73 15.796 116.174 15.796C116.894 15.796 117.47 15.964 117.926 16.3C118.382 16.636 118.634 17.116 118.682 17.74H117.698C117.65 17.428 117.494 17.164 117.23 16.948C116.954 16.744 116.618 16.636 116.21 16.636C115.79 16.636 115.454 16.732 115.202 16.9C114.938 17.068 114.818 17.296 114.818 17.572C114.818 17.788 114.878 17.944 114.998 18.052C115.118 18.172 115.262 18.244 115.454 18.28C115.646 18.328 115.934 18.364 116.318 18.412C116.846 18.484 117.29 18.568 117.638 18.676C117.986 18.796 118.262 18.976 118.478 19.216C118.694 19.468 118.802 19.804 118.802 20.224C118.802 20.596 118.694 20.92 118.478 21.196C118.262 21.484 117.962 21.7 117.602 21.844C117.23 22 116.822 22.072 116.378 22.072C115.574 22.072 114.926 21.892 114.446 21.52C113.966 21.16 113.714 20.644 113.714 19.984H114.698ZM121.154 21.676C120.698 21.412 120.338 21.052 120.086 20.572C119.822 20.104 119.702 19.564 119.702 18.94C119.702 18.328 119.822 17.788 120.086 17.308C120.338 16.84 120.698 16.468 121.154 16.204C121.61 15.94 122.138 15.808 122.738 15.808C123.326 15.808 123.854 15.94 124.31 16.204C124.766 16.468 125.126 16.84 125.39 17.308C125.642 17.788 125.774 18.328 125.774 18.94C125.774 19.564 125.642 20.104 125.39 20.572C125.126 21.052 124.766 21.412 124.31 21.676C123.854 21.94 123.326 22.072 122.738 22.072C122.138 22.072 121.61 21.94 121.154 21.676ZM123.794 20.908C124.106 20.716 124.346 20.452 124.514 20.104C124.682 19.768 124.766 19.372 124.766 18.94C124.766 18.508 124.682 18.124 124.514 17.776C124.346 17.44 124.106 17.164 123.794 16.972C123.482 16.78 123.134 16.684 122.738 16.684C122.33 16.684 121.982 16.78 121.67 16.972C121.358 17.164 121.13 17.44 120.962 17.776C120.794 18.124 120.71 18.508 120.71 18.94C120.71 19.372 120.794 19.768 120.962 20.104C121.13 20.452 121.358 20.716 121.67 20.908C121.982 21.1 122.33 21.196 122.738 21.196C123.134 21.196 123.482 21.1 123.794 20.908ZM128.138 21.676C127.682 21.412 127.322 21.052 127.07 20.572C126.806 20.104 126.686 19.564 126.686 18.94C126.686 18.328 126.806 17.788 127.07 17.308C127.322 16.84 127.682 16.468 128.138 16.204C128.594 15.94 129.122 15.808 129.722 15.808C130.31 15.808 130.838 15.94 131.294 16.204C131.75 16.468 132.11 16.84 132.374 17.308C132.626 17.788 132.758 18.328 132.758 18.94C132.758 19.564 132.626 20.104 132.374 20.572C132.11 21.052 131.75 21.412 131.294 21.676C130.838 21.94 130.31 22.072 129.722 22.072C129.122 22.072 128.594 21.94 128.138 21.676ZM130.778 20.908C131.09 20.716 131.33 20.452 131.498 20.104C131.666 19.768 131.75 19.372 131.75 18.94C131.75 18.508 131.666 18.124 131.498 17.776C131.33 17.44 131.09 17.164 130.778 16.972C130.466 16.78 130.118 16.684 129.722 16.684C129.314 16.684 128.966 16.78 128.654 16.972C128.342 17.164 128.114 17.44 127.946 17.776C127.778 18.124 127.694 18.508 127.694 18.94C127.694 19.372 127.778 19.768 127.946 20.104C128.114 20.452 128.342 20.716 128.654 20.908C128.966 21.1 129.314 21.196 129.722 21.196C130.118 21.196 130.466 21.1 130.778 20.908ZM138.675 16.48C139.131 16.936 139.359 17.632 139.359 18.592V22H138.375V18.652C138.375 18.028 138.231 17.548 137.943 17.212C137.655 16.876 137.247 16.708 136.719 16.708C136.143 16.708 135.687 16.912 135.363 17.308C135.027 17.716 134.871 18.256 134.871 18.94V22H133.887V15.88H134.739L134.871 16.708C135.327 16.108 135.999 15.808 136.887 15.808C137.631 15.808 138.219 16.036 138.675 16.48Z" fill="white"/>
<path d="M79.376 42H77.12L76.16 39.328H71.408L70.448 42H68.192L72.32 30.8H75.28L79.376 42ZM73.136 34.48L72.08 37.456H75.488L74.416 34.48L73.792 32.512L73.136 34.48ZM85.5625 34C87.7225 34 89.0185 35.6 89.0185 38.096C89.0185 39.328 88.6985 40.304 88.0745 41.04C87.4345 41.792 86.5545 42.16 85.4505 42.16C84.1545 42.16 83.2585 41.552 82.7465 40.32V44.72H80.7145V34.16H82.7465V35.888C83.2585 34.624 84.2025 34 85.5625 34ZM84.8425 40.32C86.2985 40.32 86.9705 39.616 86.9705 38.096C86.9705 36.56 86.2985 35.84 84.8425 35.84C83.3545 35.84 82.6665 36.56 82.6665 38.096C82.6665 39.616 83.3545 40.32 84.8425 40.32ZM95.5938 34C97.7538 34 99.0498 35.6 99.0498 38.096C99.0498 39.328 98.7298 40.304 98.1058 41.04C97.4658 41.792 96.5858 42.16 95.4818 42.16C94.1858 42.16 93.2898 41.552 92.7778 40.32V44.72H90.7458V34.16H92.7778V35.888C93.2898 34.624 94.2338 34 95.5938 34ZM94.8738 40.32C96.3298 40.32 97.0018 39.616 97.0018 38.096C97.0018 36.56 96.3298 35.84 94.8738 35.84C93.3858 35.84 92.6978 36.56 92.6978 38.096C92.6978 39.616 93.3858 40.32 94.8738 40.32ZM108.621 42.16C106.045 42.16 104.349 41.024 104.029 38.608L106.189 38.032C106.365 39.824 107.117 40.368 108.669 40.368C110.093 40.368 110.701 39.92 110.701 38.912C110.701 38.448 110.589 38.144 110.365 37.968C110.125 37.792 109.693 37.648 109.037 37.52L107.133 37.152C105.245 36.784 104.301 35.712 104.301 33.936C104.301 32.944 104.669 32.144 105.421 31.536C106.173 30.944 107.149 30.64 108.365 30.64C110.909 30.64 112.509 31.824 112.717 34.128L110.701 34.688C110.621 32.944 109.837 32.464 108.349 32.464C107.117 32.464 106.493 32.928 106.493 33.84C106.493 34.784 106.925 35.024 108.189 35.264L109.949 35.6C111.901 35.968 112.877 36.976 112.877 38.624C112.877 39.696 112.493 40.544 111.725 41.184C110.957 41.84 109.917 42.16 108.621 42.16ZM119.534 34.16V35.952H117.262V40.208H119.342V42H117.661C116.206 42 115.23 41.024 115.23 39.568V35.952H113.726V34.16H115.23V31.824H117.262V34.16H119.534ZM124.737 34C125.905 34 126.897 34.368 127.713 35.12C128.529 35.872 128.929 36.864 128.929 38.096C128.929 39.312 128.529 40.288 127.713 41.04C126.897 41.792 125.905 42.16 124.737 42.16C123.553 42.16 122.561 41.792 121.745 41.04C120.929 40.288 120.529 39.312 120.529 38.096C120.529 36.864 120.929 35.872 121.745 35.12C122.561 34.368 123.553 34 124.737 34ZM124.737 40.32C126.161 40.32 126.881 39.584 126.881 38.096C126.881 36.56 126.193 35.84 124.737 35.84C123.265 35.84 122.577 36.56 122.577 38.096C122.577 39.584 123.297 40.32 124.737 40.32ZM134.972 34.032C135.404 34.032 135.724 34.064 135.916 34.144V36.064C135.644 35.952 135.292 35.904 134.86 35.904C133.516 35.904 132.684 36.832 132.684 38.752V42H130.652V34.16H132.684V36.384C132.956 34.816 133.724 34.032 134.972 34.032ZM144.303 37.968C144.303 38.256 144.303 38.512 144.287 38.72H138.719C138.847 40.016 139.423 40.576 140.655 40.576C141.567 40.576 141.983 40.304 142.367 39.472L144.127 40.112C143.599 41.472 142.415 42.16 140.607 42.16C139.407 42.16 138.431 41.792 137.711 41.056C136.975 40.32 136.607 39.344 136.607 38.128C136.607 36.896 136.975 35.904 137.711 35.136C138.431 34.384 139.375 34 140.543 34C141.679 34 142.591 34.352 143.279 35.072C143.967 35.792 144.303 36.768 144.303 37.968ZM140.559 35.536C139.423 35.536 138.863 36.064 138.719 37.328H142.287C142.271 36.032 141.727 35.536 140.559 35.536Z" fill="white"/>
</svg>
