<svg width="107" height="18" viewBox="0 0 107 18" fill="none" xmlns="http://www.w3.org/2000/svg">
<g clip-path="url(#clip0_4926_23522)">
<path d="M8.42373 7.73617C10.2288 7.2766 12.2595 5.97447 12.2595 3.75319C12.2595 0.459574 9.17585 0.459574 7.5964 0.459574H1.12818C1.42903 0.612766 1.57945 1.45532 1.57945 2.60426C1.57945 3.98298 1.50424 5.89787 1.2786 8.50213L1.20339 9.57447C0.902542 14.0936 0.752119 16.6979 0 17.3106H5.79131C10.2288 17.3106 12.9364 15.0128 12.9364 12.0255C13.0117 9.26809 11.0561 8.04255 8.42373 7.73617ZM4.58792 6.05106C4.66314 4.82553 4.81356 3.6 4.96398 2.45106C5.34004 2.37447 5.79131 2.37447 6.09216 2.37447C8.04767 2.37447 8.95021 3.21702 8.95021 4.36596C8.95021 6.35745 6.9947 7.1234 4.88877 7.1234H4.51271L4.58792 6.05106ZM5.64089 15.166C4.51271 15.166 4.06144 14.8596 4.06144 14.7064C4.06144 13.634 4.13665 12.7915 4.21186 11.6426L4.36229 9.19149H5.56568C7.74682 9.19149 9.47669 9.88085 9.47669 12.1021C9.47669 14.0936 7.97246 15.166 5.64089 15.166ZM102.815 7.50638C101.16 6.43404 99.5805 5.51489 99.5805 4.28936C99.5805 2.75745 100.859 2.14468 102.288 2.14468C103.943 2.14468 105.372 3.14043 106.049 4.36596L106.5 0.382979C105.372 0.382979 104.244 0.0765957 102.439 0.0765957C99.3549 0.0765957 96.3464 1.30213 96.3464 4.90213C96.3464 7.35319 98.0763 8.65532 100.784 10.3404C102.062 11.1064 103.115 11.9489 103.115 13.1745C103.115 14.7064 101.837 15.5489 100.107 15.5489C97.8506 15.5489 96.3464 14.2468 95.5191 12.4851L95.2182 16.6979C96.9481 17.3872 98.4523 17.617 99.8813 17.617C103.416 17.617 106.425 15.6255 106.425 12.4851C106.425 10.034 104.62 8.65532 102.815 7.50638ZM91.0063 8.19574C91.8337 6.81702 95.6695 0.612766 96.572 0.459574H92.1345C92.285 0.612766 92.3602 1.07234 92.3602 1.45532C92.3602 1.99149 92.1345 2.45106 91.9089 2.91064C90.8559 4.59575 90.1038 5.89787 88.9004 7.65957C88.4491 6.28085 87.6218 4.44255 86.5688 1.91489C85.8919 0.382979 85.5911 0.229787 84.4629 0.229787C83.8612 0.229787 82.5074 0.306383 81.5297 0.382979C82.1313 0.689362 83.0339 2.14468 83.8612 3.6766C85.1398 6.12766 85.9672 8.19575 86.5688 10.3404C86.6441 11.7957 86.268 16.5447 85.5159 17.3106H90.0286C89.6525 16.9277 89.5773 15.9319 89.5773 15.166C89.5773 13.3277 89.7277 11.6426 89.9534 10.417C90.1038 9.72766 90.6303 8.88511 91.0063 8.19574ZM42.3443 14.4766L38.9597 9.88085C38.7341 9.57447 38.358 9.0383 38.1324 8.88511C40.3136 8.19575 42.1186 6.74043 42.1186 4.05957C42.1186 0.765957 39.3358 0.459574 37.3803 0.459574H31.2129C31.5138 0.612766 31.6642 1.37872 31.6642 2.60426C31.6642 3.98298 31.589 5.89787 31.3633 8.50213L31.2881 9.57447C30.9121 14.783 30.6864 16.7745 30.0095 17.3106H34.5222C34.2214 17.1574 34.071 16.3149 34.071 15.166C34.071 14.1702 34.1462 12.7915 34.2214 11.0298L34.2966 9.80426H34.3718C34.9735 9.80426 35.1992 10.1872 35.5752 10.6468L40.2383 17.234C40.6144 17.7702 40.9152 18 42.1939 18C43.0212 18 44.2998 17.9234 45.2023 17.8468C44.6758 17.4638 44.4502 17.3106 42.3443 14.4766ZM35.3496 7.65957C35.1239 7.65957 34.8231 7.65957 34.5975 7.58298L34.6727 6.43404C34.8231 4.44255 34.8983 3.14043 35.0487 2.45106C35.4248 2.37447 35.9513 2.37447 36.3273 2.37447C37.9068 2.37447 38.8093 3.14043 38.8093 4.44255C38.8093 6.43404 37.3803 7.65957 35.3496 7.65957ZM26.0985 9.72766L25.4216 7.1234C24.5943 4.05957 23.6165 0.459574 23.6165 0.459574H20.0064C20.1568 0.612766 20.232 0.995745 20.232 1.37872C20.232 1.7617 19.1038 4.28936 18.0508 6.58723L16.9227 9.11489C14.8919 13.4809 13.4629 16.1617 12.3347 17.3106H16.321C16.2458 17.1574 16.2458 16.7745 16.2458 16.5447C16.2458 15.6255 17.0731 14.017 17.3739 13.2511L17.75 12.5617H19.7055C21.661 12.5617 22.8644 12.3319 23.6165 12.0255L23.9926 13.4809C25.1208 17.4638 25.2712 17.5404 26.7002 17.5404C27.1515 17.5404 28.2797 17.4638 29.2574 17.3872C28.1292 16.3915 27.3771 14.2468 26.0985 9.72766ZM18.6525 10.1872L21.3602 4.28936L23.0148 10.1872H18.6525ZM47.8347 9.34468C47.8347 5.97447 49.2638 2.06809 52.7987 2.06809C54.6038 2.06809 55.9576 3.06383 56.7097 4.59575L57.161 0.306383C55.732 0.306383 54.9047 0 53.0996 0C47.3835 0 44.375 4.36596 44.375 9.95745C44.375 14.017 46.857 17.617 51.1441 17.617C54.4534 17.617 56.4089 15.9319 57.3114 13.0979C55.2055 14.6298 53.9269 15.0128 52.4979 15.0128C49.8655 15.0128 47.8347 13.0213 47.8347 9.34468ZM80.1006 9.72766L79.4237 7.1234C79.1229 5.97447 77.6186 0.459574 77.6186 0.459574H74.0085C74.1589 0.612766 74.2341 0.995745 74.2341 1.37872C74.2341 1.8383 73.1811 4.21277 72.053 6.58723L70.9248 9.11489C70.0975 11.0298 69.1949 12.7915 68.3676 14.2468C67.089 15.0894 66.4121 15.166 63.7044 15.166C62.9523 15.166 62.6515 15.0128 62.6515 14.2468C62.6515 12.5617 62.8771 10.8766 62.9523 9.19149L63.0275 8.19574C63.3284 3.6766 63.554 0.919149 64.2309 0.53617H59.7182C60.0191 0.919149 60.0943 1.53191 60.1695 2.68085C60.1695 4.05957 60.0943 5.97447 59.8686 8.57872L59.7934 9.65106C59.4926 14.1702 59.2669 16.6213 58.59 17.3872H70.3231C70.2479 17.234 70.2479 16.8511 70.2479 16.6213C70.2479 15.7021 70.9248 14.4 71.3761 13.3277L71.7521 12.6383H73.7076C75.6631 12.6383 76.8665 12.4085 77.6186 12.1021L77.9947 13.5574C79.1229 17.5404 79.2733 17.617 80.7023 17.617C81.1536 17.617 82.357 17.5404 83.2595 17.4638C82.0561 16.3915 81.304 14.2468 80.1006 9.72766ZM72.6547 10.1872L75.3623 4.28936L77.0169 10.1872H72.6547Z" fill="#00AEEF"/>
</g>
<defs>
<clipPath id="clip0_4926_23522">
<rect width="106.5" height="18" fill="white"/>
</clipPath>
</defs>
</svg>
