<svg width="113" height="40" viewBox="0 0 113 40" fill="none" xmlns="http://www.w3.org/2000/svg">
<path d="M12.9411 13.8101C12.9411 14.7115 12.6477 15.5389 12.1569 16.1919C12.0741 16.0817 11.9876 15.9776 11.8936 15.8794C11.2466 15.1903 10.3513 14.7636 9.36393 14.7636H4V10H9.36581C11.3406 10 12.943 11.7047 12.943 13.8101H12.9411Z" fill="black"/>
<path d="M12.9416 13.8101V18.5717C12.9416 20.675 11.3411 22.3818 9.36439 22.3818H5.78906V17.6202H9.36627C10.3537 17.6202 11.247 17.1935 11.8959 16.5044C11.988 16.4062 12.0764 16.302 12.1592 16.1919C12.6501 15.5388 12.9435 14.7115 12.9435 13.8101H12.9416Z" fill="black"/>
<path d="M16.5192 21.4282C16.5192 22.3297 16.2258 23.157 15.7349 23.81C15.6522 23.6998 15.5656 23.5957 15.4716 23.4975C14.8246 22.8084 13.9294 22.3817 12.942 22.3817H7.57617V17.6201H12.942C14.9168 17.6201 16.5192 19.3248 16.5192 21.4302V21.4282Z" fill="black"/>
<path d="M16.5183 21.4282V26.1898C16.5183 28.2932 14.9178 29.9999 12.9411 29.9999H4V25.2383H12.9411C13.9285 25.2383 14.8219 24.8116 15.4708 24.1225C15.5629 24.0244 15.6513 23.9202 15.7341 23.81C16.2249 23.157 16.5183 22.3297 16.5183 21.4282Z" fill="black"/>
<path d="M20.5176 30V14.2585C20.5176 13.0048 20.9247 11.9838 21.7454 11.189C22.566 10.3942 23.5935 10 24.8342 10C26.0749 10 27.083 10.3619 27.8972 11.0792C28.7114 11.7964 29.1185 12.7141 29.1185 13.8191C29.1185 14.5816 28.9182 15.2213 28.5176 15.7512C28.1169 16.2811 27.5806 16.643 26.8956 16.8433C27.7615 17.0307 28.4917 17.4766 29.0862 18.1809C29.6807 18.8853 29.978 19.7577 29.978 20.7787C29.978 22.0969 29.5127 23.1696 28.5887 23.9903C27.6646 24.811 26.5014 25.2181 25.0992 25.2181C24.4723 25.2181 23.8972 25.0953 23.3803 24.8562V22.5557C23.8455 22.8207 24.3173 22.9564 24.8019 22.9564C25.5903 22.9564 26.23 22.7237 26.7341 22.2585C27.2381 21.7932 27.4837 21.1793 27.4837 20.4168C27.4837 19.6995 27.2316 19.1179 26.7341 18.6785C26.2365 18.2391 25.5257 18.0129 24.6016 18V16.0614C25.3059 16.0355 25.8488 15.8417 26.23 15.4798C26.6113 15.1179 26.7987 14.6591 26.7987 14.0969C26.7987 13.5347 26.6177 13.063 26.2494 12.7076C25.8811 12.3522 25.4158 12.1777 24.8407 12.1777C24.2656 12.1777 23.7874 12.3716 23.3996 12.7593C23.0119 13.147 22.8181 13.6446 22.8181 14.2585V30H20.5176V30Z" fill="black"/>
<path d="M35.9357 14.795C37.4026 14.795 38.5981 15.2603 39.5286 16.1844C40.4527 17.1084 40.9309 18.3685 40.9567 19.9517C40.9567 20.2748 40.9503 20.5269 40.9373 20.7143H33.0601C33.1829 21.5026 33.506 22.1101 34.0423 22.543C34.5787 22.976 35.2055 23.1957 35.9422 23.1957C37.1183 23.1957 38.0165 22.7886 38.6433 21.9744L40.1813 23.2538C39.716 23.8807 39.1021 24.3718 38.3396 24.7207C37.5771 25.0761 36.7887 25.2506 35.9616 25.2506C34.4818 25.2506 33.241 24.7466 32.2394 23.7385C31.2378 22.7304 30.7402 21.5026 30.7402 20.0487C30.7402 18.5947 31.2378 17.3088 32.233 16.3007C33.2281 15.2926 34.4624 14.7886 35.9422 14.7886L35.9357 14.795ZM35.9551 16.7336C35.2378 16.7336 34.6239 16.9404 34.1134 17.3605C33.6029 17.7805 33.2669 18.3556 33.0924 19.0923H38.7144C38.527 18.3298 38.1974 17.7482 37.7257 17.3411C37.254 16.934 36.6595 16.7336 35.9551 16.7336V16.7336Z" fill="black"/>
<path d="M46.7927 25.037C45.7135 25.037 44.8411 24.7333 44.1756 24.1194C43.51 23.5055 43.1739 22.6783 43.1739 21.638V17.2761H41.0156V15.0984H43.1739V12.2163H45.636V15.0984H48.4147V17.2761H45.636V21.0951C45.636 22.2002 46.2111 22.7559 47.3549 22.7559C47.7168 22.7559 48.0657 22.6977 48.4147 22.575L48.6731 24.7333C48.0205 24.9336 47.3937 25.0305 46.7927 25.0305V25.037Z" fill="black"/>
<path d="M53.7763 25.1598C52.4581 25.1598 51.3466 24.6687 50.4548 23.693C49.5631 22.7107 49.1172 21.5023 49.1172 20.0613C49.1172 18.6203 49.5631 17.3925 50.4484 16.4102C51.3337 15.428 52.4451 14.9434 53.7763 14.9434C55.2303 14.9434 56.3676 15.4345 57.1947 16.4232V15.1049H59.6955V25.0048H57.1947V23.7059C56.3547 24.6816 55.2173 25.1663 53.7763 25.1663V25.1598ZM52.4064 22.1421C52.9492 22.7043 53.6083 22.9821 54.3967 22.9821C55.185 22.9821 55.8442 22.7043 56.387 22.1421C56.9233 21.5799 57.1947 20.8884 57.1947 20.0613C57.1947 19.2342 56.9233 18.5233 56.387 17.9611C55.8442 17.3989 55.185 17.1211 54.3967 17.1211C53.6083 17.1211 52.9492 17.3989 52.4064 17.9611C51.8636 18.5233 51.5986 19.2212 51.5986 20.0613C51.5986 20.9014 51.87 21.5799 52.4064 22.1421Z" fill="black"/>
<path d="M65.2163 25.3605C64.1759 25.3605 63.2454 25.115 62.4183 24.6174C61.5911 24.1263 61.0225 23.4413 60.7188 22.5754L62.8771 21.8969C63.2906 22.8726 64.0855 23.3573 65.2551 23.3573C65.8561 23.3573 66.3278 23.2345 66.6767 22.989C67.0257 22.7434 67.1937 22.4074 67.1937 21.9809C67.1937 21.5802 66.974 21.3153 66.5346 21.1796C66.0952 21.0439 65.4748 20.947 64.6864 20.8823C63.8916 20.8177 63.2648 20.6885 62.7995 20.5011C61.6687 20.0229 61.1 19.2022 61.1 18.039C61.1 17.1473 61.4877 16.3912 62.2567 15.7709C63.0257 15.1505 63.9756 14.8403 65.0936 14.8403C66.1469 14.8403 67.0257 15.0859 67.7365 15.5835C68.4409 16.0746 68.9126 16.7272 69.1388 17.5415L67.0192 18.123C66.8965 17.6966 66.6767 17.3541 66.3601 17.0956C66.0435 16.8371 65.6299 16.7079 65.1194 16.7079C64.6089 16.7079 64.2147 16.8371 63.8916 17.0891C63.562 17.3411 63.4005 17.6449 63.4005 17.9873C63.4005 18.4268 63.6461 18.7305 64.1307 18.8856C64.6154 19.0407 65.268 19.1634 66.0887 19.2345C66.9094 19.3056 67.5233 19.4348 67.9368 19.6222C69.0548 20.0875 69.617 20.8823 69.617 22.0003C69.617 23.0148 69.2099 23.829 68.3892 24.4429C67.5685 25.0568 66.5152 25.3605 65.2163 25.3605V25.3605Z" fill="black"/>
<path d="M75.2892 25.2572C73.8353 25.2572 72.5946 24.7467 71.5607 23.7257C70.5267 22.7047 70.0098 21.4769 70.0098 20.0358C70.0098 18.5948 70.5267 17.3412 71.5607 16.3072C72.5946 15.2733 73.8353 14.7563 75.2892 14.7563C76.1552 14.7563 76.9629 14.9502 77.719 15.3444C78.475 15.7386 79.0954 16.2685 79.5865 16.9341L77.5445 18.4139C77.0275 17.5867 76.2715 17.1731 75.2828 17.1731C74.4686 17.1602 73.7901 17.4316 73.2537 17.9809C72.7109 18.5366 72.446 19.2216 72.446 20.0488C72.446 20.8759 72.7174 21.5609 73.2537 22.0972C73.7901 22.64 74.4686 22.905 75.2828 22.905C75.761 22.9179 76.2069 22.8145 76.614 22.5819C77.0211 22.3557 77.3377 22.0391 77.5639 21.6449L79.5607 23.1247C79.0695 23.7774 78.4492 24.2943 77.6996 24.6756C76.95 25.0568 76.1487 25.2442 75.2763 25.2442L75.2892 25.2572Z" fill="black"/>
<path d="M88.9627 23.7386C87.9288 24.7531 86.6816 25.2572 85.2147 25.2572C83.7479 25.2572 82.4942 24.7467 81.4538 23.7257C80.4134 22.7047 79.8965 21.4769 79.8965 20.0358C79.8965 18.5948 80.4134 17.3412 81.4538 16.3072C82.4942 15.2733 83.7479 14.7563 85.2147 14.7563C86.6816 14.7563 87.9159 15.2733 88.9563 16.3072C89.9966 17.3412 90.5136 18.5819 90.5136 20.0358C90.5136 21.4898 89.9966 22.724 88.9627 23.7386V23.7386ZM85.2147 22.9179C85.9773 22.9308 86.617 22.6594 87.1469 22.1101C87.6768 21.5544 87.9353 20.8759 87.9353 20.0617C87.9353 19.2475 87.6703 18.5431 87.1469 17.9938C86.617 17.4381 85.9773 17.1731 85.2147 17.1861C84.4393 17.1731 83.7931 17.4446 83.2632 17.9938C82.7333 18.5496 82.4748 19.2345 82.4748 20.0617C82.4748 20.8888 82.7398 21.5609 83.2632 22.1101C83.7931 22.6659 84.4393 22.9308 85.2147 22.9179Z" fill="black"/>
<path d="M91.709 24.9986V15.0988H94.2098V16.3976C94.9852 15.3831 96.2518 14.8984 98.0095 14.9372V17.5802C97.5959 17.3799 97.1436 17.2829 96.6524 17.2829C95.9868 17.2829 95.4117 17.5479 94.9335 18.0842C94.4553 18.6206 94.2162 19.3443 94.2162 20.2619V24.9986H91.7154H91.709Z" fill="black"/>
<path d="M103.395 14.795C104.862 14.795 106.057 15.2603 106.988 16.1844C107.912 17.1084 108.39 18.3685 108.416 19.9517C108.416 20.2748 108.409 20.5269 108.396 20.7143H100.519C100.642 21.5026 100.965 22.1101 101.501 22.543C102.038 22.976 102.664 23.1957 103.401 23.1957C104.577 23.1957 105.475 22.7886 106.102 21.9744L107.64 23.2538C107.175 23.8807 106.561 24.3718 105.799 24.7207C105.036 25.0761 104.248 25.2506 103.421 25.2506C101.941 25.2506 100.7 24.7466 99.6984 23.7385C98.6968 22.7304 98.1992 21.5026 98.1992 20.0487C98.1992 18.5947 98.6968 17.3088 99.6919 16.3007C100.687 15.2926 101.921 14.7886 103.401 14.7886L103.395 14.795ZM103.414 16.7336C102.697 16.7336 102.083 16.9404 101.572 17.3605C101.062 17.7805 100.726 18.3556 100.551 19.0923H106.173C105.986 18.3298 105.656 17.7482 105.185 17.3411C104.713 16.934 104.118 16.7336 103.414 16.7336V16.7336Z" fill="black"/>
</svg>
