<svg width="227" height="172" viewBox="0 0 227 172" fill="none" xmlns="http://www.w3.org/2000/svg">
<path d="M220.638 101.096L114.192 38.6828C112.637 37.7712 110.322 38.3962 108.795 39.3536L40.9844 78.8391L120.151 102.976L176.492 135.972L221.217 110.172C224.446 108.28 223.867 102.988 220.638 101.096Z" fill="#FFDAAE"/>
<path d="M120.151 102.976L40.9845 78.8391L7.02533 98.6134C3.8757 100.586 6.6451 103.59 9.86283 105.425L111.269 165.969C113.313 167.127 115.621 167.727 117.965 167.71C120.308 167.693 122.607 167.059 124.634 165.871L176.492 135.972L120.151 102.976Z" fill="#4090C1"/>
<path d="M133.487 151.125C130.264 148.31 126.07 146.825 122.035 145.644C114.164 143.351 105.77 142.307 98.3758 138.546C95.2371 137.043 92.5097 134.787 90.4308 131.976C88.5807 129.35 87.4287 126.294 85.7716 123.553C83.7617 120.287 80.971 117.584 77.6564 115.693C67.9294 109.96 55.6771 109.57 44.8946 107.202C36.5013 105.356 26.8992 102.615 21.1731 95.7352C21.0031 95.6273 20.861 95.4798 20.7588 95.3052C20.7021 95.2135 20.6567 95.116 20.5999 95.0185C20.0959 94.3614 19.6316 93.674 19.2095 92.9603C19.1107 92.8076 19.0493 92.6332 19.0306 92.4517C19.0118 92.2702 19.0362 92.0869 19.1017 91.9168L18.9769 91.6416L7.02533 98.6133C3.8757 100.586 6.6451 103.59 9.86283 105.425L111.269 165.969C113.313 167.127 115.621 167.727 117.964 167.71C120.308 167.693 122.607 167.059 124.634 165.871L137.857 158.24C137.15 155.475 135.625 152.993 133.487 151.125Z" fill="#3E85BA"/>
<path style="mix-blend-mode:multiply" opacity="0.68" d="M155.16 141.688C151.443 139.286 133.362 128.742 133.362 128.742C134.69 127.836 142.97 123.393 144.145 122.269C147.992 122.516 171.708 111.427 172.225 111.02L185.43 123.324C182.128 125.176 158.276 139.538 155.16 141.688Z" fill="url(#paint0_linear_6788_7055)"/>
<path d="M192.79 84.2743L130.428 121.077L123.97 117.189L186.69 80.4158L192.79 84.2743Z" fill="#53646C"/>
<path d="M90.0898 49.3869L164.608 93.3615L171.186 89.503L96.1905 45.5283L90.0898 49.3869Z" fill="#53646C"/>
<path d="M62.958 64.5058L125.321 101.308L131.779 97.4208L69.0586 60.6472L62.958 64.5058Z" fill="#53646C"/>
<path d="M151.33 85.9255L146.869 88.2189L149.395 89.8758L153.895 87.5194C153.027 86.9919 152.204 86.4129 151.33 85.9255Z" fill="#E5B683"/>
<path d="M153.895 87.4907V86.3555L146.869 87.0549V88.1901" fill="#E5B683"/>
<path d="M151.33 84.7903L146.869 87.0836L149.395 88.7405L153.895 86.3841C153.027 85.8567 152.204 85.2719 151.33 84.7903Z" fill="#FFDAAE"/>
<path d="M125.985 108.538L115.668 116.599L118.278 118.709C117.475 120.209 117.191 121.938 117.47 123.621C117.75 125.303 118.578 126.843 119.822 127.997C124.237 132.371 133.947 132.096 136.393 131.001L139.293 132.916L172.208 112.241L164.263 106.113" fill="#AF5B23"/>
<path d="M125.985 107.311L115.668 115.372L118.278 117.482C117.475 118.982 117.191 120.711 117.47 122.394C117.75 124.076 118.578 125.616 119.822 126.77C124.237 131.144 133.947 130.869 136.393 129.774L139.293 131.689L172.208 111.014L162.044 103.274" fill="#DB8A53"/>
<path d="M121.376 109.266C121.376 109.266 120.843 105.413 126.16 104.272V107.924" fill="#C96827"/>
<path d="M162.492 100.746V97.8335L159.127 99.2898" fill="#C96827"/>
<path d="M121.377 109.266V121.707C121.377 121.707 122.977 126.615 132.727 127.085C133.722 127.131 134.708 126.882 135.564 126.368L162.759 110.315L162.509 100.769L121.394 109.289" fill="#68E1FD"/>
<path d="M150.79 91.2231L121.376 109.266C121.257 109.34 121.711 110.539 121.745 110.636C122.16 111.736 122.787 112.742 123.59 113.595C124.812 114.855 126.328 115.783 127.999 116.295C129.139 116.654 130.316 116.881 131.506 116.972C132.418 117.072 133.34 117.053 134.247 116.914C135.819 116.628 137.13 115.59 138.481 114.793C139.979 113.91 141.483 113.038 142.981 112.161L153.196 106.187L161.107 101.56C161.547 101.25 162.012 100.978 162.497 100.746L150.79 91.2231Z" fill="#C96827"/>
<path d="M125.384 99.9722V109.788C125.384 109.788 126.66 113.704 134.464 114.036C135.151 114.064 135.831 113.889 136.421 113.532L162.487 97.8337V90.8333L125.378 99.9722" fill="#68E1FD"/>
<path d="M152.367 84.7903L125.383 99.9721C125.383 99.9721 126.126 106.371 135.337 106.101C135.706 106.088 136.066 105.983 136.387 105.797L162.492 90.8332L152.367 84.7903Z" fill="#C96827"/>
<path d="M162.492 90.8331C162.492 90.8331 162.35 86.3554 159.041 83.8098C159.041 83.8098 156.493 81.4821 152.271 83.4658L127.988 95.867C127.988 95.867 125.389 97.4322 125.389 99.9721" fill="#C96827"/>
<path d="M139.367 92.3582L134.906 94.6515L137.432 96.3084L141.932 93.952C141.064 93.4532 140.241 92.8455 139.367 92.3582Z" fill="#E5B683"/>
<path d="M141.932 93.9235V92.7883L134.906 93.4878V94.6287" fill="#E5B683"/>
<path d="M139.367 91.2231L134.906 93.5165L137.432 95.1734L141.932 92.817C141.064 92.3067 140.241 91.7334 139.367 91.2231Z" fill="#FFDAAE"/>
<path d="M138.419 107.678V110.561L140.57 109.117V106.107L138.419 107.678Z" fill="#2E5B5A"/>
<path d="M143.083 104.84V107.729L145.234 106.284V103.274L143.083 104.84Z" fill="#2E5B5A"/>
<path d="M147.748 102.025V104.914L149.899 103.469V100.459L147.748 102.025Z" fill="#2E5B5A"/>
<path d="M152.266 99.0261V101.916L154.411 100.471V97.4609L152.266 99.0261Z" fill="#2E5B5A"/>
<path d="M157.209 96.1939V99.0835L159.36 97.6387V94.6287L157.209 96.1939Z" fill="#2E5B5A"/>
<path d="M139.429 117.682V120.572L141.574 119.127V116.117L139.429 117.682Z" fill="#2E5B5A"/>
<path d="M144.094 114.85V117.74L146.239 116.295V113.285L144.094 114.85Z" fill="#2E5B5A"/>
<path d="M148.759 112.035V114.925L150.904 113.48V110.47L148.759 112.035Z" fill="#2E5B5A"/>
<path d="M153.271 109.036V111.926L155.421 110.481V107.471L153.271 109.036Z" fill="#2E5B5A"/>
<path d="M158.219 106.204V109.094L160.364 107.649V104.633L158.219 106.204Z" fill="#2E5B5A"/>
<path d="M127.982 120.389V123.272L125.831 121.828V118.818L127.982 120.389Z" fill="#2E5B5A"/>
<path d="M124.498 117.946V120.836L122.353 119.391V116.381L124.498 117.946Z" fill="#2E5B5A"/>
<path d="M129.055 107.678V110.561L126.91 109.117V106.107L129.055 107.678Z" fill="#2E5B5A"/>
<path d="M116.258 119.11C116.303 119.179 116.258 120.916 116.258 120.916C116.258 120.916 113.687 122.837 112.325 123.645C110.309 124.78 108.063 125.435 105.759 125.56V124.001C106.628 122.857 107.635 121.827 108.755 120.933C108.755 120.933 108.557 120.503 108.914 120.303C109.272 120.102 112.285 118.296 112.285 118.296L114.425 117.149L116.155 118.141C116.265 118.204 116.348 118.305 116.39 118.425C116.432 118.545 116.429 118.676 116.382 118.795L116.258 119.11Z" fill="white"/>
<path d="M105.759 124.648C105.759 124.648 109.062 124.476 110.963 123.398C112.864 122.321 116.275 120.113 116.275 120.113V120.916L112.933 123.267C112.933 123.267 110.447 125.239 105.748 125.56L105.759 124.648Z" fill="#6A4E39"/>
<path d="M108.75 120.939V122.349L110.963 123.399L116.275 120.113L116.383 118.795L111.332 122.08L108.75 120.939Z" fill="#CCCCCE"/>
<path d="M112.126 121.805V122.464L112.603 122.183V121.478L112.126 121.805Z" fill="#6A4E39"/>
<path d="M112.779 121.426V122.08L113.256 121.805V121.099L112.779 121.426Z" fill="#6A4E39"/>
<path d="M113.835 120.698V121.357L114.312 121.082V120.371L113.835 120.698Z" fill="#6A4E39"/>
<path d="M114.441 120.32V120.973L114.918 120.698V119.993L114.441 120.32Z" fill="#6A4E39"/>
<path d="M105.759 124.006C107.613 123.914 109.455 123.653 111.264 123.227C109.575 124.159 107.683 124.648 105.759 124.648V124.006Z" fill="#A57B5E"/>
<path d="M58.9286 86.4931C58.9911 86.5905 58.9286 89.0845 58.9286 89.0845C58.9286 89.0845 55.2456 91.8365 53.2877 93.0004C51.3298 94.1643 48.3845 95.3625 43.8672 95.7524V93.5164C45.1136 91.8749 46.5566 90.3959 48.1632 89.1132C48.1632 89.1132 47.8737 88.4997 48.3902 88.2073C48.9066 87.9149 53.2309 85.3407 53.2309 85.3407L56.3011 83.6895L58.7868 85.1113C58.9438 85.201 59.0635 85.3448 59.124 85.5165C59.1845 85.6882 59.1816 85.8761 59.1159 86.0459L58.9286 86.4931Z" fill="white"/>
<path d="M43.8672 94.4395C43.8672 94.4395 48.6058 94.1872 51.3298 92.6449C54.0538 91.1027 58.9513 87.9321 58.9513 87.9321V89.0788L54.1957 92.4443C54.1957 92.4443 50.6034 95.2708 43.8672 95.7467V94.4395Z" fill="#6A4E39"/>
<path d="M48.1631 89.119V91.1371L51.3297 92.645L58.9513 87.9322L59.1045 86.0344L51.8575 90.753L48.1631 89.119Z" fill="#CCCCCE"/>
<path d="M52.998 90.3573V91.3033L53.679 90.902V89.8872L52.998 90.3573Z" fill="#6A4E39"/>
<path d="M53.9346 89.8127V90.7529L54.6212 90.3573V89.3425L53.9346 89.8127Z" fill="#6A4E39"/>
<path d="M55.4502 88.7748V89.7151L56.1312 89.3195V88.3047L55.4502 88.7748Z" fill="#6A4E39"/>
<path d="M56.3242 88.2245V89.1705L57.0052 88.7692V87.7544L56.3242 88.2245Z" fill="#6A4E39"/>
<path d="M43.8672 93.5163C43.8672 93.5163 49.0485 93.2354 51.7611 92.3696C49.3408 93.7077 46.6262 94.4096 43.8672 94.4107V93.5163Z" fill="#A57B5E"/>
<path d="M73.4568 91.4639C73.5022 91.5327 73.4568 93.2699 73.4568 93.2699C73.4568 93.2699 70.886 95.1905 69.524 95.9989C67.5087 97.1361 65.2629 97.793 62.958 97.9196V96.3601C63.8276 95.2166 64.834 94.1863 65.9544 93.2928C65.9544 93.2928 65.7558 92.8628 66.1133 92.6621C66.4708 92.4615 69.4843 90.6555 69.4843 90.6555L71.6237 89.5088L73.3546 90.5007C73.4641 90.5636 73.5475 90.6644 73.5892 90.7845C73.6309 90.9047 73.6282 91.036 73.5816 91.1543L73.4568 91.4639Z" fill="white"/>
<path d="M62.958 97.0024C62.958 97.0024 66.2609 96.8303 68.162 95.7525C70.0631 94.6746 73.4738 92.4673 73.4738 92.4673V93.2699L70.1539 95.6149C70.1539 95.6149 67.6683 97.5872 62.9694 97.9082L62.958 97.0024Z" fill="#6A4E39"/>
<path d="M65.9492 93.2928V94.6975L68.1625 95.7524L73.4743 92.4672L73.5821 91.1428L68.5313 94.4338L65.9492 93.2928Z" fill="#CCCCCE"/>
<path d="M69.3252 94.1586V94.8122L69.8019 94.537V93.8318L69.3252 94.1586Z" fill="#6A4E39"/>
<path d="M69.9785 93.7743V94.4336L70.4552 94.1527V93.4475L69.9785 93.7743Z" fill="#6A4E39"/>
<path d="M71.0332 93.0519V93.7055L71.5099 93.4303V92.7251L71.0332 93.0519Z" fill="#6A4E39"/>
<path d="M71.6406 92.6679V93.3272L72.1173 93.052V92.3411L71.6406 92.6679Z" fill="#6A4E39"/>
<path d="M62.958 96.3601C64.8124 96.2675 66.6547 96.0065 68.4628 95.5803C66.7747 96.5125 64.8818 97.0014 62.958 97.0022V96.3601Z" fill="#A57B5E"/>
<path d="M81.0671 93.5049C81.1125 93.5737 81.0671 95.3109 81.0671 95.3109C81.0671 95.3109 78.4963 97.2315 77.1343 98.0399C75.1191 99.1771 72.8733 99.834 70.5684 99.9606V98.4011C71.4379 97.2576 72.4444 96.2273 73.5648 95.3338C73.5648 95.3338 73.3661 94.9038 73.7237 94.7031C74.0812 94.5025 77.0946 92.6965 77.0946 92.6965L79.2341 91.5498L80.965 92.5417C81.0745 92.6046 81.1578 92.7054 81.1995 92.8256C81.2413 92.9457 81.2386 93.077 81.192 93.1953L81.0671 93.5049Z" fill="white"/>
<path d="M70.5682 99.0434C70.5682 99.0434 73.871 98.8714 75.7722 97.7935C77.6733 96.7156 81.084 94.5083 81.084 94.5083V95.311L77.7471 97.6559C77.7471 97.6559 75.2614 99.6282 70.5625 99.9492L70.5682 99.0434Z" fill="#6A4E39"/>
<path d="M73.5645 95.3338V96.7442L75.772 97.7934L81.0838 94.5082L81.1917 93.1838L76.1409 96.4748L73.5645 95.3338Z" fill="#CCCCCE"/>
<path d="M76.9355 96.1996V96.8589L77.4122 96.578V95.8728L76.9355 96.1996Z" fill="#6A4E39"/>
<path d="M77.5879 95.8211V96.4747L78.0646 96.1995V95.4885L77.5879 95.8211Z" fill="#6A4E39"/>
<path d="M78.6436 95.0929V95.7522L79.1203 95.477V94.7661L78.6436 95.0929Z" fill="#6A4E39"/>
<path d="M79.251 94.7147V95.3683L79.7277 95.0931V94.3879L79.251 94.7147Z" fill="#6A4E39"/>
<path d="M70.5684 98.4011C72.4227 98.3085 74.2651 98.0476 76.0731 97.6213C74.385 98.5535 72.4922 99.0425 70.5684 99.0432V98.4011Z" fill="#A57B5E"/>
<path d="M95.5437 97.0425C95.5891 97.1113 95.5437 98.8485 95.5437 98.8485C95.5437 98.8485 92.9729 100.769 91.6109 101.578C89.5956 102.715 87.3498 103.372 85.0449 103.498V101.939C85.9145 100.795 86.921 99.7649 88.0413 98.8714C88.0413 98.8714 87.8427 98.4414 88.2002 98.2407C88.5577 98.0401 91.5712 96.2341 91.5712 96.2341L93.7106 95.0874L95.4415 96.0793C95.5511 96.1422 95.6344 96.243 95.6761 96.3631C95.7178 96.4833 95.7151 96.6146 95.6685 96.7329L95.5437 97.0425Z" fill="white"/>
<path d="M85.0449 102.581C85.0449 102.581 88.3478 102.409 90.2489 101.331C92.15 100.253 95.5607 98.0457 95.5607 98.0457V98.8483L92.2408 101.193C92.2408 101.193 89.7552 103.166 85.0563 103.487L85.0449 102.581Z" fill="#6A4E39"/>
<path d="M88.0361 98.8713V100.282L90.2494 101.331L95.5612 98.0457L95.669 96.7271L90.6183 100.012L88.0361 98.8713Z" fill="#CCCCCE"/>
<path d="M91.4072 99.737V100.396L91.8839 100.121V99.4102L91.4072 99.737Z" fill="#6A4E39"/>
<path d="M92.0654 99.3587V100.012L92.5421 99.7371V99.0261L92.0654 99.3587Z" fill="#6A4E39"/>
<path d="M93.1211 98.6305V99.2898L93.5978 99.0146V98.3037L93.1211 98.6305Z" fill="#6A4E39"/>
<path d="M93.7275 98.2521V98.9057L94.2042 98.6305V97.9253L93.7275 98.2521Z" fill="#6A4E39"/>
<path d="M85.0449 101.944C86.8993 101.852 88.7416 101.591 90.5497 101.165C88.8616 102.097 86.9687 102.586 85.0449 102.586V101.944Z" fill="#A57B5E"/>
<path d="M98.069 107.62C98.1257 107.706 98.069 109.914 98.069 109.914C98.069 109.914 94.7718 112.373 93.0693 113.411C91.3668 114.449 88.7052 115.515 84.6816 115.859V113.87C85.7913 112.408 87.0761 111.091 88.5066 109.948C88.5066 109.948 88.2512 109.375 88.7052 109.14C89.1592 108.905 93.0125 106.577 93.0125 106.577L95.7479 105.109L97.9611 106.376C98.1006 106.456 98.2067 106.584 98.2599 106.737C98.3131 106.89 98.3098 107.057 98.2506 107.208L98.069 107.62Z" fill="white"/>
<path d="M84.665 114.667C84.665 114.667 88.8816 114.443 91.3105 113.073C93.7394 111.703 98.1205 108.876 98.1205 108.876V109.897L93.8358 112.947C93.8358 112.947 90.6635 115.464 84.665 115.888V114.667Z" fill="#6A4E39"/>
<path d="M88.4844 109.954V111.754L91.3049 113.096L98.0922 108.899L98.2283 107.213L91.7759 111.41L88.4844 109.954Z" fill="#CCCCCE"/>
<path d="M92.792 111.06V111.897L93.3992 111.542V110.642L92.792 111.06Z" fill="#6A4E39"/>
<path d="M93.626 110.573V111.41L94.2332 111.055V110.155L93.626 110.573Z" fill="#6A4E39"/>
<path d="M94.9707 109.65V110.487L95.5836 110.132V109.231L94.9707 109.65Z" fill="#6A4E39"/>
<path d="M95.748 109.163V110L96.3609 109.644V108.744L95.748 109.163Z" fill="#6A4E39"/>
<path d="M84.665 113.876C84.665 113.876 89.2788 113.623 91.6907 112.878C89.5337 114.058 87.1181 114.673 84.665 114.667V113.876Z" fill="#A57B5E"/>
<path d="M139.037 126.328V131.093C139.055 131.155 139.092 131.21 139.143 131.249C139.194 131.288 139.257 131.309 139.321 131.309C139.385 131.309 139.447 131.288 139.499 131.249C139.55 131.21 139.587 131.155 139.605 131.093V126.328C139.587 126.266 139.55 126.211 139.499 126.172C139.447 126.133 139.385 126.112 139.321 126.112C139.257 126.112 139.194 126.133 139.143 126.172C139.092 126.211 139.055 126.266 139.037 126.328Z" fill="#FFDAAE"/>
<path d="M139.316 126.604C139.892 126.604 140.36 126.131 140.36 125.549C140.36 124.966 139.892 124.494 139.316 124.494C138.739 124.494 138.271 124.966 138.271 125.549C138.271 126.131 138.739 126.604 139.316 126.604Z" fill="#FFDAAE"/>
<path d="M116.088 111.146V115.911C116.106 115.973 116.143 116.028 116.194 116.067C116.245 116.106 116.308 116.127 116.372 116.127C116.436 116.127 116.498 116.106 116.549 116.067C116.601 116.028 116.638 115.973 116.655 115.911V111.146C116.638 111.084 116.601 111.029 116.549 110.99C116.498 110.951 116.436 110.93 116.372 110.93C116.308 110.93 116.245 110.951 116.194 110.99C116.143 111.029 116.106 111.084 116.088 111.146Z" fill="#FFDAAE"/>
<path d="M116.382 111.422C116.959 111.422 117.426 110.949 117.426 110.367C117.426 109.784 116.959 109.312 116.382 109.312C115.805 109.312 115.338 109.784 115.338 110.367C115.338 110.949 115.805 111.422 116.382 111.422Z" fill="#FFDAAE"/>
<path d="M144.871 123.037V127.802C144.889 127.864 144.926 127.919 144.977 127.958C145.028 127.997 145.091 128.018 145.155 128.018C145.219 128.018 145.281 127.997 145.333 127.958C145.384 127.919 145.421 127.864 145.439 127.802V123.037C145.421 122.975 145.384 122.92 145.333 122.881C145.281 122.842 145.219 122.821 145.155 122.821C145.091 122.821 145.028 122.842 144.977 122.881C144.926 122.92 144.889 122.975 144.871 123.037Z" fill="#FFDAAE"/>
<path d="M145.166 123.318C145.743 123.318 146.21 122.846 146.21 122.263C146.21 121.681 145.743 121.208 145.166 121.208C144.59 121.208 144.122 121.681 144.122 122.263C144.122 122.846 144.59 123.318 145.166 123.318Z" fill="#FFDAAE"/>
<path d="M151.652 119.225V123.989C151.67 124.051 151.707 124.106 151.758 124.145C151.81 124.184 151.872 124.205 151.936 124.205C152 124.205 152.063 124.184 152.114 124.145C152.165 124.106 152.202 124.051 152.22 123.989V119.225C152.202 119.162 152.165 119.107 152.114 119.068C152.063 119.029 152 119.008 151.936 119.008C151.872 119.008 151.81 119.029 151.758 119.068C151.707 119.107 151.67 119.162 151.652 119.225Z" fill="#FFDAAE"/>
<path d="M151.948 119.5C152.524 119.5 152.992 119.027 152.992 118.445C152.992 117.862 152.524 117.39 151.948 117.39C151.371 117.39 150.903 117.862 150.903 118.445C150.903 119.027 151.371 119.5 151.948 119.5Z" fill="#FFDAAE"/>
<path d="M157.765 114.77V119.534C157.782 119.597 157.819 119.651 157.871 119.69C157.922 119.729 157.984 119.751 158.048 119.751C158.113 119.751 158.175 119.729 158.226 119.69C158.277 119.651 158.315 119.597 158.332 119.534V114.77C158.315 114.708 158.277 114.653 158.226 114.614C158.175 114.575 158.113 114.554 158.048 114.554C157.984 114.554 157.922 114.575 157.871 114.614C157.819 114.653 157.782 114.708 157.765 114.77Z" fill="#FFDAAE"/>
<path d="M158.088 115.045C158.665 115.045 159.132 114.573 159.132 113.99C159.132 113.407 158.665 112.935 158.088 112.935C157.511 112.935 157.044 113.407 157.044 113.99C157.044 114.573 157.511 115.045 158.088 115.045Z" fill="#FFDAAE"/>
<path d="M163.485 111.33V116.094C163.503 116.156 163.54 116.211 163.591 116.25C163.643 116.289 163.705 116.31 163.769 116.31C163.833 116.31 163.896 116.289 163.947 116.25C163.998 116.211 164.035 116.156 164.053 116.094V111.33C164.035 111.267 163.998 111.213 163.947 111.174C163.896 111.135 163.833 111.114 163.769 111.114C163.705 111.114 163.643 111.135 163.591 111.174C163.54 111.213 163.503 111.267 163.485 111.33Z" fill="#FFDAAE"/>
<path d="M163.781 111.605C164.357 111.605 164.825 111.133 164.825 110.55C164.825 109.967 164.357 109.495 163.781 109.495C163.204 109.495 162.736 109.967 162.736 110.55C162.736 111.133 163.204 111.605 163.781 111.605Z" fill="#FFDAAE"/>
<path d="M120.021 108.297V113.061C120.038 113.124 120.075 113.178 120.127 113.217C120.178 113.256 120.24 113.277 120.304 113.277C120.368 113.277 120.431 113.256 120.482 113.217C120.533 113.178 120.57 113.124 120.588 113.061V108.297C120.57 108.235 120.533 108.18 120.482 108.141C120.431 108.102 120.368 108.081 120.304 108.081C120.24 108.081 120.178 108.102 120.127 108.141C120.075 108.18 120.038 108.235 120.021 108.297Z" fill="#FFDAAE"/>
<path d="M120.316 108.578C120.892 108.578 121.36 108.106 121.36 107.523C121.36 106.94 120.892 106.468 120.316 106.468C119.739 106.468 119.271 106.94 119.271 107.523C119.271 108.106 119.739 108.578 120.316 108.578Z" fill="#FFDAAE"/>
<path d="M203.165 111.164H203.698C210.236 110.762 218.118 108.423 222.857 103.624C222.397 102.632 221.228 101.027 218.209 99.6797C218.209 99.6797 217.222 100.689 217.159 100.746C216.055 101.668 214.824 102.423 213.504 102.988C208.079 105.407 202.109 105.184 196.332 104.759C191.894 104.433 187.729 101.067 183.955 98.8656L176.01 94.2273L170.477 97.4666L188.784 108.584C188.784 108.584 194.079 111.376 202.404 111.198L203.165 111.164Z" fill="#53646C"/>
<path d="M180.613 82.7836V45.9412L172.656 50.4304V87.4161L180.613 82.7836Z" fill="#68E1FD"/>
<path opacity="0.33" d="M180.613 82.7836V45.9412L172.656 50.4304V87.4161L180.613 82.7836Z" fill="#1E4549"/>
<path d="M172.656 50.4304L164.58 45.9412V82.623L172.656 87.4161V50.4304Z" fill="#68E1FD"/>
<path d="M180.612 45.941L172.656 41.0161L164.58 45.941L172.656 50.4302L180.612 45.941Z" fill="#9D9CA1"/>
<path d="M178.706 44.1294V45.5111L172.355 49.2206L166.011 45.5111V44.1294" fill="#CC9825"/>
<path d="M178.706 44.1466L172.406 40.2422L166.011 44.1466L172.406 47.6955L178.706 44.1466Z" fill="#F9E1AA"/>
<path d="M164.58 48.5383L172.729 52.7925L180.606 48.6129V49.2607L172.729 53.4346L164.58 49.1805V48.5383Z" fill="#CCCCCC"/>
<path d="M164.58 51.2102L172.729 55.4643L180.606 51.2847V51.9269L172.729 56.1065L164.58 51.8523V51.2102Z" fill="#CCCCCC"/>
<path d="M164.58 54.1169L172.758 58.3883L180.606 54.2259V54.8737L172.763 59.0361L164.58 54.7648V54.1169Z" fill="#CCCCCC"/>
<path d="M164.58 56.7542L172.826 61.0599L180.606 56.9319V57.574L172.826 61.702L164.58 57.3963V56.7542Z" fill="#CCCCCC"/>
<path d="M164.58 59.3228L172.695 63.5654L180.606 59.3629V60.0108L172.695 64.2076L164.58 59.9649V59.3228Z" fill="#CCCCCC"/>
<path d="M164.58 61.9602L172.758 66.2315L180.606 62.0691V62.7113L172.763 66.8737L164.58 62.6023V61.9602Z" fill="#CCCCCC"/>
<path d="M164.58 64.5688L172.661 68.7886L180.606 64.5746V65.2167L172.667 69.4307L164.58 65.211V64.5688Z" fill="#CCCCCC"/>
<path d="M164.58 67.292L172.729 71.5461L180.606 67.3665V68.0087L172.729 72.1883L164.58 67.9341V67.292Z" fill="#CCCCCC"/>
<path d="M164.58 70.0098L172.792 74.2983L180.606 70.1531V70.7952L172.792 74.9462L164.58 70.6519V70.0098Z" fill="#CCCCCC"/>
<path d="M164.58 72.647L172.854 76.9699L180.606 72.8591V73.5012L172.86 77.612L164.58 73.2891V72.647Z" fill="#CCCCCC"/>
<path d="M164.58 75.5652L172.661 79.7849L180.606 75.5709V76.2188L172.667 80.4328L164.58 76.2073V75.5652Z" fill="#CCCCCC"/>
<path d="M164.58 78.2026L172.729 82.4568L180.606 78.2772V78.9193L172.729 83.0989L164.58 78.8448V78.2026Z" fill="#CCCCCC"/>
<path d="M164.58 80.7654L172.758 85.0367L180.606 80.8743V81.5222L172.763 85.6789L164.58 81.4075V80.7654Z" fill="#CCCCCC"/>
<path style="mix-blend-mode:multiply" opacity="0.68" d="M159.763 80.5131C156.046 78.1109 145.575 71.1105 145.575 71.1105C146.912 70.2223 148.169 69.217 149.332 68.1062C153.18 68.3527 157.385 68.6795 157.901 68.261L169.359 74.4473C166.068 76.3049 162.873 78.3631 159.763 80.5131Z" fill="url(#paint1_linear_6788_7055)"/>
<path d="M145.479 45.8264V71.1964C147.627 72.5835 150.15 73.2608 152.697 73.1343C156.999 72.9394 159.223 70.841 159.223 70.841V45.8264" fill="#68E1FD"/>
<path d="M152.351 48.7791C156.146 48.7791 159.223 47.3827 159.223 45.6602C159.223 43.9377 156.146 42.5413 152.351 42.5413C148.555 42.5413 145.479 43.9377 145.479 45.6602C145.479 47.3827 148.555 48.7791 152.351 48.7791Z" fill="#1E4549"/>
<path d="M159.223 49.8801V47.8447C159.091 48.3834 158.797 48.8679 158.383 49.2322V50.6827C158.705 50.4637 158.988 50.1925 159.223 49.8801Z" fill="#53646C"/>
<path d="M154.672 52.0471V50.803C154.108 50.8879 153.54 50.9396 152.97 50.9578V52.1732C153.539 52.164 154.108 52.1219 154.672 52.0471Z" fill="#53646C"/>
<path d="M148.832 51.7778V50.5738C148.392 50.4618 147.963 50.3102 147.55 50.1208V51.3248C147.965 51.5088 148.394 51.6602 148.832 51.7778Z" fill="#53646C"/>
<path d="M157.198 51.3534V50.0576C156.777 50.264 156.338 50.4291 155.887 50.5507V51.8006C156.334 51.6854 156.773 51.5359 157.198 51.3534Z" fill="#53646C"/>
<path d="M151.76 52.1733V50.9578C151.19 50.9416 150.622 50.8938 150.058 50.8145V52.0414C150.622 52.1194 151.191 52.1634 151.76 52.1733Z" fill="#53646C"/>
<path d="M145.479 48.011V49.7998C145.719 50.1246 146.01 50.4074 146.341 50.6369V49.3469C145.918 49.0073 145.616 48.5386 145.479 48.011Z" fill="#53646C"/>
<path d="M148.832 53.452C148.392 53.3401 147.963 53.1885 147.55 52.999V54.203C147.965 54.3889 148.394 54.5422 148.832 54.6617V53.452Z" fill="#53646C"/>
<path d="M151.76 55.0744V53.836C151.19 53.8198 150.622 53.772 150.058 53.6926V54.9196C150.622 55.0053 151.19 55.0569 151.76 55.0744Z" fill="#53646C"/>
<path d="M154.672 54.9253V53.6812C154.108 53.766 153.54 53.8177 152.97 53.836V55.0801C153.54 55.0613 154.108 55.0096 154.672 54.9253Z" fill="#53646C"/>
<path d="M155.875 54.6789C156.323 54.5637 156.761 54.4142 157.186 54.2317V52.9417C156.765 53.146 156.326 53.3092 155.875 53.429V54.6789Z" fill="#53646C"/>
<path d="M159.229 52.7465V50.7227C159.096 51.2668 158.798 51.7556 158.378 52.1216V53.5721C158.705 53.347 158.993 53.0679 159.229 52.7465Z" fill="#53646C"/>
<path d="M145.489 50.8889V52.6777C145.728 53.0003 146.018 53.2811 146.346 53.509V52.219C145.927 51.8801 145.626 51.4137 145.489 50.8889Z" fill="#53646C"/>
<path d="M159.217 55.7166V53.6641C159.084 54.1979 158.793 54.678 158.383 55.0401V56.4906C158.7 56.2798 158.982 56.0184 159.217 55.7166Z" fill="#53646C"/>
<path d="M148.832 56.3931C148.392 56.2811 147.963 56.1295 147.55 55.9402V57.1442C147.965 57.33 148.394 57.4834 148.832 57.6029V56.3931Z" fill="#53646C"/>
<path d="M155.875 57.6199C156.323 57.5049 156.761 57.3553 157.186 57.1727V55.877C156.766 56.0834 156.327 56.2486 155.875 56.37V57.6199Z" fill="#53646C"/>
<path d="M152.958 58.0155C153.528 57.9968 154.096 57.9451 154.661 57.8607V56.6223C154.096 56.7073 153.528 56.759 152.958 56.7771V58.0155Z" fill="#53646C"/>
<path d="M145.479 53.8303V55.6134C145.721 55.9386 146.014 56.2214 146.347 56.4505V55.1719C145.921 54.8314 145.617 54.3607 145.479 53.8303Z" fill="#53646C"/>
<path d="M151.76 56.76C151.19 56.7438 150.622 56.696 150.058 56.6167V57.8436C150.621 57.9312 151.19 57.9848 151.76 58.0042V56.76Z" fill="#53646C"/>
<path d="M152.958 60.8994C153.528 60.8807 154.096 60.829 154.661 60.7446V59.5005C154.096 59.5854 153.528 59.6371 152.958 59.6553V60.8994Z" fill="#53646C"/>
<path d="M151.76 59.6267C151.19 59.6106 150.622 59.5627 150.058 59.4834V60.7103C150.621 60.7979 151.19 60.8515 151.76 60.8709V59.6267Z" fill="#53646C"/>
<path d="M159.228 58.5945V56.542C159.095 57.0833 158.8 57.5699 158.383 57.9352V59.3857C158.706 59.1706 158.991 58.9033 159.228 58.5945Z" fill="#53646C"/>
<path d="M155.875 60.4982C156.323 60.383 156.761 60.2335 157.186 60.051V58.761C156.766 58.9673 156.327 59.1324 155.875 59.2541V60.4982Z" fill="#53646C"/>
<path d="M148.832 59.271C148.392 59.1591 147.963 59.0075 147.55 58.8181V60.0221C147.965 60.208 148.394 60.3613 148.832 60.4808V59.271Z" fill="#53646C"/>
<path d="M145.484 56.7141V58.48C145.725 58.8029 146.016 59.0838 146.347 59.3113V58.0213C145.929 57.6892 145.627 57.2313 145.484 56.7141Z" fill="#53646C"/>
<path d="M152.958 62.6023V63.8464C153.528 63.8277 154.096 63.776 154.661 63.6916V62.4475C154.096 62.5324 153.528 62.5841 152.958 62.6023Z" fill="#53646C"/>
<path d="M148.832 62.2181C148.392 62.1061 147.963 61.9546 147.55 61.7651V62.9691C147.965 63.155 148.394 63.3083 148.832 63.4278V62.2181Z" fill="#53646C"/>
<path d="M155.875 63.445C156.323 63.3298 156.761 63.1803 157.186 62.9978V61.7078C156.766 61.9141 156.327 62.0792 155.875 62.2008V63.445Z" fill="#53646C"/>
<path d="M151.76 62.6023C151.19 62.5862 150.622 62.5383 150.058 62.459V63.6859C150.621 63.7735 151.19 63.8271 151.76 63.8464V62.6023Z" fill="#53646C"/>
<path d="M159.228 61.5415V59.489C159.095 60.0304 158.8 60.5169 158.383 60.8822V62.3327C158.706 62.1176 158.991 61.8503 159.228 61.5415Z" fill="#53646C"/>
<path d="M145.484 59.6553V61.4441C145.725 61.767 146.016 62.0479 146.347 62.2754V60.9854C145.925 60.6473 145.623 60.1808 145.484 59.6553Z" fill="#53646C"/>
<path d="M159.234 64.4197V62.3672C159.101 62.9113 158.803 63.4001 158.383 63.7661V65.2167C158.708 65 158.996 64.7308 159.234 64.4197Z" fill="#53646C"/>
<path d="M151.76 65.4804C151.19 65.4623 150.622 65.4126 150.058 65.3313V66.5582C150.621 66.6459 151.19 66.6995 151.76 66.7188V65.4804Z" fill="#53646C"/>
<path d="M152.958 66.7188C153.528 66.7 154.096 66.6483 154.661 66.564V65.3198C154.096 65.4027 153.528 65.4525 152.958 65.4689V66.7188Z" fill="#53646C"/>
<path d="M145.489 62.5334V64.3222C145.728 64.6428 146.018 64.9217 146.346 65.1478V63.8578C145.928 63.5204 145.627 63.0562 145.489 62.5334Z" fill="#53646C"/>
<path d="M155.875 65.0791V66.329C156.323 66.2138 156.761 66.0643 157.186 65.8818V64.5918C156.765 64.7961 156.326 64.9593 155.875 65.0791Z" fill="#53646C"/>
<path d="M148.832 65.0962C148.392 64.9844 147.963 64.8328 147.55 64.6433V65.8473C147.965 66.0332 148.394 66.1866 148.832 66.306V65.0962Z" fill="#53646C"/>
<path d="M159.217 67.3667V65.3142C159.085 65.8501 158.794 66.3324 158.383 66.6959V68.1522C158.701 67.9381 158.983 67.6728 159.217 67.3667Z" fill="#53646C"/>
<path d="M145.473 65.4805V67.2693C145.716 67.5949 146.012 67.8777 146.347 68.1063V66.8221C145.919 66.4821 145.613 66.0114 145.473 65.4805Z" fill="#53646C"/>
<path d="M152.958 68.4216V69.6658C153.528 69.6471 154.096 69.5954 154.661 69.511V68.2668C154.096 68.3518 153.528 68.4035 152.958 68.4216Z" fill="#53646C"/>
<path d="M148.832 68.0433C148.392 67.9312 147.963 67.7796 147.55 67.5903V68.8001C147.965 68.9839 148.394 69.1354 148.832 69.253V68.0433Z" fill="#53646C"/>
<path d="M155.875 69.2701C156.327 69.1482 156.769 68.9911 157.197 68.8V67.51C156.777 67.7165 156.338 67.8816 155.886 68.0031L155.875 69.2701Z" fill="#53646C"/>
<path d="M150.029 68.2783V69.5053C150.593 69.5928 151.162 69.6464 151.732 69.6658V68.4274C151.162 68.4093 150.594 68.3595 150.029 68.2783Z" fill="#53646C"/>
<path d="M152.958 71.2997V72.5438C153.528 72.5251 154.096 72.4734 154.661 72.389V71.1506C154.096 71.2336 153.528 71.2834 152.958 71.2997Z" fill="#53646C"/>
<path d="M159.223 70.2447V68.1921C159.091 68.7308 158.797 69.2153 158.383 69.5796V71.0301C158.703 70.8163 158.987 70.551 159.223 70.2447Z" fill="#53646C"/>
<path d="M145.479 68.3584V70.1472C145.719 70.472 146.01 70.7548 146.341 70.9843V69.6943C145.918 69.3547 145.616 68.886 145.479 68.3584Z" fill="#53646C"/>
<path d="M155.875 70.8983V72.1482C156.323 72.0332 156.761 71.8837 157.186 71.701V70.4053C156.766 70.6117 156.327 70.7768 155.875 70.8983Z" fill="#53646C"/>
<path d="M150.029 71.1562V72.3832C150.593 72.4708 151.162 72.5244 151.732 72.5437V71.3053C151.162 71.2872 150.594 71.2375 150.029 71.1562Z" fill="#53646C"/>
<path d="M147.55 70.4683V71.6665C147.965 71.8524 148.394 72.0057 148.832 72.1252V70.9212C148.392 70.8092 147.963 70.6576 147.55 70.4683Z" fill="#53646C"/>
<path d="M145.484 22.813V48.1601C147.633 49.5472 150.156 50.2244 152.703 50.0979C157.005 49.903 159.229 47.8046 159.229 47.8046V22.813" fill="#68E1FD"/>
<path d="M148.117 21.9759V23.1857C148.117 23.2404 148.139 23.2929 148.177 23.3316C148.215 23.3703 148.267 23.3921 148.321 23.3921C148.376 23.3921 148.428 23.3703 148.466 23.3316C148.504 23.2929 148.526 23.2404 148.526 23.1857V21.9759C148.526 21.9212 148.504 21.8687 148.466 21.83C148.428 21.7913 148.376 21.7695 148.321 21.7695C148.267 21.7695 148.215 21.7913 148.177 21.83C148.139 21.8687 148.117 21.9212 148.117 21.9759Z" fill="#D89E60"/>
<path d="M149.076 22.5206V23.7303C149.076 23.7851 149.098 23.8376 149.136 23.8763C149.174 23.915 149.226 23.9367 149.28 23.9367C149.335 23.9367 149.387 23.915 149.425 23.8763C149.463 23.8376 149.485 23.7851 149.485 23.7303V22.5206C149.485 22.4659 149.463 22.4134 149.425 22.3747C149.387 22.336 149.335 22.3142 149.28 22.3142C149.226 22.3142 149.174 22.336 149.136 22.3747C149.098 22.4134 149.076 22.4659 149.076 22.5206Z" fill="#D89E60"/>
<path d="M150.416 22.7899V23.9366C150.416 23.9913 150.438 24.0438 150.476 24.0825C150.514 24.1212 150.566 24.143 150.62 24.143C150.675 24.143 150.726 24.1212 150.765 24.0825C150.803 24.0438 150.825 23.9913 150.825 23.9366V22.7899C150.825 22.7352 150.803 22.6827 150.765 22.6439C150.726 22.6052 150.675 22.5835 150.62 22.5835C150.566 22.5835 150.514 22.6052 150.476 22.6439C150.438 22.6827 150.416 22.7352 150.416 22.7899Z" fill="#D89E60"/>
<path d="M151.953 22.9332V24.1945C151.953 24.2493 151.975 24.3018 152.013 24.3405C152.051 24.3792 152.103 24.4009 152.157 24.4009C152.212 24.4009 152.264 24.3792 152.302 24.3405C152.34 24.3018 152.362 24.2493 152.362 24.1945V22.9332C152.362 22.8785 152.34 22.826 152.302 22.7873C152.264 22.7486 152.212 22.7268 152.157 22.7268C152.103 22.7268 152.051 22.7486 152.013 22.7873C151.975 22.826 151.953 22.8785 151.953 22.9332Z" fill="#D89E60"/>
<path d="M153.395 22.962V24.0227C153.395 24.0774 153.416 24.1299 153.454 24.1686C153.493 24.2073 153.545 24.2291 153.599 24.2291C153.653 24.2291 153.705 24.2073 153.743 24.1686C153.782 24.1299 153.803 24.0774 153.803 24.0227V22.962C153.803 22.9073 153.782 22.8548 153.743 22.8161C153.705 22.7774 153.653 22.7556 153.599 22.7556C153.545 22.7556 153.493 22.7774 153.454 22.8161C153.416 22.8548 153.395 22.9073 153.395 22.962Z" fill="#D89E60"/>
<path d="M154.638 22.6925V23.7302C154.638 23.785 154.659 23.8375 154.698 23.8762C154.736 23.9149 154.788 23.9366 154.842 23.9366C154.896 23.9366 154.948 23.9149 154.986 23.8762C155.025 23.8375 155.046 23.785 155.046 23.7302V22.6925C155.046 22.6377 155.025 22.5852 154.986 22.5465C154.948 22.5078 154.896 22.4861 154.842 22.4861C154.788 22.4861 154.736 22.5078 154.698 22.5465C154.659 22.5852 154.638 22.6377 154.638 22.6925Z" fill="#D89E60"/>
<path d="M155.954 22.1766V23.2143C155.954 23.2691 155.976 23.3216 156.014 23.3603C156.052 23.399 156.104 23.4207 156.158 23.4207C156.213 23.4207 156.265 23.399 156.303 23.3603C156.341 23.3216 156.363 23.2691 156.363 23.2143V22.1766C156.363 22.1219 156.341 22.0694 156.303 22.0307C156.265 21.992 156.213 21.9702 156.158 21.9702C156.104 21.9702 156.052 21.992 156.014 22.0307C155.976 22.0694 155.954 22.1219 155.954 22.1766Z" fill="#D89E60"/>
<path d="M152.351 25.7598C156.146 25.7598 159.223 24.3634 159.223 22.6409C159.223 20.9184 156.146 19.522 152.351 19.522C148.555 19.522 145.479 20.9184 145.479 22.6409C145.479 24.3634 148.555 25.7598 152.351 25.7598Z" fill="#1E4549"/>
<path d="M159.223 26.8777V24.8252C159.091 25.3639 158.797 25.8484 158.383 26.2127V27.6632C158.703 27.4494 158.987 27.184 159.223 26.8777Z" fill="#53646C"/>
<path d="M154.677 29.0278V27.7837C154.113 27.8686 153.545 27.9203 152.975 27.9385V29.1826C153.545 29.1639 154.113 29.1122 154.677 29.0278Z" fill="#53646C"/>
<path d="M148.832 28.764V27.5543C148.392 27.4423 147.963 27.2907 147.55 27.1013V28.3053C147.965 28.4912 148.394 28.6445 148.832 28.764Z" fill="#53646C"/>
<path d="M157.198 28.3342V27.0442C156.777 27.2506 156.338 27.4157 155.887 27.5373V28.7814C156.334 28.6662 156.773 28.5167 157.198 28.3342Z" fill="#53646C"/>
<path d="M151.76 29.1826V27.9385C151.19 27.9223 150.622 27.8745 150.058 27.7952V29.0221C150.621 29.1097 151.19 29.1633 151.76 29.1826Z" fill="#53646C"/>
<path d="M145.484 24.9973V26.7861C145.725 27.111 146.016 27.3937 146.347 27.6232V26.3332C145.924 25.9936 145.622 25.525 145.484 24.9973Z" fill="#53646C"/>
<path d="M148.832 30.4324C148.392 30.3205 147.963 30.1689 147.55 29.9795V31.1835C147.965 31.3694 148.394 31.5227 148.832 31.6422V30.4324Z" fill="#53646C"/>
<path d="M151.76 32.0608V30.8167C151.19 30.8005 150.622 30.7527 150.058 30.6733V31.9003C150.621 31.9879 151.19 32.0415 151.76 32.0608Z" fill="#53646C"/>
<path d="M154.677 31.906V30.6619C154.113 30.7468 153.545 30.7985 152.975 30.8167V32.0608C153.545 32.042 154.113 31.9904 154.677 31.906Z" fill="#53646C"/>
<path d="M155.875 31.6651C156.323 31.5499 156.761 31.4004 157.186 31.2179V29.9221C156.765 30.1265 156.326 30.2897 155.875 30.4095V31.6651Z" fill="#53646C"/>
<path d="M159.234 29.7559V27.7034C159.101 28.2475 158.803 28.7363 158.383 29.1023V30.5528C158.708 30.3363 158.996 30.067 159.234 29.7559Z" fill="#53646C"/>
<path d="M145.489 27.8755V29.6643C145.728 29.9868 146.018 30.2677 146.346 30.4956V29.2056C145.927 28.8667 145.626 28.4003 145.489 27.8755Z" fill="#53646C"/>
<path d="M159.223 32.6799V30.6445C159.091 31.1832 158.797 31.6677 158.383 32.032V33.4825C158.705 33.2636 158.988 32.9924 159.223 32.6799Z" fill="#53646C"/>
<path d="M148.832 33.3794C148.392 33.2674 147.963 33.1158 147.55 32.9265V34.1305C147.965 34.3163 148.394 34.4697 148.832 34.5892V33.3794Z" fill="#53646C"/>
<path d="M155.875 34.6007C156.323 34.4857 156.761 34.3362 157.186 34.1535V32.8635C156.766 33.07 156.327 33.2351 155.875 33.3566V34.6007Z" fill="#53646C"/>
<path d="M152.958 34.9733C153.528 34.9546 154.096 34.9029 154.661 34.8185V33.603C154.096 33.688 153.528 33.7397 152.958 33.7578V34.9733Z" fill="#53646C"/>
<path d="M145.479 30.8167V32.6054C145.721 32.9307 146.014 33.2135 146.347 33.4425V32.1583C145.921 31.8177 145.617 31.347 145.479 30.8167Z" fill="#53646C"/>
<path d="M151.76 33.7578C151.19 33.7416 150.622 33.6938 150.058 33.6145V34.8414C150.621 34.929 151.19 34.9826 151.76 35.002V33.7578Z" fill="#53646C"/>
<path d="M152.958 37.88C153.528 37.8613 154.096 37.8096 154.661 37.7252V36.4868C154.096 36.5717 153.528 36.6234 152.958 36.6416V37.88Z" fill="#53646C"/>
<path d="M151.76 36.636C151.19 36.6199 150.622 36.572 150.058 36.4927V37.7196C150.621 37.8072 151.19 37.8608 151.76 37.8801V36.636Z" fill="#53646C"/>
<path d="M159.228 35.5752V33.5227C159.095 34.064 158.8 34.5506 158.383 34.9159V36.3664C158.706 36.1513 158.991 35.884 159.228 35.5752Z" fill="#53646C"/>
<path d="M155.875 37.4844C156.326 37.3698 156.769 37.2203 157.197 37.0372V35.7415C156.777 35.9478 156.338 36.1129 155.886 36.2345L155.875 37.4844Z" fill="#53646C"/>
<path d="M148.832 36.2518C148.392 36.1398 147.963 35.9882 147.55 35.7988V37.0028C147.965 37.1887 148.394 37.342 148.832 37.4615V36.2518Z" fill="#53646C"/>
<path d="M145.484 33.6948V35.4836C145.725 35.8066 146.016 36.0874 146.347 36.315V35.025C145.925 34.6868 145.623 34.2204 145.484 33.6948Z" fill="#53646C"/>
<path d="M152.958 39.5598V40.804C153.528 40.7852 154.096 40.7336 154.661 40.6492V39.428C154.096 39.5052 153.528 39.5492 152.958 39.5598Z" fill="#53646C"/>
<path d="M148.832 39.1988C148.392 39.0869 147.963 38.9353 147.55 38.7458V39.9498C147.965 40.1357 148.394 40.289 148.832 40.4085V39.1988Z" fill="#53646C"/>
<path d="M155.875 40.4314C156.323 40.3162 156.761 40.1667 157.186 39.9842V38.6885C156.766 38.8948 156.327 39.0599 155.875 39.1815V40.4314Z" fill="#53646C"/>
<path d="M151.76 39.5601C151.19 39.5439 150.622 39.4961 150.058 39.4167V40.6437C150.621 40.7313 151.19 40.7849 151.76 40.8042V39.5601Z" fill="#53646C"/>
<path d="M159.228 38.5223V36.4697C159.091 37.0028 158.796 37.4808 158.383 37.84V39.2905C158.704 39.0823 158.989 38.8228 159.228 38.5223Z" fill="#53646C"/>
<path d="M145.484 36.6416V38.4132C145.725 38.7361 146.016 39.017 146.347 39.2445V37.9717C145.925 37.6336 145.623 37.1672 145.484 36.6416Z" fill="#53646C"/>
<path d="M159.234 41.4004V39.3479C159.101 39.892 158.803 40.3809 158.383 40.7468V42.1974C158.708 41.9807 158.996 41.7115 159.234 41.4004Z" fill="#53646C"/>
<path d="M151.76 42.4611C151.19 42.4431 150.622 42.3933 150.058 42.312V43.5389C150.621 43.6266 151.19 43.6802 151.76 43.6995V42.4611Z" fill="#53646C"/>
<path d="M152.958 43.7052C153.528 43.6864 154.096 43.6347 154.661 43.5504V42.312C154.096 42.3949 153.528 42.4447 152.958 42.4611V43.7052Z" fill="#53646C"/>
<path d="M145.495 39.5198V41.2799C145.734 41.6005 146.024 41.8794 146.352 42.1055V40.8442C145.934 40.5067 145.633 40.0425 145.495 39.5198Z" fill="#53646C"/>
<path d="M155.875 42.0596V43.3095C156.323 43.1943 156.761 43.0448 157.186 42.8623V41.5723C156.765 41.7766 156.326 41.9398 155.875 42.0596Z" fill="#53646C"/>
<path d="M148.832 42.077C148.392 41.9651 147.963 41.8135 147.55 41.624V42.828C147.965 43.0139 148.394 43.1673 148.832 43.2867V42.077Z" fill="#53646C"/>
<path d="M159.217 44.3472V42.2947C159.085 42.8306 158.794 43.3128 158.383 43.6764V45.1327C158.701 44.9186 158.983 44.6533 159.217 44.3472Z" fill="#53646C"/>
<path d="M145.473 42.4668V44.2556C145.716 44.5812 146.012 44.8641 146.347 45.0927V43.8084C145.919 43.4685 145.613 42.9977 145.473 42.4668Z" fill="#53646C"/>
<path d="M152.958 45.408V46.6521C153.528 46.6334 154.096 46.5817 154.661 46.4973V45.2532C154.096 45.3381 153.528 45.3898 152.958 45.408Z" fill="#53646C"/>
<path d="M148.832 45.0296C148.392 44.9175 147.963 44.7659 147.55 44.5767V45.7807C147.965 45.9645 148.394 46.116 148.832 46.2336V45.0296Z" fill="#53646C"/>
<path d="M155.875 46.2507C156.323 46.1357 156.761 45.9862 157.186 45.8035V44.5078C156.766 44.7143 156.327 44.8794 155.875 45.0009V46.2507Z" fill="#53646C"/>
<path d="M150.029 45.2646V46.4916C150.593 46.5791 151.162 46.6327 151.732 46.6521V45.408C151.162 45.3918 150.594 45.3439 150.029 45.2646Z" fill="#53646C"/>
<path d="M152.958 48.286V49.5302C153.528 49.5115 154.096 49.4598 154.661 49.3754V48.1599C154.096 48.2352 153.527 48.2774 152.958 48.286Z" fill="#53646C"/>
<path d="M159.223 47.2254V45.1729C159.091 45.7115 158.797 46.196 158.383 46.5603V48.0108C158.703 47.797 158.987 47.5317 159.223 47.2254Z" fill="#53646C"/>
<path d="M145.484 45.345V47.1338C145.725 47.4586 146.016 47.7414 146.347 47.9708V46.6808C145.924 46.3412 145.622 45.8726 145.484 45.345Z" fill="#53646C"/>
<path d="M155.875 47.8789V49.1288C156.323 49.0138 156.761 48.8643 157.186 48.6816V47.3916C156.765 47.5961 156.326 47.7592 155.875 47.8789Z" fill="#53646C"/>
<path d="M150.029 48.1599V49.3639C150.593 49.4515 151.162 49.5051 151.732 49.5244V48.286C151.162 48.2756 150.594 48.2335 150.029 48.1599Z" fill="#53646C"/>
<path d="M147.55 47.449V48.653C147.965 48.8388 148.394 48.9922 148.832 49.1116V47.9019C148.392 47.7899 147.963 47.6383 147.55 47.449Z" fill="#53646C"/>
<path d="M152.351 24.6878C154.905 24.6878 156.976 23.7483 156.976 22.5894C156.976 21.4305 154.905 20.491 152.351 20.491C149.796 20.491 147.726 21.4305 147.726 22.5894C147.726 23.7483 149.796 24.6878 152.351 24.6878Z" fill="#F9E1AA"/>
<path d="M147.726 22.4002V20.3821H156.982V22.5951" fill="#F9E1AA"/>
<path d="M152.351 22.4802C154.905 22.4802 156.976 21.5408 156.976 20.3818C156.976 19.2229 154.905 18.2834 152.351 18.2834C149.796 18.2834 147.726 19.2229 147.726 20.3818C147.726 21.5408 149.796 22.4802 152.351 22.4802Z" fill="#D89E60"/>
<path d="M149.553 20.1182L152.231 15.9902L155.148 20.1182C155.148 20.1182 154.785 21.4484 152.01 21.3624C149.723 21.2936 149.553 20.1182 149.553 20.1182Z" fill="#F9E1AA"/>
<path style="mix-blend-mode:multiply" opacity="0.68" d="M182.082 95.03L183.189 93.9751L188.296 96.4232C187.768 96.6927 187.002 97.1628 186.265 97.5986C184.816 96.8354 183.419 95.9774 182.082 95.03Z" fill="url(#paint2_linear_6788_7055)"/>
<path d="M182.667 95.0127H182.712C183.066 95.0127 183.354 94.7226 183.354 94.3648V86.7624C183.354 86.4046 183.066 86.1146 182.712 86.1146H182.667C182.313 86.1146 182.026 86.4046 182.026 86.7624V94.3648C182.026 94.7226 182.313 95.0127 182.667 95.0127Z" fill="#BC532A"/>
<path d="M179.409 87.932C179.715 86.5904 181.077 80.6736 183.489 82.4108C184.726 83.2995 185.073 84.7042 185.566 86.0572C186.015 87.1811 186.274 88.3729 186.333 89.5832C186.372 92.0428 183.892 92.3467 181.997 92.3352C180.902 92.3352 179.341 91.6759 179.086 90.4776C179.018 89.7032 179.107 88.9229 179.347 88.1843L179.409 87.932Z" fill="#2C9135"/>
<path d="M179.29 88.1902L179.347 87.9265C179.619 86.7397 180.714 81.9753 182.633 82.0899C182.065 84.6011 181.225 87.2499 181.673 89.8242C181.817 90.7218 182.165 91.5736 182.689 92.3125C182.434 92.3125 182.184 92.3125 181.94 92.3125C180.845 92.3125 179.284 91.6531 179.029 90.4549C178.965 89.6899 179.054 88.9198 179.29 88.1902Z" fill="#156819"/>
<path style="mix-blend-mode:multiply" opacity="0.68" d="M169.62 103.939L170.727 102.885L175.834 105.333C175.306 105.602 174.54 106.072 173.803 106.508C172.354 105.745 170.957 104.887 169.62 103.939Z" fill="url(#paint3_linear_6788_7055)"/>
<path d="M170.204 103.917H170.249C170.604 103.917 170.891 103.627 170.891 103.269V95.6665C170.891 95.3087 170.604 95.0186 170.249 95.0186H170.204C169.85 95.0186 169.563 95.3087 169.563 95.6665V103.269C169.563 103.627 169.85 103.917 170.204 103.917Z" fill="#BC532A"/>
<path d="M166.941 96.8417C167.248 95.5001 168.61 89.5833 171.022 91.3205C172.259 92.2092 172.605 93.6138 173.099 94.9669C173.547 96.0908 173.806 97.2826 173.865 98.4929C173.904 100.952 171.424 101.256 169.529 101.245C168.434 101.245 166.873 100.586 166.618 99.3873C166.55 98.6129 166.639 97.8326 166.879 97.094L166.941 96.8417Z" fill="#2C9135"/>
<path d="M166.845 97.1055L166.901 96.8417C167.174 95.6549 168.269 90.8905 170.187 91.0052C169.62 93.5164 168.78 96.1652 169.228 98.7395C169.372 99.6371 169.719 100.489 170.244 101.228C169.989 101.228 169.739 101.228 169.495 101.228C168.4 101.228 166.839 100.568 166.584 99.3701C166.52 98.6052 166.608 97.8351 166.845 97.1055Z" fill="#156819"/>
<path style="mix-blend-mode:multiply" opacity="0.68" d="M133.362 85.3176L134.469 84.2627L139.576 86.7108C139.049 86.9803 138.283 87.4504 137.545 87.8862C136.097 87.123 134.7 86.265 133.362 85.3176Z" fill="url(#paint4_linear_6788_7055)"/>
<path d="M133.924 85.3005H133.969C134.323 85.3005 134.61 85.0105 134.61 84.6527V77.0503C134.61 76.6925 134.323 76.4024 133.969 76.4024H133.924C133.57 76.4024 133.282 76.6925 133.282 77.0503V84.6527C133.282 85.0105 133.57 85.3005 133.924 85.3005Z" fill="#BC532A"/>
<path d="M130.661 78.2199C130.967 76.8783 132.329 70.9615 134.741 72.6987C135.978 73.5873 136.325 74.992 136.818 76.3451C137.267 77.469 137.526 78.6608 137.584 79.8711C137.624 82.3307 135.144 82.6345 133.249 82.6231C132.153 82.6231 130.593 81.9637 130.337 80.7655C130.27 79.991 130.359 79.2108 130.599 78.4721L130.661 78.2199Z" fill="#2C9135"/>
<path d="M130.524 78.4778L130.581 78.2141C130.853 77.0273 131.949 72.2629 133.867 72.3775C133.299 74.8887 132.46 77.5375 132.908 80.1118C133.051 81.0094 133.399 81.8612 133.924 82.6001C133.668 82.6001 133.419 82.6001 133.175 82.6001C132.079 82.6001 130.519 81.9407 130.263 80.7425C130.199 79.9775 130.288 79.2074 130.524 78.4778Z" fill="#156819"/>
<path style="mix-blend-mode:multiply" opacity="0.68" d="M62.9473 72.8132L64.0539 71.7583L69.1614 74.2064C68.6336 74.4759 67.8675 74.946 67.1297 75.3818C65.6816 74.6186 64.2845 73.7606 62.9473 72.8132Z" fill="url(#paint5_linear_6788_7055)"/>
<path d="M63.5252 72.7788H63.5706C63.9248 72.7788 64.2119 72.4888 64.2119 72.1309V64.5285C64.2119 64.1707 63.9248 63.8807 63.5706 63.8807H63.5252C63.1711 63.8807 62.884 64.1707 62.884 64.5285V72.1309C62.884 72.4888 63.1711 72.7788 63.5252 72.7788Z" fill="#BC532A"/>
<path d="M60.2684 65.6981C60.5748 64.3565 61.9368 58.4397 64.3487 60.1769C65.5859 61.0656 65.932 62.4703 66.4258 63.8233C66.8741 64.9472 67.133 66.139 67.1919 67.3493C67.2316 69.8089 64.7516 70.1128 62.8562 70.1013C61.7609 70.1013 60.2003 69.442 59.9449 68.2437C59.8771 67.4693 59.9659 66.6891 60.206 65.9504L60.2684 65.6981Z" fill="#2C9135"/>
<path d="M60.1542 65.9334L60.211 65.6696C60.4834 64.4828 61.5786 59.7184 63.4968 59.8331C62.9293 62.3443 62.0894 64.9931 62.5377 67.5674C62.6812 68.465 63.029 69.3168 63.5535 70.0556C63.2982 70.0556 63.0485 70.0556 62.8044 70.0556C61.7092 70.0556 60.1485 69.3963 59.8932 68.198C59.8292 67.4331 59.918 66.663 60.1542 65.9334Z" fill="#156819"/>
<path style="mix-blend-mode:multiply" opacity="0.68" d="M74.501 80.7253L75.6076 79.6704L80.7151 82.1185C80.1873 82.388 79.4212 82.8581 78.6834 83.2939C77.2353 82.5307 75.8382 81.6727 74.501 80.7253Z" fill="url(#paint6_linear_6788_7055)"/>
<path d="M75.0858 80.708H75.1312C75.4853 80.708 75.7725 80.4179 75.7725 80.0601V72.4577C75.7725 72.0999 75.4853 71.8099 75.1312 71.8099H75.0858C74.7316 71.8099 74.4445 72.0999 74.4445 72.4577V80.0601C74.4445 80.4179 74.7316 80.708 75.0858 80.708Z" fill="#BC532A"/>
<path d="M71.828 73.6332C72.1344 72.2916 73.4964 66.3748 75.9083 68.112C77.1454 69.0007 77.4916 70.4053 77.9853 71.7584C78.4337 72.8823 78.6926 74.0741 78.7515 75.2844C78.7912 77.744 76.3112 78.0479 74.4158 78.0364C73.3205 78.0364 71.7599 77.3771 71.5045 76.1788C71.4367 75.4044 71.5255 74.6241 71.7655 73.8855L71.828 73.6332Z" fill="#2C9135"/>
<path d="M71.7089 73.8911L71.7657 73.6274C72.0381 72.4406 73.1333 67.6762 75.0515 67.7909C74.484 70.3021 73.6441 72.9509 74.0924 75.5251C74.2359 76.4228 74.5836 77.2745 75.1082 78.0134C74.8529 78.0134 74.6032 78.0134 74.3591 78.0134C73.2639 78.0134 71.7032 77.3541 71.4479 76.1558C71.3839 75.3909 71.4727 74.6207 71.7089 73.8911Z" fill="#156819"/>
<path style="mix-blend-mode:multiply" opacity="0.68" d="M88.7393 88.4824L89.8459 87.4275L94.9534 89.8756C94.4256 90.1451 93.6595 90.6152 92.9217 91.051C91.4736 90.2878 90.0765 89.4298 88.7393 88.4824Z" fill="url(#paint7_linear_6788_7055)"/>
<path d="M89.3241 88.4653H89.3695C89.7236 88.4653 90.0107 88.1753 90.0107 87.8175V80.2151C90.0107 79.8573 89.7236 79.5672 89.3695 79.5672H89.3241C88.9699 79.5672 88.6828 79.8573 88.6828 80.2151V87.8175C88.6828 88.1753 88.9699 88.4653 89.3241 88.4653Z" fill="#BC532A"/>
<path d="M86.0614 81.4132C86.3678 80.0716 87.7298 74.1548 90.1417 75.892C91.3788 76.7807 91.725 78.1854 92.2187 79.5384C92.667 80.6623 92.926 81.8541 92.9849 83.0644C93.0246 85.524 90.5446 85.8279 88.6492 85.8164C87.5539 85.8164 85.9933 85.1571 85.7379 83.9588C85.6701 83.1844 85.7589 82.4041 85.9989 81.6655L86.0614 81.4132Z" fill="#2C9135"/>
<path d="M85.9472 81.6484L86.0039 81.3847C86.2763 80.1979 87.3716 75.4335 89.2898 75.5482C88.7223 78.0594 87.8824 80.7082 88.3307 83.2824C88.4742 84.1801 88.8219 85.0319 89.3465 85.7707C89.0911 85.7707 88.8414 85.7707 88.5974 85.7707C87.5021 85.7707 85.9415 85.1114 85.6861 83.9131C85.6222 83.1482 85.711 82.3781 85.9472 81.6484Z" fill="#156819"/>
<path style="mix-blend-mode:multiply" opacity="0.68" d="M155.954 78.2199L157.208 77.0273L163.031 79.808C162.435 80.1176 161.567 80.6451 160.727 81.1439C159.074 80.276 157.48 79.2992 155.954 78.2199Z" fill="url(#paint8_linear_6788_7055)"/>
<path d="M156.84 77.7153H157.316V66.1283H156.84V77.7153Z" fill="#404048"/>
<path d="M157.112 67.2863C157.899 67.2863 158.536 66.642 158.536 65.8473C158.536 65.0525 157.899 64.4082 157.112 64.4082C156.325 64.4082 155.688 65.0525 155.688 65.8473C155.688 66.642 156.325 67.2863 157.112 67.2863Z" fill="#68E1FD"/>
<path d="M157.753 65.6007C157.916 65.6007 158.048 65.4672 158.048 65.3025C158.048 65.1379 157.916 65.0044 157.753 65.0044C157.59 65.0044 157.458 65.1379 157.458 65.3025C157.458 65.4672 157.59 65.6007 157.753 65.6007Z" fill="white"/>
<path opacity="0.4" d="M156.034 64.9185C155.91 65.2528 155.916 65.6217 156.05 65.952C156.183 66.2823 156.435 66.5499 156.754 66.7015C157.03 66.862 157.353 66.9173 157.666 66.8574C157.978 66.7974 158.259 66.6261 158.457 66.3747C158.383 66.5712 158.267 66.749 158.117 66.8954C157.968 67.0418 157.789 67.1534 157.592 67.2223C157.395 67.2911 157.186 67.3156 156.979 67.294C156.772 67.2723 156.572 67.2051 156.394 67.0971C156.215 66.989 156.062 66.8427 155.945 66.6685C155.829 66.4942 155.752 66.2963 155.719 66.0886C155.686 65.8809 155.699 65.6685 155.756 65.4664C155.814 65.2642 155.914 65.0772 156.051 64.9185H156.034Z" fill="#3E3E4A"/>
<path d="M156.499 74.7627L155.982 77.916C156.382 78.0942 156.818 78.1747 157.254 78.1511C158.224 78.1855 158.167 77.853 158.167 77.853L157.657 74.7627H156.499Z" fill="#3E3E4A"/>
<path d="M157.072 75.055C157.392 75.055 157.651 74.9241 157.651 74.7626C157.651 74.6011 157.392 74.4702 157.072 74.4702C156.752 74.4702 156.493 74.6011 156.493 74.7626C156.493 74.9241 156.752 75.055 157.072 75.055Z" fill="#55555F"/>
<path d="M157.078 78.4951C157.683 78.4951 158.173 78.2461 158.173 77.9389C158.173 77.6318 157.683 77.3828 157.078 77.3828C156.473 77.3828 155.982 77.6318 155.982 77.9389C155.982 78.2461 156.473 78.4951 157.078 78.4951Z" fill="#3E3E4A"/>
<path style="mix-blend-mode:multiply" opacity="0.68" d="M133.05 65.016L134.304 63.8235L140.127 66.6042C139.531 66.9138 138.662 67.4412 137.822 67.94C136.17 67.0721 134.576 66.0953 133.05 65.016Z" fill="url(#paint9_linear_6788_7055)"/>
<path d="M133.935 64.5115H134.412V52.9244H133.935V64.5115Z" fill="#404048"/>
<path d="M134.213 54.0825C135 54.0825 135.638 53.4382 135.638 52.6434C135.638 51.8486 135 51.2043 134.213 51.2043C133.427 51.2043 132.789 51.8486 132.789 52.6434C132.789 53.4382 133.427 54.0825 134.213 54.0825Z" fill="#68E1FD"/>
<path d="M134.855 52.3968C135.018 52.3968 135.15 52.2633 135.15 52.0987C135.15 51.934 135.018 51.8005 134.855 51.8005C134.692 51.8005 134.56 51.934 134.56 52.0987C134.56 52.2633 134.692 52.3968 134.855 52.3968Z" fill="white"/>
<path opacity="0.4" d="M133.135 51.709C133.012 52.0433 133.018 52.4123 133.151 52.7426C133.285 53.0729 133.536 53.3404 133.856 53.4921C134.131 53.6526 134.455 53.7079 134.767 53.6479C135.08 53.5879 135.36 53.4167 135.558 53.1653C135.484 53.3618 135.368 53.5395 135.219 53.6859C135.07 53.8324 134.89 53.944 134.694 54.0128C134.497 54.0817 134.288 54.1061 134.081 54.0845C133.874 54.0629 133.674 53.9957 133.495 53.8876C133.317 53.7795 133.164 53.6332 133.047 53.459C132.93 53.2848 132.853 53.0868 132.82 52.8791C132.788 52.6715 132.8 52.4591 132.858 52.2569C132.915 52.0547 133.016 51.8677 133.152 51.709H133.135Z" fill="#3E3E4A"/>
<path d="M133.595 61.5588L133.078 64.7122C133.478 64.8903 133.913 64.9708 134.349 64.9472C135.32 64.9816 135.263 64.6491 135.263 64.6491L134.752 61.5588H133.595Z" fill="#3E3E4A"/>
<path d="M134.174 61.8512C134.493 61.8512 134.752 61.7202 134.752 61.5588C134.752 61.3973 134.493 61.2664 134.174 61.2664C133.854 61.2664 133.595 61.3973 133.595 61.5588C133.595 61.7202 133.854 61.8512 134.174 61.8512Z" fill="#55555F"/>
<path d="M134.173 65.2854C134.778 65.2854 135.269 65.0364 135.269 64.7292C135.269 64.4221 134.778 64.1731 134.173 64.1731C133.568 64.1731 133.078 64.4221 133.078 64.7292C133.078 65.0364 133.568 65.2854 134.173 65.2854Z" fill="#3E3E4A"/>
<path style="mix-blend-mode:multiply" opacity="0.68" d="M76.3232 62.4933L77.5774 61.3008L83.4227 64.0929C82.8268 64.4025 81.9585 64.93 81.1186 65.4288C79.4579 64.5581 77.856 63.5774 76.3232 62.4933Z" fill="url(#paint10_linear_6788_7055)"/>
<path d="M77.2079 62.0117H77.6846V50.4246H77.2079V62.0117Z" fill="#404048"/>
<path d="M77.4801 51.5827C78.2668 51.5827 78.9045 50.9384 78.9045 50.1437C78.9045 49.3489 78.2668 48.7046 77.4801 48.7046C76.6934 48.7046 76.0557 49.3489 76.0557 50.1437C76.0557 50.9384 76.6934 51.5827 77.4801 51.5827Z" fill="#68E1FD"/>
<path d="M78.1271 49.8914C78.2901 49.8914 78.4222 49.758 78.4222 49.5933C78.4222 49.4286 78.2901 49.2952 78.1271 49.2952C77.9642 49.2952 77.832 49.4286 77.832 49.5933C77.832 49.758 77.9642 49.8914 78.1271 49.8914Z" fill="white"/>
<path opacity="0.4" d="M76.4027 49.2092C76.2795 49.5436 76.2852 49.9125 76.4187 50.2428C76.5522 50.5731 76.8037 50.8406 77.1234 50.9923C77.3989 51.1528 77.7223 51.2081 78.0347 51.1481C78.3471 51.0882 78.6279 50.9169 78.8259 50.6655C78.7518 50.862 78.636 51.0398 78.4866 51.1862C78.3372 51.3326 78.1578 51.4442 77.9611 51.5131C77.7645 51.5819 77.5552 51.6064 77.3482 51.5847C77.1411 51.5631 76.9413 51.4959 76.7627 51.3878C76.5842 51.2798 76.4312 51.1335 76.3146 50.9592C76.1981 50.785 76.1207 50.5871 76.088 50.3794C76.0553 50.1717 76.068 49.9593 76.1254 49.7571C76.1827 49.555 76.2831 49.3679 76.4197 49.2092H76.4027Z" fill="#3E3E4A"/>
<path d="M76.868 59.0532L76.3516 62.2066C76.7511 62.3847 77.1866 62.4652 77.6228 62.4416C78.5932 62.476 78.5364 62.1435 78.5364 62.1435L78.0257 59.0532H76.868Z" fill="#3E3E4A"/>
<path d="M77.446 59.3458C77.7657 59.3458 78.0249 59.2149 78.0249 59.0534C78.0249 58.8919 77.7657 58.761 77.446 58.761C77.1263 58.761 76.8672 58.8919 76.8672 59.0534C76.8672 59.2149 77.1263 59.3458 77.446 59.3458Z" fill="#55555F"/>
<path d="M77.4468 62.7856C78.0517 62.7856 78.5421 62.5366 78.5421 62.2295C78.5421 61.9223 78.0517 61.6733 77.4468 61.6733C76.8419 61.6733 76.3516 61.9223 76.3516 62.2295C76.3516 62.5366 76.8419 62.7856 77.4468 62.7856Z" fill="#3E3E4A"/>
<path style="mix-blend-mode:multiply" opacity="0.68" d="M140.739 85.6847L141.993 84.4922L147.816 87.2729C147.22 87.5825 146.352 88.1099 145.512 88.6087C143.859 87.7408 142.265 86.764 140.739 85.6847Z" fill="url(#paint11_linear_6788_7055)"/>
<path d="M141.637 85.1802H142.113V73.5931H141.637V85.1802Z" fill="#404048"/>
<path d="M141.915 74.7568C142.701 74.7568 143.339 74.1125 143.339 73.3177C143.339 72.523 142.701 71.8787 141.915 71.8787C141.128 71.8787 140.49 72.523 140.49 73.3177C140.49 74.1125 141.128 74.7568 141.915 74.7568Z" fill="#68E1FD"/>
<path d="M142.556 73.0655C142.719 73.0655 142.851 72.932 142.851 72.7674C142.851 72.6027 142.719 72.4692 142.556 72.4692C142.393 72.4692 142.261 72.6027 142.261 72.7674C142.261 72.932 142.393 73.0655 142.556 73.0655Z" fill="white"/>
<path opacity="0.4" d="M140.83 72.3833C140.707 72.7177 140.713 73.0866 140.846 73.4169C140.98 73.7472 141.231 74.0147 141.551 74.1664C141.827 74.3269 142.15 74.3822 142.462 74.3222C142.775 74.2622 143.056 74.091 143.254 73.8396C143.18 74.0361 143.064 74.2138 142.914 74.3603C142.765 74.5067 142.586 74.6183 142.389 74.6871C142.192 74.756 141.983 74.7805 141.776 74.7588C141.569 74.7372 141.369 74.67 141.19 74.5619C141.012 74.4538 140.859 74.3075 140.742 74.1333C140.626 73.9591 140.548 73.7612 140.516 73.5535C140.483 73.3458 140.496 73.1334 140.553 72.9312C140.61 72.729 140.711 72.542 140.847 72.3833H140.83Z" fill="#3E3E4A"/>
<path d="M141.307 82.2275L140.791 85.3809C141.191 85.559 141.626 85.6395 142.062 85.6159C143.033 85.6503 142.976 85.3178 142.976 85.3178L142.465 82.2275H141.307Z" fill="#3E3E4A"/>
<path d="M141.875 82.5199C142.194 82.5199 142.454 82.3889 142.454 82.2275C142.454 82.066 142.194 81.9351 141.875 81.9351C141.555 81.9351 141.296 82.066 141.296 82.2275C141.296 82.3889 141.555 82.5199 141.875 82.5199Z" fill="#55555F"/>
<path d="M141.875 85.9599C142.479 85.9599 142.97 85.7109 142.97 85.4038C142.97 85.0966 142.479 84.8477 141.875 84.8477C141.27 84.8477 140.779 85.0966 140.779 85.4038C140.779 85.7109 141.27 85.9599 141.875 85.9599Z" fill="#3E3E4A"/>
<path style="mix-blend-mode:multiply" opacity="0.68" d="M126.842 94.3192C123.124 91.9169 105.044 81.3733 105.044 81.3733C106.372 80.4674 117.132 84.7732 118.284 83.6666C122.131 83.9132 123.454 77.1994 123.959 76.7866L140.115 88.2074C136.841 90.0478 129.957 92.1692 126.842 94.3192Z" fill="url(#paint12_linear_6788_7055)"/>
<path style="mix-blend-mode:multiply" opacity="0.68" d="M105.986 81.8377C102.269 79.4354 84.6875 69.0523 84.6875 69.0523C86.0155 68.1465 91.8437 66.5526 92.99 65.4289C96.8377 65.6754 98.5686 63.7662 99.0793 63.3591L119.271 75.7145C115.985 77.5721 109.101 79.6934 105.986 81.8377Z" fill="url(#paint13_linear_6788_7055)"/>
<path d="M101.264 69.2185V31.1033L93.041 35.7473V74.0115L101.264 69.2185Z" fill="#68E1FD"/>
<path opacity="0.33" d="M101.264 69.2185V31.1033L93.041 35.7473V74.0115L101.264 69.2185Z" fill="#1E4549"/>
<path d="M93.0411 35.7473L84.6875 31.1033V69.0522L93.0411 74.0115V35.7473Z" fill="#68E1FD"/>
<path d="M101.264 31.1033L93.0411 26.0063L84.6875 31.1033L93.0411 35.7473L101.264 31.1033Z" fill="#CCCCCC"/>
<path d="M84.6875 31.1033L93.0411 35.7473L101.264 31.1033V32.227L93.0411 36.8022L84.6875 32.1525V31.1033Z" fill="#1E4549"/>
<path d="M85.6807 36.0167V34.2336L86.7249 34.8127V36.527L85.6807 36.0167Z" fill="#1E4549"/>
<path d="M88.291 37.4386V35.6555L89.3352 36.2403V37.9489L88.291 37.4386Z" fill="#1E4549"/>
<path d="M90.998 39.1184V37.3411L92.0479 37.9201V39.6287L90.998 39.1184Z" fill="#1E4549"/>
<path d="M85.6807 42.3981V40.615L86.7249 41.1998V42.9083L85.6807 42.3981Z" fill="#1E4549"/>
<path d="M88.291 43.8198V42.0425L89.3352 42.6215V44.3301L88.291 43.8198Z" fill="#1E4549"/>
<path d="M90.998 45.4997V43.7224L92.0479 44.3015V46.01L90.998 45.4997Z" fill="#1E4549"/>
<path d="M85.6807 49.7023V47.9192L86.7249 48.4983V50.2125L85.6807 49.7023Z" fill="#1E4549"/>
<path d="M88.291 51.1241V49.3411L89.3352 49.9259V51.6344L88.291 51.1241Z" fill="#1E4549"/>
<path d="M90.998 52.8039V51.0266L92.0479 51.6057V53.3142L90.998 52.8039Z" fill="#1E4549"/>
<path d="M85.6807 56.932V55.1489L86.7249 55.728V57.4423L85.6807 56.932Z" fill="#1E4549"/>
<path d="M88.291 58.3539V56.5708L89.3352 57.1556V58.8641L88.291 58.3539Z" fill="#1E4549"/>
<path d="M90.998 60.0337V58.2563L92.0479 58.8354V60.5439L90.998 60.0337Z" fill="#1E4549"/>
<path d="M85.6807 64.1617V62.3787L86.7249 62.9577V64.672L85.6807 64.1617Z" fill="#1E4549"/>
<path d="M88.291 65.5836V63.8005L89.3352 64.3853V66.0939L88.291 65.5836Z" fill="#1E4549"/>
<path d="M90.998 67.2634V65.4861L92.0479 66.0652V67.7737L90.998 67.2634Z" fill="#1E4549"/>
<path d="M100.788 36.034V34.251L99.7383 34.8358V36.5443L100.788 36.034Z" fill="#1E4549"/>
<path d="M98.1768 37.4558V35.6785L97.127 36.2575V37.9661L98.1768 37.4558Z" fill="#1E4549"/>
<path d="M95.4641 39.1415V37.3584L94.4199 37.9375V39.6517L95.4641 39.1415Z" fill="#1E4549"/>
<path d="M100.788 42.4153V40.6379L99.7383 41.217V42.9255L100.788 42.4153Z" fill="#1E4549"/>
<path d="M98.1768 43.8429V42.0598L97.127 42.6389V44.3531L98.1768 43.8429Z" fill="#1E4549"/>
<path d="M95.4641 45.5226V43.7395L94.4199 44.3243V46.0328L95.4641 45.5226Z" fill="#1E4549"/>
<path d="M100.788 49.7193V47.9363L99.7383 48.5211V50.2296L100.788 49.7193Z" fill="#1E4549"/>
<path d="M98.1768 51.1413V49.364L97.127 49.9431V51.6516L98.1768 51.1413Z" fill="#1E4549"/>
<path d="M95.4641 52.8213V51.0439L94.4199 51.623V53.3373L95.4641 52.8213Z" fill="#1E4549"/>
<path d="M100.788 56.9491V55.166L99.7383 55.7508V57.4593L100.788 56.9491Z" fill="#1E4549"/>
<path d="M98.1768 58.3711V56.5938L97.127 57.1728V58.8813L98.1768 58.3711Z" fill="#1E4549"/>
<path d="M95.4641 60.051V58.2737L94.4199 58.8527V60.567L95.4641 60.051Z" fill="#1E4549"/>
<path d="M100.788 64.1788V62.3958L99.7383 62.9805V64.6891L100.788 64.1788Z" fill="#1E4549"/>
<path d="M98.1768 65.6008V63.8235L97.127 64.4026V66.1111L98.1768 65.6008Z" fill="#1E4549"/>
<path d="M95.4641 67.2808V65.5034L94.4199 66.0825V67.791L95.4641 67.2808Z" fill="#1E4549"/>
<path d="M100.884 39.1644V37.3813L99.8398 37.9662V39.6747L100.884 39.1644Z" fill="#1E4549"/>
<path d="M98.2737 40.5862V38.8088L97.2295 39.3879V41.0964L98.2737 40.5862Z" fill="#1E4549"/>
<path d="M95.5665 42.2661V40.4888L94.5166 41.0678V42.7764L95.5665 42.2661Z" fill="#1E4549"/>
<path d="M100.748 46.1705V44.3875L99.6982 44.9665V46.6808L100.748 46.1705Z" fill="#1E4549"/>
<path d="M98.1378 47.5924V45.8093L97.0879 46.3941V48.1027L98.1378 47.5924Z" fill="#1E4549"/>
<path d="M95.4251 49.2722V47.4949L94.3809 48.0739V49.7825L95.4251 49.2722Z" fill="#1E4549"/>
<path d="M100.748 53.4632V51.6802L99.6982 52.265V53.9735L100.748 53.4632Z" fill="#1E4549"/>
<path d="M98.1378 54.8852V53.1079L97.0879 53.687V55.3955L98.1378 54.8852Z" fill="#1E4549"/>
<path d="M95.4251 56.5707V54.7876L94.3809 55.3667V57.0809L95.4251 56.5707Z" fill="#1E4549"/>
<path d="M100.748 60.8592V59.0762L99.6982 59.6552V61.3695L100.748 60.8592Z" fill="#1E4549"/>
<path d="M98.1378 62.2811V60.498L97.0879 61.0828V62.7914L98.1378 62.2811Z" fill="#1E4549"/>
<path d="M95.4251 63.9609V62.1836L94.3809 62.7627V64.4712L95.4251 63.9609Z" fill="#1E4549"/>
<path d="M100.839 67.4241V65.6467L99.7891 66.2258V67.9343L100.839 67.4241Z" fill="#1E4549"/>
<path d="M98.2286 68.8459V67.0686L97.1787 67.6477V69.3619L98.2286 68.8459Z" fill="#1E4549"/>
<path d="M95.5159 70.5314V68.7483L94.4717 69.3274V71.0416L95.5159 70.5314Z" fill="#1E4549"/>
<path d="M85.6299 39.0325V37.2551L86.6798 37.8342V39.5427L85.6299 39.0325Z" fill="#1E4549"/>
<path d="M88.2402 40.4601V38.677L89.2901 39.2561V40.9703L88.2402 40.4601Z" fill="#1E4549"/>
<path d="M90.9473 42.14V40.3569L91.9971 40.9417V42.6503L90.9473 42.14Z" fill="#1E4549"/>
<path d="M85.5791 46.1705V44.3875L86.629 44.9665V46.6808L85.5791 46.1705Z" fill="#1E4549"/>
<path d="M88.1895 47.5924V45.8093L89.2393 46.3941V48.1027L88.1895 47.5924Z" fill="#1E4549"/>
<path d="M90.9014 49.2722V47.4949L91.9456 48.0739V49.7825L90.9014 49.2722Z" fill="#1E4549"/>
<path d="M85.5791 53.3373V51.5542L86.629 52.1333V53.8475L85.5791 53.3373Z" fill="#1E4549"/>
<path d="M88.1895 54.7591V52.9761L89.2393 53.5609V55.2694L88.1895 54.7591Z" fill="#1E4549"/>
<path d="M90.9014 56.439V54.6616L91.9456 55.2407V56.9492L90.9014 56.439Z" fill="#1E4549"/>
<path d="M85.6299 60.6128V58.8354L86.6798 59.4145V61.123L85.6299 60.6128Z" fill="#1E4549"/>
<path d="M88.2402 62.0347V60.2573L89.2901 60.8364V62.5449L88.2402 62.0347Z" fill="#1E4549"/>
<path d="M90.9473 63.7203V61.9373L91.9971 62.5221V64.2306L90.9473 63.7203Z" fill="#1E4549"/>
<path d="M85.5791 67.4241V65.6467L86.629 66.2258V67.9343L85.5791 67.4241Z" fill="#1E4549"/>
<path d="M88.1895 68.8459V67.0686L89.2393 67.6477V69.3619L88.1895 68.8459Z" fill="#1E4549"/>
<path d="M90.9014 70.5314V68.7483L91.9456 69.3274V71.0416L90.9014 70.5314Z" fill="#1E4549"/>
<path style="mix-blend-mode:multiply" opacity="0.68" d="M98.5352 76.6603L99.7893 75.4678L105.612 78.2484C105.016 78.558 104.148 79.0855 103.308 79.5843C101.655 78.7164 100.061 77.7396 98.5352 76.6603Z" fill="url(#paint14_linear_6788_7055)"/>
<path d="M99.4198 76.1558H99.8965V64.5687H99.4198V76.1558Z" fill="#404048"/>
<path d="M99.6979 65.7326C100.485 65.7326 101.122 65.0883 101.122 64.2936C101.122 63.4988 100.485 62.8545 99.6979 62.8545C98.9112 62.8545 98.2734 63.4988 98.2734 64.2936C98.2734 65.0883 98.9112 65.7326 99.6979 65.7326Z" fill="#68E1FD"/>
<path d="M100.339 64.0413C100.502 64.0413 100.634 63.9079 100.634 63.7432C100.634 63.5785 100.502 63.4451 100.339 63.4451C100.176 63.4451 100.044 63.5785 100.044 63.7432C100.044 63.9079 100.176 64.0413 100.339 64.0413Z" fill="white"/>
<path opacity="0.4" d="M98.6195 63.3591C98.4963 63.6935 98.502 64.0624 98.6355 64.3927C98.769 64.723 99.0205 64.9905 99.3402 65.1422C99.6157 65.3027 99.939 65.358 100.251 65.298C100.564 65.2381 100.845 65.0668 101.043 64.8154C100.969 65.0119 100.853 65.1897 100.703 65.3361C100.554 65.4825 100.375 65.5941 100.178 65.663C99.9813 65.7318 99.772 65.7563 99.565 65.7347C99.3579 65.713 99.1581 65.6458 98.9795 65.5377C98.8009 65.4297 98.648 65.2834 98.5314 65.1091C98.4149 64.9349 98.3375 64.737 98.3048 64.5293C98.2721 64.3216 98.2848 64.1092 98.3422 63.907C98.3995 63.7049 98.4999 63.5178 98.6365 63.3591H98.6195Z" fill="#3E3E4A"/>
<path d="M99.0799 73.2031L98.5635 76.3565C98.9631 76.5346 99.3986 76.6151 99.8347 76.5915C100.805 76.6259 100.748 76.2934 100.748 76.2934L100.238 73.2031H99.0799Z" fill="#3E3E4A"/>
<path d="M99.658 73.4954C99.9776 73.4954 100.237 73.3645 100.237 73.203C100.237 73.0416 99.9776 72.9106 99.658 72.9106C99.3383 72.9106 99.0791 73.0416 99.0791 73.203C99.0791 73.3645 99.3383 73.4954 99.658 73.4954Z" fill="#55555F"/>
<path d="M99.6588 76.9355C100.264 76.9355 100.754 76.6865 100.754 76.3794C100.754 76.0722 100.264 75.8232 99.6588 75.8232C99.0539 75.8232 98.5635 76.0722 98.5635 76.3794C98.5635 76.6865 99.0539 76.9355 99.6588 76.9355Z" fill="#3E3E4A"/>
<path d="M127.421 81.591V30.1572L116.32 36.4238V88.0582L127.421 81.591Z" fill="#68E1FD"/>
<path opacity="0.33" d="M127.421 81.591V30.1572L116.32 36.4238V88.0582L127.421 81.591Z" fill="#1E4549"/>
<path d="M116.32 36.4238L105.044 30.1572V81.3731L116.32 88.0582V36.4238Z" fill="#68E1FD"/>
<path d="M127.42 30.1573L116.32 23.2773L105.044 30.1573L116.32 36.4239L127.42 30.1573Z" fill="#CCCCCC"/>
<path d="M105.044 30.1572L116.32 36.4238L127.42 30.1572V31.6766L116.32 37.8514L105.044 31.5734V30.1572Z" fill="#1E4549"/>
<path d="M106.383 36.7851V34.3828L107.796 35.1683V37.4731L106.383 36.7851Z" fill="#1E4549"/>
<path d="M109.907 38.7057V36.3035L111.32 37.0889V39.3995L109.907 38.7057Z" fill="#1E4549"/>
<path d="M113.562 40.976V38.5737L114.976 39.3592V41.664L113.562 40.976Z" fill="#1E4549"/>
<path d="M106.383 45.4021V42.9941L107.796 43.7796V46.0901L106.383 45.4021Z" fill="#1E4549"/>
<path d="M109.907 47.3228V44.9148L111.32 45.7003V48.0108L109.907 47.3228Z" fill="#1E4549"/>
<path d="M113.562 49.5876V47.1853L114.976 47.9708V50.2756L113.562 49.5876Z" fill="#1E4549"/>
<path d="M106.383 55.2521V52.8499L107.796 53.6353V55.9459L106.383 55.2521Z" fill="#1E4549"/>
<path d="M109.907 57.1728V54.7705L111.32 55.556V57.8665L109.907 57.1728Z" fill="#1E4549"/>
<path d="M113.562 59.4433V57.041L114.976 57.8265V60.1313L113.562 59.4433Z" fill="#1E4549"/>
<path d="M106.383 65.0102V62.6079L107.796 63.3934V65.6982L106.383 65.0102Z" fill="#1E4549"/>
<path d="M109.907 66.9308V64.5286L111.32 65.314V67.6188L109.907 66.9308Z" fill="#1E4549"/>
<path d="M113.562 69.2013V66.7991L114.976 67.5845V69.8893L113.562 69.2013Z" fill="#1E4549"/>
<path d="M106.383 74.7685V72.3662L107.796 73.1459V75.4565L106.383 74.7685Z" fill="#1E4549"/>
<path d="M109.907 76.6891V74.2869L111.32 75.0723V77.3771L109.907 76.6891Z" fill="#1E4549"/>
<path d="M113.562 78.9594V76.5571L114.976 77.3369V79.6474L113.562 78.9594Z" fill="#1E4549"/>
<path d="M126.773 36.8136V34.4114L125.36 35.1911V37.5016L126.773 36.8136Z" fill="#1E4549"/>
<path d="M123.249 38.7343V36.332L121.836 37.1118V39.4223L123.249 38.7343Z" fill="#1E4549"/>
<path d="M119.595 41.0048V38.6025L118.182 39.3823V41.6928L119.595 41.0048Z" fill="#1E4549"/>
<path d="M126.773 45.4252V43.0229L125.36 43.8084V46.1132L126.773 45.4252Z" fill="#1E4549"/>
<path d="M123.249 47.3459V44.9436L121.836 45.7291V48.0339L123.249 47.3459Z" fill="#1E4549"/>
<path d="M119.595 49.6161V47.2139L118.182 47.9993V50.3041L119.595 49.6161Z" fill="#1E4549"/>
<path d="M126.773 55.2807V52.8784L125.36 53.6581V55.9687L126.773 55.2807Z" fill="#1E4549"/>
<path d="M123.249 57.2013V54.7991L121.836 55.5845V57.8893L123.249 57.2013Z" fill="#1E4549"/>
<path d="M119.595 59.4718V57.0696L118.182 57.8493V60.1598L119.595 59.4718Z" fill="#1E4549"/>
<path d="M126.773 65.039V62.6367L125.36 63.4165V65.727L126.773 65.039Z" fill="#1E4549"/>
<path d="M123.249 66.9596V64.5574L121.836 65.3371V67.6476L123.249 66.9596Z" fill="#1E4549"/>
<path d="M119.595 69.23V66.822L118.182 67.6075V69.918L119.595 69.23Z" fill="#1E4549"/>
<path d="M126.773 74.7912V72.3889L125.36 73.1744V75.4849L126.773 74.7912Z" fill="#1E4549"/>
<path d="M123.249 76.7178V74.3098L121.836 75.0953V77.4058L123.249 76.7178Z" fill="#1E4549"/>
<path d="M119.595 78.9823V76.5801L118.182 77.3655V79.6761L119.595 78.9823Z" fill="#1E4549"/>
<path d="M126.91 41.0334V38.6311L125.491 39.4166V41.7214L126.91 41.0334Z" fill="#1E4549"/>
<path d="M123.386 42.954V40.5518L121.967 41.3372V43.6478L123.386 42.954Z" fill="#1E4549"/>
<path d="M119.726 45.2245V42.8223L118.312 43.6077V45.9125L119.726 45.2245Z" fill="#1E4549"/>
<path d="M126.717 50.4877V48.0854L125.304 48.8709V51.1757L126.717 50.4877Z" fill="#1E4549"/>
<path d="M123.192 52.4084V50.0061L121.779 50.7916V53.0964L123.192 52.4084Z" fill="#1E4549"/>
<path d="M119.538 54.6789V52.2766L118.125 53.0621V55.3669L119.538 54.6789Z" fill="#1E4549"/>
<path d="M126.717 60.332V57.9297L125.304 58.7152V61.0257L126.717 60.332Z" fill="#1E4549"/>
<path d="M123.192 62.2526V59.8503L121.779 60.6358V62.9463L123.192 62.2526Z" fill="#1E4549"/>
<path d="M119.538 64.5229V62.1206L118.125 62.9061V65.2166L119.538 64.5229Z" fill="#1E4549"/>
<path d="M126.717 70.3136V67.9114L125.304 68.6911V71.0016L126.717 70.3136Z" fill="#1E4549"/>
<path d="M123.192 72.2343V69.832L121.779 70.6118V72.9223L123.192 72.2343Z" fill="#1E4549"/>
<path d="M119.538 74.5047V72.0967L118.125 72.8821V75.1927L119.538 74.5047Z" fill="#1E4549"/>
<path d="M126.842 79.1774V76.7751L125.429 77.5549V79.8654L126.842 79.1774Z" fill="#1E4549"/>
<path d="M123.317 81.0981V78.6958L121.904 79.4813V81.7861L123.317 81.0981Z" fill="#1E4549"/>
<path d="M119.657 83.3683V80.9661L118.244 81.7458V84.0563L119.657 83.3683Z" fill="#1E4549"/>
<path d="M106.315 40.8615V38.4592L107.734 39.239V41.5495L106.315 40.8615Z" fill="#1E4549"/>
<path d="M109.839 42.7822V40.3799L111.252 41.1654V43.4701L109.839 42.7822Z" fill="#1E4549"/>
<path d="M113.5 45.0524V42.6501L114.913 43.4299V45.7404L113.5 45.0524Z" fill="#1E4549"/>
<path d="M106.253 50.4877V48.0854L107.666 48.8709V51.1757L106.253 50.4877Z" fill="#1E4549"/>
<path d="M109.777 52.4084V50.0061L111.19 50.7916V53.0964L109.777 52.4084Z" fill="#1E4549"/>
<path d="M113.432 54.6789V52.2766L114.845 53.0621V55.3669L113.432 54.6789Z" fill="#1E4549"/>
<path d="M106.253 60.1598V57.7576L107.666 58.543V60.8478L106.253 60.1598Z" fill="#1E4549"/>
<path d="M109.777 62.0805V59.6782L111.19 60.4637V62.7685L109.777 62.0805Z" fill="#1E4549"/>
<path d="M113.432 64.351V61.9487L114.845 62.7342V65.039L113.432 64.351Z" fill="#1E4549"/>
<path d="M106.315 69.9811V67.5789L107.734 68.3643V70.6749L106.315 69.9811Z" fill="#1E4549"/>
<path d="M109.839 71.9075V69.4995L111.252 70.285V72.5955L109.839 71.9075Z" fill="#1E4549"/>
<path d="M113.5 74.172V71.7698L114.913 72.5552V74.86L113.5 74.172Z" fill="#1E4549"/>
<path d="M106.253 79.1774V76.7751L107.666 77.5549V79.8654L106.253 79.1774Z" fill="#1E4549"/>
<path d="M109.777 81.0981V78.6958L111.19 79.4813V81.7861L109.777 81.0981Z" fill="#1E4549"/>
<path d="M113.432 83.3683V80.9661L114.845 81.7458V84.0563L113.432 83.3683Z" fill="#1E4549"/>
<path style="mix-blend-mode:multiply" opacity="0.68" d="M125.15 89.2107L126.257 88.1558L131.365 90.6039C130.837 90.8734 130.071 91.3435 129.333 91.7792C127.885 91.0161 126.488 90.1581 125.15 89.2107Z" fill="url(#paint15_linear_6788_7055)"/>
<path d="M125.729 89.1934H125.775C126.129 89.1934 126.416 88.9033 126.416 88.5455V80.9431C126.416 80.5853 126.129 80.2952 125.775 80.2952H125.729C125.375 80.2952 125.088 80.5853 125.088 80.9431V88.5455C125.088 88.9033 125.375 89.1934 125.729 89.1934Z" fill="#BC532A"/>
<path d="M122.472 82.1127C122.779 80.7711 124.141 74.8543 126.553 76.5915C127.79 77.4801 128.136 78.8848 128.63 80.2379C129.076 81.3621 129.333 82.5539 129.39 83.7639C129.43 86.2235 126.95 86.5273 125.054 86.5159C123.959 86.5159 122.399 85.8566 122.143 84.6583C122.075 83.8839 122.164 83.1036 122.404 82.365L122.472 82.1127Z" fill="#2C9135"/>
<path d="M122.358 82.3709L122.415 82.1071C122.687 80.9203 123.783 76.1559 125.701 76.2706C125.133 78.7818 124.293 81.4306 124.742 84.0049C124.885 84.9025 125.233 85.7543 125.758 86.4931C125.502 86.4931 125.253 86.4931 125.009 86.4931C123.913 86.4931 122.353 85.8338 122.097 84.6355C122.033 83.8706 122.122 83.1005 122.358 82.3709Z" fill="#156819"/>
<path style="mix-blend-mode:multiply" opacity="0.68" d="M187.104 129.711C183.387 127.309 173.541 121.524 173.541 121.524C174.869 120.618 175.488 119.012 176.64 117.889C180.487 118.135 184.692 118.462 185.209 118.043L196.667 124.23C193.381 126.087 190.22 127.561 187.104 129.711Z" fill="url(#paint16_linear_6788_7055)"/>
<path d="M188.24 121.667V87.8921L180.947 92.0029V125.916L188.24 121.667Z" fill="#68E1FD"/>
<path opacity="0.33" d="M188.24 121.667V87.8921L180.947 92.0029V125.916L188.24 121.667Z" fill="#1E4549"/>
<path d="M180.947 92.0029L173.547 87.8921V121.524L180.947 125.916V92.0029Z" fill="#68E1FD"/>
<path d="M188.239 87.8919L180.947 83.374L173.547 87.8919L180.947 92.0027L188.239 87.8919Z" fill="#9D9CA1"/>
<path d="M186.491 86.2292V87.4963L180.674 90.8962L174.857 87.4963V86.2292" fill="#CC9825"/>
<path d="M186.491 86.2407L180.72 82.6631L174.857 86.2407L180.72 89.4972L186.491 86.2407Z" fill="#F9E1AA"/>
<path d="M173.547 90.2712L181.015 94.1699L188.239 90.34V90.9306L181.015 94.7604L173.547 90.8618V90.2712Z" fill="#CCCCCC"/>
<path d="M173.547 92.7195L181.015 96.6182L188.239 92.7883V93.3788L181.015 97.2087L173.547 93.31V92.7195Z" fill="#CCCCCC"/>
<path d="M173.547 95.3855L181.044 99.3014L188.239 95.483V96.0792L181.044 99.8919L173.547 95.976V95.3855Z" fill="#CCCCCC"/>
<path d="M173.547 97.8049L181.1 101.749L188.239 97.9655V98.556L181.106 102.34L173.547 98.3955V97.8049Z" fill="#CCCCCC"/>
<path d="M173.547 100.161L180.981 104.043L188.239 100.196V100.786L180.987 104.633L173.547 100.746V100.161Z" fill="#CCCCCC"/>
<path d="M173.547 102.575L181.044 106.497L188.239 102.678V103.269L181.044 107.081L173.547 103.165V102.575Z" fill="#CCCCCC"/>
<path d="M173.547 104.966L180.953 108.836L188.239 104.972V105.562L180.958 109.426L173.547 105.556V104.966Z" fill="#CCCCCC"/>
<path d="M173.547 107.466L181.015 111.364L188.239 107.534V108.125L181.015 111.955L173.547 108.056V107.466Z" fill="#CCCCCC"/>
<path d="M173.547 109.959L181.072 113.893L188.239 110.086V110.676L181.072 114.483L173.547 110.544V109.959Z" fill="#CCCCCC"/>
<path d="M173.547 112.373L181.129 116.341L188.239 112.568V113.159L181.134 116.926L173.547 112.964V112.373Z" fill="#CCCCCC"/>
<path d="M173.547 115.051L180.953 118.921L188.239 115.057V115.647L180.958 119.511L173.547 115.641V115.051Z" fill="#CCCCCC"/>
<path d="M173.547 117.47L181.015 121.369L188.239 117.539V118.13L181.015 121.959L173.547 118.055V117.47Z" fill="#CCCCCC"/>
<path d="M173.547 119.821L181.044 123.737L188.239 119.918V120.509L181.044 124.327L173.547 120.406V119.821Z" fill="#CCCCCC"/>
<path style="mix-blend-mode:multiply" opacity="0.68" d="M212.517 109.472C208.8 107.07 195.906 101.033 195.906 101.033C197.234 100.127 197.853 98.5217 199.005 97.3979C202.852 97.6445 207.058 97.9713 207.574 97.5527L219.055 103.739C215.746 105.597 215.65 107.322 212.517 109.472Z" fill="url(#paint17_linear_6788_7055)"/>
<path d="M191.814 40.5805C191.814 40.5805 200.361 34.979 200.531 34.8472C200.701 34.7153 210.349 40.5805 210.349 40.5805V99.0605L201.082 103.515L191.814 99.0605V40.5805Z" fill="#68E1FD"/>
<path opacity="0.39" d="M191.814 40.5806V99.0606L200.191 103.137V45.6374L191.814 40.5806Z" fill="white"/>
<g opacity="0.74">
<path d="M192.769 41.1482L194.193 42.0598V99.4906L192.769 98.8083V41.1482Z" fill="#53646C"/>
<path d="M194.965 42.4897L196.389 43.3956V100.826L194.965 100.144V42.4897Z" fill="#53646C"/>
<path d="M197.337 43.8831L198.761 44.7947V102.225L197.337 101.543V43.8831Z" fill="#53646C"/>
</g>
<path opacity="0.39" d="M210.344 40.5806V99.0606L201.962 103.137V45.6374L210.344 40.5806Z" fill="white"/>
<g opacity="0.74">
<path d="M209.39 41.1482L207.96 42.0598V99.4906L209.39 98.8083V41.1482Z" fill="#53646C"/>
<path d="M207.194 42.4897L205.764 43.3956V100.826L207.194 100.144V42.4897Z" fill="#53646C"/>
<path d="M204.822 43.8831L203.392 44.7947V102.225L204.822 101.543V43.8831Z" fill="#53646C"/>
</g>
<path d="M208.561 32.3015V40.1103L201.076 44.4848L193.591 40.1103V32.3015" fill="#53646C"/>
<path d="M208.561 32.3016L201.133 27.6978L193.591 32.3016L201.133 36.4927L208.561 32.3016Z" fill="#68E1FD"/>
<path d="M198.487 41.1298C199.629 40.5994 199.995 38.9403 199.305 37.4242C198.615 35.908 197.13 35.1089 195.989 35.6393C194.847 36.1696 194.48 37.8287 195.17 39.3449C195.86 40.861 197.345 41.6601 198.487 41.1298Z" fill="white"/>
<path d="M201.247 33.9297C203.19 33.9297 204.766 33.3111 204.766 32.548C204.766 31.7849 203.19 31.1663 201.247 31.1663C199.304 31.1663 197.729 31.7849 197.729 32.548C197.729 33.3111 199.304 33.9297 201.247 33.9297Z" fill="#53646C"/>
<path d="M197.733 32.548V26.9924H204.765V32.548" fill="#53646C"/>
<path d="M201.247 28.3743C203.19 28.3743 204.766 27.7557 204.766 26.9926C204.766 26.2295 203.19 25.6108 201.247 25.6108C199.304 25.6108 197.729 26.2295 197.729 26.9926C197.729 27.7557 199.304 28.3743 201.247 28.3743Z" fill="#53646C"/>
<path d="M198.091 27.0899L201.246 17.7732L204.401 27.0383C204.401 27.0383 203.42 28.0932 201.246 28.0932C199.073 28.0932 198.091 27.0899 198.091 27.0899Z" fill="#68E1FD"/>
<path d="M207.322 38.9767C208.012 37.4605 207.646 35.8015 206.504 35.2711C205.362 34.7407 203.877 35.5399 203.187 37.056C202.497 38.5722 202.863 40.2312 204.005 40.7616C205.147 41.292 206.632 40.4928 207.322 38.9767Z" fill="white"/>
<defs>
<linearGradient id="paint0_linear_6788_7055" x1="155.943" y1="117.212" x2="159.75" y2="126.755" gradientUnits="userSpaceOnUse">
<stop stop-color="#7F4E00"/>
<stop offset="1" stop-color="white"/>
</linearGradient>
<linearGradient id="paint1_linear_6788_7055" x1="154.076" y1="69.7459" x2="162.27" y2="76.9441" gradientUnits="userSpaceOnUse">
<stop stop-color="#7F4E00"/>
<stop offset="1" stop-color="white"/>
</linearGradient>
<linearGradient id="paint2_linear_6788_7055" x1="182.701" y1="93.3215" x2="186.116" y2="96.5374" gradientUnits="userSpaceOnUse">
<stop stop-color="#7F4E00"/>
<stop offset="1" stop-color="white"/>
</linearGradient>
<linearGradient id="paint3_linear_6788_7055" x1="170.233" y1="102.231" x2="173.654" y2="105.447" gradientUnits="userSpaceOnUse">
<stop stop-color="#7F4E00"/>
<stop offset="1" stop-color="white"/>
</linearGradient>
<linearGradient id="paint4_linear_6788_7055" x1="133.953" y1="83.6091" x2="137.373" y2="86.825" gradientUnits="userSpaceOnUse">
<stop stop-color="#7F4E00"/>
<stop offset="1" stop-color="white"/>
</linearGradient>
<linearGradient id="paint5_linear_6788_7055" x1="63.5602" y1="71.0875" x2="66.9753" y2="74.3034" gradientUnits="userSpaceOnUse">
<stop stop-color="#7F4E00"/>
<stop offset="1" stop-color="white"/>
</linearGradient>
<linearGradient id="paint6_linear_6788_7055" x1="75.1196" y1="79.0168" x2="78.5347" y2="82.2327" gradientUnits="userSpaceOnUse">
<stop stop-color="#7F4E00"/>
<stop offset="1" stop-color="white"/>
</linearGradient>
<linearGradient id="paint7_linear_6788_7055" x1="89.3522" y1="86.7739" x2="92.773" y2="89.9898" gradientUnits="userSpaceOnUse">
<stop stop-color="#7F4E00"/>
<stop offset="1" stop-color="white"/>
</linearGradient>
<linearGradient id="paint8_linear_6788_7055" x1="156.646" y1="76.282" x2="160.526" y2="79.9289" gradientUnits="userSpaceOnUse">
<stop stop-color="#7F4E00"/>
<stop offset="1" stop-color="white"/>
</linearGradient>
<linearGradient id="paint9_linear_6788_7055" x1="133.748" y1="63.0782" x2="137.621" y2="66.7251" gradientUnits="userSpaceOnUse">
<stop stop-color="#7F4E00"/>
<stop offset="1" stop-color="white"/>
</linearGradient>
<linearGradient id="paint10_linear_6788_7055" x1="77.0213" y1="60.5726" x2="80.8948" y2="64.2196" gradientUnits="userSpaceOnUse">
<stop stop-color="#7F4E00"/>
<stop offset="1" stop-color="white"/>
</linearGradient>
<linearGradient id="paint11_linear_6788_7055" x1="141.449" y1="83.7469" x2="145.322" y2="87.3938" gradientUnits="userSpaceOnUse">
<stop stop-color="#7F4E00"/>
<stop offset="1" stop-color="white"/>
</linearGradient>
<linearGradient id="paint12_linear_6788_7055" x1="117.381" y1="80.1177" x2="129.979" y2="91.187" gradientUnits="userSpaceOnUse">
<stop stop-color="#7F4E00"/>
<stop offset="1" stop-color="white"/>
</linearGradient>
<linearGradient id="paint13_linear_6788_7055" x1="96.8547" y1="67.791" x2="109.257" y2="78.6845" gradientUnits="userSpaceOnUse">
<stop stop-color="#7F4E00"/>
<stop offset="1" stop-color="white"/>
</linearGradient>
<linearGradient id="paint14_linear_6788_7055" x1="99.2332" y1="74.7224" x2="103.112" y2="78.3694" gradientUnits="userSpaceOnUse">
<stop stop-color="#7F4E00"/>
<stop offset="1" stop-color="white"/>
</linearGradient>
<linearGradient id="paint15_linear_6788_7055" x1="125.763" y1="87.5022" x2="129.178" y2="90.7181" gradientUnits="userSpaceOnUse">
<stop stop-color="#7F4E00"/>
<stop offset="1" stop-color="white"/>
</linearGradient>
<linearGradient id="paint16_linear_6788_7055" x1="181.827" y1="119.935" x2="189.683" y2="126.839" gradientUnits="userSpaceOnUse">
<stop stop-color="#7F4E00"/>
<stop offset="1" stop-color="white"/>
</linearGradient>
<linearGradient id="paint17_linear_6788_7055" x1="204.192" y1="99.4447" x2="212.048" y2="106.348" gradientUnits="userSpaceOnUse">
<stop stop-color="#7F4E00"/>
<stop offset="1" stop-color="white"/>
</linearGradient>
</defs>
</svg>
