<svg width="16" height="16" viewBox="0 0 16 16" fill="none" xmlns="http://www.w3.org/2000/svg">
<path d="M1.3335 8.40674H12.6668" stroke="#F8E98C" stroke-width="1.5" stroke-miterlimit="10" stroke-linecap="round" stroke-linejoin="round"/>
<path d="M12.6668 6.85337V11.62C12.6468 13.52 12.1268 14 10.1468 14H3.85352C1.84018 14 1.3335 13.5 1.3335 11.5134V6.85337C1.3335 5.05337 1.7535 4.47337 3.3335 4.38003C3.4935 4.37337 3.66685 4.3667 3.85352 4.3667H10.1468C12.1601 4.3667 12.6668 4.8667 12.6668 6.85337Z" stroke="#F8E98C" stroke-width="1.5" stroke-linecap="round" stroke-linejoin="round"/>
<path d="M14.6668 4.48667V9.14667C14.6668 10.9467 14.2468 11.5267 12.6668 11.62V6.85333C12.6668 4.86667 12.1601 4.36667 10.1468 4.36667H3.85352C3.66685 4.36667 3.4935 4.37333 3.3335 4.38C3.3535 2.48 3.87352 2 5.85352 2H12.1468C14.1601 2 14.6668 2.5 14.6668 4.48667Z" stroke="#F8E98C" stroke-width="1.5" stroke-linecap="round" stroke-linejoin="round"/>
<path d="M3.5 11.8735H4.64665" stroke="#F8E98C" stroke-width="1.5" stroke-miterlimit="10" stroke-linecap="round" stroke-linejoin="round"/>
<path d="M6.07324 11.8735H8.36658" stroke="#F8E98C" stroke-width="1.5" stroke-miterlimit="10" stroke-linecap="round" stroke-linejoin="round"/>
</svg>
