<svg width="229" height="171" viewBox="0 0 229 171" fill="none" xmlns="http://www.w3.org/2000/svg">
<path d="M111.37 157.32L13.0395 99.1799C9.91022 97.4243 7.22552 94.5344 10.275 92.6477L108.965 35.7845C110.447 34.8668 112.693 34.2683 114.197 35.1404L217.407 95.0417C220.537 96.86 221.101 101.939 217.977 103.757L124.332 157.206C122.368 158.35 120.139 158.962 117.866 158.982C115.593 159.002 113.354 158.429 111.37 157.32Z" fill="#FFDAAE"/>
<path d="M90.9929 25.08C90.9929 25.08 91.6484 23.0337 91.466 22.2699C91.2836 21.5061 90.7364 20.1723 90.6281 19.6479C90.5198 19.1235 91.3235 19.3686 91.6883 20.1039C92.0531 20.8392 91.9049 21.3522 92.5661 21.1185C93.2273 20.8848 95.4902 19.8417 96.8411 19.9044C98.192 19.9671 97.679 20.5884 97.4624 21.1185C97.2458 21.6486 95.8892 22.344 95.1824 22.743C94.4756 23.142 93.176 26.3568 93.176 26.3568" fill="#F67770"/>
<path d="M83.1841 86.1726C83.1239 86.4711 83.1305 86.7793 83.2034 87.0749C83.2764 87.3706 83.4138 87.6464 83.6059 87.8826C84.2443 88.5723 86.6896 90.7327 86.9233 91.2058C87.157 91.6789 87.4933 92.9557 86.9233 93.4003C86.3533 93.8449 85.2817 93.8905 83.9536 93.4003C82.1129 92.5576 80.3887 91.4809 78.8236 90.1969C78.2536 89.5585 78.8236 82.9578 78.8236 82.9578C78.8236 82.9578 82.2436 82.1199 83.3836 82.9578L83.1841 86.1726Z" fill="#42210B"/>
<path d="M74.1558 90.5787C74.0956 90.8771 74.1022 91.1853 74.1751 91.4809C74.248 91.7766 74.3855 92.0524 74.5776 92.2887C75.216 92.9784 77.6613 95.1387 77.895 95.6118C78.1287 96.0849 78.465 97.3617 77.895 97.8063C77.325 98.2509 76.2534 98.2965 74.9253 97.8063C73.0846 96.9636 71.3604 95.8869 69.7953 94.6029C69.2253 93.9645 69.7953 87.3639 69.7953 87.3639C69.7953 87.3639 73.2153 86.526 74.3553 87.3639L74.1558 90.5787Z" fill="#42210B"/>
<path d="M83.6006 43.5195C84.6647 48.463 85.2885 53.4911 85.4645 58.5447C85.5785 65.8008 84.7235 85.3005 84.7235 85.3005C84.7235 85.3005 82.7171 87.2328 78.2939 86.5545V59.4966C78.2939 59.4966 76.7549 60.0666 76.7549 61.2066C76.7549 62.3466 75.3413 90.06 75.3413 90.06C75.3413 90.06 74.5547 91.5249 68.7692 89.2848C68.7692 89.2848 66.797 52.5996 71.0492 45.486" fill="#5FAD00"/>
<path d="M72.4398 45.4119C73.4544 45.372 76.293 46.0845 78.2253 45.942C80.0915 45.8616 81.9389 45.5358 83.7201 44.973C83.7942 44.631 83.8569 44.2719 83.9082 43.8786C85.1907 33.9663 84.8487 27.0123 83.9082 25.4391C82.9677 23.8659 77.3304 22.6233 74.7882 23.3358C72.246 24.0483 68.3643 27.0351 68.3643 27.0351C68.3643 27.0351 69.4188 35.4483 71.3055 41.4276C71.8299 43.1091 71.8299 43.1091 72.4398 45.4119Z" fill="#F04900"/>
<path d="M76.0189 24.5099C77.4154 24.7607 79.0855 24.6068 79.6441 23.5409C79.912 23.0279 80.2141 22.1102 79.5586 21.734C79.171 21.5003 74.9359 21.4775 74.2804 21.7682C73.243 22.2299 73.5679 23.4497 74.3944 23.9513C74.8991 24.231 75.4489 24.4201 76.0189 24.5099Z" fill="#F04900"/>
<path d="M73.4602 13.8055C74.2753 13.663 74.2525 12.3007 75.7402 11.6794C77.2279 11.0581 79.0405 11.953 79.7302 12.4318C80.4199 12.9106 80.8702 11.9359 81.6055 12.6826C82.3408 13.4293 81.8734 14.5807 82.2952 14.9911L82.3522 15.0367C82.536 15.3452 82.6382 15.6955 82.6492 16.0545C82.6602 16.4135 82.5795 16.7694 82.4149 17.0887C82.0892 17.5328 81.7059 17.9315 81.2749 18.2743L74.4691 21.8196C73.6483 21.2496 72.0694 15.7777 72.1891 15.0937C72.221 14.7657 72.3648 14.4587 72.5962 14.2242C72.8276 13.9897 73.1327 13.8418 73.4602 13.8055Z" fill="#200904"/>
<path d="M80.9039 15.886C81.2117 16.2166 80.1971 22.7773 78.1964 23.0167C76.1957 23.2561 73.8473 20.6113 73.6364 19.8247C73.4255 19.0381 73.5509 14.8372 74.3603 14.4439C75.1697 14.0506 79.0343 13.8739 80.9039 15.886Z" fill="#F67770"/>
<path d="M79.9694 13.9936C79.9694 13.9936 80.3627 15.5212 77.9744 15.8062C75.5861 16.0912 75.4265 16.627 75.1244 17.4649C74.5943 19.0324 72.9185 20.8849 72.3428 16.1425C72.3428 15.9145 74.0528 12.6826 75.8825 12.4318C77.7122 12.181 79.9694 13.9936 79.9694 13.9936Z" fill="#200904"/>
<path d="M74.9359 18.2971C74.9359 18.2971 74.1892 17.0089 73.6078 17.6188C73.0264 18.2287 73.4482 19.6708 74.2348 20.1211" fill="#F67770"/>
<path d="M83.925 25.4449C85.1081 27.489 86.0638 29.6565 86.775 31.9087C86.775 31.9087 89.8986 24.4189 90.5028 24.4987C91.107 24.5785 93.1932 25.9009 93.3528 26.7787C93.5124 27.6565 90.2634 39.1762 86.2563 40.2193C82.2492 41.2624 79.9863 32.3647 79.9863 32.3647" fill="#F04900"/>
<path d="M68.7691 58.254L98.5801 40.8063C99.5154 40.2595 100.578 39.9681 101.661 39.9611C102.745 39.9541 103.811 40.2318 104.753 40.7664L157.877 70.9137C158.516 71.2779 159.047 71.8046 159.416 72.4403C159.785 73.076 159.98 73.798 159.98 74.5332C159.98 75.2684 159.785 75.9905 159.416 76.6262C159.047 77.2618 158.516 77.7885 157.877 78.1527L128.75 94.8594C127.36 95.6529 125.785 96.0665 124.184 96.0585C122.583 96.0505 121.013 95.6212 119.63 94.8138L68.7748 64.9344C68.193 64.5926 67.7105 64.1047 67.3751 63.5192C67.0396 62.9336 66.8629 62.2707 66.8623 61.5958C66.8617 60.921 67.0373 60.2577 67.3718 59.6716C67.7062 59.0855 68.1879 58.5968 68.7691 58.254Z" fill="#68E1FD"/>
<path opacity="0.46" d="M68.7691 58.254L98.5801 40.8063C99.5154 40.2595 100.578 39.9681 101.661 39.9611C102.745 39.9541 103.811 40.2318 104.753 40.7664L157.877 70.9137C158.516 71.2779 159.047 71.8046 159.416 72.4403C159.785 73.076 159.98 73.798 159.98 74.5332C159.98 75.2684 159.785 75.9905 159.416 76.6262C159.047 77.2618 158.516 77.7885 157.877 78.1527L128.75 94.8594C127.36 95.6529 125.785 96.0665 124.184 96.0585C122.583 96.0505 121.013 95.6212 119.63 94.8138L68.7748 64.9344C68.193 64.5926 67.7105 64.1047 67.3751 63.5192C67.0396 62.9336 66.8629 62.2707 66.8623 61.5958C66.8617 60.921 67.0373 60.2577 67.3718 59.6716C67.7062 59.0855 68.1879 58.5968 68.7691 58.254Z" fill="#42210B"/>
<path d="M68.7691 55.7174L98.5801 38.2697C99.5154 37.7229 100.578 37.4314 101.661 37.4244C102.745 37.4174 103.811 37.6952 104.753 38.2298L157.871 68.3999C158.51 68.7641 159.041 69.2908 159.41 69.9265C159.78 70.5621 159.974 71.2842 159.974 72.0194C159.974 72.7546 159.78 73.4766 159.41 74.1123C159.041 74.748 158.51 75.2747 157.871 75.6389L128.75 92.3399C127.36 93.1334 125.785 93.547 124.184 93.539C122.583 93.531 121.013 93.1017 119.63 92.2943L68.7748 62.4149C68.189 62.0741 67.7028 61.5858 67.3646 60.9985C67.0265 60.4112 66.8482 59.7455 66.8477 59.0678C66.8471 58.3901 67.0242 57.7241 67.3613 57.1362C67.6985 56.5483 68.1839 56.0591 68.7691 55.7174Z" fill="#68E1FD"/>
<path opacity="0.32" d="M206.293 100.981L167.322 123.08L157.022 117.352L195.309 96.0222" fill="url(#paint0_linear_6788_6945)"/>
<path d="M191.119 90.0144V99.3909H206.293V90.0144" fill="#68E1FD"/>
<path d="M198.706 93.748C202.896 93.748 206.293 92.0765 206.293 90.0145C206.293 87.9526 202.896 86.281 198.706 86.281C194.516 86.281 191.119 87.9526 191.119 90.0145C191.119 92.0765 194.516 93.748 198.706 93.748Z" fill="#68E1FD"/>
<path opacity="0.19" d="M198.706 93.748C202.896 93.748 206.293 92.0765 206.293 90.0145C206.293 87.9526 202.896 86.281 198.706 86.281C194.516 86.281 191.119 87.9526 191.119 90.0145C191.119 92.0765 194.516 93.748 198.706 93.748Z" fill="black"/>
<path d="M198.706 103.489C202.896 103.489 206.293 101.818 206.293 99.7557C206.293 97.6938 202.896 96.0222 198.706 96.0222C194.516 96.0222 191.119 97.6938 191.119 99.7557C191.119 101.818 194.516 103.489 198.706 103.489Z" fill="#68E1FD"/>
<path d="M207.2 68.212C205.598 67.5565 203.381 65.362 201.443 65.4475C200.707 67.2544 200.491 69.3691 200.268 71.2045C199.899 74.3924 199.825 77.6075 200.046 80.809C200.092 81.5234 200.151 82.234 200.223 82.9408C200.242 83.151 200.3 83.3559 200.394 83.545C200.394 86.0188 200.394 88.4888 200.394 90.955C200.394 91.0177 200.419 91.0779 200.463 91.1223C200.507 91.1666 200.568 91.1915 200.63 91.1915C200.693 91.1915 200.753 91.1666 200.798 91.1223C200.842 91.0779 200.867 91.0177 200.867 90.955C200.867 88.5762 200.867 86.1955 200.867 83.8129C201.626 83.5621 202.355 83.2255 203.039 82.8097C204.463 81.9148 205.54 80.562 206.094 78.9736C207.319 75.5536 206.544 71.7574 207.707 68.383C207.542 68.3431 207.371 68.2804 207.2 68.212Z" fill="#297600"/>
<path d="M203.922 62.626C203.016 63.1605 202.269 63.9256 201.756 64.8433C201.62 65.0498 201.506 65.2694 201.414 65.4988L201.345 65.6413C201.199 66.0247 201.078 66.4169 200.98 66.8155C201.163 66.5127 201.448 66.286 201.784 66.1771C202.182 66.003 202.627 65.963 203.05 66.0631C203.454 66.2227 203.836 66.4314 204.19 66.6844C204.76 67.015 205.25 67.3798 205.786 67.7161C208.299 69.3121 211.645 69.4774 213.583 67.1461C213.583 67.0549 213.634 66.9637 213.646 66.8668C213.965 65.2822 209.479 59.3941 203.922 62.626Z" fill="#5FAD00"/>
<path d="M212.5 68.1435L212.814 67.9326C212.818 67.8994 212.815 67.8657 212.804 67.8341C212.793 67.8024 212.775 67.7737 212.751 67.7502C211.229 66.1884 209.599 64.6608 207.524 63.8913C206.036 63.3272 204.425 63.1698 202.856 63.4353C202.685 63.6291 202.531 63.8343 202.383 64.0452C204.093 63.4752 206.213 63.8343 207.752 64.4898C209.588 65.2707 211.047 66.6729 212.421 68.0865C212.443 68.1111 212.47 68.1305 212.5 68.1435Z" fill="#297600"/>
<path d="M187.032 71.5408C185.935 72.1118 185.03 72.9915 184.427 74.0713C183.824 75.1511 183.551 76.3836 183.641 77.617C183.817 82.0915 191.193 77.7253 193.154 73.9462C195.115 70.1671 195.434 75.5593 195.434 75.5593" fill="#297600"/>
<path d="M193.673 69.979C192.287 69.9555 190.906 70.1478 189.58 70.549C188.689 70.7605 187.832 71.0943 187.032 71.5408C187.496 71.8525 187.991 72.1161 188.509 72.3274C189.432 72.7036 190.401 73.1653 190.891 74.0374C191.01 74.2508 191.105 74.4762 191.176 74.71C191.626 76.1806 191.239 77.9704 191.843 79.4467C192.447 80.923 193.684 82.234 195.428 82.3423C197.509 82.4677 198.461 80.4727 198.848 78.7456C199.236 77.0185 199.823 74.6587 199.162 72.886C198.421 70.8169 195.639 70.0759 193.673 69.979Z" fill="#5FAD00"/>
<path d="M196.409 76.9499C195.537 74.0999 193.685 71.4551 190.983 70.2068H190.88L190.755 70.2467L190.265 70.3721C193.417 71.5406 195.395 74.6528 196.204 77.8277C197.236 81.8918 196.888 86.2865 196.899 90.4418C196.899 90.4992 196.922 90.5543 196.963 90.5949C197.003 90.6356 197.059 90.6584 197.116 90.6584C197.173 90.6584 197.229 90.6356 197.269 90.5949C197.31 90.5543 197.333 90.4992 197.333 90.4418C197.321 86.0243 197.72 81.2648 196.409 76.9499Z" fill="#297600"/>
<path d="M102.342 45.8565C102.148 45.8633 101.954 45.8303 101.772 45.7596L101.539 46.5576L100.969 46.2099L101.219 45.4575L101.1 45.3891L100.376 45.8565L99.8457 45.5373L101.761 44.2947L102.667 44.8305C102.809 44.9062 102.932 45.0134 103.026 45.144C103.06 45.1855 103.084 45.2349 103.094 45.2877C103.104 45.3405 103.1 45.395 103.083 45.4461C103.041 45.5546 102.962 45.6451 102.861 45.7026C102.706 45.8007 102.526 45.8539 102.342 45.8565ZM102.006 45.4746C102.097 45.4771 102.187 45.4512 102.263 45.4005C102.337 45.3492 102.377 45.2979 102.365 45.2409C102.354 45.1839 102.297 45.1212 102.2 45.0642L101.869 44.8647L101.385 45.1782L101.71 45.3777C101.791 45.4265 101.883 45.4557 101.978 45.4632" fill="white"/>
<path d="M100.352 43.4512L100.404 43.4797C100.633 43.5908 100.812 43.7841 100.905 44.0212C100.933 44.1222 100.932 44.2289 100.903 44.3294C100.873 44.43 100.817 44.5205 100.74 44.5912L100.17 44.2549C100.19 44.2163 100.201 44.1732 100.201 44.1295C100.201 44.0858 100.19 44.0427 100.17 44.0041C100.122 43.9027 100.042 43.8203 99.9418 43.7704C99.7868 43.6855 99.611 43.646 99.4345 43.6564C99.2409 43.6627 99.0531 43.724 98.893 43.8331C98.8259 43.8652 98.7675 43.9131 98.7228 43.9726C98.6781 44.0322 98.6485 44.1016 98.6365 44.1751C98.6421 44.244 98.6663 44.31 98.7064 44.3662C98.7466 44.4224 98.8012 44.4667 98.8645 44.4943C98.9757 44.5564 99.0975 44.597 99.2236 44.614C99.3554 44.639 99.4908 44.639 99.6226 44.614L100.193 44.9503C99.9136 45.0594 99.6132 45.1023 99.3148 45.0757C99.0181 45.0495 98.7305 44.9601 98.4712 44.8135H98.4256C98.2445 44.7169 98.0929 44.5731 97.9867 44.3974C97.9537 44.3269 97.9365 44.2501 97.9365 44.1723C97.9365 44.0944 97.9537 44.0176 97.9867 43.9471C98.0679 43.777 98.1992 43.6357 98.3629 43.5424C98.557 43.4162 98.7738 43.329 99.0013 43.2859C99.2388 43.2436 99.482 43.2436 99.7195 43.2859C99.9378 43.3074 100.151 43.3632 100.352 43.4512Z" fill="white"/>
<path d="M111.929 50.3423L111.981 50.3708C112.209 50.481 112.387 50.672 112.482 50.9066C112.51 51.0077 112.509 51.1143 112.48 51.2148C112.451 51.3154 112.394 51.406 112.317 51.4766L111.747 51.1403C111.769 51.102 111.78 51.0588 111.78 51.0149C111.78 50.971 111.769 50.9278 111.747 50.8895C111.698 50.791 111.618 50.711 111.519 50.6615H111.491C111.339 50.5787 111.167 50.5392 110.995 50.5475C110.801 50.5541 110.613 50.6154 110.453 50.7242C110.385 50.756 110.326 50.8037 110.28 50.8632C110.235 50.9227 110.204 50.9924 110.191 51.0662C110.196 51.1353 110.22 51.2016 110.26 51.2579C110.3 51.3142 110.355 51.3583 110.419 51.3854C110.529 51.449 110.652 51.4897 110.778 51.5051C110.91 51.5301 111.045 51.5301 111.177 51.5051L111.747 51.8414C111.468 51.9505 111.168 51.9934 110.869 51.9668C110.579 51.9444 110.297 51.8588 110.043 51.716L109.98 51.6818C109.799 51.5852 109.647 51.4414 109.541 51.2657C109.501 51.1984 109.477 51.1227 109.471 51.0446C109.465 50.9665 109.477 50.888 109.507 50.8154C109.589 50.6459 109.72 50.5049 109.883 50.4107C110.076 50.2867 110.291 50.2015 110.516 50.1599C110.753 50.1176 110.997 50.1176 111.234 50.1599C111.475 50.1781 111.711 50.2399 111.929 50.3423Z" fill="white"/>
<path d="M108.395 48.262L110.117 49.288L109.746 49.5274L109.154 49.174L107.603 50.1772L107.067 49.858L108.618 48.8548L108.031 48.5014L108.395 48.262Z" fill="white"/>
<path d="M107.643 47.8174L108.173 48.1309L106.258 49.3735L105.728 49.06L107.643 47.8174Z" fill="white"/>
<path d="M106.754 47.8458C106.679 48.0164 106.551 48.1583 106.389 48.2505C106.196 48.3769 105.978 48.4605 105.75 48.4956C105.507 48.5409 105.258 48.5409 105.015 48.4956C104.779 48.451 104.552 48.3682 104.342 48.2505L104.285 48.2163L103.459 47.7204L105.38 46.4607L106.206 46.9566C106.403 47.0612 106.571 47.2118 106.697 47.3955C106.74 47.4611 106.768 47.5359 106.778 47.614C106.787 47.6921 106.779 47.7714 106.754 47.8458ZM105.853 47.9313C106.03 47.8173 106.104 47.6976 106.087 47.5665C106.07 47.4354 105.956 47.31 105.745 47.1846L105.494 47.0364L104.399 47.7489L104.65 47.8971H104.69C104.864 47.998 105.059 48.0566 105.26 48.0681C105.462 48.0749 105.661 48.0192 105.83 47.9085" fill="white"/>
<path d="M103.704 45.469L105.072 46.2784L104.702 46.5235L103.864 46.0219L103.465 46.2841L104.206 46.723L103.858 46.9567L103.111 46.5121L102.69 46.7857L103.522 47.2873L103.151 47.5267L101.789 46.7116L103.704 45.469Z" fill="white"/>
<path d="M114.551 51.9441L113.451 53.6541L112.881 53.3178L113.092 53.01L112.271 52.5198L111.787 52.668L111.217 52.3317L113.93 51.5793L114.551 51.9441ZM112.761 52.3773L113.331 52.7079L113.765 52.0866L112.779 52.3773" fill="white"/>
<path d="M116.21 54.0986C116.016 54.1069 115.821 54.0739 115.64 54.0017L115.407 54.7997L114.837 54.452L115.082 53.6996L114.962 53.6312L114.238 54.0986L113.708 53.7851L115.618 52.5425L116.524 53.0783C116.667 53.1543 116.792 53.2614 116.889 53.3918C116.92 53.4334 116.942 53.4821 116.951 53.5337C116.96 53.5853 116.956 53.6383 116.94 53.6882C116.899 53.799 116.82 53.8919 116.718 53.9504C116.565 54.044 116.39 54.0951 116.21 54.0986ZM116.131 53.6426C116.21 53.5932 116.245 53.54 116.233 53.483C116.233 53.426 116.176 53.3633 116.068 53.3063L115.743 53.1068L115.258 53.4203L115.583 53.6198C115.667 53.6685 115.76 53.6977 115.857 53.7053C115.948 53.7071 116.037 53.6812 116.113 53.6312" fill="white"/>
<path d="M118.924 55.096C118.854 55.2681 118.727 55.411 118.565 55.5007C118.371 55.6248 118.154 55.7064 117.926 55.7401C117.683 55.7845 117.434 55.7845 117.191 55.7401C116.955 55.6917 116.728 55.6071 116.518 55.4893L116.461 55.4551L115.641 54.9535L117.562 53.7109L118.388 54.2068C118.585 54.3111 118.753 54.4617 118.878 54.6457C118.92 54.7121 118.946 54.7874 118.954 54.8655C118.962 54.9437 118.952 55.0226 118.924 55.096ZM118.029 55.1815C118.2 55.0675 118.28 54.9478 118.263 54.8167C118.246 54.6856 118.132 54.5602 117.921 54.4348L117.67 54.2866L116.575 54.9991L116.826 55.1473H116.872C117.045 55.2483 117.241 55.3051 117.442 55.3126C117.644 55.3218 117.844 55.2658 118.012 55.153" fill="white"/>
<path d="M86.9174 50.8269L87.8522 51.3855L85.2986 53.0442L84.8027 52.7478L86.9687 51.3399L86.5298 51.0834L86.9174 50.8269Z" fill="white"/>
<path d="M89.7446 52.44L89.8016 52.4742C89.914 52.5228 90.0147 52.5947 90.0972 52.685C90.1798 52.7754 90.2422 52.8823 90.2804 52.9986C90.2804 53.181 90.2063 53.3463 89.9726 53.4945C89.7387 53.6313 89.4784 53.7168 89.2088 53.7453C88.8689 53.7916 88.5255 53.8069 88.1828 53.7909C87.8353 53.7774 87.4889 53.7431 87.1454 53.6883L88.5305 54.5148L88.1942 54.7371L86.165 53.5287L86.4671 53.3292C87.0848 53.4142 87.7076 53.4561 88.331 53.4546C88.7242 53.4859 89.1185 53.409 89.471 53.2323C89.6021 53.1525 89.6705 53.0613 89.6762 52.9701C89.6819 52.8789 89.5964 52.782 89.4368 52.6851C89.283 52.5967 89.1067 52.5551 88.9295 52.5654C88.7282 52.578 88.5327 52.6386 88.3595 52.7421L87.8978 52.4685C88.1944 52.2941 88.5343 52.2071 88.8782 52.2177C89.1806 52.2221 89.4775 52.2983 89.7446 52.44Z" fill="white"/>
<path d="M92.5611 54.093L92.6238 54.1272C92.7848 54.2135 92.9249 54.3342 93.0342 54.4806C93.071 54.5296 93.0959 54.5866 93.1068 54.647C93.1177 54.7074 93.1143 54.7695 93.0969 54.8283C93.0523 54.9495 92.9679 55.052 92.8575 55.119C92.6867 55.227 92.4895 55.2861 92.2875 55.29C92.0705 55.2954 91.8555 55.2485 91.6605 55.1532C91.7868 55.265 91.873 55.4152 91.9056 55.5807C91.9056 55.7175 91.8429 55.8372 91.6662 55.9512C91.4368 56.0959 91.1673 56.1638 90.8967 56.145C90.6014 56.1295 90.3141 56.0435 90.0588 55.8942L89.9904 55.86C89.7428 55.7474 89.5487 55.543 89.4489 55.29C89.3976 55.0848 89.4945 54.8853 89.7339 54.72L90.2013 54.9993C90.1453 55.0335 90.0998 55.0824 90.0696 55.1407C90.0395 55.199 90.0259 55.2644 90.0303 55.3299C90.0513 55.4022 90.0876 55.4692 90.1368 55.5263C90.1859 55.5833 90.2468 55.6291 90.3153 55.6605C90.4557 55.7431 90.6142 55.7901 90.777 55.7973C90.9255 55.8065 91.0731 55.7686 91.1988 55.689C91.3413 55.5978 91.3869 55.4895 91.3356 55.3698C91.2332 55.1988 91.0825 55.0619 90.9024 54.9765L90.7884 54.9081L91.1304 54.6858L91.2444 54.7542L91.3242 54.7998C91.4644 54.9083 91.6325 54.975 91.809 54.9922C91.9855 55.0093 92.1632 54.9762 92.3217 54.8967C92.4357 54.8169 92.4927 54.7371 92.4756 54.6402C92.4565 54.5813 92.4254 54.5271 92.3842 54.481C92.3429 54.4349 92.2925 54.3978 92.2362 54.3723C92.0962 54.2943 91.9402 54.2495 91.7802 54.2412C91.6058 54.2339 91.4327 54.2732 91.2786 54.3552L90.8169 54.0816C91.0811 53.9284 91.384 53.8552 91.689 53.8707C91.993 53.876 92.2916 53.9521 92.5611 54.093Z" fill="white"/>
<path d="M94.6355 57.4674L95.0459 57.7125L94.6868 57.9462L94.2764 57.7011L93.7064 58.0602L93.2333 57.7752L93.8033 57.4161L92.3213 56.5326L92.6633 56.3046L95.7926 56.0823L96.2942 56.3844L94.6355 57.4674ZM94.1909 57.2052L95.3651 56.43L93.1649 56.5782L94.1909 57.1881" fill="white"/>
<path d="M109.296 65.9263C109.282 66.0013 109.251 66.072 109.206 66.1333C109.16 66.1945 109.102 66.2446 109.034 66.2797C108.773 66.4455 108.463 66.5159 108.156 66.4792C107.827 66.4494 107.508 66.3482 107.221 66.1828L107.153 66.1429C106.896 66.0172 106.693 65.8025 106.583 65.5387C106.52 65.3278 106.617 65.1454 106.868 64.9687C107.039 64.8602 107.236 64.7992 107.438 64.792C107.664 64.7809 107.891 64.8138 108.105 64.8889C108.053 64.8436 108.013 64.7872 107.986 64.7241C107.96 64.6609 107.948 64.5926 107.951 64.5241C107.966 64.4586 107.995 64.397 108.035 64.343C108.075 64.2891 108.126 64.244 108.185 64.2106C108.325 64.1256 108.483 64.0731 108.646 64.0567C108.838 64.0398 109.03 64.0552 109.216 64.1023C109.416 64.1508 109.608 64.2276 109.786 64.3303L109.855 64.3702C110.032 64.4658 110.188 64.5979 110.311 64.7578C110.351 64.8085 110.381 64.8672 110.398 64.93C110.414 64.9928 110.418 65.0584 110.408 65.1226C110.393 65.1839 110.366 65.2415 110.327 65.2915C110.289 65.3416 110.241 65.3831 110.185 65.4133C110.039 65.5094 109.87 65.5663 109.695 65.5786C109.501 65.5871 109.308 65.5581 109.125 65.4931C109.183 65.5492 109.227 65.6168 109.257 65.6914C109.286 65.7661 109.3 65.8461 109.296 65.9263ZM108.595 65.989C108.743 65.894 108.796 65.7857 108.755 65.6641C108.684 65.5157 108.566 65.3953 108.418 65.3221H108.378C108.217 65.2307 108.039 65.1725 107.854 65.1511C107.675 65.1282 107.494 65.1685 107.341 65.2651C107.193 65.362 107.136 65.4703 107.164 65.59C107.224 65.7478 107.343 65.8764 107.495 65.9491H107.541C107.706 66.0446 107.891 66.1011 108.082 66.1144C108.264 66.1343 108.448 66.09 108.601 65.989M108.601 64.5469C108.47 64.6324 108.418 64.7236 108.447 64.8319C108.501 64.968 108.605 65.0782 108.738 65.1397H108.783C108.923 65.22 109.079 65.2687 109.239 65.2822C109.399 65.2995 109.56 65.2612 109.695 65.1739C109.826 65.0941 109.878 64.9972 109.849 64.8889C109.795 64.7528 109.691 64.6426 109.558 64.5811H109.518C109.377 64.5011 109.219 64.4526 109.057 64.4386C108.897 64.4213 108.736 64.4595 108.601 64.5469Z" fill="white"/>
<path d="M106.041 62.1985L107.968 63.3499L107.654 63.5494L104.308 64.3702L103.812 64.0738L107.124 63.2929L105.682 62.4322L106.041 62.1985Z" fill="white"/>
<path d="M104 62.3522C104 62.546 103.886 62.7341 103.613 62.9222C103.439 63.0334 103.246 63.109 103.043 63.1445C102.83 63.1829 102.612 63.1829 102.399 63.1445C102.186 63.1045 101.982 63.0294 101.794 62.9222L101.737 62.888C101.316 62.6372 101.167 62.3921 101.213 62.147C101.357 61.8238 101.606 61.5587 101.92 61.3946C102.303 61.1279 102.741 60.9524 103.202 60.8816C103.585 60.8384 103.971 60.9204 104.302 61.1153L104.365 61.1552C104.656 61.3262 104.804 61.5029 104.815 61.6853C104.814 61.7885 104.788 61.8899 104.738 61.9804C104.688 62.0709 104.617 62.1477 104.53 62.204L104.08 61.9361C104.319 61.7252 104.291 61.5257 104 61.3661C103.797 61.2535 103.563 61.2114 103.333 61.2464C103.033 61.3013 102.747 61.4199 102.495 61.5941L102.376 61.6796C102.56 61.6207 102.755 61.607 102.946 61.6397C103.146 61.6718 103.339 61.7394 103.516 61.8392C103.835 61.976 103.989 62.1584 104 62.3522ZM103.174 62.6429C103.345 62.5289 103.425 62.4149 103.413 62.2952C103.394 62.2192 103.358 62.1485 103.307 62.0883C103.257 62.0281 103.194 61.98 103.122 61.9475H103.088C102.93 61.8628 102.755 61.8123 102.575 61.7993C102.376 61.7698 102.174 61.8145 102.005 61.9247C101.938 61.9565 101.881 62.0054 101.839 62.0664C101.797 62.1275 101.772 62.1985 101.766 62.2724C101.766 62.4035 101.868 62.5289 102.074 62.6486H102.114C102.27 62.7367 102.447 62.7838 102.627 62.7854C102.812 62.7906 102.995 62.7389 103.151 62.6372" fill="white"/>
<path d="M100.375 58.7954L102.251 59.9354L101.886 60.1691L100.444 59.2799L99.6856 59.7701C99.8412 59.7629 99.997 59.7802 100.147 59.8214C100.299 59.8617 100.444 59.9211 100.58 59.9981H100.615C100.78 60.0823 100.917 60.2131 101.008 60.3743C101.038 60.4315 101.054 60.495 101.054 60.5596C101.054 60.6241 101.038 60.6877 101.008 60.7448C100.935 60.8828 100.824 60.9974 100.689 61.0754C100.416 61.2491 100.1 61.342 99.7768 61.3433C99.4503 61.3438 99.1295 61.2573 98.8477 61.0925L98.7907 61.0583C98.6688 61.0034 98.5591 60.9247 98.4681 60.8268C98.377 60.7289 98.3065 60.6138 98.2606 60.4883C98.237 60.3777 98.2498 60.2625 98.297 60.1598C98.3443 60.0571 98.4235 59.9724 98.5228 59.9183L98.9845 60.1976C98.9382 60.2333 98.9023 60.2805 98.8803 60.3346C98.8582 60.3887 98.8509 60.4476 98.8591 60.5054C98.881 60.5705 98.9161 60.6304 98.9622 60.6814C99.0083 60.7324 99.0644 60.7734 99.127 60.8018H99.1669C99.3273 60.8954 99.5113 60.9409 99.697 60.9329C99.8877 60.9255 100.073 60.8664 100.233 60.7619C100.387 60.6593 100.455 60.551 100.449 60.437C100.444 60.323 100.352 60.209 100.164 60.1064H100.119C100.007 60.0439 99.8858 60.0014 99.7597 59.981C99.6279 59.9553 99.4924 59.9553 99.3607 59.981L98.9047 59.7074L100.375 58.7954Z" fill="white"/>
<path d="M123.66 73.0968C123.527 73.4263 123.28 73.6972 122.964 73.8606C122.603 74.1048 122.192 74.2664 121.762 74.3337C121.378 74.3811 120.989 74.301 120.656 74.1057L120.593 74.0658C120.206 73.8321 120.023 73.5984 120.109 73.3476C120.243 73.014 120.495 72.7407 120.815 72.5781C121.173 72.3312 121.583 72.1693 122.012 72.105C122.397 72.0601 122.785 72.1422 123.118 72.3387L123.187 72.3786C123.569 72.6123 123.722 72.846 123.66 73.0968ZM122.491 73.5813C122.723 73.4662 122.92 73.291 123.061 73.074C123.135 72.9258 123.061 72.7776 122.81 72.6408H122.771C122.568 72.521 122.329 72.4804 122.098 72.5268C121.814 72.598 121.546 72.7197 121.306 72.8859C121.075 73.006 120.879 73.1825 120.736 73.3989C120.662 73.5471 120.736 73.6953 120.986 73.8378H121.015C121.22 73.961 121.465 74.0017 121.699 73.9518C121.984 73.8782 122.255 73.7547 122.497 73.587" fill="white"/>
<path d="M120.667 71.3183C120.531 71.6477 120.282 71.9182 119.966 72.0821C119.606 72.3298 119.195 72.4917 118.763 72.5552C118.367 72.6057 117.965 72.5213 117.623 72.3158L117.572 72.2873C117.19 72.0593 117.002 71.8142 117.093 71.5691C117.231 71.2375 117.481 70.9651 117.8 70.7996C118.16 70.5539 118.571 70.394 119.003 70.3322C119.399 70.2827 119.8 70.3669 120.143 70.5716L120.194 70.6001C120.576 70.8281 120.73 71.0675 120.667 71.3183ZM119.498 71.8028C119.728 71.684 119.924 71.5096 120.068 71.2955C120.143 71.1473 120.068 70.9991 119.823 70.8566H119.789C119.584 70.732 119.34 70.6893 119.105 70.7369C118.819 70.8061 118.549 70.9278 118.307 71.096C118.077 71.2164 117.881 71.3928 117.737 71.609C117.663 71.7572 117.737 71.9054 117.988 72.0479H118.016C118.222 72.1706 118.466 72.2113 118.7 72.1619C118.987 72.0868 119.259 71.9634 119.504 71.7971" fill="white"/>
<path d="M116.056 68.5084C115.918 68.8304 115.672 69.0944 115.361 69.2551C114.978 69.5204 114.543 69.6993 114.084 69.7795C113.705 69.8316 113.32 69.7554 112.99 69.5629L112.927 69.5287C112.636 69.3577 112.482 69.1753 112.459 68.9587C112.452 68.8551 112.473 68.7516 112.52 68.6592C112.568 68.5668 112.639 68.489 112.727 68.4343L113.178 68.7022C113.129 68.7356 113.089 68.7808 113.062 68.8335C113.035 68.8863 113.022 68.945 113.024 69.0043C113.04 69.0659 113.07 69.123 113.111 69.1714C113.153 69.2198 113.205 69.2581 113.263 69.2836H113.292C113.492 69.3969 113.725 69.4409 113.953 69.409C114.257 69.3526 114.545 69.23 114.796 69.0499L114.916 68.9701C114.732 69.0264 114.537 69.0401 114.346 69.01C114.146 68.9832 113.953 68.9194 113.776 68.8219H113.731C113.44 68.6509 113.292 68.4685 113.28 68.2519C113.269 68.0353 113.4 67.87 113.668 67.6819C113.841 67.5704 114.035 67.4948 114.238 67.4596C114.451 67.4188 114.669 67.4188 114.882 67.4596C115.094 67.4959 115.299 67.5692 115.486 67.6762L115.543 67.7104C115.942 68.0239 116.119 68.269 116.056 68.5084ZM115.252 68.7364C115.319 68.7036 115.375 68.6545 115.417 68.5936C115.459 68.5328 115.485 68.4622 115.492 68.3887C115.492 68.2576 115.389 68.1322 115.184 68.0068C115.024 67.9157 114.844 67.8648 114.66 67.8586C114.47 67.8525 114.283 67.9042 114.124 68.0068C113.953 68.1208 113.873 68.2348 113.884 68.3545C113.896 68.4742 113.993 68.5882 114.175 68.6965C114.286 68.7582 114.405 68.8042 114.529 68.8333C114.659 68.856 114.792 68.856 114.922 68.8333C115.05 68.8239 115.173 68.7827 115.281 68.7136" fill="white"/>
<path d="M117.23 68.8845L118.17 69.4431L115.611 71.0961L115.115 70.7997L117.287 69.3975L116.848 69.1353L117.23 68.8845Z" fill="white"/>
<path d="M83.4463 55.5237L83.8339 55.7574L81.9814 56.9601L82.8193 57.4617L82.5514 57.6384L81.3145 56.9031L83.4463 55.5237Z" fill="white"/>
<path d="M84.9855 56.4414L85.3788 56.6751L83.2527 58.0545L82.8594 57.8208L84.9855 56.4414Z" fill="white"/>
<path d="M81.674 54.4634L83.0648 55.2956L82.7855 55.4723L81.788 54.8795L81.1439 55.2956L82.0388 55.8314L81.7709 56.0024L80.876 55.4666L80.2148 55.8998L81.218 56.4926L80.9387 56.675L79.5479 55.8428L81.674 54.4634Z" fill="white"/>
<path d="M85.7837 56.9146L87.3683 57.8551L87.0947 58.0318L84.353 58.3624L85.5329 59.0635L85.2536 59.2459L83.6348 58.2826L83.9027 58.1059L86.6387 57.7696L85.5044 57.097L85.7837 56.9146Z" fill="white"/>
<path d="M95.8779 62.9224L96.2712 63.1561L95.3763 63.7375L96.522 64.4215L97.4169 63.8401L97.8102 64.0795L95.6841 65.4589L95.2908 65.2195L96.2427 64.6039L95.097 63.9199L94.1451 64.5412L93.7461 64.3075L95.8779 62.9224Z" fill="white"/>
<path d="M93.8314 61.7083L95.5813 62.7513L95.3077 62.9281L94.6237 62.529L92.7769 63.7261L92.3779 63.4924L94.2304 62.2896L93.5578 61.885L93.8314 61.7083Z" fill="white"/>
<path d="M92.2472 60.762L93.638 61.5885L93.3587 61.7709L92.3612 61.1781L91.7171 61.5942L92.612 62.13L92.3441 62.301L91.4492 61.7652L90.7937 62.1927L91.7912 62.7912L91.5062 62.9736L90.1211 62.1414L92.2472 60.762Z" fill="white"/>
<path d="M90.5256 61.2521C90.5189 61.3147 90.4967 61.3747 90.4608 61.4265C90.425 61.4783 90.3767 61.5202 90.3204 61.5485C90.1362 61.6675 89.9176 61.7216 89.6991 61.7024C89.4619 61.6835 89.232 61.6114 89.0265 61.4915L88.9581 61.4516L87.9834 60.8816L90.1095 59.5022L91.0614 60.0722C91.3046 60.2166 91.4433 60.3591 91.4775 60.4997C91.5117 60.6365 91.4433 60.7619 91.278 60.8702C91.1444 60.9593 90.9883 61.0087 90.8277 61.0127C90.6625 61.0186 90.4978 60.9915 90.3432 60.9329C90.396 60.9686 90.4399 61.0159 90.4716 61.0713C90.5032 61.1266 90.5217 61.1885 90.5256 61.2521ZM89.9556 61.2806C90.0639 61.2122 90.1095 61.1324 90.0867 61.0412C90.032 60.9249 89.9396 60.8305 89.8245 60.7733L89.3343 60.4826L88.656 60.9215L89.1519 61.2179C89.2792 61.2919 89.4213 61.3367 89.568 61.349C89.6958 61.3624 89.8243 61.3323 89.9328 61.2635M90.195 59.8955L89.5623 60.3059L90.0468 60.5966C90.1611 60.6653 90.29 60.7063 90.423 60.7163C90.5451 60.7259 90.667 60.6959 90.7707 60.6308C90.8104 60.6112 90.8431 60.58 90.8645 60.5413C90.8859 60.5026 90.895 60.4582 90.8904 60.4142C90.8904 60.3344 90.7935 60.2546 90.6453 60.1634L90.1722 59.8841" fill="white"/>
<path d="M88.8961 58.8068L87.6991 60.6992L87.2773 60.4484L87.5509 60.038L86.5249 59.4224L85.8808 59.6105L85.459 59.3597L88.4515 58.5332L88.8961 58.8068ZM86.9011 59.3198L87.7105 59.7986L88.2805 58.9094L86.884 59.3198" fill="white"/>
<path d="M118.821 76.5454L120.383 77.4802L120.075 77.6797L118.878 76.9501L118.245 77.3605C118.374 77.3537 118.503 77.3671 118.627 77.4004C118.744 77.43 118.857 77.4741 118.964 77.5315L119.015 77.5657C119.154 77.6344 119.269 77.7437 119.345 77.8792C119.37 77.9278 119.383 77.9815 119.383 78.036C119.383 78.0904 119.37 78.1441 119.345 78.1927C119.282 78.3039 119.192 78.3978 119.083 78.4663C118.859 78.6111 118.598 78.6901 118.331 78.6943C118.059 78.6956 117.791 78.6248 117.556 78.4891L117.499 78.4549C117.295 78.3598 117.137 78.1876 117.06 77.9761C117.045 77.8863 117.058 77.7941 117.096 77.7116C117.135 77.6292 117.198 77.5605 117.276 77.5144L117.664 77.7424C117.626 77.7726 117.597 77.8121 117.579 77.8571C117.561 77.9021 117.555 77.9509 117.561 77.9989C117.6 78.1052 117.677 78.1928 117.778 78.244C117.917 78.3275 118.077 78.3691 118.24 78.3637C118.398 78.3567 118.551 78.3075 118.684 78.2212C118.81 78.1357 118.872 78.0445 118.867 77.9533C118.861 77.8621 118.781 77.7652 118.633 77.6797C118.536 77.6244 118.43 77.5858 118.319 77.5657C118.208 77.5443 118.094 77.5443 117.983 77.5657L117.601 77.3377L118.821 76.5454Z" fill="white"/>
<path d="M116.877 74.5388L117.264 74.7668L112.949 76.4027L112.567 76.169L116.877 74.5388Z" fill="white"/>
<path d="M117.543 75.7815H117.583C117.823 75.924 117.954 76.0665 117.977 76.2204C117.999 76.3743 117.914 76.5054 117.726 76.6308C117.533 76.747 117.317 76.819 117.093 76.8417C116.808 76.8804 116.52 76.8938 116.232 76.8816C115.944 76.869 115.657 76.8404 115.372 76.7961L116.512 77.4801L116.232 77.6625L114.522 76.6593L114.779 76.494C115.293 76.5645 115.811 76.6007 116.329 76.6023C116.65 76.622 116.971 76.5572 117.258 76.4142C117.372 76.342 117.428 76.2679 117.424 76.1919C117.424 76.1121 117.361 76.038 117.23 75.9525C117.104 75.8803 116.959 75.8467 116.814 75.8556C116.652 75.8665 116.495 75.9174 116.358 76.0038L115.976 75.7758C116.223 75.6313 116.505 75.5602 116.791 75.5706C117.055 75.5784 117.314 75.6508 117.543 75.7815Z" fill="white"/>
<path d="M114.29 73.8378H114.329C114.569 73.9803 114.7 74.1228 114.723 74.2767C114.746 74.4306 114.66 74.5617 114.466 74.6928C114.275 74.8066 114.061 74.8766 113.839 74.898C113.554 74.9389 113.266 74.9522 112.979 74.9379C112.69 74.9253 112.403 74.8968 112.118 74.8524L113.258 75.5364L112.979 75.7188L111.269 74.7156L111.525 74.5503C112.039 74.6221 112.557 74.6583 113.075 74.6586C113.396 74.6784 113.717 74.6135 114.005 74.4705C114.049 74.45 114.088 74.4191 114.117 74.3804C114.147 74.3417 114.167 74.2963 114.176 74.2482C114.176 74.1684 114.107 74.0886 113.976 74.0088H113.942C113.821 73.94 113.682 73.9083 113.543 73.9176C113.381 73.9301 113.225 73.9809 113.087 74.0658L112.699 73.8378C112.945 73.6914 113.228 73.6182 113.514 73.6269C113.786 73.631 114.053 73.7035 114.29 73.8378Z" fill="white"/>
<path d="M112.26 72.6807L113.041 73.1424L110.915 74.5275L110.499 74.2824L112.306 73.1082L111.941 72.8916L112.26 72.6807Z" fill="white"/>
<path d="M145.959 70.8853L144.87 72.5953L144.408 72.3217L144.642 71.9797L143.764 71.4553L143.194 71.6149L142.738 71.3413L145.434 70.5889L145.959 70.8853ZM144.169 71.3356L144.813 71.7175L145.298 70.9993L144.158 71.3356" fill="white"/>
<path d="M143.319 70.6401C143.312 70.6966 143.291 70.7504 143.258 70.7971C143.226 70.8437 143.182 70.8818 143.131 70.908C142.962 71.0154 142.761 71.0636 142.561 71.0448C142.342 71.0256 142.13 70.9574 141.94 70.8453L141.889 70.8168L140.948 70.2468L142.863 69.0042L143.781 69.5742C143.953 69.6518 144.091 69.7897 144.169 69.9618C144.199 70.091 144.138 70.2031 143.986 70.2981C143.868 70.3767 143.73 70.4202 143.587 70.4235C143.442 70.4308 143.296 70.4075 143.16 70.3551C143.206 70.3872 143.245 70.4296 143.273 70.479C143.3 70.5284 143.316 70.5835 143.319 70.6401ZM142.43 70.68C142.53 70.6896 142.631 70.6655 142.715 70.6116C142.801 70.5546 142.835 70.4919 142.818 70.4292C142.801 70.3665 142.732 70.2924 142.618 70.224L142.208 69.9788L141.684 70.3209L142.1 70.5717C142.195 70.6286 142.302 70.6637 142.413 70.6743M142.983 69.4716L142.487 69.7965L142.881 70.0302C142.967 70.0816 143.065 70.1127 143.166 70.1213C143.262 70.1293 143.358 70.1052 143.439 70.053C143.519 69.996 143.553 69.9447 143.542 69.882C143.53 69.8193 143.462 69.7566 143.348 69.6882L142.96 69.4545" fill="white"/>
<path d="M149.27 72.8289L149.703 73.0911L148.842 73.6497L150.518 73.5756L151.048 73.8891L149.178 73.9461L149.127 75.1317L148.603 74.8182L148.665 73.7637L147.793 74.3337L147.354 74.0715L149.27 72.8289Z" fill="white"/>
<path d="M147.019 71.4895L147.452 71.746L147.121 73.1824L148.432 72.3331L148.871 72.5953L146.956 73.8379L146.523 73.5757L146.842 72.145L145.537 72.9943L145.104 72.7321L147.019 71.4895Z" fill="white"/>
<path d="M95.8775 46.398L98.4425 47.9256L97.9922 48.2163L93.284 46.8939L93.0674 46.74L93.683 46.341C94.0129 46.1654 94.3809 46.0735 94.7546 46.0735C95.1283 46.0735 95.4963 46.1654 95.8262 46.341L95.8775 46.398Z" fill="#F8C401"/>
<path d="M96.8068 48.9916L93.2842 46.8997L97.9924 48.2221L96.8068 48.9916Z" fill="#F8C401"/>
<path d="M93.0681 46.7686L93.2847 46.8997L96.8073 48.9916L96.6534 49.0885L92.9199 46.8655L93.0681 46.7686Z" fill="#F15A24"/>
<path d="M98.2258 48.2847L99.6565 48.6894L98.0491 49.7325L96.9775 49.0941L98.2258 48.2847Z" fill="#F8C401"/>
<path d="M99.6858 48.6724L99.8568 48.7693L98.0727 49.9321L96.8301 49.1911L96.9783 49.0942L98.0499 49.7326L99.6573 48.6895L99.6858 48.6724Z" fill="#F15A24"/>
<path d="M91.1985 47.9825L92.9085 46.8425L96.642 49.0655L94.7952 50.2682L91.0674 48.0509L91.1985 47.9825Z" fill="#F8C401"/>
<path d="M98.5287 47.9768L98.6142 48.0338L98.2266 48.2846L96.9783 49.094L96.8301 49.1909L94.9833 50.3936L94.8066 50.291L96.6534 49.0883L96.8073 48.9914L97.9929 48.2219L98.4432 47.9255L98.5287 47.9768Z" fill="#F15A24"/>
<path d="M94.658 50.3879L93.9113 50.8724L93.9854 50.918L91.3406 49.3448C90.7991 49.0256 90.668 48.5525 90.9644 48.2048L94.658 50.3879Z" fill="#F8C401"/>
<path d="M93.9968 50.9239L93.9854 50.9182L93.9968 50.9239Z" fill="#F8C401"/>
<path d="M94.8065 50.2912L94.9832 50.3938L96.0491 51.0322L95.9009 51.1291L94.8293 50.4907L94.6583 50.3881L90.9647 48.1879L90.9248 48.1594L91.0673 48.0625L91.0787 48.0682L94.8065 50.2912Z" fill="#F15A24"/>
<path d="M93.9111 50.8724L94.6578 50.3879L94.8288 50.4905L94.0821 50.975L93.9966 50.9237L93.9111 50.8724Z" fill="#F15A24"/>
<path d="M94.082 50.9752L94.8287 50.4907L95.9003 51.1291L95.1536 51.6136L94.082 50.9752Z" fill="#F8C401"/>
<path d="M97.3658 50.3879L98.2322 50.9009L96.1859 52.229L96.26 52.2746L95.3252 51.716L97.3658 50.3879Z" fill="#F8C401"/>
<path d="M97.3488 50.1885L98.5515 50.9067L97.2576 51.7446L97.1037 51.8472L96.357 52.3317L96.2601 52.2747L96.186 52.2291L98.2323 50.901L97.3659 50.388L95.3253 51.7161L95.1543 51.6135L95.901 51.129L96.0492 51.0321L97.3488 50.1885Z" fill="#F15A24"/>
<path d="M101.185 49.5614C101.829 49.9433 101.897 50.5532 101.333 50.918L98.8423 52.5368L98.7112 52.6109L97.2577 51.7445L98.5402 50.9066L97.3489 50.1599L96.055 51.0035L94.9834 50.3651L96.8302 49.1909L98.0728 49.9319L99.8569 48.7919L99.6859 48.6893H99.6574L98.221 48.2846L98.6143 48.0281L98.5288 47.9768L101.185 49.5614Z" fill="#F8C401"/>
<path d="M98.7052 52.611L98.7166 52.6167L98.5627 52.7136L98.5228 52.6908L97.1035 51.8472L97.2574 51.7446L98.7052 52.611Z" fill="#F15A24"/>
<path d="M96.3564 52.3317L97.1031 51.8472L98.5395 52.6908C98.2409 52.7856 97.9265 52.8203 97.6144 52.7929C97.3023 52.7655 96.9988 52.6766 96.7212 52.5312L96.6699 52.5027L96.3564 52.3317Z" fill="#F8C401"/>
<path d="M118.997 86.68C121.289 86.68 123.147 85.529 123.147 84.1093C123.147 82.6895 121.289 81.5386 118.997 81.5386C116.705 81.5386 114.848 82.6895 114.848 84.1093C114.848 85.529 116.705 86.68 118.997 86.68Z" fill="#F15A24"/>
<path d="M122.771 88.732C125.062 88.732 126.92 87.581 126.92 86.1613C126.92 84.7415 125.062 83.5906 122.771 83.5906C120.479 83.5906 118.621 84.7415 118.621 86.1613C118.621 87.581 120.479 88.732 122.771 88.732Z" fill="#FBB03B"/>
<path d="M139.916 72.4813C139.916 72.4813 137.636 70.0873 137.214 68.8903C136.792 67.6933 137.471 63.7147 136.94 63.3898C136.41 63.0649 135.686 64.6267 135.8 65.0998C135.8 65.1511 135.8 65.134 135.772 65.0998C135.714 65.0348 135.666 64.9618 135.629 64.8832C135.447 64.5868 135.276 64.3132 135.099 63.994C134.871 63.6064 134.638 63.2188 134.398 62.854C134.187 62.5106 133.957 62.1795 133.709 61.8622C133.612 61.7425 133.395 61.4005 133.213 61.4518C133.189 61.4593 133.168 61.4746 133.153 61.4952C133.139 61.5158 133.132 61.5406 133.133 61.5658C133.137 61.838 133.193 62.1068 133.298 62.3581C133.384 62.6146 133.475 62.8711 133.56 63.1276C133.646 63.3841 133.709 63.5437 133.766 63.7603C133.766 63.8059 133.84 63.994 133.766 63.9883C133.691 63.9826 133.72 63.9883 133.709 63.9541C133.458 63.7236 133.225 63.474 133.013 63.2074C132.683 62.8312 132.352 62.455 132.004 62.0959C131.837 61.9153 131.66 61.7441 131.474 61.5829C131.334 61.4387 131.162 61.3293 130.973 61.2637C130.403 61.1725 131.201 62.3239 131.269 62.4037C131.508 62.8084 131.765 63.2017 131.999 63.6121C132.038 63.6805 132.369 64.1821 132.238 64.2562C132.216 64.2645 132.192 64.2645 132.17 64.2562C131.999 64.184 131.842 64.0817 131.708 63.9541C131.508 63.7888 131.32 63.6121 131.138 63.4411C130.955 63.2701 130.756 63.0877 130.568 62.9224C130.422 62.7881 130.254 62.6801 130.072 62.6032C129.992 62.6032 129.838 62.5633 129.793 62.6602C129.747 62.7571 129.793 62.8312 129.827 62.8996C129.9 63.0725 129.991 63.2369 130.1 63.3898C130.38 63.8173 130.67 64.2163 131.001 64.6324C131.138 64.8148 131.269 65.0029 131.394 65.2024C131.484 65.3203 131.552 65.4536 131.594 65.5957C131.596 65.6127 131.596 65.6299 131.594 65.647C131.594 66.1144 130.545 64.8433 130.004 65.077C129.462 65.3107 131.144 66.901 132.021 67.5679C132.927 68.2153 133.786 68.9258 134.592 69.694C134.877 70.0702 136.946 73.7752 138.098 74.7613" fill="#F04900"/>
<path d="M162.038 116.571C162.278 117.141 163.344 124.995 163.269 126.534C163.195 128.073 160.875 128.244 160.157 128.165C159.439 128.085 158.043 127.452 157.153 127.424C156.264 127.395 151.351 126.466 151.493 125.144C151.636 123.821 152.485 122.59 153.591 122.522C154.697 122.453 157.695 122.647 157.695 122.647L157.393 115.522" fill="#FF6753"/>
<path d="M162.99 124.397C160.63 125.195 158.068 125.163 155.728 124.306C155.292 124.159 154.891 123.923 154.55 123.613C154.21 123.303 153.937 122.925 153.751 122.504H153.637C152.531 122.561 151.67 123.81 151.522 125.109C151.374 126.409 156.281 127.389 157.165 127.389C158.048 127.389 159.445 128.085 160.163 128.153C160.881 128.221 163.207 128.085 163.287 126.546C163.286 125.797 163.244 125.049 163.161 124.306L162.99 124.397Z" fill="#312A87"/>
<path d="M148.038 59.3257C148.038 59.3257 145.872 61.2466 146.243 63.4297C146.243 63.4297 148.973 68.8504 151.943 69.7453C154.913 70.6402 156.577 64.8319 155.768 63.9769C154.958 63.1219 148.038 59.3257 148.038 59.3257Z" fill="#6949C1"/>
<path d="M161.024 79.4636C162.449 82.1282 163.23 85.0897 163.304 88.1105C163.378 91.8326 163.589 121.649 163.589 121.649C163.589 121.649 160.448 123.508 154.469 121.775C153.602 121.524 152.508 96.0905 152.508 96.0905L154.548 82.9805" fill="#4739AA"/>
<path d="M149.891 125.594C150.102 126.164 150.763 134.075 150.615 135.609C150.467 137.142 148.135 137.17 147.423 137.079C146.71 136.988 145.348 136.264 144.465 136.19C143.581 136.116 138.719 134.936 138.924 133.648C139.129 132.36 140.064 131.146 141.153 131.14C142.242 131.134 145.24 131.476 145.24 131.476L145.303 124.345" fill="#FF6753"/>
<path d="M152.582 116.611C152.619 116.473 152.664 116.338 152.718 116.206C153.277 112.348 154.337 108.579 155.871 104.994C156.241 102.942 156.492 101.574 156.515 101.489C158.276 94.4319 156.959 92.5168 157.387 81.8521L149.737 82.2453C149.737 82.2453 145.531 96.1818 143.98 108.75C143.61 111.766 143.137 128.182 143.137 128.182C144.369 128.953 145.752 129.453 147.192 129.65C148.633 129.846 150.099 129.735 151.493 129.322L151.647 128.455C150.684 124.511 151.55 120.447 152.582 116.611Z" fill="#4739AA"/>
<path d="M149.27 74.499C149.07 71.5464 147.999 69.996 148.7 67.1346C150.826 64.8261 154.827 62.0046 155.255 61.9419L157.535 62.4663C158.487 62.6836 159.34 63.2115 159.959 63.9669C160.578 64.7223 160.929 65.6623 160.955 66.6387C161.075 71.1987 161.251 78.8538 161.063 79.4637C160.875 80.0736 156.395 83.9154 149.783 82.2396C149.555 79.6632 149.464 77.0754 149.27 74.499Z" fill="#A07DEF"/>
<path d="M150.131 57.0684C150.131 57.0684 149.196 63.9084 151.738 64.4784C154.28 65.0484 157.045 62.0502 157.176 60.6423C157.307 59.2344 153.494 54.5946 150.131 57.0684Z" fill="#F04900"/>
<path d="M150.917 53.5288C150.649 53.6314 148.323 55.0278 148.472 55.9797C148.62 56.9316 149.042 59.0235 149.691 58.6872C150.341 58.3509 150.364 57.0855 150.917 58.0317C151.47 58.9779 151.932 59.6904 152.49 59.4567C152.663 59.3893 152.848 59.3585 153.034 59.3664C153.219 59.3742 153.401 59.4205 153.567 59.5023C153.567 59.5023 153.567 64.4499 154.137 64.125C154.707 63.8001 157.124 62.7741 157.996 61.2751C158.566 60.3288 158.686 58.5676 158.532 57.1483C158.5 56.4758 158.317 55.8191 157.996 55.2273C157.318 54.2412 152.809 52.8163 150.917 53.5288Z" fill="#FBB03B"/>
<path d="M158.025 55.2273C158.025 55.2273 160.772 58.7727 160.533 63.1503C160.294 67.5279 152.49 68.1663 152.49 68.1663L153.568 59.5023" fill="#FBB03B"/>
<path d="M135.504 71.649C135.685 71.0537 135.998 70.5068 136.42 70.0489C136.841 69.5911 137.36 69.234 137.938 69.0042C140.087 71.0391 142.715 73.245 143.576 72.903C144.841 72.3957 147.366 66.4962 150.986 66.1998C154.605 65.9034 154.48 70.8738 154.48 70.8738C154.48 70.8738 148.21 80.5638 144.79 80.7177C142.054 80.8545 137.072 76.0437 135.1 73.7238C135.159 73.0196 135.295 72.3239 135.504 71.649Z" fill="#A07DEF"/>
<path d="M148.814 133.123C146.534 133.625 144.026 133.99 142.265 132.046C142.028 131.778 141.835 131.474 141.695 131.146H141.159C140.053 131.146 139.135 132.365 138.93 133.654C138.725 134.942 143.587 136.122 144.471 136.196C145.354 136.27 146.722 136.994 147.429 137.085C148.136 137.176 150.473 137.148 150.621 135.614C150.654 134.744 150.639 133.872 150.575 133.004C149.996 133.124 149.404 133.164 148.814 133.123Z" fill="#312A87"/>
<path d="M159.747 88.7718C159.792 88.4412 159.285 88.2987 159.239 88.6293C157.324 102.161 150.267 114.906 151.328 128.837C151.328 129.173 151.898 129.179 151.858 128.837C150.798 114.958 157.82 102.258 159.747 88.7718Z" fill="#A07DEF"/>
<path d="M147.064 60.5626C147.155 60.4258 146.317 59.7247 146.232 59.6449C145.98 59.3913 145.703 59.164 145.405 58.9665C145.076 58.8075 144.724 58.7016 144.362 58.6531C143.461 58.4099 142.543 58.2403 141.615 58.1458C141.278 58.1458 140.931 58.1458 140.589 58.1458C140.463 58.1458 140.019 58.2199 139.916 58.1458L146.374 61.9363L147.064 60.5626Z" fill="#F04900"/>
<path d="M146.329 62.0502L146.375 61.8906L144.288 59.9526C144.288 59.9526 141.324 59.3484 141.324 59.6448C141.324 59.9412 141.153 60.0894 142.225 60.4713C143.1 60.7441 143.956 61.0715 144.79 61.4517C145.241 61.7776 145.739 62.0332 146.266 62.2098C146.283 62.13 146.301 62.1015 146.329 62.0502Z" fill="#F04900"/>
<path d="M73.6256 49.4019L75.7403 50.1315C75.7403 50.1315 77.5586 50.7015 77.6726 51.2145C77.7866 51.7275 75.6263 51.2658 75.1703 51.2145C74.7143 51.1632 77.1824 53.5458 77.171 53.9448C77.1596 54.3438 76.7606 54.4008 76.4756 54.2868C76.1906 54.1728 76.8746 54.9708 76.3046 55.1418C76.1217 55.1774 75.9325 55.1586 75.7602 55.0876C75.588 55.0167 75.4403 54.8968 75.3356 54.7428C75.3356 54.7428 75.2786 55.5408 74.7086 55.4268C74.1386 55.3128 71.5793 52.4115 71.3513 51.3912C71.1233 50.3709 72.5597 49.02 73.6256 49.4019Z" fill="#F67770"/>
<path d="M71.3109 51.6364C71.3109 51.6364 72.2799 54.7201 72.8556 54.6745C73.4313 54.6289 73.5795 53.3293 73.5795 53.3293C73.5795 53.3293 72.0063 50.998 71.613 50.8156C71.2197 50.6332 71.3109 51.6364 71.3109 51.6364Z" fill="#F67770"/>
<path d="M68.4555 26.9326C68.4555 26.9326 61.9233 36.3832 61.9005 39.1705C61.8663 43.1605 70.4505 52.0069 70.4505 52.0069L73.6482 49.4077C73.6482 49.4077 67.5834 41.1256 68.3814 40.3162C69.1794 39.5068 72.9414 32.1367 72.9414 32.1367" fill="#F04900"/>
<defs>
<linearGradient id="paint0_linear_6788_6945" x1="167.556" y1="120.965" x2="190.367" y2="101.876" gradientUnits="userSpaceOnUse">
<stop stop-opacity="0"/>
<stop offset="0.99" stop-color="#006837"/>
</linearGradient>
</defs>
</svg>
