<svg width="112" height="20" viewBox="0 0 112 20" fill="none" xmlns="http://www.w3.org/2000/svg">
<g clip-path="url(#clip0_4926_23524)">
<mask id="mask0_4926_23524" style="mask-type:luminance" maskUnits="userSpaceOnUse" x="0" y="0" width="112" height="20">
<path d="M111.509 0H0.5V20H111.509V0Z" fill="white"/>
</mask>
<g mask="url(#mask0_4926_23524)">
<path d="M109.916 1.27832C110.791 1.27832 111.508 1.94499 111.508 2.81558C111.508 3.68616 110.791 4.35283 109.916 4.35283C109.041 4.35283 108.324 3.68616 108.324 2.81558C108.372 1.94499 109.041 1.27832 109.916 1.27832ZM109.916 1.48224C109.199 1.48224 108.632 2.04695 108.632 2.76067C108.632 3.4744 109.199 4.09401 109.916 4.09401C110.633 4.09401 111.2 3.5293 111.2 2.81558C111.2 2.09401 110.633 1.48224 109.916 1.48224ZM109.656 3.68616H109.349V1.99205C109.506 1.99205 109.656 1.93714 109.861 1.93714C110.121 1.93714 110.326 1.99205 110.428 2.09401C110.531 2.14891 110.586 2.29793 110.586 2.45479C110.586 2.65871 110.428 2.81558 110.223 2.86263C110.381 2.91754 110.483 3.0195 110.531 3.27048C110.586 3.5293 110.633 3.63126 110.633 3.67832H110.326C110.271 3.62342 110.223 3.4744 110.223 3.21558C110.168 3.01165 110.066 2.90969 109.861 2.90969H109.656V3.68616ZM109.656 2.76067H109.861C110.121 2.76067 110.271 2.65871 110.271 2.45479C110.271 2.29793 110.168 2.14891 109.861 2.14891C109.758 2.14891 109.703 2.14891 109.656 2.14891V2.76067Z" fill="#9E1B32"/>
<path d="M0.5 15.1373L4.0461 0H18.0729L17.4031 3.06667H9.69622L9.12884 5.62353H15.8113L15.1415 8.58824H8.41174L7.69464 11.9216H15.6064L14.8893 15.1451H0.5V15.1373Z" fill="#9E1B32"/>
<path d="M17.5133 6.24302C18.9553 0.925372 22.7536 0.972431 27.332 1.07439C30.4684 1.12929 35.2989 1.17635 34.4242 5.88224C34.4242 5.88224 34.2193 7.21557 33.912 8.64302H29.0263L38.8923 19.9999H32.3123L28.0491 15.0901C28.0491 15.0901 26.4022 15.6548 23.8332 15.5528C21.2643 15.4509 16.481 15.5528 16.6386 11.2077C16.741 9.0038 17.5133 6.24302 17.5133 6.24302ZM23.5259 5.52145C22.5487 8.18027 22.1862 10.6352 22.1862 10.6352C21.8238 12.4234 23.2107 13.0901 24.4951 13.0901C25.5747 13.0901 27.0641 12.4783 27.529 11.2469C28.5062 8.69008 28.8687 6.07831 28.8687 6.07831C29.3336 3.21557 26.5598 3.62341 26.5598 3.62341C24.3454 3.47439 23.5259 5.52145 23.5259 5.52145Z" fill="#9E1B32"/>
<path d="M36.9846 1.68628H42.6899C42.6899 1.68628 40.838 9.41177 40.4834 11.3569C40.4834 11.3569 40.5386 12.9412 42.2801 12.9412C42.2801 12.9412 44.5417 13.302 45.0067 11.4588L47.3156 1.68628H53.1233C53.1233 1.68628 50.9168 11.3569 50.5543 12.5804C50.1918 13.7569 48.2454 15.3961 43.9271 15.6C43.1548 15.6549 41.8703 15.6 40.381 15.3961L35.1406 9.45883C35.1406 9.46667 36.5275 3.27059 36.9846 1.68628Z" fill="#9E1B32"/>
<path d="M55.2839 1.68628H61.0916L57.9553 15.0902H52.25L55.2839 1.68628Z" fill="#9E1B32"/>
<path d="M66.024 15.0902H60.2715L63.3054 1.68628H75.8428L75.173 4.29804H68.5457L67.9311 6.80785H73.5812L73.0138 9.36471H67.411L66.024 15.0902Z" fill="#9E1B32"/>
<path d="M73.888 15.0902H69.877L79.6957 1.68628H86.6855L88.0724 12.5804L92.7454 8.43922L88.1275 1.68628H95.5822L97.7887 5.11373L101.39 1.68628H107.04L99.6878 7.92942L104.518 15.0902H97.371L94.9518 11.098L90.9408 15.0902H82.3041L82.044 12.1726H75.929L73.888 15.0902ZM77.9463 9.25491H81.5948L81.1299 4.85491L77.9463 9.25491Z" fill="#9E1B32"/>
</g>
</g>
<defs>
<clipPath id="clip0_4926_23524">
<rect width="111.111" height="20" fill="white" transform="translate(0.5)"/>
</clipPath>
</defs>
</svg>
