<svg width="228" height="172" viewBox="0 0 228 172" fill="none" xmlns="http://www.w3.org/2000/svg">
<path d="M14.0504 108.509L105.78 162.152C107.455 163.131 109.364 163.637 111.303 163.616C113.243 163.595 115.14 163.048 116.793 162.032L217.797 100.028C218.32 99.7057 218.749 99.2509 219.039 98.7094C219.329 98.168 219.471 97.5593 219.449 96.9454C219.428 96.3314 219.244 95.7341 218.917 95.2143C218.589 94.6944 218.13 94.2705 217.586 93.9857L121.535 43.9568C121.023 43.6903 120.453 43.5554 119.876 43.5644C119.299 43.5733 118.733 43.7259 118.229 44.0082L14.1017 102.479C13.5685 102.779 13.124 103.214 12.813 103.741C12.5019 104.268 12.3354 104.867 12.3302 105.479C12.325 106.091 12.4813 106.693 12.7833 107.225C13.0853 107.757 13.5224 108.2 14.0504 108.509Z" fill="#FFDAAE"/>
<path d="M67.1002 94.6924L28.6309 117.036C28.6309 117.036 87.8596 151.573 98.7409 158.031L131.932 138.565" fill="url(#paint0_linear_6788_6874)"/>
<path d="M134.549 41.1867C134.549 41.1867 131.944 23.7732 137.621 21.8637C143.298 19.9542 151.364 24.4401 153.085 29.7639C154.806 35.0877 157.702 55.317 155.217 57.1581C152.732 58.9992 135.267 56.0922 134.041 51.2415" fill="#F23DB4"/>
<path d="M102.646 131.258L53.2666 102.747L107.103 29L156.482 57.5114L102.646 131.258Z" fill="#FFB9AD"/>
<path d="M53.2894 60.8858L53.2666 71.9267V102.747L107.103 71.3054V29L53.2894 60.8858Z" fill="#FF8C79"/>
<path d="M77.1325 46.7554L70.9936 43.21C70.7599 43.0732 53.2666 53.9773 53.2666 53.9773V62.248" fill="#FF8C79"/>
<path d="M144.022 26.3836C144.66 26.1328 145.31 25.9162 145.92 25.7224C147.533 25.2037 149.192 24.8446 150.828 24.4285C150.525 17.1895 146.108 9.03851 138.407 9.72821C137.288 9.78246 136.214 10.1806 135.329 10.8682C133.956 12.0082 133.437 13.8892 133.619 16.0837C133.698 17.0976 134.014 18.0788 134.543 18.9474C135.072 19.816 135.798 20.5476 136.663 21.0826C141.143 23.944 143.07 24.7933 144.022 26.3836Z" fill="#581B7A"/>
<path d="M134.822 14.7956C134.822 14.7956 135.141 25.0556 138.704 25.6256C142.266 26.1956 144.78 20.8205 144.78 20.8205C144.78 20.8205 146.712 16.118 144.78 14.7956C142.848 13.4732 137.627 11.3015 134.822 14.7956Z" fill="#FFB9AD"/>
<path d="M143.07 27.9454C142.614 30.5161 142.432 33.7537 144.78 35.458C146.314 35.2128 147.812 34.7762 149.237 34.1584C150.8 33.3601 152.236 32.3364 153.501 31.1203C153.532 30.6611 153.532 30.2002 153.501 29.7409C153.33 26.8909 149.762 2.83695 138.886 12.1963L140.648 15.8443C141.497 17.6113 142.494 19.4353 142.99 21.379C143.472 23.5387 143.499 25.7748 143.07 27.9454Z" fill="#581B7A"/>
<path d="M134.822 11.5295C134.788 11.4269 136.373 8.50851 142.192 8.79351C148.833 9.12411 149.563 16.8932 149.563 16.8932" fill="#581B7A"/>
<path d="M134.44 13.6099C134.332 13.8322 134.047 17.0299 134.822 17.9533C134.822 17.9533 138.983 20.0737 141.332 20.1649C141.332 20.1649 141.332 17.4574 141.645 17.1838C141.959 16.9102 141.474 12.1564 138.402 11.5237" fill="#581B7A"/>
<path d="M57.2165 114.42C53.2892 112.14 49.3904 109.746 45.4232 107.506C43.8125 106.491 41.98 105.881 40.0823 105.728C37.6655 105.654 34.5476 107.386 36.0296 110.134C36.7649 111.496 38.2583 112.414 39.5294 113.183C42.1058 114.796 44.7335 116.341 47.3213 117.937C50.4278 119.847 54.4292 123.135 58.3508 122.651C60.6308 122.372 62.1755 120.576 60.4199 118.661C59.5079 117.669 58.0886 117.048 56.9258 116.381L43.1774 108.572C43.0141 108.477 42.8197 108.45 42.6369 108.498C42.4541 108.546 42.2979 108.665 42.2027 108.828C42.1075 108.992 42.081 109.186 42.1291 109.369C42.1772 109.552 42.2959 109.708 42.4592 109.803L54.0074 116.364C55.2443 117.065 56.5154 117.738 57.7295 118.479C58.1114 118.712 58.8296 118.986 59.069 119.356C60.4028 121.42 57.302 121.317 56.1791 121.066C54.0131 120.536 52.0466 119.214 50.177 118.051C47.9369 116.66 45.6854 115.298 43.4339 113.93C42.0488 113.086 34.73 109.809 38.6231 107.318C40.3901 106.178 43.5194 108.076 45.1382 109.028C48.9382 111.236 52.723 113.455 56.4926 115.686C56.6559 115.781 56.8503 115.807 57.0331 115.759C57.2159 115.711 57.3721 115.592 57.4673 115.429C57.5625 115.266 57.589 115.071 57.5409 114.889C57.4928 114.706 57.3741 114.55 57.2108 114.454L57.2165 114.42Z" fill="#2E3192"/>
<path d="M148.553 52.94C148.553 52.94 151.58 50.1242 152.988 47.2058L152.418 55.1858L148.553 52.94Z" fill="#581B7A"/>
<path d="M117.01 38.9636L115.14 37.6184C114.826 37.3737 114.445 37.2298 114.047 37.2054C113.649 37.181 113.254 37.2772 112.912 37.4815L63.5438 66.7283C63.1018 66.9894 62.7353 67.3612 62.4805 67.8069C62.2256 68.2526 62.0912 68.757 62.0903 69.2705V78.6299V107.289C62.0901 107.469 62.1299 107.647 62.2068 107.81C62.2837 107.972 62.3958 108.116 62.5349 108.23L62.7002 108.344L64.6211 109.678L65.4818 108.013L64.8206 107.82L115.887 78.02V39.1915L117.01 38.9636Z" fill="#68E1FD"/>
<path opacity="0.5" d="M117.01 38.9636L115.14 37.6184C114.826 37.3737 114.445 37.2298 114.047 37.2054C113.649 37.181 113.254 37.2772 112.912 37.4815L63.5438 66.7283C63.1018 66.9894 62.7353 67.3612 62.4805 67.8069C62.2256 68.2526 62.0912 68.757 62.0903 69.2705V78.6299V107.289C62.0901 107.469 62.1299 107.647 62.2068 107.81C62.2837 107.972 62.3958 108.116 62.5349 108.23L62.7002 108.344L64.6211 109.678L65.4818 108.013L64.8206 107.82L115.887 78.02V39.1915L117.01 38.9636Z" fill="black"/>
<path d="M76.5567 71.4364C80.4099 69.5497 85.5342 70.5301 88.0023 74.1667C89.0568 75.7228 89.6496 77.7178 91.257 78.6925C91.9188 79.0439 92.6548 79.2328 93.404 79.2437C94.1533 79.2547 94.8944 79.0872 95.5662 78.7552C99.7044 76.897 101.112 72.223 102.68 68.3755C104.441 64.0492 106.812 58.7596 111.064 56.4055C113.222 55.4033 115.44 54.5352 117.705 53.8063V40.474C117.705 40.123 117.612 39.7782 117.435 39.4748C117.259 39.1713 117.005 38.92 116.7 38.7463C116.395 38.5727 116.049 38.4828 115.698 38.4859C115.347 38.489 115.003 38.585 114.701 38.764L65.3334 68.0107C64.8913 68.2719 64.5249 68.6436 64.27 69.0894C64.0152 69.5351 63.8807 70.0395 63.8799 70.5529V79.9123V94.9489C64.9089 90.2148 66.4652 85.6108 68.5197 81.2233C70.2468 77.4499 72.6864 73.3288 76.5567 71.4364Z" fill="#7162D9"/>
<path d="M117.711 79.2911V53.7893C115.446 54.5182 113.228 55.3862 111.07 56.3885C106.812 58.754 104.441 64.0436 102.685 68.3585C101.118 72.2117 99.7099 76.88 95.5717 78.7382C94.8999 79.0702 94.1588 79.2376 93.4096 79.2267C92.6603 79.2158 91.9244 79.0269 91.2625 78.6755C89.6551 77.7065 89.0623 75.7058 88.0078 74.1497C85.5454 70.5131 80.4154 69.5327 76.5622 71.4194C72.709 73.3061 70.2466 77.45 68.5138 81.2234C66.4593 85.6109 64.903 90.2148 63.874 94.949V108.572C63.8748 108.79 63.9328 109.003 64.0422 109.192C64.1516 109.38 64.3085 109.536 64.4973 109.645C64.686 109.753 64.9 109.81 65.1178 109.81C65.3355 109.81 65.5494 109.752 65.7379 109.644L117.711 79.2911Z" fill="#68E1FD"/>
<path d="M97.4769 66.1179C98.1769 63.4115 97.4373 60.8795 95.825 60.4625C94.2127 60.0456 92.3383 61.9015 91.6384 64.6079C90.9385 67.3143 91.6781 69.8463 93.2903 70.2633C94.9026 70.6802 96.777 68.8243 97.4769 66.1179Z" fill="#E0FF4B"/>
<path d="M122.481 47.4738L73.1137 76.7205C72.6716 76.9817 72.3051 77.3534 72.0503 77.7991C71.7954 78.2449 71.661 78.7493 71.6602 79.2627V88.6221V117.282C71.6599 117.462 71.6997 117.639 71.7766 117.802C71.8535 117.965 71.9656 118.108 72.1048 118.222L72.2701 118.336L74.191 119.67L75.0517 118.006L74.3905 117.812L125.48 87.9723V49.1838C125.479 48.8336 125.386 48.4898 125.209 48.1872C125.033 47.8845 124.78 47.6338 124.476 47.4603C124.172 47.2868 123.827 47.1966 123.477 47.199C123.127 47.2014 122.783 47.2962 122.481 47.4738Z" fill="#68E1FD"/>
<path d="M124.71 47.6106L126.608 48.9558L124.306 49.4118" fill="#006DA8"/>
<path opacity="0.5" d="M122.481 47.4738L73.1137 76.7205C72.6716 76.9817 72.3051 77.3534 72.0503 77.7991C71.7954 78.2449 71.661 78.7493 71.6602 79.2627V88.6221V117.282C71.6599 117.462 71.6997 117.639 71.7766 117.802C71.8535 117.965 71.9656 118.108 72.1048 118.222L72.2701 118.336L74.191 119.67L75.0517 118.006L74.3905 117.812L125.48 87.9723V49.1838C125.479 48.8336 125.386 48.4898 125.209 48.1872C125.033 47.8845 124.78 47.6338 124.476 47.4603C124.172 47.2868 123.827 47.1966 123.477 47.199C123.127 47.2014 122.783 47.2962 122.481 47.4738Z" fill="black"/>
<path d="M86.1555 81.4399C90.0087 79.5532 95.133 80.5336 97.6011 84.1702C98.6556 85.7263 99.2484 87.7213 100.856 88.696C101.518 89.0474 102.254 89.2364 103.003 89.2473C103.752 89.2582 104.493 89.0907 105.165 88.7587C109.303 86.9005 110.711 82.2265 112.279 78.379C114.04 74.0527 116.411 68.7631 120.663 66.409C122.82 65.3932 125.038 64.5118 127.304 63.7699V50.4718C127.304 50.1208 127.21 49.776 127.034 49.4726C126.857 49.1691 126.604 48.9178 126.299 48.7441C125.994 48.5705 125.648 48.4806 125.297 48.4837C124.946 48.4868 124.602 48.5828 124.3 48.7618L74.9379 78.0199C74.4958 78.2811 74.1293 78.6528 73.8745 79.0986C73.6197 79.5443 73.4852 80.0487 73.4844 80.5621V89.9215V104.958C74.5016 100.221 76.0464 95.6137 78.09 91.2211C79.8456 87.4477 82.2852 83.3266 86.1555 81.4399Z" fill="#7162D9"/>
<path d="M127.304 89.2832V63.77C125.039 64.4989 122.821 65.3669 120.663 66.3692C116.405 68.7347 114.034 74.0243 112.279 78.3392C110.711 82.1924 109.303 86.8607 105.165 88.7189C104.493 89.0509 103.752 89.2183 103.003 89.2074C102.254 89.1965 101.518 89.0076 100.856 88.6562C99.2484 87.6872 98.6556 85.6865 97.6011 84.1304C95.1387 80.4938 90.0087 79.5134 86.1555 81.4001C82.3023 83.2868 79.8456 87.4478 78.09 91.2212C76.0355 95.6087 74.4792 100.213 73.4502 104.947V118.57C73.451 118.788 73.509 119.001 73.6184 119.19C73.7277 119.378 73.8847 119.534 74.0735 119.643C74.2622 119.751 74.4762 119.808 74.6939 119.808C74.9117 119.808 75.1255 119.75 75.3141 119.641L127.304 89.2832Z" fill="#68E1FD"/>
<path d="M107.073 76.1144C107.773 73.408 107.033 70.8761 105.421 70.4591C103.809 70.0421 101.935 71.8981 101.235 74.6045C100.535 77.3109 101.274 79.8429 102.887 80.2599C104.499 80.6768 106.373 78.8208 107.073 76.1144Z" fill="#E0FF4B"/>
<path d="M138.897 51.8913L89.5297 81.138C89.0876 81.3992 88.7211 81.7709 88.4663 82.2166C88.2115 82.6624 88.077 83.1667 88.0762 83.6802V93.0396V121.699C88.076 121.879 88.1157 122.057 88.1926 122.219C88.2695 122.382 88.3816 122.526 88.5208 122.64L88.6861 122.754L90.607 124.087L91.4677 122.423L90.8065 122.229L141.896 92.3898V53.6013C141.895 53.2511 141.802 52.9073 141.625 52.6046C141.449 52.302 141.196 52.0513 140.892 51.8778C140.588 51.7042 140.243 51.6141 139.893 51.6165C139.543 51.6189 139.199 51.7137 138.897 51.8913Z" fill="#68E1FD"/>
<path d="M141.121 52.0222L143.019 53.3731L140.722 53.8234" fill="#006DA8"/>
<path opacity="0.5" d="M138.897 51.8913L89.5297 81.138C89.0876 81.3992 88.7211 81.7709 88.4663 82.2166C88.2115 82.6624 88.077 83.1667 88.0762 83.6802V93.0396V121.699C88.076 121.879 88.1157 122.057 88.1926 122.219C88.2695 122.382 88.3816 122.526 88.5208 122.64L88.6861 122.754L90.607 124.087L91.4677 122.423L90.8065 122.229L141.896 92.3898V53.6013C141.895 53.2511 141.802 52.9073 141.625 52.6046C141.449 52.302 141.196 52.0513 140.892 51.8778C140.588 51.7042 140.243 51.6141 139.893 51.6165C139.543 51.6189 139.199 51.7137 138.897 51.8913Z" fill="black"/>
<path d="M102.566 85.8461C106.419 83.9594 111.543 84.9398 114.012 88.5764C115.066 90.1325 115.659 92.1275 117.266 93.1022C117.928 93.4536 118.664 93.6425 119.413 93.6534C120.163 93.6643 120.904 93.4969 121.575 93.1649C125.714 91.3067 127.122 86.6327 128.689 82.7852C130.45 78.4589 132.822 73.1693 137.074 70.8152C139.232 69.8129 141.449 68.9449 143.714 68.216V54.8837C143.714 54.5326 143.621 54.1879 143.444 53.8844C143.268 53.581 143.014 53.3297 142.709 53.156C142.404 52.9823 142.058 52.8925 141.707 52.8956C141.356 52.8987 141.012 52.9946 140.71 53.1737L91.3427 82.4204C90.9006 82.6816 90.5341 83.0533 90.2793 83.499C90.0244 83.9448 89.89 84.4491 89.8892 84.9626V94.322V109.37C90.9182 104.636 92.4745 100.032 94.529 95.6444C96.2561 91.8596 98.6957 87.7385 102.566 85.8461Z" fill="#7162D9"/>
<path d="M143.72 93.6951V68.199C141.455 68.9278 139.237 69.7959 137.079 70.7982C132.821 73.1637 130.45 78.4533 128.695 82.7682C127.127 86.6214 125.719 91.2897 121.581 93.1479C120.909 93.4798 120.168 93.6473 119.419 93.6364C118.67 93.6255 117.934 93.4366 117.272 93.0852C115.664 92.1162 115.072 90.1155 114.017 88.5594C111.555 84.9228 106.425 83.9424 102.571 85.8291C98.7183 87.7158 96.2616 91.8426 94.5288 95.616C92.4703 100.012 90.9121 104.626 89.8833 109.37V122.993C89.8841 123.211 89.9421 123.425 90.0515 123.613C90.1609 123.801 90.3178 123.957 90.5066 124.066C90.6953 124.174 90.9093 124.231 91.127 124.231C91.3448 124.231 91.5586 124.174 91.7472 124.065L143.72 93.6951Z" fill="#68E1FD"/>
<path d="M123.486 80.5236C124.186 77.8172 123.447 75.2852 121.834 74.8683C120.222 74.4513 118.348 76.3073 117.648 79.0137C116.948 81.7201 117.687 84.2521 119.3 84.669C120.912 85.086 122.786 83.23 123.486 80.5236Z" fill="#E0FF4B"/>
<path d="M149.688 126.687L137.746 135.031L125.56 125.279L134.97 117.361L149.688 126.687Z" fill="url(#paint1_linear_6788_6874)"/>
<path d="M103.614 88.85C103.325 89.022 103.085 89.2663 102.918 89.5591C102.751 89.8519 102.663 90.1831 102.663 90.5201V100.455V131.275L156.499 99.8282V57.5L103.614 88.85Z" fill="#FF8C79"/>
<path d="M165.602 96.9441V117.498L149.688 126.687L136.72 118.98V99.8853" fill="#FFAF68"/>
<path d="M149.688 126.687V106.412L136.72 100.666V118.98L149.688 126.687Z" fill="#F49E5D"/>
<path d="M136.72 98.8135V100.666L137.951 101.042L138.772 99.7882" fill="#EA8E50"/>
<path d="M152.498 91.0273L165.608 98.7907L149.215 108.23C148.73 108.509 136.72 100.638 136.72 100.638L152.498 91.0273Z" fill="#EA8E50"/>
<path d="M165.602 98.7964V96.9439L163.248 95.7754L163.533 99.0586" fill="#EA8E50"/>
<path d="M152.498 89.1807L165.608 96.9441L149.215 106.406C148.73 106.685 136.72 98.8137 136.72 98.8137L152.498 89.1807Z" fill="#FFB883"/>
<path d="M163.316 102.741V106.999L151.392 113.799V109.627L163.316 102.741Z" fill="#EA8E50"/>
<path d="M163.476 109.096V113.354L151.552 120.154V115.982L163.476 109.096Z" fill="#EA8E50"/>
<path d="M158.426 108.107C158.466 107.69 158.26 107.329 157.965 107.301C157.67 107.273 157.399 107.588 157.36 108.005C157.32 108.422 157.526 108.782 157.821 108.81C158.116 108.839 158.387 108.523 158.426 108.107Z" fill="#FFB883"/>
<path d="M158.913 114.243C158.952 113.826 158.746 113.465 158.451 113.437C158.157 113.409 157.886 113.724 157.846 114.141C157.806 114.558 158.013 114.918 158.307 114.946C158.602 114.975 158.873 114.659 158.913 114.243Z" fill="#FFB883"/>
<path d="M140.357 108.503L118.617 96.1858L110.762 101.116L120.589 111.029L133.197 116.746" fill="#68E1FD"/>
<path opacity="0.5" d="M140.357 108.503L118.617 96.1858L110.762 101.116L120.589 111.029L133.197 116.746" fill="white"/>
<path d="M131.75 113.446L110.762 101.116V104.24V105.79V126.892L131.75 138.571V138.469L131.932 138.571L140.357 133.441V112.915V108.504L131.75 113.446Z" fill="#68E1FD"/>
<path d="M133.254 115.315V126.099L139.336 122.526V111.861L133.254 115.315Z" fill="#FFECB3"/>
<path opacity="0.2" d="M131.75 113.446V138.571L110.762 126.892V101.116L131.75 113.446Z" fill="black"/>
<path d="M138.103 129.267C138.358 128.173 137.961 127.145 137.216 126.971C136.471 126.797 135.66 127.543 135.405 128.638C135.15 129.732 135.547 130.76 136.292 130.934C137.037 131.108 137.848 130.362 138.103 129.267Z" fill="#FFECB3"/>
<path d="M149.078 87.425C149.078 87.425 146.94 97.2347 147.106 97.799C147.522 99.2411 153.473 100.079 155.228 97.799L153.068 87.425H149.078Z" fill="#F23DB4"/>
<path d="M151.027 88.7075C152.164 88.7075 153.085 88.1895 153.085 87.5504C153.085 86.9114 152.164 86.3933 151.027 86.3933C149.891 86.3933 148.97 86.9114 148.97 87.5504C148.97 88.1895 149.891 88.7075 151.027 88.7075Z" fill="#934600"/>
<path d="M155.165 67.2754C155.165 67.2754 151.175 65.1436 148.753 69.5554C146.33 73.9672 149.893 76.0876 153.854 76.2472C157.816 76.4068 158.517 68.7631 155.165 67.2754Z" fill="#E0FF4B"/>
<path d="M154.401 67.2755C151.135 73.3232 150.634 80.3 150.354 87.0374C150.354 87.3908 150.89 87.3908 150.924 87.0374C151.198 80.4026 151.677 73.5113 154.914 67.5548C155.04 67.2413 154.567 66.962 154.401 67.2755Z" fill="#1A892D"/>
<path d="M156.75 78.5502C156.75 78.5502 151.232 78.3279 151.871 82.0044C152.509 85.6809 157.212 84.9399 157.907 82.9563C158.602 80.9727 156.75 78.5502 156.75 78.5502Z" fill="#E0FF4B"/>
<path d="M156.659 78.7383C154.516 81.5635 152.855 84.7242 151.745 88.092C151.729 88.1441 151.735 88.2004 151.761 88.2485C151.786 88.2966 151.83 88.3326 151.882 88.3485C151.934 88.3643 151.991 88.3588 152.039 88.3332C152.087 88.3075 152.123 88.2638 152.139 88.2117C153.238 84.8783 154.883 81.7503 157.006 78.9549C157.166 78.7497 156.818 78.5274 156.659 78.7383Z" fill="#1A892D"/>
<path d="M144.723 75.7001C144.723 75.7001 141.759 80.357 145.259 81.6509C148.759 82.9448 150.48 78.5045 149.118 76.9085C147.756 75.3125 144.723 75.7001 144.723 75.7001Z" fill="#E0FF4B"/>
<path d="M150.628 87.6702C149.089 83.3937 147.166 79.2652 144.882 75.3354C144.855 75.2878 144.81 75.2529 144.757 75.2385C144.704 75.2241 144.648 75.2312 144.6 75.2584C144.553 75.2857 144.518 75.3307 144.503 75.3836C144.489 75.4365 144.496 75.493 144.523 75.5406C146.789 79.4377 148.696 83.5318 150.223 87.7728C150.315 88.0179 150.714 87.921 150.628 87.6702Z" fill="#1A892D"/>
<path d="M140.705 53.5099C140.615 53.4616 140.516 53.4341 140.414 53.4291C140.312 53.4242 140.211 53.442 140.117 53.4814C140.023 53.5207 139.939 53.5805 139.871 53.6565C139.803 53.7324 139.753 53.8225 139.724 53.9203C139.662 54.1312 139.588 54.3421 139.513 54.553C139.348 54.6304 139.219 54.7695 139.154 54.9406C139.069 55.1572 138.983 55.3681 138.892 55.579L138.835 55.4821C139.097 54.8722 138.305 54.2053 137.786 54.6499C137.72 54.6244 137.651 54.6072 137.581 54.5986C137.912 54.382 138.239 54.1597 138.562 53.9317C139.28 53.4187 138.59 52.2217 137.866 52.7404C135.974 54.0856 133.648 54.9406 132.166 56.8501C131.95 57.1294 130.804 58.5031 130.946 58.8508C130.995 58.9704 131.073 59.0761 131.172 59.1586C131.272 59.2411 131.39 59.2979 131.516 59.3239C132.514 59.4607 132.993 58.3606 133.756 57.7222C133.255 59.0161 132.337 60.1105 132.166 61.5526C132.163 61.6492 132.182 61.7451 132.22 61.8338C132.259 61.9225 132.316 62.0016 132.388 62.0658C132.461 62.1299 132.546 62.1774 132.639 62.2049C132.731 62.2325 132.829 62.2394 132.924 62.2252L132.776 62.5387C132.388 63.3367 133.58 64.0321 133.967 63.2341L134.207 62.7325C134.251 62.8374 134.32 62.9303 134.407 63.0039C134.494 63.0775 134.597 63.1297 134.708 63.1563C134.819 63.1829 134.934 63.1832 135.045 63.1571C135.156 63.131 135.259 63.0793 135.347 63.0061C135.557 62.8275 135.757 62.6372 135.945 62.4361C136.007 62.5 136.081 62.5509 136.163 62.5857C136.244 62.6204 136.332 62.6383 136.421 62.6383C136.51 62.6383 136.598 62.6204 136.68 62.5857C136.761 62.5509 136.835 62.5 136.897 62.4361C138.185 61.1878 138.721 59.4778 139.559 57.9445C140.425 56.8631 141.156 55.6801 141.736 54.4219C142.096 53.6638 141.155 53.0254 140.705 53.5099Z" fill="#FFB9AD"/>
<path d="M134.298 59.1302L132.81 62.06C132.691 62.2994 133.05 62.5046 133.169 62.2709L134.629 59.3525C134.771 59.1017 134.412 58.8908 134.298 59.1302Z" fill="#0D0D0D"/>
<path d="M135.404 60.2018C135.024 61.0872 134.621 61.9631 134.195 62.8295C134.081 63.0689 134.435 63.2798 134.554 63.0404C134.976 62.174 135.379 61.2981 135.763 60.4127C135.86 60.1733 135.506 59.9624 135.404 60.2018Z" fill="#0D0D0D"/>
<path d="M136.8 59.7801L135.66 62.4249C135.557 62.6643 135.911 62.8752 136.019 62.6358L137.159 59.991C137.273 59.7801 136.92 59.5578 136.8 59.7801Z" fill="#0D0D0D"/>
<path d="M143.554 37.3164C143.554 37.3164 138.63 47.8842 134.041 51.2301C134.041 51.2301 137.963 60.5439 142.654 58.1898C144.364 57.3462 152.424 50.0274 154.396 44.2647" fill="#F23DB4"/>
<path d="M116.975 49.366C116.294 49.9666 115.659 50.6183 115.077 51.3154C114.655 51.8227 114.045 52.3927 114.159 53.0995C114.194 53.3104 114.519 53.2249 114.484 53.0083C114.376 52.3528 115.351 51.4921 115.761 51.0361C116.218 50.5323 116.704 50.0546 117.215 49.6054C117.374 49.4629 117.135 49.2235 116.975 49.366Z" fill="#0D0D0D"/>
<path d="M126.54 44.008C126.531 43.8516 126.471 43.7026 126.367 43.5848C126.264 43.4671 126.124 43.3873 125.97 43.3582L126.278 43.1644C126.417 43.0712 126.516 42.9296 126.556 42.7673C126.596 42.6051 126.574 42.4337 126.495 42.2866C123.257 44.2075 119.837 45.8263 116.594 47.7358C115.674 48.3939 114.798 49.1117 113.972 49.8847C113.482 50.3464 114.034 51.2755 114.661 50.8993C115.19 50.5839 115.714 50.2628 116.235 49.936C115.796 50.4718 115.368 51.0133 114.952 51.5662C114.61 52.0222 113.869 53.3218 114.69 53.2249C115.003 53.0653 115.915 52.387 116.4 52.0849L116.571 51.9766L116.428 52.0735C116.548 52.0108 116.998 51.7315 116.998 51.7486C117.375 51.5434 117.745 51.3268 118.138 51.1102C118.144 51.1385 118.157 51.1645 118.178 51.1849C118.198 51.2052 118.224 51.219 118.252 51.2242H118.349C118.342 51.2489 118.341 51.2749 118.346 51.3001C118.35 51.3253 118.361 51.3491 118.376 51.3696C118.392 51.39 118.412 51.4066 118.435 51.418C118.458 51.4294 118.483 51.4352 118.509 51.4351C118.706 51.4172 118.898 51.3672 119.079 51.2869C119.299 51.2004 119.495 51.0615 119.649 50.8822C119.661 50.8686 119.67 50.8532 119.677 50.8366C119.772 50.7257 119.853 50.6031 119.917 50.4718C119.928 50.4488 119.934 50.4235 119.934 50.3977C119.934 50.372 119.928 50.3466 119.917 50.3236L120.019 50.1811C120.162 50.0386 120.287 49.8904 120.424 49.7422L122.163 48.6706L122.396 48.5737L123.713 48.1348C123.75 48.1177 123.779 48.088 123.796 48.0512C123.813 48.0143 123.816 47.9727 123.805 47.9337C123.794 47.8946 123.77 47.8608 123.736 47.8381C123.703 47.8154 123.662 47.8055 123.622 47.8099L123.514 47.8441L123.867 47.6218L124.437 47.1886C125.402 46.5262 126.298 45.7681 127.11 44.9257C127.504 44.4754 127.03 43.9852 126.54 44.008Z" fill="#FFB9AD"/>
<path d="M124.209 47.7244C123.513 48.2596 122.697 48.6158 121.832 48.7618C121.547 48.8074 121.005 48.7333 120.749 48.91C120.608 49.0356 120.509 49.2004 120.464 49.3831C120.313 49.769 120.122 50.1378 119.894 50.4832C119.654 50.8252 119.056 51.4636 118.566 51.3553C117.882 51.2014 118.942 49.1152 119.136 48.7846C119.15 48.7468 119.151 48.7052 119.137 48.667C119.124 48.6288 119.097 48.5966 119.062 48.5761C119.028 48.5556 118.987 48.5481 118.947 48.555C118.907 48.5619 118.871 48.5826 118.845 48.6136C118.585 49.0686 118.375 49.5502 118.218 50.05C118.043 50.4499 117.967 50.8857 117.996 51.3211C118.167 52.0279 119.215 51.5776 119.574 51.3211C119.909 51.0595 120.183 50.729 120.378 50.3521C120.498 50.1298 120.578 49.8904 120.697 49.6681C120.748 49.535 120.833 49.4172 120.942 49.3261C121.142 49.1437 121.245 49.1722 121.512 49.1494C122.56 49.0479 123.558 48.6527 124.391 48.0094C124.551 47.884 124.38 47.5933 124.209 47.7244Z" fill="#0D0D0D"/>
<path d="M134.606 26.2241C134.606 26.2241 131.277 34.7 129.077 36.6209C126.876 38.5418 119.871 43.2101 119.871 43.2101C119.871 43.2101 119.808 48.7733 125.571 49.7081C125.571 49.7081 137.359 43.0391 139.964 41.1581" fill="#F23DB4"/>
<path d="M135.466 35.5151L134.714 45.0626C134.685 45.4274 135.255 45.4274 135.284 45.0626L136.036 35.5151C136.065 35.1503 135.495 35.1503 135.466 35.5151Z" fill="#581B7A"/>
<defs>
<linearGradient id="paint0_linear_6788_6874" x1="94.882" y1="104.171" x2="75.8098" y2="135.043" gradientUnits="userSpaceOnUse">
<stop stop-color="#7A7FF1"/>
<stop offset="1" stop-color="#9FBAFF"/>
</linearGradient>
<linearGradient id="paint1_linear_6788_6874" x1="141.936" y1="119.003" x2="135.335" y2="129.685" gradientUnits="userSpaceOnUse">
<stop stop-color="#7A7FF1"/>
<stop offset="1" stop-color="#9FBAFF"/>
</linearGradient>
</defs>
</svg>
