<svg width="24" height="24" viewBox="0 0 24 24" fill="none" xmlns="http://www.w3.org/2000/svg">
<mask id="mask0_6800_8762" style="mask-type:alpha" maskUnits="userSpaceOnUse" x="0" y="0" width="24" height="24">
<rect width="24" height="24" fill="#D9D9D9"/>
</mask>
<g mask="url(#mask0_6800_8762)">
<path d="M6.58454 17.3077L8.98072 13.1346C8.86532 13.1987 8.7307 13.2436 8.57687 13.2692C8.42302 13.2949 8.26917 13.3077 8.11532 13.3077C7.18198 13.3077 6.39737 12.9834 5.76147 12.3346C5.12557 11.6859 4.80762 10.9077 4.80762 10C4.80762 9.06669 5.12557 8.28207 5.76147 7.64617C6.39737 7.01027 7.18198 6.69232 8.11532 6.69232C9.02302 6.69232 9.80123 7.01027 10.4499 7.64617C11.0987 8.28207 11.423 9.06669 11.423 10C11.423 10.3193 11.3836 10.6189 11.3047 10.8991C11.2259 11.1792 11.1141 11.4436 10.9692 11.6923L7.73072 17.3077H6.58454ZM15.3538 17.3077L17.7499 13.1346C17.6346 13.1987 17.4999 13.2436 17.3461 13.2692C17.1922 13.2949 17.0384 13.3077 16.8846 13.3077C15.9512 13.3077 15.1666 12.9834 14.5307 12.3346C13.8948 11.6859 13.5769 10.9077 13.5769 10C13.5769 9.05387 13.8948 8.26605 14.5307 7.63655C15.1666 7.00706 15.9512 6.69232 16.8846 6.69232C17.7923 6.69232 18.5704 7.01027 19.2192 7.64617C19.8679 8.28207 20.1923 9.06669 20.1923 10C20.1923 10.3193 20.1528 10.6189 20.074 10.8991C19.9951 11.1792 19.8833 11.4436 19.7384 11.6923L16.4999 17.3077H15.3538Z" fill="white"/>
</g>
</svg>
