<svg width="16" height="17" viewBox="0 0 16 17" fill="none" xmlns="http://www.w3.org/2000/svg">
<path d="M6.70001 2.18669L2.68668 4.80669C1.40001 5.64669 1.40001 7.52669 2.68668 8.36669L6.70001 10.9867C7.42001 11.46 8.60668 11.46 9.32668 10.9867L13.32 8.36669C14.6 7.52669 14.6 5.65336 13.32 4.81336L9.32668 2.19336C8.60668 1.71336 7.42001 1.71336 6.70001 2.18669Z" stroke="#C8711B" stroke-width="1.5" stroke-linecap="round" stroke-linejoin="round"/>
<path d="M3.75325 9.22021L3.74658 12.3469C3.74658 13.1935 4.39992 14.1002 5.19992 14.3669L7.32658 15.0735C7.69325 15.1935 8.29992 15.1935 8.67325 15.0735L10.7999 14.3669C11.5999 14.1002 12.2532 13.1935 12.2532 12.3469V9.25355" stroke="#C8711B" stroke-width="1.5" stroke-linecap="round" stroke-linejoin="round"/>
<path d="M14.2666 10.5V6.5" stroke="#C8711B" stroke-width="1.5" stroke-linecap="round" stroke-linejoin="round"/>
</svg>
