<svg width="229" height="172" viewBox="0 0 229 172" fill="none" xmlns="http://www.w3.org/2000/svg">
<g clip-path="url(#clip0_6788_6502)">
<path d="M80.9327 33.0356L73.46 33.3662C73.46 33.3662 66.2153 31.9469 65.0069 32.6708C63.9353 33.3092 59.2385 34.7912 59.5862 35.5208C59.9339 36.2504 64.0664 35.099 64.0664 35.099C64.0664 35.099 62.3963 35.8685 63.1031 36.3986C63.8099 36.9287 66.3521 35.1845 67.1444 35.4467C67.9367 35.7089 82.6826 36.5183 82.6826 36.5183" fill="#FAA590"/>
<path d="M73.0326 35.4981C71.0595 35.842 69.031 35.6692 67.1445 34.9965C66.7968 34.8768 66.6486 35.424 66.9906 35.5665C68.9759 36.2662 71.1088 36.4391 73.1808 36.0681C73.5456 35.9883 73.3917 35.4354 73.0326 35.4981Z" fill="#FAA590"/>
<path d="M109.746 20.5583C109.746 20.5583 115.674 22.901 115.771 27.176C115.868 31.451 116.66 32.1464 120.029 33.1382C123.397 34.13 126.698 34.8483 126.869 37.3107C127.04 39.7731 121.22 42.0758 118 43.25C114.779 44.4242 104.696 34.1757 105.334 30.1913" fill="#E8601C"/>
<path d="M8.423 110.561L113.252 171.084C114.825 171.99 116.611 172.461 118.426 172.451C120.242 172.441 122.022 171.95 123.586 171.027L206.931 121.659C207.327 121.425 207.655 121.091 207.883 120.691C208.11 120.291 208.23 119.839 208.23 119.379C208.23 118.919 208.11 118.467 207.883 118.067C207.655 117.667 207.327 117.334 206.931 117.099C188.406 106.417 110.333 61.433 97.6337 54.2282C97.1086 53.925 96.5129 53.7654 95.9066 53.7654C95.3003 53.7654 94.7046 53.925 94.1795 54.2282L8.4059 104.588C7.88383 104.893 7.45106 105.33 7.15087 105.855C6.85068 106.38 6.6936 106.975 6.69533 107.579C6.69706 108.184 6.85754 108.778 7.16073 109.301C7.46392 109.824 7.89919 110.259 8.423 110.561Z" fill="#DAF2E9"/>
<path opacity="0.48" d="M87.5845 156.264L55.5391 138.531L86.2735 120.77L120.2 135.995L96.6817 149.84C93.0793 152.057 91.1299 153.978 87.5845 156.264Z" fill="url(#paint0_linear_6788_6502)"/>
<path opacity="0.48" d="M186.018 124.036L152.103 108.84L121.369 126.573L153.693 144.117L186.018 124.036Z" fill="url(#paint1_linear_6788_6502)"/>
<path opacity="0.48" d="M27.7802 121.163L10.6802 110.727L39.5393 95.6272L58.3892 101.994L36.5069 115.549C32.9045 117.737 31.3256 118.877 27.7802 121.163Z" fill="url(#paint2_linear_6788_6502)"/>
<path d="M165.823 75.7515L169.762 77.8548L159.011 87.978L149.532 90.9534L146.375 86.6727" fill="#FFE8BC"/>
<path d="M150.98 88.7986L147.326 86.7181L165.823 75.7513L165.39 75.5005L146.375 86.6725V115.207L150.518 117.566L152.103 115.919" fill="#68E1FD"/>
<path opacity="0.42" d="M150.98 88.7986L147.326 86.7181L165.823 75.7513L165.39 75.5005L146.375 86.6725V115.207L150.518 117.566L152.103 115.919" fill="#1371A5"/>
<path d="M169.762 77.8547L150.519 89.0666V117.567L170.064 105.887L169.762 77.8547Z" fill="#68E1FD"/>
<path d="M151.248 87.197L152.422 87.938V94.0142L153.169 93.0623L153.693 93.6551V87.2198L152.593 86.4275L151.248 87.197Z" fill="#E85858"/>
<path d="M171.318 79.0347L175.256 81.1323L164.506 91.2555L155.027 94.2366L151.869 89.9559" fill="#FFE8BC"/>
<path d="M156.475 92.0818L152.821 90.0013L171.318 79.0345L170.884 78.7837L151.869 89.9557V118.49L156.013 120.85L157.598 119.197" fill="#68E1FD"/>
<path opacity="0.42" d="M156.475 92.0818L152.821 90.0013L171.318 79.0345L170.884 78.7837L151.869 89.9557V118.49L156.013 120.85L157.598 119.197" fill="#1371A5"/>
<path d="M175.256 81.1323L156.013 92.3499V120.85L175.558 109.171L175.256 81.1323Z" fill="#68E1FD"/>
<path d="M156.743 90.4745L157.917 91.2212V97.2974L158.664 96.3398L159.188 96.9326V90.4973L158.088 89.7107L156.743 90.4745Z" fill="#E85858"/>
<path d="M177.417 82.0327L181.35 84.1303L170.599 94.2535L161.12 97.2346L157.968 92.9539" fill="#FFE8BC"/>
<path d="M162.574 95.0801L158.914 92.9996L177.417 82.0328L176.978 81.782L157.968 92.954V121.488L162.112 123.848L163.697 122.195" fill="#68E1FD"/>
<path opacity="0.42" d="M162.574 95.0801L158.914 92.9996L177.417 82.0328L176.978 81.782L157.968 92.954V121.488L162.112 123.848L163.697 122.195" fill="#1371A5"/>
<path d="M181.35 84.1304L162.112 95.348V123.848L181.658 112.169L181.35 84.1304Z" fill="#68E1FD"/>
<path d="M162.842 93.4785L164.016 94.2195V100.296L164.763 99.3438L165.287 99.9309V93.5013L164.187 92.709L162.842 93.4785Z" fill="#E85858"/>
<path d="M159.045 122.366C158.977 122.366 158.344 122.115 158.874 121.71C159.226 121.437 159.593 121.186 159.975 120.958" fill="#E27825"/>
<path d="M159.045 119.026C159.045 119.026 159.576 120.987 159.045 122.035L166.256 126.271L173.387 130.397V127.348" fill="#FFE8BC"/>
<path d="M158.806 118.724C158.806 118.86 158.823 118.997 158.857 119.134L173.387 127.353V130.403L158.869 121.91C158.869 122.03 158.869 122.149 158.869 122.269L173.945 131.03V126.875L158.806 118.724Z" fill="#E27825"/>
<path d="M158.886 118.775L173.866 127.325L194.87 115.007L180.21 106.6C179.988 106.471 179.736 106.403 179.48 106.403C179.224 106.403 178.972 106.471 178.75 106.6L158.857 118.387C158.823 118.408 158.794 118.438 158.775 118.474C158.756 118.509 158.748 118.55 158.751 118.59C158.754 118.63 158.768 118.669 158.792 118.702C158.816 118.735 158.848 118.76 158.886 118.775Z" fill="#FDBA45"/>
<path d="M173.945 131.03C173.945 131.03 194.955 118.655 194.893 118.598C194.83 118.541 194.893 115.019 194.893 115.019L173.871 127.359L173.945 131.03Z" fill="#E27825"/>
<path d="M158.886 118.399C158.825 118.443 158.774 118.501 158.737 118.566C158.699 118.632 158.677 118.705 158.669 118.781C158.669 119.037 158.915 119.162 159.011 119.214" fill="#FDBA45"/>
<path d="M159.103 116.78C159.034 116.78 158.402 116.529 158.932 116.124C159.283 115.851 159.65 115.6 160.032 115.372" fill="#E27825"/>
<path d="M159.103 113.428C159.103 113.428 159.633 115.389 159.103 116.438L166.313 120.673L173.444 124.8V121.75" fill="#FFE8BC"/>
<path d="M158.863 113.121C158.863 113.257 158.88 113.394 158.915 113.531L173.444 121.75V124.8L158.926 116.335C158.926 116.455 158.926 116.575 158.926 116.695L174.008 125.421V121.266L158.863 113.121Z" fill="#E27825"/>
<path d="M158.96 113.177L173.94 121.727L194.961 109.387L180.301 100.98C180.08 100.85 179.828 100.782 179.571 100.782C179.315 100.782 179.063 100.85 178.842 100.98L158.96 112.79C158.924 112.808 158.894 112.836 158.873 112.87C158.852 112.904 158.84 112.943 158.84 112.984C158.84 113.024 158.852 113.063 158.873 113.098C158.894 113.132 158.924 113.16 158.96 113.177Z" fill="#FDBA45"/>
<path d="M174.002 125.421C174.002 125.421 195.013 113.047 194.95 112.99C194.887 112.933 194.95 109.41 194.95 109.41L173.928 121.75L174.002 125.421Z" fill="#E27825"/>
<path d="M158.96 112.79C158.899 112.835 158.848 112.892 158.811 112.958C158.773 113.024 158.75 113.097 158.743 113.172C158.743 113.428 158.988 113.554 159.085 113.605" fill="#FDBA45"/>
<path d="M159.103 111.046C159.034 111.046 158.402 110.795 158.932 110.39C159.283 110.117 159.65 109.866 160.032 109.638" fill="#E27825"/>
<path d="M159.103 107.706C159.103 107.706 159.633 109.666 159.103 110.715L166.313 114.95L173.444 119.06V116.01" fill="#FFE8BC"/>
<path d="M158.863 107.398C158.863 107.535 158.88 107.671 158.915 107.808L173.444 116.028V119.06L158.926 110.595C158.926 110.715 158.926 110.835 158.926 110.955L174.008 119.681V115.526L158.863 107.398Z" fill="#E27825"/>
<path d="M158.96 107.455L173.94 116.005L194.95 103.67L180.29 95.2625C180.068 95.1333 179.816 95.0652 179.56 95.0652C179.304 95.0652 179.052 95.1333 178.83 95.2625L158.96 107.09C158.93 107.11 158.904 107.137 158.887 107.168C158.869 107.2 158.86 107.236 158.86 107.272C158.86 107.309 158.869 107.344 158.887 107.376C158.904 107.408 158.93 107.435 158.96 107.455Z" fill="#FDBA45"/>
<path d="M174.002 119.698C174.002 119.698 195.013 107.324 194.95 107.267C194.887 107.21 194.95 103.687 194.95 103.687L173.928 116.028L174.002 119.698Z" fill="#E27825"/>
<path d="M158.96 107.09C158.899 107.135 158.848 107.192 158.811 107.258C158.773 107.324 158.75 107.397 158.743 107.472C158.743 107.728 158.988 107.854 159.085 107.905" fill="#FDBA45"/>
<path d="M66.3409 132.25C66.1984 132.25 64.9159 131.737 65.9932 130.91C66.7098 130.354 67.4598 129.842 68.239 129.377" fill="#9A433A"/>
<path d="M66.3408 125.444C66.3408 125.444 67.4181 129.434 66.3408 131.572L81.0183 140.201L95.5362 148.603V142.396" fill="#FFE8BC"/>
<path d="M65.8564 124.823C65.8906 125.1 65.9248 125.378 65.959 125.655L95.542 142.396V148.603L65.9875 131.366C65.9875 131.611 65.9875 131.857 65.9875 132.102L96.682 149.84V141.404L65.8564 124.823Z" fill="#9A433A"/>
<path d="M66.0215 124.931L96.5279 142.39L139.335 117.259L109.484 100.159C109.034 99.8963 108.523 99.7581 108.002 99.7581C107.481 99.7581 106.97 99.8963 106.52 100.159L66.0158 124.19C65.955 124.231 65.9053 124.286 65.8711 124.351C65.8369 124.416 65.8193 124.489 65.8198 124.562C65.8204 124.635 65.8391 124.707 65.8743 124.772C65.9095 124.836 65.9601 124.891 66.0215 124.931Z" fill="#F26250"/>
<path d="M96.6816 149.84C96.6816 149.84 139.432 124.646 139.329 124.526C139.226 124.407 139.329 117.236 139.329 117.236L96.522 142.367L96.6816 149.84Z" fill="#9A433A"/>
<path d="M66.0158 124.19C65.8911 124.28 65.787 124.396 65.7103 124.53C65.6337 124.663 65.5863 124.812 65.5712 124.965C65.5199 125.484 66.0728 125.74 66.2666 125.849" fill="#F26250"/>
<path d="M101.333 125.467C109.09 125.467 115.378 123.464 115.378 120.992C115.378 118.521 109.09 116.518 101.333 116.518C93.5762 116.518 87.2881 118.521 87.2881 120.992C87.2881 123.464 93.5762 125.467 101.333 125.467Z" fill="#9A433A"/>
<path d="M126.96 59.5463C126.96 59.5463 129.862 56.7647 132.062 56.7932C134.262 56.8217 138.132 57.3632 138.423 56.075C138.714 54.7868 134.752 52.8089 133.225 52.3073C131.697 51.8057 126.955 54.6329 126.63 54.1142C126.305 53.5955 129.548 51.2642 129.548 51.2642C129.548 51.2642 127.388 50.3921 127.314 50.5175C127.24 50.6429 123.5 54.8951 122.805 56.8901C122.11 58.8851 126.96 59.5463 126.96 59.5463Z" fill="#1A1A1A"/>
<path d="M99.053 101.572C99.053 101.572 98.9219 105.614 97.343 107.147C95.7641 108.68 92.5664 111.012 93.2675 112.146C93.9686 113.28 98.2094 111.912 99.6572 111.194C101.105 110.476 102.507 105.118 103.134 105.249C103.761 105.38 103.054 109.37 103.054 109.37C103.054 109.37 105.22 108.481 105.186 108.327C105.152 108.173 104.85 102.49 103.944 100.569C103.037 98.6483 99.053 101.572 99.053 101.572Z" fill="#1A1A1A"/>
<path d="M147.56 22.7299L131.395 11.0962C130.594 11.4955 129.889 12.0643 129.33 12.7631C128.771 13.462 128.371 14.2741 128.157 15.1432L144.317 26.7826C145.394 25.426 146.5 24.1036 147.56 22.7299Z" fill="#FDDF33"/>
<path d="M130.957 13.9744C131.794 12.8122 131.951 11.4942 131.308 11.0305C130.664 10.5667 129.464 11.133 128.626 12.2951C127.789 13.4573 127.632 14.7753 128.276 15.239C128.919 15.7027 130.12 15.1365 130.957 13.9744Z" fill="#FDDF33"/>
<path d="M147.113 25.6148C147.95 24.4526 148.107 23.1345 147.464 22.6708C146.82 22.2071 145.619 22.7733 144.782 23.9355C143.945 25.0977 143.788 26.4157 144.432 26.8794C145.075 27.3431 146.276 26.7769 147.113 25.6148Z" fill="#FCCD35"/>
<path d="M137.409 18.5234C137.671 17.4917 136.388 17.2181 135.699 17.2067C135.133 17.1456 134.564 17.2781 134.083 17.5825C133.603 17.8869 133.24 18.3451 133.054 18.8825C132.336 20.8148 132.678 22.8212 131.532 24.6794C131.315 25.0271 131.834 25.409 132.051 25.0556C132.244 24.7398 132.413 24.4102 132.558 24.0695C132.438 24.4571 132.318 24.8504 132.21 25.2437C132.197 25.2895 132.194 25.3376 132.201 25.3848C132.208 25.4319 132.224 25.4771 132.25 25.5173L132.142 25.8821C132.124 25.9394 132.122 26.0005 132.136 26.059C132.15 26.1174 132.179 26.1709 132.222 26.2137C132.264 26.2565 132.317 26.287 132.375 26.3018C132.433 26.3167 132.495 26.3155 132.552 26.2982L132.353 26.6459C132.303 26.7146 132.282 26.8004 132.296 26.8843C132.309 26.9683 132.355 27.0434 132.424 27.0933C132.493 27.1432 132.578 27.1637 132.662 27.1504C132.746 27.137 132.821 27.0908 132.871 27.0221L132.906 26.9765C133.008 27.176 133.287 27.2786 133.43 27.0392C134.012 26.0047 134.663 25.0107 135.379 24.0638C135.904 23.5278 136.295 22.8755 136.519 22.16C136.623 21.6383 136.564 21.0976 136.353 20.6098C136.141 20.122 135.785 19.7103 135.334 19.4297C136.16 19.4525 137.203 19.31 137.409 18.5234Z" fill="#FAA590"/>
<path d="M90.5997 30.6359C86.8662 31.3199 78.1338 31.4909 72.3198 31.5194C71.4496 35.6714 71.0575 39.9094 71.1513 44.1506C77.0394 44.9258 86.4045 45.4502 93.672 42.5375L103.362 29.9576C99.0959 29.6938 94.8137 29.9214 90.5997 30.6359Z" fill="#1A1A1A"/>
<path d="M102.479 29.8777C102.507 30.1285 88.0291 64.7275 87.5845 89.38C87.5845 89.38 100.341 77.2789 107.318 71.5618" fill="#1A1A1A"/>
<path d="M98.54 51.5035C98.5913 50.9734 98.084 31.0975 102.866 30.1627C107.649 29.2279 113.77 33.5599 113.81 35.9539C113.85 38.3479 109.604 52.7746 106.235 52.8259C102.866 52.8772 98.54 51.5035 98.54 51.5035Z" fill="#68E1FD"/>
<path d="M98.5402 44.7661C97.2577 46.2709 89.1238 68.917 89.0953 74.4688C89.0668 80.0206 98.506 101.618 99.6802 102.068C100.854 102.519 103.288 101.322 103.727 100.267C104.166 99.2125 98.3407 77.0908 98.3407 77.0908C98.3407 77.0908 106.007 59.1472 104.896 54.8152C103.784 50.4832 98.5402 44.7661 98.5402 44.7661Z" fill="#68E1FD"/>
<path d="M102.855 51.3724C102.741 51.8284 103.271 71.6701 105.306 74.1724C107.341 76.6747 112.334 77.4214 114.853 75.1357C117.373 72.85 128.06 59.4664 126.778 58.6057C126.193 58.1926 125.532 57.9006 124.833 57.7469C124.134 57.5932 123.412 57.5809 122.708 57.7108C121.163 57.9103 111.736 68.5066 111.736 68.5066C111.736 68.5066 111.964 47.8897 109.94 45.7351" fill="#68E1FD"/>
<path d="M108.042 30.8525C108.042 30.8525 104.308 55.5335 108.218 62.6642C110.876 67.3205 114.093 71.6333 117.8 75.5063C117.8 75.5063 128.693 71.3453 129.531 69.9602C130.369 68.5751 117.128 56.7134 116.421 53.0882C115.714 49.463 116.945 36.9857 115.047 35.2016C113.149 33.4175 108.042 30.8525 108.042 30.8525Z" fill="#1A1A1A"/>
<path d="M108.042 30.8525C108.042 30.8525 116.729 34.6373 119.476 34.0958C122.224 33.5543 131.486 24.2462 132.142 23.5166C132.142 23.5166 139.466 30.2198 140.008 32.8133C140.008 32.8133 129.257 43.9853 124.777 45.4046C120.297 46.8239 112.391 45.2051 112.391 45.2051" fill="#1A1A1A"/>
<path d="M93.9117 61.6668C96.7959 50.8368 99.9879 40.0524 105.312 30.1857C100.341 29.2224 98.4717 30.3966 98.4717 30.3966C91.2555 35.4924 77.1309 78.8466 77.1309 78.8466C77.2962 82.8366 85.2705 87.9666 87.1515 89.1522C88.8843 79.8669 91.4892 70.7469 93.9117 61.6668Z" fill="#303030"/>
<path d="M104.189 22.4278C104.189 22.4278 102.61 28.8631 104.616 30.2995C106.622 31.7359 110.949 28.7776 111.713 25.7737C112.476 22.7698 106.315 19.0363 104.189 22.4278Z" fill="#FAA590"/>
<path d="M108.276 24.2178C108.276 24.2178 108.008 26.3781 108.686 27.1761C109.365 27.9741 106.754 30.5676 110.755 31.9527C114.757 33.3378 113.389 24.8562 112.505 24.2235" fill="#E8601C"/>
<path d="M112.515 24.2247C112.663 23.4805 110.887 22.5017 108.55 22.0384C106.212 21.5751 104.198 21.8028 104.05 22.547C103.903 23.2912 105.678 24.2701 108.016 24.7334C110.353 25.1967 112.368 24.9689 112.515 24.2247Z" fill="#1A1A1A"/>
<path d="M104.046 22.5418L104.953 18.5974L113.326 20.0053L112.505 24.2233" fill="#1A1A1A"/>
<path d="M100.125 17.013L108.834 23.2431L118.564 18.8769L109.467 12.4131L100.125 17.013Z" fill="#1A1A1A"/>
<path d="M109.752 18.2214L113.565 21.6414L112.79 25.1925C112.79 25.1925 112.123 25.5801 111.867 27.1761C112.467 27.4762 113.157 27.5452 113.805 27.3699C113.89 26.9714 113.861 26.557 113.722 26.174C113.583 25.7909 113.339 25.4548 113.018 25.2039L113.805 21.5901L109.894 18.0219C109.894 18.0219 109.718 17.9763 109.752 18.2214Z" fill="#FEDB26"/>
<path d="M31.0063 67.6803C31.0063 67.6803 32.9329 84.8601 42.7825 86.2395C52.6321 87.6189 56.5651 71.8071 56.2288 67.6746" fill="#FDBA45"/>
<path d="M56.246 100.586C56.246 100.586 54.3194 83.3893 44.4698 82.0099C34.6202 80.6305 30.71 96.4594 31.0292 100.586" fill="#FDBA45"/>
<path d="M43.626 104.143C50.5894 104.143 56.2344 102.551 56.2344 100.586C56.2344 98.622 50.5894 97.0295 43.626 97.0295C36.6626 97.0295 31.0176 98.622 31.0176 100.586C31.0176 102.551 36.6626 104.143 43.626 104.143Z" fill="#FDBA45"/>
<path d="M43.626 72.3826C50.5894 72.3826 56.2344 70.7902 56.2344 68.8258C56.2344 66.8615 50.5894 65.269 43.626 65.269C36.6626 65.269 31.0176 66.8615 31.0176 68.8258C31.0176 70.7902 36.6626 72.3826 43.626 72.3826Z" fill="#486B11"/>
<path d="M31.0176 68.8259V67.6802L31.7529 68.0165L31.0176 68.8259Z" fill="#486B11"/>
<path d="M56.2346 67.6802V68.8202L55.6646 69.2819V68.2502" fill="#486B11"/>
<path d="M43.626 71.2369C50.5894 71.2369 56.2344 69.6445 56.2344 67.6801C56.2344 65.7157 50.5894 64.1233 43.626 64.1233C36.6626 64.1233 31.0176 65.7157 31.0176 67.6801C31.0176 69.6445 36.6626 71.2369 43.626 71.2369Z" fill="#577F22"/>
<path d="M33.8223 75.3753C33.8223 75.3753 36.8319 82.4148 39.9099 83.5149C42.9879 84.615 46.7499 84.6948 49.6626 81.9417C51.5062 80.1145 52.8674 77.8582 53.6241 75.3753C52.6337 74.7951 51.487 74.5381 50.3438 74.6403C49.2005 74.7425 48.1176 75.1987 47.2458 75.9453C44.0937 78.5844 43.5807 79.1715 41.3064 77.6553C39.0321 76.1391 35.7261 74.127 33.8223 75.3753Z" fill="#D68B13"/>
<path d="M33.5259 99.7086C33.5259 99.7086 39.4995 88.8786 43.6263 89.5284C47.7531 90.1782 53.6184 100.165 53.6184 100.165C53.6184 100.165 43.6263 104.143 33.5259 99.7086Z" fill="#D68B13"/>
<path d="M175.12 48.0381C175.12 48.0381 180.449 63.4908 180.21 63.6846C179.97 63.8784 177.24 61.6839 176.995 61.8036C176.35 62.5825 175.754 63.4011 175.211 64.2546L170.252 49.0128" fill="#E8601C"/>
<path d="M166.632 46.5901L163.703 61.0225C163.703 61.0225 167.157 58.1725 167.123 58.4518C167.088 58.7311 167.579 61.8718 167.579 61.8718L171.734 47.2399" fill="#E8601C"/>
<path d="M172.278 52.159C176.161 51.7255 178.858 47.3416 178.303 42.3671C177.748 37.3926 174.15 33.7114 170.267 34.1449C166.385 34.5783 163.687 38.9623 164.243 43.9367C164.798 48.9112 168.396 52.5924 172.278 52.159Z" fill="#EAB41B"/>
<path d="M171.355 52.2608C175.238 51.8273 177.935 47.4434 177.38 42.4689C176.824 37.4945 173.227 33.8132 169.344 34.2467C165.461 34.6801 162.764 39.0641 163.319 44.0385C163.875 49.013 167.472 52.6942 171.355 52.2608Z" fill="#FCCD35"/>
</g>
<defs>
<linearGradient id="paint0_linear_6788_6502" x1="75.2155" y1="152.861" x2="83.8339" y2="142.231" gradientUnits="userSpaceOnUse">
<stop offset="0.01" stop-color="white" stop-opacity="0"/>
<stop offset="1" stop-color="#00A99D"/>
</linearGradient>
<linearGradient id="paint1_linear_6788_6502" x1="145.143" y1="138.126" x2="159.633" y2="116.392" gradientUnits="userSpaceOnUse">
<stop offset="0.01" stop-color="white" stop-opacity="0"/>
<stop offset="1" stop-color="#00A99D"/>
</linearGradient>
<linearGradient id="paint2_linear_6788_6502" x1="26.9594" y1="117.749" x2="39.83" y2="98.4487" gradientUnits="userSpaceOnUse">
<stop offset="0.01" stop-color="white" stop-opacity="0"/>
<stop offset="1" stop-color="#00A99D"/>
</linearGradient>
<clipPath id="clip0_6788_6502">
<rect width="228" height="171" fill="white" transform="translate(0.5 0.5)"/>
</clipPath>
</defs>
</svg>
