<svg width="16" height="17" viewBox="0 0 16 17" fill="none" xmlns="http://www.w3.org/2000/svg">
<path d="M1.3335 15.1665H14.6668" stroke="#73CD91" stroke-width="1.5" stroke-miterlimit="10" stroke-linecap="round" stroke-linejoin="round"/>
<path d="M1.9668 15.1665L2.00013 7.1465C2.00013 6.73983 2.19346 6.3532 2.51346 6.09987L7.18013 2.46652C7.66013 2.09319 8.33346 2.09319 8.82013 2.46652L13.4868 6.09319C13.8135 6.34653 14.0001 6.73316 14.0001 7.1465V15.1665" stroke="#73CD91" stroke-width="1.5" stroke-miterlimit="10" stroke-linejoin="round"/>
<path d="M8.66683 11.8335H7.3335C6.78016 11.8335 6.3335 12.2802 6.3335 12.8335V15.1668H9.66683V12.8335C9.66683 12.2802 9.22016 11.8335 8.66683 11.8335Z" stroke="#73CD91" stroke-width="1.5" stroke-miterlimit="10" stroke-linejoin="round"/>
<path d="M6.3335 9.66683H5.00016C4.6335 9.66683 4.3335 9.36683 4.3335 9.00016V8.00016C4.3335 7.6335 4.6335 7.3335 5.00016 7.3335H6.3335C6.70016 7.3335 7.00016 7.6335 7.00016 8.00016V9.00016C7.00016 9.36683 6.70016 9.66683 6.3335 9.66683Z" stroke="#73CD91" stroke-width="1.5" stroke-miterlimit="10" stroke-linejoin="round"/>
<path d="M11 9.66683H9.66667C9.3 9.66683 9 9.36683 9 9.00016V8.00016C9 7.6335 9.3 7.3335 9.66667 7.3335H11C11.3667 7.3335 11.6667 7.6335 11.6667 8.00016V9.00016C11.6667 9.36683 11.3667 9.66683 11 9.66683Z" stroke="#73CD91" stroke-width="1.5" stroke-miterlimit="10" stroke-linejoin="round"/>
<path d="M12.6667 5.1665L12.6467 3.1665H9.71338" stroke="#73CD91" stroke-width="1.5" stroke-miterlimit="10" stroke-linecap="round" stroke-linejoin="round"/>
</svg>
