<svg width="378" height="327" viewBox="0 0 378 327" fill="none" xmlns="http://www.w3.org/2000/svg">
<path d="M62.8168 95.417C61.9721 94.7534 61.1539 94.0627 60.3516 93.3496C61.1512 94.0627 61.9721 94.7534 62.8168 95.417Z" fill="#F35DB6"/>
<path d="M117.296 48.419C117.526 49.4342 120.373 50.1695 123.067 50.9346C123.14 51.7467 123.177 52.5662 123.177 53.3981C123.177 54.2251 123.14 55.0471 123.067 55.8592C120.373 56.6242 117.526 57.3596 117.296 58.3772C117.06 59.427 119.301 61.3458 121.398 63.2052C120.825 64.7279 120.121 66.1863 119.303 67.5678C116.544 67.0776 113.657 66.5032 113 67.3277C112.341 68.1596 113.538 70.8658 114.624 73.4605C113.46 74.5747 112.195 75.5873 110.851 76.4861C108.577 74.847 106.216 73.0767 105.258 73.5397C104.316 73.9978 104.234 76.954 104.093 79.7642C102.581 80.2544 101.011 80.6209 99.3952 80.8388C98.0555 78.3703 96.694 75.7458 95.6122 75.7458C94.5317 75.7458 93.1652 78.3703 91.8295 80.8388C90.2137 80.6209 88.6432 80.2544 87.1316 79.7642C86.99 76.954 86.9072 73.9978 85.9632 73.5397C85.0085 73.0767 82.647 74.847 80.3732 76.4861C79.0289 75.5873 77.7643 74.5747 76.6008 73.4605C77.6885 70.8658 78.8835 68.1596 78.2233 67.3277C77.568 66.5032 74.6783 67.0776 71.9221 67.5653C71.1023 66.1862 70.398 64.7279 69.8262 63.2052C71.9221 61.3458 74.1644 59.4245 73.9267 58.3772C73.6986 57.3596 70.8512 56.6242 68.1576 55.8592C68.0835 55.0471 68.046 54.2251 68.046 53.3981C68.046 52.5662 68.0835 51.7467 68.1576 50.9346C70.8512 50.1695 73.6986 49.4342 73.9267 48.419C74.1644 47.3668 71.9221 45.4479 69.8262 43.5885C70.398 42.0658 71.1023 40.6075 71.9221 39.2259C74.6783 39.7162 77.568 40.2906 78.2233 39.4636C78.8835 38.6342 77.6885 35.9305 76.6008 33.3357C77.7643 32.2191 79.0289 31.2064 80.3732 30.3077C82.647 31.9467 85.0085 33.717 85.9632 33.254C86.9072 32.796 86.99 29.8397 87.1316 27.0295C88.6432 26.5393 90.2137 26.1754 91.8295 25.9525C93.1652 28.4235 94.5317 31.048 95.6122 31.048C96.694 31.048 98.0555 28.4235 99.3952 25.9525C101.011 26.1754 102.581 26.5393 104.093 27.0295C104.234 29.8397 104.316 32.796 105.258 33.254C106.219 33.717 108.577 31.9467 110.851 30.3101C112.195 31.2064 113.46 32.2191 114.624 33.3357C113.538 35.9305 112.341 38.6342 113 39.4636C113.657 40.2906 116.544 39.7162 119.303 39.2259C120.121 40.6075 120.825 42.0658 121.398 43.5885C119.301 45.4504 117.06 47.3668 117.296 48.419ZM95.6122 19.6068C77.0733 19.6068 61.9902 34.7643 61.9902 53.3981C61.9902 72.0294 77.0733 87.187 95.6122 87.187C114.151 87.187 129.233 72.0294 129.233 53.3981C129.233 34.7643 114.151 19.6068 95.6122 19.6068Z" fill="#F35DB6"/>
<path d="M95.6125 89.0911C76.0286 89.0911 60.0976 73.0794 60.0976 53.3983C60.0976 33.7147 76.0286 17.7029 95.6125 17.7029C115.196 17.7029 131.128 33.7147 131.128 53.3983C131.128 73.0794 115.196 89.0911 95.6125 89.0911ZM144.085 50.9966C138.892 49.5234 133.404 48.1023 132.959 46.1438C132.503 44.121 136.826 40.4195 140.866 36.8319C139.762 33.9004 138.408 31.0877 136.826 28.4261C131.511 29.3694 125.944 30.4762 124.679 28.8842C123.408 27.2822 125.714 22.068 127.807 17.0691C125.734 15.0834 123.493 13.276 121.121 11.6468L121.147 11.6295C119.097 13.0383 117.209 14.1945 115.803 14.5758C113.186 16.3114 110.927 17.4776 109.757 16.9106C107.941 16.0292 107.778 10.3296 107.508 4.91478C105.51 4.26608 103.46 3.73621 101.366 3.3252C99.3051 7.06632 97.2813 10.3123 95.6125 10.3123C94.2251 10.3123 92.5947 8.06908 90.8983 5.1673C88.6647 5.58573 86.4803 6.14285 84.3545 6.83115C84.0803 12.2509 83.9214 17.9505 82.1036 18.8295C80.2589 19.7233 75.711 16.3114 71.3277 13.1521C68.7344 14.8853 66.3017 16.8363 64.0537 18.9879C66.1497 23.9868 68.4533 29.2011 67.1821 30.803C65.9166 32.395 60.3518 31.2883 55.0341 30.345C53.4557 33.0066 52.1008 35.8192 50.9941 38.7532C55.0378 42.3383 59.3595 46.0398 58.9005 48.0626C58.4569 50.0211 52.9679 51.4398 47.7734 52.9154C47.6376 54.4802 47.5645 56.0599 47.5645 57.6618C47.5645 58.3006 47.579 58.9344 47.6031 59.5683C50.8835 60.5859 53.5096 61.6654 53.8129 62.9949C53.8878 63.3317 53.8272 63.7204 53.6597 64.1413H53.6616C56.4774 65.0698 58.631 66.0651 58.9005 67.2585C59.3595 69.2838 55.0378 72.9828 50.9941 76.5704C51.4657 77.8207 51.9921 79.0438 52.5504 80.2496L52.5233 80.2546C56.948 79.4821 61.031 78.9201 62.0896 80.2546C62.619 80.9206 62.5293 82.2106 62.0945 83.8496C64.5637 83.5872 66.5 83.659 67.1802 84.5206C68.4533 86.12 66.1467 91.3343 64.0537 96.3357L64.2239 96.4917C63.7776 96.1624 63.3368 95.8281 62.9038 95.484C63.9806 96.3332 65.0921 97.1404 66.2381 97.9054C70.6214 94.7462 75.1673 91.3343 77.015 92.2281C78.8308 93.1096 78.9917 98.8091 79.2649 104.226C82.1797 105.172 85.2052 105.873 88.3163 106.301C90.8954 101.54 93.5291 96.4818 95.6125 96.4818C97.6949 96.4818 100.328 101.54 102.908 106.301C106.019 105.873 109.047 105.172 111.96 104.226C112.235 98.8091 112.395 93.1096 114.21 92.2281C116.056 91.3343 120.604 94.7462 124.988 97.9054C124.777 97.7519 124.565 97.5984 124.352 97.4474C125.545 96.4867 126.7 95.4765 127.807 94.4168C125.714 89.418 123.408 84.2012 124.679 82.6017C125.267 81.859 126.787 81.703 128.777 81.8417C128.744 81.1608 128.847 80.6161 129.134 80.2546C130.177 78.9423 134.143 79.4648 138.481 80.215L138.391 80.2026C139.315 78.4051 140.147 76.5556 140.866 74.6491C136.826 71.064 132.503 67.3649 132.959 65.3421C133.215 64.2106 135.148 63.2623 137.733 62.3784V62.3809C138.628 61.2544 141.171 60.3061 144.17 59.3999C144.254 58.1892 144.297 56.971 144.297 55.743C144.297 54.141 144.224 52.5589 144.085 50.9966Z" fill="#F35DB6"/>
<path d="M141.28 80.7124C140.781 80.6257 140.284 80.5341 139.785 80.4475C140.284 80.5341 140.784 80.6257 141.28 80.7124Z" fill="#F35DB6"/>
<path d="M60.0993 93.127C59.7143 92.7803 59.3342 92.4287 58.959 92.0722C59.3342 92.4287 59.7163 92.7803 60.0993 93.127Z" fill="#F35DB6"/>
<path d="M64.0506 96.3357C66.1436 91.3344 68.4501 86.1201 67.177 84.5206C66.4968 83.659 64.5605 83.5872 62.0913 83.8497H62.0864C61.5274 85.9616 60.3957 88.648 59.2679 91.3344C59.1639 91.5795 59.0639 91.8246 58.959 92.0722C59.3342 92.4287 59.7143 92.7803 60.0993 93.1269L60.3486 93.3498C61.151 94.0628 61.9691 94.7536 62.8139 95.4172L62.9006 95.484C63.3337 95.8282 63.7744 96.1624 64.2208 96.4917L64.0506 96.3357Z" fill="#F145AB"/>
<path d="M47.7712 52.9151C52.9658 51.4394 58.4547 50.0207 58.8984 48.0623C59.3573 46.0394 55.0356 42.3379 50.992 38.7528C52.0986 35.8188 53.4535 33.0062 55.0319 30.3446C60.3496 31.2879 65.9145 32.3946 67.18 30.8026C68.4511 29.2007 66.1475 23.9864 64.0516 18.9875C66.2995 16.836 68.7322 14.8849 71.3256 13.1518C75.7089 16.311 80.2568 19.7229 82.1015 18.8291C83.9193 17.9501 84.0782 12.2506 84.3524 6.83077C86.4781 6.14247 88.6625 5.58535 90.8962 5.16692C90.1475 3.88192 89.3833 2.46568 88.6231 1.05936C88.5191 0.871193 88.4191 0.680584 88.3142 0.492413C85.203 0.92075 82.1746 1.6214 79.2627 2.56967C78.9895 7.98451 78.8277 13.6841 77.0118 14.5655C75.1652 15.4593 70.6193 12.0475 66.2359 8.88825C63.6426 10.6214 61.206 12.5724 58.96 14.724C61.054 19.7229 63.3625 24.9372 62.0874 26.5391C60.8229 28.1311 55.2571 27.0244 49.9413 26.0811C48.3592 28.7427 47.007 31.5528 45.9014 34.4868C49.942 38.0769 54.2648 41.7734 53.8088 43.7987C53.3641 45.7572 47.8742 47.1759 42.6796 48.6491C42.5439 50.2138 42.4707 51.7959 42.4707 53.3979C42.4707 54.9973 42.5439 56.5794 42.6796 58.1418C43.027 58.2408 43.3763 58.3398 43.7227 58.4364C45.0488 58.8127 46.3682 59.1841 47.601 59.5679C47.5768 58.934 47.5623 58.3002 47.5623 57.6614C47.5623 56.0595 47.6355 54.4798 47.7712 52.9151Z" fill="#F145AB"/>
<path d="M50.9929 76.5702C55.0365 72.9826 59.3583 69.2836 58.8993 67.2583C58.6298 66.0649 56.4762 65.0695 53.6604 64.1411H53.6585C53.3488 64.9309 52.6529 65.8569 51.7283 66.8621L51.7263 66.8646C51.4211 67.1964 51.0902 67.538 50.7409 67.8847L50.7244 67.8995C50.5532 68.0703 50.3771 68.2437 50.1953 68.417L50.176 68.4368C49.8151 68.7834 49.4407 69.135 49.051 69.4891L49.0059 69.5312C48.8191 69.702 48.6314 69.8728 48.44 70.0461L48.3745 70.1031C47.9934 70.4497 47.6066 70.7939 47.2139 71.143L47.1129 71.2321C46.9252 71.398 46.7377 71.5639 46.549 71.7322C46.3344 71.9229 46.1159 72.1135 45.9023 72.3066C47.008 75.2406 48.3602 78.0508 49.9422 80.7124C50.2095 80.6629 50.481 80.6158 50.7515 80.5688C51.3452 80.4623 51.937 80.3583 52.522 80.2544L52.5491 80.2494C51.9909 79.0436 51.4645 77.8205 50.9929 76.5702Z" fill="#F145AB"/>
<path d="M95.6087 87.1871C77.0698 87.1871 61.9867 72.0295 61.9867 53.3982C61.9867 34.7644 77.0698 19.6068 95.6087 19.6068C114.148 19.6068 129.23 34.7644 129.23 53.3982C129.23 72.0295 114.148 87.1871 95.6087 87.1871ZM95.6087 17.7028C76.0248 17.7028 60.0938 33.7146 60.0938 53.3982C60.0938 73.0793 76.0248 89.0911 95.6087 89.0911C115.192 89.0911 131.125 73.0793 131.125 53.3982C131.125 33.7146 115.192 17.7028 95.6087 17.7028Z" fill="#F03BA7"/>
<path d="M95.6131 65.867C88.7596 65.867 83.2041 60.2862 83.2041 53.3982C83.2041 46.5102 88.7596 40.9245 95.6131 40.9245C102.466 40.9245 108.022 46.5102 108.022 53.3982C108.022 60.2862 102.466 65.867 95.6131 65.867ZM121.399 43.5886C120.826 42.0659 120.122 40.6076 119.304 39.226C116.545 39.7163 113.658 40.2907 113.001 39.4637C112.342 38.6343 113.539 35.9306 114.624 33.3358C113.461 32.2192 112.196 31.2065 110.851 30.3102C108.578 31.9468 106.22 33.7171 105.258 33.2541C104.317 32.7961 104.234 29.8398 104.094 27.0296C102.582 26.5394 101.012 26.1754 99.396 25.9526C98.0564 28.4236 96.6948 31.0481 95.6131 31.0481C94.5326 31.0481 93.1661 28.4236 91.8303 25.9526C90.2145 26.1754 88.644 26.5394 87.1324 27.0296C86.9908 29.8398 86.908 32.7961 85.964 33.2541C85.0094 33.7171 82.6479 31.9468 80.374 30.3078C79.0297 31.2065 77.7652 32.2192 76.6017 33.3358C77.6893 35.9306 78.8843 38.6343 78.2241 39.4637C77.5688 40.2907 74.6791 39.7163 71.923 39.226C71.1031 40.6076 70.3988 42.0659 69.827 43.5886C71.923 45.448 74.1652 47.3669 73.9275 48.4191C73.6994 49.4343 70.8521 50.1696 68.1585 50.9347C68.0843 51.7468 68.0469 52.5663 68.0469 53.3982C68.0469 54.2252 68.0843 55.0472 68.1585 55.8593C70.8521 56.6243 73.6994 57.3597 73.9275 58.3773C74.1652 59.4246 71.923 61.3459 69.827 63.2053C70.3988 64.728 71.1031 66.1863 71.923 67.5654C74.6791 67.0777 77.5688 66.5033 78.2241 67.3278C78.8843 68.1597 77.6893 70.8659 76.6017 73.4606C77.7652 74.5748 79.0297 75.5874 80.374 76.4862C82.6479 74.8471 85.0094 73.0768 85.964 73.5398C86.908 73.9979 86.9908 76.9541 87.1324 79.7643C88.644 80.2545 90.2145 80.621 91.8303 80.8389C93.1661 78.3704 94.5326 75.7459 95.6131 75.7459C96.6948 75.7459 98.0564 78.3704 99.396 80.8389C101.012 80.621 102.582 80.2545 104.094 79.7643C104.234 76.9541 104.317 73.9979 105.258 73.5398C106.217 73.0768 108.578 74.8471 110.851 76.4862C112.196 75.5874 113.461 74.5748 114.624 73.4606C113.539 70.8659 112.342 68.1597 113.001 67.3278C113.658 66.5033 116.545 67.0777 119.304 67.5679C120.122 66.1864 120.826 64.728 121.399 63.2053C119.302 61.3459 117.061 59.4271 117.297 58.3773C117.527 57.3597 120.374 56.6243 123.068 55.8593C123.141 55.0472 123.178 54.2252 123.178 53.3982C123.178 52.5663 123.141 51.7468 123.068 50.9347C120.374 50.1696 117.527 49.4343 117.297 48.4191C117.061 47.3669 119.302 45.4505 121.399 43.5886Z" fill="#F036A4"/>
<path d="M109.755 16.9105C110.926 17.4775 113.185 16.3113 115.802 14.5757L115.644 14.6128L115.55 14.6376L115.417 14.6623L115.31 14.6797L115.186 14.6945L115.081 14.7019L114.968 14.7094L114.864 14.7069L114.759 14.7019L114.654 14.6896L114.564 14.6772L114.451 14.65L114.38 14.6327L114.209 14.5658C112.394 13.6843 112.234 7.98477 111.959 2.56993C109.045 1.62165 106.018 0.921005 102.907 0.492672C102.395 1.43847 101.879 2.39662 101.365 3.32509C103.459 3.73609 105.509 4.26597 107.507 4.91466C107.777 10.3295 107.94 16.0291 109.755 16.9105Z" fill="#F682C7"/>
<path d="M137.414 43.7991C136.958 41.7763 141.279 38.0773 145.321 34.4872C144.216 31.5557 142.862 28.7431 141.281 26.0814C135.967 27.0248 130.4 28.1315 129.133 26.5395C127.861 24.9376 130.169 19.7233 132.262 14.7244C130.017 12.5753 127.582 10.6218 124.988 8.88864C124.739 9.06938 124.486 9.25261 124.233 9.43087C123.191 10.1836 122.15 10.9387 121.146 11.6295L121.121 11.6468C123.492 13.276 125.734 15.0834 127.806 17.0691C125.713 22.068 123.407 27.2822 124.679 28.8842C125.944 30.4762 131.51 29.3695 136.826 28.4261C138.408 31.0877 139.762 33.9004 140.866 36.8319C136.826 40.4195 132.502 44.121 132.959 46.1438C133.403 48.1023 138.892 49.5234 144.085 50.9966C144.223 52.5589 144.296 54.141 144.296 55.743C144.296 56.971 144.253 58.1892 144.169 59.3999C145.279 59.0657 146.448 58.7364 147.616 58.4046C147.924 58.3179 148.232 58.2313 148.541 58.1421C148.679 56.5798 148.753 54.9977 148.753 53.3983C148.753 51.7963 148.679 50.2142 148.541 48.6494C143.347 47.1763 137.859 45.7576 137.414 43.7991Z" fill="#F682C7"/>
<path d="M132.959 65.3419C132.503 67.3647 136.826 71.0638 140.866 74.6489C140.148 76.5553 139.315 78.4049 138.391 80.2024L138.481 80.2148C138.914 80.2915 139.35 80.3682 139.788 80.4475C140.286 80.5341 140.784 80.6257 141.282 80.7124C142.862 78.0508 144.216 75.2406 145.322 72.3066C141.279 68.7166 136.958 65.0175 137.415 62.9972L137.468 62.8288L137.513 62.7273L137.539 62.6728L137.615 62.5416L137.628 62.5243L137.733 62.3807V62.3782C135.148 63.2621 133.215 64.2104 132.959 65.3419Z" fill="#F682C7"/>
<path d="M124.678 82.6015C123.407 84.2009 125.713 89.4177 127.806 94.4166C126.699 95.4763 125.544 96.4864 124.351 97.4471C124.564 97.5981 124.776 97.7516 124.987 97.9052C127.582 96.172 130.016 94.221 132.261 92.0719C132.176 91.8664 132.089 91.6633 132.004 91.4578C130.456 87.7761 128.886 84.0697 128.782 81.8414H128.776C126.786 81.7027 125.266 81.8587 124.678 82.6015Z" fill="#F682C7"/>
<path d="M141.803 71.9872H258.197V316.618H110.345V100.443V71.9872H141.803ZM203.259 334.893H169.833C167.556 334.893 165.707 333.036 165.707 330.746C165.707 328.451 167.556 326.594 169.833 326.594H203.259C205.54 326.594 207.388 328.451 207.388 330.746C207.388 333.036 205.54 334.893 203.259 334.893ZM103.658 81.8662V315.039C103.658 331.409 116.864 344.68 133.152 344.68H235.39C251.677 344.68 264.883 331.409 264.883 315.039V81.8662C264.883 65.4979 251.677 52.2244 235.39 52.2244H133.152C116.864 52.2244 103.658 65.4979 103.658 81.8662Z" fill="#44438C"/>
<path d="M251.806 310.57H116.733V107.873H251.806V310.57ZM125.355 100.443H110.344V316.618H258.196V100.443H237.177H125.355Z" fill="#C8C1BE"/>
<path d="M122.926 344.68H133.151C116.863 344.68 103.657 331.409 103.657 315.039V81.8662C103.657 65.4979 116.863 52.2244 133.151 52.2244H122.926C106.641 52.2244 93.4375 65.4979 93.4375 81.8662V315.039C93.4375 331.409 106.641 344.68 122.926 344.68Z" fill="#333269"/>
<path d="M124.503 214.009C124.503 211.637 126.518 209.715 129.005 209.715H149.204H230.925H239.983C242.466 209.715 244.484 211.637 244.484 214.009V226.809C244.484 229.181 242.466 231.105 239.983 231.105H222.16H137.092H129.005C126.518 231.105 124.503 229.181 124.503 226.809V214.009ZM128.336 187.516H215.04C216.491 187.516 217.666 188.695 217.666 190.153C217.666 191.609 216.491 192.788 215.04 192.788H128.336C126.885 192.788 125.712 191.609 125.712 190.153C125.712 188.695 126.885 187.516 128.336 187.516ZM128.336 165.515H215.04C216.491 165.515 217.666 166.694 217.666 168.155C217.666 169.61 216.491 170.791 215.04 170.791H128.336C126.885 170.791 125.712 169.61 125.712 168.155C125.712 166.694 126.885 165.515 128.336 165.515ZM128.336 143.517H215.04C216.491 143.517 217.666 144.7 217.666 146.154C217.666 147.609 216.491 148.79 215.04 148.79H128.336C126.885 148.79 125.712 147.609 125.712 146.154C125.712 144.7 126.885 143.517 128.336 143.517ZM128.336 121.516H215.04C216.491 121.516 217.666 122.697 217.666 124.152C217.666 125.613 216.491 126.792 215.04 126.792H128.336C126.885 126.792 125.712 125.613 125.712 124.152C125.712 122.697 126.885 121.516 128.336 121.516ZM242.338 291.592C242.338 294.038 240.259 296.024 237.697 296.024H208.766H140.526H130.536C127.972 296.024 125.896 294.038 125.896 291.592V252.091C125.896 249.645 127.972 247.659 130.536 247.659H151.514H229.284H237.697C240.259 247.659 242.338 249.645 242.338 252.091V291.592ZM116.732 310.57H251.806V107.873H116.732V310.57Z" fill="#FDFEFF"/>
<path d="M192.052 80.0366C195.284 80.0366 197.908 82.6734 197.908 85.9243C197.908 89.1752 195.284 91.8145 192.052 91.8145C188.817 91.8145 186.194 89.1752 186.194 85.9243C186.194 82.6734 188.817 80.0366 192.052 80.0366ZM212.06 80.0366C215.295 80.0366 217.916 82.6734 217.916 85.9243C217.916 89.1752 215.295 91.8145 212.06 91.8145C208.826 91.8145 206.202 89.1752 206.202 85.9243C206.202 82.6734 208.826 80.0366 212.06 80.0366ZM232.069 80.0366C235.306 80.0366 237.927 82.6734 237.927 85.9243C237.927 89.1752 235.306 91.8145 232.069 91.8145C228.835 91.8145 226.213 89.1752 226.213 85.9243C226.213 82.6734 228.835 80.0366 232.069 80.0366ZM125.354 100.443H237.176C239.11 99.3686 240.849 97.9226 242.285 95.9716C247 89.5788 246.688 80.4278 246.084 71.9874H141.8C139.657 72.8415 137.605 73.9334 135.694 75.3472C128.137 80.9304 125.983 90.9727 125.354 100.443Z" fill="#FBC4C4"/>
<path d="M128.335 126.792H215.039C216.49 126.792 217.665 125.613 217.665 124.153C217.665 122.697 216.49 121.516 215.039 121.516H128.335C126.884 121.516 125.711 122.697 125.711 124.153C125.711 125.613 126.884 126.792 128.335 126.792Z" fill="#272650"/>
<path d="M128.335 148.79H215.039C216.49 148.79 217.665 147.609 217.665 146.154C217.665 144.7 216.49 143.517 215.039 143.517H128.335C126.884 143.517 125.711 144.7 125.711 146.154C125.711 147.609 126.884 148.79 128.335 148.79Z" fill="#272650"/>
<path d="M128.335 170.792H215.039C216.49 170.792 217.665 169.61 217.665 168.155C217.665 166.694 216.49 165.515 215.039 165.515H128.335C126.884 165.515 125.711 166.694 125.711 168.155C125.711 169.61 126.884 170.792 128.335 170.792Z" fill="#272650"/>
<path d="M128.335 192.788H215.039C216.49 192.788 217.665 191.609 217.665 190.153C217.665 188.695 216.49 187.516 215.039 187.516H128.335C126.884 187.516 125.711 188.695 125.711 190.153C125.711 191.609 126.884 192.788 128.335 192.788Z" fill="#272650"/>
<path d="M203.257 326.594H169.831C167.554 326.594 165.705 328.451 165.705 330.746C165.705 333.036 167.554 334.893 169.831 334.893H203.257C205.538 334.893 207.386 333.036 207.386 330.746C207.386 328.451 205.538 326.594 203.257 326.594Z" fill="#FDFEFF"/>
<path d="M192.054 91.8147C195.286 91.8147 197.909 89.1754 197.909 85.9245C197.909 82.6736 195.286 80.0367 192.054 80.0367C188.819 80.0367 186.195 82.6736 186.195 85.9245C186.195 89.1754 188.819 91.8147 192.054 91.8147Z" fill="#7AB8DF"/>
<path d="M212.063 91.8147C215.298 91.8147 217.919 89.1754 217.919 85.9245C217.919 82.6736 215.298 80.0367 212.063 80.0367C208.829 80.0367 206.205 82.6736 206.205 85.9245C206.205 89.1754 208.829 91.8147 212.063 91.8147Z" fill="#7AB8DF"/>
<path d="M232.069 91.8147C235.306 91.8147 237.927 89.1754 237.927 85.9245C237.927 82.6736 235.306 80.0367 232.069 80.0367C228.834 80.0367 226.213 82.6736 226.213 85.9245C226.213 89.1754 228.834 91.8147 232.069 91.8147Z" fill="#7AB8DF"/>
<path d="M137.093 231.105H222.161C223.955 230.442 225.637 229.548 227.135 228.327C232.38 224.039 231.197 216.381 230.926 209.716H149.206C147.794 210.203 146.427 210.751 145.113 211.365C137.706 214.838 137.032 223.615 137.093 231.105Z" fill="#7AB8DF"/>
<path d="M264.88 81.8662V315.039C264.88 331.409 251.673 344.68 235.387 344.68H245.61C261.899 344.68 275.103 331.409 275.103 315.039V81.8662C275.103 65.4979 261.899 52.2244 245.61 52.2244H235.387C251.673 52.2244 264.88 65.4979 264.88 81.8662Z" fill="#5251A1"/>
<path d="M225.213 286.023C232.215 275.216 230.401 260.62 229.283 247.659H151.513L151.51 247.664C135.916 257.555 139.745 279.655 140.525 296.024H208.765C215.372 294.687 221.417 291.886 225.213 286.023Z" fill="#FBC4C4"/>
<path d="M151.511 247.664L151.514 247.659H130.536C127.972 247.659 125.896 249.645 125.896 252.091V291.592C125.896 294.038 127.972 296.024 130.536 296.024H140.526C139.746 279.655 135.917 257.555 151.511 247.664Z" fill="#F8A6B8"/>
<path d="M237.697 247.659H229.284C230.403 260.62 232.216 275.216 225.214 286.023C221.418 291.886 215.373 294.687 208.766 296.024H237.697C240.259 296.024 242.338 294.038 242.338 291.592V252.091C242.338 249.645 240.259 247.659 237.697 247.659Z" fill="#FCD8D7"/>
<path d="M227.134 228.327C225.636 229.548 223.954 230.442 222.16 231.105H239.984C242.467 231.105 244.484 229.181 244.484 226.809V214.009C244.484 211.637 242.467 209.716 239.984 209.716H230.925C231.196 216.381 232.379 224.039 227.134 228.327Z" fill="#97CBE6"/>
<path d="M129.005 231.105H137.093C137.031 223.615 137.705 214.838 145.113 211.365C146.426 210.751 147.794 210.203 149.205 209.716H129.005C126.519 209.716 124.504 211.637 124.504 214.009V226.809C124.504 229.181 126.519 231.105 129.005 231.105Z" fill="#4EACDD"/>
<path d="M110.344 100.443H125.355C125.984 90.9727 128.138 80.9304 135.696 75.3472C137.606 73.9334 139.659 72.8415 141.802 71.9874H110.344V100.443Z" fill="#F8A6B8"/>
<path d="M242.285 95.9716C240.849 97.9226 239.11 99.3686 237.176 100.443H258.194V71.9874H246.084C246.687 80.4278 247 89.5788 242.285 95.9716Z" fill="#FCD8D7"/>
<path d="M10.2631 286.474C10.5498 286.573 10.8319 286.679 11.1206 286.791C11.2332 286.835 11.3438 286.883 11.4574 286.93C11.6229 286.996 11.7816 287.068 11.9462 287.142C12.2329 287.271 12.5187 287.41 12.8017 287.558L13.0451 287.68C13.4176 287.88 13.7881 288.093 14.1547 288.324C14.6109 288.616 15.0477 288.925 15.4702 289.247L15.7175 289.108L61.46 216.044C60.9469 215.784 60.4419 215.499 59.9462 215.185C59.185 214.707 58.4816 214.172 57.8194 213.6L57.5356 213.353L57.2344 213.078C57.0188 212.877 56.8072 212.669 56.6022 212.461L4.61523 295.494L10.2631 286.474Z" fill="#30B888"/>
<path d="M86.2759 206.336C86.2084 206.507 86.1402 206.67 86.0709 206.839C86.018 206.97 85.963 207.098 85.9064 207.227C85.8081 207.445 85.7071 207.658 85.6021 207.873L85.507 208.067C85.3819 208.312 85.2538 208.559 85.1144 208.802V208.804C84.9757 209.047 84.8419 209.29 84.6919 209.525C83.9287 210.746 83.0435 211.835 82.0618 212.801L101.267 224.945C101.706 223.64 102.303 222.363 103.066 221.147C103.33 220.723 103.615 220.322 103.905 219.931L103.91 219.924C104.164 219.585 104.43 219.253 104.704 218.936C104.799 218.824 104.898 218.713 104.998 218.602L105.281 218.29C105.5 218.059 105.722 217.834 105.945 217.621L117.47 224.908L75.2266 198.193L86.606 205.393C86.5077 205.71 86.3951 206.024 86.2759 206.336Z" fill="#30B888"/>
<path d="M25.4119 283.671L39.7764 275.617C36.8163 268.883 36.9414 261.111 40.7463 254.597C40.8599 254.401 40.9715 254.203 41.0919 254.007C41.2996 253.675 41.5144 253.351 41.7406 253.034C41.932 252.757 42.136 252.49 42.34 252.225L42.4141 252.121C42.88 251.526 43.3744 250.962 43.8873 250.427L43.8932 250.417V250.42C51.4722 242.531 64.2344 241.038 74.403 247.468C76.7609 248.959 78.7943 250.769 80.482 252.787L93.681 245.386C91.1559 243.386 88.2576 241.798 85.5342 240.13C81.3674 237.58 77.2046 235.027 73.0395 232.477C67.7701 229.251 62.4888 226.044 57.2038 222.845L61.4593 216.044L15.7168 289.108L22.807 277.784C23.4374 279.878 24.3265 281.834 25.4119 283.671Z" fill="#64C99F"/>
<path d="M42.6218 252.967C39.8388 259.543 40.418 267.033 43.841 273.334L49.767 270.014L49.4388 269.828C47.336 268.573 46.0476 266.464 45.8148 263.896C45.679 262.398 45.9466 260.932 46.5624 259.605L45.2459 258.771C44.6589 258.399 44.481 257.622 44.8515 257.033C45.2191 256.443 45.9956 256.268 46.5797 256.637L47.9462 257.501C48.2177 257.194 48.5131 256.899 48.8306 256.624C51.0689 254.698 54.0473 253.96 56.7917 254.648C57.4635 254.817 57.8724 255.503 57.7039 256.181C57.5357 256.854 56.8543 257.265 56.1807 257.097C54.2242 256.604 52.0871 257.144 50.4666 258.541C50.3415 258.645 50.2316 258.761 50.118 258.875L59.2899 264.673L75.2431 255.728C73.9121 254.401 72.4167 253.193 70.7568 252.143C61.5839 246.342 50.3077 247 42.6218 252.967Z" fill="#239570"/>
<path d="M48.3152 263.666C48.4758 265.406 49.3304 266.827 50.7238 267.662C51.3502 268.036 52.0413 268.263 52.7379 268.348L56.7921 266.075L48.7136 260.967C48.3738 261.816 48.2295 262.732 48.3152 263.666Z" fill="#239570"/>
<path d="M43.8931 250.416L43.8867 250.427L43.8931 250.419V250.416Z" fill="#1F8161"/>
<path d="M42.6203 252.967C41.9706 253.475 41.3432 254.015 40.7455 254.597C36.9406 261.111 36.8155 268.883 39.7756 275.617L43.8394 273.334C40.4164 267.033 39.8372 259.544 42.6203 252.967Z" fill="#1F8161"/>
<path d="M43.893 250.42L43.8871 250.427C43.3742 250.962 42.8797 251.526 42.4139 252.121L42.3397 252.225C42.1358 252.49 41.9318 252.757 41.7404 253.034C41.5142 253.351 41.2994 253.675 41.0917 254.007C40.9713 254.203 40.8597 254.401 40.7461 254.597C41.3437 254.015 41.9712 253.475 42.6208 252.967C50.3067 247 61.583 246.342 70.7558 252.143C72.4158 253.193 73.9111 254.401 75.2422 255.728L80.4818 252.787C78.794 250.769 76.7607 248.959 74.4028 247.468C64.2342 241.038 51.472 242.531 43.893 250.42Z" fill="#35A685"/>
<path d="M50.7224 267.662C49.329 266.828 48.4744 265.406 48.3138 263.666C48.2281 262.732 48.3724 261.816 48.7122 260.967L46.5615 259.605C45.9456 260.932 45.6781 262.398 45.8138 263.896C46.0466 266.464 47.3351 268.573 49.4379 269.828L49.766 270.014L52.7365 268.348C52.0399 268.264 51.3488 268.036 50.7224 267.662Z" fill="#18674C"/>
<path d="M50.4638 258.541C52.0843 257.144 54.2214 256.604 56.1779 257.097C56.8514 257.266 57.5328 256.855 57.7011 256.181C57.8696 255.503 57.4606 254.817 56.7888 254.648C54.0445 253.96 51.0661 254.698 48.8278 256.624C48.5102 256.899 48.2148 257.194 47.9434 257.501L50.1152 258.875C50.2288 258.761 50.3386 258.645 50.4638 258.541Z" fill="#18674C"/>
<path d="M47.9444 257.501L46.5779 256.637C45.9938 256.268 45.2173 256.444 44.8497 257.033C44.4792 257.622 44.6571 258.399 45.2442 258.771L46.5606 259.605L48.7113 260.967L56.7899 266.075L59.2881 264.673L50.1162 258.875L47.9444 257.501Z" fill="#18674C"/>
<path d="M61.4586 216.044L57.2031 222.845C62.4881 226.044 67.7694 229.251 73.0388 232.477C77.2039 235.027 81.3667 237.58 85.5335 240.13C88.2569 241.799 91.1552 243.386 93.6803 245.386L102.957 240.184C100.209 235.666 99.5285 230.073 101.267 224.945L82.0624 212.801C76.6659 218.126 68.3717 219.535 61.4586 216.044Z" fill="#82D3B0"/>
<path d="M82.0608 212.8C83.0425 211.835 83.9276 210.745 84.6908 209.525C84.8409 209.29 84.9746 209.047 85.1133 208.804C83.4197 207.819 74.452 201.48 70.4737 202.28C66.9585 202.988 64.9828 205.335 62.8868 208.049C61.3646 210.022 59.7776 212.06 58.7383 214.345C58.4207 214.105 58.1157 213.858 57.8164 213.6C58.4786 214.172 59.1819 214.707 59.9432 215.185C60.4388 215.499 60.9438 215.784 61.457 216.044C68.3701 219.535 76.6642 218.126 82.0608 212.8Z" fill="#239570"/>
<path d="M103.91 219.924C104.164 219.584 104.432 219.257 104.704 218.936C104.43 219.253 104.164 219.584 103.91 219.924Z" fill="#239570"/>
<path d="M102.959 240.184L105.249 238.897C108.294 237.191 111.951 237.646 114.48 239.756C115.465 237.213 115.913 234.593 115.388 231.818C114.337 226.314 109.667 223.415 103.907 219.931C103.617 220.322 103.332 220.723 103.068 221.147C102.305 222.362 101.709 223.64 101.269 224.945C99.53 230.072 100.21 235.666 102.959 240.184Z" fill="#239570"/>
<path d="M22.807 277.784L15.7168 289.108L17.2767 288.232L25.4119 283.671C24.3265 281.834 23.4374 279.878 22.807 277.784Z" fill="#4FC296"/>
<path d="M13.0442 287.68C12.1369 289.017 11.1118 290.581 10.1602 292.223L15.4693 289.247C15.0468 288.925 14.61 288.616 14.1538 288.323C13.7872 288.093 13.4167 287.88 13.0442 287.68Z" fill="#239570"/>
<path d="M11.9434 287.142C12.2302 287.274 12.5161 287.41 12.7992 287.558C12.5161 287.41 12.2302 287.271 11.9434 287.142Z" fill="#239570"/>
<path d="M105.282 218.289L104.999 218.601C104.899 218.713 104.8 218.824 104.705 218.936C104.433 219.257 104.165 219.584 103.911 219.924L103.906 219.931C109.666 223.415 114.336 226.314 115.387 231.818C115.912 234.593 115.464 237.213 114.479 239.756C115.238 240.389 115.903 241.162 116.412 242.081V242.083L120.048 236.282C122.461 232.427 121.309 227.334 117.471 224.908L105.946 217.621C105.723 217.834 105.501 218.059 105.282 218.289Z" fill="#35A685"/>
<path d="M57.535 213.353L57.8188 213.6C58.1181 213.858 58.4231 214.105 58.7406 214.346C59.78 212.06 61.367 210.023 62.8892 208.049C64.9851 205.336 66.9609 202.989 70.4761 202.28C74.4544 201.481 83.4221 207.819 85.1157 208.804V208.802C85.2552 208.559 85.3833 208.312 85.5084 208.067L85.6035 207.874C85.7084 207.658 85.8094 207.445 85.9077 207.227C85.9644 207.099 86.0193 206.97 86.0723 206.839C86.1415 206.67 86.2098 206.507 86.2773 206.336C86.3965 206.024 86.5091 205.71 86.6074 205.393L75.2279 198.193C71.3912 195.769 66.3255 196.927 63.914 200.782L56.6016 212.461C56.8065 212.669 57.0181 212.877 57.2337 213.078L57.535 213.353Z" fill="#35A685"/>
<path d="M13.0451 287.68L12.8017 287.558C12.5187 287.41 12.2329 287.274 11.9462 287.142C11.7816 287.068 11.6229 286.996 11.4574 286.93C11.3438 286.883 11.2332 286.835 11.1206 286.791C10.8319 286.679 10.5498 286.573 10.2631 286.474L4.61523 295.494C4.99067 295.184 5.39666 294.895 5.83837 294.649L10.1611 292.223C11.1127 290.582 12.1378 289.017 13.0451 287.68Z" fill="#35A685"/>
<path d="M20.9974 336.993C21.2321 336.802 21.4738 336.619 21.7182 336.441L21.7317 336.431C22.2801 336.032 22.8546 335.663 23.4599 335.324C25.0873 334.41 26.7992 333.779 28.5323 333.415L17.1646 312.934C15.9425 314.227 14.5134 315.356 12.8823 316.269L12.7082 316.363L12.6889 316.371C12.1443 316.67 11.587 316.938 11.0251 317.173L10.9499 317.203C10.692 317.309 10.4314 317.413 10.1705 317.505C9.87905 317.609 9.58639 317.708 9.29102 317.797L26.9906 349.672L20.2844 337.594C20.5143 337.389 20.752 337.186 20.9974 336.993Z" fill="#30B888"/>
<path d="M124.811 302.899L124.781 302.86C124.532 302.55 124.29 302.236 124.058 301.909C123.665 301.362 123.296 300.785 122.961 300.183C122.703 299.715 122.472 299.245 122.26 298.769L51.9056 338.223L47.0488 340.944C47.3425 341.377 47.6216 341.821 47.8793 342.289C48.1266 342.729 48.3404 343.182 48.5471 343.636L48.5607 343.665C48.7272 344.034 48.8782 344.406 49.0169 344.779C49.0659 344.911 49.115 345.042 49.1593 345.173C49.2074 345.304 49.2527 345.438 49.2958 345.574C49.3892 345.866 49.4788 346.161 49.5577 346.458L38.1523 352.856L137.564 297.106L125.61 303.81C125.336 303.516 125.072 303.211 124.811 302.899Z" fill="#30B888"/>
<path d="M121.791 254.901L121.473 255.151C121.283 255.3 121.087 255.441 120.888 255.582L120.726 255.693C120.269 256.01 119.802 256.31 119.309 256.587C118.06 257.288 116.759 257.818 115.439 258.194L126.494 278.105C127.505 277.175 128.637 276.34 129.886 275.639C130.321 275.399 130.761 275.181 131.204 274.978L131.221 274.971C131.602 274.798 131.989 274.637 132.377 274.493C132.517 274.439 132.657 274.387 132.794 274.337C132.93 274.29 133.062 274.246 133.197 274.203C133.495 274.107 133.794 274.015 134.095 273.936L122.961 253.884C122.725 254.111 122.476 254.334 122.224 254.55C122.082 254.671 121.939 254.785 121.791 254.901Z" fill="#30B888"/>
<path d="M20.5858 293.298L95.8143 251.108C95.4899 250.633 95.1783 250.14 94.8942 249.622C94.4555 248.835 94.0916 248.028 93.7856 247.208C93.7386 247.09 93.6962 246.971 93.6519 246.852C93.6068 246.726 93.5634 246.599 93.524 246.468C93.4287 246.188 93.3402 245.906 93.2621 245.621L105.249 238.897L102.959 240.184L93.6817 245.386L80.4827 252.787L75.243 255.728L59.2898 264.674L56.7916 266.075L52.7374 268.348L49.7669 270.014L43.8409 273.334L39.7771 275.617L25.4126 283.671L17.2773 288.232C17.4853 288.457 17.6833 288.685 17.8797 288.923L18.1125 289.21C18.2204 289.346 18.3263 289.485 18.432 289.626C18.6256 289.876 18.8094 290.138 18.9892 290.403L19.1412 290.631C19.378 290.988 19.6031 291.352 19.8111 291.73C20.0978 292.245 20.3538 292.77 20.5858 293.298Z" fill="#30B888"/>
<path d="M84.4985 317.663H84.5005C84.3061 317.777 84.1204 317.898 83.9201 318.007C83.5429 318.22 83.1628 318.418 82.7797 318.604L82.5526 318.708C82.2284 318.859 81.9059 319.005 81.5798 319.139L81.4221 319.203C81.0622 319.349 80.7023 319.483 80.3364 319.609L80.2758 319.631C69.7424 323.234 57.5268 318.413 51.5713 307.69C44.9168 295.704 48.6141 280.891 59.824 274.604C60.1637 274.414 60.5035 274.233 60.8518 274.062C71.9048 268.603 85.7187 273.297 92.1739 284.919C98.7118 296.697 95.2552 311.196 84.4985 317.663ZM111.498 304.803C112.425 301.282 111.97 297.383 110.524 293.483C109.267 290.096 107.231 286.964 105.44 283.849C103.005 279.603 100.567 275.355 98.1296 271.108C95.0463 265.738 91.944 260.375 88.8289 255.027L95.8125 251.108L20.584 293.298L32.4317 286.652C31.2539 292.263 32.1181 297.876 33.7588 303.355C35.6035 309.512 39.4345 314.997 42.3378 320.681C43.9285 323.798 45.5211 326.908 47.2658 329.941C48.8584 332.712 50.7425 335.242 51.9051 338.223L122.259 298.769H122.257L111.498 304.803Z" fill="#64C99F"/>
<path d="M81.8118 301.753C81.2979 299.002 79.1192 296.591 76.6278 296.024C75.0862 295.672 73.7312 295.677 72.3965 295.791L79.2337 308.106C82.0744 305.888 82.083 303.204 81.8118 301.753Z" fill="#239570"/>
<path d="M61.1953 280.784C60.8556 280.175 61.0731 279.41 61.6794 279.068C62.2817 278.732 63.0498 278.95 63.3886 279.556L64.1737 280.972C64.5548 280.834 64.9551 280.717 65.368 280.631C68.2491 280.019 71.2129 280.804 73.2926 282.733C73.8045 283.203 73.8343 284.003 73.3658 284.515C72.897 285.028 72.1022 285.06 71.5913 284.587C70.1073 283.211 67.9759 282.654 65.8846 283.099C65.7249 283.131 65.5749 283.181 65.4237 283.223L71.0648 293.392C72.9125 293.176 74.8535 293.033 77.1859 293.565C80.662 294.357 83.5797 297.534 84.2821 301.287C84.9384 304.803 83.5489 308.074 80.4676 310.327L81.3249 311.86C81.6599 312.471 81.4424 313.239 80.8371 313.578L80.7659 313.615C80.1722 313.9 79.4534 313.674 79.1299 313.09L78.2879 311.575C74.7909 313.078 70.5152 312.795 68.0798 309.218C67.6901 308.643 67.8372 307.856 68.4097 307.462C68.9824 307.069 69.7639 307.217 70.1553 307.792C71.7662 310.161 74.5869 310.372 77.0638 309.369L69.6934 296.09C68.3262 296.244 66.8885 296.35 65.2111 296.192C62.9565 295.974 60.8056 294.565 59.596 292.51C58.3546 290.391 58.2285 287.922 59.2496 285.553C59.8453 284.176 60.7777 283.018 61.9518 282.151L61.1953 280.784ZM56.3222 305.546C61.6025 315.051 71.8009 319.921 81.3941 318.391C90.2869 311.345 92.7832 298.145 86.7446 287.266C81.4636 277.756 71.2582 272.896 61.6621 274.429C52.7743 281.477 50.2866 294.672 56.3222 305.546Z" fill="#239570"/>
<path d="M63.1928 284.384C62.4853 284.966 61.9243 285.699 61.5518 286.558C60.862 288.163 60.9323 289.821 61.7597 291.225C62.5633 292.599 63.9789 293.538 65.4493 293.679C66.4924 293.778 67.4344 293.756 68.3546 293.686L63.1928 284.384Z" fill="#239570"/>
<path d="M84.5005 317.663H84.4985C84.3061 317.779 84.1203 317.896 83.9199 318.007C84.1203 317.898 84.3061 317.777 84.5005 317.663Z" fill="#1F8161"/>
<path d="M59.8242 274.604C60.164 274.414 60.5066 274.233 60.8523 274.062C60.5039 274.233 60.164 274.414 59.8242 274.604Z" fill="#1F8161"/>
<path d="M81.3939 318.391C71.8007 319.921 61.6023 315.051 56.322 305.546C50.2864 294.672 52.774 281.477 61.6619 274.428C60.8497 274.56 60.0375 274.731 59.2378 274.953C59.4332 274.835 59.6265 274.716 59.8258 274.604C48.6159 280.891 44.9186 295.704 51.5731 307.69C57.5286 318.413 69.7442 323.234 80.2777 319.631C79.8803 319.765 79.481 319.889 79.0816 320C79.8938 319.51 80.6637 318.97 81.3939 318.391Z" fill="#1F8161"/>
<path d="M81.4219 319.203C81.0619 319.349 80.6979 319.485 80.3359 319.609C80.7019 319.483 81.0619 319.349 81.4219 319.203Z" fill="#1F8161"/>
<path d="M60.8521 274.062C60.5065 274.233 60.1641 274.414 59.8244 274.604C59.6251 274.716 59.4317 274.835 59.2363 274.954C60.036 274.731 60.8482 274.56 61.6604 274.429C71.2565 272.896 81.4619 277.756 86.7429 287.266C92.7815 298.146 90.2852 311.345 81.3924 318.391C80.6622 318.971 79.8924 319.51 79.0802 320C79.4795 319.889 79.8788 319.765 80.2762 319.632L80.3368 319.609C80.6987 319.486 81.0625 319.349 81.4225 319.203L81.5801 319.139C81.9063 319.005 82.2288 318.859 82.553 318.708L82.7801 318.604C83.1632 318.418 83.5433 318.22 83.9205 318.007C84.1207 317.896 84.3065 317.78 84.4989 317.663C95.2556 311.196 98.7121 296.697 92.1742 284.919C85.7191 273.297 71.9052 268.603 60.8521 274.062Z" fill="#35A685"/>
<path d="M70.1547 307.792C69.7632 307.217 68.9818 307.069 68.4091 307.462C67.8365 307.856 67.6895 308.643 68.0792 309.218C70.5146 312.795 74.7903 313.078 78.2872 311.575L77.0631 309.369C74.5863 310.372 71.7656 310.161 70.1547 307.792Z" fill="#18674C"/>
<path d="M76.6286 296.024C79.1199 296.591 81.2986 299.002 81.8125 301.753C82.0838 303.204 82.0751 305.888 79.2345 308.106L80.4652 310.327C83.5466 308.074 84.936 304.803 84.2797 301.287C83.5774 297.534 80.6596 294.357 77.1836 293.565C74.8511 293.033 72.9101 293.176 71.0625 293.392L72.3972 295.791C73.732 295.677 75.0869 295.672 76.6286 296.024Z" fill="#18674C"/>
<path d="M65.8847 283.099C67.976 282.654 70.1074 283.211 71.5915 284.587C72.1024 285.06 72.8971 285.028 73.3659 284.516C73.8345 284.003 73.8047 283.203 73.2928 282.733C71.2131 280.804 68.2492 280.019 65.3681 280.631C64.9553 280.717 64.5549 280.834 64.1738 280.972L65.4238 283.223C65.5751 283.181 65.7251 283.131 65.8847 283.099Z" fill="#18674C"/>
<path d="M59.5953 292.51C60.8049 294.565 62.9558 295.974 65.2104 296.192C66.8878 296.35 68.3255 296.244 69.6928 296.091L68.3553 293.686C67.4352 293.756 66.4932 293.778 65.4501 293.679C63.9796 293.538 62.5641 292.599 61.7605 291.225C60.933 289.821 60.8628 288.163 61.5526 286.558C61.9251 285.699 62.486 284.966 63.1935 284.384L61.9512 282.151C60.7771 283.018 59.8446 284.176 59.2489 285.553C58.2278 287.922 58.354 290.391 59.5953 292.51Z" fill="#18674C"/>
<path d="M68.3544 293.686L69.6918 296.09L77.0621 309.369L78.2862 311.575L79.1283 313.09C79.4517 313.674 80.1706 313.9 80.7643 313.615L80.8355 313.578C81.4408 313.239 81.6583 312.471 81.3233 311.86L80.466 310.327L79.2352 308.106L72.398 295.791L71.0632 293.392L65.422 283.223L64.1721 280.972L63.3869 279.556C63.0482 278.95 62.2801 278.732 61.6777 279.068C61.0715 279.41 60.854 280.175 61.1937 280.784L61.9502 282.151L63.1926 284.384L68.3544 293.686Z" fill="#18674C"/>
<path d="M95.8136 251.108L88.8301 255.027C91.9452 260.375 95.0475 265.738 98.1308 271.108C100.568 275.355 103.006 279.603 105.442 283.849C107.232 286.964 109.269 290.096 110.525 293.483C111.971 297.383 112.426 301.282 111.499 304.803L122.259 298.769C119.058 291.616 120.88 283.28 126.496 278.105L115.441 258.194C108.165 260.266 100.21 257.503 95.8136 251.108Z" fill="#82D3B0"/>
<path d="M120.891 255.582C121.09 255.441 121.286 255.299 121.476 255.151C121.286 255.297 121.09 255.441 120.891 255.582Z" fill="#239570"/>
<path d="M94.8937 249.622C95.1778 250.14 95.4894 250.633 95.8139 251.108C100.21 257.503 108.165 260.266 115.441 258.194C116.76 257.818 118.061 257.288 119.311 256.587C119.804 256.31 120.271 256.01 120.728 255.693C120.5 255.852 120.266 256.008 120.025 256.156C119.008 254.475 114.167 244.591 110.293 243.376C106.868 242.304 104.02 243.41 100.882 244.782C98.6035 245.78 96.2361 246.802 94.2384 248.308C94.0758 247.944 93.9239 247.575 93.7852 247.208C94.0911 248.028 94.455 248.835 94.8937 249.622Z" fill="#239570"/>
<path d="M124.057 301.909C124.289 302.236 124.531 302.55 124.78 302.86C124.529 302.55 124.289 302.236 124.057 301.909Z" fill="#239570"/>
<path d="M131.221 274.971C131.602 274.797 131.989 274.639 132.376 274.493C131.989 274.636 131.602 274.797 131.221 274.971Z" fill="#239570"/>
<path d="M124.812 302.899C125.073 303.211 125.337 303.516 125.611 303.81C125.337 303.516 125.069 303.213 124.812 302.899Z" fill="#239570"/>
<path d="M122.258 298.769H122.259C122.471 299.245 122.702 299.715 122.96 300.183C123.296 300.785 123.664 301.362 124.057 301.909C129.163 299.203 133.908 296.246 135.602 290.943C137.308 285.607 134.596 280.811 131.204 274.978C130.762 275.181 130.321 275.399 129.887 275.639C128.638 276.34 127.505 277.174 126.495 278.105C120.879 283.28 119.057 291.616 122.258 298.769Z" fill="#239570"/>
<path d="M47.2659 329.941C45.5213 326.908 43.9286 323.798 42.3379 320.681C39.4347 314.997 35.6037 309.512 33.759 303.355C32.1183 297.876 31.2541 292.263 32.4319 286.652L20.5842 293.298C23.5172 300.027 22.0411 307.769 17.1641 312.934L28.5317 333.415C35.5219 331.944 42.9105 334.804 47.0484 340.944L51.9052 338.223C50.7427 335.242 48.8586 332.712 47.2659 329.941Z" fill="#4FC296"/>
<path d="M17.1656 312.934C22.0427 307.769 23.5188 300.027 20.5857 293.298C20.3537 292.77 20.0977 292.245 19.811 291.73C19.603 291.352 19.3779 290.988 19.1411 290.631C15.063 292.741 9.20825 295.92 7.34904 299.752C4.6643 305.291 10.0109 311.458 12.7091 316.363L12.8833 316.269C14.5144 315.356 15.9435 314.227 17.1656 312.934Z" fill="#239570"/>
<path d="M132.793 274.337C132.657 274.386 132.516 274.438 132.377 274.493C131.989 274.639 131.602 274.797 131.221 274.971L131.204 274.978C134.596 280.811 137.308 285.607 135.601 290.943C133.908 296.246 129.163 299.203 124.057 301.909C124.288 302.236 124.529 302.55 124.78 302.86L124.81 302.899C125.066 303.214 125.334 303.516 125.609 303.81L137.563 297.106C141.522 294.887 142.938 289.866 140.73 285.887L134.094 273.936C133.794 274.015 133.495 274.107 133.197 274.203C133.062 274.245 132.93 274.29 132.793 274.337Z" fill="#35A685"/>
<path d="M116.412 242.081C115.904 241.162 115.239 240.39 114.48 239.756C111.95 237.646 108.293 237.191 105.248 238.897L93.2617 245.621C93.3398 245.906 93.4282 246.188 93.5236 246.468C93.563 246.599 93.6064 246.725 93.6514 246.852C93.6958 246.971 93.7382 247.089 93.7852 247.208C93.9239 247.575 94.0759 247.944 94.2385 248.308C96.2362 246.802 98.6036 245.78 100.882 244.782C104.02 243.41 106.868 242.303 110.293 243.376C114.167 244.591 119.008 254.475 120.026 256.156C120.266 256.008 120.5 255.852 120.728 255.693L120.89 255.582C121.089 255.441 121.285 255.297 121.475 255.151L121.792 254.901C121.94 254.785 122.084 254.671 122.225 254.549C122.477 254.334 122.727 254.111 122.963 253.883H122.967L116.412 242.083V242.081Z" fill="#35A685"/>
<path d="M9.28959 317.797C9.58496 317.708 9.87763 317.609 10.1691 317.505C10.4299 317.413 10.6906 317.309 10.9485 317.203L11.0237 317.173C11.5856 316.938 12.1428 316.67 12.6875 316.371L12.7067 316.363C10.0084 311.459 4.66188 305.291 7.34661 299.752C9.20583 295.92 15.0606 292.741 19.1387 290.631L18.9867 290.403C18.8069 290.138 18.6231 289.876 18.4295 289.626C18.3238 289.485 18.2178 289.346 18.1099 289.21L17.8771 288.923C17.6808 288.685 17.4827 288.457 17.2748 288.232L15.7149 289.108L15.4676 289.247L10.1585 292.223L5.83575 294.65C5.39404 294.895 4.98805 295.184 4.61261 295.494C1.61329 297.98 0.706716 302.332 2.6689 305.866L9.28959 317.797Z" fill="#35A685"/>
<path d="M287.336 126.24C265.625 126.24 247.962 108.487 247.962 86.6671C247.962 64.8493 265.625 47.0969 287.336 47.0969C309.047 47.0969 326.708 64.8493 326.708 86.6671C326.708 108.487 309.047 126.24 287.336 126.24ZM325.457 120.221L325.437 120.228C333.855 110.684 338.873 98.6456 338.873 85.5653C338.873 61.4028 321.754 40.813 297.745 32.9074C264.059 33.9869 237.125 58.6793 237.125 88.9821C237.125 113.07 254.145 133.608 278.044 141.563C279.404 141.754 280.778 141.907 282.17 142.019C281.34 145.455 279.069 150.536 273.053 156.127C287.26 152.324 309.69 142.041 325.457 120.221Z" fill="#80D5EA"/>
<path d="M299.301 101.765C297.751 106.459 293.8 109.426 288.461 109.906L288.469 112.917C288.469 113.56 287.951 114.08 287.311 114.083C286.67 114.083 286.155 113.565 286.15 112.922L286.146 109.933C280.898 109.587 275.759 106.469 275.21 100.544C275.151 99.9032 275.619 99.3387 276.257 99.2768C276.893 99.2149 277.454 99.6878 277.516 100.329C277.942 104.927 281.894 107.306 286.141 107.608L286.086 85.1839C284.222 84.4089 282.295 83.5424 280.258 82.1385C277.789 80.4375 276.203 77.4194 276.122 74.2576C276.033 71.0067 277.474 68.0629 280.174 65.9806C281.894 64.6486 283.916 63.886 286.035 63.7176L286.03 60.9694C286.03 60.3281 286.545 59.8057 287.185 59.8032H287.188C287.826 59.8032 288.343 60.3232 288.348 60.9644L288.353 63.7647C289.06 63.8513 289.769 63.9999 290.474 64.2203C294.246 65.3839 297.204 68.2337 298.392 71.8411C298.591 72.4502 298.259 73.1088 297.653 73.3094C297.044 73.5099 296.389 73.1806 296.189 72.5715C295.238 69.6772 292.849 67.387 289.796 66.4436C289.316 66.2976 288.836 66.1911 288.358 66.1168L288.4 83.6191C290.88 84.6392 293.438 85.7682 295.995 88.0683C299.554 91.2648 300.912 96.8975 299.301 101.765ZM287.335 49.4241C266.903 49.4241 250.279 66.1317 250.279 86.667C250.279 107.202 266.903 123.912 287.335 123.912C307.77 123.912 324.392 107.202 324.392 86.667C324.392 66.1317 307.77 49.4241 287.335 49.4241Z" fill="#80D5EA"/>
<path d="M278.434 74.196C278.501 76.6249 279.698 78.9325 281.566 80.22C283.1 81.2772 284.61 82.015 286.081 82.6538L286.042 66.0552C284.426 66.2186 282.891 66.8129 281.583 67.8255C279.486 69.4448 278.368 71.7077 278.434 74.196Z" fill="#80D5EA"/>
<path d="M236.576 118.646C236.408 118.438 236.238 118.228 236.078 118.015C236.238 118.228 236.408 118.436 236.576 118.646Z" fill="#80D5EA"/>
<path d="M297.105 101.032C298.413 97.0809 297.297 92.3568 294.452 89.8017C292.461 88.0116 290.473 87.0187 288.406 86.1422L288.458 107.566C294.294 106.96 296.381 103.226 297.105 101.032Z" fill="#80D5EA"/>
<path d="M237.123 88.9822C237.123 58.6794 264.056 33.987 297.742 32.9075C293.771 31.6003 289.615 30.6396 285.314 30.0677C285.72 30.0553 286.124 30.0429 286.531 30.033C252.394 30.6619 224.936 55.5375 224.936 86.1324C224.936 86.583 224.943 87.0287 224.953 87.4719C224.958 87.6229 224.965 87.769 224.97 87.9176C224.98 88.2147 224.992 88.5118 225.007 88.8064C225.014 88.9822 225.032 89.158 225.041 89.3338C225.056 89.5987 225.071 89.8661 225.093 90.131C225.108 90.3167 225.128 90.5049 225.145 90.6906C225.167 90.9431 225.189 91.1957 225.214 91.4457C225.236 91.6389 225.258 91.832 225.283 92.0251C225.31 92.2678 225.34 92.5104 225.369 92.753C225.396 92.9511 225.426 93.1442 225.453 93.3423C225.487 93.5775 225.519 93.8152 225.559 94.048C225.591 94.251 225.625 94.4466 225.657 94.6446C225.697 94.8774 225.736 95.1076 225.778 95.3379C225.817 95.5384 225.859 95.7365 225.896 95.9371C225.941 96.1649 225.985 96.3902 226.034 96.6155C226.079 96.8185 226.12 97.0141 226.167 97.2146C226.217 97.4375 226.266 97.6628 226.32 97.8831C226.367 98.0837 226.419 98.2842 226.465 98.4823C226.525 98.7027 226.579 98.923 226.638 99.1409C226.69 99.3415 226.746 99.5395 226.8 99.7376C226.862 99.9555 226.924 100.173 226.988 100.386C227.044 100.587 227.103 100.785 227.165 100.983C227.232 101.196 227.298 101.411 227.367 101.624C227.431 101.82 227.495 102.018 227.562 102.216C227.631 102.426 227.702 102.637 227.778 102.847C227.847 103.043 227.916 103.241 227.988 103.437C228.064 103.645 228.138 103.85 228.217 104.056C228.293 104.254 228.365 104.452 228.444 104.645C228.522 104.848 228.604 105.053 228.685 105.254C228.769 105.45 228.845 105.648 228.926 105.843C229.013 106.041 229.101 106.239 229.185 106.437C229.271 106.633 229.355 106.831 229.444 107.024C229.532 107.22 229.624 107.413 229.712 107.609C229.803 107.804 229.892 108 229.988 108.195C230.079 108.384 230.173 108.574 230.264 108.76C230.363 108.958 230.459 109.156 230.56 109.352C230.653 109.535 230.749 109.716 230.848 109.899C230.949 110.097 231.052 110.295 231.158 110.493C231.252 110.669 231.353 110.84 231.449 111.015C231.56 111.216 231.673 111.421 231.787 111.622C231.875 111.778 231.969 111.932 232.06 112.085C232.188 112.303 232.314 112.521 232.444 112.736L232.597 112.984C233.144 113.875 233.718 114.754 234.319 115.618L234.536 115.935C234.698 116.165 234.861 116.391 235.026 116.616C235.115 116.74 235.203 116.864 235.292 116.985C235.455 117.203 235.62 117.418 235.785 117.639C235.881 117.762 235.977 117.891 236.076 118.015C236.236 118.228 236.406 118.438 236.573 118.646C236.677 118.773 236.775 118.901 236.879 119.03C237.049 119.238 237.221 119.443 237.391 119.646C237.497 119.773 237.6 119.899 237.706 120.025C237.881 120.231 238.061 120.434 238.239 120.637C238.344 120.758 238.453 120.882 238.561 121.003C238.741 121.206 238.923 121.404 239.108 121.605C239.217 121.726 239.325 121.848 239.436 121.966C239.623 122.165 239.81 122.363 240.002 122.558C240.111 122.675 240.222 122.793 240.332 122.907C240.527 123.105 240.722 123.301 240.919 123.494C241.027 123.608 241.141 123.719 241.256 123.831C241.453 124.026 241.653 124.22 241.857 124.413C241.968 124.519 242.079 124.628 242.192 124.735C242.399 124.928 242.606 125.121 242.818 125.314C242.929 125.415 243.042 125.517 243.153 125.618C243.368 125.809 243.587 126.002 243.804 126.193L244.131 126.48C244.358 126.673 244.582 126.864 244.806 127.052L245.129 127.322C245.363 127.512 245.599 127.706 245.836 127.896L246.144 128.136C246.388 128.332 246.634 128.525 246.885 128.716L247.171 128.931C247.427 129.127 247.689 129.325 247.952 129.518L248.201 129.696C248.477 129.897 248.76 130.097 249.041 130.295L249.236 130.429C249.539 130.642 249.842 130.85 250.15 131.053L250.256 131.122C253.502 133.286 256.996 135.175 260.684 136.753L260.723 136.77C261.107 136.936 261.497 137.097 261.886 137.255L261.992 137.295C262.369 137.448 262.743 137.594 263.122 137.738L263.28 137.8C263.65 137.939 264.017 138.075 264.389 138.208L264.578 138.275C264.945 138.404 265.312 138.533 265.682 138.659L265.889 138.726C266.254 138.847 266.623 138.966 266.993 139.082L267.212 139.152C267.581 139.263 267.951 139.377 268.32 139.484L268.552 139.55C268.922 139.657 269.294 139.758 269.668 139.86L269.892 139.919C270.269 140.021 270.651 140.117 271.03 140.212L271.247 140.263C271.629 140.36 272.018 140.449 272.405 140.538L272.609 140.583C273.004 140.67 273.398 140.754 273.794 140.833L273.974 140.873C274.381 140.952 274.787 141.031 275.196 141.103L275.341 141.13C275.763 141.207 276.186 141.281 276.613 141.348L276.699 141.363C277.142 141.432 277.588 141.499 278.039 141.563H278.041C254.143 133.608 237.123 113.07 237.123 88.9822Z" fill="#54BAE1"/>
<path d="M308.651 33.1576L308.521 33.1204C308.139 32.9991 307.754 32.8852 307.37 32.7738L307.166 32.7143C306.791 32.6079 306.414 32.5014 306.04 32.4024L305.811 32.3405C305.434 32.2415 305.057 32.1449 304.678 32.0508L304.466 31.9988C304.074 31.9023 303.685 31.8107 303.293 31.7215L303.202 31.7017C301.941 31.422 300.664 31.1719 299.376 30.9614L299.172 30.9268C298.866 30.8748 298.553 30.8302 298.243 30.7831C298.058 30.7584 297.876 30.7287 297.691 30.7015C297.413 30.6618 297.137 30.6272 296.858 30.5925C296.634 30.5653 296.412 30.5355 296.186 30.5108C295.93 30.4786 295.671 30.4514 295.412 30.4217C295.166 30.3969 294.917 30.3721 294.671 30.3474C294.427 30.3251 294.181 30.3004 293.937 30.2805C293.671 30.2583 293.402 30.236 293.136 30.2162C292.902 30.1989 292.67 30.184 292.439 30.1667C292.148 30.1493 291.855 30.1345 291.564 30.1171C291.352 30.1072 291.138 30.0948 290.924 30.0874C290.591 30.0726 290.259 30.0626 289.924 30.0527C289.746 30.0478 289.574 30.0404 289.399 30.0354C288.884 30.0255 288.372 30.0181 287.859 30.0181C287.413 30.0181 286.975 30.0255 286.534 30.033C286.127 30.0429 285.723 30.0553 285.317 30.0676C289.618 30.6396 293.774 31.6002 297.745 32.9075C321.755 40.8131 338.874 61.4029 338.874 85.5654C338.874 98.6457 333.855 110.684 325.438 120.228L325.457 120.221C309.691 142.041 287.261 152.324 273.053 156.127C272.945 156.228 272.832 156.33 272.718 156.431C272.423 156.704 272.115 156.976 271.797 157.251C266.988 161.415 311.287 156.872 337.361 120.79L337.341 120.798C345.757 111.256 350.777 99.2151 350.777 86.1324C350.777 61.643 333.183 40.8181 308.651 33.1576Z" fill="#99DDEB"/>
<path d="M281.567 80.2196C279.7 78.9321 278.503 76.6246 278.436 74.1957C278.37 71.7074 279.488 69.4444 281.585 67.8251C282.893 66.8125 284.428 66.2183 286.044 66.0549L286.036 63.7176C283.918 63.886 281.895 64.6485 280.175 65.9806C277.475 68.0628 276.034 71.0067 276.123 74.2576C276.204 77.4193 277.791 80.4375 280.259 82.1385C282.297 83.5423 284.223 84.4089 286.088 85.1838L286.083 82.6534C284.612 82.0147 283.102 81.2768 281.567 80.2196Z" fill="#272650"/>
<path d="M289.797 66.4439C292.849 67.3873 295.239 69.6775 296.19 72.5718C296.39 73.1809 297.045 73.5102 297.653 73.3097C298.259 73.1091 298.592 72.4505 298.392 71.8414C297.205 68.234 294.246 65.3842 290.475 64.2206C289.77 64.0002 289.061 63.8516 288.354 63.765L288.358 66.1171C288.836 66.1914 289.317 66.2979 289.797 66.4439Z" fill="#272650"/>
<path d="M295.995 88.0686C293.438 85.7685 290.881 84.6395 288.4 83.6194L288.405 86.1423C290.472 87.0188 292.46 88.0117 294.451 89.8018C297.296 92.3569 298.412 97.081 297.104 101.033C296.38 103.226 294.293 106.96 288.457 107.567L288.462 109.906C293.8 109.426 297.752 106.46 299.301 101.765C300.913 96.8977 299.555 91.265 295.995 88.0686Z" fill="#272650"/>
<path d="M277.518 100.329C277.456 99.6881 276.895 99.2152 276.259 99.2771C275.621 99.339 275.153 99.9035 275.212 100.545C275.761 106.47 280.9 109.587 286.148 109.933L286.143 107.609C281.896 107.307 277.944 104.927 277.518 100.329Z" fill="#272650"/>
<path d="M288.406 86.1422L288.401 83.6193L288.359 66.117L288.354 63.7649L288.349 60.9646C288.345 60.3233 287.827 59.8034 287.189 59.8034H287.187C286.546 59.8059 286.031 60.3283 286.031 60.9696L286.036 63.7178L286.044 66.0551L286.083 82.6537L286.088 85.1841L286.142 107.608L286.147 109.933L286.152 112.922C286.157 113.566 286.672 114.083 287.312 114.083C287.953 114.081 288.47 113.561 288.47 112.917L288.463 109.906L288.458 107.566L288.406 86.1422Z" fill="#272650"/>
<path d="M287.335 123.912C266.903 123.912 250.279 107.202 250.279 86.6671C250.279 66.1318 266.903 49.4243 287.335 49.4243C307.77 49.4243 324.391 66.1318 324.391 86.6671C324.391 107.202 307.77 123.912 287.335 123.912ZM287.335 47.0969C265.624 47.0969 247.961 64.8493 247.961 86.6671C247.961 108.487 265.624 126.24 287.335 126.24C309.046 126.24 326.707 108.487 326.707 86.6671C326.707 64.8493 309.046 47.0969 287.335 47.0969Z" fill="white"/>
<path d="M289.393 273.092C289.393 274.362 288.314 275.389 286.982 275.389H277.45H253.17H248.846C247.514 275.389 246.435 274.362 246.435 273.092V261.242C246.435 259.972 247.514 258.944 248.846 258.944H259.649H282.141H286.982C288.314 258.944 289.393 259.972 289.393 261.242V273.092ZM255.338 228.822H301.711C302.268 228.822 302.714 229.273 302.714 229.83C302.714 230.387 302.268 230.84 301.711 230.84H255.338C254.781 230.84 254.333 230.387 254.333 229.83C254.333 229.273 254.781 228.822 255.338 228.822ZM255.338 217.056H301.711C302.268 217.056 302.714 217.507 302.714 218.064C302.714 218.621 302.268 219.072 301.711 219.072H255.338C254.781 219.072 254.333 218.621 254.333 218.064C254.333 217.507 254.781 217.056 255.338 217.056ZM255.338 205.291H301.711C302.268 205.291 302.714 205.739 302.714 206.296C302.714 206.853 302.268 207.304 301.711 207.304H255.338C254.781 207.304 254.333 206.853 254.333 206.296C254.333 205.739 254.781 205.291 255.338 205.291ZM255.338 193.523H301.711C302.268 193.523 302.714 193.973 302.714 194.531C302.714 195.088 302.268 195.538 301.711 195.538H255.338C254.781 195.538 254.333 195.088 254.333 194.531C254.333 193.973 254.781 193.523 255.338 193.523ZM310.525 249.414C310.244 250.387 309.313 251.108 308.205 251.108H298.671H253.17H248.846C247.514 251.108 246.435 250.078 246.435 248.81V241.964C246.435 240.694 247.514 239.667 248.846 239.667H259.649H303.361H308.205C309.175 239.667 310.015 240.219 310.395 241.011C310.205 224.593 310.316 186.682 310.245 178.338H262.3C261.686 178.67 248.487 184.966 245.991 193.743C241.609 209.158 244.043 270.876 244.624 285.139L244.976 284.766H245.006L251.593 291.584L258.028 284.766H258.057L264.647 291.584L271.085 284.766H271.109L277.704 291.584L284.136 284.766H284.166L290.758 291.584L289.82 290.611C290.384 290.636 290.963 290.676 291.561 290.733L297.193 284.766H297.222L303.815 291.584C303.815 291.584 307.091 284.399 307.939 280.717C310.301 270.43 310.644 259.922 310.525 249.414Z" fill="#FCD8D9"/>
<path d="M245.992 193.743C248.487 184.966 261.687 178.67 262.3 178.338H240.437C235.786 178.338 232.016 182.129 232.016 186.803V284.748H231.938L238.545 291.584L244.625 285.139C244.043 270.876 241.609 209.158 245.992 193.743Z" fill="#FBC7D2"/>
<path d="M290.757 291.584L291.56 290.733C290.961 290.676 290.383 290.636 289.818 290.611L290.757 291.584Z" fill="#FCD8D9"/>
<path d="M323.249 186.803C323.249 182.129 319.477 178.338 314.826 178.338H310.246C310.318 186.682 310.207 224.593 310.396 241.011C310.534 241.303 310.613 241.623 310.613 241.964V248.81C310.613 249.021 310.581 249.221 310.527 249.414C310.645 259.922 310.303 270.43 307.94 280.717C307.093 284.399 303.816 291.584 303.816 291.584L310.249 284.766H310.278L316.871 291.584L323.325 284.748H323.249V186.803Z" fill="#FDE0E1"/>
<path d="M255.339 195.538H301.712C302.269 195.538 302.715 195.088 302.715 194.531C302.715 193.974 302.269 193.523 301.712 193.523H255.339C254.782 193.523 254.334 193.974 254.334 194.531C254.334 195.088 254.782 195.538 255.339 195.538Z" fill="#272650"/>
<path d="M255.339 207.304H301.712C302.269 207.304 302.715 206.853 302.715 206.296C302.715 205.739 302.269 205.291 301.712 205.291H255.339C254.782 205.291 254.334 205.739 254.334 206.296C254.334 206.853 254.782 207.304 255.339 207.304Z" fill="#272650"/>
<path d="M255.339 219.072H301.712C302.269 219.072 302.715 218.621 302.715 218.064C302.715 217.507 302.269 217.057 301.712 217.057H255.339C254.782 217.057 254.334 217.507 254.334 218.064C254.334 218.621 254.782 219.072 255.339 219.072Z" fill="#272650"/>
<path d="M255.339 230.84H301.712C302.269 230.84 302.715 230.387 302.715 229.83C302.715 229.273 302.269 228.822 301.712 228.822H255.339C254.782 228.822 254.334 229.273 254.334 229.83C254.334 230.387 254.782 230.84 255.339 230.84Z" fill="#272650"/>
<path d="M303.363 239.667H259.65C258.899 239.927 258.165 240.221 257.463 240.551C253.502 242.408 253.142 247.102 253.171 251.108H298.673C299.631 250.754 300.53 250.274 301.331 249.62C304.139 247.327 303.506 243.232 303.363 239.667Z" fill="#7AB8DF"/>
<path d="M308.206 239.667H303.362C303.505 243.232 304.138 247.327 301.33 249.62C300.529 250.274 299.63 250.754 298.672 251.108H308.206C309.314 251.108 310.245 250.387 310.526 249.414C310.58 249.221 310.612 249.021 310.612 248.81V241.964C310.612 241.623 310.534 241.303 310.396 241.011C310.016 240.219 309.176 239.667 308.206 239.667Z" fill="#97CBE6"/>
<path d="M257.46 240.551C258.162 240.221 258.897 239.927 259.648 239.667H248.845C247.513 239.667 246.434 240.694 246.434 241.964V248.81C246.434 250.078 247.513 251.108 248.845 251.108H253.169C253.139 247.102 253.499 242.408 257.46 240.551Z" fill="#69B3DE"/>
<path d="M282.142 258.944H259.65C258.899 259.204 258.165 259.499 257.463 259.826C253.502 261.685 253.142 271.383 253.171 275.389H277.452C278.413 275.038 279.312 274.56 280.112 273.906C282.918 271.611 282.285 262.51 282.142 258.944Z" fill="#F35DB6"/>
<path d="M286.983 258.944H282.142C282.285 262.51 282.918 271.611 280.112 273.906C279.311 274.56 278.412 275.038 277.451 275.389H286.983C288.315 275.389 289.394 274.362 289.394 273.092V261.242C289.394 259.972 288.315 258.944 286.983 258.944Z" fill="#F57BC3"/>
<path d="M257.46 259.826C258.162 259.499 258.897 259.204 259.648 258.944H248.845C247.513 258.944 246.434 259.972 246.434 261.242V273.092C246.434 274.362 247.513 275.389 248.845 275.389H253.169C253.139 271.383 253.499 261.685 257.46 259.826Z" fill="#F140A9"/>
<path d="M262.584 324.682L264.614 322.882L268.725 319.24C269.962 318.144 271.27 317.279 272.588 316.742L267.469 310.909C265.796 313.184 263.862 315.319 261.663 317.27C261.392 317.51 261.121 317.745 260.845 317.975L260.783 318.03C258.788 319.693 256.679 321.137 254.486 322.358L259.633 328.223C260.327 326.978 261.345 325.782 262.584 324.682Z" fill="#461F29"/>
<path d="M211.648 265.315C212.016 264.911 212.397 264.515 212.792 264.131L212.801 264.121C213.198 263.73 213.604 263.346 214.026 262.975C214.348 262.688 214.679 262.413 215.011 262.143C215.304 261.905 215.6 261.675 215.898 261.45L215.903 261.447H215.9C228.96 251.526 247.621 253.245 258.628 265.79C269.1 277.727 269.036 295.355 259.155 307.185C258.864 307.534 258.566 307.873 258.258 308.21C258.147 308.331 258.034 308.448 257.923 308.569C257.691 308.814 257.457 309.057 257.218 309.297C257.11 309.404 256.999 309.515 256.888 309.624C256.541 309.961 256.189 310.292 255.827 310.614C255.405 310.988 254.977 311.347 254.541 311.694H254.538C254.105 312.04 253.664 312.372 253.215 312.694C240.198 322.001 222.025 320.107 211.225 307.799C200.427 295.491 200.831 277.13 211.648 265.315ZM208.249 310.434C221.182 325.173 242.373 328.233 258.687 318.802C273.958 303.786 275.005 279.207 260.709 262.913C247.867 248.278 226.875 245.156 210.606 254.351C223.121 244.854 239.651 243.71 253.075 250.479C238.767 243.262 220.931 245.025 208.19 256.32C208.798 255.775 209.429 255.26 210.064 254.765C195 269.801 194.025 294.221 208.249 310.434Z" fill="#7AB8DF"/>
<path d="M254.708 322.229C255.528 321.605 256.341 320.956 257.127 320.26C257.664 319.785 258.184 319.3 258.686 318.802C242.373 328.233 221.182 325.173 208.248 310.433C194.024 294.221 194.999 269.801 210.064 254.765C209.428 255.26 208.798 255.775 208.189 256.32C191.442 271.16 189.836 296.836 204.602 313.667C217.388 328.238 238.249 331.4 254.486 322.357C256.678 321.137 258.787 319.693 260.783 318.03C258.854 319.639 256.821 321.035 254.708 322.229Z" fill="#69B3DE"/>
<path d="M210.604 254.351C226.873 245.156 247.864 248.278 260.706 262.913C275.002 279.207 273.955 303.786 258.684 318.802C258.181 319.3 257.662 319.785 257.124 320.26C256.339 320.956 255.526 321.605 254.705 322.229C256.819 321.035 258.851 319.639 260.78 318.03L260.842 317.975C261.118 317.745 261.389 317.51 261.66 317.269C263.86 315.318 265.794 313.184 267.466 310.909C278.542 295.838 278.074 274.545 265.244 259.92C264.823 259.439 264.389 258.971 263.951 258.516L263.877 258.437C263.451 257.996 263.02 257.573 262.579 257.159L262.451 257.038C262.022 256.634 261.583 256.243 261.14 255.864L260.98 255.726C260.539 255.352 260.093 254.99 259.64 254.636L259.46 254.5C259.012 254.151 258.551 253.814 258.085 253.487L257.908 253.361C257.437 253.034 256.964 252.72 256.484 252.415L256.319 252.311C255.829 252.004 255.333 251.71 254.833 251.425L254.703 251.351C254.19 251.061 253.671 250.781 253.146 250.516L253.072 250.479C239.648 243.71 223.118 244.854 210.604 254.351Z" fill="#97CBE6"/>
<path d="M280.014 318.141C280.134 318.265 280.25 318.384 280.369 318.517C280.253 318.386 280.134 318.26 280.014 318.141Z" fill="#84545D"/>
<path d="M314.192 369.687C312.026 363.242 276.502 323.945 271.277 317.663C272.007 317.151 272.704 316.752 273.376 316.46C273.113 316.542 272.851 316.636 272.588 316.742C271.27 317.279 269.962 318.143 268.725 319.24L264.614 322.882C263.988 327.393 266.136 331.776 268.651 335.462C272.117 340.526 310.031 383.429 310.004 383.54C309.885 383.609 309.76 383.671 309.632 383.731C310.76 383.349 311.834 382.74 312.783 381.898L315.396 379.583C315.618 377.051 315.12 372.45 314.192 369.687Z" fill="#84545D"/>
<path d="M253.637 270.212C243.529 258.689 226.962 256.297 214.211 263.666C206.051 275.402 206.591 291.631 216.43 302.842C226.543 314.37 243.117 316.747 255.871 309.361C264.01 297.63 263.468 281.416 253.637 270.212Z" fill="#FCD8D9"/>
<path d="M215.903 261.447L215.896 261.45L215.9 261.447H215.903Z" fill="#FBC7D2"/>
<path d="M214.025 262.975C214.348 262.688 214.678 262.415 215.011 262.143C214.678 262.413 214.348 262.688 214.025 262.975Z" fill="#FBC7D2"/>
<path d="M211.646 265.315C212.014 264.911 212.398 264.517 212.79 264.131C212.395 264.515 212.014 264.911 211.646 265.315Z" fill="#FBC7D2"/>
<path d="M211.225 307.799C222.025 320.107 240.198 322.001 253.215 312.694C254.186 311.632 255.07 310.518 255.871 309.361C243.117 316.747 226.543 314.37 216.43 302.842C206.591 291.631 206.051 275.402 214.211 263.666C213.336 264.171 212.481 264.72 211.649 265.315C200.831 277.13 200.427 295.491 211.225 307.799Z" fill="#FBC7D2"/>
<path d="M253.635 270.212C263.466 281.416 264.008 297.63 255.869 309.361C255.068 310.518 254.184 311.632 253.213 312.694C253.662 312.372 254.103 312.04 254.536 311.694H254.539C254.975 311.347 255.403 310.988 255.825 310.614C256.187 310.292 256.539 309.961 256.886 309.624C256.997 309.515 257.108 309.403 257.217 309.297C257.455 309.057 257.689 308.814 257.921 308.569C258.032 308.448 258.145 308.331 258.256 308.21C258.564 307.873 258.862 307.534 259.153 307.185C269.034 295.355 269.098 277.727 258.626 265.79C247.619 253.245 228.958 251.526 215.898 261.447L215.896 261.45C215.598 261.675 215.302 261.905 215.009 262.143C214.677 262.415 214.346 262.688 214.024 262.975C213.603 263.346 213.196 263.73 212.799 264.121L212.79 264.131C212.398 264.517 212.014 264.911 211.646 265.315C212.479 264.721 213.334 264.171 214.209 263.666C226.96 256.297 243.527 258.689 253.635 270.212Z" fill="#FDE0E1"/>
<path d="M268.652 335.462C266.137 331.776 263.989 327.393 264.615 322.882L262.585 324.682C261.346 325.782 260.328 326.978 259.634 328.223C258.19 330.813 258.143 333.618 260.414 336.205L299.784 381.079C299.983 381.307 300.193 381.52 300.41 381.72L300.671 381.948C300.801 382.064 300.934 382.178 301.07 382.285C301.178 382.369 301.289 382.446 301.402 382.525C301.526 382.611 301.649 382.701 301.777 382.78C301.888 382.849 302.001 382.916 302.112 382.978C302.26 383.065 302.407 383.149 302.56 383.223L302.809 383.347C305.268 384.508 307.955 384.506 309.633 383.731C309.761 383.671 309.887 383.609 310.005 383.54C310.032 383.429 272.119 340.526 268.652 335.462Z" fill="#7A4553"/>
<path d="M280.37 318.517C280.252 318.384 280.136 318.265 280.015 318.141C277.835 315.843 275.754 315.432 273.376 316.46C272.704 316.752 272.007 317.151 271.277 317.663C276.502 323.945 312.026 363.242 314.192 369.687C315.12 372.45 315.618 377.051 315.396 379.583L318.924 376.456C322.74 373.074 323.105 367.224 319.742 363.391L280.37 318.517Z" fill="#915961"/>
<path d="M206.369 40.6967C206.487 40.5407 206.603 40.3847 206.719 40.2287C207.202 39.5825 207.069 38.6615 206.426 38.1762C205.78 37.6909 204.869 37.8221 204.386 38.4708C204.268 38.6268 204.152 38.7853 204.034 38.9438C203.553 39.59 203.684 40.511 204.329 40.9938C204.975 41.4766 205.889 41.3454 206.371 40.6967H206.369Z" fill="#272650"/>
<path d="M211.012 34.9154C211.261 34.6282 211.512 34.341 211.763 34.0588C212.303 33.4571 212.251 32.5287 211.652 31.9889C211.051 31.4492 210.13 31.5012 209.593 32.1028C209.332 32.395 209.073 32.6896 208.814 32.9842C208.285 33.5933 208.349 34.5193 208.952 35.0541C209.558 35.5864 210.482 35.5245 211.012 34.9154ZM216.496 29.1292C216.767 28.8643 217.043 28.5994 217.316 28.3394C217.902 27.7848 217.932 26.8563 217.38 26.2671C216.826 25.6803 215.904 25.6506 215.318 26.2052C215.035 26.4751 214.751 26.7449 214.471 27.0172C213.889 27.5793 213.874 28.5078 214.431 29.0896C214.99 29.6715 215.914 29.6888 216.496 29.1292ZM222.445 23.8308C222.738 23.5881 223.034 23.3504 223.332 23.1152C223.963 22.6126 224.068 21.6916 223.568 21.0553C223.068 20.4214 222.152 20.3149 221.521 20.8175C221.213 21.0627 220.91 21.3078 220.607 21.5554C219.982 22.0654 219.888 22.9889 220.395 23.6153C220.903 24.2442 221.822 24.3408 222.447 23.8308H222.445ZM228.823 19.0596C229.136 18.8467 229.451 18.6338 229.767 18.4233C230.437 17.9777 230.621 17.0665 230.176 16.3931C229.732 15.7171 228.826 15.534 228.155 15.9796C227.83 16.1975 227.505 16.4154 227.182 16.6357C226.517 17.0913 226.345 18.0024 226.798 18.6734C227.249 19.3419 228.158 19.5152 228.823 19.0596ZM235.578 14.8531C235.908 14.6674 236.241 14.4841 236.573 14.3009C237.278 13.9147 237.539 13.0233 237.152 12.3127C236.768 11.6022 235.881 11.3422 235.174 11.7284C234.834 11.9166 234.492 12.1073 234.152 12.2979C233.45 12.694 233.198 13.5878 233.595 14.2935C233.989 14.9991 234.878 15.2492 235.578 14.8531ZM242.668 11.2456C243.013 11.0872 243.358 10.9337 243.703 10.7802C244.442 10.4534 244.777 9.58926 244.452 8.84897C244.129 8.10866 243.269 7.77193 242.53 8.09628C242.173 8.25473 241.816 8.41321 241.461 8.57661C240.729 8.91086 240.404 9.77988 240.737 10.5152C241.072 11.2531 241.936 11.5799 242.668 11.2456ZM250.036 8.25967C250.391 8.13341 250.748 8.00961 251.108 7.88829C251.869 7.62584 252.278 6.79395 252.017 6.02641C251.758 5.26135 250.928 4.85034 250.169 5.11279C249.797 5.23906 249.43 5.36781 249.063 5.49655C248.305 5.76643 247.908 6.60577 248.174 7.36588C248.442 8.13094 249.278 8.52956 250.036 8.25967ZM257.631 5.92487C257.996 5.82831 258.361 5.73672 258.728 5.64511C259.511 5.452 259.986 4.6572 259.797 3.86984C259.602 3.08498 258.811 2.60468 258.03 2.80026C257.651 2.89188 257.274 2.99091 256.897 3.08746C256.119 3.2905 255.651 4.09021 255.853 4.87259C256.055 5.65747 256.85 6.12788 257.631 5.92487ZM265.394 4.25362C265.766 4.18924 266.14 4.12982 266.512 4.06792C267.308 3.94412 267.85 3.19392 267.724 2.39421C267.601 1.59448 266.855 1.0498 266.059 1.17361C265.675 1.2355 265.29 1.29739 264.909 1.36177C264.113 1.50043 263.578 2.25555 263.714 3.0528C263.849 3.85252 264.601 4.38731 265.394 4.25362ZM273.28 3.25584C273.656 3.22366 274.033 3.19395 274.41 3.16672C275.216 3.10977 275.819 2.40906 275.763 1.60191C275.709 0.794769 275.009 0.185684 274.208 0.24263C273.817 0.269852 273.427 0.302078 273.038 0.334259C272.235 0.401108 271.639 1.10924 271.705 1.91638C271.772 2.72105 272.476 3.32269 273.28 3.25584ZM281.224 2.93152C281.601 2.93152 281.981 2.93396 282.36 2.9389C283.166 2.95129 283.826 2.30263 283.838 1.49548C283.85 0.685852 283.205 0.0198212 282.399 0.00991821C282.01 0.00497437 281.621 1.52588e-05 281.229 1.52588e-05C280.424 1.52588e-05 279.768 0.653641 279.768 1.46327C279.766 2.2729 280.419 2.92903 281.224 2.93152ZM289.164 3.28061C289.544 3.31279 289.921 3.34744 290.298 3.38458C291.098 3.46381 291.813 2.87703 291.891 2.06987C291.97 1.2652 291.384 0.547195 290.583 0.467972C290.194 0.430832 289.805 0.393677 289.416 0.359024C288.612 0.289688 287.905 0.88887 287.839 1.69356C287.767 2.5007 288.364 3.21129 289.164 3.28061ZM297.048 4.30313C297.422 4.36998 297.794 4.43686 298.166 4.5062C298.957 4.65474 299.718 4.12984 299.866 3.3326C300.014 2.53783 299.489 1.77277 298.698 1.62421C298.314 1.5524 297.932 1.48306 297.545 1.41621C296.752 1.27757 295.996 1.81239 295.86 2.60965C295.722 3.40689 296.254 4.16696 297.048 4.30313ZM304.813 6.00412C305.18 6.10068 305.544 6.19972 305.909 6.30124C306.685 6.51663 307.49 6.05858 307.705 5.27866C307.919 4.49875 307.463 3.69162 306.687 3.47621C306.31 3.37222 305.933 3.26823 305.556 3.16919C304.778 2.96121 303.98 3.42915 303.773 4.21155C303.568 4.99641 304.034 5.79614 304.813 6.00412ZM312.405 8.36617C312.762 8.4949 313.119 8.6261 313.477 8.7598C314.231 9.03957 315.071 8.65337 315.351 7.89574C315.632 7.13811 315.248 6.29378 314.492 6.01152C314.125 5.87286 313.755 5.73921 313.388 5.60551C312.629 5.33316 311.794 5.73175 311.521 6.49185C311.252 7.25444 311.646 8.09381 312.405 8.36617ZM319.776 11.3818C320.121 11.5427 320.466 11.7012 320.811 11.8646C321.537 12.2112 322.407 11.8993 322.749 11.1664C323.094 10.436 322.784 9.562 322.057 9.21538C321.702 9.04701 321.348 8.88113 320.99 8.71773C320.259 8.37852 319.394 8.70285 319.059 9.44067C318.721 10.1735 319.044 11.0451 319.776 11.3818ZM326.861 15.0214C327.191 15.2096 327.521 15.4002 327.849 15.5909C328.544 15.9994 329.438 15.7642 329.842 15.0635C330.248 14.3653 330.012 13.4666 329.317 13.0605C328.977 12.8624 328.64 12.6643 328.3 12.4712C327.598 12.0726 326.708 12.3202 326.312 13.0234C325.915 13.729 326.161 14.6228 326.861 15.0214ZM333.608 19.2552C333.921 19.4731 334.234 19.6885 334.542 19.9089C335.2 20.3744 336.111 20.2159 336.575 19.5524C337.035 18.8913 336.88 17.9776 336.22 17.5122C335.902 17.2844 335.579 17.0616 335.257 16.8387C334.594 16.3807 333.685 16.5515 333.229 17.22C332.773 17.8861 332.943 18.7997 333.608 19.2552ZM339.969 24.0536C340.262 24.2938 340.556 24.5364 340.846 24.7815C341.462 25.3015 342.381 25.2222 342.901 24.6032C343.418 23.9818 343.337 23.0582 342.719 22.5358C342.42 22.2833 342.12 22.0332 341.819 21.7857C341.194 21.2731 340.277 21.3647 339.767 21.9911C339.257 22.6151 339.346 23.5411 339.969 24.0536ZM345.904 29.3744C346.175 29.6393 346.443 29.9066 346.714 30.174C347.283 30.746 348.205 30.7435 348.776 30.1691C349.343 29.5972 349.34 28.6687 348.771 28.0967C348.495 27.8219 348.215 27.5446 347.934 27.2723C347.357 26.7078 346.434 26.7201 345.874 27.302C345.31 27.8838 345.325 28.8098 345.904 29.3744ZM351.363 35.1804C351.612 35.4676 351.856 35.7573 352.102 36.047C352.622 36.6635 353.543 36.7402 354.157 36.2178C354.772 35.6953 354.846 34.7694 354.327 34.1529C354.075 33.8533 353.822 33.5562 353.565 33.259C353.038 32.65 352.117 32.5831 351.508 33.113C350.9 33.6428 350.836 34.5688 351.363 35.1804ZM356.312 41.4296C356.534 41.7366 356.756 42.0461 356.975 42.3556C357.44 43.0142 358.35 43.1702 359.007 42.7022C359.665 42.2343 359.818 41.3182 359.352 40.6596C359.126 40.3377 358.899 40.0208 358.67 39.7039C358.194 39.0502 357.283 38.9066 356.632 39.382C355.982 39.8599 355.837 40.7759 356.312 41.4296ZM360.712 48.0775C360.907 48.4018 361.101 48.7286 361.293 49.0554C361.702 49.7537 362.597 49.9864 363.289 49.5754C363.984 49.1644 364.215 48.2656 363.806 47.5674C363.607 47.2307 363.41 46.894 363.205 46.5597C362.789 45.8665 361.895 45.6461 361.205 46.0645C360.515 46.483 360.296 47.3842 360.712 48.0775ZM364.53 55.0744C364.698 55.4161 364.863 55.7553 365.026 56.0994C365.373 56.8274 366.245 57.1368 366.972 56.7877C367.696 56.4386 368.004 55.5622 367.657 54.8318C367.487 54.4802 367.317 54.1286 367.147 53.777C366.787 53.0516 365.915 52.7545 365.191 53.1135C364.469 53.47 364.173 54.349 364.53 55.0744ZM367.738 62.3734C367.876 62.725 368.011 63.0815 368.144 63.4381C368.428 64.1957 369.27 64.577 370.024 64.2923C370.778 64.005 371.157 63.1608 370.874 62.4031C370.736 62.0367 370.596 61.6703 370.453 61.3038C370.16 60.5511 369.312 60.1773 368.563 60.4719C367.812 60.7665 367.442 61.6183 367.738 62.3734ZM370.312 69.9275C370.418 70.2939 370.524 70.6578 370.628 71.0268C370.844 71.8042 371.65 72.2573 372.426 72.0394C373.2 71.8191 373.65 71.0094 373.434 70.2295C373.328 69.8532 373.219 69.4744 373.108 69.098C372.879 68.3231 372.071 67.8799 371.298 68.1077C370.527 68.3379 370.083 69.1525 370.312 69.9275ZM372.229 77.6796C372.305 78.0509 372.379 78.4248 372.451 78.7987C372.601 79.5935 373.365 80.1159 374.155 79.9648C374.946 79.8138 375.466 79.0438 375.316 78.249C375.242 77.8653 375.165 77.479 375.089 77.0953C374.926 76.303 374.158 75.7904 373.367 75.9514C372.579 76.1123 372.069 76.8873 372.229 77.6796ZM373.48 85.5679C373.525 85.9442 373.564 86.323 373.604 86.7018C373.687 87.5065 374.402 88.0933 375.205 88.0091C376.005 87.9274 376.587 87.2069 376.506 86.4022C376.466 86.011 376.422 85.6198 376.377 85.2311C376.284 84.4264 375.562 83.8496 374.761 83.9436C373.961 84.0353 373.387 84.7632 373.48 85.5679ZM374.057 93.5354C374.069 93.9142 374.079 94.293 374.086 94.6743C374.099 95.4839 374.764 96.1277 375.569 96.1128C376.375 96.0979 377.016 95.4295 377.001 94.6198C376.993 94.2286 376.984 93.8374 376.971 93.4462C376.949 92.6366 376.277 92.0003 375.471 92.0251C374.665 92.0498 374.032 92.7257 374.059 93.5354H374.057ZM373.966 101.523C373.946 101.904 373.921 102.285 373.899 102.664C373.845 103.471 374.453 104.169 375.257 104.221C376.06 104.276 376.754 103.664 376.809 102.857C376.833 102.466 376.855 102.072 376.878 101.681C376.922 100.874 376.304 100.183 375.5 100.139C374.695 100.097 374.01 100.716 373.966 101.523ZM373.202 109.483C373.15 109.862 373.094 110.24 373.037 110.617C372.916 111.416 373.463 112.164 374.259 112.286C375.055 112.407 375.801 111.857 375.919 111.057C375.981 110.669 376.035 110.28 376.089 109.889C376.2 109.087 375.646 108.346 374.848 108.235C374.049 108.124 373.315 108.681 373.202 109.483ZM371.763 117.349C371.68 117.723 371.593 118.094 371.502 118.463C371.315 119.25 371.795 120.043 372.579 120.233C373.36 120.421 374.15 119.939 374.338 119.151C374.429 118.77 374.52 118.386 374.606 118.002C374.786 117.213 374.296 116.428 373.51 116.247C372.724 116.066 371.943 116.559 371.763 117.349ZM369.66 125.059C369.544 125.423 369.423 125.787 369.302 126.146C369.049 126.913 369.46 127.745 370.224 128.003C370.987 128.258 371.813 127.844 372.069 127.077C372.194 126.705 372.315 126.331 372.436 125.955C372.682 125.185 372.259 124.361 371.492 124.113C370.726 123.865 369.906 124.289 369.66 125.059ZM366.903 132.558C366.755 132.91 366.607 133.262 366.457 133.611C366.137 134.353 366.474 135.215 367.213 135.537C367.952 135.859 368.81 135.52 369.132 134.777C369.285 134.418 369.44 134.054 369.59 133.692C369.901 132.945 369.554 132.088 368.81 131.773C368.068 131.459 367.213 131.813 366.903 132.558ZM363.513 139.791C363.338 140.127 363.161 140.464 362.981 140.801C362.597 141.511 362.86 142.4 363.57 142.784C364.277 143.17 365.161 142.905 365.545 142.192C365.73 141.846 365.915 141.499 366.097 141.152C366.469 140.434 366.196 139.548 365.481 139.174C364.769 138.798 363.887 139.073 363.513 139.791ZM359.522 146.703C359.318 147.025 359.111 147.345 358.904 147.664C358.463 148.34 358.65 149.246 359.323 149.692C359.995 150.135 360.899 149.947 361.34 149.271C361.557 148.942 361.769 148.612 361.981 148.283C362.414 147.6 362.215 146.693 361.535 146.258C360.857 145.822 359.956 146.022 359.522 146.703ZM354.957 153.247C354.728 153.552 354.497 153.851 354.263 154.151C353.762 154.787 353.873 155.708 354.506 156.208C355.14 156.709 356.058 156.6 356.554 155.963C356.798 155.654 357.034 155.344 357.273 155.032C357.763 154.389 357.642 153.468 357.002 152.977C356.364 152.485 355.447 152.606 354.957 153.247ZM349.858 159.38C349.602 159.66 349.345 159.94 349.087 160.219C348.537 160.811 348.569 161.737 349.158 162.289C349.747 162.841 350.668 162.812 351.218 162.217C351.486 161.93 351.75 161.643 352.013 161.353C352.555 160.754 352.511 159.828 351.917 159.283C351.321 158.739 350.4 158.781 349.858 159.38ZM344.258 165.052C343.98 165.31 343.702 165.567 343.418 165.822C342.822 166.365 342.775 167.293 343.315 167.892C343.854 168.491 344.778 168.541 345.374 167.996C345.665 167.734 345.953 167.469 346.239 167.201C346.83 166.652 346.865 165.726 346.318 165.132C345.771 164.537 344.85 164.503 344.258 165.052Z" fill="#272650"/>
<path d="M338.128 170.281C337.977 170.4 337.825 170.519 337.672 170.635C337.034 171.131 336.916 172.049 337.406 172.693C337.896 173.334 338.813 173.453 339.453 172.96C339.606 172.839 339.763 172.718 339.919 172.596C340.554 172.099 340.668 171.18 340.175 170.539C339.68 169.9 338.763 169.786 338.128 170.281Z" fill="#272650"/>
<path d="M31.7164 240.929C31.572 240.798 31.4276 240.667 31.2882 240.541C30.6925 239.998 29.7687 240.041 29.2287 240.64C28.686 241.239 28.7323 242.165 29.327 242.712C29.4761 242.846 29.6224 242.979 29.7658 243.106C30.3644 243.648 31.2862 243.601 31.8253 242.999C32.364 242.398 32.315 241.469 31.7173 240.929H31.7164Z" fill="#272650"/>
<path d="M26.3943 235.71C26.1334 235.43 25.8735 235.15 25.6166 234.868C25.0729 234.272 24.15 234.232 23.5563 234.777C22.9636 235.324 22.9222 236.25 23.4659 236.847C23.7325 237.139 24 237.431 24.2703 237.718C24.8209 238.31 25.7437 238.335 26.3307 237.782C26.9178 237.228 26.9456 236.299 26.3943 235.71ZM21.1872 229.604C20.9514 229.302 20.7194 228.998 20.4895 228.693C20.0025 228.05 19.0873 227.923 18.4455 228.411C17.8045 228.901 17.6796 229.82 18.1654 230.466C18.4051 230.78 18.6448 231.095 18.8872 231.407C19.3819 232.043 20.2988 232.16 20.9332 231.659C21.5683 231.162 21.6819 230.241 21.1852 229.604H21.1872ZM16.5622 223.041C16.3572 222.719 16.1532 222.395 15.9512 222.07C15.5268 221.382 14.6271 221.171 13.944 221.6C13.2606 222.026 13.0509 222.932 13.4761 223.618C13.6841 223.952 13.8937 224.289 14.1066 224.62C14.5394 225.304 15.4423 225.502 16.1205 225.066C16.7989 224.63 16.9953 223.722 16.5622 223.041ZM12.5629 216.076C12.3888 215.737 12.2166 215.395 12.0461 215.053C11.6854 214.328 10.8096 214.036 10.0898 214.397C9.36898 214.759 9.07755 215.638 9.43746 216.363C9.61434 216.717 9.79147 217.069 9.97155 217.42C10.3418 218.138 11.2215 218.421 11.9374 218.049C12.6533 217.678 12.9325 216.794 12.5639 216.076H12.5629ZM9.22659 208.77C9.08321 208.413 8.94477 208.059 8.80607 207.7C8.51439 206.947 7.66965 206.573 6.92 206.866C6.16839 207.158 5.7959 208.007 6.08758 208.762C6.23096 209.131 6.3763 209.5 6.52264 209.866C6.82368 210.614 7.67334 210.978 8.42127 210.676C9.16796 210.374 9.52787 209.52 9.22757 208.77H9.22659ZM6.58029 201.181C6.47066 200.814 6.36374 200.448 6.26077 200.079C6.03955 199.302 5.23201 198.849 4.45847 199.071C3.68369 199.294 3.23336 200.104 3.45459 200.881C3.56249 201.263 3.6731 201.641 3.78568 202.02C4.01676 202.795 4.82971 203.236 5.60055 203.006C6.37236 202.773 6.81013 201.956 6.58029 201.181ZM4.64323 193.379C4.56711 193.005 4.49492 192.629 4.42471 192.253C4.27542 191.458 3.51445 190.935 2.72243 191.084C1.93041 191.233 1.40987 192 1.55793 192.795C1.63109 193.184 1.70623 193.57 1.78408 193.959C1.94199 194.751 2.71085 195.263 3.49991 195.105C4.28996 194.944 4.80089 194.172 4.64323 193.379ZM3.42207 185.432C3.38166 185.05 3.34299 184.666 3.30653 184.285C3.23139 183.48 2.51845 182.889 1.71682 182.965C0.915197 183.042 0.32617 183.758 0.403278 184.565C0.440723 184.956 0.480143 185.35 0.523501 185.746C0.610216 186.551 1.32882 187.132 2.12946 187.046C2.9301 186.957 3.50952 186.236 3.42281 185.432H3.42207ZM2.9264 177.402C2.92049 177.016 2.9168 176.635 2.91581 176.251C2.91286 175.441 2.25953 174.788 1.45396 174.79C0.648641 174.792 -0.00196634 175.451 4.46565e-06 176.261C4.46565e-06 176.654 0.00468345 177.051 0.0105959 177.447C0.0231598 178.256 0.687074 178.902 1.49264 178.89C2.29698 178.878 2.93995 178.209 2.9264 177.402ZM3.16882 169.358C3.19862 168.974 3.2304 168.59 3.26514 168.209C3.33732 167.402 2.74632 166.689 1.94396 166.617C1.14135 166.545 0.432101 167.139 0.35992 167.944C0.324199 168.34 0.291681 168.736 0.261626 169.133C0.199299 169.94 0.800642 170.645 1.60424 170.707C2.40661 170.769 3.10723 170.165 3.16882 169.358ZM4.15422 161.368C4.21876 160.989 4.28504 160.613 4.35451 160.234C4.50059 159.439 3.97906 158.674 3.18705 158.526C2.39626 158.38 1.63504 158.907 1.4887 159.702C1.41652 160.09 1.3473 160.482 1.2798 160.873C1.14332 161.673 1.6774 162.43 2.47016 162.566C3.26415 162.703 4.01848 162.168 4.15422 161.368ZM5.874 153.509C5.97303 153.138 6.07502 152.769 6.17898 152.4C6.39848 151.62 5.94889 150.811 5.17436 150.59C4.3986 150.37 3.59328 150.821 3.3728 151.601C3.26613 151.982 3.16019 152.363 3.0582 152.747C2.84831 153.529 3.30948 154.334 4.08697 154.544C4.86445 154.755 5.66509 154.292 5.874 153.509ZM8.31337 145.846C8.44517 145.485 8.5809 145.126 8.71861 144.769C9.00906 144.014 8.63584 143.165 7.88619 142.873C7.13458 142.581 6.28959 142.957 5.99914 143.71C5.85749 144.081 5.71707 144.453 5.57838 144.824C5.29852 145.582 5.68233 146.426 6.43789 146.708C7.19222 146.99 8.03228 146.604 8.31337 145.846ZM11.4467 138.441C11.6123 138.094 11.7795 137.753 11.95 137.409C12.3089 136.683 12.0143 135.804 11.2937 135.443C10.5719 135.084 9.69712 135.378 9.33818 136.101C9.16303 136.458 8.98985 136.814 8.81962 137.171C8.46931 137.901 8.77528 138.775 9.50078 139.127C10.2265 139.478 11.0974 139.171 11.4467 138.441ZM15.2469 131.36C15.4423 131.031 15.6413 130.704 15.8426 130.379C16.2658 129.689 16.0532 128.787 15.3681 128.362C14.6838 127.936 13.7851 128.149 13.3616 128.837C13.1547 129.174 12.9487 129.513 12.7467 129.852C12.3311 130.545 12.5543 131.447 13.2461 131.862C13.9361 132.278 14.8311 132.053 15.2459 131.36H15.2469ZM19.6773 124.66C19.9025 124.351 20.1306 124.044 20.3594 123.737C20.8435 123.093 20.7147 122.172 20.0727 121.686C19.43 121.199 18.5148 121.327 18.0297 121.974C17.7922 122.291 17.5582 122.607 17.3254 122.927C16.8489 123.581 16.9896 124.497 17.6392 124.977C18.2886 125.455 19.2018 125.314 19.6773 124.66ZM24.7014 118.398C24.9536 118.111 25.2076 117.826 25.4636 117.544C26.0046 116.945 25.9612 116.017 25.3646 115.474C24.7679 114.927 23.847 114.974 23.3053 115.573C23.0395 115.866 22.7769 116.16 22.517 116.457C21.9829 117.061 22.0388 117.987 22.6411 118.525C23.2454 119.062 24.1675 119.005 24.7014 118.398ZM30.2724 112.627C30.5515 112.365 30.8294 112.105 31.1114 111.847C31.7061 111.3 31.7465 110.374 31.2028 109.777C30.6591 109.178 29.7363 109.136 29.1416 109.683C28.8519 109.951 28.5632 110.22 28.2764 110.49C27.6894 111.045 27.6605 111.973 28.2119 112.563C28.7644 113.152 29.6873 113.182 30.2743 112.627H30.2724ZM36.3494 107.398C36.6504 107.163 36.9517 106.93 37.2557 106.697C37.8967 106.207 38.0228 105.288 37.5368 104.645C37.049 103.998 36.1348 103.872 35.4938 104.362C35.1792 104.6 34.8673 104.843 34.5574 105.085C33.9213 105.583 33.8087 106.504 34.3034 107.143C34.7991 107.782 35.7143 107.896 36.3503 107.398H36.3494Z" fill="#272650"/>
<path d="M42.918 102.728C43.0815 102.624 43.2422 102.52 43.402 102.421C44.0832 101.991 44.2892 101.084 43.862 100.399C43.4328 99.7151 42.5329 99.5072 41.8518 99.938C41.6823 100.044 41.5167 100.151 41.3531 100.255C40.6737 100.688 40.4737 101.594 40.9058 102.278C41.3379 102.961 42.2385 103.162 42.918 102.728Z" fill="#272650"/>
<path d="M332.397 236.191C332.734 236.478 333.069 236.767 333.402 237.057C333.978 237.56 334.85 237.5 335.353 236.921C335.853 236.342 335.794 235.463 335.217 234.96C334.872 234.66 334.528 234.363 334.183 234.069C333.599 233.574 332.727 233.645 332.234 234.232C331.741 234.821 331.813 235.695 332.397 236.191ZM339.154 242.544C339.462 242.863 339.765 243.185 340.068 243.507C340.59 244.066 341.465 244.096 342.021 243.571C342.581 243.046 342.605 242.165 342.083 241.608C341.773 241.274 341.46 240.944 341.145 240.615C340.615 240.063 339.738 240.046 339.191 240.58C338.639 241.115 338.624 241.994 339.154 242.544ZM345.239 249.553C345.51 249.902 345.781 250.251 346.047 250.603C346.512 251.214 347.38 251.331 347.988 250.865C348.594 250.397 348.71 249.526 348.247 248.917C347.971 248.553 347.693 248.194 347.412 247.835C346.941 247.231 346.069 247.127 345.47 247.602C344.869 248.077 344.766 248.951 345.239 249.553ZM350.585 257.144C350.819 257.518 351.053 257.892 351.284 258.271C351.683 258.924 352.533 259.13 353.184 258.726C353.834 258.325 354.039 257.469 353.639 256.815C353.403 256.426 353.164 256.04 352.92 255.654C352.509 255.005 351.656 254.814 351.011 255.225C350.368 255.636 350.173 256.493 350.585 257.144ZM355.132 265.238C355.329 265.632 355.524 266.03 355.711 266.429C356.044 267.12 356.872 267.412 357.559 267.08C358.246 266.746 358.537 265.916 358.207 265.223C358.007 264.812 357.81 264.404 357.606 263.998C357.266 263.309 356.436 263.03 355.751 263.374C355.068 263.715 354.79 264.55 355.132 265.238ZM358.833 273.755C358.99 274.169 359.14 274.582 359.288 274.998C359.547 275.721 360.34 276.095 361.06 275.835C361.779 275.575 362.151 274.778 361.892 274.055C361.737 273.626 361.582 273.198 361.422 272.775C361.153 272.057 360.353 271.693 359.641 271.965C358.924 272.233 358.564 273.037 358.833 273.755ZM361.646 282.607C361.759 283.033 361.868 283.458 361.973 283.889C362.158 284.634 362.907 285.088 363.649 284.902C364.39 284.719 364.841 283.963 364.659 283.218C364.548 282.777 364.437 282.337 364.321 281.896C364.127 281.153 363.37 280.71 362.631 280.908C361.892 281.104 361.451 281.864 361.646 282.607ZM363.543 291.696C363.612 292.134 363.676 292.567 363.737 293.006C363.846 293.766 364.545 294.295 365.302 294.187C366.058 294.08 366.585 293.374 366.477 292.617C366.413 292.164 366.346 291.716 366.275 291.267C366.157 290.507 365.449 289.99 364.696 290.109C363.942 290.228 363.425 290.938 363.543 291.696ZM364.511 300.941C364.533 301.384 364.553 301.825 364.572 302.268C364.602 303.035 365.245 303.632 366.009 303.602C366.772 303.57 367.366 302.924 367.334 302.159C367.317 301.701 367.295 301.245 367.272 300.79C367.231 300.025 366.578 299.435 365.817 299.478C365.053 299.52 364.469 300.173 364.511 300.941ZM364.545 310.24C364.523 310.684 364.501 311.127 364.474 311.567C364.43 312.335 365.009 312.994 365.772 313.041C366.533 313.085 367.189 312.503 367.236 311.738C367.265 311.283 367.287 310.827 367.309 310.369C367.344 309.602 366.753 308.953 365.991 308.918C365.228 308.881 364.58 309.475 364.545 310.24ZM363.651 319.495C363.587 319.934 363.518 320.372 363.447 320.808C363.324 321.565 363.833 322.281 364.59 322.405C365.341 322.528 366.053 322.016 366.176 321.256C366.25 320.808 366.319 320.357 366.388 319.904C366.499 319.144 365.979 318.436 365.223 318.324C364.467 318.21 363.764 318.738 363.651 319.495ZM361.823 328.609C361.717 329.038 361.604 329.468 361.488 329.894C361.289 330.635 361.722 331.397 362.461 331.598C363.198 331.801 363.959 331.36 364.159 330.62C364.277 330.181 364.393 329.741 364.504 329.295C364.693 328.552 364.247 327.795 363.508 327.607C362.767 327.416 362.013 327.864 361.823 328.609ZM359.076 337.488C358.926 337.904 358.768 338.32 358.611 338.733C358.337 339.451 358.692 340.254 359.404 340.531C360.118 340.806 360.917 340.449 361.193 339.734C361.355 339.305 361.518 338.877 361.673 338.446C361.939 337.726 361.572 336.926 360.855 336.663C360.136 336.396 359.342 336.765 359.076 337.488ZM355.44 346.042C355.246 346.441 355.046 346.837 354.847 347.233C354.499 347.919 354.77 348.756 355.453 349.102C356.135 349.452 356.968 349.177 357.313 348.493C357.519 348.085 357.721 347.674 357.921 347.265C358.259 346.575 357.973 345.743 357.288 345.406C356.601 345.067 355.773 345.351 355.438 346.042H355.44ZM350.947 354.178C350.715 354.554 350.476 354.928 350.24 355.3C349.826 355.948 350.011 356.808 350.654 357.223C351.294 357.637 352.149 357.451 352.565 356.808C352.809 356.424 353.053 356.038 353.295 355.649C353.699 354.998 353.499 354.138 352.854 353.732C352.203 353.329 351.351 353.524 350.947 354.178ZM345.658 361.809C345.387 362.16 345.116 362.51 344.84 362.854C344.362 363.455 344.46 364.329 345.057 364.81C345.655 365.288 346.522 365.191 347.003 364.589C347.284 364.233 347.564 363.874 347.843 363.512C348.313 362.906 348.202 362.032 347.596 361.564C346.993 361.093 346.126 361.202 345.658 361.809ZM339.625 368.865C339.322 369.185 339.014 369.504 338.706 369.821C338.174 370.368 338.181 371.25 338.728 371.787C339.272 372.322 340.147 372.314 340.684 371.765C340.999 371.438 341.315 371.111 341.63 370.779C342.155 370.225 342.132 369.346 341.581 368.816C341.026 368.286 340.152 368.308 339.625 368.865ZM332.916 375.268C332.581 375.555 332.244 375.842 331.906 376.125C331.32 376.615 331.239 377.491 331.729 378.081C332.217 378.672 333.089 378.752 333.678 378.261C334.025 377.969 334.372 377.675 334.715 377.377C335.296 376.877 335.363 376.001 334.865 375.417C334.367 374.835 333.495 374.768 332.916 375.268ZM325.595 380.953C325.235 381.205 324.873 381.455 324.508 381.703C323.873 382.131 323.705 382.995 324.134 383.632C324.56 384.268 325.42 384.436 326.053 384.008C326.43 383.753 326.804 383.495 327.176 383.236C327.802 382.797 327.957 381.933 327.521 381.302C327.085 380.67 326.225 380.514 325.595 380.953ZM317.744 385.862C317.359 386.078 316.973 386.288 316.586 386.496C315.913 386.858 315.657 387.7 316.019 388.378C316.379 389.054 317.216 389.309 317.889 388.947C318.288 388.735 318.687 388.514 319.084 388.296C319.751 387.925 319.993 387.076 319.623 386.407C319.254 385.734 318.411 385.491 317.744 385.862ZM309.437 389.94C309.033 390.114 308.629 390.284 308.222 390.453C307.515 390.742 307.178 391.555 307.466 392.263C307.757 392.976 308.562 393.315 309.272 393.023C309.688 392.852 310.107 392.676 310.523 392.498C311.225 392.196 311.553 391.379 311.252 390.673C310.952 389.968 310.139 389.638 309.437 389.94ZM300.76 393.144C300.339 393.275 299.918 393.404 299.494 393.528C298.76 393.746 298.341 394.518 298.558 395.254C298.772 395.989 299.541 396.41 300.275 396.194C300.711 396.066 301.144 395.932 301.581 395.801C302.307 395.571 302.716 394.793 302.49 394.06C302.263 393.327 301.489 392.916 300.76 393.144ZM291.795 395.437C291.364 395.526 290.931 395.608 290.497 395.689C289.746 395.831 289.251 396.556 289.391 397.311C289.529 398.064 290.251 398.564 291.002 398.423C291.451 398.339 291.896 398.254 292.34 398.163C293.089 398.012 293.574 397.279 293.424 396.526C293.274 395.774 292.544 395.286 291.795 395.437ZM282.646 396.799C282.207 396.841 281.769 396.88 281.328 396.915C280.567 396.979 280 397.648 280.062 398.415C280.123 399.18 280.791 399.75 281.552 399.688C282.008 399.648 282.459 399.609 282.912 399.567C283.671 399.492 284.228 398.814 284.154 398.049C284.082 397.284 283.405 396.724 282.646 396.799ZM273.4 397.222C272.959 397.22 272.518 397.215 272.08 397.205C271.314 397.192 270.686 397.801 270.671 398.569C270.656 399.336 271.265 399.97 272.028 399.985C272.482 399.995 272.935 400 273.391 400C274.152 400.005 274.775 399.386 274.778 398.618C274.782 397.851 274.167 397.224 273.4 397.222ZM264.162 396.712C263.721 396.665 263.285 396.615 262.847 396.561C262.09 396.469 261.401 397.014 261.31 397.777C261.218 398.537 261.758 399.23 262.517 399.322C262.967 399.376 263.418 399.426 263.872 399.475C264.63 399.557 265.31 399.002 265.392 398.24C265.473 397.477 264.921 396.794 264.162 396.712ZM255.015 395.261C254.584 395.169 254.151 395.075 253.722 394.976C252.975 394.808 252.236 395.278 252.066 396.026C251.896 396.776 252.367 397.519 253.111 397.687C253.554 397.789 254 397.888 254.446 397.982C255.193 398.141 255.927 397.658 256.084 396.908C256.242 396.157 255.764 395.42 255.015 395.261ZM246.065 392.877C245.644 392.741 245.225 392.604 244.806 392.461C244.082 392.216 243.299 392.607 243.052 393.335C242.809 394.063 243.198 394.85 243.922 395.098C244.353 395.241 244.787 395.385 245.22 395.526C245.947 395.761 246.726 395.358 246.96 394.625C247.194 393.894 246.792 393.112 246.065 392.877ZM237.406 389.584C237.002 389.406 236.598 389.225 236.196 389.042C235.502 388.722 234.681 389.032 234.366 389.73C234.048 390.428 234.354 391.253 235.051 391.569C235.462 391.76 235.879 391.946 236.295 392.129C236.995 392.439 237.81 392.117 238.118 391.413C238.423 390.713 238.106 389.893 237.406 389.584ZM229.129 385.417C228.744 385.199 228.362 384.979 227.983 384.753C227.323 384.365 226.475 384.587 226.089 385.251C225.704 385.912 225.924 386.764 226.584 387.152C226.976 387.383 227.37 387.61 227.766 387.838C228.429 388.215 229.274 387.979 229.651 387.311C230.028 386.642 229.794 385.796 229.129 385.417ZM221.319 380.425C220.96 380.168 220.602 379.91 220.245 379.648C219.629 379.192 218.765 379.329 218.314 379.95C217.861 380.569 217.996 381.438 218.612 381.891C218.979 382.161 219.349 382.428 219.718 382.691C220.341 383.136 221.204 382.988 221.647 382.364C222.088 381.738 221.94 380.869 221.319 380.425ZM214.054 374.661C213.722 374.369 213.392 374.077 213.067 373.78C212.497 373.265 211.623 373.312 211.113 373.884C210.601 374.451 210.647 375.332 211.214 375.845C211.552 376.152 211.891 376.454 212.231 376.754C212.808 377.261 213.682 377.202 214.183 376.625C214.688 376.045 214.628 375.169 214.054 374.661ZM207.408 368.192C207.107 367.867 206.809 367.541 206.514 367.214C205.999 366.644 205.127 366.6 204.56 367.115C203.993 367.632 203.949 368.511 204.464 369.078C204.769 369.417 205.075 369.754 205.385 370.088C205.905 370.648 206.78 370.678 207.339 370.155C207.898 369.63 207.93 368.751 207.408 368.192ZM201.449 361.078C201.183 360.727 200.919 360.37 200.655 360.014C200.202 359.395 199.337 359.264 198.722 359.719C198.108 360.175 197.978 361.044 198.428 361.663C198.699 362.029 198.97 362.396 199.244 362.76C199.707 363.369 200.574 363.49 201.183 363.027C201.791 362.562 201.909 361.69 201.449 361.078Z" fill="#272650"/>
<path d="M45.4108 109.802L35.168 96.3283L50.9421 95.1968L45.4108 109.802Z" fill="#272650"/>
<path d="M334.529 163.052L346.438 177.323L330.184 178.516L334.529 163.052Z" fill="#272650"/>
</svg>
