<svg width="575" height="307" viewBox="0 0 575 307" fill="none" xmlns="http://www.w3.org/2000/svg">
<path d="M27.4219 95.7781H-20C-20 95.7781 -18.713 86.3237 -14.5019 86.3237C-10.5005 86.3237 -9.66691 92.3287 -4.87879 92.3287C-4.62674 92.3287 -4.36374 92.3121 -4.08873 92.2771C1.41003 91.5765 -1.97411 71.6472 6.4502 71.6472C14.8735 71.6472 12.2914 89.5921 15.6844 91.2267C15.8789 91.3203 16.058 91.364 16.2234 91.364C17.5164 91.364 17.9822 88.6738 18.6681 85.9827C19.354 83.2915 20.2602 80.6013 22.4344 80.6013C22.655 80.6013 22.8885 80.6284 23.1361 80.687C26.962 81.5852 27.3102 91.4611 27.4219 95.7781Z" fill="#D4CDEB"/>
<path d="M590 94.6331H527.303C527.447 88.9255 527.909 75.8678 532.968 74.6801C533.296 74.6032 533.604 74.5664 533.895 74.5664C536.77 74.5664 537.967 78.1243 538.875 81.6812C539.781 85.2391 540.397 88.7969 542.106 88.7969C542.325 88.7969 542.562 88.7383 542.82 88.6141C547.306 86.4539 543.891 62.728 555.028 62.728C566.167 62.728 561.691 89.0777 568.962 90.0039C569.325 90.0502 569.673 90.0721 570.006 90.0721C576.337 90.0721 577.439 82.1334 582.729 82.1334C588.298 82.1334 590 94.6331 590 94.6331Z" fill="#D4CDEB"/>
<path d="M39.4122 29.8525C43.3186 30.5443 44.268 31.4924 44.9624 35.3887C45.0158 35.6878 45.4445 35.6878 45.498 35.3887C46.1923 31.4924 47.1418 30.5443 51.0474 29.8525C51.3472 29.7992 51.3472 29.3715 51.0474 29.3182C47.1418 28.6255 46.1923 27.6792 45.498 23.782C45.4445 23.4829 45.0158 23.4829 44.9624 23.782C44.268 27.6792 43.3186 28.6255 39.4122 29.3182C39.1126 29.3715 39.1126 29.7992 39.4122 29.8525Z" fill="#CBC5E8"/>
<path d="M48.1138 332.663L47.2441 332.555C50.6956 304.857 64.0552 257.679 74.3675 230.994L75.1864 231.308C64.8916 257.945 51.5574 305.028 48.1138 332.663Z" fill="white"/>
<path d="M406.131 321.956C408.795 321.958 410.693 319.274 409.69 316.813C406.795 309.709 398.619 304.834 390.843 302.507C377.157 298.411 362.629 298.481 348.352 297.84C334.076 297.202 319.373 295.685 306.833 288.849C302.754 286.626 298.957 283.706 295.723 280.297V194.594H274.906V280.297C271.674 283.706 267.877 286.626 263.798 288.849C251.258 295.685 236.553 297.202 222.278 297.84C208.002 298.481 193.474 298.411 179.786 302.507C172.011 304.834 163.835 309.709 160.94 316.813C159.937 319.274 161.836 321.958 164.499 321.956C166.383 321.955 168.266 321.954 170.148 321.952L169.846 321.901C170.08 319.594 171.913 317.697 174.022 316.724C176.13 315.75 178.498 314.16 180.813 313.956C192.197 312.952 378.433 312.952 389.817 313.956C392.132 314.16 394.5 315.75 396.608 316.724C398.717 317.697 400.55 319.594 400.783 321.901L400.482 321.952L406.131 321.956Z" fill="#8160AD"/>
<path d="M286.118 288.412H285.998C282.711 288.412 280.047 285.754 280.047 282.477V257.515C280.047 254.236 282.711 251.578 285.998 251.578H286.118C289.404 251.578 292.068 254.236 292.068 257.515V282.477C292.068 285.754 289.404 288.412 286.118 288.412Z" fill="#8160AD"/>
<path d="M502.052 278.067C355.952 256.312 208.479 256.313 62.3784 278.067C58.4912 278.646 54.9941 275.656 54.9941 271.735V6.40491C54.9941 2.48325 58.4912 -0.507019 62.3784 0.0719604C208.479 21.8274 355.952 21.8274 502.052 0.0719604C505.939 -0.507019 509.437 2.48325 509.437 6.40491V271.735C509.437 275.656 505.939 278.646 502.052 278.067Z" fill="#8160AD"/>
<path d="M497.289 276.42C351.856 254.027 204.961 254.028 59.5273 276.42C59.5273 186.438 59.5273 96.4568 59.5273 6.47443C204.96 28.8675 351.857 28.8683 497.289 6.47443C497.289 96.4568 497.289 186.438 497.289 276.42Z" fill="#CBC5E8"/>
<path d="M59.5273 6.47443C59.5273 96.4568 59.5273 186.438 59.5273 276.42C71.1284 274.634 82.7382 273.006 94.355 271.505L162.202 18.5307C127.922 15.7416 93.6843 11.7342 59.5273 6.47443Z" fill="#E3DFF2"/>
<path d="M186.79 113.626C173.494 113.626 162.715 102.874 162.715 89.6088C162.715 76.3448 173.494 65.5916 186.79 65.5916C200.086 65.5916 210.864 76.3448 210.864 89.6088C210.864 102.874 200.086 113.626 186.79 113.626ZM186.79 49.9435C164.832 49.9435 147.031 67.702 147.031 89.6088C147.031 111.516 164.832 129.274 186.79 129.274C208.749 129.274 226.55 111.516 226.55 89.6088C226.55 67.702 208.749 49.9435 186.79 49.9435Z" fill="white"/>
<path d="M186.79 113.626C173.739 113.626 163.121 103.264 162.734 90.3365H147.049C147.44 111.907 165.077 129.274 186.79 129.274C208.504 129.274 226.141 111.907 226.531 90.3365H210.847C210.459 103.264 199.841 113.626 186.79 113.626Z" fill="#5D5EB5"/>
<path d="M206.18 54.9813L199.316 69.0946C206.243 73.3119 210.867 80.9208 210.867 89.609C210.867 89.853 210.856 90.0944 210.849 90.3367H226.533C226.538 90.0935 226.552 89.853 226.552 89.609C226.552 74.7278 218.332 61.7681 206.18 54.9813Z" fill="#8684CA"/>
<path d="M280.902 113.626C267.606 113.626 256.827 102.874 256.827 89.6088C256.827 76.3448 267.606 65.5916 280.902 65.5916C294.198 65.5916 304.977 76.3448 304.977 89.6088C304.977 102.874 294.198 113.626 280.902 113.626ZM280.902 49.9435C258.943 49.9435 241.143 67.702 241.143 89.6088C241.143 111.516 258.943 129.274 280.902 129.274C302.861 129.274 320.662 111.516 320.662 89.6088C320.662 67.702 302.861 49.9435 280.902 49.9435Z" fill="white"/>
<path d="M280.898 65.5916C287.98 65.5916 294.337 68.6518 298.741 73.5076L310.331 62.9652C303.06 54.9715 292.572 49.9435 280.898 49.9435C273.019 49.9435 265.681 52.2375 259.504 56.1828L269.216 68.63C272.678 66.7067 276.653 65.5916 280.898 65.5916Z" fill="white"/>
<path d="M320.622 88.1533C320.271 78.4663 316.433 69.6723 310.332 62.9651L298.742 73.5074C302.301 77.4326 304.589 82.5271 304.925 88.1533H320.622Z" fill="#5D5EB5"/>
<path d="M269.22 68.6301L259.508 56.1829C248.855 62.9863 241.667 74.7146 241.179 88.1536C241.162 88.6372 241.143 89.1209 241.143 89.6089C241.143 99.9387 245.103 109.343 251.589 116.401L263.179 105.859C259.236 101.582 256.827 95.8771 256.827 89.6089C256.827 89.12 256.847 88.6355 256.876 88.1536C257.38 79.7391 262.237 72.5106 269.22 68.6301Z" fill="#5D5EB5"/>
<path d="M320.661 89.6087C320.661 89.1207 320.641 88.637 320.624 88.1534H304.927C304.956 88.6353 304.975 89.1198 304.975 89.6087C304.975 95.9801 302.484 101.767 298.426 106.067L308.127 118.502C315.838 111.267 320.661 101.002 320.661 89.6087Z" fill="#8684CA"/>
<path d="M375.01 113.626C361.713 113.626 350.935 102.874 350.935 89.6088C350.935 76.3448 361.713 65.5916 375.01 65.5916C388.305 65.5916 399.084 76.3448 399.084 89.6088C399.084 102.874 388.305 113.626 375.01 113.626ZM375.01 49.9435C353.051 49.9435 335.25 67.702 335.25 89.6088C335.25 111.516 353.051 129.274 375.01 129.274C396.969 129.274 414.769 111.516 414.769 89.6088C414.769 67.702 396.969 49.9435 375.01 49.9435Z" fill="white"/>
<path d="M399.087 89.6084C399.087 98.2415 394.52 105.807 387.666 110.04L398.602 121.535C408.408 114.312 414.772 102.704 414.772 89.6084C414.772 77.9571 409.735 67.4795 401.717 60.2222L390.397 71.1371C395.706 75.5433 399.087 82.1805 399.087 89.6084Z" fill="#5D5EB5"/>
<path d="M180.286 202.148H135.721V208.698H180.286V202.148Z" fill="#8684CA"/>
<path d="M158.69 216.616H135.721V219.283H158.69V216.616Z" fill="white"/>
<path d="M177.098 216.616H162.432V219.283H177.098V216.616Z" fill="white"/>
<path d="M168.802 223.725V225.503H167.304V223.725H143.586V226.392H178.913V223.725H168.802Z" fill="white"/>
<path d="M141.713 223.725H135.721V226.392H141.713V223.725Z" fill="white"/>
<path d="M180.287 223.725V226.392H185.904V223.725H180.287Z" fill="white"/>
<path d="M182.165 230.835H135.721V233.502H182.165V230.835Z" fill="white"/>
<path d="M169.549 237.945H135.721V240.611H169.549V237.945Z" fill="white"/>
<path d="M171.795 237.945V240.611H185.901V237.945H171.795Z" fill="white"/>
<path d="M409.33 202.148H364.766V208.698H409.33V202.148Z" fill="#8684CA"/>
<path d="M387.734 216.616H364.766V219.283H387.734V216.616Z" fill="white"/>
<path d="M406.146 216.616H391.48V219.283H406.146V216.616Z" fill="white"/>
<path d="M397.845 223.725V225.503H396.346V223.725H372.629V226.392H407.956V223.725H397.845Z" fill="white"/>
<path d="M370.758 223.725H364.766V226.392H370.758V223.725Z" fill="white"/>
<path d="M409.328 223.725V226.392H414.946V223.725H409.328Z" fill="white"/>
<path d="M411.211 230.835H364.766V233.502H411.211V230.835Z" fill="white"/>
<path d="M398.595 237.945H364.766V240.611H398.595V237.945Z" fill="white"/>
<path d="M400.842 237.945V240.611H414.947V237.945H400.842Z" fill="white"/>
<path d="M199.859 148.379H171.949V141.767H199.859V148.379Z" fill="white"/>
<path d="M199.917 155.567H171.887V153.739H199.917V155.567Z" fill="white"/>
<path d="M199.917 163.196H171.887V161.369H199.917V163.196Z" fill="white"/>
<path d="M294.855 148.379H266.945V141.767H294.855V148.379Z" fill="white"/>
<path d="M294.917 155.567H266.889V153.739H294.917V155.567Z" fill="white"/>
<path d="M294.917 163.196H266.889V161.369H294.917V163.196Z" fill="white"/>
<path d="M389.856 148.379H361.947V141.767H389.856V148.379Z" fill="white"/>
<path d="M389.914 155.567H361.883V153.739H389.914V155.567Z" fill="white"/>
<path d="M389.914 163.196H361.883V161.369H389.914V163.196Z" fill="white"/>
<path d="M318.755 201.377H243.049V208.436H318.755V201.377Z" fill="#8160AD"/>
<path d="M288.013 215.3H243.049V216.979H288.013V215.3Z" fill="white"/>
<path d="M301.126 221.541H243.049V223.22H301.126V221.541Z" fill="white"/>
<path d="M267.441 227.541H243.049V229.22H267.441V227.541Z" fill="white"/>
<path d="M108.578 234.962C108.741 236.258 108.886 237.435 108.991 238.464C109.017 238.727 109.044 238.998 109.074 239.294C110.163 252.192 109.189 296.706 108.854 310.621C108.838 311.085 108.832 311.516 108.821 311.906C108.772 313.762 108.972 316.554 108.972 316.554L95.6525 317.687C95.6525 317.687 95.2142 314.931 94.86 313.147C94.7688 312.716 94.6777 312.244 94.5725 311.733C93.0883 304.322 89.9086 288.42 87.1996 274.479C83.5185 255.551 84.3049 244.298 84.3049 244.298C84.3049 244.298 85.0571 239.785 82.2149 228.816C79.8645 219.724 69.7775 191.821 66.9397 182.222C66.3664 180.285 68.3117 178.172 68.3117 178.172C68.3117 178.172 86.8209 165.443 93.0549 171.121C93.5389 171.564 95.1914 175.789 95.493 176.414C96.2539 177.99 97.1613 180.555 98.1326 183.775C102.18 197.141 106.871 222.015 108.578 234.962Z" fill="#5D5EB5"/>
<path d="M100.564 239.576C105.025 240.81 108.564 238.818 108.716 238.73C109.022 238.553 109.128 238.161 108.95 237.854C108.773 237.549 108.382 237.443 108.074 237.62C108.026 237.647 104.671 239.504 100.634 238.261C100.295 238.154 99.9356 238.347 99.8313 238.685C99.727 239.023 99.9172 239.382 100.256 239.486C100.359 239.518 100.463 239.548 100.564 239.576Z" fill="#3E4AA7"/>
<path d="M96.3988 312.549L96.3936 312.55C96.1586 312.584 95.9395 312.421 95.9044 312.186C95.8535 311.835 90.7627 277.055 88.9383 266.616C87.4007 257.812 86.8659 240.535 86.8352 239.5C82.6657 222.916 71.6731 180.637 71.5627 180.211C71.5031 179.982 71.6416 179.747 71.8713 179.687C72.1018 179.628 72.3377 179.766 72.3973 179.995C72.5086 180.422 83.5214 222.781 87.6838 239.336L87.6961 239.429C87.7014 239.608 88.2212 257.496 89.7887 266.468C91.6139 276.918 96.7065 311.711 96.7574 312.061C96.7916 312.295 96.632 312.512 96.3988 312.549Z" fill="#3E4AA7"/>
<path d="M70.7154 187.211C70.0264 187.364 69.3329 187.511 68.6377 187.651C59.743 189.446 50.4073 190.172 43.8734 188.794C40.6491 188.113 38.5869 184.626 37.2737 180.731C36.9157 179.668 36.6709 178.558 36.3582 177.497C33.2505 166.935 34.8361 158.192 34.8361 158.192L86.6726 157.338C86.6726 157.338 88.2717 159.94 90.0461 163.331C91.3313 165.787 92.7076 168.654 93.6396 171.249L93.6422 171.256C94.1971 172.808 94.5925 174.262 94.7117 175.467C95.094 179.326 83.6586 184.336 70.7154 187.211Z" fill="#5D5EB5"/>
<path d="M67.146 239.834C67.1057 241.139 67.0662 242.325 67.0101 243.357C66.9934 243.622 66.9768 243.895 66.9619 244.191C66.03 257.1 58.139 300.923 55.6423 314.618C55.5537 315.074 55.4818 315.499 55.41 315.883C55.0724 317.709 54.8804 318.743 54.8804 318.743L41.5461 317.798C41.5461 317.798 41.4982 316.764 41.4253 314.947C41.4012 314.506 41.3852 314.025 41.3612 313.505C41.0485 305.953 40.3817 289.751 39.8766 275.56C39.1856 256.292 41.7146 245.296 41.7146 245.296C41.7146 245.296 43.1598 240.954 42.0598 229.679C41.153 220.332 37.9333 190.597 36.6251 180.675C36.3604 178.673 36.2422 177.086 36.2422 177.086C36.2422 177.086 57.1274 171.625 62.4023 178.2C62.8117 178.712 63.1326 179.305 63.3325 179.97C63.8383 181.644 64.3362 184.319 64.7939 187.65C66.7129 201.481 67.4756 226.78 67.146 239.834Z" fill="#5D5EB5"/>
<path d="M58.7487 242.445C63.2092 243.679 66.7475 241.687 66.8991 241.6C67.206 241.423 67.312 241.031 67.1341 240.725C66.9579 240.418 66.5651 240.313 66.2583 240.489C66.2101 240.516 62.8542 242.373 58.8188 241.131C58.4787 241.023 58.1201 241.216 58.0149 241.554C57.9106 241.893 58.1008 242.251 58.4392 242.355C58.5427 242.387 58.6461 242.417 58.7487 242.445Z" fill="#3E4AA7"/>
<path d="M41.2461 196.044C41.0533 196.044 40.8803 195.912 40.8351 195.717C40.7828 195.491 40.9242 195.264 41.1509 195.213C41.1895 195.203 43.5885 194.624 46.0379 192.615C49.3237 189.921 51.1428 186.068 51.4452 181.163C51.4593 180.931 51.6609 180.753 51.8914 180.769C52.1246 180.783 52.3017 180.982 52.2877 181.215C51.8906 187.648 48.9432 191.332 46.542 193.29C43.9339 195.417 41.4454 196.009 41.3409 196.032L41.2461 196.044Z" fill="#3E4AA7"/>
<path d="M43.0357 314.593H43.0305C42.7925 314.59 42.6015 314.395 42.6042 314.158C42.6083 313.804 42.9928 278.656 42.8165 268.062C42.6665 259.126 44.8285 241.975 44.9582 240.95C43.4205 223.92 39.1426 180.451 39.0999 180.014C39.0759 179.777 39.2499 179.566 39.4868 179.544C39.7232 179.52 39.9348 179.692 39.9577 179.929C40.0006 180.367 44.2876 223.92 45.8226 240.918L45.82 241.012C45.7972 241.19 43.5257 258.943 43.6783 268.047C43.8545 278.653 43.4705 313.814 43.4661 314.167C43.4635 314.404 43.2715 314.593 43.0357 314.593Z" fill="#3E4AA7"/>
<path d="M66.6506 187.292C66.4972 187.274 66.3569 187.173 66.2973 187.019C66.2105 186.798 66.3201 186.548 66.5419 186.463C66.6112 186.435 71.4197 184.495 72.9267 179.264C72.9925 179.035 73.2309 178.902 73.4597 178.968C73.6886 179.034 73.8201 179.272 73.7552 179.502C72.1246 185.163 67.0697 187.181 66.8558 187.264L66.6506 187.292Z" fill="#3E4AA7"/>
<path d="M76.5985 69.035C76.5985 69.035 59.9329 70.2131 53.3149 73.8995C44.3667 78.882 43.7189 109.977 40.6156 123.394C37.5113 136.813 30.8993 160.732 35.2398 171.589C37.5952 177.481 83.2849 178.41 93.385 174.838C98.71 172.955 95.2234 136.733 99.8558 121.68C104.488 106.628 109.556 96.575 108.857 89.8494C108.289 84.3867 92.7451 76.0877 92.7451 76.0877L76.5985 69.035Z" fill="#DEDEDE"/>
<path d="M38.0184 167.056C37.7318 167.056 37.4962 166.827 37.4903 166.54C37.2343 154.298 39.254 141.911 43.6649 128.672C48.655 113.692 49.9726 91.0301 49.9857 90.8027C50.0006 90.5123 50.247 90.2893 50.5416 90.3059C50.8326 90.3225 51.0562 90.5709 51.0404 90.8622C51.0272 91.0904 49.7017 113.89 44.667 129.003C40.2951 142.127 38.2935 154.399 38.5468 166.518C38.5527 166.809 38.3208 167.05 38.0298 167.056H38.0184Z" fill="#283879"/>
<path d="M57.4388 155.436C62.8461 155.436 68.8846 153.91 75.2975 150.89C82.7904 147.361 88.239 142.986 88.2933 142.941C88.5256 142.753 88.5624 142.412 88.3731 142.179C88.1846 141.946 87.8418 141.911 87.6086 142.099C87.5551 142.142 82.1925 146.446 74.8118 149.919C68.05 153.101 58.1577 156.218 49.433 153C49.1507 152.896 48.8386 153.04 48.7352 153.321C48.6309 153.601 48.7746 153.914 49.056 154.017C51.6247 154.965 54.4344 155.436 57.4388 155.436Z" fill="#283879"/>
<path d="M58.5295 164.691C64.2893 164.691 69.0969 163.128 72.3336 161.666C76.5977 159.74 79.0682 157.622 79.1725 157.533C79.3978 157.336 79.4233 156.995 79.226 156.769C79.0296 156.542 78.6869 156.518 78.4598 156.714C78.3634 156.798 68.599 165.065 54.8159 163.381C54.5205 163.346 54.2478 163.556 54.211 163.853C54.1751 164.15 54.3864 164.421 54.6844 164.457C56.0056 164.618 57.2908 164.691 58.5295 164.691Z" fill="#283879"/>
<path d="M82.8883 83.7131C87.7197 83.7131 91.5893 80.5891 91.7664 80.4439C91.9978 80.2541 92.032 79.9122 91.8418 79.6804C91.6507 79.4495 91.3079 79.4162 91.0765 79.606C91.0133 79.6576 86.6098 83.1901 81.6382 82.549C78.7951 82.1826 76.2843 80.5252 74.1742 77.6233C73.9989 77.3811 73.6587 77.3269 73.4159 77.5027C73.173 77.6785 73.1187 78.0178 73.2949 78.26C75.5891 81.4156 78.3515 83.2207 81.5076 83.6257C81.974 83.6851 82.4351 83.7131 82.8883 83.7131Z" fill="#283879"/>
<path d="M101.5 55.0956C101.5 55.0956 102.944 55.4008 102.997 57.2943C103.051 59.1878 101.733 62.1754 99.8936 61.5649C98.0552 60.9545 101.5 55.0956 101.5 55.0956Z" fill="#864F4A"/>
<path d="M77.8902 45.6491C77.8902 45.6491 74.9253 39.2917 76.8978 36.3399C78.8712 33.3891 80.0705 35.0613 80.0705 35.0613C80.0705 35.0613 78.9133 31.3548 81.5713 30.398C84.2294 29.4412 85.4015 31.7588 85.4015 31.7588C85.4015 31.7588 88.7127 27.1165 92.194 28.6698C95.6753 30.2239 93.7738 32.8888 93.7738 32.8888C93.7738 32.8888 99.9192 29.3948 102.641 32.0448C105.364 34.6949 102.957 36.6041 102.957 36.6041C102.957 36.6041 109.01 34.2322 110.643 39.2917C112.276 44.3512 107.291 44.6232 107.291 44.6232C107.291 44.6232 113.728 45.9797 111.138 48.7898C108.548 51.5998 101.844 47.5216 101.844 47.5216C101.844 47.5216 81.5231 42.6046 77.8902 45.6491Z" fill="#864F4A"/>
<path d="M74.8457 69.7047C75.0763 72.4561 78.7031 76.1985 80.8632 77.2235C84.2235 78.8197 87.8739 78.9307 90.9099 77.8034L92.0373 72.569L92.2678 71.502L92.7035 69.4755L81.7039 58.4557L81.0701 57.8199L80.6414 57.3904L80.3784 57.8137L80.0759 58.3026L80.0952 58.5379C78.0964 63.4277 77.4985 66.4407 74.8457 69.7047Z" fill="#8C8C8C"/>
<path d="M91.1475 76.7075C86.2863 74.4135 84.4295 69.3539 83.7598 66.6182C85.8506 69.1799 88.5972 71.1381 91.3894 71.4512C91.691 71.4853 91.9847 71.5011 92.2679 71.4993L91.1475 76.7075Z" fill="#864F4A"/>
<path d="M92.2675 71.5022C91.9826 71.5022 91.6898 71.4856 91.3873 71.4532C85.9274 70.8428 80.6402 63.9291 80.0949 58.5381L80.0756 58.3029C80.0616 58.1218 80.0511 57.9443 80.0493 57.7676L79.9774 57.7422H79.9757C76.5549 56.5808 73.7671 51.9367 75.4573 49.1328C76.3726 47.6154 77.4903 47.3364 78.4389 47.4842C78.3398 45.902 78.36 44.3663 78.5827 43.0789C79.4637 37.9398 84.8219 31.5622 94.2821 35.539C103.74 39.5158 105.291 47.3783 103.473 52.0408C102.438 54.7013 101.553 57.437 100.985 59.2964C100.797 59.9209 100.642 60.4474 100.528 60.8374C100.386 61.3255 100.309 61.6045 100.309 61.6045C100.033 65.9346 97.5249 71.5013 92.2675 71.5022Z" fill="#8C8C8C"/>
<path d="M91.1132 60.329C91.1132 60.329 90.6845 63.7443 93.5012 64.4309C96.3189 65.1174 97.1307 62.3843 97.1307 62.3843L91.1132 60.329Z" fill="white"/>
<path d="M92.6947 65.604C92.1617 65.3913 91.9346 64.9495 91.9223 64.9232C91.8575 64.7946 91.9101 64.6388 92.0389 64.5741C92.1669 64.5111 92.323 64.5619 92.3878 64.6896C92.4019 64.7176 92.7008 65.2671 93.4574 65.1901C93.6012 65.1752 93.7283 65.2793 93.7432 65.4219C93.7581 65.5646 93.6538 65.6923 93.5109 65.7072C93.183 65.7413 92.913 65.6915 92.6947 65.604Z" fill="#F05F58"/>
<path d="M91.1128 50.5374C90.9673 50.4622 90.8376 50.3528 90.7376 50.2094C90.4097 49.7406 90.5246 49.0943 90.9945 48.7672C91.1067 48.6894 93.7648 46.8798 96.2887 48.6176C96.7604 48.943 96.8787 49.5884 96.5526 50.059C96.2273 50.5295 95.5804 50.6467 95.1078 50.3231C93.756 49.3908 92.199 50.4552 92.1824 50.4665C91.8562 50.693 91.4442 50.7079 91.1128 50.5374Z" fill="#864F4A"/>
<path d="M101.487 53.5774C101.218 53.4392 101.012 53.1856 100.945 52.8672C100.765 52.0092 99.3757 51.5868 99.0136 51.5203C98.4508 51.418 98.0765 50.8784 98.179 50.3152C98.2816 49.7528 98.8234 49.3802 99.3871 49.4834C100.535 49.6924 102.583 50.5513 102.977 52.4457C103.095 53.0045 102.734 53.5538 102.172 53.6701C101.93 53.7199 101.69 53.6823 101.487 53.5774Z" fill="#864F4A"/>
<path d="M99.8573 56.1471C99.6171 56.817 99.1393 57.2587 98.7904 57.1336C98.4415 57.0085 98.3538 56.3648 98.5958 55.6949C98.836 55.025 99.3138 54.5833 99.6636 54.7084C100.012 54.8334 100.099 55.4771 99.8573 56.1471Z" fill="#DEDEDE"/>
<path d="M97.5155 54.8699L97.4445 54.7771C97.4094 54.6791 97.462 54.5715 97.5602 54.5365C97.6426 54.5076 99.5879 53.8435 100.764 55.2601C100.832 55.3397 100.821 55.4587 100.74 55.5252C100.659 55.5917 100.542 55.5804 100.473 55.5007C99.4643 54.2845 97.7031 54.8856 97.6856 54.8926L97.5155 54.8699Z" fill="#DEDEDE"/>
<path d="M78.4383 47.4837C78.4383 47.4837 80.6746 47.6665 81.7915 49.2067C82.9067 50.7459 82.2474 54.079 84.0428 54.5775C85.8383 55.076 84.2962 48.3837 85.4622 47.3586C86.6281 46.3336 90.141 47.9376 90.5513 43.2035C90.7827 40.5316 100.02 43.6635 101.55 45.9322C103.08 48.2009 105.489 50.2745 105.62 47.3053C105.748 44.3361 100.227 35.4275 94.2762 34.2057C88.3245 32.9839 81.8967 33.2008 79.2492 38.8777C76.6025 44.5538 78.4383 47.4837 78.4383 47.4837Z" fill="#864F4A"/>
<path d="M82.6607 57.9174C82.3557 58.1834 82.0269 58.3523 81.7017 58.4555C81.1081 58.6445 80.519 58.613 80.0921 58.5378L80.0737 58.3033C80.0579 58.1222 80.0491 57.9428 80.0474 57.766L79.9746 57.7415C80.0824 57.7678 80.2183 57.7958 80.3744 57.8142C80.5795 57.8404 80.8162 57.8509 81.0661 57.8194C81.4334 57.7757 81.8235 57.6435 82.1654 57.3487C82.3223 57.2113 82.5625 57.2288 82.6967 57.3863C82.8343 57.5438 82.8185 57.7818 82.6607 57.9174Z" fill="#864F4A"/>
<path d="M79.8539 55.0535C79.7171 54.9835 79.6321 54.8331 79.6513 54.6722C79.9827 52.0204 77.3466 49.9739 77.3194 49.9538C77.1546 49.8278 77.123 49.5917 77.2493 49.4264C77.3755 49.2611 77.6113 49.2287 77.7779 49.3547C77.9006 49.4482 80.7858 51.6793 80.4009 54.7657C80.3755 54.9721 80.187 55.1182 79.9792 55.0928L79.8539 55.0535Z" fill="#864F4A"/>
<path d="M77.1851 52.6514L77.0711 52.5613C76.9361 52.4038 76.9536 52.1658 77.1123 52.0302C77.1561 51.9934 78.1889 51.1307 79.6275 51.66C79.823 51.7327 79.9238 51.9488 79.851 52.1448C79.7791 52.3399 79.5617 52.4396 79.3662 52.367C78.3379 51.989 77.6103 52.5963 77.6041 52.6024C77.484 52.7048 77.3174 52.7196 77.1851 52.6514Z" fill="#864F4A"/>
<path d="M95.4997 59.8637C95.4182 59.8217 95.3524 59.7509 95.3182 59.659C95.2463 59.464 95.3463 59.2471 95.5418 59.1763L97.9123 58.3069L96.3325 57.2705C96.2396 57.2111 96.1791 57.1131 96.1651 57.0038L95.5619 52.239C95.5365 52.0335 95.6829 51.8446 95.8889 51.8192C96.0958 51.7921 96.2843 51.939 96.3106 52.1454L96.8927 56.737L98.952 58.0883C99.0713 58.1661 99.1361 58.3052 99.1204 58.446C99.1037 58.5877 99.009 58.7075 98.8749 58.7565L95.8022 59.8829C95.6996 59.9205 95.59 59.91 95.4997 59.8637Z" fill="#864F4A"/>
<path d="M93.971 54.1511C93.73 54.8202 93.2522 55.2627 92.9041 55.1368C92.5543 55.0126 92.4675 54.3689 92.7086 53.6981C92.9488 53.029 93.4275 52.5874 93.7764 52.7124C94.1245 52.8375 94.2121 53.4812 93.971 54.1511Z" fill="#DEDEDE"/>
<path d="M91.2749 53.0256L91.1943 52.9425C91.1469 52.8497 91.1847 52.736 91.2776 52.6896C91.3556 52.6502 93.201 51.7464 94.5484 53.0028L94.5563 53.2688L94.2907 53.2776C93.1326 52.1987 91.4634 53.0177 91.4476 53.0265L91.2749 53.0256Z" fill="#DEDEDE"/>
<path d="M92.3209 94.1464L92.54 94.9449L92.7487 95.6691L93.173 97.0868C93.4588 98.0252 93.7647 98.9496 94.0733 99.8715C94.687 101.717 95.355 103.539 96.0564 105.353C96.7533 107.17 97.5029 108.972 98.2998 110.764C99.0949 112.556 99.9251 114.348 100.831 116.117C102.647 119.656 104.641 123.182 107.083 126.612C108.303 128.329 109.618 130.031 111.104 131.698C111.467 132.115 111.86 132.528 112.243 132.94C112.441 133.146 112.644 133.35 112.846 133.553L113.149 133.857L113.465 134.16C114.296 134.966 115.201 135.755 116.156 136.52C118.076 138.045 120.277 139.481 122.887 140.586C124.185 141.137 125.578 141.607 127.056 141.922L127.331 141.983L127.399 141.998L127.587 142.034C127.748 142.063 127.909 142.089 128.072 142.112C128.396 142.158 128.722 142.191 129.047 142.212C129.381 142.231 129.75 142.224 130.101 142.208C130.457 142.189 130.809 142.164 131.159 142.105C131.512 142.049 131.863 141.975 132.21 141.887C132.382 141.843 132.554 141.795 132.725 141.744C132.883 141.692 133.041 141.637 133.198 141.577C133.51 141.46 133.82 141.33 134.122 141.188L134.342 141.081L134.537 140.976C134.666 140.906 134.795 140.832 134.922 140.757C135.175 140.606 135.427 140.445 135.667 140.281C135.87 140.133 136.069 139.979 136.266 139.82L136.555 139.579L136.698 139.455L136.767 139.392L136.824 139.338C136.978 139.192 137.129 139.044 137.276 138.892L137.494 138.662L137.602 138.546L137.698 138.437C137.928 138.165 138.152 137.886 138.366 137.602C139.123 136.552 139.559 135.686 139.926 134.89L140.175 134.314C140.253 134.125 140.315 133.954 140.384 133.773C140.528 133.404 140.628 133.085 140.744 132.743C141.163 131.428 141.427 130.27 141.65 129.148C142.073 126.919 142.307 124.876 142.47 122.863C142.786 118.855 142.83 115.018 142.735 111.204C142.7 109.299 142.598 107.404 142.489 105.515C142.432 104.569 142.355 103.625 142.281 102.68C142.244 102.207 142.196 101.734 142.151 101.259L142.08 100.544L142 99.7989C141.583 95.9437 138.112 93.1555 134.248 93.5709C130.832 93.9382 128.252 96.6853 127.986 99.9799L127.974 100.143L127.545 105.407C127.409 107.177 127.24 108.942 127.085 110.695C126.744 114.196 126.373 117.673 125.853 120.939C125.588 122.56 125.294 124.143 124.936 125.491C124.764 126.156 124.574 126.774 124.403 127.192C124.362 127.28 124.321 127.397 124.288 127.451L124.241 127.545L124.208 127.596C124.184 127.627 124.181 127.569 124.398 127.258C124.468 127.153 124.546 127.052 124.632 126.958L124.671 126.912L124.718 126.857L124.817 126.749L125.025 126.547L125.053 126.523L125.089 126.488L125.165 126.418L125.321 126.284C125.427 126.197 125.537 126.114 125.65 126.037C125.792 125.933 125.945 125.831 126.101 125.739C126.179 125.693 126.259 125.649 126.338 125.608L126.601 125.474C126.797 125.376 127 125.288 127.207 125.214C127.311 125.177 127.415 125.143 127.52 125.111C127.634 125.073 127.751 125.038 127.868 125.006C128.101 124.942 128.342 124.894 128.581 124.861C128.82 124.83 129.056 124.794 129.297 124.783C129.534 124.769 129.787 124.777 130.008 124.788C130.219 124.794 130.432 124.812 130.643 124.844C130.748 124.859 130.853 124.878 130.957 124.9L131.034 124.916L131.059 124.922L131.044 124.915L130.985 124.895C130.672 124.814 130.324 124.677 129.944 124.494C129.185 124.138 128.296 123.54 127.369 122.762C126.907 122.366 126.436 121.942 125.967 121.456L125.79 121.28L125.614 121.093L125.261 120.717C125.026 120.454 124.788 120.203 124.555 119.925C123.617 118.843 122.702 117.631 121.819 116.35C121.378 115.707 120.944 115.048 120.522 114.37C120.095 113.696 119.673 113.004 119.258 112.306C118.432 110.9 117.637 109.446 116.875 107.958C116.119 106.465 115.361 104.955 114.652 103.409C114.295 102.639 113.947 101.859 113.604 101.077C113.259 100.295 112.917 99.5094 112.583 98.7196C111.914 97.1384 111.279 95.5387 110.654 93.9391C110.342 93.1397 110.045 92.3342 109.747 91.5384L109.312 90.348L108.919 89.2513L108.814 88.9574C107.207 84.4682 102.255 82.1269 97.7545 83.73C93.4693 85.257 91.147 89.839 92.3209 94.1464Z" fill="#DEDEDE"/>
<path d="M103.192 119.19L103.052 119.189C102.763 119.149 102.56 118.884 102.601 118.595C102.627 118.401 105.287 99.1655 106.464 93.7457C106.527 93.4615 106.807 93.2804 107.093 93.3425C107.378 93.4037 107.558 93.6845 107.497 93.9696C106.328 99.3492 103.674 118.546 103.647 118.739C103.613 118.98 103.423 119.16 103.192 119.19Z" fill="#283879"/>
<path d="M134.898 106.868C135.541 106.81 136.206 106.701 136.889 106.538C139.713 105.869 141.833 104.562 141.923 104.507C142.15 104.365 142.22 104.066 142.077 103.838C141.935 103.612 141.636 103.542 141.408 103.684C141.327 103.733 133.23 108.669 128.212 103.768C128.021 103.58 127.714 103.584 127.525 103.775C127.338 103.967 127.341 104.274 127.533 104.461C129.432 106.317 131.952 107.134 134.898 106.868Z" fill="#283879"/>
<path d="M123.075 129.221C123.337 129.199 123.533 128.971 123.517 128.709C123.311 125.421 125.689 121.773 125.712 121.738C125.86 121.514 125.798 121.213 125.573 121.066C125.348 120.918 125.048 120.981 124.9 121.204C124.795 121.364 122.32 125.162 122.546 128.768C122.563 129.036 122.793 129.24 123.061 129.222L123.075 129.221Z" fill="#283879"/>
<path d="M119.696 125.338C119.821 125.326 119.941 125.268 120.028 125.163C120.044 125.144 121.647 123.252 124.89 122.778C125.156 122.738 125.339 122.492 125.3 122.227C125.261 121.962 125.017 121.779 124.748 121.817C121.114 122.35 119.35 124.459 119.276 124.548C119.106 124.755 119.136 125.06 119.345 125.23C119.447 125.314 119.574 125.349 119.696 125.338Z" fill="#283879"/>
<path d="M101.716 170.672L158.472 147.092L125.984 69.2685L69.2285 92.8493L101.716 170.672Z" fill="#F5B2DC"/>
<path d="M144.48 130.115C146.973 136.072 144.156 142.918 138.185 145.405C132.215 147.893 125.353 145.081 122.86 139.126C120.365 133.169 123.184 126.324 129.154 123.836C135.124 121.349 141.986 124.159 144.48 130.115Z" fill="#8684CA"/>
<path d="M129.113 123.853C126.106 125.12 123.906 127.493 122.787 130.298L133.201 135.001L134.087 122.939C132.434 122.879 130.739 123.169 129.113 123.853Z" fill="#8160AD"/>
<path d="M140.648 125.234C138.751 123.833 136.458 123.026 134.086 122.939L133.199 135.001L133.351 135.069L140.648 125.234Z" fill="#8160AD"/>
<path d="M122.786 130.299C121.687 133.052 121.629 136.219 122.876 139.166C123.725 141.172 125.071 142.817 126.709 144.022L133.178 135.303L133.2 135.001L122.786 130.299Z" fill="#5D5EB5"/>
<path d="M133.2 135.002L133.178 135.302L133.35 135.07L133.2 135.002Z" fill="#8684CA"/>
<path d="M144.107 139.925L133.353 135.069L133.179 135.302L132.377 146.237C134.304 146.452 136.311 146.194 138.226 145.388C140.875 144.271 142.897 142.297 144.107 139.925Z" fill="#8160AD"/>
<path d="M126.711 144.021C128.37 145.241 130.328 146.007 132.378 146.237L133.18 135.303L126.711 144.021Z" fill="white"/>
<path d="M140.651 125.234L133.354 135.069L144.108 139.925C145.619 136.962 145.862 133.378 144.464 130.075C143.618 128.077 142.28 126.438 140.651 125.234Z" fill="#5D5EB5"/>
<path d="M141.214 131.476C142.954 135.634 140.987 140.411 136.819 142.148C132.652 143.885 127.863 141.922 126.122 137.765C124.382 133.608 126.349 128.829 130.517 127.093C134.684 125.357 139.473 127.319 141.214 131.476Z" fill="white"/>
<path d="M131.092 128.467C127.691 129.884 126.08 133.798 127.501 137.191C128.921 140.584 132.843 142.192 136.245 140.774C139.646 139.357 141.258 135.444 139.837 132.05C138.416 128.657 134.493 127.05 131.092 128.467ZM136.4 141.144C132.795 142.648 128.635 140.943 127.13 137.346C125.623 133.749 127.332 129.6 130.937 128.096C134.543 126.595 138.702 128.298 140.208 131.896C141.714 135.493 140.006 139.643 136.4 141.144Z" fill="#8684CA"/>
<path d="M106.147 145.195L102.938 146.533L103.247 147.27L106.456 145.932L106.147 145.195Z" fill="white"/>
<path d="M108.517 146.517L103.76 148.499L104.069 149.237L108.825 147.255L108.517 146.517Z" fill="white"/>
<path d="M109.15 146.253L109.458 146.991L111.801 146.014L111.494 145.277L109.15 146.253Z" fill="white"/>
<path d="M111.68 145.199L111.987 145.936L113.487 145.311L113.179 144.573L111.68 145.199Z" fill="white"/>
<path d="M106.854 149.518L104.582 150.464L104.89 151.202L107.163 150.254L106.854 149.518Z" fill="white"/>
<path d="M113.302 146.832L107.467 149.263L107.775 150.001L113.611 147.569L113.302 146.832Z" fill="white"/>
<path d="M112.156 149.619L112.464 150.356L115.135 149.243L114.827 148.505L112.156 149.619Z" fill="white"/>
<path d="M111.897 149.725L105.406 152.431L105.715 153.167L112.205 150.463L111.897 149.725Z" fill="white"/>
<path d="M110.331 152.688L106.23 154.396L106.539 155.133L110.639 153.424L110.331 152.688Z" fill="white"/>
<path d="M110.959 152.424L111.268 153.161L113.025 152.429L112.717 151.691L110.959 152.424Z" fill="white"/>
<path d="M113.995 151.158L112.977 151.584L113.285 152.321L114.305 151.896L113.995 151.158Z" fill="white"/>
<path d="M109.721 130.969L98.457 135.649L98.7446 136.338L110.008 131.658L109.721 130.969Z" fill="#8684CA"/>
<path d="M112.773 131.857L99.2227 137.486L99.5111 138.176L113.06 132.546L112.773 131.857Z" fill="#8685CA"/>
<path d="M113.541 133.695L105.172 137.173L105.459 137.862L113.83 134.384L113.541 133.695Z" fill="#8685CA"/>
<path d="M103.94 137.685L99.9941 139.325L100.282 140.014L104.228 138.374L103.94 137.685Z" fill="#8685CA"/>
<path d="M114.308 135.533L100.758 141.163L101.045 141.852L114.595 136.223L114.308 135.533Z" fill="#8685CA"/>
<path d="M115.075 137.372L101.525 143.001L101.813 143.69L115.363 138.061L115.075 137.372Z" fill="#8685CA"/>
<path d="M98.7678 129.063L98.2602 129.273L84.4648 96.2261L84.9724 96.0154L98.7678 129.063Z" fill="#8160AD"/>
<path d="M108.191 125.148L107.682 125.358L93.8867 92.312L94.3952 92.1003L108.191 125.148Z" fill="#8160AD"/>
<path d="M117.61 121.234L117.102 121.445L103.307 88.3973L103.815 88.1865L117.61 121.234Z" fill="#8160AD"/>
<path d="M127.033 117.32L126.526 117.531L112.73 84.4841L113.238 84.2724L127.033 117.32Z" fill="#8160AD"/>
<path d="M136.082 113.559L135.574 113.77L121.777 80.7229L122.286 80.5122L136.082 113.559Z" fill="#8160AD"/>
<path d="M100.046 128.532L96.9823 129.805L88.668 109.888L91.7319 108.614L100.046 128.532Z" fill="#8685CA"/>
<path d="M109.557 124.581L106.494 125.853L101.029 112.766L104.093 111.492L109.557 124.581Z" fill="#8685CA"/>
<path d="M118.9 120.698L115.837 121.97L107.977 103.143L111.041 101.87L118.9 120.698Z" fill="#8685CA"/>
<path d="M128.31 116.789L125.246 118.061L114.391 92.0551L117.455 90.7825L128.31 116.789Z" fill="#8685CA"/>
<path d="M140.295 113.039L92.4937 132.899L92.3184 132.477L140.119 112.617L140.295 113.039Z" fill="white"/>
<path d="M128.28 86.468L122.695 82.2096L121.791 89.1644L123.504 88.4525L134.294 114.301L137.358 113.028L126.567 87.1799L128.28 86.468Z" fill="white"/>
<path d="M95.3362 128.587C95.4256 128.8 95.3239 129.044 95.1109 129.133L91.9268 130.457C91.7138 130.545 91.4692 130.444 91.3798 130.231C91.2912 130.018 91.3921 129.773 91.6051 129.685L94.7892 128.362C95.0022 128.273 95.2477 128.373 95.3362 128.587Z" fill="white"/>
<path d="M93.0397 123.08C93.1291 123.293 93.0274 123.537 92.8144 123.627L89.6303 124.95C89.4173 125.038 89.1718 124.937 89.0824 124.725C88.9947 124.511 89.0955 124.266 89.3086 124.178L92.4918 122.855C92.7057 122.767 92.9503 122.867 93.0397 123.08Z" fill="white"/>
<path d="M90.7394 117.573C90.828 117.786 90.7271 118.031 90.5132 118.119L87.33 119.443C87.1161 119.531 86.8715 119.431 86.7821 119.217C86.6936 119.004 86.7944 118.759 87.0083 118.671L90.1915 117.347C90.4054 117.259 90.65 117.359 90.7394 117.573Z" fill="white"/>
<path d="M88.4386 112.066C88.5263 112.279 88.4255 112.523 88.2124 112.612L85.0292 113.935C84.8153 114.025 84.5707 113.923 84.4813 113.71C84.3928 113.497 84.4936 113.253 84.7075 113.164L87.8907 111.841C88.1037 111.751 88.3492 111.853 88.4386 112.066Z" fill="white"/>
<path d="M86.1389 106.558C86.2275 106.772 86.1267 107.017 85.9136 107.105L82.7295 108.429C82.5165 108.518 82.2719 108.417 82.1825 108.203C82.094 107.991 82.1948 107.746 82.4078 107.657L85.5919 106.334C85.8049 106.245 86.0495 106.346 86.1389 106.558Z" fill="white"/>
<path d="M83.8424 101.052C83.931 101.265 83.8302 101.51 83.6171 101.599L80.433 102.922C80.22 103.01 79.9745 102.91 79.886 102.696C79.7966 102.483 79.8983 102.238 80.1113 102.15L83.2954 100.827C83.5084 100.738 83.753 100.838 83.8424 101.052Z" fill="white"/>
<path d="M81.542 95.5453C81.6306 95.7579 81.5297 96.0029 81.3158 96.0913L78.1326 97.4142C77.9196 97.5035 77.6741 97.4029 77.5847 97.1894C77.4962 96.9759 77.5979 96.7317 77.8109 96.6425L80.9941 95.3195C81.208 95.2312 81.4526 95.3318 81.542 95.5453Z" fill="white"/>
<path d="M132.359 84.5285C132.359 84.5285 135.365 83.2735 136.623 85.306C137.88 87.3377 135.846 92.5992 135.006 94.3983C134.167 96.1964 132.954 91.6827 133.482 89.6755C134.009 87.6683 133.378 86.5514 133.378 86.5514L132.359 84.5285Z" fill="white"/>
<path d="M136.811 91.0547C136.811 91.0547 140.017 89.63 141.275 91.6626C142.533 93.6951 140.499 98.9575 139.659 100.756C138.819 102.554 137.607 98.0401 138.134 96.0329C138.662 94.0257 137.955 93.1572 137.955 93.1572L136.811 91.0547Z" fill="white"/>
<path d="M139.557 93.7868C139.557 93.7868 142.389 92.5291 143.501 94.3247C144.611 96.1193 142.814 100.767 142.073 102.356C141.331 103.945 140.259 99.957 140.726 98.1842C141.192 96.4114 140.567 95.6444 140.567 95.6444L139.557 93.7868Z" fill="white"/>
<path d="M134.221 88.0189C134.221 88.0189 137.428 86.595 138.685 88.6267C139.943 90.6592 137.909 95.9208 137.07 97.7189C136.23 99.518 135.017 95.0042 135.544 92.997C136.073 90.9898 135.365 90.1214 135.365 90.1214L134.221 88.0189Z" fill="white"/>
<path d="M60.5394 105.721C60.386 105.748 60.1817 105.792 59.9976 105.83L59.426 105.953L58.2741 106.196C57.507 106.365 56.7355 106.527 55.964 106.683C54.4246 107.004 52.8869 107.313 51.3589 107.607C48.3045 108.191 45.2677 108.706 42.3456 109.047C41.6155 109.129 40.8936 109.209 40.1847 109.264C39.4769 109.319 38.7817 109.359 38.1088 109.385C37.4359 109.41 36.7842 109.412 36.173 109.388C35.5634 109.369 34.9925 109.325 34.5035 109.251C34.0165 109.18 33.6114 109.074 33.3751 108.986C33.2734 108.94 33.1885 108.9 33.1988 108.878L33.2066 108.868L33.2442 108.869L33.3128 108.887L33.3495 108.901L33.3922 108.922L33.4703 108.964C33.6638 109.072 33.9265 109.237 34.1833 109.461C34.447 109.685 34.7329 109.982 34.9778 110.323C35.2288 110.666 35.4435 111.047 35.5969 111.423C35.7528 111.798 35.8503 112.143 35.9069 112.451C35.964 112.748 35.9846 112.994 35.9908 113.19C36 113.374 35.989 113.528 35.9873 113.62C35.9753 113.818 35.9685 113.864 36 113.829C36.0599 113.756 36.2312 113.418 36.4804 113.027C36.7345 112.628 37.054 112.165 37.4228 111.679C38.1584 110.705 39.0385 109.644 39.9906 108.593C40.9408 107.535 41.9535 106.464 43.0065 105.401C44.0509 104.33 45.145 103.274 46.2452 102.209C48.4597 100.091 50.7452 97.9778 53.0622 95.8823L56.5514 92.7417L60.0002 89.6596L60.0958 89.5748C63.5367 86.5006 63.8278 81.2259 60.7463 77.7931C57.8375 74.5528 52.9342 74.1339 49.5038 76.6815L48.9612 77.0865L48.4518 77.4757L47.448 78.2532C46.7826 78.7727 46.133 79.3044 45.4816 79.8327C44.8294 80.3627 44.1824 80.8962 43.5433 81.4402C42.9014 81.9798 42.2644 82.5282 41.6326 83.0818C39.1026 85.2963 36.6243 87.5877 34.21 90.0138C31.7923 92.4399 29.4352 94.9762 27.1494 97.8055C26.0135 99.2329 24.8817 100.72 23.7882 102.423C23.2413 103.273 22.7002 104.185 22.1701 105.205C21.6421 106.235 21.1147 107.365 20.6661 108.832C20.4435 109.566 20.2387 110.401 20.113 111.401C20.0503 111.893 20.0137 112.451 20.0137 113.04C20.0178 113.641 20.0641 114.292 20.1856 114.99C20.3117 115.696 20.5068 116.435 20.8116 117.188C21.1171 117.939 21.5187 118.682 22.0023 119.357C22.4845 120.026 23.0358 120.631 23.6026 121.126C24.1631 121.615 24.7498 122.029 25.2926 122.343L25.5004 122.463L25.6008 122.519L25.6768 122.559L25.9833 122.715C26.1854 122.814 26.4011 122.925 26.5946 123.005L27.1887 123.252C27.3918 123.337 27.5706 123.393 27.7641 123.462C28.5321 123.73 29.2332 123.901 29.9198 124.044C31.2683 124.312 32.4796 124.399 33.6125 124.424C35.8716 124.466 37.8441 124.237 39.7293 123.928C41.6093 123.62 43.3829 123.198 45.1073 122.733C48.55 121.79 51.7911 120.621 54.9471 119.316C56.5242 118.663 58.0733 117.967 59.604 117.236C60.3676 116.866 61.1276 116.487 61.8851 116.103C62.2647 115.91 62.639 115.706 63.0177 115.505L63.585 115.198L64.1785 114.869C66.5753 113.536 67.4362 110.519 66.101 108.127C65.0455 106.237 62.9336 105.304 60.9129 105.654L60.5394 105.721Z" fill="#DEDEDE"/>
<path d="M59.1676 107.714C59.4323 106.748 61.0252 106.046 61.9685 105.118C63.2125 103.894 65.4559 102.442 66.9375 101.954C69.1616 101.222 75.8287 99.4251 77.5251 100.376C79.2206 101.326 73.5888 103.321 72.443 103.753C71.2955 104.185 70.6791 104.901 70.6791 104.901C70.6791 104.901 83.9529 101.323 85.2135 102.227C86.4742 103.131 79.125 105.922 77.3042 106.6C77.3042 106.6 87.4561 104.458 88.0741 105.283C89.3146 106.94 78.1125 109.643 78.1125 109.643C78.1125 109.643 86.7433 108.275 86.9283 109.696C87.1238 111.202 77.8731 112.644 77.8731 112.644C77.8731 112.644 83.632 112.571 84.3518 113.726C85.0715 114.88 72.9936 115.96 71.1166 115.903C69.2396 115.847 64.6959 117.233 62.2903 116.747C60.6553 116.418 58.3338 110.774 59.1676 107.714Z" fill="white"/>
<path d="M46.2277 102.455C46.3671 102.548 46.5556 102.553 46.7028 102.452C46.8054 102.382 57.0143 95.3471 61.3091 91.861C61.4888 91.7149 61.516 91.4499 61.3696 91.2706C61.2223 91.0913 60.9584 91.0642 60.7778 91.2103C56.5093 94.6754 46.3267 101.691 46.2251 101.762C46.0339 101.893 45.9848 102.155 46.1181 102.346L46.2277 102.455Z" fill="#283879"/>
<path d="M56.7299 95.1936C56.7983 95.24 56.8807 95.2662 56.9693 95.2654L60.76 95.2286C60.9923 95.226 61.1782 95.0361 61.1764 94.8042C61.1729 94.5724 60.9835 94.386 60.7521 94.3895L56.9614 94.4263C56.7291 94.428 56.5423 94.6179 56.5449 94.8497C56.5467 94.9932 56.6195 95.1184 56.7299 95.1936Z" fill="#283879"/>
<path d="M30.9574 109.864C31.0636 109.924 31.1955 109.935 31.3153 109.881C34.0285 108.68 38.5239 109.435 38.5694 109.443C38.7859 109.48 38.9914 109.335 39.029 109.119C39.0667 108.903 38.9222 108.697 38.7047 108.659C38.5112 108.626 33.9275 107.855 30.9927 109.155C30.7914 109.244 30.7006 109.479 30.7907 109.679C30.8266 109.761 30.8856 109.824 30.9574 109.864Z" fill="#283879"/>
<path d="M35.7811 109.157C35.9112 109.23 36.0784 109.227 36.2085 109.135C36.3872 109.009 36.43 108.76 36.3033 108.581C34.4986 106.036 32.2727 106.055 32.1785 106.057C31.9587 106.062 31.7847 106.243 31.7891 106.463C31.7943 106.681 31.9747 106.855 32.1939 106.851C32.272 106.85 34.1048 106.858 35.6526 109.04L35.7811 109.157Z" fill="#283879"/>
<path d="M499.867 187.601C500.514 187.762 501.166 187.918 501.819 188.068C510.172 189.97 518.94 190.74 525.077 189.279C528.106 188.557 530.043 184.86 531.277 180.728C531.613 179.601 532.06 178.462 532.136 177.297C532.888 165.816 530.053 160.946 530.053 160.946L484.88 155.918C484.88 155.918 483.377 158.678 481.712 162.274C480.504 164.879 479.211 167.92 478.336 170.672L478.333 170.679C477.811 172.325 477.44 173.867 477.329 175.145C476.97 179.237 487.711 184.551 499.867 187.601Z" fill="#DEDEDE"/>
<path d="M552.056 317.533C548.235 317.91 544.768 318.352 540.965 318.881C539.501 319.089 537.949 319.346 536.485 319.555C536.131 318.664 535.552 316.827 535.157 315.816C535.053 315.559 534.957 315.302 534.852 315.037C527.557 296.503 513.795 261.046 511.134 250.623C511.069 250.367 510.997 250.094 510.933 249.812C510.361 247.502 509.718 244.581 509.042 241.252C506.139 226.937 502.641 205.129 501.877 192.218C501.667 188.656 501.626 185.776 501.812 183.93C501.877 183.192 502.094 182.518 502.407 181.9C506.533 173.965 529.504 175.754 529.504 175.754C529.504 175.754 529.592 177.005 529.737 179.148C530.428 189.731 533.259 221.337 534.248 231.237C535.447 243.201 537.852 247.413 537.852 247.413C537.852 247.413 542.766 258.326 546.047 278.514C548.017 290.677 550.173 304.262 551.564 313.136C551.605 313.409 551.654 313.674 551.694 313.939C551.822 314.757 551.943 316.811 552.056 317.533Z" fill="#DEDEDE"/>
<path d="M519.125 247.175C514.863 248.976 511.096 247.459 510.934 247.391C510.606 247.255 510.45 246.88 510.586 246.553C510.721 246.227 511.097 246.071 511.424 246.206C511.476 246.228 515.044 247.634 518.885 245.879C519.207 245.73 519.59 245.873 519.737 246.196C519.884 246.518 519.742 246.898 519.42 247.046C519.321 247.09 519.223 247.134 519.125 247.175Z" fill="#283879"/>
<path d="M526.797 196.969C527.001 196.969 527.185 196.829 527.232 196.622C527.288 196.383 527.138 196.143 526.898 196.087C526.857 196.078 524.312 195.463 521.714 193.332C518.23 190.476 516.301 186.389 515.979 181.187C515.964 180.94 515.752 180.752 515.505 180.769C515.259 180.784 515.071 180.995 515.087 181.242C515.507 188.065 518.633 191.973 521.18 194.05C523.946 196.305 526.584 196.931 526.696 196.957L526.797 196.969Z" fill="#283879"/>
<path d="M493.75 225.566C490.043 236.942 490.388 242.624 490.388 242.624C490.388 242.624 493.3 254.282 490.22 274.502C487.904 289.674 486.504 310.825 485.941 320.421C485.925 320.711 485.909 320.991 485.893 321.256C485.739 323.935 485.667 325.517 485.667 325.517L470.837 327.129C470.837 327.129 470.717 325.396 470.515 322.411C470.499 322.146 470.475 321.865 470.459 321.585C469.389 305.713 466.453 260.059 466.702 241.829C466.727 239.687 466.8 237.922 466.928 236.629C467.025 235.674 467.17 234.383 467.37 232.819C469.132 218.697 474.762 182.35 478.711 169.936C481.839 160.116 503.852 170.153 503.852 170.153C503.852 170.153 497.467 214.187 493.75 225.566Z" fill="#DEDEDE"/>
<path d="M475.218 238.266C470.785 239.591 467.206 237.672 467.051 237.589C466.74 237.417 466.628 237.028 466.798 236.718C466.968 236.408 467.359 236.294 467.669 236.465C467.719 236.491 471.111 238.279 475.121 236.952C475.458 236.838 475.822 237.023 475.933 237.359C476.044 237.695 475.862 238.058 475.524 238.169C475.423 238.203 475.32 238.235 475.218 238.266Z" fill="#283879"/>
<path d="M526.519 178.563C526.771 178.538 526.994 178.72 527.018 178.971C527.065 179.436 531.638 225.535 533.571 243.565C533.919 244.606 539.727 262 541.426 271.323C542.952 279.693 547.73 302.622 549.997 313.438C549.707 313.531 549.411 313.608 549.116 313.686C546.852 302.891 542.057 279.88 540.528 271.486C538.796 261.986 532.749 243.987 532.689 243.807L532.668 243.713C530.735 225.712 526.156 179.526 526.11 179.061C526.083 178.811 526.268 178.588 526.519 178.563Z" fill="#283879"/>
<path d="M501.737 185.321C501.902 185.321 502.062 185.232 502.143 185.076C502.26 184.853 502.173 184.577 501.95 184.461C501.88 184.424 497.043 181.81 496.076 176.12C496.034 175.87 495.798 175.703 495.549 175.746C495.301 175.788 495.132 176.024 495.174 176.272C496.221 182.432 501.309 185.156 501.525 185.269L501.737 185.321Z" fill="#283879"/>
<path d="M483.048 321.244C483.271 321.226 483.451 321.048 483.466 320.819C483.496 320.348 486.494 273.572 487.503 262.906C488.474 252.632 486.991 237.866 486.852 236.518C490.286 226.01 499.754 184.212 499.85 183.788C499.906 183.543 499.751 183.299 499.504 183.243C499.258 183.188 499.013 183.341 498.957 183.588C498.862 184.01 489.347 226.017 485.953 236.327L485.932 236.517C485.949 236.674 487.596 252.194 486.592 262.82C485.583 273.5 482.584 320.289 482.554 320.761C482.537 321.012 482.729 321.229 482.981 321.245L483.048 321.244Z" fill="#283879"/>
<path d="M454.034 113.614C454.082 113.755 454.14 113.951 454.193 114.124L454.353 114.665L454.678 115.756L455.321 117.943C455.749 119.401 456.185 120.85 456.624 122.284C457.509 125.146 458.427 127.967 459.448 130.576C459.699 131.228 459.965 131.863 460.232 132.475C460.495 133.089 460.77 133.679 461.049 134.229C461.333 134.776 461.608 135.292 461.884 135.734C462.155 136.175 462.435 136.549 462.637 136.776L462.711 136.859L462.772 136.92L462.802 136.95L462.826 136.967L462.868 137.002C462.905 137.021 462.908 137.002 462.826 136.927L462.722 136.848L462.58 136.748C462.49 136.69 462.378 136.616 462.261 136.548C462.04 136.424 461.767 136.286 461.484 136.18C460.911 135.958 460.225 135.818 459.615 135.804C458.999 135.785 458.465 135.87 458.059 135.979C457.661 136.082 457.387 136.197 457.18 136.298C456.797 136.484 456.684 136.591 456.665 136.589C456.647 136.594 456.714 136.524 456.808 136.406C457.004 136.169 457.302 135.765 457.61 135.307C458.236 134.376 458.894 133.205 459.538 131.988C460.188 130.766 460.808 129.465 461.432 128.142C462.672 125.49 463.853 122.718 465.023 119.921C466.186 117.119 467.325 114.278 468.465 111.427L470.17 107.144L471.875 102.906L471.904 102.832C473.333 99.2791 477.378 97.5544 480.94 98.98C484.199 100.285 485.922 103.775 485.097 107.081C484.989 107.513 484.897 107.89 484.791 108.288L484.48 109.461C484.273 110.241 484.052 111.015 483.83 111.788C483.382 113.333 482.914 114.87 482.421 116.403C481.441 119.468 480.376 122.514 479.212 125.55C478.635 127.069 478.026 128.585 477.387 130.1C476.754 131.619 476.075 133.129 475.363 134.651C474.65 136.173 473.878 137.691 473.036 139.236C472.616 140.009 472.164 140.783 471.681 141.57C471.196 142.358 470.677 143.157 470.088 143.982C469.494 144.811 468.837 145.66 467.972 146.585C467.536 147.048 467.044 147.531 466.427 148.046C465.811 148.555 465.052 149.12 463.969 149.668C463.409 149.942 462.77 150.208 461.993 150.417C461.205 150.626 460.279 150.765 459.27 150.738C458.266 150.716 457.187 150.507 456.246 150.142C455.781 149.963 455.326 149.749 454.936 149.523C454.734 149.408 454.536 149.287 454.365 149.17L454.102 148.987L453.971 148.894L453.91 148.847L453.877 148.823C453.168 148.273 452.593 147.717 452.085 147.171L451.731 146.769L451.558 146.567L451.4 146.369L451.088 145.974L450.805 145.588C450.061 144.558 449.526 143.582 449.049 142.643C448.579 141.702 448.181 140.796 447.841 139.901C447.498 139.008 447.2 138.134 446.929 137.271C446.661 136.406 446.429 135.55 446.212 134.703C445.358 131.312 444.827 128.009 444.469 124.713C444.29 123.067 444.166 121.425 444.083 119.782C444.045 118.96 444.015 118.138 444.003 117.313C443.993 116.901 443.997 116.487 443.996 116.071L444 115.444L444.013 114.786C444.064 111.985 446.383 109.757 449.19 109.809C451.383 109.849 453.226 111.271 453.903 113.226L454.034 113.614Z" fill="#CD523D"/>
<path d="M463.797 138.924C463.652 138.931 463.515 138.838 463.472 138.693C462.739 136.21 459.722 131.966 459.691 131.923C459.587 131.777 459.621 131.574 459.768 131.471C459.913 131.367 460.116 131.401 460.221 131.547C460.348 131.725 463.332 135.922 464.096 138.509C464.147 138.681 464.047 138.861 463.876 138.912L463.797 138.924Z" fill="#864F4A"/>
<path d="M464.049 135.138L463.827 135.064C463.819 135.057 462.914 134.322 461.075 133.841C460.9 133.796 460.797 133.619 460.843 133.446C460.888 133.272 461.066 133.168 461.239 133.214C463.231 133.735 464.203 134.532 464.244 134.565C464.381 134.679 464.4 134.884 464.285 135.022C464.224 135.095 464.138 135.134 464.049 135.138Z" fill="#864F4A"/>
<path d="M480.007 166.161C492.446 166.282 510.98 170.263 530.611 162.209C526.196 150.788 522.824 130.445 522.768 130.148C522.394 128.226 522.076 125.854 521.841 123.205C521.755 122.271 521.681 121.301 521.617 120.307C521.554 119.328 521.502 118.322 521.461 117.297C521.422 116.329 521.393 115.346 521.376 114.35C521.362 113.714 521.355 113.072 521.351 112.429C521.35 112.051 521.35 111.674 521.35 111.293L521.351 111.094C521.352 110.804 521.354 110.515 521.359 110.225C521.368 109.583 521.379 108.94 521.396 108.3C521.435 106.783 521.502 105.272 521.6 103.788C522.201 94.5737 519.556 85.3634 510.303 85.5366C509.629 85.548 508.968 85.5655 508.327 85.5882C503.976 85.7377 500.426 86.0788 499.44 86.1794C499.262 86.1978 499.17 86.2074 499.17 86.2074L482.306 93.7857L480.701 94.5055C478.372 95.6338 476.495 96.6334 474.997 97.564C473.679 98.3843 472.649 99.1461 471.855 99.8974C468.384 103.174 469.422 106.177 470.384 112.261C470.399 112.366 470.417 112.469 470.434 112.575L470.45 112.68C470.608 113.716 470.725 114.754 470.809 115.792C470.907 116.953 470.965 118.11 471 119.25C471.076 121.641 471.051 123.955 471.071 126.084C471.078 127.116 471.098 128.106 471.142 129.037C471.195 130.106 471.28 131.101 471.424 132.002C471.592 133.038 471.835 133.95 472.195 134.707C472.328 134.989 472.477 135.25 472.644 135.487C473.054 136.07 473.517 136.618 474.013 137.13C474.786 137.929 475.633 138.638 476.452 139.245C477.924 140.34 479.305 141.107 480.006 141.472C480.314 141.632 480.491 141.713 480.491 141.713L480.505 141.77C480.543 141.918 480.577 142.074 480.614 142.238C480.753 142.868 480.902 143.619 481.057 144.476C481.124 144.847 483.691 153.972 480.007 166.161Z" fill="#F5B2DC"/>
<path d="M471.14 129.037L516.708 112.933C515.434 112.661 514.115 112.109 512.829 111.328L471.068 126.084C471.076 127.117 471.096 128.106 471.14 129.037Z" fill="#EBD1C7"/>
<path d="M472.193 134.707L521.459 117.297C521.42 116.329 521.391 115.346 521.374 114.35L471.422 132.002C471.59 133.038 471.833 133.95 472.193 134.707Z" fill="#EBD1C7"/>
<path d="M474.012 137.13C474.785 137.929 475.632 138.639 476.451 139.246L521.84 123.206C521.754 122.272 521.68 121.302 521.616 120.307L474.012 137.13Z" fill="#EBD1C7"/>
<path d="M471.853 99.8965C472.786 103.872 472.735 110.652 470.809 115.792C470.723 114.754 470.605 113.715 470.447 112.68L470.432 112.575C470.416 112.469 470.398 112.365 470.382 112.26C469.419 106.177 468.384 103.173 471.853 99.8965Z" fill="#CD523D"/>
<path d="M503.985 101.425C507.104 108.906 516.583 115.085 521.351 112.429C521.35 111.985 521.35 111.542 521.351 111.095C521.352 110.804 521.356 110.516 521.36 110.224C521.385 108.067 521.462 105.9 521.601 103.788C522.202 94.5738 519.557 85.3643 510.304 85.5358C509.631 85.5489 508.97 85.5664 508.328 85.5882C504.048 88.1674 500.395 92.8106 503.985 101.425Z" fill="white"/>
<path d="M506.535 135.208C506.507 135.362 506.398 135.481 506.258 135.531L506.041 135.55C505.961 135.535 498.137 134.174 490.725 138.538C486.959 140.756 483.492 141.891 480.61 142.239C480.574 142.074 480.539 141.918 480.503 141.771L480.488 141.713C480.488 141.713 480.311 141.631 480.004 141.472C482.85 141.212 486.389 140.104 490.292 137.808C497.985 133.277 505.862 134.654 506.193 134.714C506.424 134.757 506.577 134.978 506.535 135.208Z" fill="#EBD1C7"/>
<path d="M485.676 116.933C480.595 118.728 477.542 113.656 477.512 113.604C477.393 113.402 477.461 113.142 477.663 113.023C477.867 112.904 478.126 112.972 478.246 113.175C478.358 113.367 480.982 117.692 485.393 116.133C490.02 114.498 497.584 103.888 497.66 103.781C497.795 103.589 498.061 103.544 498.253 103.68C498.445 103.815 498.49 104.08 498.355 104.271C498.038 104.716 490.557 115.209 485.676 116.933Z" fill="#EBD1C7"/>
<path d="M483.158 90.738C483.158 90.738 481.592 94.901 477.024 91.2426C477.024 91.2426 469.891 94.587 468.663 86.0633C468.663 86.0633 463.234 84.6534 465.662 78.4421C465.662 78.4421 459.884 77.7512 461.225 69.9568C461.225 69.9568 457.004 66.6281 457.892 61.4173C458.945 55.2331 464.893 55.9703 464.893 55.9703C464.893 55.9703 462.172 51.161 467.485 48.2451C472.585 45.4464 476.009 49.6191 476.009 49.6191C476.009 49.6191 477.08 44.5849 481.817 44.1476C488.121 43.566 488.789 49.2841 488.789 49.2841C488.789 49.2841 492.713 45.2356 496.867 48.1209C501.019 51.0062 498.93 55.9703 498.93 55.9703C498.93 55.9703 504.095 54.4022 505.292 59.3087C506.491 64.2134 503.739 65.9153 503.739 65.9153C503.739 65.9153 506.613 69.9629 501.331 74.4837C501.331 74.4837 507.288 83.3818 495.815 83.792C488.235 84.0631 483.158 90.738 483.158 90.738Z" fill="#DEDEDE"/>
<path d="M482.984 96.4477C489.963 103.409 496.519 90.0825 496.117 87.6738C492.663 82.6082 491.887 76.8613 491.887 76.8613L479.758 85.6658C479.907 86.0506 480.058 86.4372 480.208 86.8255C480.903 88.6167 481.604 90.4507 482.143 92.4482C482.4 93.3989 482.817 95.4096 482.984 96.4477Z" fill="white"/>
<path d="M482.143 92.4482C488.793 88.7863 491.265 80.1174 491.265 80.1174L480.207 86.8255C480.902 88.6167 481.604 90.4507 482.143 92.4482Z" fill="#DEDEDE"/>
<path d="M473.84 76.5012C473.84 76.5012 471.825 73.4742 469.327 75.0117C466.828 76.5484 469.322 85.5952 474.411 83.832L473.84 76.5012Z" fill="#864F4A"/>
<path d="M473.857 81.9841C471.679 82.3173 470.179 84.3568 470.513 86.5293C470.848 88.7018 472.891 90.1991 475.069 89.865C477.248 89.5318 478.748 87.4931 478.413 85.3198C478.079 83.1473 476.036 81.65 473.857 81.9841ZM475.177 90.5577C472.616 90.9486 470.213 89.1898 469.82 86.6351C469.428 84.0813 471.191 81.6841 473.751 81.2923C476.311 80.9004 478.714 82.6601 479.107 85.2139C479.5 87.7686 477.736 90.165 475.177 90.5577Z" fill="white"/>
<path d="M492.384 77.8889C491.977 81.892 483.732 88.6954 479.37 87.9695C476.723 87.5278 474.045 85.9168 471.562 81.4109L471.523 81.3401C471.377 81.0733 471.237 80.8101 471.103 80.5477C470.859 80.0754 470.634 79.6101 470.431 79.1615C470.385 79.0557 470.337 78.9507 470.293 78.8475C470.172 78.5676 470.06 78.2947 469.959 78.0289C469.835 77.7035 469.725 77.3913 469.634 77.0957C468.163 72.2977 466.41 66.9347 470.009 62.7069C473.609 58.4791 480.284 55.7819 485.436 59.0363C485.436 59.0363 489.411 62.0142 491.195 69.0416C492.981 76.0681 492.68 74.9975 492.384 77.8889Z" fill="#8C8C8C"/>
<path d="M481.139 77.6994C481.139 77.6994 482.228 80.8287 479.714 82.0374C477.201 83.2469 475.889 80.8366 475.889 80.8366L481.139 77.6994Z" fill="white"/>
<path d="M480.709 82.9811C481.167 82.674 481.292 82.2128 481.3 82.1866C481.334 82.0518 481.253 81.9162 481.119 81.8812C480.986 81.8471 480.849 81.9267 480.814 82.0597C480.805 82.0886 480.635 82.6652 479.908 82.7431C479.77 82.7588 479.671 82.8822 479.685 83.0187C479.701 83.1569 479.823 83.2558 479.962 83.241C480.277 83.2077 480.52 83.1071 480.709 82.9811Z" fill="#F05F58"/>
<path d="M481.543 71.1873L481.641 71.0561C481.73 70.862 481.644 70.6337 481.451 70.5454C481.397 70.5209 480.139 69.9655 479.008 70.9442C478.015 71.8039 478.247 73.1989 478.257 73.2575C478.295 73.4665 478.495 73.6073 478.705 73.5706C478.916 73.5339 479.056 73.3345 479.019 73.1246C479.017 73.1158 478.856 72.0969 479.515 71.5267C480.275 70.869 481.121 71.2433 481.129 71.2468C481.272 71.3115 481.433 71.2827 481.543 71.1873Z" fill="#DEDEDE"/>
<path d="M475.461 75.2925C475.598 75.1735 475.636 74.9688 475.54 74.806C475.515 74.7649 474.939 73.8129 473.854 73.9258C472.679 74.0483 472.187 75.0746 472.167 75.1184C472.077 75.3118 472.161 75.541 472.355 75.6311C472.547 75.7204 472.776 75.6373 472.867 75.4465C472.882 75.4133 473.204 74.7693 473.934 74.6931C474.532 74.631 474.871 75.1919 474.874 75.198C474.983 75.3809 475.219 75.4421 475.403 75.3336L475.461 75.2925Z" fill="#DEDEDE"/>
<path d="M477.227 78.2787L477.049 78.2988L475.408 78.0146C475.296 77.9953 475.203 77.9184 475.163 77.8126C475.123 77.7067 475.142 77.5878 475.214 77.5003C476.041 76.4797 476.321 75.2789 476.097 73.7212C476.072 73.5463 476.192 73.3854 476.367 73.3591C476.542 73.3346 476.705 73.4554 476.73 73.6303C476.951 75.1678 476.726 76.4036 476.023 77.4741L477.158 77.6709C477.332 77.7006 477.448 77.8659 477.419 78.0391C477.399 78.1502 477.324 78.2385 477.227 78.2787Z" fill="#864F4A"/>
<path d="M476.941 68.637C476.202 69.0596 475.406 68.1461 475.944 67.4864C476.226 67.1416 476.658 66.8389 477.321 66.712C480.197 66.1608 482.129 68.1216 482.129 68.1216C482.129 68.1216 479.155 67.8084 477.736 68.2817C477.407 68.392 477.151 68.5171 476.941 68.637Z" fill="#DEDEDE"/>
<path d="M472.817 70.506C473.639 70.2778 473.546 69.0726 472.697 68.9904C472.255 68.9475 471.736 69.042 471.179 69.4233C468.765 71.0771 469.383 73.0327 469.383 73.0327C469.383 73.0327 470.672 71.4952 472.006 70.8209C472.316 70.6652 472.584 70.5707 472.817 70.506Z" fill="#DEDEDE"/>
<path d="M481.48 59.1878C481.48 59.1878 485.781 66.1487 488.389 67.0801C490.997 68.0116 491.887 63.8258 491.887 63.8258C491.887 63.8258 484.345 53.4146 481.48 59.1878Z" fill="#DEDEDE"/>
<path d="M472.094 61.9184C472.094 61.9184 478.026 67.0382 483.1 64.1556C488.173 61.2729 483.32 57.6993 483.32 57.6993C483.32 57.6993 472.095 56.1933 472.094 61.9184Z" fill="#DEDEDE"/>
<path d="M473.418 61.0221C473.418 61.0221 472.823 69.8214 467.125 69.8179C461.425 69.8144 466.856 59.872 470.507 59.2686C474.157 58.6651 473.418 61.0221 473.418 61.0221Z" fill="#DEDEDE"/>
<path d="M471.526 81.3406C471.379 81.0738 471.239 80.8106 471.106 80.5482C470.861 80.0759 470.637 79.6106 470.433 79.162C470.387 79.0562 470.34 78.9512 470.295 78.848C470.375 78.82 470.454 78.7938 470.536 78.7684C472.338 78.2025 473.987 78.3311 474.215 79.0544C474.438 79.7567 473.244 80.7642 471.526 81.3406Z" fill="#864F4A"/>
<path d="M487.89 73.6704C488.118 74.3954 486.842 75.4423 485.039 76.0099C483.235 76.5767 481.588 76.449 481.358 75.7248C481.13 74.9998 482.406 73.9529 484.209 73.3853C486.013 72.8185 487.661 72.9453 487.89 73.6704Z" fill="#864F4A"/>
<path d="M489.188 68.6706C489.188 68.6706 489.978 65.4031 493.188 65.8115C496.397 66.2199 498.023 76.4352 492.109 76.9766L489.188 68.6706Z" fill="white"/>
<path d="M486.607 65.1079C486.607 65.1079 487.496 74.2474 489.278 72.9058C491.06 71.5651 490.261 66.1391 490.261 66.1391L486.607 65.1079Z" fill="#DEDEDE"/>
<path d="M495.713 74.0045C495.604 74.2354 495.564 74.4549 495.454 74.6858C497.546 74.6578 499.381 76.2784 499.495 78.4763C499.592 80.3295 498.358 82.0315 496.561 82.5169C494.221 83.1483 491.91 81.5986 491.553 79.2756C491.326 77.802 491.946 76.3895 493.046 75.5289C493.808 75.0514 493.837 74.6744 493.766 74.3185C491.779 75.1073 490.522 77.1854 490.859 79.3815C491.252 81.9362 493.656 83.695 496.217 83.304C498.777 82.9113 500.54 80.515 500.147 77.9603C499.805 75.7406 497.875 74.1322 495.713 74.0045Z" fill="white"/>
<path d="M491.73 72.9215C491.735 73.0754 491.864 73.1953 492.018 73.19L492.078 73.1821C492.202 73.1507 492.291 73.0352 492.286 72.9032C492.285 72.8857 492.259 71.8816 492.681 70.8391C493.374 71.168 493.945 71.4924 493.953 71.4959L494.16 71.5239L494.332 71.3927C494.408 71.2607 494.361 71.091 494.228 71.014C494.203 70.9992 493.632 70.6747 492.921 70.3371C493.224 69.7983 493.671 69.2902 494.329 68.95C494.466 68.88 494.517 68.713 494.447 68.5774C494.376 68.4392 494.209 68.3868 494.072 68.4576C491.645 69.7126 491.726 72.7921 491.73 72.9215Z" fill="#DEDEDE"/>
<path d="M507.878 220.565L420.449 197.187L449.547 88.8777L536.978 112.255L507.878 220.565Z" fill="#5D5EB5"/>
<path d="M484.454 111.106L462.188 105.152L462.869 102.616L485.135 108.57L484.454 111.106Z" fill="#D4CDEB"/>
<path d="M526.637 122.385L516.873 119.775L517.554 117.238L527.319 119.85L526.637 122.385Z" fill="#D4CDEB"/>
<path d="M525.511 126.58L515.746 123.97L515.971 123.134L525.735 125.745L525.511 126.58Z" fill="#D4CDEB"/>
<path d="M443.357 164.587C441.192 164.008 439.908 161.789 440.488 159.63C441.068 157.471 443.293 156.19 445.456 156.769C447.621 157.347 448.905 159.566 448.326 161.726C447.744 163.884 445.52 165.166 443.357 164.587ZM446.141 154.221C442.567 153.266 438.893 155.381 437.935 158.947C436.977 162.513 439.098 166.178 442.672 167.134C446.246 168.089 449.92 165.974 450.878 162.408C451.836 158.842 449.715 155.177 446.141 154.221Z" fill="#F5B2DC"/>
<path d="M443.795 162.949C442.537 162.614 441.79 161.324 442.127 160.068C442.464 158.813 443.758 158.069 445.015 158.406C446.273 158.742 447.018 160.032 446.682 161.287C446.345 162.541 445.052 163.286 443.795 162.949ZM445.098 158.1C443.67 157.718 442.203 158.562 441.821 159.986C441.438 161.41 442.284 162.874 443.712 163.256C445.14 163.638 446.607 162.793 446.989 161.368C447.372 159.944 446.525 158.481 445.098 158.1Z" fill="#F5B2DC"/>
<path d="M457.707 168.423C455.543 167.845 454.258 165.626 454.838 163.466C455.418 161.307 457.643 160.026 459.807 160.605C461.971 161.183 463.255 163.403 462.676 165.562C462.096 167.721 459.872 169.002 457.707 168.423ZM460.492 158.058C456.917 157.102 453.243 159.218 452.285 162.784C451.327 166.349 453.448 170.014 457.023 170.97C460.597 171.926 464.271 169.811 465.229 166.245C466.187 162.678 464.066 159.013 460.492 158.058Z" fill="#F5B2DC"/>
<path d="M458.146 166.786C456.888 166.449 456.142 165.159 456.479 163.905C456.816 162.65 458.109 161.906 459.366 162.242C460.625 162.579 461.37 163.869 461.034 165.123C460.697 166.378 459.404 167.122 458.146 166.786ZM459.449 161.936C458.021 161.554 456.554 162.399 456.172 163.822C455.789 165.247 456.636 166.711 458.064 167.092C459.491 167.474 460.958 166.629 461.34 165.205C461.723 163.781 460.876 162.317 459.449 161.936Z" fill="#F5B2DC"/>
<path d="M434.622 179.374L434.566 178.94L459.115 175.867L463.355 179.273L471.572 172.331L474.88 175.89L480.859 170.86L481.141 171.194L474.843 176.492L471.536 172.934L463.363 179.839L458.986 176.324L434.622 179.374Z" fill="#F5B2DC"/>
<path d="M442.259 192.84L438.375 191.801L442.538 176.307L446.421 177.345L442.259 192.84Z" fill="#8160AD"/>
<path d="M448.552 194.523L444.67 193.485L448.186 180.394L452.069 181.433L448.552 194.523Z" fill="#8160AD"/>
<path d="M454.848 196.205L450.965 195.168L455.236 179.272L459.119 180.311L454.848 196.205Z" fill="#8160AD"/>
<path d="M461.141 197.888L457.258 196.85L460.345 185.363L464.226 186.401L461.141 197.888Z" fill="#8160AD"/>
<path d="M467.431 199.57L463.547 198.533L469.54 176.225L473.423 177.264L467.431 199.57Z" fill="#8160AD"/>
<path d="M473.724 201.254L469.842 200.215L476.409 175.771L480.291 176.81L473.724 201.254Z" fill="#8160AD"/>
<path d="M455.78 153.111L450.723 151.758L461.033 113.38L466.092 114.732L455.78 153.111Z" fill="#D4CDEB"/>
<path d="M463.132 155.076L458.074 153.723L468.384 115.345L473.443 116.698L463.132 155.076Z" fill="#D4CDEB"/>
<path d="M470.478 157.041L465.42 155.688L475.73 117.31L480.789 118.662L470.478 157.041Z" fill="#D4CDEB"/>
<path d="M477.825 159.006L472.766 157.653L483.077 119.274L488.135 120.627L477.825 159.006Z" fill="#D4CDEB"/>
<path d="M485.179 160.97L480.121 159.617L490.432 121.239L495.49 122.591L485.179 160.97Z" fill="#D4CDEB"/>
<path d="M492.525 162.935L487.467 161.582L497.777 123.204L502.836 124.557L492.525 162.935Z" fill="#D4CDEB"/>
<path d="M499.875 164.9L494.816 163.548L505.128 125.169L510.185 126.522L499.875 164.9Z" fill="#D4CDEB"/>
<path d="M507.222 166.865L502.164 165.512L512.474 127.134L517.533 128.486L507.222 166.865Z" fill="#D4CDEB"/>
<path d="M514.567 168.83L509.51 167.477L519.819 129.098L524.879 130.451L514.567 168.83Z" fill="#D4CDEB"/>
<path d="M452.346 151.944L461.904 116.365L462.539 116.535L452.98 152.114L452.346 151.944Z" fill="white"/>
<path d="M459.752 153.925L469.31 118.346L469.946 118.516L460.387 154.095L459.752 153.925Z" fill="white"/>
<path d="M467.162 155.905L476.721 120.327L477.355 120.497L467.797 156.076L467.162 155.905Z" fill="white"/>
<path d="M474.568 157.886L484.127 122.308L484.762 122.478L475.204 158.056L474.568 157.886Z" fill="white"/>
<path d="M481.977 159.867L491.536 124.288L492.171 124.459L482.612 160.037L481.977 159.867Z" fill="white"/>
<path d="M489.385 161.848L498.943 126.269L499.578 126.439L490.019 162.018L489.385 161.848Z" fill="white"/>
<path d="M496.793 163.828L506.351 128.25L506.986 128.42L497.427 163.999L496.793 163.828Z" fill="white"/>
<path d="M504.201 165.809L513.76 130.231L514.395 130.4L504.837 165.979L504.201 165.809Z" fill="white"/>
<path d="M511.607 167.791L521.166 132.211L521.801 132.382L512.243 167.96L511.607 167.791Z" fill="white"/>
<path d="M453.826 152.34L451.498 151.718L456.263 133.981L458.592 134.604L453.826 152.34Z" fill="#8160AD"/>
<path d="M461.233 154.322L458.904 153.699L463.669 135.962L465.997 136.585L461.233 154.322Z" fill="#8160AD"/>
<path d="M468.644 156.302L466.316 155.679L469.536 143.697L471.864 144.319L468.644 156.302Z" fill="#8160AD"/>
<path d="M476.051 158.282L473.723 157.66L480.161 133.694L482.489 134.317L476.051 158.282Z" fill="#8160AD"/>
<path d="M481.144 139.324L478.816 138.701L480.161 133.694L482.49 134.317L481.144 139.324Z" fill="#F5B2DC"/>
<path d="M483.457 160.264L481.129 159.641L488.56 131.98L490.888 132.603L483.457 160.264Z" fill="#8160AD"/>
<path d="M490.867 162.244L488.539 161.622L493.304 143.885L495.632 144.508L490.867 162.244Z" fill="#8160AD"/>
<path d="M498.273 164.224L495.945 163.603L502.668 138.581L504.995 139.203L498.273 164.224Z" fill="#8160AD"/>
<path d="M504.537 140.905L502.209 140.283L502.667 138.581L504.994 139.203L504.537 140.905Z" fill="#F5B2DC"/>
<path d="M505.68 166.205L503.352 165.583L509.337 143.307L511.665 143.929L505.68 166.205Z" fill="#8160AD"/>
<path d="M513.091 168.186L510.762 167.564L515.527 149.827L517.856 150.45L513.091 168.186Z" fill="#8160AD"/>
<path d="M448.368 150.724L443.609 149.452L443.979 148.078L448.737 149.35L448.368 150.724Z" fill="#D4CDEB"/>
<path d="M449.895 145.048L445.137 143.776L445.506 142.401L450.264 143.673L449.895 145.048Z" fill="#D4CDEB"/>
<path d="M451.417 139.372L446.658 138.1L447.027 136.725L451.787 137.998L451.417 139.372Z" fill="#D4CDEB"/>
<path d="M452.942 133.696L448.184 132.424L448.554 131.049L453.312 132.321L452.942 133.696Z" fill="#D4CDEB"/>
<path d="M454.469 128.019L449.711 126.747L450.08 125.373L454.838 126.645L454.469 128.019Z" fill="#D4CDEB"/>
<path d="M455.995 122.343L451.236 121.07L451.605 119.695L456.364 120.968L455.995 122.343Z" fill="#D4CDEB"/>
<path d="M457.516 116.667L452.758 115.394L453.127 114.019L457.886 115.292L457.516 116.667Z" fill="#D4CDEB"/>
<path d="M466.436 113.457L461.377 112.104L461.522 111.564L466.581 112.916L466.436 113.457Z" fill="#CBC5E8"/>
<path d="M473.785 115.422L468.727 114.069L468.871 113.529L473.93 114.882L473.785 115.422Z" fill="#CBC5E8"/>
<path d="M481.13 117.386L476.072 116.034L476.217 115.493L481.275 116.847L481.13 117.386Z" fill="#CBC5E8"/>
<path d="M488.482 119.352L483.424 117.998L483.569 117.458L488.627 118.811L488.482 119.352Z" fill="#CBC5E8"/>
<path d="M495.83 121.316L490.771 119.963L490.917 119.423L495.975 120.776L495.83 121.316Z" fill="#CBC5E8"/>
<path d="M503.178 123.281L498.119 121.929L498.264 121.388L503.323 122.741L503.178 123.281Z" fill="#CBC5E8"/>
<path d="M510.525 125.247L505.467 123.893L505.611 123.354L510.671 124.706L510.525 125.247Z" fill="#CBC5E8"/>
<path d="M517.876 127.211L512.816 125.858L512.962 125.318L518.02 126.67L517.876 127.211Z" fill="#CBC5E8"/>
<path d="M525.222 129.176L520.164 127.822L520.31 127.283L525.367 128.635L525.222 129.176Z" fill="#CBC5E8"/>
<path d="M518.022 111.764C518.146 111.712 518.325 111.65 518.482 111.593L518.974 111.42L519.967 111.066L521.961 110.363C523.288 109.896 524.609 109.42 525.916 108.942C528.526 107.983 531.092 106.988 533.484 105.923C534.08 105.653 534.669 105.389 535.235 105.111C535.802 104.833 536.351 104.551 536.875 104.27C537.399 103.987 537.895 103.699 538.347 103.409C538.8 103.125 539.21 102.841 539.542 102.576C539.873 102.315 540.122 102.066 540.248 101.919L540.31 101.804L540.259 101.851L540.207 101.913L540.183 101.952L540.113 102.069C540.009 102.263 539.877 102.538 539.779 102.855C539.677 103.176 539.593 103.567 539.566 103.973C539.536 104.383 539.553 104.806 539.619 105.193C539.684 105.582 539.78 105.915 539.892 106.198C539.999 106.473 540.111 106.687 540.21 106.854C540.3 107.012 540.392 107.136 540.447 107.212C540.569 107.374 540.615 107.414 540.588 107.406C540.539 107.386 540.269 107.2 539.913 107.011C539.547 106.815 539.098 106.597 538.598 106.384C537.598 105.957 536.44 105.521 535.229 105.128C534.016 104.728 532.747 104.345 531.449 103.986C530.154 103.615 528.828 103.28 527.49 102.937C524.811 102.269 522.078 101.63 519.326 101.014L515.188 100.094L511.101 99.1769L510.978 99.1498C507.234 98.3102 504.88 94.6001 505.721 90.8639C506.482 87.4888 509.592 85.2481 512.945 85.465L513.551 85.5035L514.125 85.5464L515.263 85.6391C516.019 85.7055 516.772 85.7799 517.522 85.863C519.024 86.0291 520.521 86.2198 522.018 86.4411C525.011 86.8828 528.003 87.4128 531.009 88.0844C532.515 88.4107 534.02 88.7911 535.541 89.1943C537.059 89.6115 538.59 90.0654 540.146 90.5945C541.7 91.1359 543.282 91.7236 544.942 92.5029C545.771 92.8921 546.628 93.3311 547.53 93.8611C548.435 94.4016 549.39 95.0217 550.452 95.9488C550.981 96.414 551.548 96.9677 552.133 97.6936C552.422 98.0495 552.723 98.472 553.01 98.9381C553.3 99.4148 553.581 99.9526 553.825 100.565C554.072 101.188 554.278 101.87 554.404 102.618C554.528 103.364 554.572 104.152 554.517 104.926C554.461 105.695 554.318 106.446 554.109 107.117C553.902 107.781 553.637 108.397 553.36 108.912L553.253 109.109L553.2 109.201L553.161 109.27L552.994 109.542C552.883 109.717 552.766 109.911 552.653 110.068L552.305 110.552C552.186 110.716 552.073 110.848 551.955 110.996C551.481 111.58 551.013 112.054 550.545 112.5C549.619 113.363 548.715 114.016 547.846 114.582C546.108 115.705 544.47 116.473 542.864 117.137C541.264 117.8 539.693 118.32 538.143 118.783C535.04 119.696 531.987 120.329 528.938 120.808C527.413 121.048 525.889 121.238 524.364 121.39C523.6 121.464 522.836 121.529 522.068 121.58C521.683 121.605 521.297 121.622 520.91 121.642L520.324 121.669L519.706 121.689C516.902 121.781 514.553 119.585 514.463 116.788C514.392 114.619 515.697 112.724 517.593 111.939L518.022 111.764Z" fill="white"/>
<path d="M516.027 113.053C516.027 113.053 510.209 114.373 506.532 115.575C504.001 116.404 501.789 116.6 501.426 117.814C501.063 119.027 506.509 118.593 506.997 118.551C507.485 118.509 516.027 113.053 516.027 113.053Z" fill="white"/>
<path d="M520.895 113.767C522.757 115.972 522.326 119.266 520.18 121.196C519.048 122.215 517.901 123.436 517.29 124.631C515.822 127.499 515.709 131.548 513.918 133.287C512.126 135.025 511.6 134.494 511.762 132.345C511.925 130.196 512.691 126.255 512.691 126.255C512.691 126.255 510.159 131.108 509.997 133.257C509.836 135.406 508.236 136.51 507.238 134.418C506.239 132.327 507.913 126.401 508.822 124.885C508.822 124.885 506.486 127.476 506.171 130.38C505.855 133.282 505.803 134.935 505.105 135.891C504.407 136.848 502.729 135.473 503.274 131.433C503.819 127.391 504.497 125.113 505.654 123.495C505.654 123.495 504.292 124.364 502.419 126.241C500.545 128.117 500.448 131.502 498.947 132.02C497.412 132.551 497.695 128.657 498.815 126.58C499.934 124.503 500.572 122.897 502.906 120.984C505.24 119.069 507.539 117.321 509.212 116.509C510.886 115.699 516.457 112.035 519.09 112.544C519.763 112.674 520.367 113.142 520.895 113.767Z" fill="white"/>
<path d="M516.574 112.594C516.574 112.594 522.063 114.05 523.095 121.559C523.095 121.559 524.697 122.293 525.594 121.258C525.594 121.258 524.45 113.262 518.975 111.42C518.975 111.42 517.108 111.369 516.574 112.594Z" fill="#DEDEDE"/>
<path d="M521.667 101.695C521.622 101.855 521.459 101.958 521.291 101.925C521.208 101.909 512.927 100.293 509.297 99.2841C509.126 99.236 509.024 99.0568 509.073 98.8845C509.12 98.7122 509.299 98.6107 509.473 98.6597C513.077 99.6611 521.333 101.272 521.416 101.289C521.592 101.323 521.708 101.493 521.673 101.669L521.667 101.695Z" fill="#864F4A"/>
<path d="M511.922 99.655C511.907 99.7495 511.852 99.8362 511.763 99.8869L509.525 101.166C509.369 101.255 509.171 101.201 509.082 101.045C508.993 100.891 509.047 100.692 509.203 100.603L511.439 99.3243C511.595 99.2351 511.793 99.2893 511.884 99.4451L511.922 99.655Z" fill="#864F4A"/>
<path d="M540.985 102.414C540.957 102.545 540.849 102.649 540.709 102.666C538.605 102.936 536.139 105.062 536.114 105.083C535.979 105.201 535.774 105.187 535.656 105.051C535.538 104.917 535.553 104.712 535.687 104.594C535.794 104.501 538.329 102.317 540.626 102.023C540.804 102 540.966 102.126 540.99 102.303L540.985 102.414Z" fill="#864F4A"/>
<path d="M539.212 100.917C539.193 101.002 539.139 101.08 539.059 101.127C539.008 101.158 537.905 101.836 537.773 103.725C537.759 103.903 537.604 104.039 537.425 104.025C537.246 104.013 537.111 103.858 537.124 103.679C537.283 101.426 538.673 100.601 538.733 100.566C538.887 100.477 539.086 100.53 539.175 100.685L539.212 100.917Z" fill="#864F4A"/>
<path d="M443.255 114.857C443.255 114.857 440.461 113.052 441.428 111.003C442.397 108.954 447.64 107.843 449.507 107.577C451.374 107.312 448.406 110.61 446.536 111.23C444.663 111.85 444.338 112.861 444.338 112.861L443.255 114.857Z" fill="white"/>
<path d="M445.691 107.817C445.691 107.817 442.896 106.012 443.864 103.963C444.832 101.913 450.076 100.803 451.942 100.537C453.81 100.272 450.842 103.57 448.971 104.19C447.098 104.81 446.773 105.821 446.773 105.821L445.691 107.817Z" fill="white"/>
<path d="M446.446 104.225C446.446 104.225 443.978 102.63 444.832 100.82C445.688 99.0105 450.32 98.0284 451.969 97.794C453.619 97.5605 450.997 100.474 449.343 101.021C447.69 101.57 447.402 102.462 447.402 102.462L446.446 104.225Z" fill="white"/>
<path d="M444.613 111.438C444.613 111.438 441.818 109.633 442.786 107.583C443.754 105.534 448.998 104.424 450.864 104.158C452.732 103.893 449.764 107.191 447.892 107.811C446.021 108.432 445.695 109.442 445.695 109.442L444.613 111.438Z" fill="white"/>
</svg>
