<svg width="365" height="350" viewBox="0 0 365 350" fill="none" xmlns="http://www.w3.org/2000/svg">
<path d="M37.6092 226.19C35.0917 226.19 33.0508 224.135 33.0508 221.6V30.6826C33.0508 28.1484 35.0917 26.0936 37.6092 26.0936C40.1262 26.0936 42.1671 28.1484 42.1671 30.6826V221.6C42.1671 224.135 40.1262 226.19 37.6092 226.19Z" fill="#F1F2F2"/>
<path d="M37.6061 26.6664C35.4072 26.6664 33.6173 28.4685 33.6173 30.6824V221.6C33.6173 223.815 35.4072 225.616 37.6061 225.616C39.8049 225.616 41.5943 223.815 41.5943 221.6V30.6824C41.5943 28.4685 39.8049 26.6664 37.6061 26.6664ZM37.6061 226.764C34.7783 226.764 32.4785 224.448 32.4785 221.6V30.6824C32.4785 27.8354 34.7783 25.5193 37.6061 25.5193C40.4333 25.5193 42.7336 27.8354 42.7336 30.6824V221.6C42.7336 224.448 40.4333 226.764 37.6061 226.764Z" fill="white"/>
<path d="M80.9785 52.5171V38.4627H18.7793V52.5171H80.9785Z" fill="#FFF08A"/>
<path d="M19.3486 51.9429H80.4084V39.0356H19.3486V51.9429ZM80.9781 53.0906H18.7789C18.4639 53.0906 18.209 52.8341 18.209 52.517V38.4626C18.209 38.145 18.4639 37.8885 18.7789 37.8885H80.9781C81.293 37.8885 81.5483 38.145 81.5483 38.4626V52.517C81.5483 52.8341 81.293 53.0906 80.9781 53.0906Z" fill="white"/>
<path d="M62.7695 79.4001V65.3457H0.570312V79.4001H62.7695Z" fill="#FFF08A"/>
<path d="M1.13965 78.8268H62.1994V65.9195H1.13965V78.8268ZM62.7691 79.9739H0.569935C0.255138 79.9739 0 79.7174 0 79.4003V65.3459C0 65.0288 0.255138 64.7723 0.569935 64.7723H62.7691C63.0841 64.7723 63.3388 65.0288 63.3388 65.3459V79.4003C63.3388 79.7174 63.0841 79.9739 62.7691 79.9739Z" fill="white"/>
<path d="M77.3888 106.286V92.2307H15.1895V106.286H77.3888Z" fill="#FFF08A"/>
<path d="M15.7606 105.711H76.8204V92.8047H15.7606V105.711ZM77.39 106.859H15.1907C14.8759 106.859 14.6211 106.602 14.6211 106.286V92.2306C14.6211 91.9141 14.8759 91.6571 15.1907 91.6571H77.39C77.705 91.6571 77.9597 91.9141 77.9597 92.2306V106.286C77.9597 106.602 77.705 106.859 77.39 106.859Z" fill="white"/>
<path d="M95.2472 133.169V119.114H33.0508V133.169H95.2472Z" fill="#FFF08A"/>
<path d="M33.6173 132.595H94.6744V119.688H33.6173V132.595ZM95.2441 133.743H33.0477C32.7332 133.743 32.4785 133.486 32.4785 133.169V119.114C32.4785 118.797 32.7332 118.541 33.0477 118.541H95.2441C95.5585 118.541 95.8138 118.797 95.8138 119.114V133.169C95.8138 133.486 95.5585 133.743 95.2441 133.743Z" fill="white"/>
<path d="M87.0114 160.054V146H24.8125V160.054H87.0114Z" fill="#FFF08A"/>
<path d="M25.3803 159.481H86.4396V146.573H25.3803V159.481ZM87.0092 160.628H24.8104C24.4956 160.628 24.2402 160.371 24.2402 160.054V146C24.2402 145.683 24.4956 145.426 24.8104 145.426H87.0092C87.3247 145.426 87.5794 145.683 87.5794 146V160.054C87.5794 160.371 87.3247 160.628 87.0092 160.628Z" fill="white"/>
<path d="M71.0077 186.937V172.883H8.80859V186.937H71.0077Z" fill="#FFF08A"/>
<path d="M9.37757 186.363H70.4373V173.457H9.37757V186.363ZM71.007 187.51H8.80785C8.49305 187.51 8.23828 187.255 8.23828 186.937V172.883C8.23828 172.565 8.49305 172.309 8.80785 172.309H71.007C71.3219 172.309 71.5771 172.565 71.5771 172.883V186.937C71.5771 187.255 71.3219 187.51 71.007 187.51Z" fill="white"/>
<path d="M83.3275 213.822V199.768H21.1328V213.822H83.3275Z" fill="#FFF08A"/>
<path d="M21.7035 213.249H82.7588V200.342H21.7035V213.249ZM83.3285 214.396H21.1338C20.819 214.396 20.5645 214.14 20.5645 213.822V199.769C20.5645 199.451 20.819 199.194 21.1338 199.194H83.3285C83.6434 199.194 83.8987 199.451 83.8987 199.769V213.822C83.8987 214.14 83.6434 214.396 83.3285 214.396Z" fill="white"/>
<path d="M261.488 69.1584C261.488 60.2879 254.345 53.0949 245.535 53.0949H128.828C120.019 53.0949 112.875 60.2879 112.875 69.1584V79.3564H261.488V69.1584Z" fill="#D99CFF"/>
<path d="M113.445 78.7828H260.918V69.1583C260.918 60.6171 254.018 53.6684 245.535 53.6684H128.828C120.345 53.6684 113.445 60.6171 113.445 69.1583V78.7828ZM261.488 79.9299H112.875C112.56 79.9299 112.305 79.673 112.305 79.3564V69.1583C112.305 59.9845 119.717 52.5213 128.828 52.5213H245.535C254.645 52.5213 262.057 59.9845 262.057 69.1583V79.3564C262.057 79.673 261.803 79.9299 261.488 79.9299Z" fill="white"/>
<path d="M142.009 99.9505C142.009 102.96 139.585 105.4 136.597 105.4C133.608 105.4 131.184 102.96 131.184 99.9505C131.184 96.9417 133.608 94.5011 136.597 94.5011C139.585 94.5011 142.009 96.9417 142.009 99.9505Z" fill="#A7A9AC"/>
<path d="M136.598 95.0746C133.927 95.0746 131.755 97.2619 131.755 99.9504C131.755 102.639 133.927 104.827 136.598 104.827C139.269 104.827 141.441 102.639 141.441 99.9504C141.441 97.2619 139.269 95.0746 136.598 95.0746ZM136.598 105.974C133.299 105.974 130.615 103.272 130.615 99.9504C130.615 96.6298 133.299 93.9269 136.598 93.9269C139.896 93.9269 142.58 96.6298 142.58 99.9504C142.58 103.272 139.896 105.974 136.598 105.974Z" fill="white"/>
<path d="M243.181 99.9505C243.181 102.96 240.757 105.4 237.768 105.4C234.779 105.4 232.355 102.96 232.355 99.9505C232.355 96.9417 234.779 94.5011 237.768 94.5011C240.757 94.5011 243.181 96.9417 243.181 99.9505Z" fill="#A7A9AC"/>
<path d="M237.77 95.0746C235.099 95.0746 232.926 97.2619 232.926 99.9504C232.926 102.639 235.099 104.827 237.77 104.827C240.44 104.827 242.612 102.639 242.612 99.9504C242.612 97.2619 240.44 95.0746 237.77 95.0746ZM237.77 105.974C234.471 105.974 231.787 103.272 231.787 99.9504C231.787 96.6298 234.471 93.9269 237.77 93.9269C241.068 93.9269 243.752 96.6298 243.752 99.9504C243.752 103.272 241.068 105.974 237.77 105.974Z" fill="white"/>
<path d="M136.933 105.974C136.665 105.974 136.426 105.782 136.374 105.507L124.149 40.4521C124.09 40.1414 124.294 39.8413 124.603 39.7822C124.905 39.7232 125.211 39.9275 125.269 40.2393L137.494 105.294C137.553 105.605 137.349 105.906 137.04 105.964C137.004 105.971 136.968 105.974 136.933 105.974Z" fill="white"/>
<path d="M141.544 20.4594C141.544 31.4422 132.7 40.3457 121.792 40.3457C110.884 40.3457 102.041 31.4422 102.041 20.4594C102.041 9.4771 110.884 0.573578 121.792 0.573578C132.7 0.573578 141.544 9.4771 141.544 20.4594Z" fill="#A3F7B5"/>
<path d="M121.791 1.14725C111.215 1.14725 102.611 9.81083 102.611 20.4595C102.611 31.1087 111.215 39.7723 121.791 39.7723C132.368 39.7723 140.973 31.1087 140.973 20.4595C140.973 9.81083 132.368 1.14725 121.791 1.14725ZM121.791 40.9199C110.586 40.9199 101.471 31.7413 101.471 20.4595C101.471 9.1782 110.586 0.000125885 121.791 0.000125885C132.997 0.000125885 142.113 9.1782 142.113 20.4595C142.113 31.7413 132.997 40.9199 121.791 40.9199Z" fill="white"/>
<path d="M232.146 20.4594C232.146 31.4422 240.989 40.3457 251.897 40.3457C262.807 40.3457 271.649 31.4422 271.649 20.4594C271.649 9.4771 262.807 0.573578 251.897 0.573578C240.989 0.573578 232.146 9.4771 232.146 20.4594Z" fill="#A3F7B5"/>
<path d="M251.898 1.14725C241.321 1.14725 232.718 9.81083 232.718 20.4595C232.718 31.1087 241.321 39.7723 251.898 39.7723C262.475 39.7723 271.08 31.1087 271.08 20.4595C271.08 9.81083 262.475 1.14725 251.898 1.14725ZM251.898 40.9199C240.693 40.9199 231.578 31.7413 231.578 20.4595C231.578 9.1782 240.693 0.000125885 251.898 0.000125885C263.104 0.000125885 272.22 9.1782 272.22 20.4595C272.22 31.7413 263.104 40.9199 251.898 40.9199Z" fill="white"/>
<path d="M178.734 128.251H131.158V119.073H178.734V128.251Z" fill="#F1F2F2"/>
<path d="M131.73 127.678H178.166V119.646H131.73V127.678ZM178.736 128.825H131.16C130.845 128.825 130.59 128.568 130.59 128.251V119.073C130.59 118.756 130.845 118.499 131.16 118.499H178.736C179.051 118.499 179.306 118.756 179.306 119.073V128.251C179.306 128.568 179.051 128.825 178.736 128.825Z" fill="white"/>
<path d="M243.204 128.251H195.627V119.073H243.204V128.251Z" fill="#F1F2F2"/>
<path d="M196.198 127.678H242.635V119.646H196.198V127.678ZM243.205 128.825H195.628C195.313 128.825 195.059 128.568 195.059 128.251V119.073C195.059 118.756 195.313 118.499 195.628 118.499H243.205C243.52 118.499 243.775 118.756 243.775 119.073V128.251C243.775 128.568 243.52 128.825 243.205 128.825Z" fill="white"/>
<path d="M178.734 148.329H131.158V139.151H178.734V148.329Z" fill="#F1F2F2"/>
<path d="M131.73 147.755H178.166V139.724H131.73V147.755ZM178.736 148.903H131.16C130.845 148.903 130.59 148.646 130.59 148.329V139.151C130.59 138.834 130.845 138.577 131.16 138.577H178.736C179.051 138.577 179.306 138.834 179.306 139.151V148.329C179.306 148.646 179.051 148.903 178.736 148.903Z" fill="white"/>
<path d="M243.204 148.329H195.627V139.151H243.204V148.329Z" fill="#F1F2F2"/>
<path d="M196.198 147.755H242.635V139.724H196.198V147.755ZM243.205 148.903H195.628C195.313 148.903 195.059 148.646 195.059 148.329V139.151C195.059 138.834 195.313 138.577 195.628 138.577H243.205C243.52 138.577 243.775 138.834 243.775 139.151V148.329C243.775 148.646 243.52 148.903 243.205 148.903Z" fill="white"/>
<path d="M178.734 168.406H131.158V159.228H178.734V168.406Z" fill="#F1F2F2"/>
<path d="M131.73 167.833H178.166V159.802H131.73V167.833ZM178.736 168.981H131.16C130.845 168.981 130.59 168.724 130.59 168.407V159.229C130.59 158.911 130.845 158.655 131.16 158.655H178.736C179.051 158.655 179.306 158.911 179.306 159.229V168.407C179.306 168.724 179.051 168.981 178.736 168.981Z" fill="white"/>
<path d="M243.204 168.406H195.627V159.228H243.204V168.406Z" fill="#F1F2F2"/>
<path d="M196.198 167.833H242.635V159.802H196.198V167.833ZM243.205 168.981H195.628C195.313 168.981 195.059 168.724 195.059 168.407V159.229C195.059 158.911 195.313 158.655 195.628 158.655H243.205C243.52 158.655 243.775 158.911 243.775 159.229V168.407C243.775 168.724 243.52 168.981 243.205 168.981Z" fill="white"/>
<path d="M178.734 188.484H131.158V179.306H178.734V188.484Z" fill="#F1F2F2"/>
<path d="M131.73 187.911H178.166V179.879H131.73V187.911ZM178.736 189.058H131.16C130.845 189.058 130.59 188.801 130.59 188.484V179.306C130.59 178.989 130.845 178.733 131.16 178.733H178.736C179.051 178.733 179.306 178.989 179.306 179.306V188.484C179.306 188.801 179.051 189.058 178.736 189.058Z" fill="white"/>
<path d="M243.204 188.484H195.627V179.306H243.204V188.484Z" fill="#F1F2F2"/>
<path d="M196.198 187.911H242.635V179.879H196.198V187.911ZM243.205 189.058H195.628C195.313 189.058 195.059 188.801 195.059 188.484V179.306C195.059 178.989 195.313 178.733 195.628 178.733H243.205C243.52 178.733 243.775 178.989 243.775 179.306V188.484C243.775 188.801 243.52 189.058 243.205 189.058Z" fill="white"/>
<path d="M178.734 208.563H131.158V199.384H178.734V208.563Z" fill="#F1F2F2"/>
<path d="M131.73 207.988H178.166V199.958H131.73V207.988ZM178.736 209.136H131.16C130.845 209.136 130.59 208.879 130.59 208.563V199.384C130.59 199.067 130.845 198.81 131.16 198.81H178.736C179.051 198.81 179.306 199.067 179.306 199.384V208.563C179.306 208.879 179.051 209.136 178.736 209.136Z" fill="white"/>
<path d="M220.264 208.563H195.627V199.384H220.264V208.563Z" fill="#F1F2F2"/>
<path d="M196.198 207.988H219.696V199.958H196.198V207.988ZM220.266 209.136H195.628C195.313 209.136 195.059 208.879 195.059 208.563V199.384C195.059 199.067 195.313 198.81 195.628 198.81H220.266C220.581 198.81 220.836 199.067 220.836 199.384V208.563C220.836 208.879 220.581 209.136 220.266 209.136Z" fill="white"/>
<path d="M113.445 235.906H232.146L260.918 206.936V79.9301H113.445V235.906ZM232.381 237.053H112.875C112.56 237.053 112.305 236.797 112.305 236.48V79.3566C112.305 79.0395 112.56 78.783 112.875 78.783H261.488C261.803 78.783 262.057 79.0395 262.057 79.3566V207.174C262.057 207.327 261.998 207.472 261.891 207.58L232.784 236.885C232.678 236.993 232.532 237.053 232.381 237.053Z" fill="white"/>
<path d="M232.383 236.479L261.49 207.174H232.383V236.479Z" fill="#F1F2F2"/>
<path d="M232.951 207.748V235.095L260.113 207.748H232.951ZM232.382 237.053C232.308 237.053 232.234 237.039 232.164 237.01C231.951 236.921 231.812 236.712 231.812 236.48V207.174C231.812 206.857 232.067 206.601 232.382 206.601H261.489C261.719 206.601 261.927 206.741 262.014 206.954C262.103 207.168 262.054 207.416 261.891 207.58L232.785 236.885C232.675 236.995 232.53 237.053 232.382 237.053Z" fill="white"/>
<path d="M135.221 22.3365C135.221 26.2642 132.484 29.4475 129.11 29.4475C125.733 29.4475 122.996 26.2642 122.996 22.3365C122.996 18.4088 125.733 15.225 129.11 15.225C132.484 15.225 135.221 18.4088 135.221 22.3365Z" fill="white"/>
<path d="M265.982 22.3365C265.982 26.2642 263.246 29.4475 259.871 29.4475C256.495 29.4475 253.758 26.2642 253.758 22.3365C253.758 18.4088 256.495 15.225 259.871 15.225C263.246 15.225 265.982 18.4088 265.982 22.3365Z" fill="white"/>
<path d="M239.674 72.3794H251.897V60.0728H239.674V72.3794Z" fill="#CC93F0"/>
<path d="M240.244 71.8058H251.329V60.6463H240.244V71.8058ZM251.898 72.9529H239.675C239.36 72.9529 239.105 72.6964 239.105 72.3793V60.0727C239.105 59.7556 239.36 59.4992 239.675 59.4992H251.898C252.213 59.4992 252.467 59.7556 252.467 60.0727V72.3793C252.467 72.6964 252.213 72.9529 251.898 72.9529Z" fill="white"/>
<path d="M220.133 72.3794H232.356V60.0728H220.133V72.3794Z" fill="#CC93F0"/>
<path d="M220.702 71.8058H231.786V60.6463H220.702V71.8058ZM232.356 72.9529H220.133C219.818 72.9529 219.562 72.6964 219.562 72.3793V60.0727C219.562 59.7556 219.818 59.4992 220.133 59.4992H232.356C232.67 59.4992 232.925 59.7556 232.925 60.0727V72.3793C232.925 72.6964 232.67 72.9529 232.356 72.9529Z" fill="white"/>
<path d="M200.59 72.3794H212.813V60.0728H200.59V72.3794Z" fill="#CC93F0"/>
<path d="M201.159 71.8058H212.243V60.6463H201.159V71.8058ZM212.812 72.9529H200.589C200.274 72.9529 200.02 72.6964 200.02 72.3793V60.0727C200.02 59.7556 200.274 59.4992 200.589 59.4992H212.812C213.127 59.4992 213.382 59.7556 213.382 60.0727V72.3793C213.382 72.6964 213.127 72.9529 212.812 72.9529Z" fill="white"/>
<path d="M236.756 105.974C236.721 105.974 236.685 105.971 236.65 105.964C236.341 105.906 236.137 105.605 236.196 105.294L248.419 40.2393C248.477 39.9275 248.779 39.7226 249.084 39.7822C249.393 39.8413 249.597 40.1413 249.539 40.4521L237.316 105.507C237.264 105.782 237.025 105.974 236.756 105.974Z" fill="white"/>
<path d="M319.571 340.326H187.182V260.133H319.571V340.326Z" fill="white"/>
<path d="M187.753 339.752H319.003V260.707H187.753V339.752ZM319.572 340.9H187.183C186.868 340.9 186.613 340.644 186.613 340.326V260.133C186.613 259.816 186.868 259.559 187.183 259.559H319.572C319.888 259.559 320.142 259.816 320.142 260.133V340.326C320.142 340.644 319.888 340.9 319.572 340.9Z" fill="white"/>
<path d="M187.183 324.201H108.877V316.17H187.183V324.201Z" fill="#F1F2F2"/>
<path d="M109.446 323.627H186.613V316.744H109.446V323.627ZM187.183 324.775H108.877C108.561 324.775 108.307 324.518 108.307 324.201V316.17C108.307 315.853 108.561 315.597 108.877 315.597H187.183C187.497 315.597 187.752 315.853 187.752 316.17V324.201C187.752 324.518 187.497 324.775 187.183 324.775Z" fill="white"/>
<path d="M187.181 279.984H112.875V271.952H187.181V279.984Z" fill="#F1F2F2"/>
<path d="M113.445 279.41H186.612V272.527H113.445V279.41ZM187.181 280.558H112.875C112.56 280.558 112.305 280.301 112.305 279.985V271.953C112.305 271.636 112.56 271.38 112.875 271.38H187.181C187.496 271.38 187.751 271.636 187.751 271.953V279.985C187.751 280.301 187.496 280.558 187.181 280.558Z" fill="white"/>
<path d="M364.43 115.124C364.43 121.209 359.531 126.141 353.489 126.141H293.197C287.154 126.141 282.256 121.209 282.256 115.124V54.4213C282.256 48.3372 287.154 43.4045 293.197 43.4045H353.489C359.531 43.4045 364.43 48.3372 364.43 54.4213V115.124Z" fill="white"/>
<path d="M293.197 43.9787C287.478 43.9787 282.825 48.6635 282.825 54.4215V115.124C282.825 120.883 287.478 125.568 293.197 125.568H353.489C359.208 125.568 363.86 120.883 363.86 115.124V54.4215C363.86 48.6635 359.208 43.9787 353.489 43.9787H293.197ZM353.489 126.715H293.197C286.849 126.715 281.686 121.516 281.686 115.124V54.4215C281.686 48.0303 286.849 42.831 293.197 42.831H353.489C359.836 42.831 364.999 48.0303 364.999 54.4215V115.124C364.999 121.516 359.836 126.715 353.489 126.715Z" fill="white"/>
<path d="M352.118 113.747H294.564V55.7984H352.118V113.747Z" fill="#FF8C99"/>
<path d="M295.136 113.174H351.551V56.3726H295.136V113.174ZM352.12 114.322H294.566C294.251 114.322 293.996 114.065 293.996 113.747V55.7985C293.996 55.4819 294.251 55.2249 294.566 55.2249H352.12C352.435 55.2249 352.69 55.4819 352.69 55.7985V113.747C352.69 114.065 352.435 114.322 352.12 114.322Z" fill="white"/>
<path d="M339.926 101.469H306.76V68.0771H339.926V101.469Z" fill="white"/>
<path d="M307.331 100.895H339.358V68.6508H307.331V100.895ZM339.928 102.042H306.762C306.446 102.042 306.191 101.786 306.191 101.469V68.0773C306.191 67.7601 306.446 67.5032 306.762 67.5032H339.928C340.242 67.5032 340.497 67.7601 340.497 68.0773V101.469C340.497 101.786 340.242 102.042 339.928 102.042Z" fill="white"/>
<path d="M329.627 91.1016H317.057V78.4454H329.627V91.1016Z" fill="#FF8C99"/>
<path d="M317.628 90.5282H329.058V79.0191H317.628V90.5282ZM329.628 91.6753H317.058C316.744 91.6753 316.488 91.4189 316.488 91.1017V78.4456C316.488 78.1285 316.744 77.872 317.058 77.872H329.628C329.944 77.872 330.198 78.1285 330.198 78.4456V91.1017C330.198 91.4189 329.944 91.6753 329.628 91.6753Z" fill="white"/>
<path d="M300.488 168.406H282.256V150.05H300.488V168.406Z" fill="white"/>
<path d="M282.825 167.833H299.918V150.624H282.825V167.833ZM300.488 168.981H282.256C281.94 168.981 281.686 168.724 281.686 168.407V150.05C281.686 149.733 281.94 149.476 282.256 149.476H300.488C300.803 149.476 301.057 149.733 301.057 150.05V168.407C301.057 168.724 300.803 168.981 300.488 168.981Z" fill="white"/>
<path d="M300.488 202.252H282.256V183.895H300.488V202.252Z" fill="#FFF08A"/>
<path d="M282.825 201.679H299.918V184.469H282.825V201.679ZM300.488 202.826H282.256C281.94 202.826 281.686 202.569 281.686 202.252V183.895C281.686 183.579 281.94 183.322 282.256 183.322H300.488C300.803 183.322 301.057 183.579 301.057 183.895V202.252C301.057 202.569 300.803 202.826 300.488 202.826Z" fill="white"/>
<path d="M300.488 236.097H282.256V217.741H300.488V236.097Z" fill="#FF8C99"/>
<path d="M282.825 235.524H299.918V218.314H282.825V235.524ZM300.488 236.672H282.256C281.94 236.672 281.686 236.415 281.686 236.098V217.741C281.686 217.424 281.94 217.167 282.256 217.167H300.488C300.803 217.167 301.057 217.424 301.057 217.741V236.098C301.057 236.415 300.803 236.672 300.488 236.672Z" fill="white"/>
<path d="M220.132 40.9199H151.115C150.8 40.9199 150.545 40.6629 150.545 40.3458C150.545 40.0292 150.8 39.7723 151.115 39.7723H220.132C220.447 39.7723 220.701 40.0292 220.701 40.3458C220.701 40.6629 220.447 40.9199 220.132 40.9199Z" fill="white"/>
<path d="M215.586 25.9038H193.544C193.229 25.9038 192.975 25.6468 192.975 25.3297C192.975 25.0131 193.229 24.7562 193.544 24.7562H215.586C215.9 24.7562 216.155 25.0131 216.155 25.3297C216.155 25.6468 215.9 25.9038 215.586 25.9038Z" fill="white"/>
<path d="M180.249 25.9038H161.636C161.321 25.9038 161.066 25.6468 161.066 25.3297C161.066 25.0131 161.321 24.7562 161.636 24.7562H180.249C180.564 24.7562 180.819 25.0131 180.819 25.3297C180.819 25.6468 180.564 25.9038 180.249 25.9038Z" fill="white"/>
<path d="M350.863 224.386H327.332V150.05H333.038L323.343 133.144L313.648 150.05H319.355V228.401C319.355 230.62 321.141 232.417 323.343 232.417H346.874V296.214H319.572V304.245H350.863C353.064 304.245 354.852 302.448 354.852 300.23V228.401C354.852 226.184 353.064 224.386 350.863 224.386Z" fill="#808285"/>
<path d="M320.141 303.671H350.862C352.747 303.671 354.281 302.127 354.281 300.23V228.401C354.281 226.503 352.747 224.959 350.862 224.959H327.331C327.016 224.959 326.762 224.703 326.762 224.386V150.05C326.762 149.733 327.016 149.476 327.331 149.476H332.05L323.342 134.291L314.635 149.476H319.354C319.669 149.476 319.924 149.733 319.924 150.05V228.401C319.924 230.3 321.457 231.843 323.342 231.843H346.873C347.189 231.843 347.444 232.1 347.444 232.417V296.214C347.444 296.531 347.189 296.787 346.873 296.787H320.141V303.671ZM350.862 304.819H319.571C319.256 304.819 319.002 304.562 319.002 304.245V296.214C319.002 295.896 319.256 295.64 319.571 295.64H346.304V232.991H323.342C320.829 232.991 318.784 230.932 318.784 228.401V150.624H313.648C313.444 150.624 313.256 150.514 313.155 150.337C313.052 150.16 313.052 149.94 313.155 149.763L322.849 132.857C323.052 132.503 323.633 132.503 323.836 132.857L333.462 149.643C333.566 149.748 333.629 149.891 333.629 150.05C333.629 150.368 333.374 150.624 333.06 150.624C333.054 150.625 333.045 150.624 333.037 150.624H327.9V223.813H350.862C353.376 223.813 355.42 225.87 355.42 228.401V300.23C355.42 302.76 353.376 304.819 350.862 304.819Z" fill="white"/>
<path d="M253.923 271.952H197.756V328.506H253.923V271.952Z" fill="#D99CFF"/>
<path d="M198.325 327.933H253.353V272.527H198.325V327.933ZM253.923 329.079H197.756C197.441 329.079 197.186 328.823 197.186 328.506V271.953C197.186 271.636 197.441 271.38 197.756 271.38H253.923C254.238 271.38 254.493 271.636 254.493 271.953V328.506C254.493 328.823 254.238 329.079 253.923 329.079Z" fill="white"/>
<path d="M239.777 300.684H231.021L225.838 307.392L220.656 300.684H211.896C202.155 302.548 203.386 314.1 203.386 314.1V328.506H225.838H248.292V314.1C248.292 314.1 249.524 302.548 239.777 300.684Z" fill="#A3F7B5"/>
<path d="M203.957 327.933H247.724V314.1C247.774 313.589 248.782 302.989 239.672 301.247L231.302 301.258L226.29 307.744C226.181 307.883 226.016 307.966 225.84 307.966C225.664 307.966 225.498 307.883 225.39 307.744L220.38 301.258H211.898C202.885 302.993 203.906 313.589 203.954 314.038L203.957 327.933ZM248.294 329.079H203.388C203.072 329.079 202.818 328.823 202.818 328.506V314.1C202.808 314.04 201.652 302.061 211.792 300.121L220.658 300.11C220.834 300.11 221 300.192 221.108 300.332L225.84 306.458L230.573 300.332C230.682 300.192 230.847 300.11 231.023 300.11H239.779C250.032 302.061 248.874 314.04 248.86 314.161L248.863 328.506C248.863 328.823 248.609 329.079 248.294 329.079Z" fill="white"/>
<path d="M212.638 329.079C212.323 329.079 212.068 328.823 212.068 328.506V312.955C212.068 312.638 212.323 312.381 212.638 312.381C212.953 312.381 213.208 312.638 213.208 312.955V328.506C213.208 328.823 212.953 329.079 212.638 329.079Z" fill="white"/>
<path d="M239.043 329.079C238.727 329.079 238.473 328.823 238.473 328.506V312.955C238.473 312.638 238.727 312.381 239.043 312.381C239.357 312.381 239.612 312.638 239.612 312.955V328.506C239.612 328.823 239.357 329.079 239.043 329.079Z" fill="white"/>
<path d="M235.62 289.403C235.62 294.842 231.242 299.252 225.838 299.252C220.435 299.252 216.059 294.842 216.059 289.403C216.059 283.967 220.435 279.556 225.838 279.556C231.242 279.556 235.62 283.967 235.62 289.403Z" fill="white"/>
<path d="M225.837 280.129C220.76 280.129 216.628 284.291 216.628 289.403C216.628 294.518 220.76 298.679 225.837 298.679C230.917 298.679 235.049 294.518 235.049 289.403C235.049 284.291 230.917 280.129 225.837 280.129ZM225.837 299.826C220.131 299.826 215.488 295.15 215.488 289.403C215.488 283.657 220.131 278.983 225.837 278.983C231.545 278.983 236.189 283.657 236.189 289.403C236.189 295.15 231.545 299.826 225.837 299.826Z" fill="white"/>
<path d="M309.144 280.057H262.709V271.953H309.144V280.057Z" fill="#F1F2F2"/>
<path d="M263.278 279.483H308.574V272.527H263.278V279.483ZM309.143 280.631H262.708C262.393 280.631 262.139 280.374 262.139 280.057V271.953C262.139 271.636 262.393 271.38 262.708 271.38H309.143C309.458 271.38 309.713 271.636 309.713 271.953V280.057C309.713 280.374 309.458 280.631 309.143 280.631Z" fill="white"/>
<path d="M281.369 296.207H262.709V288.103H281.369V296.207Z" fill="#F1F2F2"/>
<path d="M263.278 295.633H280.798V288.676H263.278V295.633ZM281.367 296.78H262.708C262.393 296.78 262.139 296.524 262.139 296.207V288.103C262.139 287.785 262.393 287.529 262.708 287.529H281.367C281.682 287.529 281.938 287.785 281.938 288.103V296.207C281.938 296.524 281.682 296.78 281.367 296.78Z" fill="white"/>
<path d="M309.144 296.207H290.484V288.103H309.144V296.207Z" fill="#F1F2F2"/>
<path d="M291.053 295.633H308.574V288.676H291.053V295.633ZM309.143 296.78H290.484C290.169 296.78 289.914 296.524 289.914 296.207V288.103C289.914 287.785 290.169 287.529 290.484 287.529H309.143C309.458 287.529 309.713 287.785 309.713 288.103V296.207C309.713 296.524 309.458 296.78 309.143 296.78Z" fill="white"/>
<path d="M309.144 312.356H262.709V304.253H309.144V312.356Z" fill="#F1F2F2"/>
<path d="M263.278 311.783H308.574V304.827H263.278V311.783ZM309.143 312.93H262.708C262.393 312.93 262.139 312.673 262.139 312.356V304.254C262.139 303.936 262.393 303.68 262.708 303.68H309.143C309.458 303.68 309.713 303.936 309.713 304.254V312.356C309.713 312.673 309.458 312.93 309.143 312.93Z" fill="white"/>
<path d="M276.811 328.506H262.709V320.404H276.811V328.506Z" fill="#F1F2F2"/>
<path d="M263.278 327.933H276.24V320.977H263.278V327.933ZM276.81 329.079H262.708C262.393 329.079 262.139 328.823 262.139 328.506V320.404C262.139 320.086 262.393 319.83 262.708 319.83H276.81C277.124 319.83 277.379 320.086 277.379 320.404V328.506C277.379 328.823 277.124 329.079 276.81 329.079Z" fill="white"/>
<path d="M122.998 298.051C122.998 269.674 100.15 246.671 71.9668 246.671V298.051H122.998Z" fill="#A3F7B5"/>
<path d="M72.5358 297.477H122.425C122.121 269.917 99.909 247.555 72.5358 247.248V297.477ZM122.998 298.625H71.9662C71.6512 298.625 71.3965 298.369 71.3965 298.051V246.671C71.3965 246.354 71.6512 246.097 71.9662 246.097C100.42 246.097 123.567 269.403 123.567 298.051C123.567 298.369 123.312 298.625 122.998 298.625Z" fill="white"/>
<path d="M115.948 304.662C113.079 324.063 97.8046 339.443 78.5352 342.326V304.662H115.948Z" fill="#808285"/>
<path d="M79.1067 305.235V341.657C97.5115 338.61 112.253 323.77 115.284 305.235H79.1067ZM78.537 342.901C78.4012 342.901 78.2685 342.851 78.165 342.761C78.0397 342.651 77.9668 342.493 77.9668 342.326V304.662C77.9668 304.344 78.222 304.088 78.537 304.088H115.95C116.116 304.088 116.274 304.161 116.381 304.288C116.489 304.412 116.537 304.581 116.512 304.745C113.622 324.301 98.04 339.988 78.6205 342.893C78.5925 342.898 78.565 342.901 78.537 342.901Z" fill="white"/>
<path d="M71.9657 349.426V298.051H20.9414C20.9414 326.423 43.7851 349.426 71.9657 349.426Z" fill="#FF8C99"/>
<path d="M21.5158 298.625C21.8198 326.182 44.028 348.543 71.3974 348.849V298.625H21.5158ZM71.9671 350C43.518 350 20.373 326.695 20.373 298.051C20.373 297.733 20.628 297.477 20.9428 297.477H71.9671C72.2826 297.477 72.5368 297.733 72.5368 298.051V349.426C72.5368 349.743 72.2826 350 71.9671 350Z" fill="white"/>
<path d="M65.4504 291.49V240.113C57.4339 240.113 49.8511 241.979 43.0986 245.298C38.9365 247.345 35.091 249.95 31.6566 253.01C29.0492 255.334 26.6712 257.913 24.5792 260.726C22.7855 263.138 21.205 265.723 19.8497 268.436C18.619 270.904 17.5685 273.479 16.7385 276.151C15.9642 278.645 15.375 281.225 14.9814 283.866C14.6175 286.354 14.4238 288.9 14.4238 291.49H65.4504Z" fill="white"/>
<path d="M14.9987 290.916H64.8824V240.689C57.3419 240.772 50.1005 242.495 43.3507 245.813C39.2668 247.823 35.4598 250.388 32.0355 253.438C29.4297 255.763 27.0749 258.33 25.0372 261.069C23.2842 263.427 21.711 265.991 20.3602 268.693C19.1171 271.186 18.0821 273.752 17.284 276.322C16.5186 278.787 15.9332 281.354 15.5461 283.95C15.2088 286.26 15.024 288.601 14.9987 290.916ZM65.452 292.063H14.4254C14.1106 292.063 13.8555 291.807 13.8555 291.489C13.8555 288.933 14.0446 286.339 14.4188 283.781C14.8148 281.125 15.4136 278.502 16.1957 275.98C17.0125 273.35 18.0719 270.726 19.3418 268.178C20.7226 265.415 22.332 262.792 24.1245 260.381C26.2088 257.58 28.6159 254.955 31.2814 252.58C34.7808 249.461 38.6733 246.836 42.8502 244.782C49.9283 241.303 57.5321 239.539 65.452 239.539C65.767 239.539 66.0217 239.796 66.0217 240.113V291.489C66.0217 291.807 65.767 292.063 65.452 292.063Z" fill="#231F20"/>
<path d="M307.462 29.4475H296.303V43.4045H307.462V29.4475Z" fill="#F1F2F2"/>
<path d="M296.874 42.8311H306.894V30.0212H296.874V42.8311ZM307.463 43.9788H296.304C295.989 43.9788 295.734 43.7218 295.734 43.4047V29.4476C295.734 29.1305 295.989 28.8741 296.304 28.8741H307.463C307.778 28.8741 308.033 29.1305 308.033 29.4476V43.4047C308.033 43.7218 307.778 43.9788 307.463 43.9788Z" fill="white"/>
<path d="M328.923 14.239H317.764V43.4045H328.923V14.239Z" fill="#808285"/>
<path d="M318.333 42.8311H328.353V14.8127H318.333V42.8311ZM328.922 43.9788H317.763C317.448 43.9788 317.193 43.7218 317.193 43.4047V14.2392C317.193 13.9221 317.448 13.6656 317.763 13.6656H328.922C329.237 13.6656 329.492 13.9221 329.492 14.2392V43.4047C329.492 43.7218 329.237 43.9788 328.922 43.9788Z" fill="white"/>
<path d="M350.385 20.4594H339.225V43.4045H350.385V20.4594Z" fill="#A3F7B5"/>
<path d="M339.794 42.8311H349.814V21.0336H339.794V42.8311ZM350.384 43.9788H339.224C338.908 43.9788 338.654 43.7218 338.654 43.4047V20.4595C338.654 20.143 338.908 19.886 339.224 19.886H350.384C350.699 19.886 350.954 20.143 350.954 20.4595V43.4047C350.954 43.7218 350.699 43.9788 350.384 43.9788Z" fill="white"/>
<path d="M8.80859 317.988H60.4693V309.956H8.80859V317.988Z" fill="white"/>
<path d="M9.37757 317.414H59.8989V310.53H9.37757V317.414ZM60.4686 318.561H8.80785C8.49305 318.561 8.23828 318.304 8.23828 317.987V309.956C8.23828 309.639 8.49305 309.383 8.80785 309.383H60.4686C60.7836 309.383 61.0388 309.639 61.0388 309.956V317.987C61.0388 318.304 60.7836 318.561 60.4686 318.561Z" fill="white"/>
<path d="M21.1328 336.537H60.4683V328.506H21.1328V336.537Z" fill="white"/>
<path d="M21.7035 335.964H59.8996V329.079H21.7035V335.964ZM60.4693 337.111H21.1338C20.819 337.111 20.5645 336.855 20.5645 336.537V328.506C20.5645 328.189 20.819 327.933 21.1338 327.933H60.4693C60.7843 327.933 61.0395 328.189 61.0395 328.506V336.537C61.0395 336.855 60.7843 337.111 60.4693 337.111Z" fill="white"/>
<path d="M164.936 320.186C164.936 328.477 158.262 335.197 150.026 335.197C141.794 335.197 135.119 328.477 135.119 320.186C135.119 311.896 141.794 305.176 150.026 305.176C158.262 305.176 164.936 311.896 164.936 320.186Z" fill="#FF8C99"/>
<path d="M150.028 305.75C142.122 305.75 135.691 312.225 135.691 320.186C135.691 328.146 142.122 334.623 150.028 334.623C157.935 334.623 164.368 328.146 164.368 320.186C164.368 312.225 157.935 305.75 150.028 305.75ZM150.028 335.771C141.494 335.771 134.551 328.779 134.551 320.186C134.551 311.593 141.494 304.602 150.028 304.602C158.563 304.602 165.507 311.593 165.507 320.186C165.507 328.779 158.563 335.771 150.028 335.771Z" fill="white"/>
<path d="M164.936 276.005C164.936 284.295 158.262 291.016 150.026 291.016C141.794 291.016 135.119 284.295 135.119 276.005C135.119 267.714 141.794 260.994 150.026 260.994C158.262 260.994 164.936 267.714 164.936 276.005Z" fill="#FFF08A"/>
<path d="M150.028 261.568C142.122 261.568 135.691 268.045 135.691 276.005C135.691 283.966 142.122 290.442 150.028 290.442C157.935 290.442 164.368 283.966 164.368 276.005C164.368 268.045 157.935 261.568 150.028 261.568ZM150.028 291.589C141.494 291.589 134.551 284.599 134.551 276.005C134.551 267.412 141.494 260.42 150.028 260.42C158.563 260.42 165.507 267.412 165.507 276.005C165.507 284.599 158.563 291.589 150.028 291.589Z" fill="white"/>
<path d="M156.89 327.668C156.745 327.668 156.599 327.612 156.488 327.5L142.766 313.685C142.544 313.461 142.544 313.098 142.766 312.874C142.989 312.649 143.35 312.649 143.572 312.874L157.294 326.688C157.516 326.912 157.516 327.276 157.294 327.5C157.182 327.612 157.036 327.668 156.89 327.668Z" fill="white"/>
<path d="M143.167 327.668C143.021 327.668 142.876 327.612 142.765 327.5C142.542 327.276 142.542 326.912 142.765 326.688L156.488 312.874C156.71 312.649 157.071 312.649 157.294 312.874C157.516 313.098 157.516 313.461 157.294 313.685L143.57 327.5C143.459 327.612 143.313 327.668 143.167 327.668Z" fill="white"/>
<path d="M148.264 283.508C148.113 283.508 147.968 283.447 147.861 283.34L140.862 276.292C140.64 276.069 140.64 275.705 140.862 275.481C141.085 275.257 141.446 275.257 141.668 275.481L148.264 282.122L159.636 270.672C159.859 270.448 160.219 270.448 160.442 270.672C160.665 270.897 160.665 271.259 160.442 271.484L148.666 283.34C148.56 283.447 148.415 283.508 148.264 283.508Z" fill="white"/>
<path d="M357.19 166.739L346.635 185.145L336.08 166.739H357.19Z" fill="#A3F7B5"/>
<path d="M337.067 167.312L346.634 183.998L356.201 167.312H337.067ZM346.634 185.719C346.43 185.719 346.243 185.609 346.141 185.432L335.587 167.026C335.484 166.848 335.484 166.629 335.587 166.452C335.688 166.275 335.876 166.165 336.079 166.165H357.189C357.392 166.165 357.58 166.275 357.681 166.452C357.784 166.629 357.784 166.848 357.681 167.026L347.128 185.432C347.026 185.609 346.838 185.719 346.634 185.719Z" fill="white"/>
<path d="M357.19 194.769L346.635 213.177L336.08 194.769H357.19Z" fill="#A3F7B5"/>
<path d="M337.067 195.343L346.634 212.03L356.201 195.343H337.067ZM346.634 213.751C346.43 213.751 346.243 213.641 346.141 213.464L335.587 195.056C335.484 194.879 335.484 194.66 335.587 194.482C335.688 194.305 335.876 194.196 336.079 194.196H357.189C357.392 194.196 357.58 194.305 357.681 194.482C357.784 194.66 357.784 194.879 357.681 195.056L347.128 213.464C347.026 213.641 346.838 213.751 346.634 213.751Z" fill="white"/>
<path d="M85.1792 46.0632H56.431C56.116 46.0632 55.8613 45.8068 55.8613 45.4897C55.8613 45.1726 56.116 44.9161 56.431 44.9161H85.1792C85.4942 44.9161 85.7489 45.1726 85.7489 45.4897C85.7489 45.8068 85.4942 46.0632 85.1792 46.0632Z" fill="white"/>
<path d="M66.5226 72.9465H44.1126C43.7982 72.9465 43.543 72.6896 43.543 72.373C43.543 72.0559 43.7982 71.7989 44.1126 71.7989H66.5226C66.8371 71.7989 67.0923 72.0559 67.0923 72.373C67.0923 72.6896 66.8371 72.9465 66.5226 72.9465Z" fill="white"/>
<path d="M37.6065 72.9465H24.8104C24.4956 72.9465 24.2402 72.6896 24.2402 72.373C24.2402 72.0559 24.4956 71.7989 24.8104 71.7989H37.6065C37.9215 71.7989 38.1762 72.0559 38.1762 72.373C38.1762 72.6896 37.9215 72.9465 37.6065 72.9465Z" fill="white"/>
<path d="M83.3279 99.832H31.6693C31.3543 99.832 31.0996 99.5756 31.0996 99.2585C31.0996 98.9414 31.3543 98.6849 31.6693 98.6849H83.3279C83.6429 98.6849 83.8981 98.9414 83.8981 99.2585C83.8981 99.5756 83.6429 99.832 83.3279 99.832Z" fill="white"/>
<path d="M100.612 126.715H73.5228C73.2078 126.715 72.9531 126.458 72.9531 126.141C72.9531 125.825 73.2078 125.568 73.5228 125.568H100.612C100.927 125.568 101.182 125.825 101.182 126.141C101.182 126.458 100.927 126.715 100.612 126.715Z" fill="white"/>
<path d="M92.0931 153.601H49.8763C49.5614 153.601 49.3066 153.344 49.3066 153.027C49.3066 152.71 49.5614 152.453 49.8763 152.453H92.0931C92.4081 152.453 92.6628 152.71 92.6628 153.027C92.6628 153.344 92.4081 153.601 92.0931 153.601Z" fill="white"/>
<path d="M74.2624 180.484H55.912C55.597 180.484 55.3418 180.227 55.3418 179.91C55.3418 179.593 55.597 179.337 55.912 179.337H74.2624C74.5769 179.337 74.8316 179.593 74.8316 179.91C74.8316 180.227 74.5769 180.484 74.2624 180.484Z" fill="white"/>
<path d="M49.8789 180.484H17.857C17.5418 180.484 17.2871 180.227 17.2871 179.91C17.2871 179.593 17.5418 179.337 17.857 179.337H49.8789C50.1938 179.337 50.449 179.593 50.449 179.91C50.449 180.227 50.1938 180.484 49.8789 180.484Z" fill="white"/>
<path d="M87.0092 207.369H68.9901C68.6746 207.369 68.4199 207.112 68.4199 206.796C68.4199 206.479 68.6746 206.222 68.9901 206.222H87.0092C87.3247 206.222 87.5794 206.479 87.5794 206.796C87.5794 207.112 87.3247 207.369 87.0092 207.369Z" fill="white"/>
<path d="M62.7248 207.369H55.912C55.597 207.369 55.3418 207.112 55.3418 206.796C55.3418 206.479 55.597 206.222 55.912 206.222H62.7248C63.0397 206.222 63.2944 206.479 63.2944 206.796C63.2944 207.112 63.0397 207.369 62.7248 207.369Z" fill="white"/>
</svg>
