<svg width="337" height="354" viewBox="0 0 337 354" fill="none" xmlns="http://www.w3.org/2000/svg">
<path d="M320.299 339.612C320.299 347.559 248.718 354 160.417 354C72.1168 354 0.535156 347.559 0.535156 339.612C0.535156 331.665 72.1168 325.223 160.417 325.223C248.718 325.223 320.299 331.665 320.299 339.612Z" fill="#85C268"/>
<path d="M336.805 247.275C336.898 247.098 336.927 246.882 336.846 246.645C332.925 235.077 328.23 223.78 322.798 212.839C322.656 212.553 322.414 212.416 322.163 212.391C321.935 212.03 321.462 211.832 321.041 212.184C312.226 219.556 301.138 223.329 289.999 225.512C287.173 226.065 284.329 226.523 281.477 226.919C278.335 227.356 275.171 227.665 272.048 228.224C266.474 229.223 261.173 231.271 256.387 234.298C251.156 237.607 246.643 242.051 243.288 247.249C243.08 247.571 243.128 247.91 243.298 248.162C243.301 248.245 243.317 248.332 243.348 248.422C247.485 260.162 252.12 271.724 257.238 283.072C257.435 283.507 257.985 283.699 258.393 283.441C258.679 283.557 259.011 283.506 259.232 283.163C265.284 273.788 275.098 267.068 286.068 264.908C289.225 264.286 292.433 263.971 295.62 263.541C298.429 263.162 301.231 262.725 304.016 262.199C309.549 261.156 315.041 259.763 320.309 257.759C326.219 255.511 331.834 252.453 336.692 248.39C337.081 248.065 337.041 247.591 336.805 247.275Z" fill="#016322"/>
<path d="M330.852 245.523C331.092 245.32 331.218 244.993 331.056 244.617C327.615 236.615 324.392 228.518 321.393 220.337C321.181 219.757 320.582 219.731 320.186 220.004C319.956 219.958 319.717 220.004 319.535 220.168C319.406 220.208 319.281 220.281 319.169 220.395C310.968 228.683 298.383 228.93 287.703 231.068C286.311 231.347 284.924 231.666 283.552 232.033C275.975 232.964 268.445 234.337 261.576 237.906C256.804 240.383 252.562 243.881 249.772 248.542C249.663 248.724 249.629 248.912 249.649 249.087C249.504 249.289 249.442 249.552 249.545 249.849C252.369 257.951 255.503 265.939 258.943 273.796C259.157 274.283 259.646 274.366 260.027 274.204C260.351 274.442 260.799 274.458 261.067 274.01C266.232 265.378 276.043 261.324 285.458 259.391C295.729 257.281 306.353 257.487 316.505 254.681C319.347 253.895 322.164 252.91 324.791 251.552C327.355 250.227 329.816 248.394 330.835 245.578C330.842 245.56 330.847 245.541 330.852 245.523Z" fill="#62C966"/>
<path d="M295.59 240.82C294.895 238.399 292.638 236.504 290.172 235.618C288.718 235.096 287.345 235.117 286.099 235.518C285.315 235.575 284.524 235.822 283.849 236.143C282.304 236.88 281.037 238.108 280.254 239.628C279.638 240.824 279.422 242.15 279.552 243.441C279.518 244.151 279.581 244.875 279.758 245.599C280.92 250.345 285.802 253.31 290.504 251.742C295.058 250.223 297.374 245.14 295.59 240.82Z" fill="#016322"/>
<path d="M290.051 249.181C289.955 248.69 289.859 248.2 289.764 247.71C289.763 247.704 289.761 247.698 289.76 247.693C289.997 247.584 290.221 247.445 290.425 247.265C291.336 246.462 291.435 245.087 290.813 244.081C290.08 242.891 288.855 242.891 287.604 242.998C286.935 243.057 286.181 242.888 286.111 242.08C286.045 241.3 286.863 240.974 287.504 241.121C288.502 241.347 288.687 239.766 287.693 239.539C287.462 239.487 287.227 239.47 286.993 239.483C286.896 239.173 286.798 238.862 286.7 238.553C286.574 238.154 286.022 237.955 285.657 238.127C285.237 238.324 285.096 238.744 285.23 239.169C285.321 239.458 285.413 239.746 285.504 240.035C285.16 240.297 284.877 240.639 284.704 241.047C284.218 242.182 284.725 243.571 285.752 244.219C286.273 244.548 286.859 244.626 287.464 244.603C288.065 244.579 288.914 244.287 289.378 244.799C289.793 245.258 289.668 245.95 289.137 246.233C288.584 246.528 287.862 246.428 287.27 246.34C286.255 246.189 286.064 247.769 287.079 247.921C287.443 247.975 287.822 248.01 288.2 248.006C288.291 248.471 288.382 248.937 288.473 249.404C288.552 249.812 288.936 250.162 289.374 250.08C289.78 250.004 290.136 249.618 290.051 249.181Z" fill="#62C966"/>
<path d="M262.716 241.884C258.872 243.434 255.484 245.911 252.827 249.087C252.169 249.876 253.433 250.844 254.09 250.06C256.573 247.09 259.741 244.799 263.333 243.351C264.286 242.967 263.668 241.5 262.716 241.884Z" fill="#016322"/>
<path d="M324.137 243.451C317.621 250.103 307.979 251.784 299.141 252.966C294.225 253.624 289.304 254.241 284.388 254.908C280.175 255.478 275.919 256.168 271.943 257.73C267.179 259.601 263.302 262.863 260.286 266.96C259.679 267.785 260.94 268.759 261.549 267.932C264.298 264.196 267.765 261.178 272.079 259.391C276.063 257.74 280.362 257.06 284.612 256.483C289.527 255.817 294.448 255.2 299.364 254.542C304.004 253.921 308.657 253.202 313.117 251.738C317.703 250.233 322.006 247.887 325.4 244.423C326.117 243.691 324.847 242.727 324.137 243.451Z" fill="#016322"/>
<path d="M320.942 241.613C319.025 243.155 316.925 244.402 314.652 245.344C313.703 245.738 314.319 247.204 315.269 246.812C317.66 245.821 319.895 244.499 321.912 242.877C322.712 242.234 321.742 240.97 320.942 241.613Z" fill="#016322"/>
<path d="M316.065 225.155C314.742 226.355 313.335 227.446 311.844 228.43C310.986 228.996 311.962 230.256 312.814 229.694C314.306 228.71 315.712 227.618 317.035 226.418C317.791 225.734 316.825 224.467 316.065 225.155Z" fill="#016322"/>
<path d="M315.921 228.747C315.148 229.68 314.178 230.357 313.048 230.788C312.087 231.153 312.706 232.62 313.664 232.255C315.048 231.728 316.24 230.858 317.183 229.72C317.839 228.928 316.574 227.959 315.921 228.747Z" fill="#016322"/>
<path d="M97.0475 41.0752C97.1053 40.8978 97.0968 40.6959 96.9863 40.4906C91.585 30.4998 85.5168 20.8772 78.8292 11.695C78.6541 11.4549 78.4111 11.3666 78.1766 11.3836C77.9107 11.0884 77.4468 10.9806 77.1162 11.3683C70.189 19.4977 60.6159 24.6832 50.7472 28.4195C48.2441 29.3672 45.7087 30.23 43.1572 31.0377C40.3448 31.9268 37.4942 32.7023 34.7184 33.7017C29.7663 35.4859 25.2276 38.1889 21.3146 41.7081C17.0371 45.5556 13.5949 50.3329 11.3318 55.6193C11.1917 55.9468 11.289 56.2497 11.4844 56.4533C11.4997 56.5297 11.5279 56.6069 11.5711 56.6849C17.1967 66.8004 23.2512 76.675 29.7155 86.278C29.9638 86.6462 30.4978 86.737 30.8311 86.4367C31.1105 86.4986 31.4072 86.4002 31.5566 86.0515C35.6386 76.5163 43.5837 68.8272 53.3004 65.1392C56.0966 64.0779 58.988 63.2897 61.8411 62.3989C64.357 61.6141 66.8567 60.7767 69.3275 59.8613C74.2359 58.0423 79.0518 55.9112 83.5668 53.254C88.6308 50.2727 93.2997 46.594 97.118 42.1136C97.423 41.7556 97.3126 41.328 97.0475 41.0752Z" fill="#016322"/>
<path d="M91.3208 40.3964C91.5077 40.1716 91.5723 39.8534 91.365 39.5336C86.9612 32.7353 82.7427 25.8166 78.7162 18.785C78.4307 18.287 77.8775 18.3566 77.5572 18.6688C77.3397 18.662 77.1265 18.7418 76.9863 18.92C76.8741 18.9776 76.7704 19.0633 76.6855 19.1846C70.4643 28.0598 58.9684 30.2461 49.5143 33.8697C48.2815 34.3422 47.0614 34.8495 45.8608 35.4002C39.061 37.4338 32.3751 39.8653 26.6359 44.2057C22.6498 47.2201 19.3079 51.0871 17.4798 55.7932C17.4088 55.9782 17.4072 56.1546 17.4516 56.3124C17.3501 56.5194 17.3355 56.7714 17.4765 57.0268C21.3302 64.0134 25.4514 70.8456 29.8311 77.5098C30.1032 77.9238 30.5643 77.9229 30.8882 77.7151C31.2228 77.8831 31.6356 77.8279 31.8108 77.3757C35.1959 68.6592 43.5557 63.4161 51.8823 60.1769C60.966 56.6433 70.7353 55.1773 79.6015 51.0243C82.0833 49.8612 84.5108 48.5199 86.7063 46.8663C88.85 45.2518 90.8187 43.1876 91.3132 40.449C91.3166 40.4312 91.3183 40.4134 91.3208 40.3964Z" fill="#62C966"/>
<path d="M58.2646 41.5787C57.2492 39.4679 54.8847 38.0824 52.4861 37.6548C51.0722 37.4037 49.8173 37.6362 48.7374 38.197C48.0279 38.3717 47.3423 38.7213 46.7738 39.1217C45.4722 40.038 44.5027 41.3598 44.0227 42.8759C43.6446 44.067 43.6539 45.3167 43.9742 46.4799C44.0549 47.1357 44.2249 47.789 44.501 48.4253C46.3074 52.5935 51.2447 54.5508 55.3095 52.3814C59.2468 50.2799 60.5748 45.2607 58.2646 41.5787Z" fill="#016322"/>
<path d="M54.5 50.1037C54.336 49.6693 54.1721 49.2357 54.0072 48.8014C54.0055 48.7963 54.003 48.7903 54.0004 48.7852C54.201 48.6486 54.3845 48.4866 54.5442 48.2889C55.2528 47.4125 55.1279 46.1365 54.4023 45.311C53.5442 44.3354 52.4209 44.5254 51.2917 44.8189C50.6868 44.9768 49.9697 44.9386 49.7802 44.2098C49.5975 43.5048 50.2959 43.0789 50.906 43.1128C51.8559 43.1663 51.7786 41.6883 50.8329 41.6349C50.6137 41.623 50.3945 41.6434 50.1829 41.6926C50.0444 41.4228 49.9059 41.1539 49.7683 40.8849C49.5907 40.5396 49.0537 40.4429 48.7453 40.6576C48.391 40.9036 48.3281 41.3091 48.5176 41.6782C48.6467 41.9293 48.775 42.1796 48.9033 42.4307C48.6289 42.7234 48.4233 43.0814 48.3281 43.4819C48.0596 44.5984 48.7428 45.7921 49.7853 46.2256C50.3138 46.4462 50.8627 46.4275 51.4141 46.3104C51.9604 46.1959 52.6937 45.7955 53.1984 46.1934C53.6504 46.5497 53.6444 47.203 53.2018 47.5449C52.7412 47.9012 52.0632 47.9224 51.5067 47.9343C50.5542 47.9529 50.6256 49.4317 51.5798 49.4122C51.9222 49.4054 52.2748 49.3774 52.6197 49.3146C52.7761 49.7278 52.9324 50.141 53.0888 50.5542C53.2255 50.9156 53.6308 51.1769 54.02 51.0335C54.3811 50.9011 54.647 50.4905 54.5 50.1037Z" fill="#62C966"/>
<path d="M28.3037 47.6749C25.0223 49.6949 22.3043 52.4921 20.3661 55.8178C19.8851 56.6425 21.1958 57.3339 21.6743 56.5127C23.4868 53.4033 26.0322 50.8106 29.0982 48.9237C29.9114 48.4232 29.1165 47.1743 28.3037 47.6749Z" fill="#016322"/>
<path d="M84.8434 39.5428C79.9094 46.6549 71.3356 49.6973 63.4202 52.1585C59.0172 53.527 54.6024 54.859 50.2021 56.2351C46.4296 57.4144 42.6367 58.7099 39.2364 60.7605C35.1623 63.2175 32.1191 66.8104 29.9949 71.0363C29.5671 71.8873 30.8758 72.583 31.3039 71.7312C33.2404 67.8777 35.9457 64.5723 39.6204 62.2621C43.0148 60.1293 46.8476 58.8346 50.6532 57.6443C55.0536 56.2682 59.4684 54.9362 63.8713 53.5677C68.0261 52.2765 72.1784 50.891 76.0367 48.8548C80.0046 46.761 83.5825 43.9409 86.1519 40.2376C86.6948 39.4545 85.3795 38.769 84.8434 39.5428Z" fill="#016322"/>
<path d="M81.6259 38.3569C80.1093 40.069 78.3802 41.5376 76.443 42.7559C75.635 43.2641 76.4294 44.5129 77.2374 44.0056C79.2749 42.7237 81.1161 41.1643 82.7118 39.364C83.3439 38.6505 82.2589 37.6426 81.6259 38.3569Z" fill="#016322"/>
<path d="M74.5834 24.0314C73.5579 25.3379 72.4398 26.5571 71.2264 27.6914C70.528 28.343 71.6198 29.3458 72.3123 28.6976C73.5256 27.5642 74.6446 26.345 75.6693 25.0393C76.2547 24.2936 75.1722 23.2823 74.5834 24.0314Z" fill="#016322"/>
<path d="M75.0146 27.3467C74.4521 28.3215 73.6696 29.0927 72.7001 29.6637C71.8768 30.1489 72.6738 31.3969 73.4946 30.9125C74.6815 30.2143 75.6366 29.2318 76.3239 28.0406C76.8006 27.2143 75.4896 26.5229 75.0146 27.3467Z" fill="#016322"/>
<path d="M62.4422 89.8282L80.3665 138.225L32.5605 118.625C21.7197 144.988 34.3339 175.136 60.7369 185.962C87.1392 196.787 117.332 184.19 128.173 157.827C139.014 131.463 126.399 101.316 99.9962 90.49C87.5096 85.3699 74.1768 85.4921 62.4422 89.8282Z" fill="#62C966"/>
<path d="M56.4579 83.9824C43.3808 88.8158 32.2904 98.8837 26.5762 112.779L74.3823 132.38L56.4579 83.9824Z" fill="#E698B5"/>
<path d="M171.05 16.1252C172.039 16.8209 173.244 17.2069 174.344 17.7397C174.806 17.9637 175.277 18.2233 175.602 18.5915C176.097 19.1523 175.954 19.7895 175.792 20.3995C175.519 21.4277 175.47 22.3754 176.013 23.3901C176.47 24.2436 177.17 24.9791 177.908 25.6757C179.352 27.0374 181.761 28.6646 181.606 30.649C181.564 31.1793 182.292 31.4431 182.672 31.2327C182.963 31.3133 183.284 31.304 183.556 31.2073C183.624 31.1835 183.687 31.1555 183.747 31.1241C183.858 31.0995 183.963 31.0384 184.047 30.9264C185.871 28.517 187.377 25.7588 187.935 22.8632C188.36 20.6548 188.057 18.0256 185.686 16.5121C184.474 15.7383 183.095 15.2844 182.269 14.1425C181.589 13.2042 181.286 12.1029 180.924 11.0696C180.562 10.0413 180.152 8.9842 179.377 8.10186C178.463 7.06087 177.003 6.62056 176.024 5.65677C174.224 3.88701 173.931 1.10168 171.178 0.056448C170.846 -0.0699635 170.473 0.0191422 170.318 0.292328C168.709 3.1489 168.636 6.41864 168.618 9.59845C168.605 11.8281 168.773 14.5234 171.05 16.1252Z" fill="#E698B5"/>
<path d="M187.659 36.5199C186.236 37.3301 185.467 38.8318 183.888 39.4588C183.155 39.7489 183.628 40.8027 184.37 40.5083C184.402 40.4955 184.432 40.4803 184.465 40.4675C184.519 40.6584 184.682 40.8323 184.973 40.8926C186.332 41.1751 187.19 42.3764 188.257 43.078C189.572 43.9434 190.934 43.9859 192.323 43.3911C193.023 43.0925 193.692 42.6861 194.494 42.586C195.419 42.4698 196.377 42.6488 197.311 42.6182C199.01 42.5622 200.352 41.735 201.35 40.6618C202.582 39.3383 203.286 37.6313 204.879 36.5708C205.319 36.279 205.156 35.697 204.591 35.5672C203.288 35.266 201.986 34.9656 200.684 34.6661C199.615 34.4193 198.538 34.1257 197.444 34.0146C196.536 33.9221 195.6 33.9323 194.785 34.2649C194.371 34.4345 194.026 34.6729 193.739 34.975C193.426 35.3033 193.219 35.6868 192.734 35.8565C191.957 36.1296 190.96 35.9345 190.127 35.9303C189.226 35.9269 188.391 36.1025 187.659 36.5199Z" fill="#E698B5"/>
<path d="M174.588 30.6457C173.974 29.4698 172.885 28.5951 172.111 27.5066C171.33 26.4096 171.457 25.2049 171.526 24.0163C171.591 22.8955 171.585 21.7494 170.896 20.7126C170.527 20.1569 169.989 19.7149 169.5 19.2355C168.962 18.7061 168.597 18.1555 168.377 17.4929C168.133 16.7565 168.024 15.998 167.814 15.2565C167.606 14.5243 167.356 13.799 167.054 13.0855C166.42 11.5838 165.563 10.1441 164.54 8.79002C164.321 8.49987 163.741 8.44215 163.51 8.71873C161.527 11.0875 159.738 13.6301 158.391 16.3272C157.284 18.5432 156.57 21.1631 158.152 23.4869C158.83 24.4838 159.898 25.3271 160.373 26.4113C160.94 27.7068 159.906 28.8233 159.35 29.9178C158.781 31.0385 158.725 32.1889 159.459 33.3309C160.152 34.4075 161.263 35.2211 162.19 36.1484C164.496 38.4595 165.911 41.3033 166.248 44.2405C166.29 44.6053 166.75 44.8344 167.136 44.7334C167.49 44.6409 167.806 44.4925 168.078 44.3041C168.279 44.3457 168.499 44.3109 168.674 44.1582C170.913 42.2035 173.24 40.1665 174.473 37.5788C175.485 35.4528 175.756 32.8821 174.588 30.6457Z" fill="#E698B5"/>
<path d="M211.887 45.2987C209.31 43.8785 206.235 43.2184 203.27 43.3728C201.796 43.4483 200.335 43.7249 199 44.2085C197.683 44.6861 196.347 45.7568 194.806 45.6508C193.997 45.5956 193.222 45.2834 192.425 45.1519C191.762 45.0433 191.103 45.0467 190.471 45.2036C189.317 45.4921 188.44 46.22 187.531 46.8326C186.478 47.5427 185.463 47.9813 184.035 47.6352C182.504 47.2644 181.173 46.5594 179.565 46.4746C176.461 46.3108 173.444 47.8736 172.382 50.3043C172.312 50.4663 172.333 50.6199 172.408 50.7488C172.388 50.7726 172.368 50.7972 172.352 50.8243C171.622 52.0019 172.421 53.4578 173.611 54.2934C174.368 54.8245 175.27 55.1648 176.128 55.5474C176.956 55.9156 177.653 56.3703 178.339 56.9108C179.567 57.8779 180.832 58.9181 182.563 58.9758C184.2 59.0309 185.499 58.1579 187.004 57.8279C188.707 57.4537 190.535 58.0731 192.267 58.1995C193.904 58.3191 195.308 57.9611 196.467 57.0346C197.549 56.1709 198.26 55.0298 199.326 54.1551C200.569 53.1345 202.342 53.0149 203.9 52.4855C207.459 51.2765 209.885 48.6609 212.129 46.1615C212.397 45.862 212.258 45.5023 211.887 45.2987Z" fill="#E698B5"/>
<path d="M81.4254 194.983C79.6437 198.178 79.0124 201.954 79.5434 205.567C79.8077 207.363 80.3582 209.136 81.196 210.748C82.0244 212.338 83.7084 213.93 83.7169 215.814C83.7212 216.804 83.3507 217.761 83.2445 218.74C83.1562 219.552 83.2301 220.356 83.5232 221.12C84.0602 222.52 85.2021 223.563 86.1826 224.651C87.3178 225.911 88.0561 227.134 87.7061 228.889C87.3297 230.77 86.4503 232.419 86.4962 234.385C86.5837 238.178 89.1547 241.803 92.7743 243.013C93.0164 243.094 93.2356 243.063 93.4149 242.966C93.4506 242.99 93.488 243.013 93.5296 243.033C95.3063 243.881 97.325 242.854 98.4067 241.372C99.0949 240.429 99.4925 239.316 99.9547 238.255C100.401 237.232 100.985 236.365 101.694 235.508C102.963 233.975 104.331 232.395 104.234 230.28C104.143 228.28 102.748 226.727 102.113 224.902C101.395 222.837 102.1 220.584 102.102 218.466C102.104 216.463 101.439 214.763 99.9811 213.38C98.6208 212.092 96.8994 211.265 95.5246 209.995C93.9222 208.516 93.5645 206.356 92.6375 204.472C90.521 200.173 86.4902 197.306 82.6464 194.657C82.1859 194.339 81.682 194.523 81.4254 194.983Z" fill="#E698B5"/>
<path d="M209.547 217.974C209.547 244.498 188.014 265.999 161.452 265.999C134.89 265.999 113.357 244.498 113.357 217.974C113.357 191.452 134.89 169.951 161.452 169.951C188.014 169.951 209.547 191.452 209.547 217.974Z" fill="#85C268"/>
<path d="M175.406 181.281C174.092 180.018 172.411 179.253 170.721 178.63C168.67 177.875 166.563 177.184 164.424 176.731C160.198 175.835 155.87 176.236 151.758 177.491C143.357 180.054 135.761 185.471 130.149 192.187C129.815 191.856 129.195 191.78 128.878 192.303C125.4 198.007 123.68 204.684 123.981 211.358C123.997 211.72 124.219 212.015 124.566 212.125C126.091 212.606 127.5 211.668 128.309 210.412C129.197 209.033 129.083 207.332 129.695 205.856C129.946 205.247 130.358 204.768 130.989 204.536C131.703 204.275 132.252 204.478 132.376 205.27C132.514 206.144 132.348 207.178 132.294 208.058C132.234 209.029 132.139 210 131.939 210.954C131.579 212.666 130.664 214.136 130.194 215.802C129.748 217.38 130.008 218.971 130.701 220.433C131.416 221.942 132.548 223.237 133.675 224.453C135.021 225.904 136.383 227.34 137.737 228.784C140.576 231.81 143.306 235.152 146.825 237.424C147.602 237.926 148.402 236.815 147.791 236.175C146.533 234.857 145.912 233.077 145.972 231.265C146.04 229.196 147.088 227.742 148.406 226.241C149.71 224.755 150.613 223.17 150.77 221.166C150.913 219.318 150.368 217.419 149.242 215.948C148.874 215.468 148.223 215.41 147.866 215.948C146.885 217.423 145.907 218.901 144.923 220.375C144.558 220.923 144.186 221.47 143.485 221.043C142.942 220.712 142.557 220.141 142.248 219.585C142.992 214.95 144.439 210.465 146.572 206.28C147.335 206.273 147.595 207.478 147.594 208.114C147.594 209.153 147.368 210.225 147.736 211.23C148.257 212.657 150.099 213.883 151.453 212.675C152.652 211.607 152.077 209.911 151.789 208.584C151.434 206.956 151.802 204.886 153.699 204.517C155.469 204.174 157.275 204.862 158.997 204.102C159.749 203.769 160.317 203.196 160.881 202.616C161.571 201.904 162.204 201.485 163.164 201.243C164.7 200.856 166.41 200.509 166.964 198.794C167.494 197.154 166.501 195.59 166.541 193.96C166.584 192.185 168.489 191.464 169.966 191.152C171.664 190.792 173.425 190.783 174.993 189.95C178.381 188.152 177.855 183.64 175.406 181.281Z" fill="#016322"/>
<path d="M212.364 215.948C212.202 214.188 210.931 212.579 209.997 211.145C208.965 209.558 207.872 208.014 206.72 206.513C204.402 203.492 201.866 200.65 199.118 198.013C198.578 197.494 197.831 197.954 197.756 198.517C197.528 198.461 197.278 198.518 197.068 198.751C195.398 200.611 193.051 201.815 190.543 201.995C189.974 202.036 189.398 202.031 188.829 201.971C188.156 201.9 187.484 201.712 186.803 201.778C185.484 201.901 184.845 203 183.791 203.633C182.629 204.331 181.375 204.455 180.055 204.286C178.801 204.124 177.636 204.113 176.65 205.016C175.625 205.954 174.801 207.207 173.92 208.281C173.26 209.085 171.904 210.219 172.174 211.404C172.534 212.997 174.785 212.141 175.806 211.944C177.25 211.664 178.695 211.384 180.139 211.105C180.301 212.435 179.903 213.659 179.119 214.807C178.42 215.83 178.017 217.401 179.499 217.97C179.938 218.138 180.788 217.995 181.055 218.401C181.225 218.661 181.224 219.1 181.299 219.391C181.386 219.727 181.514 220.058 181.678 220.363C182.256 221.438 183.328 222.228 184.49 222.565C187.068 223.314 189.698 221.484 190.253 218.93C190.409 218.214 190.362 217.536 190.26 216.817C190.16 216.11 190.038 215.41 190.571 214.858C191.308 214.093 192.656 213.996 193.582 214.43C196.153 215.635 193.448 218.651 192.932 220.342C192.114 223.022 194.341 225.058 196.981 224.801C198.685 224.635 200.309 223.795 201.881 223.169C203.64 222.469 205.399 221.769 207.157 221.068C209.416 220.169 212.64 218.94 212.364 215.948Z" fill="#016322"/>
<path d="M157.19 214.892C156.374 214.532 155.537 214.357 154.643 214.467C154.584 214.474 154.525 214.487 154.468 214.504C154.326 214.513 154.183 214.523 154.04 214.533C153.466 214.574 153.01 215.187 153.352 215.731C154.205 217.085 156.244 217.345 157.351 216.142C157.664 215.803 157.684 215.109 157.19 214.892Z" fill="#016322"/>
<path d="M142.818 106.074L149.478 102.654C149.478 102.654 151.672 110.452 161.302 113.304C161.302 113.304 170.389 110.667 173.659 102.903L180.094 106.074C180.094 106.074 179.695 126.852 176.636 141.302C173.575 155.752 166.409 179.98 166.409 179.98L156.028 180.092C156.028 180.092 147.006 151.279 145.818 141.372C144.629 131.466 142.818 106.074 142.818 106.074Z" fill="#F7F6DD"/>
<path d="M242.917 205.697C238.676 195.113 225.921 145.328 216.254 131.409C206.585 117.489 180.091 106.075 180.091 106.075C180.091 106.075 178.818 127.143 178.48 130.062C178.143 132.98 174.546 153.186 174.546 153.186C174.067 151.66 172.184 149.144 170.723 147.461C169.262 145.777 164.046 138.929 164.046 138.929C170.858 136.684 172.859 128.881 172.859 128.881L164.54 112.987L161.299 113.305L158.366 112.987L150.047 128.881C150.047 128.881 152.048 136.684 158.86 138.929C158.86 138.929 153.644 145.777 152.183 147.461C150.721 149.144 148.839 151.66 148.36 153.186C148.36 153.186 144.763 132.98 144.426 130.062C144.089 127.143 142.815 106.075 142.815 106.075C142.815 106.075 116.321 117.489 106.653 131.409C96.9856 145.328 84.2298 195.113 79.99 205.697C75.7493 216.281 69.1781 240.203 79.99 248.882C90.8018 257.561 145.779 273.976 145.779 273.976C145.779 273.976 147.504 258.298 160.269 248.678C160.269 248.678 140.119 231.1 115.54 219.668C115.54 219.668 122.18 187.839 156.501 179.98H158.559H161.159H166.406C200.726 187.839 207.366 219.668 207.366 219.668C182.786 231.1 162.637 248.678 162.637 248.678C175.402 258.298 177.127 273.976 177.127 273.976C177.127 273.976 232.104 257.561 242.917 248.882C253.729 240.203 247.156 216.281 242.917 205.697Z" fill="#278854"/>
<path d="M198.248 348.176C198.248 348.176 57.0943 347.105 43.9501 344.142C30.8057 341.178 12.9978 327.728 12.5739 303.547C12.1501 279.366 29.6271 254.893 83.2229 263.052C83.2229 263.052 107.4 271.472 111.614 273.298L110.263 259.167L163.966 265.817L198.248 348.176Z" fill="#278854"/>
<path d="M122.588 348.176C122.588 348.176 263.741 347.105 276.885 344.142C290.03 341.178 307.838 327.728 308.262 303.547C308.686 279.366 291.208 254.893 237.613 263.052C237.613 263.052 213.436 271.472 209.221 273.298L210.573 259.167L156.87 265.817L122.588 348.176Z" fill="#278854"/>
<path d="M196.64 264.516C196.194 263.766 195.359 263.377 194.562 263.114C192.539 262.449 190.299 262.719 188.231 262.982C186.417 263.215 184.622 263.551 182.848 263.989C183.276 262.832 183.11 261.505 182.522 260.361C181.596 258.56 179.638 257.652 177.742 257.239C175.542 256.758 173.144 256.896 171.058 255.961C169.983 255.478 169.194 254.66 168.374 253.842C167.613 253.081 166.789 252.389 165.883 251.804C163.788 250.451 161.361 249.708 158.876 249.568C158.552 249.549 158.33 249.697 158.212 249.909C158.057 249.824 157.864 249.798 157.642 249.864C155.855 250.395 154.599 251.733 153.573 253.232C152.354 255.013 151.318 256.944 150.371 258.88C148.45 262.808 146.993 266.948 146.028 271.209C146 271.333 145.999 271.449 146.019 271.553C145.731 271.845 145.683 272.409 146.007 272.748C145.703 273.16 145.758 273.84 146.399 273.988C149.374 274.672 152.375 275.26 155.359 275.908C158.297 276.547 161.242 277.172 164.218 277.619C169.673 278.439 175.263 278.663 180.666 277.371C183.374 276.723 185.989 275.68 188.352 274.207C189.395 273.776 190.473 273.417 191.496 272.933C192.866 272.286 194.585 271.138 194.622 269.535C195.484 268.912 196.169 268.065 196.584 267.051C196.912 266.25 197.11 265.304 196.64 264.516Z" fill="#F1C2D5"/>
<path d="M198.756 312.061L236.775 305.985C236.775 305.985 254.987 310.867 257.001 322.566C259.013 334.266 248.807 347.397 248.807 347.397L240.556 348.938L199.839 348.176C199.839 348.176 200.43 320.178 198.756 312.061Z" fill="#F1C2D5"/>
<path d="M158.734 114.615C159.281 113.745 157.902 112.945 157.357 113.812C153.289 120.284 149.349 126.835 145.538 133.459C145.062 130.004 144.665 126.536 144.353 123.062C143.868 117.664 143.582 112.251 143.488 106.832C143.47 105.809 141.876 105.806 141.894 106.832C142.058 116.213 142.809 125.583 144.137 134.871C137.78 129.291 131.424 123.711 125.069 118.131C124.301 117.457 123.17 118.579 123.942 119.256C127.763 122.611 131.584 125.966 135.405 129.32C131.425 130.075 127.471 130.958 123.549 131.973C123.148 132.076 122.978 132.389 122.983 132.708C122.549 132.758 122.106 133.139 122.19 133.7C124.222 147.319 129.079 160.5 136.35 172.197C138.399 175.493 140.645 178.66 143.055 181.702C143.691 182.505 144.812 181.373 144.182 180.577C135.753 169.938 129.562 157.562 126.047 144.462C125.082 140.866 124.326 137.216 123.767 133.535C123.832 133.534 123.901 133.525 123.973 133.508C128.219 132.409 132.502 131.463 136.816 130.669C136.85 130.662 136.882 130.654 136.914 130.645C139.167 132.623 141.419 134.601 143.673 136.579C143.907 136.785 144.176 136.822 144.414 136.757C145.81 145.972 147.773 155.102 150.301 164.075C151.77 169.292 153.432 174.452 155.273 179.55C155.618 180.507 157.159 180.094 156.81 179.127C151.763 165.159 148.101 150.696 145.904 136.011C145.919 135.991 145.933 135.969 145.946 135.945C150.058 128.745 154.321 121.634 158.734 114.615Z" fill="#004D3A"/>
<path d="M122.493 195.364C117.51 184.532 115.954 172.164 118.002 160.428C118.576 157.134 119.435 153.896 120.556 150.747C120.9 149.78 119.361 149.364 119.019 150.325C114.914 161.855 114.452 174.606 117.595 186.429C118.483 189.771 119.671 193.025 121.116 196.166C121.543 197.096 122.918 196.289 122.493 195.364Z" fill="#004D3A"/>
<path d="M197.708 265.999C197.53 262.808 193.475 262.303 191.03 262.135C188.562 261.967 186.089 262.234 183.718 262.885C183.84 262.566 183.924 262.218 183.958 261.836C184.242 258.653 181.11 256.658 178.358 256.201C175.125 255.663 171.575 256.288 169.117 253.673C167.881 252.361 166.656 251.238 165.025 250.427C163.509 249.671 161.891 249.157 160.27 248.678C160.602 248.194 160.137 247.582 159.58 247.533C159.802 247.254 159.84 246.862 159.479 246.566C151.966 240.426 144.051 234.783 135.779 229.705C131.654 227.173 127.441 224.781 123.151 222.534C118.901 220.307 114.584 218.078 110.067 216.437C105.067 214.62 99.568 213.651 94.397 215.354C93.4275 215.673 93.843 217.212 94.8209 216.889C99.3572 215.394 104.113 216.108 108.554 217.591C113.075 219.101 117.361 221.32 121.582 223.509C129.923 227.835 137.978 232.712 145.676 238.097C150.021 241.136 154.248 244.338 158.351 247.692C158.494 247.808 158.647 247.867 158.799 247.881C151.428 254.007 146.429 262.836 144.976 272.3C133.59 269.6 122.385 266.17 111.442 262.028C110.482 261.665 110.067 263.203 111.019 263.563C122.134 267.769 133.519 271.243 145.089 273.962C145.258 274.002 145.41 273.991 145.543 273.943C145.927 274.05 146.344 273.905 146.413 273.4C147.641 264.323 152.145 255.893 158.983 249.817C159.074 249.931 159.204 250.024 159.38 250.074C162.092 250.868 164.979 251.703 167.026 253.762C168.046 254.787 168.903 255.888 170.253 256.506C171.502 257.079 172.85 257.303 174.21 257.422C176.9 257.659 180.63 257.411 182.062 260.254C183.44 262.991 180.245 264.193 178.138 264.511C174.312 265.089 170.4 265.306 166.55 265.693C165.539 265.795 165.528 267.387 166.55 267.284C170.407 266.897 174.295 266.622 178.138 266.105C178.676 266.032 179.244 265.928 179.804 265.778C180.007 265.876 180.254 265.893 180.51 265.768C183.259 264.433 186.284 263.716 189.342 263.679C190.79 263.662 192.285 263.757 193.695 264.105C194.717 264.358 196.053 264.88 196.116 266.108C196.187 267.489 194.851 268.436 193.689 268.82C192.328 269.271 190.857 269.411 189.445 269.628C186.094 270.14 182.733 270.602 179.368 271.01C175.618 271.465 171.862 271.856 168.1 272.187C167.085 272.275 167.077 273.868 168.1 273.779C175.852 273.097 183.58 272.153 191.268 270.945C192.252 270.79 193.398 270.559 194.45 270.158C194.237 270.365 194.015 270.564 193.785 270.751C193.011 271.38 192.137 271.893 191.237 272.319C188.976 273.387 186.442 273.814 183.98 274.128C178.726 274.798 173.457 275.364 168.198 275.978C167.191 276.096 167.179 277.689 168.198 277.57C171.236 277.215 174.273 276.86 177.311 276.505C180.248 276.161 183.207 275.893 186.127 275.415C188.718 274.99 191.32 274.283 193.555 272.863C194.504 272.259 195.397 271.54 196.141 270.694C196.688 270.072 197.817 268.915 197.266 268.024C197.583 267.462 197.752 266.796 197.708 265.999Z" fill="#004D3A"/>
<path d="M199.256 312.305C199.236 312.154 199.182 312.027 199.107 311.921C199.162 311.64 199.057 311.348 198.707 311.19C183.428 304.312 168.15 297.435 152.872 290.557C145.281 287.14 137.69 283.722 130.1 280.305C122.957 277.09 115.82 273.854 108.54 270.955C100.317 267.681 91.8988 264.856 83.2213 263.053C82.2204 262.845 81.793 264.379 82.7982 264.587C98.188 267.787 112.619 274.174 126.883 280.593C142.047 287.418 157.21 294.247 172.374 301.073C180.81 304.87 189.246 308.668 197.682 312.465C199.232 324.303 199.423 336.294 198.246 348.176C198.146 349.194 199.74 349.188 199.84 348.176C201.022 336.241 200.826 324.195 199.256 312.305Z" fill="#004D3A"/>
<path d="M164.048 114.615C163.501 113.745 164.879 112.945 165.424 113.812C169.492 120.284 173.432 126.835 177.244 133.459C177.72 130.004 178.116 126.536 178.429 123.062C178.914 117.664 179.2 112.251 179.295 106.832C179.313 105.809 180.906 105.806 180.888 106.832C180.724 116.213 179.973 125.583 178.646 134.871C185.001 129.291 191.357 123.711 197.713 118.131C198.481 117.457 199.613 118.579 198.84 119.256C195.019 122.611 191.198 125.966 187.377 129.32C191.356 130.075 195.311 130.958 199.233 131.973C199.634 132.076 199.804 132.389 199.799 132.708C200.232 132.758 200.675 133.139 200.592 133.7C198.56 147.319 193.702 160.5 186.431 172.197C184.382 175.493 182.137 178.66 179.726 181.702C179.091 182.505 177.97 181.373 178.6 180.577C187.028 169.938 193.219 157.562 196.734 144.462C197.699 140.866 198.456 137.216 199.014 133.535C198.949 133.534 198.881 133.525 198.809 133.508C194.562 132.409 190.279 131.463 185.965 130.669C185.931 130.662 185.899 130.654 185.868 130.645C183.615 132.623 181.362 134.601 179.109 136.579C178.874 136.785 178.606 136.822 178.368 136.757C176.972 145.972 175.008 155.102 172.481 164.075C171.012 169.292 169.35 174.452 167.508 179.55C167.163 180.507 165.623 180.094 165.972 179.127C171.018 165.159 174.68 150.696 176.877 136.011C176.863 135.991 176.849 135.969 176.835 135.945C172.723 128.745 168.461 121.634 164.048 114.615Z" fill="#004D3A"/>
<path d="M200.292 195.364C205.274 184.532 206.831 172.164 204.783 160.428C204.208 157.134 203.35 153.896 202.229 150.747C201.884 149.78 203.424 149.364 203.765 150.325C207.871 161.855 208.332 174.606 205.19 186.429C204.301 189.771 203.113 193.025 201.668 196.166C201.241 197.096 199.866 196.289 200.292 195.364Z" fill="#004D3A"/>
<path d="M228.387 215.355C223.216 213.651 217.717 214.62 212.717 216.437C208.2 218.078 203.883 220.308 199.633 222.534C195.344 224.781 191.131 227.173 187.004 229.706C178.733 234.783 170.817 240.427 163.305 246.567C162.944 246.862 162.982 247.254 163.204 247.533C162.646 247.582 162.181 248.195 162.514 248.678C162.061 248.812 161.61 248.949 161.16 249.092C161.708 249.493 162.266 249.875 162.833 250.243C163.024 250.186 163.214 250.131 163.403 250.075C163.58 250.024 163.71 249.931 163.801 249.818C164.68 250.598 165.521 251.42 166.321 252.275C167.502 252.898 168.706 253.481 169.923 254.04C168.175 251.784 166.187 249.712 163.985 247.881C164.137 247.867 164.289 247.809 164.432 247.693C168.536 244.338 172.763 241.136 177.107 238.097C184.806 232.712 192.861 227.836 201.202 223.51C205.423 221.32 209.71 219.101 214.231 217.591C218.672 216.108 223.426 215.395 227.963 216.89C228.941 217.212 229.356 215.674 228.387 215.355Z" fill="#004D3A"/>
<path d="M239.561 263.053C230.884 264.857 222.465 267.681 214.242 270.956C206.963 273.855 199.825 277.091 192.683 280.305C185.092 283.723 177.501 287.14 169.911 290.557C166.898 291.914 163.884 293.27 160.871 294.627C161.406 294.968 161.946 295.304 162.489 295.634C173.625 290.62 184.763 285.606 195.901 280.594C210.163 274.175 224.595 267.787 239.985 264.588C240.989 264.379 240.562 262.845 239.561 263.053Z" fill="#004D3A"/>
<path d="M232.58 305.985C232.58 305.985 246.533 302.342 252.212 303.962C257.89 305.582 272.331 316.437 275.252 318.867C278.172 321.296 281.579 324.213 281.417 327.94C281.255 331.666 260.649 345.437 256.106 347.218C251.563 349.001 240.557 348.937 240.557 348.937C240.557 348.937 253.024 341.386 252.212 330.369C251.401 319.353 238.907 307.36 232.58 305.985Z" fill="#004D3A"/>
<path d="M229.158 111.14C229.635 113.77 228.988 116.617 227.486 118.845C227.358 118.592 227.268 118.453 227.268 118.453C227.268 118.453 229.757 112.303 227.261 107.128C228.207 108.23 228.879 109.596 229.158 111.14ZM215.401 100.4C213.94 100.52 213.064 100.92 213.064 100.92C213.064 100.92 213.331 93.8761 213.03 83.8251C214.057 88.2351 215.106 92.6587 215.373 97.1781C215.437 98.2547 215.449 99.3305 215.401 100.4ZM113.242 96.5868C113.242 96.5868 113.069 96.6164 112.759 96.6843C112.058 91.6389 112.286 86.5196 113.346 81.4801C113.573 80.4001 113.829 79.326 114.1 78.2562C113.598 88.6041 113.242 96.5868 113.242 96.5868ZM230.695 110.718C230.011 106.939 227.154 103.983 223.617 102.983C221.106 101.161 218.799 100.528 216.987 100.395C217.122 96.9321 216.661 93.4298 216.001 90.021C214.951 84.6005 213.603 79.2505 212.569 73.8275C211.444 56.0263 208.351 34.0027 200.213 22.6578C185.192 1.7184 160.7 3.01813 160.7 3.01813C128.46 3.41263 117.779 22.3227 116.596 35.1268C116.002 41.5543 115.159 57.0155 114.467 70.8216C114.415 71.0117 114.362 71.2017 114.31 71.3909C112.53 77.8252 110.695 84.2569 110.727 90.9915C110.737 93.0336 110.896 95.0732 111.193 97.0924C109.376 97.6337 106.622 98.6738 104.079 100.519C103.505 100.659 102.938 100.829 102.383 101.039C100.063 101.919 98.1258 103.426 96.6397 105.404C93.3099 109.839 93.1094 115.763 94.8342 120.872C95.1605 121.837 96.7 121.423 96.3712 120.449C94.796 115.784 94.8945 110.495 97.8743 106.399C98.6814 105.289 99.6866 104.33 100.832 103.585C99.3289 105.469 98.1988 107.831 97.8547 110.783C96.4732 122.616 107.324 130.665 107.324 130.665C117.779 118.058 149.013 102.903 149.013 102.903L168.589 96.1363L173.658 102.903C173.658 102.903 184.062 109.743 194.155 114.67C204.248 119.598 217.793 135.204 217.793 135.204C226.234 131.459 228.858 123.478 228.15 120.644C230.365 117.93 231.315 114.142 230.695 110.718Z" fill="#016322"/>
<path d="M191.263 49.6285C191.208 43.9128 186.087 38.6629 186.087 38.6629L180.339 37.0866C166.935 33.6336 162.168 20.6598 161.39 18.2529V17.8669C161.39 17.8669 161.371 17.9373 161.331 18.0654C161.292 17.9373 161.272 17.8669 161.272 17.8669V18.2529C160.495 20.6598 155.727 33.6336 142.322 37.0866L136.574 38.6629C136.574 38.6629 131.454 43.9128 131.399 49.6285C131.345 55.3442 131.399 75.1213 131.399 75.1213C131.399 75.1213 139.987 85.0943 154.077 86.6969V96.1363L149.008 102.903C149.008 102.903 152.443 111.928 161.272 113.315V113.334C161.292 113.332 161.311 113.327 161.331 113.324C161.35 113.327 161.37 113.332 161.39 113.334V113.315C170.219 111.928 173.653 102.903 173.653 102.903L168.584 96.1363V86.6969C182.674 85.0943 191.263 75.1213 191.263 75.1213C191.263 75.1213 191.317 55.3442 191.263 49.6285Z" fill="#F1C2D5"/>
<path d="M151.569 57.7082C151.569 60.1702 149.096 62.1665 146.044 62.1665C142.993 62.1665 140.52 60.1702 140.52 57.7082C140.52 55.2461 142.993 53.2507 146.044 53.2507C149.096 53.2507 151.569 55.2461 151.569 57.7082Z" fill="#E698B5"/>
<path d="M182.832 57.7082C182.832 60.1702 180.359 62.1665 177.308 62.1665C174.257 62.1665 171.783 60.1702 171.783 57.7082C171.783 55.2461 174.257 53.2507 177.308 53.2507C180.359 53.2507 182.832 55.2461 182.832 57.7082Z" fill="#E698B5"/>
<path d="M150.024 45.6498C149.708 47.6495 148.663 49.8282 146.484 50.2669C143.895 50.7869 142.73 48.2841 142.029 46.2302C141.7 45.2664 140.16 45.6804 140.492 46.6535C140.984 48.0941 141.652 49.7858 142.813 50.8268C143.809 51.7202 145.158 52.0485 146.47 51.8737C149.392 51.4852 151.131 48.7923 151.561 46.0732C151.72 45.0712 150.184 44.6394 150.024 45.6498Z" fill="#004D3A"/>
<path d="M173.672 62.224C171.721 63.1156 169.495 61.7836 169.332 59.6618C169.254 58.6454 167.659 58.6403 167.738 59.6618C167.852 61.1372 168.562 62.341 169.58 63.1139C167.74 65.4971 164.831 66.8757 161.838 66.9122C158.846 66.8757 155.936 65.4971 154.096 63.1139C155.116 62.341 155.824 61.1372 155.938 59.6618C156.017 58.6403 154.423 58.6454 154.344 59.6618C154.18 61.7836 151.955 63.1156 150.004 62.224C149.079 61.8006 148.268 63.1716 149.2 63.5975C150.374 64.1346 151.594 64.1812 152.668 63.8469C152.676 63.8597 152.684 63.8716 152.693 63.8834C154.795 66.6331 157.976 68.3426 161.424 68.497C161.46 68.503 161.498 68.5064 161.538 68.5072C161.619 68.5081 161.7 68.5081 161.78 68.5081C161.8 68.5081 161.819 68.5081 161.838 68.5081C161.858 68.5081 161.877 68.5081 161.896 68.5081C161.977 68.5081 162.057 68.5081 162.138 68.5072C162.179 68.5064 162.216 68.503 162.253 68.497C165.701 68.3426 168.882 66.6331 170.983 63.8834C170.992 63.8716 171 63.8597 171.009 63.8469C172.083 64.1812 173.303 64.1346 174.477 63.5975C175.409 63.1716 174.598 61.8006 173.672 62.224Z" fill="#004D3A"/>
<path d="M161.76 7.22867C161.611 6.21907 160.075 6.64838 160.224 7.65204C161.68 17.5258 157.4 27.6684 149.274 33.4808C147.145 35.0028 144.814 36.2203 142.341 37.0806C141.379 37.4148 141.793 38.953 142.765 38.6145C152.593 35.1963 160.003 26.596 161.697 16.3083C162.193 13.2905 162.206 10.2532 161.76 7.22867Z" fill="#004D3A"/>
<path d="M147.415 24.644C144.628 31.4881 137.193 34.9105 133.441 41.109C131.094 44.9853 130.869 49.4683 130.892 53.8834C130.919 59.0187 130.966 64.155 131.003 69.2904L131.127 86.6427C131.135 87.6667 132.728 87.6684 132.721 86.6427C132.647 76.3363 132.573 66.0299 132.499 55.7244C132.466 51.2516 132.254 46.5158 134.492 42.4724C136.242 39.3104 139.007 36.8771 141.617 34.4397C144.548 31.7036 147.415 28.8402 148.952 25.0674C149.338 24.1189 147.797 23.7065 147.415 24.644Z" fill="#004D3A"/>
<path d="M132.732 95.109C132.682 94.0901 131.088 94.0833 131.138 95.109C131.283 98.064 131.514 101.032 131.49 103.991C131.469 106.801 131.122 109.632 129.765 112.136C129.277 113.037 130.652 113.842 131.141 112.939C134.053 107.567 133.018 100.95 132.732 95.109Z" fill="#004D3A"/>
<path d="M134.983 85.8553C134.943 89.931 134.901 94.0067 134.86 98.0825C134.84 100.081 134.823 102.08 134.799 104.078C134.776 106.007 134.707 107.926 134.196 109.797C133.926 110.786 135.463 111.209 135.733 110.221C136.241 108.36 136.356 106.438 136.387 104.517C136.419 102.479 136.43 100.439 136.451 98.3998C136.493 94.2188 136.535 90.0362 136.577 85.8553C136.588 84.8304 134.994 84.8296 134.983 85.8553Z" fill="#004D3A"/>
<path d="M172.761 45.6498C173.077 47.6495 174.123 49.8282 176.301 50.2669C178.892 50.7869 180.056 48.2841 180.757 46.2302C181.085 45.2664 182.626 45.6804 182.294 46.6535C181.803 48.0941 181.133 49.7858 179.972 50.8268C178.977 51.7202 177.627 52.0485 176.315 51.8737C173.393 51.4852 171.654 48.7923 171.224 46.0732C171.066 45.0712 172.602 44.6394 172.761 45.6498Z" fill="#004D3A"/>
<path d="M161.024 7.22867C161.172 6.21907 162.708 6.64838 162.561 7.65204C161.103 17.5258 165.385 27.6684 173.511 33.4808C175.639 35.0028 177.97 36.2203 180.442 37.0806C181.405 37.4148 180.991 38.953 180.018 38.6145C170.191 35.1963 162.781 26.596 161.087 16.3083C160.59 13.2905 160.577 10.2532 161.024 7.22867Z" fill="#004D3A"/>
<path d="M175.367 24.644C178.155 31.4881 185.59 34.9105 189.342 41.109C191.688 44.9853 191.914 49.4683 191.891 53.8834C191.864 59.0187 191.818 64.155 191.78 69.2904L191.655 86.6427C191.649 87.6667 190.055 87.6684 190.061 86.6427C190.136 76.3363 190.21 66.0299 190.284 55.7244C190.316 51.2516 190.529 46.5158 188.291 42.4724C186.54 39.3104 183.776 36.8771 181.165 34.4397C178.235 31.7036 175.368 28.8402 173.831 25.0674C173.445 24.1189 174.986 23.7065 175.367 24.644Z" fill="#004D3A"/>
<path d="M190.049 95.109C190.099 94.0901 191.693 94.0833 191.643 95.109C191.499 98.064 191.268 101.032 191.291 103.991C191.313 106.801 191.659 109.632 193.016 112.136C193.505 113.037 192.129 113.842 191.641 112.939C188.73 107.567 189.764 100.95 190.049 95.109Z" fill="#004D3A"/>
<path d="M187.797 85.8553C187.839 89.931 187.88 94.0067 187.921 98.0825C187.941 100.081 187.958 102.08 187.982 104.078C188.004 106.007 188.074 107.926 188.586 109.797C188.855 110.786 187.318 111.209 187.049 110.221C186.54 108.36 186.425 106.438 186.393 104.517C186.361 102.479 186.351 100.439 186.331 98.3998C186.288 94.2188 186.246 90.0362 186.203 85.8553C186.193 84.8304 187.787 84.8296 187.797 85.8553Z" fill="#004D3A"/>
<path d="M162.799 55.6117C161.528 56.4558 159.779 56.0113 159.33 54.4748C158.883 52.9468 160.136 51.6216 161.654 51.6708C162.065 51.6836 162.477 51.295 162.451 50.875C162.33 48.978 162.21 47.0818 162.089 45.1856C162.025 44.1684 160.431 44.1616 160.496 45.1856C160.601 46.8383 160.706 48.4919 160.81 50.1446C158.677 50.5433 157.161 52.6821 157.793 54.8982C158.502 57.3823 161.468 58.4038 163.603 56.9852C164.453 56.421 163.656 55.0415 162.799 55.6117Z" fill="#004D3A"/>
</svg>
