<svg width="448" height="461" viewBox="0 0 448 461" fill="none" xmlns="http://www.w3.org/2000/svg">
<path d="M0.538496 300.094H330.638V66.0491H0.538496V300.094ZM330.907 300.632H0.269248C0.120354 300.632 0 300.511 0 300.363V65.7802C0 65.6322 0.120354 65.5112 0.269248 65.5112H330.907C331.058 65.5112 331.176 65.6322 331.176 65.7802V300.363C331.176 300.511 331.058 300.632 330.907 300.632Z" fill="#C8711B"/>
<path d="M330.086 65.7802H1.09289C0.638134 65.7802 0.269531 66.1487 0.269531 66.6032V86.597H330.907V66.6032C330.907 66.1487 330.541 65.7802 330.086 65.7802Z" fill="#C8711B"/>
<path d="M18.8669 76.3338C18.8669 78.948 16.7447 81.0701 14.1268 81.0701C11.5092 81.0701 9.38672 78.948 9.38672 76.3338C9.38672 73.7196 11.5092 71.6003 14.1268 71.6003C16.7447 71.6003 18.8669 73.7196 18.8669 76.3338Z" fill="#FFDA7E"/>
<path d="M34.1831 76.3338C34.1831 78.948 32.0609 81.0701 29.443 81.0701C26.8253 81.0701 24.7031 78.948 24.7031 76.3338C24.7031 73.7196 26.8253 71.6003 29.443 71.6003C32.0609 71.6003 34.1831 73.7196 34.1831 76.3338Z" fill="#FFDA7E"/>
<path d="M49.4956 76.3338C49.4956 78.948 47.3734 81.0701 44.7557 81.0701C42.1376 81.0701 40.0156 78.948 40.0156 76.3338C40.0156 73.7196 42.1376 71.6003 44.7557 71.6003C47.3734 71.6003 49.4956 73.7196 49.4956 76.3338Z" fill="#FFDA7E"/>
<path d="M162.881 150.067H14.127V143.634H162.881V150.067Z" fill="#C8711B"/>
<path d="M280.902 150.067H181.326V143.634H280.902V150.067Z" fill="#C8711B"/>
<path d="M94.0335 170.852H14.127V164.418H94.0335V170.852Z" fill="#C8711B"/>
<path d="M271.068 170.852H112.479V164.418H271.068V170.852Z" fill="#C8711B"/>
<path d="M94.0335 233.208H14.127V226.775H94.0335V233.208Z" fill="#C8711B"/>
<path d="M271.068 233.208H112.479V226.775H271.068V233.208Z" fill="#C8711B"/>
<path d="M231.727 191.636H63.3027V185.203H231.727V191.636Z" fill="#C8711B"/>
<path d="M153.044 212.424H63.3027V205.99H153.044V212.424Z" fill="#C8711B"/>
<path d="M28.4984 128.691C28.4295 128.691 28.3606 128.664 28.3081 128.61L14.2762 114.595C14.1709 114.49 14.1709 114.321 14.2762 114.216L28.3081 100.198C28.4133 100.093 28.5835 100.093 28.6888 100.198C28.7941 100.303 28.7941 100.472 28.6888 100.577L14.8473 114.404L28.6888 128.231C28.7941 128.336 28.7941 128.505 28.6888 128.61C28.6363 128.664 28.5674 128.691 28.4984 128.691Z" fill="#60570C"/>
<path d="M51.4822 128.691C51.4133 128.691 51.3444 128.664 51.2918 128.61C51.1866 128.505 51.1866 128.336 51.2918 128.231L65.1333 114.404L51.2918 100.577C51.1866 100.472 51.1866 100.303 51.2918 100.198C51.3971 100.093 51.5673 100.093 51.6726 100.198L65.7044 114.216C65.8097 114.321 65.8097 114.49 65.7044 114.595L51.6726 128.61C51.6201 128.664 51.5511 128.691 51.4822 128.691Z" fill="#60570C"/>
<path d="M33.9861 127.828C33.9486 127.828 33.9104 127.819 33.874 127.803C33.7389 127.741 33.6794 127.58 33.7413 127.446L45.8529 101.04C45.9145 100.905 46.0739 100.846 46.2099 100.908C46.3451 100.97 46.4046 101.131 46.3424 101.266L34.2311 127.669C34.1858 127.768 34.0881 127.828 33.9861 127.828Z" fill="#60570C"/>
<path d="M332.992 399.717H136.479V29.391H332.992V399.717Z" fill="#F7F1EB"/>
<path d="M149.23 0.537903C134.472 0.537903 122.464 12.5331 122.464 27.2744V390.844C122.464 405.588 134.472 417.58 149.23 417.58H320.237C334.997 417.58 347.003 405.588 347.003 390.844V27.2744C347.003 12.5331 334.997 0.537903 320.237 0.537903H149.23ZM320.237 418.118H149.23C134.173 418.118 121.926 405.884 121.926 390.844V27.2744C121.926 12.2346 134.173 0 149.23 0H320.237C335.293 0 347.541 12.2346 347.541 27.2744V390.844C347.541 405.884 335.293 418.118 320.237 418.118Z" fill="black"/>
<path d="M254.191 14.6256H215.277C215.129 14.6256 215.008 14.5073 215.008 14.3567C215.008 14.2087 215.129 14.0877 215.277 14.0877H254.191C254.34 14.0877 254.461 14.2087 254.461 14.3567C254.461 14.5073 254.34 14.6256 254.191 14.6256Z" fill="black"/>
<path d="M429.92 205.219H185.672V66.0358H429.92V205.219Z" fill="#FFDA7E"/>
<path d="M191.88 210.88H435.59V72.2351H191.88V210.88ZM436.128 211.418H191.342V71.6972H436.128V211.418Z" fill="#E6D0BE"/>
<path d="M416.014 172.74H374.539C374.388 172.74 374.27 172.619 374.27 172.471C374.27 172.323 374.388 172.202 374.539 172.202H416.014C416.162 172.202 416.283 172.323 416.283 172.471C416.283 172.619 416.162 172.74 416.014 172.74Z" fill="#E6D0BE"/>
<path d="M350.263 172.74H257.863C257.715 172.74 257.594 172.619 257.594 172.471C257.594 172.323 257.715 172.202 257.863 172.202H350.263C350.414 172.202 350.533 172.323 350.533 172.471C350.533 172.619 350.414 172.74 350.263 172.74Z" fill="#E6D0BE"/>
<path d="M416.014 182.228H325.66C325.509 182.228 325.391 182.107 325.391 181.959C325.391 181.809 325.509 181.69 325.66 181.69H416.014C416.162 181.69 416.283 181.809 416.283 181.959C416.283 182.107 416.162 182.228 416.014 182.228Z" fill="#E6D0BE"/>
<path d="M312.746 182.228H257.863C257.715 182.228 257.594 182.107 257.594 181.959C257.594 181.809 257.715 181.69 257.863 181.69H312.746C312.897 181.69 313.016 181.809 313.016 181.959C313.016 182.107 312.897 182.228 312.746 182.228Z" fill="#E6D0BE"/>
<path d="M441.794 321.406H197.543V232.073H441.794V321.406Z" fill="#E48900"/>
<path d="M203.749 326.29H447.462V238.273H203.749V326.29ZM448 326.828H203.211V237.735H448V326.828Z" fill="#FFDA7E"/>
<path d="M427.888 255.757H387.312C387.164 255.757 387.043 255.639 387.043 255.488C387.043 255.34 387.164 255.219 387.312 255.219H427.888C428.036 255.219 428.157 255.34 428.157 255.488C428.157 255.639 428.036 255.757 427.888 255.757Z" fill="#FFDA7E"/>
<path d="M363.565 255.757H273.174C273.025 255.757 272.904 255.639 272.904 255.488C272.904 255.34 273.025 255.219 273.174 255.219H363.565C363.714 255.219 363.835 255.34 363.835 255.488C363.835 255.639 363.714 255.757 363.565 255.757Z" fill="#FFDA7E"/>
<path d="M427.887 265.246H321.685C321.537 265.246 321.416 265.125 321.416 264.977C321.416 264.829 321.537 264.708 321.685 264.708H427.887C428.035 264.708 428.157 264.829 428.157 264.977C428.157 265.125 428.035 265.246 427.887 265.246Z" fill="#FFDA7E"/>
<path d="M309.056 265.246H273.174C273.025 265.246 272.904 265.125 272.904 264.977C272.904 264.829 273.025 264.708 273.174 264.708H309.056C309.204 264.708 309.325 264.829 309.325 264.977C309.325 265.125 309.204 265.246 309.056 265.246Z" fill="#FFDA7E"/>
<path d="M427.888 274.14H387.312C387.164 274.14 387.043 274.022 387.043 273.871C387.043 273.723 387.164 273.602 387.312 273.602H427.888C428.036 273.602 428.157 273.723 428.157 273.871C428.157 274.022 428.036 274.14 427.888 274.14Z" fill="#FFDA7E"/>
<path d="M363.565 274.14H273.174C273.025 274.14 272.904 274.022 272.904 273.871C272.904 273.723 273.025 273.602 273.174 273.602H363.565C363.714 273.602 363.835 273.723 363.835 273.871C363.835 274.022 363.714 274.14 363.565 274.14Z" fill="#FFDA7E"/>
<path d="M427.886 283.629H351.369C351.218 283.629 351.1 283.508 351.1 283.36C351.1 283.212 351.218 283.091 351.369 283.091H427.886C428.034 283.091 428.156 283.212 428.156 283.36C428.156 283.508 428.034 283.629 427.886 283.629Z" fill="#FFDA7E"/>
<path d="M332.801 283.629H273.174C273.025 283.629 272.904 283.508 272.904 283.36C272.904 283.212 273.025 283.091 273.174 283.091H332.801C332.949 283.091 333.07 283.212 333.07 283.36C333.07 283.508 332.949 283.629 332.801 283.629Z" fill="#FFDA7E"/>
<path d="M363.565 297.267H273.174C273.025 297.267 272.904 297.146 272.904 296.998C272.904 296.85 273.025 296.729 273.174 296.729H363.565C363.714 296.729 363.835 296.85 363.835 296.998C363.835 297.146 363.714 297.267 363.565 297.267Z" fill="#FFDA7E"/>
<path d="M326.864 306.756H273.174C273.025 306.756 272.904 306.635 272.904 306.487C272.904 306.339 273.025 306.218 273.174 306.218H326.864C327.012 306.218 327.134 306.339 327.134 306.487C327.134 306.635 327.012 306.756 326.864 306.756Z" fill="#FFDA7E"/>
<path d="M163.873 83.6629C163.733 108.173 143.725 127.93 119.187 127.787C94.6487 127.647 74.8711 107.662 75.0125 83.1519C75.1538 58.6396 95.1605 38.8824 119.699 39.025C144.236 39.1648 164.015 59.1506 163.873 83.6629Z" fill="#E6D0BE"/>
<path d="M125.877 39.2912C101.641 39.2912 81.8589 58.9139 81.7189 83.1519C81.5787 107.476 101.276 127.378 125.626 127.518C137.41 127.588 148.538 123.062 156.928 114.778C165.317 106.494 169.975 95.443 170.043 83.6602C170.183 59.3362 150.485 39.4337 126.135 39.2939C126.05 39.2939 125.961 39.2912 125.877 39.2912ZM125.888 128.059C125.799 128.059 125.712 128.056 125.623 128.056C100.976 127.916 81.0388 107.769 81.1804 83.1492C81.3223 58.5293 101.493 38.6134 126.138 38.756C150.786 38.8958 170.721 59.043 170.581 83.6629C170.511 95.5909 165.797 106.777 157.307 115.16C148.877 123.484 137.728 128.059 125.888 128.059Z" fill="#FFDA7E"/>
<path d="M125.957 62.1467C113.607 62.1467 101.467 60.0677 90.8496 56.1383L91.0367 55.6327C101.594 59.5433 113.67 61.6088 125.957 61.6088C138.149 61.6088 150.144 59.5729 160.645 55.7188L160.831 56.2244C150.271 60.0973 138.214 62.1467 125.957 62.1467Z" fill="#FFDA7E"/>
<path d="M90.6332 110.563L90.4434 110.061C101.162 106.029 113.443 103.899 125.959 103.899C138.407 103.899 150.631 106.007 161.309 109.996L161.118 110.502C150.502 106.535 138.342 104.437 125.959 104.437C113.507 104.437 101.292 106.556 90.6332 110.563Z" fill="#FFDA7E"/>
<path d="M125.881 39.2912C113.309 39.2912 103.081 59.0807 103.081 83.4074C103.081 107.731 113.309 127.521 125.881 127.521C138.452 127.521 148.68 107.731 148.68 83.4074C148.68 59.0807 138.452 39.2912 125.881 39.2912ZM125.881 128.059C119.613 128.059 113.735 123.39 109.33 114.912C104.953 106.494 102.543 95.3031 102.543 83.4074C102.543 71.5089 104.953 60.3178 109.33 51.8996C113.735 43.4223 119.613 38.7533 125.881 38.7533C132.148 38.7533 138.026 43.4223 142.431 51.8996C146.807 60.3178 149.219 71.5089 149.219 83.4074C149.219 95.3031 146.807 106.492 142.431 114.912C138.026 123.39 132.148 128.059 125.881 128.059Z" fill="#FFDA7E"/>
<path d="M126.149 127.731H125.611V39.1191H126.149V127.731Z" fill="#FFDA7E"/>
<path d="M170.319 83.7517L81.4199 83.0605L81.424 82.5226L170.322 83.2138L170.319 83.7517Z" fill="#FFDA7E"/>
<path d="M262.339 341.308C229.45 341.308 202.695 368.034 202.695 400.884C202.695 433.736 229.45 460.462 262.339 460.462C295.224 460.462 321.98 433.736 321.98 400.884C321.98 368.034 295.224 341.308 262.339 341.308ZM262.339 461C246.262 461 231.149 454.747 219.784 443.392C208.416 432.039 202.156 416.943 202.156 400.884C202.156 384.827 208.416 369.731 219.784 358.376C231.149 347.023 246.262 340.77 262.339 340.77C278.413 340.77 293.526 347.023 304.893 358.376C316.258 369.731 322.518 384.827 322.518 400.884C322.518 416.943 316.258 432.039 304.893 443.392C293.526 454.747 278.413 461 262.339 461Z" fill="#60570C"/>
<path d="M250.806 385.594C250.658 385.594 250.537 385.473 250.537 385.325V383.711C250.537 383.561 250.658 383.442 250.806 383.442C250.954 383.442 251.075 383.561 251.075 383.711V385.325C251.075 385.473 250.954 385.594 250.806 385.594Z" fill="#FFDA7E"/>
<path d="M250.806 391.67C250.658 391.67 250.537 391.549 250.537 391.401V388.361C250.537 388.214 250.658 388.093 250.806 388.093C250.954 388.093 251.075 388.214 251.075 388.361V391.401C251.075 391.549 250.954 391.67 250.806 391.67ZM250.806 397.745C250.658 397.745 250.537 397.627 250.537 397.476V394.44C250.537 394.289 250.658 394.171 250.806 394.171C250.954 394.171 251.075 394.289 251.075 394.44V397.476C251.075 397.627 250.954 397.745 250.806 397.745ZM250.806 403.824C250.658 403.824 250.537 403.702 250.537 403.555V400.515C250.537 400.367 250.658 400.246 250.806 400.246C250.954 400.246 251.075 400.367 251.075 400.515V403.555C251.075 403.702 250.954 403.824 250.806 403.824ZM250.806 409.899C250.658 409.899 250.537 409.778 250.537 409.63V406.591C250.537 406.443 250.658 406.322 250.806 406.322C250.954 406.322 251.075 406.443 251.075 406.591V409.63C251.075 409.778 250.954 409.899 250.806 409.899ZM250.806 415.975C250.658 415.975 250.537 415.856 250.537 415.706V412.669C250.537 412.521 250.658 412.4 250.806 412.4C250.954 412.4 251.075 412.521 251.075 412.669V415.706C251.075 415.856 250.954 415.975 250.806 415.975ZM250.806 422.053C250.658 422.053 250.537 421.932 250.537 421.784V418.745C250.537 418.597 250.658 418.476 250.806 418.476C250.954 418.476 251.075 418.597 251.075 418.745V421.784C251.075 421.932 250.954 422.053 250.806 422.053ZM250.806 428.129C250.658 428.129 250.537 428.01 250.537 427.86V424.823C250.537 424.673 250.658 424.554 250.806 424.554C250.954 424.554 251.075 424.673 251.075 424.823V427.86C251.075 428.01 250.954 428.129 250.806 428.129ZM250.806 434.207C250.658 434.207 250.537 434.086 250.537 433.938V430.899C250.537 430.751 250.658 430.63 250.806 430.63C250.954 430.63 251.075 430.751 251.075 430.899V433.938C251.075 434.086 250.954 434.207 250.806 434.207Z" fill="#FFDA7E"/>
<path d="M250.806 438.857C250.658 438.857 250.537 438.739 250.537 438.588V436.975C250.537 436.827 250.658 436.706 250.806 436.706C250.954 436.706 251.075 436.827 251.075 436.975V438.588C251.075 438.739 250.954 438.857 250.806 438.857Z" fill="#FFDA7E"/>
<path d="M296.249 385.594C296.099 385.594 295.98 385.473 295.98 385.325V383.711C295.98 383.561 296.099 383.442 296.249 383.442C296.397 383.442 296.518 383.561 296.518 383.711V385.325C296.518 385.473 296.397 385.594 296.249 385.594Z" fill="#FFDA7E"/>
<path d="M296.249 391.67C296.099 391.67 295.98 391.549 295.98 391.401V388.361C295.98 388.214 296.099 388.093 296.249 388.093C296.397 388.093 296.518 388.214 296.518 388.361V391.401C296.518 391.549 296.397 391.67 296.249 391.67ZM296.249 397.745C296.099 397.745 295.98 397.627 295.98 397.476V394.44C295.98 394.289 296.099 394.171 296.249 394.171C296.397 394.171 296.518 394.289 296.518 394.44V397.476C296.518 397.627 296.397 397.745 296.249 397.745ZM296.249 403.824C296.099 403.824 295.98 403.702 295.98 403.555V400.515C295.98 400.367 296.099 400.246 296.249 400.246C296.397 400.246 296.518 400.367 296.518 400.515V403.555C296.518 403.702 296.397 403.824 296.249 403.824ZM296.249 409.899C296.099 409.899 295.98 409.778 295.98 409.63V406.591C295.98 406.443 296.099 406.322 296.249 406.322C296.397 406.322 296.518 406.443 296.518 406.591V409.63C296.518 409.778 296.397 409.899 296.249 409.899ZM296.249 415.975C296.099 415.975 295.98 415.856 295.98 415.706V412.669C295.98 412.521 296.099 412.4 296.249 412.4C296.397 412.4 296.518 412.521 296.518 412.669V415.706C296.518 415.856 296.397 415.975 296.249 415.975ZM296.249 422.053C296.099 422.053 295.98 421.932 295.98 421.784V418.745C295.98 418.597 296.099 418.476 296.249 418.476C296.397 418.476 296.518 418.597 296.518 418.745V421.784C296.518 421.932 296.397 422.053 296.249 422.053ZM296.249 428.129C296.099 428.129 295.98 428.01 295.98 427.86V424.823C295.98 424.673 296.099 424.554 296.249 424.554C296.397 424.554 296.518 424.673 296.518 424.823V427.86C296.518 428.01 296.397 428.129 296.249 428.129ZM296.249 434.207C296.099 434.207 295.98 434.086 295.98 433.938V430.899C295.98 430.751 296.099 430.63 296.249 430.63C296.397 430.63 296.518 430.751 296.518 430.899V433.938C296.518 434.086 296.397 434.207 296.249 434.207Z" fill="#FFDA7E"/>
<path d="M296.249 438.857C296.099 438.857 295.98 438.739 295.98 438.588V436.975C295.98 436.827 296.099 436.706 296.249 436.706C296.397 436.706 296.518 436.827 296.518 436.975V438.588C296.518 438.739 296.397 438.857 296.249 438.857Z" fill="#FFDA7E"/>
<path d="M228.083 408.288C227.935 408.288 227.814 408.17 227.814 408.019V406.405C227.814 406.257 227.935 406.136 228.083 406.136C228.231 406.136 228.352 406.257 228.352 406.405V408.019C228.352 408.17 228.231 408.288 228.083 408.288Z" fill="#FFDA7E"/>
<path d="M228.083 414.724C227.935 414.724 227.814 414.603 227.814 414.455V411.238C227.814 411.088 227.935 410.969 228.083 410.969C228.231 410.969 228.352 411.088 228.352 411.238V414.455C228.352 414.603 228.231 414.724 228.083 414.724ZM228.083 421.157C227.935 421.157 227.814 421.039 227.814 420.888V417.672C227.814 417.524 227.935 417.403 228.083 417.403C228.231 417.403 228.352 417.524 228.352 417.672V420.888C228.352 421.039 228.231 421.157 228.083 421.157ZM228.083 427.593C227.935 427.593 227.814 427.472 227.814 427.324V424.108C227.814 423.957 227.935 423.839 228.083 423.839C228.231 423.839 228.352 423.957 228.352 424.108V427.324C228.352 427.472 228.231 427.593 228.083 427.593ZM228.083 434.027C227.935 434.027 227.814 433.906 227.814 433.758V430.541C227.814 430.393 227.935 430.272 228.083 430.272C228.231 430.272 228.352 430.393 228.352 430.541V433.758C228.352 433.906 228.231 434.027 228.083 434.027Z" fill="#FFDA7E"/>
<path d="M228.083 438.857C227.935 438.857 227.814 438.739 227.814 438.588V436.975C227.814 436.827 227.935 436.706 228.083 436.706C228.231 436.706 228.352 436.827 228.352 436.975V438.588C228.352 438.739 228.231 438.857 228.083 438.857Z" fill="#FFDA7E"/>
<path d="M273.529 408.288C273.378 408.288 273.26 408.17 273.26 408.019V406.405C273.26 406.257 273.378 406.136 273.529 406.136C273.677 406.136 273.798 406.257 273.798 406.405V408.019C273.798 408.17 273.677 408.288 273.529 408.288Z" fill="#FFDA7E"/>
<path d="M273.529 414.724C273.378 414.724 273.26 414.603 273.26 414.455V411.238C273.26 411.088 273.378 410.969 273.529 410.969C273.677 410.969 273.798 411.088 273.798 411.238V414.455C273.798 414.603 273.677 414.724 273.529 414.724ZM273.529 421.157C273.378 421.157 273.26 421.039 273.26 420.888V417.672C273.26 417.524 273.378 417.403 273.529 417.403C273.677 417.403 273.798 417.524 273.798 417.672V420.888C273.798 421.039 273.677 421.157 273.529 421.157ZM273.529 427.593C273.378 427.593 273.26 427.472 273.26 427.324V424.108C273.26 423.957 273.378 423.839 273.529 423.839C273.677 423.839 273.798 423.957 273.798 424.108V427.324C273.798 427.472 273.677 427.593 273.529 427.593ZM273.529 434.027C273.378 434.027 273.26 433.906 273.26 433.758V430.541C273.26 430.393 273.378 430.272 273.529 430.272C273.677 430.272 273.798 430.393 273.798 430.541V433.758C273.798 433.906 273.677 434.027 273.529 434.027Z" fill="#FFDA7E"/>
<path d="M273.529 438.857C273.378 438.857 273.26 438.739 273.26 438.588V436.975C273.26 436.827 273.378 436.706 273.529 436.706C273.677 436.706 273.798 436.827 273.798 436.975V438.588C273.798 438.739 273.677 438.857 273.529 438.857Z" fill="#FFDA7E"/>
<path d="M195.866 438.857C195.796 438.857 195.728 438.833 195.674 438.779C195.569 438.674 195.569 438.505 195.674 438.4L250.614 383.52C250.717 383.418 250.894 383.418 250.997 383.52L273.527 406.026L321.645 357.959C321.75 357.854 321.922 357.854 322.027 357.959C322.132 358.064 322.132 358.236 322.027 358.341L273.716 406.596C273.616 406.699 273.439 406.699 273.336 406.596L250.806 384.09L196.057 438.779C196.003 438.833 195.936 438.857 195.866 438.857Z" fill="#D87355"/>
<path d="M319.016 357.854L319.034 358.392L321.689 358.295L321.592 360.947L322.131 360.966L322.247 357.736L319.016 357.854Z" fill="#D87355"/>
<path d="M187.483 194.896C187.413 194.896 187.343 194.869 187.292 194.816C187.187 194.711 187.19 194.541 187.295 194.436L198.407 183.487C198.512 183.382 198.681 183.382 198.786 183.487C198.891 183.595 198.889 183.764 198.784 183.869L187.672 194.818C187.621 194.869 187.553 194.896 187.483 194.896Z" fill="black"/>
<path d="M191.303 198.734C191.235 198.734 191.165 198.707 191.112 198.653C191.009 198.549 191.009 198.379 191.114 198.274L202.226 187.325C202.331 187.22 202.503 187.22 202.606 187.328C202.711 187.433 202.711 187.602 202.603 187.707L191.494 198.656C191.44 198.71 191.373 198.734 191.303 198.734Z" fill="black"/>
<path d="M197.795 179.004C197.095 179.004 196.398 179.27 195.867 179.805L162.454 213.44C159.882 216.028 159.898 220.221 162.489 222.786L163.808 224.096C166.398 226.662 170.596 226.646 173.164 224.059L206.578 190.423C207.09 189.907 207.37 189.227 207.367 188.5C207.364 187.777 207.079 187.096 206.564 186.588L199.707 179.789C199.179 179.265 198.487 179.004 197.795 179.004ZM168.469 226.546C166.646 226.546 164.823 225.858 163.428 224.478L162.109 223.168C159.309 220.393 159.293 215.858 162.071 213.061L195.485 179.426C196.748 178.154 198.813 178.146 200.086 179.407L206.944 186.206C207.561 186.817 207.903 187.632 207.905 188.5C207.908 189.366 207.574 190.184 206.96 190.803L173.547 224.438C172.152 225.844 170.31 226.546 168.469 226.546Z" fill="black"/>
<path d="M200.531 179.902L206.444 185.763L226.592 165.537L220.679 159.674L200.531 179.902ZM206.447 186.524L199.77 179.905L220.677 158.916L227.354 165.535L206.447 186.524Z" fill="black"/>
<path d="M250.357 174.598C250.32 174.598 250.282 174.59 250.247 174.574C241.701 170.736 233.96 165.422 227.237 158.781C212.313 144.037 204.028 124.371 203.909 103.404C203.794 82.4391 211.858 62.6819 226.615 47.7739C241.375 32.8659 261.063 24.5902 282.053 24.4719C282.201 24.4719 282.352 24.4719 282.503 24.4719C303.326 24.4719 322.928 32.5162 337.744 47.1553C352.672 61.8966 360.954 81.5623 361.072 102.53C361.188 123.495 353.124 143.252 338.366 158.163C333.022 163.56 326.966 168.135 320.373 171.764C320.241 171.836 320.079 171.788 320.006 171.659C319.934 171.527 319.982 171.363 320.111 171.293C326.662 167.689 332.674 163.144 337.981 157.783C368.242 127.22 367.965 77.7621 337.368 47.5372C306.77 17.3124 257.258 17.5867 227 48.1504C212.342 62.9562 204.332 82.579 204.448 103.401C204.566 124.224 212.792 143.755 227.614 158.397C234.291 164.994 241.981 170.271 250.468 174.082C250.602 174.144 250.664 174.302 250.602 174.44C250.559 174.539 250.46 174.598 250.357 174.598Z" fill="black"/>
<path d="M232.565 53.9167C232.495 53.9167 232.428 53.8925 232.374 53.8387C232.269 53.7365 232.269 53.5644 232.374 53.4595C252.336 33.2935 282.276 27.0565 308.649 37.5671C308.786 37.6236 308.854 37.7796 308.8 37.9168C308.743 38.0566 308.587 38.1212 308.45 38.0674C282.279 27.6348 252.567 33.826 232.756 53.8387C232.702 53.8898 232.632 53.9167 232.565 53.9167Z" fill="black"/>
<path d="M258.611 154.43L258.643 178.35C258.659 191.529 269.397 202.238 282.587 202.238C282.598 202.238 282.609 202.238 282.62 202.238C295.821 202.222 306.55 191.478 306.531 178.288L306.502 154.368L258.611 154.43ZM282.587 202.776C269.101 202.776 258.121 191.827 258.105 178.35L258.072 153.894L307.04 153.83L307.07 178.288C307.089 191.774 296.12 202.76 282.62 202.776C282.609 202.776 282.598 202.776 282.587 202.776Z" fill="black"/>
<path d="M345.183 102.691C345.229 137.278 317.197 165.352 282.572 165.397C247.947 165.44 219.843 137.44 219.797 102.853C219.751 68.268 247.785 40.1921 282.408 40.1464C317.033 40.1034 345.137 68.104 345.183 102.691Z" fill="#D87355"/>
<path d="M282.385 186.873C276.248 186.873 270.489 186.534 266.141 185.921C261.475 185.26 259.108 184.385 259.105 183.32C259.105 183.173 259.227 183.051 259.375 183.051C259.525 183.051 259.644 183.17 259.644 183.32C259.647 184.558 267.735 186.335 282.366 186.335C282.444 186.335 282.522 186.335 282.6 186.335C297.376 186.314 305.548 184.504 305.545 183.259C305.545 183.111 305.666 182.99 305.815 182.99C305.963 182.99 306.084 183.111 306.084 183.259C306.087 184.324 303.72 185.206 299.056 185.878C294.66 186.51 288.814 186.865 282.6 186.873C282.527 186.873 282.455 186.873 282.385 186.873Z" fill="black"/>
<path d="M282.371 176.269C276.237 176.269 270.476 175.932 266.127 175.316C261.461 174.658 259.094 173.783 259.092 172.716C259.092 172.568 259.213 172.447 259.361 172.447C259.512 172.447 259.63 172.568 259.63 172.716C259.633 173.961 267.799 175.752 282.586 175.731C297.363 175.712 305.534 173.902 305.532 172.657C305.532 172.509 305.653 172.388 305.801 172.388C305.949 172.388 306.07 172.509 306.07 172.657C306.073 173.722 303.706 174.601 299.043 175.273C294.646 175.908 288.801 176.26 282.586 176.269C282.514 176.269 282.444 176.269 282.371 176.269Z" fill="black"/>
<path d="M274.179 150.436C274.074 150.436 273.974 150.374 273.931 150.272L254.168 104.049C254.109 103.912 254.174 103.754 254.311 103.697C254.446 103.638 254.605 103.7 254.664 103.837L274.427 150.059C274.483 150.196 274.421 150.355 274.284 150.414C274.249 150.428 274.214 150.436 274.179 150.436Z" fill="black"/>
<path d="M290.923 150.414C290.888 150.414 290.853 150.406 290.818 150.393C290.681 150.333 290.619 150.175 290.675 150.04L310.317 103.764C310.376 103.627 310.532 103.565 310.67 103.622C310.807 103.681 310.871 103.84 310.812 103.974L291.171 150.25C291.128 150.352 291.028 150.414 290.923 150.414Z" fill="black"/>
<path d="M277.723 85.4864C275.524 85.4864 273.256 87.0141 272.204 89.2625C271.229 91.3496 271.164 94.0041 272.023 96.7367C273.302 100.811 276.412 104.152 280.227 106.018C280.26 105.991 280.289 105.964 280.319 105.938C284.541 102.223 286.046 95.755 283.9 90.5589C282.966 88.2997 280.973 85.785 278.181 85.5079C278.03 85.4945 277.877 85.4864 277.723 85.4864ZM271.229 109.792C268.825 109.792 266.426 109.213 264.328 108.022C264.199 107.947 264.156 107.783 264.229 107.653C264.301 107.524 264.468 107.479 264.595 107.554C269.28 110.217 275.548 109.706 279.775 106.389C275.93 104.439 272.807 101.032 271.509 96.8981C270.61 94.0364 270.682 91.242 271.716 89.0366C272.936 86.4305 275.674 84.7226 278.235 84.9728C281.264 85.274 283.404 87.95 284.398 90.3545C286.614 95.7201 285.082 102.393 280.76 106.266C283.165 107.339 285.82 107.831 288.455 107.562C295.542 106.847 301.659 100.744 302.386 93.6679C302.403 93.52 302.534 93.4124 302.683 93.4286C302.831 93.442 302.938 93.5765 302.922 93.7244C302.171 101.043 295.841 107.358 288.512 108.097C285.698 108.382 282.861 107.834 280.311 106.65C277.777 108.719 274.498 109.792 271.229 109.792Z" fill="#FFDA7E"/>
</svg>
