<svg width="466" height="317" viewBox="0 0 466 317" fill="none" xmlns="http://www.w3.org/2000/svg">
<path d="M180.037 355.183H285.96V304.339H180.037V355.183Z" fill="#006C0B"/>
<path d="M286.891 355.183H285.96V304.339H180.037V355.183H179.109V303.41H286.891V355.183Z" fill="#149221"/>
<path d="M261.701 343.284C261.701 359.146 248.85 372.002 232.998 372.002C217.149 372.002 204.299 359.146 204.299 343.284C204.299 327.425 217.149 314.566 232.998 314.566C248.85 314.566 261.701 327.425 261.701 343.284Z" fill="white"/>
<path d="M455.55 336.546H10.4471C5.18955 336.546 0.927734 332.28 0.927734 327.019V10.4557C0.927734 5.19495 5.18955 0.92865 10.4471 0.92865H455.55C460.81 0.92865 465.07 5.19495 465.07 10.4557V327.019C465.07 332.28 460.81 336.546 455.55 336.546Z" fill="#5BBE59"/>
<path d="M11.2537 1.86023C6.07289 1.86023 1.8582 6.07794 1.8582 11.2615V326.213C1.8582 331.4 6.07289 335.617 11.2537 335.617H454.749C459.929 335.617 464.144 331.4 464.144 326.213V11.2615C464.144 6.07794 459.929 1.86023 454.749 1.86023H11.2537ZM454.749 337.475H11.2537C5.04827 337.475 0 332.423 0 326.213V11.2615C0 5.05209 5.04827 -3.05176e-05 11.2537 -3.05176e-05H454.749C460.954 -3.05176e-05 466 5.05209 466 11.2615V326.213C466 332.423 460.954 337.475 454.749 337.475Z" fill="#076411"/>
<path d="M456.643 288.377H9.35352V12.7646H456.643V288.377Z" fill="white"/>
<path d="M10.284 287.448H455.716V13.6931H10.284V287.448ZM457.576 289.308H8.42578V11.8357H457.576V289.308Z" fill="#076411"/>
<path d="M279.624 48.7183H178.453V36.8852H279.624V48.7183Z" fill="#5BBE59"/>
<path d="M360.203 64.7002H97.875V60.2739H360.203V64.7002Z" fill="#5BBE59"/>
<path d="M410.667 197.15H309.453V192.724H410.667V197.15Z" fill="#076411"/>
<path d="M396.608 208.149H309.453V203.722H396.608V208.149Z" fill="#076411"/>
<path d="M364.425 219.147H309.453V214.721H364.425V219.147Z" fill="#076411"/>
<path d="M398.476 239.619H309.453V235.192H398.476V239.619Z" fill="#5BBE59"/>
<path d="M386.111 250.617H309.453V246.188H386.111V250.617Z" fill="#5BBE59"/>
<path d="M90.6793 249.254H47.7188V181.871H90.6793V249.254Z" fill="#5BBE59"/>
<path d="M149.876 204.022H101.584V181.765H149.876V204.022Z" fill="#076411"/>
<path d="M149.876 249.349H101.584V214.87H149.876V249.349Z" fill="#5BBE59"/>
<path d="M184.328 192.146C181.115 192.146 178.499 194.761 178.499 197.976V242.919C178.499 246.134 181.115 248.749 184.328 248.749H273.748C276.963 248.749 279.576 246.134 279.576 242.919V197.976C279.576 194.761 276.963 192.146 273.748 192.146H184.328ZM273.748 249.832H184.328C180.518 249.832 177.42 246.731 177.42 242.919V197.976C177.42 194.164 180.518 191.063 184.328 191.063H273.748C277.557 191.063 280.658 194.164 280.658 197.976V242.919C280.658 246.731 277.557 249.832 273.748 249.832Z" fill="#076411"/>
<path d="M188.165 237.373L187.197 236.887L193.306 224.662L200.856 232.575L209.846 213.146L221.902 224.479L235.164 211.206L248.129 219.133L264.763 201.779L265.546 202.528L248.309 220.51L235.327 212.572L221.925 225.985L210.2 214.961L201.17 234.472L193.585 226.522L188.165 237.373Z" fill="#3EEA3A"/>
<path d="M243.894 240.284H233.625V234.875H243.894V240.284Z" fill="#076411"/>
<path d="M268.487 238.121H250.65V237.041H268.487V238.121Z" fill="#3EEA3A"/>
<path d="M269.352 118.768C265.725 105.249 255.49 94.4444 242.32 90.0238L229.041 129.621L269.352 118.768Z" fill="#5BBE59"/>
<path d="M229.039 129.621L210.562 167.08C216.131 169.835 222.402 171.392 229.039 171.392C252.093 171.392 270.78 152.692 270.78 129.621C270.78 125.866 270.278 122.231 269.35 118.768L229.039 129.621Z" fill="#076411"/>
<path d="M242.318 90.0238C238.146 88.6208 233.683 87.8521 229.039 87.8521C205.985 87.8521 187.295 106.552 187.295 129.621C187.295 146.051 196.779 160.256 210.563 167.08L229.039 129.621L242.318 90.0238Z" fill="#3EEA3A"/>
<path d="M128.196 163.38H69.3984V158.953H128.196V163.38Z" fill="#5BBE59"/>
<path d="M48.2606 148.18H149.335V90.6238H48.2606V148.18ZM150.418 149.263H47.1797V89.5408H150.418V149.263Z" fill="#076411"/>
<path d="M142.851 102.58C139.424 101.891 136.031 104.123 133.864 106.875C132.836 108.18 131.988 109.609 131.154 111.049C130.229 112.65 129.318 114.258 128.201 115.724C126.076 118.51 122.778 120.839 119.326 120.314C113.723 119.459 110.659 111.764 104.993 111.864C102.349 111.91 100.081 113.741 98.2764 115.687C96.4744 117.633 94.8267 119.845 92.4822 121.074C89.201 122.791 85.152 122.234 81.7508 120.771C78.35 119.311 75.3672 117.033 72.134 115.227C66.7182 112.204 60.5617 110.604 54.3691 110.441V139.656H143.222V112.781V102.677C143.099 102.643 142.979 102.605 142.851 102.58Z" fill="#5BBE59"/>
<path d="M81.7508 120.771C85.152 122.234 89.201 122.791 92.4822 121.074C94.8267 119.845 96.4744 117.633 98.2764 115.687C100.081 113.741 102.349 111.91 104.993 111.864C110.659 111.764 113.723 119.459 119.326 120.314C122.778 120.839 126.076 118.511 128.201 115.724C129.318 114.259 130.229 112.65 131.154 111.05C127.713 111.21 124.272 111.378 121.287 109.786C118.323 108.203 116.376 105.114 113.42 103.514C108.111 100.642 101.617 103.383 96.3288 106.292C93.1675 108.032 89.6416 109.898 86.14 109.041C82.1789 108.072 79.8578 104.034 76.5592 101.625C70.2436 97.0162 60.7573 99.2536 55.3589 104.92L55.3486 104.932C54.7027 105.609 54.3691 106.48 54.3691 107.372V110.441C60.5617 110.604 66.7182 112.204 72.134 115.227C75.3672 117.033 78.35 119.311 81.7508 120.771Z" fill="#076411"/>
<path d="M309.023 171.941H409.939V90.701H309.023V171.941ZM411.179 173.178H307.783V89.4609H411.179V173.178Z" fill="#076411"/>
<path d="M324.889 160.754H335.697V124.337H324.889V160.754Z" fill="#076411"/>
<path d="M324.889 105.946V124.337H335.697V105.946H324.889Z" fill="#5BBE59"/>
<path d="M344.35 105.946V133.261H355.158V105.946H344.35Z" fill="#5BBE59"/>
<path d="M344.35 160.754H355.158V133.261H344.35V160.754Z" fill="#076411"/>
<path d="M363.807 160.754H374.615V117.982H363.807V160.754Z" fill="#076411"/>
<path d="M363.807 105.946V117.982H374.615V105.946H363.807Z" fill="#5BBE59"/>
<path d="M383.266 133.936V160.754H394.074V133.936H383.266Z" fill="#076411"/>
<path d="M394.074 105.946H383.266V133.935H394.074V105.946Z" fill="#5BBE59"/>
</svg>
