<svg width="52" height="52" viewBox="0 0 52 52" fill="none" xmlns="http://www.w3.org/2000/svg">
<path d="M27.0286 16.001C27.7583 15.9982 28.488 16.0055 29.2176 16.023L29.4116 16.03C29.6356 16.038 29.8566 16.048 30.1236 16.06C31.1876 16.11 31.9136 16.278 32.5506 16.525C33.2106 16.779 33.7666 17.123 34.3226 17.679C34.831 18.1786 35.2244 18.7829 35.4756 19.45C35.7226 20.087 35.8906 20.814 35.9406 21.878C35.9526 22.144 35.9626 22.366 35.9706 22.59L35.9766 22.784C35.9943 23.5132 36.002 24.2426 35.9996 24.972L36.0006 25.718V27.028C36.003 27.7577 35.9954 28.4875 35.9776 29.217L35.9716 29.411C35.9636 29.635 35.9536 29.856 35.9416 30.123C35.8916 31.187 35.7216 31.913 35.4756 32.55C35.2252 33.2178 34.8317 33.8226 34.3226 34.322C33.8225 34.8303 33.2179 35.2238 32.5506 35.475C31.9136 35.722 31.1876 35.89 30.1236 35.94C29.8566 35.952 29.6356 35.962 29.4116 35.97L29.2176 35.976C28.4881 35.9938 27.7583 36.0014 27.0286 35.999L26.2826 36H24.9736C24.2438 36.0025 23.5141 35.9948 22.7846 35.977L22.5906 35.971C22.3532 35.9624 22.1158 35.9524 21.8786 35.941C20.8146 35.891 20.0886 35.721 19.4506 35.475C18.7833 35.2243 18.1788 34.8308 17.6796 34.322C17.1706 33.8223 16.7768 33.2176 16.5256 32.55C16.2786 31.913 16.1106 31.187 16.0606 30.123C16.0494 29.8857 16.0394 29.6484 16.0306 29.411L16.0256 29.217C16.0071 28.4875 15.9988 27.7577 16.0006 27.028V24.972C15.9978 24.2426 16.0051 23.5132 16.0226 22.784L16.0296 22.59C16.0376 22.366 16.0476 22.144 16.0596 21.878C16.1096 20.813 16.2776 20.088 16.5246 19.45C16.7759 18.7826 17.1705 18.1784 17.6806 17.68C18.1795 17.1708 18.7835 16.7766 19.4506 16.525C20.0886 16.278 20.8136 16.11 21.8786 16.06L22.5906 16.03L22.7846 16.025C23.5138 16.0066 24.2432 15.9982 24.9726 16L27.0286 16.001ZM26.0006 21.001C25.3381 20.9916 24.6803 21.114 24.0656 21.3611C23.4508 21.6081 22.8912 21.9749 22.4194 22.4401C21.9476 22.9052 21.573 23.4595 21.3173 24.0708C21.0616 24.682 20.9299 25.3379 20.9299 26.0005C20.9299 26.6631 21.0616 27.319 21.3173 27.9302C21.573 28.5415 21.9476 29.0958 22.4194 29.5609C22.8912 30.0261 23.4508 30.3929 24.0656 30.6399C24.6803 30.887 25.3381 31.0094 26.0006 31C27.3267 31 28.5984 30.4732 29.5361 29.5355C30.4738 28.5979 31.0006 27.3261 31.0006 26C31.0006 24.6739 30.4738 23.4021 29.5361 22.4645C28.5984 21.5268 27.3267 21.001 26.0006 21.001ZM26.0006 23.001C26.3991 22.9937 26.7951 23.0658 27.1654 23.2132C27.5357 23.3606 27.8729 23.5803 28.1574 23.8595C28.4418 24.1387 28.6678 24.4718 28.822 24.8393C28.9763 25.2069 29.0558 25.6014 29.0558 26C29.0559 26.3986 28.9766 26.7932 28.8224 27.1607C28.6683 27.5283 28.4424 27.8614 28.1581 28.1407C27.8737 28.42 27.5366 28.6399 27.1663 28.7874C26.796 28.9349 26.4001 29.0072 26.0016 29C25.2059 29 24.4429 28.6839 23.8803 28.1213C23.3176 27.5587 23.0016 26.7957 23.0016 26C23.0016 25.2044 23.3176 24.4413 23.8803 23.8787C24.4429 23.3161 25.2059 23 26.0016 23L26.0006 23.001ZM31.2506 19.501C30.928 19.5139 30.6229 19.6512 30.3992 19.884C30.1755 20.1168 30.0506 20.4271 30.0506 20.75C30.0506 21.0729 30.1755 21.3832 30.3992 21.616C30.6229 21.8489 30.928 21.9861 31.2506 21.999C31.5821 21.999 31.9 21.8673 32.1345 21.6329C32.3689 21.3985 32.5006 21.0805 32.5006 20.749C32.5006 20.4175 32.3689 20.0995 32.1345 19.8651C31.9 19.6307 31.5821 19.499 31.2506 19.499V19.501Z" fill="white"/>
<rect x="0.5" y="0.5" width="51" height="51" rx="25.5" stroke="#ECEFEC"/>
</svg>
