<svg width="52" height="52" viewBox="0 0 52 52" fill="none" xmlns="http://www.w3.org/2000/svg">
<g clip-path="url(#clip0_6034_36246)">
<path fill-rule="evenodd" clip-rule="evenodd" d="M32 17C32.7956 17 33.5587 17.3161 34.1213 17.8787C34.6839 18.4413 35 19.2044 35 20V32C35 32.7956 34.6839 33.5587 34.1213 34.1213C33.5587 34.6839 32.7956 35 32 35H20C19.2044 35 18.4413 34.6839 17.8787 34.1213C17.3161 33.5587 17 32.7956 17 32V20C17 19.2044 17.3161 18.4413 17.8787 17.8787C18.4413 17.3161 19.2044 17 20 17H32ZM22 24C21.7348 24 21.4804 24.1054 21.2929 24.2929C21.1054 24.4804 21 24.7348 21 25V30C21 30.2652 21.1054 30.5196 21.2929 30.7071C21.4804 30.8946 21.7348 31 22 31C22.2652 31 22.5196 30.8946 22.7071 30.7071C22.8946 30.5196 23 30.2652 23 30V25C23 24.7348 22.8946 24.4804 22.7071 24.2929C22.5196 24.1054 22.2652 24 22 24ZM25 23C24.7348 23 24.4804 23.1054 24.2929 23.2929C24.1054 23.4804 24 23.7348 24 24V30C24 30.2652 24.1054 30.5196 24.2929 30.7071C24.4804 30.8946 24.7348 31 25 31C25.2652 31 25.5196 30.8946 25.7071 30.7071C25.8946 30.5196 26 30.2652 26 30V26.34C26.3901 25.9156 26.8646 25.5774 27.393 25.347C27.726 25.205 28.227 25.147 28.575 25.257C28.6904 25.2863 28.7933 25.3523 28.868 25.445C28.92 25.515 29 25.671 29 26V30C29 30.2652 29.1054 30.5196 29.2929 30.7071C29.4804 30.8946 29.7348 31 30 31C30.2652 31 30.5196 30.8946 30.7071 30.7071C30.8946 30.5196 31 30.2652 31 30V26C31 25.33 30.83 24.734 30.476 24.256C30.1503 23.8226 29.6944 23.5047 29.175 23.349C28.273 23.066 27.274 23.223 26.607 23.509C26.3933 23.6005 26.1852 23.7047 25.984 23.821C25.9421 23.5906 25.8206 23.3822 25.6408 23.2322C25.461 23.0821 25.2342 23 25 23ZM22 21C21.7348 21 21.4804 21.1054 21.2929 21.2929C21.1054 21.4804 21 21.7348 21 22C21 22.2652 21.1054 22.5196 21.2929 22.7071C21.4804 22.8946 21.7348 23 22 23C22.2652 23 22.5196 22.8946 22.7071 22.7071C22.8946 22.5196 23 22.2652 23 22C23 21.7348 22.8946 21.4804 22.7071 21.2929C22.5196 21.1054 22.2652 21 22 21Z" fill="white"/>
</g>
<rect x="0.5" y="0.5" width="51" height="51" rx="25.5" stroke="#ECEFEC"/>
<defs>
<clipPath id="clip0_6034_36246">
<rect width="24" height="24" fill="white" transform="translate(14 14)"/>
</clipPath>
</defs>
</svg>
