<svg width="150" height="150" viewBox="0 0 150 150" fill="none" xmlns="http://www.w3.org/2000/svg">
<path d="M72.5538 144.332C73.4693 144.514 74.368 144.743 75.2983 144.883C79.1231 145.367 83.038 145.483 86.9783 145.221C94.8617 144.533 102.323 142.461 109.009 139.051C115.785 135.696 121.113 130.327 124.808 124.534C130.701 115.266 133.304 102.396 130.86 89.5898C128.994 79.4528 124.494 72.1553 120.87 67.8439C119.086 65.748 117.535 64.2945 116.384 63.3571C117.958 62.6993 119.384 62.1563 121.01 61.3894C121.856 60.9556 122.915 60.3006 123.54 59.1436C124.143 58.0146 124.149 56.904 124.133 56.073C123.586 46.1994 123.016 39.3604 122.522 36.9124C125.075 36.0032 127.782 35.068 130.68 34.1384C132.005 33.6708 133.36 33.1841 134.746 32.5186C135.439 32.2087 136.143 31.7989 136.851 31.3545C137.548 30.8108 138.325 30.315 138.903 29.122C139.227 28.5354 139.268 27.8529 139.242 27.1867C139.1 26.5374 138.865 25.8458 138.544 25.4627C137.932 24.5239 137.223 23.9697 136.529 23.4338C135.125 22.3823 133.67 21.5971 132.179 20.8541C119.82 14.8274 104.193 10.436 91.0101 6.49368C87.1896 5.42885 83.0063 4.16472 78.3153 4.82601C73.8531 5.52815 69.9643 7.3078 66.1057 8.88462C58.4843 11.8685 50.6234 14.7158 43.3717 17.7878C39.7145 19.309 36.1391 20.8428 32.6579 22.3929C30.8966 23.1992 29.2599 23.857 27.4028 24.8444C26.4669 25.3859 25.6619 25.7916 24.583 26.9945C24.0492 27.6015 23.659 28.467 23.6062 29.2952C23.5935 29.4875 23.6653 29.6664 23.6907 29.8537C21.476 35.0298 19.3127 45.7752 19.3617 51.2207C18.0278 51.4566 16.6686 51.9419 15.3721 52.7454C13.8248 53.7419 12.2741 55.2103 11.5036 57.2364C10.6585 59.195 10.531 61.5373 11.0959 63.5684C11.891 67.8657 15.7263 71.2891 19.8082 71.4257C23.9604 71.494 26.719 68.9432 28.105 66.7227C29.5177 64.41 29.7444 62.2049 29.6043 60.7901C29.4627 59.352 29.0106 58.6562 28.7536 58.6978C28.1268 58.709 28.3986 61.8542 25.7415 65.0241C24.4865 66.5128 22.2526 67.8974 20.0631 67.6411C17.9229 67.4143 15.5707 65.4255 15.1038 62.6268C14.3051 59.8119 15.4559 57.3343 17.4757 55.9019C19.4849 54.4321 22.0125 54.0286 23.8139 54.4927C25.6654 54.8983 26.7859 56.0801 27.4817 57.0435C28.05 58.0653 28.4599 58.7407 28.7536 58.6978C29.0163 58.6675 29.1705 57.8998 28.9634 56.4336C28.6465 55.0427 27.4239 52.806 24.7344 51.7313C23.8921 51.3757 22.9428 51.1658 21.9449 51.0897C23.8135 46.4351 25.4781 38.5609 25.9492 33.0334L25.9746 33.0517C26.4422 33.3334 26.9105 33.6088 27.362 33.8088C28.2747 34.2532 29.1606 34.5687 30.0431 34.8793C36.5423 37.0439 34.2002 36.2654 37.4025 37.3244C36.8701 38.5245 36.27 45.91 35.7116 57.278C35.6524 58.8224 35.4968 60.7147 36.3412 62.769C36.6081 63.4184 37.0447 64.0156 37.5405 64.5663C36.9039 64.9522 35.8834 65.7551 34.4284 67.046C33.3495 68.0967 32.1544 69.5228 30.8227 71.2208C29.6254 73.0096 28.243 75.0618 27.1303 77.5534C24.8027 82.467 22.9949 88.8271 22.6371 96.0442C22.2315 103.24 23.3407 111.327 26.75 119.042C29.9867 126.842 35.8116 133.034 41.7865 137.02C47.8078 141.098 54.1123 143.307 59.4758 144.154C64.8486 145.094 69.2713 144.781 72.2341 144.387C72.3552 144.37 72.4376 144.35 72.5538 144.332V144.332ZM119.599 68.8193C122.713 73.2744 126.589 80.4331 127.99 90.0799C129.443 99.5458 128.466 111.808 121.611 122.494C118.149 127.711 113.325 132.479 107.168 135.463C101.048 138.537 93.9398 140.493 86.6628 141.116C83.0063 141.357 79.3843 141.254 75.8511 140.825C72.332 140.305 68.9227 139.467 65.6817 138.311C59.2695 135.873 53.508 132.239 49.0755 127.747C38.1406 116.841 34.7176 99.5844 37.9039 84.7142C38.0272 84.5938 38.111 84.4607 38.1342 84.3121C38.1589 84.1663 38.1412 84.0177 38.0891 83.8663C38.8173 80.7296 39.7533 78.0344 40.6843 75.7998C40.847 75.6639 40.9723 75.5118 41.0054 75.3301C41.0252 75.2343 41.0111 75.1343 41.0026 75.0357C41.0406 74.9484 41.0794 74.847 41.1174 74.761C42.7717 71.2468 44.2112 69.0256 44.8098 67.9298C47.3522 68.6488 49.9142 69.3418 52.6657 70.1081C67.7555 74.1582 63.4582 73.0126 71.7714 75.2026C73.9792 75.7554 76.3321 76.5076 79.0745 76.659C81.8654 76.8189 84.5092 76.0674 86.7508 75.2343C94.7207 72.1131 90.8204 73.6601 105.171 67.9277C108.821 66.4403 112.285 65.029 115.55 63.6987C116.508 64.8029 117.934 66.4685 119.599 68.8193V68.8193ZM53.5707 139.185C51.0114 138.146 48.4036 136.79 45.8113 135.103C47.2958 134.776 48.5444 134.029 49.2494 133.177C49.2691 133.153 49.2748 133.134 49.2931 133.11C51.2678 134.828 53.4165 136.394 55.7215 137.806C55.5771 137.855 55.4285 137.893 55.2891 137.95C54.6355 138.254 54.0186 138.675 53.5707 139.185V139.185ZM30.517 117.382C29.9487 116.099 29.467 114.798 29.0254 113.493C31.1542 114.966 34.2418 115.454 36.7644 114.596C37.475 116.615 38.3715 118.633 39.4152 120.63C38.6053 120.658 37.7173 120.682 36.7792 120.623C34.7813 120.577 33.0453 120.208 31.8685 120.23C31.3839 119.309 30.9276 118.365 30.517 117.382ZM26.8042 103.816C29.1624 105.458 32.2319 105.822 34.4122 105.026C34.6996 107.053 35.158 109.129 35.7278 111.224C34.9792 111.099 34.1601 110.982 33.3044 110.838C31.1199 110.527 29.1656 110.109 28.088 110.386C27.507 108.189 27.0746 105.988 26.8042 103.816V103.816ZM28.6113 82.2078C30.3062 83.8962 32.9156 85.1251 35.3672 85.2614C34.9735 86.8523 34.6305 88.5221 34.3812 90.3067C33.5699 89.8236 32.6143 89.3144 31.6149 88.7665C30.0297 87.9341 28.586 87.146 27.4641 86.7488C27.7866 85.1544 28.1782 83.6459 28.6113 82.2078ZM34.0235 93.6322C33.7946 96.7599 33.8593 99.2523 34.1024 102.116C33.1418 101.788 31.9227 101.496 30.6417 101.129C29.0268 100.712 27.593 100.279 26.4936 100.144C26.31 96.5709 26.4473 93.7537 26.9091 90.2757C27.6085 91.0279 31.6232 93.5478 34.0235 93.6322ZM87.4311 46.1895C84.4247 46.5015 80.7323 46.7374 76.549 46.1015C72.3284 45.5022 67.6198 44.2282 62.4844 42.4486C47.1865 37.0034 44.6094 36.0798 31.2656 31.3756C30.4874 31.0883 29.6994 30.7904 29.0085 30.4361C28.643 30.2699 28.343 30.0749 28.0402 29.8939L27.6599 29.6178L27.5754 29.5305C27.5437 29.4607 27.5261 29.4164 27.6254 29.3234C27.7789 29.1727 28.5613 28.5628 29.2571 28.2375C30.6846 27.4931 32.5382 26.7444 34.2362 25.9937C37.706 24.4922 41.2667 23.0021 44.9056 21.5175C52.2087 18.4857 59.7301 15.8004 67.6888 12.6848C71.5446 11.0882 75.2912 9.44098 78.916 8.87757C82.3711 8.33248 86.1776 9.329 89.889 10.3671C102.842 14.1432 118.562 18.3513 130.687 23.9246C132.095 24.581 133.453 25.2902 134.559 26.0796C135.107 26.4585 135.623 26.9057 135.841 27.2473C136.158 27.6001 136.029 27.6191 136.02 27.8353C135.846 28.3199 134.538 29.2537 133.391 29.7896C132.209 30.4059 130.933 30.9143 129.69 31.401C119.322 35.1215 111.302 38.9921 105.62 41.207C99.9633 43.5204 96.7611 44.6296 96.842 44.9226C96.9097 45.1782 100.287 44.5831 106.166 42.7141C110.276 41.4788 115.505 39.4287 121.785 37.1765C121.446 39.8449 121.262 46.591 121.222 56.0737C121.117 57.6139 120.995 57.8745 119.627 58.5294C118.279 59.0879 116.443 59.7027 114.773 60.3295C101.082 65.3981 106.487 63.3754 91.6996 68.9658C87.4692 70.4236 83.169 72.7835 79.2794 72.5476C77.254 72.4518 75.0701 71.8074 72.7961 71.2377C64.6839 69.1791 68.3397 70.0965 53.6151 66.4354C49.6691 65.4466 45.6767 64.5543 42.3653 63.6726C40.7512 63.1831 39.7526 62.5465 39.2364 61.4612C38.6913 60.3682 38.6272 58.8745 38.6222 57.3336C38.5032 46.2579 38.2011 38.9435 37.7363 37.435C44.5361 39.6827 55.8133 43.4199 61.5872 45.2177C66.8698 46.8501 71.8348 47.9833 76.2772 48.3868C80.759 48.8368 84.6226 48.3403 87.667 47.7748C93.7729 46.5487 96.9068 45.1416 96.842 44.9226C96.7582 44.5951 93.449 45.4797 87.4311 46.1895V46.1895ZM37.9807 65.0036C38.1342 65.1459 38.2596 65.3184 38.4244 65.4445C39.3462 66.1417 40.3329 66.5699 41.2843 66.9107C42.2829 67.2213 43.2802 67.4903 44.2746 67.7749C44.0379 68.0214 43.7689 68.3115 43.4323 68.6974C42.4703 69.6918 41.3519 71.3461 40.0251 73.4962C38.7944 72.3655 35.932 70.6215 34.2277 70.0975C35.9602 67.4763 37.4032 65.8579 37.9807 65.0036ZM32.6692 72.649C33.8598 74.5954 36.265 76.0637 38.5617 76.2386C37.7483 77.9379 36.9588 79.9162 36.2546 82.1134C34.6267 81.0802 31.4859 79.5763 29.6818 79.0626C29.7247 78.9499 29.7585 78.8196 29.8022 78.7084C30.698 76.3766 31.6896 74.373 32.6692 72.649ZM34.3869 124.331C35.0735 124.539 35.8059 124.701 36.6025 124.735C38.4166 124.813 40.0286 124.325 41.1611 123.666C42.6435 126.019 44.3337 128.309 46.3803 130.416C46.5437 130.586 46.7387 130.734 46.9057 130.901C46.1169 131.039 45.2267 131.158 44.1894 131.165C42.9133 131.145 41.5681 131.059 40.4547 131.089C38.2469 129.126 36.1848 126.876 34.3869 124.331ZM58.2821 140.799C58.6202 140.451 58.8596 140.072 59.0012 139.702C60.7005 140.579 62.4569 141.383 64.2753 142.09C64.2943 142.097 64.3148 142.102 64.3331 142.108C62.983 141.902 61.5745 141.652 60.0576 141.302C59.4843 141.169 58.8737 140.964 58.2821 140.799Z" fill="#2864FF"/>
<path d="M87.252 97.7577C85.6308 97.4112 84.2244 97.3859 82.9187 97.2887C80.2968 97.1675 78.3003 96.7098 77.377 95.4633C76.3882 94.2477 76.3375 92.1737 77.0171 90.7504C77.6847 89.2982 79.1073 88.2193 80.5651 87.6728C83.5512 86.534 86.4428 87.3355 88.2795 87.9644C90.1521 88.6398 91.2021 89.1729 91.3782 88.9243C91.5338 88.7165 90.8183 87.7376 88.9894 86.5277C87.7844 85.7713 85.866 84.803 83.4265 84.5945C83.449 84.3347 83.4786 84.0755 83.4448 83.7973C83.254 82.2268 82.1849 81.0641 81.0567 81.2014C79.9278 81.3381 79.1679 82.7226 79.358 84.2931C79.3869 84.5304 79.47 84.7354 79.5362 84.9509C77.5347 85.5248 75.3346 86.7911 73.9839 89.1834C72.6965 91.5772 72.3909 94.8668 74.3135 97.7C75.2917 99.1035 76.7889 100.051 78.2904 100.542C82.2577 101.885 86.1066 100.697 89.4077 103.13C91.281 104.466 92.2804 106.393 91.9163 108.125C91.6099 109.895 90.0042 111.563 88.2246 112.505C84.4956 114.477 80.1496 114.135 77.0819 112.896C73.9177 111.651 71.7669 109.652 70.3732 108.24C68.9823 106.797 68.2661 105.874 67.9999 106.017C67.7661 106.137 67.9992 107.331 69.0978 109.211C71.9196 113.873 76.8433 117.042 82.5596 117.322C82.1152 117.864 81.8588 118.64 81.968 119.509C82.1511 120.96 83.2138 122.021 84.3413 121.879C85.4688 121.737 86.2351 120.445 86.0527 118.994C85.9611 118.27 85.6505 117.642 85.2216 117.213C86.7703 117.027 88.3556 116.629 89.9345 115.891C92.4445 114.649 95.0558 112.474 95.8692 108.926C96.2347 107.193 95.9932 105.246 95.1748 103.663C93.7178 100.648 90.4497 98.4384 87.252 97.7577Z" fill="#2864FF"/>
</svg>
