<svg width="110" height="19" viewBox="0 0 110 19" fill="none" xmlns="http://www.w3.org/2000/svg">
<path d="M17.9512 5.98373V17.2876C17.9512 17.6535 17.6542 17.9505 17.2883 17.9505H5.98401V12.6511H11.9887C12.3546 12.6511 12.6502 12.3541 12.6502 11.9882V5.98373H17.9512Z" fill="#1957F0"/>
<path d="M0.662912 0H11.9672V11.3038C11.9672 11.6697 11.6702 11.9667 11.3043 11.9667H0V0.662885C0 0.297002 0.297014 0 0.662912 0Z" fill="#1957F0"/>
<path d="M12.6509 0H17.2513C17.6372 0 17.9505 0.313296 17.9505 0.699177V5.29937H12.6509V0Z" fill="#1957F0"/>
<path d="M5.30029 12.6511V17.9512H0.699165C0.313269 17.9512 -4.02937e-05 17.6379 -4.02937e-05 17.252V12.6511H5.30029Z" fill="#1957F0"/>
<path d="M23.7866 19V4.04727C23.7866 2.85669 24.1785 1.8845 24.9613 1.1307C25.744 0.3769 26.7286 0 27.9127 0C29.0968 0 30.059 0.341676 30.8358 1.0262C31.6126 1.71073 32.001 2.57842 32.001 3.62928C32.001 4.35138 31.8098 4.96311 31.4273 5.46329C31.0448 5.96348 30.5289 6.30868 29.8795 6.49889C30.7071 6.67618 31.4048 7.10122 31.9715 7.77166C32.5382 8.44327 32.8215 9.26635 32.8215 10.2421C32.8215 11.496 32.3788 12.5129 31.4934 13.2913C30.608 14.0709 29.497 14.4596 28.1594 14.4596C27.5609 14.4596 27.0131 14.3457 26.5161 14.1179V11.9328C26.9612 12.1864 27.4133 12.3132 27.8726 12.3132C28.6234 12.3132 29.2385 12.0913 29.7166 11.6487C30.1947 11.2049 30.4332 10.6225 30.4332 9.90038C30.4332 9.21586 30.1947 8.66518 29.7166 8.24719C29.2385 7.82919 28.5608 7.61315 27.6825 7.60141V5.758C28.3578 5.73217 28.876 5.549 29.2397 5.20733C29.6033 4.86565 29.7839 4.4277 29.7839 3.89581C29.7839 3.36392 29.6092 2.9107 29.2585 2.5749C28.9079 2.23909 28.4593 2.07119 27.9115 2.07119C27.3637 2.07119 26.9057 2.25436 26.5361 2.62186C26.1666 2.98937 25.9825 3.4649 25.9825 4.04727V19H23.7854H23.7866Z" fill="#1957F0"/>
<path d="M38.5155 4.56036C39.9168 4.56036 41.0596 5.00067 41.945 5.88128C42.8305 6.76188 43.285 7.95599 43.311 9.46241C43.311 9.76652 43.3039 10.0072 43.2921 10.1845H35.7647C35.8792 10.9324 36.1909 11.5113 36.7009 11.9234C37.2098 12.3355 37.8154 12.541 38.5155 12.541C39.6358 12.541 40.4953 12.1547 41.095 11.3821L42.566 12.5986C42.1198 13.1938 41.5342 13.66 40.8082 13.9946C40.0821 14.3304 39.3242 14.4983 38.5344 14.4983C37.1212 14.4983 35.9359 14.0204 34.9808 13.0635C34.0257 12.1078 33.5476 10.9395 33.5476 9.55869C33.5476 8.1779 34.0222 6.95209 34.9714 5.99634C35.9206 5.03941 37.1011 4.56154 38.5155 4.56154V4.56036ZM38.5344 6.40377C37.8461 6.40377 37.2605 6.60337 36.7765 7.00258C36.2924 7.40179 35.9678 7.95012 35.8025 8.64638H41.1706C40.9923 7.92429 40.6771 7.37009 40.2249 6.9838C39.7728 6.5975 39.2085 6.40377 38.5344 6.40377Z" fill="#1957F0"/>
<path d="M48.8892 14.2882C47.8574 14.2882 47.0239 13.997 46.3864 13.4134C45.7489 12.831 45.4313 12.0455 45.4313 11.0569V6.91571H43.3677V4.84452H45.4313V2.10876H47.7807V4.84452H50.4358V6.91571H47.7807V10.545C47.7807 11.597 48.3285 12.1219 49.424 12.1219C49.7676 12.1219 50.1052 12.0643 50.437 11.9504L50.6849 14.0028C50.0604 14.1931 49.4618 14.2882 48.8892 14.2882Z" fill="#1957F0"/>
<path d="M55.5559 14.4021C54.295 14.4021 53.2372 13.9359 52.3849 13.0048C51.5313 12.0737 51.1051 10.9243 51.1051 9.55637C51.1051 8.1885 51.5289 7.02022 52.3754 6.08913C53.2219 5.15803 54.282 4.69189 55.5559 4.69189C56.9442 4.69189 58.0327 5.16038 58.8225 6.09852V4.84453H61.2108V14.2494H58.8225V13.0142C58.0197 13.9395 56.9312 14.4009 55.5559 14.4009V14.4021ZM54.2466 11.5325C54.7625 12.0643 55.3965 12.3309 56.1473 12.3309C56.8982 12.3309 57.5322 12.0643 58.0481 11.5325C58.564 11.0006 58.8214 10.3419 58.8214 9.55637C58.8214 8.77087 58.564 8.09339 58.0481 7.5615C57.5322 7.02962 56.8982 6.76308 56.1473 6.76308C55.3965 6.76308 54.7625 7.02962 54.2466 7.5615C53.7307 8.09339 53.4733 8.75913 53.4733 9.55637C53.4733 10.3536 53.7319 11.0006 54.2466 11.5325Z" fill="#1957F0"/>
<path d="M62.1553 12.9755L63.3429 11.0663C63.7797 11.4068 64.2012 11.6886 64.6073 11.9129C65.0123 12.1371 65.4219 12.3015 65.834 12.4095C66.246 12.5164 66.6639 12.5704 67.0889 12.5704C67.6343 12.5704 68.1077 12.487 68.5103 12.3203C68.9129 12.1536 69.2246 11.9223 69.4465 11.6252C69.6685 11.3293 69.7794 10.9829 69.7794 10.5849C69.7794 10.1376 69.6449 9.76418 69.3757 9.46478C69.1065 9.16537 68.7535 8.90706 68.3155 8.68984C67.8775 8.47262 67.4088 8.2601 66.9083 8.05228C66.4526 7.86324 65.991 7.65894 65.5258 7.4382C65.0595 7.21746 64.6369 6.95446 64.2567 6.64918C63.8766 6.3439 63.5708 5.97287 63.3394 5.53844C63.108 5.104 62.9923 4.57799 62.9923 3.96039C62.9923 3.15962 63.1954 2.46218 63.6003 1.86689C64.0052 1.2716 64.566 0.811333 65.2826 0.48727C65.9981 0.163206 66.8162 0 67.7347 0C68.3805 0 69.0451 0.0833639 69.7263 0.250092C70.4075 0.416821 71.0804 0.670436 71.7463 1.01094L70.7487 3.0246C70.2989 2.76041 69.8208 2.55376 69.3131 2.40582C68.8066 2.25788 68.3214 2.18391 67.8586 2.18391C67.3959 2.18391 67.0015 2.25436 66.6568 2.39643C66.3109 2.5385 66.0417 2.74045 65.8493 3.00111C65.6557 3.26295 65.5589 3.56705 65.5589 3.91342C65.5589 4.3232 65.6876 4.66957 65.9437 4.95371C66.1999 5.23786 66.5376 5.48795 66.9555 5.70517C67.3734 5.92238 67.8209 6.1349 68.2955 6.34273C68.7712 6.55055 69.247 6.77246 69.7263 7.00964C70.2044 7.24564 70.6424 7.52509 71.0379 7.84563C71.4334 8.16735 71.751 8.55129 71.9883 8.99864C72.2256 9.44599 72.3448 9.98492 72.3448 10.6154C72.3448 11.435 72.1311 12.1547 71.7038 12.7759C71.2764 13.397 70.6755 13.8784 69.9022 14.2224C69.1289 14.5653 68.2258 14.7379 67.194 14.7379C66.2684 14.7379 65.3818 14.5899 64.533 14.294C63.6841 13.9981 62.892 13.5602 62.1565 12.9802L62.1553 12.9755Z" fill="#1957F0"/>
<path d="M81.6738 12.9943C81.211 13.5179 80.6502 13.9218 79.9915 14.2095C79.3327 14.496 78.6137 14.6392 77.8334 14.6392C76.87 14.6392 76.007 14.4255 75.2432 13.997C74.4794 13.5684 73.8773 12.9837 73.4369 12.244C72.9966 11.5031 72.777 10.6636 72.777 9.72426C72.777 8.78495 72.9966 7.94543 73.4369 7.20455C73.8773 6.46366 74.4794 5.88012 75.2432 5.45155C76.007 5.02299 76.87 4.8093 77.8334 4.8093C78.6067 4.8093 79.3209 4.95137 79.9761 5.23434C80.6313 5.5173 81.1909 5.91769 81.6537 6.43431L80.2854 7.88086C79.9997 7.57206 79.6562 7.33253 79.2548 7.16228C78.8522 6.99203 78.426 6.90749 77.9762 6.90749C77.4308 6.90749 76.948 7.02725 76.5265 7.26678C76.105 7.5063 75.7756 7.83741 75.5383 8.25893C75.3011 8.68045 75.1818 9.16654 75.1818 9.71487C75.1818 10.2632 75.3011 10.7505 75.5383 11.1755C75.7756 11.6005 76.105 11.9352 76.5265 12.1771C76.948 12.4201 77.4308 12.541 77.9762 12.541C78.426 12.541 78.8534 12.4541 79.2595 12.2815C79.6645 12.1078 80.0068 11.8706 80.2854 11.5677L81.6726 12.9954L81.6738 12.9943Z" fill="#1957F0"/>
<path d="M86.9639 14.6392C85.9947 14.6392 85.1281 14.4255 84.3643 13.997C83.6005 13.5684 82.9984 12.9837 82.558 12.244C82.1177 11.5031 81.8981 10.6636 81.8981 9.72426C81.8981 8.78495 82.1177 7.94543 82.558 7.20455C82.9984 6.46366 83.6005 5.88012 84.3643 5.45155C85.1281 5.02299 85.9947 4.8093 86.9639 4.8093C87.9332 4.8093 88.7891 5.02416 89.5494 5.45155C90.3097 5.88012 90.907 6.46484 91.3415 7.20455C91.776 7.94543 91.992 8.78495 91.992 9.72426C91.992 10.6636 91.7748 11.5031 91.3415 12.244C90.907 12.9849 90.3097 13.5696 89.5494 13.997C88.7891 14.4255 87.9273 14.6392 86.9639 14.6392ZM86.945 12.5504C87.4515 12.5504 87.9048 12.4271 88.3039 12.1817C88.7029 11.9363 89.0181 11.5994 89.2495 11.1708C89.4809 10.7422 89.5966 10.2573 89.5966 9.71487C89.5966 9.17242 89.4809 8.69806 89.2495 8.27302C89.0181 7.84798 88.7029 7.51218 88.3039 7.26678C87.9048 7.02138 87.4515 6.8981 86.945 6.8981C86.4386 6.8981 85.9935 7.02138 85.5909 7.26678C85.1883 7.51218 84.8719 7.84798 84.6405 8.27302C84.4092 8.69806 84.2935 9.17946 84.2935 9.71487C84.2935 10.2503 84.4092 10.7422 84.6405 11.1708C84.8719 11.5994 85.1883 11.9363 85.5909 12.1817C85.9935 12.4271 86.4445 12.5504 86.945 12.5504Z" fill="#1957F0"/>
<path d="M95.2385 14.4502H92.901V4.99716H94.9351L95.0201 6.71728C95.3495 6.11259 95.7946 5.64294 96.3554 5.3083C96.9161 4.97485 97.5607 4.80695 98.2891 4.80695C98.4792 4.80695 98.674 4.81986 98.8735 4.84452C99.073 4.86918 99.2714 4.90792 99.4674 4.95841L99.1817 7.05661C98.7885 6.94271 98.4084 6.88635 98.0412 6.88635C97.484 6.88635 96.9941 7.01551 96.5726 7.27382C96.1511 7.53213 95.8229 7.89025 95.5892 8.34699C95.3542 8.80373 95.2374 9.33444 95.2374 9.9403V14.449L95.2385 14.4502Z" fill="#1957F0"/>
<path d="M108.485 13.3535C107.299 14.2107 106.004 14.6392 104.597 14.6392C103.577 14.6392 102.661 14.4185 101.85 13.977C101.039 13.5355 100.396 12.932 99.9254 12.1665C99.4532 11.4009 99.217 10.5391 99.217 9.581C99.217 8.6229 99.4307 7.85149 99.8581 7.13291C100.285 6.41434 100.872 5.84722 101.616 5.43158C102.361 5.01593 103.201 4.80811 104.14 4.80811C105.079 4.80811 105.972 5.03706 106.711 5.49381C107.449 5.95055 108.024 6.58459 108.436 7.39357C108.848 8.20373 109.054 9.14422 109.054 10.215V10.518H101.735C101.85 10.9465 102.05 11.3246 102.338 11.6522C102.627 11.9798 102.987 12.2346 103.418 12.4177C103.848 12.6009 104.332 12.6913 104.872 12.6913C105.886 12.6913 106.823 12.3637 107.685 11.7086L108.483 13.3535H108.485ZM101.641 9.15596H106.887C106.836 8.68278 106.692 8.27066 106.455 7.91724C106.218 7.565 105.91 7.28907 105.533 7.09064C105.157 6.89221 104.733 6.79241 104.264 6.79241C103.795 6.79241 103.364 6.89339 102.99 7.09534C102.616 7.29729 102.313 7.57556 102.078 7.93133C101.843 8.28709 101.697 8.6957 101.641 9.15596V9.15596Z" fill="#1957F0"/>
</svg>
