<svg width="113" height="40" viewBox="0 0 113 40" fill="none" xmlns="http://www.w3.org/2000/svg">
<path d="M12.9411 13.8101C12.9411 14.7115 12.6477 15.5389 12.1569 16.1919C12.0741 16.0817 11.9876 15.9776 11.8936 15.8794C11.2466 15.1903 10.3513 14.7636 9.36393 14.7636H4V10H9.36581C11.3406 10 12.943 11.7047 12.943 13.8101H12.9411Z" fill="black"/>
<path d="M12.9416 13.8101V18.5717C12.9416 20.675 11.3411 22.3818 9.36439 22.3818H5.78906V17.6202H9.36627C10.3537 17.6202 11.247 17.1935 11.8959 16.5044C11.988 16.4062 12.0764 16.302 12.1592 16.1919C12.6501 15.5388 12.9435 14.7115 12.9435 13.8101H12.9416Z" fill="black"/>
<path d="M16.5187 21.4282C16.5187 22.3297 16.2253 23.157 15.7344 23.81C15.6517 23.6998 15.5652 23.5957 15.4711 23.4975C14.8241 22.8084 13.9289 22.3817 12.9415 22.3817H7.57568V17.6201H12.9415C14.9163 17.6201 16.5187 19.3248 16.5187 21.4302V21.4282Z" fill="black"/>
<path d="M16.5183 21.4282V26.1898C16.5183 28.2932 14.9178 29.9999 12.9411 29.9999H4V25.2383H12.9411C13.9285 25.2383 14.8219 24.8116 15.4708 24.1225C15.5629 24.0244 15.6513 23.9202 15.7341 23.81C16.2249 23.157 16.5183 22.3297 16.5183 21.4282Z" fill="black"/>
<path d="M20.5186 30V14.2585C20.5186 13.0048 20.9257 11.9838 21.7463 11.189C22.567 10.3942 23.5945 10 24.8352 10C26.0759 10 27.084 10.3619 27.8982 11.0792C28.7124 11.7964 29.1195 12.7141 29.1195 13.8191C29.1195 14.5816 28.9192 15.2213 28.5186 15.7512C28.1179 16.2811 27.5816 16.643 26.8966 16.8433C27.7625 17.0307 28.4927 17.4766 29.0872 18.1809C29.6817 18.8853 29.979 19.7577 29.979 20.7787C29.979 22.0969 29.5137 23.1696 28.5896 23.9903C27.6656 24.811 26.5024 25.2181 25.1001 25.2181C24.4733 25.2181 23.8982 25.0953 23.3812 24.8562V22.5557C23.8465 22.8207 24.3182 22.9564 24.8029 22.9564C25.5913 22.9564 26.231 22.7237 26.735 22.2585C27.2391 21.7932 27.4846 21.1793 27.4846 20.4168C27.4846 19.6995 27.2326 19.1179 26.735 18.6785C26.2375 18.2391 25.5266 18.0129 24.6026 18V16.0614C25.3069 16.0355 25.8497 15.8417 26.231 15.4798C26.6123 15.1179 26.7997 14.6591 26.7997 14.0969C26.7997 13.5347 26.6187 13.063 26.2504 12.7076C25.882 12.3522 25.4168 12.1777 24.8417 12.1777C24.2665 12.1777 23.7883 12.3716 23.4006 12.7593C23.0129 13.147 22.819 13.6446 22.819 14.2585V30H20.5186Z" fill="black"/>
<path d="M35.9367 14.795C37.4036 14.795 38.599 15.2603 39.5296 16.1844C40.4537 17.1084 40.9318 18.3685 40.9577 19.9517C40.9577 20.2748 40.9512 20.5269 40.9383 20.7143H33.0611C33.1839 21.5026 33.507 22.1101 34.0433 22.543C34.5797 22.976 35.2065 23.1957 35.9431 23.1957C37.1192 23.1957 38.0175 22.7886 38.6443 21.9744L40.1822 23.2538C39.717 23.8807 39.1031 24.3718 38.3406 24.7207C37.578 25.0761 36.7897 25.2506 35.9625 25.2506C34.4827 25.2506 33.242 24.7466 32.2404 23.7385C31.2388 22.7304 30.7412 21.5026 30.7412 20.0487C30.7412 18.5947 31.2388 17.3088 32.2339 16.3007C33.2291 15.2926 34.4633 14.7886 35.9431 14.7886L35.9367 14.795ZM35.9561 16.7336C35.2388 16.7336 34.6249 16.9404 34.1144 17.3605C33.6039 17.7805 33.2679 18.3556 33.0934 19.0923H38.7154C38.528 18.3298 38.1984 17.7482 37.7267 17.3411C37.2549 16.934 36.6604 16.7336 35.9561 16.7336Z" fill="black"/>
<path d="M46.7932 25.037C45.714 25.037 44.8416 24.7333 44.176 24.1194C43.5105 23.5055 43.1744 22.6783 43.1744 21.638V17.2761H41.0161V15.0984H43.1744V12.2163H45.6365V15.0984H48.4151V17.2761H45.6365V21.0951C45.6365 22.2002 46.2116 22.7559 47.3554 22.7559C47.7172 22.7559 48.0662 22.6977 48.4151 22.575L48.6736 24.7333C48.021 24.9336 47.3941 25.0305 46.7932 25.0305V25.037Z" fill="black"/>
<path d="M53.7778 25.1598C52.4595 25.1598 51.3481 24.6687 50.4563 23.693C49.5645 22.7107 49.1187 21.5023 49.1187 20.0613C49.1187 18.6203 49.5645 17.3925 50.4498 16.4102C51.3351 15.428 52.4466 14.9434 53.7778 14.9434C55.2317 14.9434 56.3691 15.4345 57.1962 16.4232V15.1049H59.697V25.0048H57.1962V23.7059C56.3561 24.6816 55.2188 25.1663 53.7778 25.1663V25.1598ZM52.4078 22.1421C52.9506 22.7043 53.6098 22.9821 54.3981 22.9821C55.1865 22.9821 55.8456 22.7043 56.3884 22.1421C56.9248 21.5799 57.1962 20.8884 57.1962 20.0613C57.1962 19.2342 56.9248 18.5233 56.3884 17.9611C55.8456 17.3989 55.1865 17.1211 54.3981 17.1211C53.6098 17.1211 52.9506 17.3989 52.4078 17.9611C51.865 18.5233 51.6001 19.2212 51.6001 20.0613C51.6001 20.9014 51.8715 21.5799 52.4078 22.1421Z" fill="black"/>
<path d="M65.2168 25.3605C64.1764 25.3605 63.2459 25.115 62.4188 24.6174C61.5916 24.1263 61.023 23.4413 60.7192 22.5754L62.8776 21.8969C63.2911 22.8726 64.086 23.3573 65.2556 23.3573C65.8566 23.3573 66.3283 23.2345 66.6772 22.989C67.0262 22.7434 67.1942 22.4074 67.1942 21.9809C67.1942 21.5802 66.9745 21.3153 66.5351 21.1796C66.0957 21.0439 65.4753 20.947 64.6869 20.8823C63.8921 20.8177 63.2653 20.6885 62.8 20.5011C61.6692 20.0229 61.1005 19.2022 61.1005 18.039C61.1005 17.1473 61.4882 16.3912 62.2572 15.7709C63.0262 15.1505 63.9761 14.8403 65.094 14.8403C66.1474 14.8403 67.0262 15.0859 67.737 15.5835C68.4414 16.0746 68.9131 16.7272 69.1393 17.5415L67.0197 18.123C66.8969 17.6966 66.6772 17.3541 66.3606 17.0956C66.044 16.8371 65.6304 16.7079 65.1199 16.7079C64.6094 16.7079 64.2152 16.8371 63.8921 17.0891C63.5625 17.3411 63.401 17.6449 63.401 17.9873C63.401 18.4268 63.6465 18.7305 64.1312 18.8856C64.6158 19.0407 65.2685 19.1634 66.0892 19.2345C66.9099 19.3056 67.5238 19.4348 67.9373 19.6222C69.0553 20.0875 69.6175 20.8823 69.6175 22.0003C69.6175 23.0148 69.2104 23.829 68.3897 24.4429C67.569 25.0568 66.5157 25.3605 65.2168 25.3605Z" fill="black"/>
<path d="M75.2902 25.2572C73.8363 25.2572 72.5956 24.7467 71.5616 23.7257C70.5277 22.7047 70.0107 21.4769 70.0107 20.0358C70.0107 18.5948 70.5277 17.3412 71.5616 16.3072C72.5956 15.2733 73.8363 14.7563 75.2902 14.7563C76.1561 14.7563 76.9639 14.9502 77.72 15.3444C78.476 15.7386 79.0964 16.2685 79.5875 16.9341L77.5455 18.4139C77.0285 17.5867 76.2725 17.1731 75.2838 17.1731C74.4695 17.1602 73.791 17.4316 73.2547 17.9809C72.7119 18.5366 72.4469 19.2216 72.4469 20.0488C72.4469 20.8759 72.7183 21.5609 73.2547 22.0972C73.791 22.64 74.4695 22.905 75.2838 22.905C75.762 22.9179 76.2078 22.8145 76.6149 22.5819C77.0221 22.3557 77.3387 22.0391 77.5649 21.6449L79.5616 23.1247C79.0705 23.7774 78.4502 24.2943 77.7006 24.6756C76.951 25.0568 76.1497 25.2442 75.2773 25.2442L75.2902 25.2572Z" fill="black"/>
<path d="M88.9637 23.7386C87.9298 24.7531 86.6826 25.2572 85.2157 25.2572C83.7488 25.2572 82.4952 24.7467 81.4548 23.7257C80.4144 22.7047 79.8975 21.4769 79.8975 20.0358C79.8975 18.5948 80.4144 17.3412 81.4548 16.3072C82.4952 15.2733 83.7488 14.7563 85.2157 14.7563C86.6826 14.7563 87.9168 15.2733 88.9572 16.3072C89.9976 17.3412 90.5146 18.5819 90.5146 20.0358C90.5146 21.4898 89.9976 22.724 88.9637 23.7386ZM85.2157 22.9179C85.9782 22.9308 86.618 22.6594 87.1479 22.1101C87.6778 21.5544 87.9362 20.8759 87.9362 20.0617C87.9362 19.2475 87.6713 18.5431 87.1479 17.9938C86.618 17.4381 85.9782 17.1731 85.2157 17.1861C84.4403 17.1731 83.7941 17.4446 83.2642 17.9938C82.7343 18.5496 82.4758 19.2345 82.4758 20.0617C82.4758 20.8888 82.7408 21.5609 83.2642 22.1101C83.7941 22.6659 84.4403 22.9308 85.2157 22.9179Z" fill="black"/>
<path d="M91.71 24.9986V15.0988H94.2108V16.3976C94.9862 15.3831 96.2528 14.8984 98.0104 14.9372V17.5802C97.5969 17.3799 97.1445 17.2829 96.6534 17.2829C95.9878 17.2829 95.4127 17.5479 94.9345 18.0842C94.4563 18.6206 94.2172 19.3443 94.2172 20.2619V24.9986H91.7164H91.71Z" fill="black"/>
<path d="M103.395 14.795C104.862 14.795 106.058 15.2603 106.988 16.1844C107.912 17.1084 108.39 18.3685 108.416 19.9517C108.416 20.2748 108.41 20.5269 108.397 20.7143H100.52C100.642 21.5026 100.965 22.1101 101.502 22.543C102.038 22.976 102.665 23.1957 103.402 23.1957C104.578 23.1957 105.476 22.7886 106.103 21.9744L107.641 23.2538C107.175 23.8807 106.562 24.3718 105.799 24.7207C105.037 25.0761 104.248 25.2506 103.421 25.2506C101.941 25.2506 100.701 24.7466 99.6989 23.7385C98.6973 22.7304 98.1997 21.5026 98.1997 20.0487C98.1997 18.5947 98.6973 17.3088 99.6924 16.3007C100.688 15.2926 101.922 14.7886 103.402 14.7886L103.395 14.795ZM103.415 16.7336C102.697 16.7336 102.083 16.9404 101.573 17.3605C101.062 17.7805 100.726 18.3556 100.552 19.0923H106.174C105.986 18.3298 105.657 17.7482 105.185 17.3411C104.713 16.934 104.119 16.7336 103.415 16.7336Z" fill="black"/>
</svg>
