<svg width="173" height="30" viewBox="0 0 173 30" fill="none" xmlns="http://www.w3.org/2000/svg">
<path d="M28.3441 9.448V27.2962C28.3441 27.8739 27.8751 28.3428 27.2973 28.3428H9.44843V19.9754H18.9296C19.5073 19.9754 19.9739 19.5065 19.9739 18.9288V9.448H28.3441Z" fill="white"/>
<path d="M1.0467 0H18.8956V17.8482C18.8956 18.4259 18.4267 18.8948 17.8489 18.8948H0V1.04666C0 0.46895 0.46897 0 1.0467 0Z" fill="white"/>
<path d="M19.9751 0H27.2389C27.8482 0 28.3429 0.494678 28.3429 1.10396V8.36743H19.9751V0Z" fill="white"/>
<path d="M8.36896 19.9754V28.344H1.10402C0.494709 28.344 9.53674e-06 27.8494 9.53674e-06 27.2401V19.9754H8.36896Z" fill="white"/>
<path d="M37.5577 30V6.39043C37.5577 4.51057 38.1766 2.97553 39.4125 1.78532C40.6483 0.595106 42.203 0 44.0726 0C45.9423 0 47.4615 0.539489 48.6881 1.62032C49.9146 2.70115 50.5279 4.07119 50.5279 5.73044C50.5279 6.8706 50.2259 7.83648 49.622 8.62625C49.018 9.41602 48.2034 9.96107 47.1782 10.2614C48.4849 10.5413 49.5865 11.2125 50.4813 12.271C51.376 13.3315 51.8234 14.6311 51.8234 16.1717C51.8234 18.1516 51.1244 19.7571 49.7263 20.9863C48.3283 22.2173 46.5742 22.8309 44.4622 22.8309C43.5171 22.8309 42.6522 22.6511 41.8674 22.2914V18.8413C42.5702 19.2418 43.2841 19.442 44.0092 19.442C45.1948 19.442 46.166 19.0916 46.9209 18.3927C47.6759 17.6919 48.0524 16.7723 48.0524 15.6322C48.0524 14.5514 47.6759 13.6819 46.9209 13.0219C46.166 12.3619 45.096 12.0208 43.7091 12.0022V9.09158C44.7754 9.0508 45.5937 8.76159 46.1678 8.2221C46.742 7.68261 47.0272 6.9911 47.0272 6.15128C47.0272 5.31146 46.7513 4.59585 46.1977 4.06563C45.644 3.53541 44.9357 3.2703 44.0708 3.2703C43.2058 3.2703 42.4826 3.55951 41.8991 4.13979C41.3157 4.72006 41.0249 5.47089 41.0249 6.39043V30H37.5558H37.5577Z" fill="white"/>
<path d="M60.8138 7.20059C63.0265 7.20059 64.8309 7.89581 66.229 9.28624C67.627 10.6767 68.3447 12.5621 68.3857 14.9407C68.3857 15.4208 68.3745 15.8009 68.3559 16.0808H56.4706C56.6514 17.2618 57.1435 18.1757 57.9488 18.8265C58.7522 19.4772 59.7085 19.8016 60.8138 19.8016C62.5828 19.8016 63.9399 19.1917 64.8868 17.9718L67.2095 19.8925C66.5048 20.8324 65.5803 21.5684 64.4339 22.0968C63.2875 22.627 62.0907 22.8921 60.8437 22.8921C58.6124 22.8921 56.7409 22.1376 55.2328 20.6266C53.7248 19.1175 52.9698 17.2729 52.9698 15.0927C52.9698 12.9125 53.7192 10.977 55.2179 9.46793C56.7166 7.95699 58.5807 7.20244 60.8138 7.20244V7.20059ZM60.8437 10.1112C59.7569 10.1112 58.8323 10.4264 58.0681 11.0567C57.3038 11.6871 56.7912 12.5528 56.5302 13.6522H65.0061C64.7247 12.512 64.227 11.637 63.513 11.0271C62.7991 10.4171 61.9081 10.1112 60.8437 10.1112Z" fill="white"/>
<path d="M77.1934 22.5602C75.5642 22.5602 74.2482 22.1005 73.2416 21.1791C72.235 20.2595 71.7336 19.0193 71.7336 17.4583V10.9195H68.4752V7.64924H71.7336V3.32962H75.443V7.64924H79.6353V10.9195H75.443V16.65C75.443 18.3111 76.308 19.1398 78.0378 19.1398C78.5803 19.1398 79.1134 19.0489 79.6372 18.8691L80.0286 22.1097C79.0426 22.4101 78.0975 22.5602 77.1934 22.5602Z" fill="white"/>
<path d="M87.7198 22.7401C85.729 22.7401 84.0588 22.0041 82.7129 20.5339C81.3652 19.0638 80.6923 17.2488 80.6923 15.089C80.6923 12.9292 81.3615 11.0845 82.698 9.61439C84.0345 8.14424 85.7085 7.40823 87.7198 7.40823C89.9119 7.40823 91.6306 8.14795 92.8777 9.62922V7.64924H96.6487V22.4991H92.8777V20.5488C91.6101 22.0096 89.8914 22.7382 87.7198 22.7382V22.7401ZM85.6526 18.2091C86.4672 19.0489 87.4682 19.4698 88.6537 19.4698C89.8392 19.4698 90.8402 19.0489 91.6548 18.2091C92.4694 17.3693 92.8758 16.3293 92.8758 15.089C92.8758 13.8487 92.4694 12.779 91.6548 11.9392C90.8402 11.0994 89.8392 10.6785 88.6537 10.6785C87.4682 10.6785 86.4672 11.0994 85.6526 11.9392C84.838 12.779 84.4316 13.8302 84.4316 15.089C84.4316 16.3478 84.8398 17.3693 85.6526 18.2091Z" fill="white"/>
<path d="M98.1399 20.4876L100.015 17.4731C100.705 18.0107 101.37 18.4557 102.012 18.8098C102.651 19.1639 103.298 19.4234 103.948 19.594C104.599 19.7627 105.259 19.848 105.93 19.848C106.791 19.848 107.539 19.7164 108.174 19.4531C108.81 19.1898 109.302 18.8246 109.652 18.3556C110.003 17.8884 110.178 17.3415 110.178 16.713C110.178 16.0067 109.966 15.4171 109.541 14.9444C109.116 14.4716 108.558 14.0638 107.867 13.7208C107.175 13.3778 106.435 13.0423 105.645 12.7141C104.925 12.4156 104.196 12.0931 103.462 11.7445C102.726 11.396 102.058 10.9807 101.458 10.4987C100.858 10.0167 100.375 9.43085 100.01 8.7449C99.6442 8.05895 99.4615 7.2284 99.4615 6.25324C99.4615 4.98888 99.7821 3.88765 100.422 2.94772C101.061 2.00779 101.946 1.28105 103.078 0.769373C104.207 0.257693 105.499 0 106.949 0C107.969 0 109.019 0.131627 110.094 0.394883C111.17 0.658138 112.232 1.05858 113.284 1.59622L111.708 4.77568C110.998 4.35855 110.243 4.03226 109.442 3.79866C108.642 3.56507 107.876 3.44828 107.145 3.44828C106.414 3.44828 105.792 3.55951 105.248 3.78383C104.701 4.00816 104.276 4.32703 103.973 4.7386C103.667 5.15202 103.514 5.63218 103.514 6.17909C103.514 6.8261 103.717 7.37301 104.122 7.82165C104.526 8.2703 105.059 8.66518 105.719 9.00816C106.379 9.35113 107.086 9.68669 107.835 10.0148C108.586 10.343 109.337 10.6934 110.094 11.0679C110.849 11.4405 111.541 11.8817 112.165 12.3878C112.79 12.8958 113.291 13.502 113.666 14.2084C114.04 14.9147 114.229 15.7657 114.229 16.7612C114.229 18.0552 113.891 19.1917 113.216 20.1724C112.542 21.1531 111.593 21.9132 110.372 22.4564C109.151 22.9978 107.725 23.2703 106.096 23.2703C104.634 23.2703 103.234 23.0367 101.894 22.5695C100.554 22.1023 99.3031 21.4108 98.1418 20.495L98.1399 20.4876Z" fill="white"/>
<path d="M128.959 20.5172C128.228 21.3441 127.342 21.9818 126.302 22.436C125.262 22.8884 124.127 23.1146 122.895 23.1146C121.374 23.1146 120.011 22.7772 118.805 22.1005C117.599 21.4238 116.648 20.5006 115.953 19.3326C115.258 18.1628 114.911 16.8372 114.911 15.3541C114.911 13.871 115.258 12.5454 115.953 11.3756C116.648 10.2058 117.599 9.2844 118.805 8.60772C120.011 7.93104 121.374 7.59363 122.895 7.59363C124.116 7.59363 125.243 7.81795 126.278 8.26474C127.313 8.71154 128.196 9.34372 128.927 10.1594L126.766 12.4435C126.315 11.9559 125.773 11.5777 125.139 11.3089C124.503 11.0401 123.83 10.9066 123.12 10.9066C122.259 10.9066 121.497 11.0957 120.831 11.4739C120.166 11.8521 119.646 12.3749 119.271 13.0404C118.896 13.706 118.708 14.4735 118.708 15.3393C118.708 16.205 118.896 16.9744 119.271 17.6455C119.646 18.3167 120.166 18.845 120.831 19.2269C121.497 19.6107 122.259 19.8016 123.12 19.8016C123.83 19.8016 124.505 19.6644 125.147 19.3919C125.786 19.1175 126.326 18.7431 126.766 18.2647L128.957 20.5191L128.959 20.5172Z" fill="white"/>
<path d="M137.311 23.1146C135.781 23.1146 134.413 22.7772 133.207 22.1005C132.001 21.4238 131.05 20.5006 130.355 19.3326C129.659 18.1628 129.313 16.8372 129.313 15.3541C129.313 13.871 129.659 12.5454 130.355 11.3756C131.05 10.2058 132.001 9.2844 133.207 8.60772C134.413 7.93104 135.781 7.59363 137.311 7.59363C138.842 7.59363 140.193 7.93289 141.394 8.60772C142.594 9.2844 143.537 10.2076 144.223 11.3756C144.909 12.5454 145.25 13.871 145.25 15.3541C145.25 16.8372 144.908 18.1628 144.223 19.3326C143.537 20.5024 142.594 21.4257 141.394 22.1005C140.193 22.7772 138.833 23.1146 137.311 23.1146ZM137.282 19.8165C138.081 19.8165 138.797 19.6218 139.427 19.2343C140.057 18.8469 140.555 18.3148 140.92 17.6381C141.286 16.9614 141.468 16.1958 141.468 15.3393C141.468 14.4828 141.286 13.7338 140.92 13.0627C140.555 12.3916 140.057 11.8613 139.427 11.4739C138.797 11.0864 138.081 10.8917 137.282 10.8917C136.482 10.8917 135.779 11.0864 135.144 11.4739C134.508 11.8613 134.008 12.3916 133.643 13.0627C133.278 13.7338 133.095 14.4939 133.095 15.3393C133.095 16.1847 133.278 16.9614 133.643 17.6381C134.008 18.3148 134.508 18.8469 135.144 19.2343C135.779 19.6218 136.491 19.8165 137.282 19.8165Z" fill="white"/>
<path d="M150.377 22.8161H146.686V7.89024H149.898L150.032 10.6062C150.552 9.65145 151.255 8.90989 152.14 8.38152C153.026 7.85501 154.043 7.5899 155.193 7.5899C155.494 7.5899 155.801 7.6103 156.116 7.64923C156.431 7.68816 156.744 7.74934 157.054 7.82906L156.603 11.142C155.982 10.9622 155.382 10.8732 154.802 10.8732C153.922 10.8732 153.149 11.0771 152.483 11.485C151.818 11.8928 151.299 12.4583 150.93 13.1794C150.559 13.9006 150.375 14.7386 150.375 15.6952V22.8142L150.377 22.8161Z" fill="white"/>
<path d="M171.292 21.0845C169.42 22.4379 167.375 23.1146 165.153 23.1146C163.543 23.1146 162.096 22.766 160.815 22.069C159.535 21.3719 158.521 20.419 157.777 19.2102C157.031 18.0015 156.659 16.6407 156.659 15.1279C156.659 13.6151 156.996 12.3971 157.671 11.2625C158.346 10.1279 159.272 9.23248 160.446 8.57619C161.623 7.91991 162.95 7.59177 164.432 7.59177C165.914 7.59177 167.325 7.95328 168.492 8.67445C169.657 9.39562 170.565 10.3967 171.215 11.6741C171.866 12.9533 172.19 14.4383 172.19 16.129V16.6073H160.635C160.815 17.284 161.132 17.881 161.587 18.3982C162.042 18.9155 162.611 19.3178 163.291 19.607C163.971 19.8962 164.736 20.0389 165.587 20.0389C167.189 20.0389 168.669 19.5217 170.03 18.4872L171.29 21.0845H171.292ZM160.485 14.4568H168.769C168.689 13.7097 168.462 13.059 168.087 12.5009C167.712 11.9448 167.226 11.5091 166.631 11.1958C166.037 10.8825 165.367 10.7249 164.627 10.7249C163.887 10.7249 163.207 10.8843 162.616 11.2032C162.025 11.5221 161.546 11.9614 161.175 12.5232C160.804 13.0849 160.575 13.7301 160.485 14.4568Z" fill="white"/>
</svg>
