<svg width="24" height="24" viewBox="0 0 24 24" fill="none" xmlns="http://www.w3.org/2000/svg">
<g clip-path="url(#clip0_4959_66350)">
<path fill-rule="evenodd" clip-rule="evenodd" d="M18 3C18.7956 3 19.5587 3.31607 20.1213 3.87868C20.6839 4.44129 21 5.20435 21 6V18C21 18.7956 20.6839 19.5587 20.1213 20.1213C19.5587 20.6839 18.7956 21 18 21H6C5.20435 21 4.44129 20.6839 3.87868 20.1213C3.31607 19.5587 3 18.7956 3 18V6C3 5.20435 3.31607 4.44129 3.87868 3.87868C4.44129 3.31607 5.20435 3 6 3H18ZM8 10C7.73478 10 7.48043 10.1054 7.29289 10.2929C7.10536 10.4804 7 10.7348 7 11V16C7 16.2652 7.10536 16.5196 7.29289 16.7071C7.48043 16.8946 7.73478 17 8 17C8.26522 17 8.51957 16.8946 8.70711 16.7071C8.89464 16.5196 9 16.2652 9 16V11C9 10.7348 8.89464 10.4804 8.70711 10.2929C8.51957 10.1054 8.26522 10 8 10ZM11 9C10.7348 9 10.4804 9.10536 10.2929 9.29289C10.1054 9.48043 10 9.73478 10 10V16C10 16.2652 10.1054 16.5196 10.2929 16.7071C10.4804 16.8946 10.7348 17 11 17C11.2652 17 11.5196 16.8946 11.7071 16.7071C11.8946 16.5196 12 16.2652 12 16V12.34C12.3901 11.9156 12.8646 11.5774 13.393 11.347C13.726 11.205 14.227 11.147 14.575 11.257C14.6904 11.2863 14.7933 11.3523 14.868 11.445C14.92 11.515 15 11.671 15 12V16C15 16.2652 15.1054 16.5196 15.2929 16.7071C15.4804 16.8946 15.7348 17 16 17C16.2652 17 16.5196 16.8946 16.7071 16.7071C16.8946 16.5196 17 16.2652 17 16V12C17 11.33 16.83 10.734 16.476 10.256C16.1503 9.82256 15.6944 9.50472 15.175 9.349C14.273 9.066 13.274 9.223 12.607 9.509C12.3933 9.60046 12.1852 9.70465 11.984 9.821C11.9421 9.59059 11.8206 9.3822 11.6408 9.23216C11.461 9.08213 11.2342 8.99996 11 9ZM8 7C7.73478 7 7.48043 7.10536 7.29289 7.29289C7.10536 7.48043 7 7.73478 7 8C7 8.26522 7.10536 8.51957 7.29289 8.70711C7.48043 8.89464 7.73478 9 8 9C8.26522 9 8.51957 8.89464 8.70711 8.70711C8.89464 8.51957 9 8.26522 9 8C9 7.73478 8.89464 7.48043 8.70711 7.29289C8.51957 7.10536 8.26522 7 8 7Z" fill="white"/>
</g>
<defs>
<clipPath id="clip0_4959_66350">
<rect width="24" height="24" fill="white"/>
</clipPath>
</defs>
</svg>
