<svg width="235" height="35" viewBox="0 0 235 35" fill="none" xmlns="http://www.w3.org/2000/svg">
<g clip-path="url(#clip0_6069_10661)">
<path d="M114.119 0.00677281C111.468 -0.0369285 108.885 0.844316 106.813 2.49897C104.629 4.30651 103.114 6.79479 102.512 9.56528C102.057 3.19294 98.9843 0.00677281 93.295 0.00677281C90.7363 -0.0524498 88.2412 0.807654 86.2628 2.43098C84.2314 4.16968 82.8384 6.5363 82.3039 9.15611V8.67791C82.3268 6.80213 82.0484 4.93482 81.4792 3.14729C81.2875 2.34725 81.0128 1.56934 80.6598 0.826138H73.7637V33.9386H82.44V16.0482C82.4853 13.0441 83.168 10.7227 84.4879 9.08391C85.1305 8.27932 85.9538 7.63748 86.891 7.21042C87.828 6.78336 88.8526 6.58308 89.8814 6.62582C91.6108 6.6251 92.8284 7.04629 93.534 7.88938C94.2398 8.73253 94.5926 10.1322 94.5926 12.0884V33.9386H103.264V16.0534C103.309 13.0493 103.98 10.7279 105.278 9.08912C105.923 8.27833 106.751 7.63256 107.695 7.20513C108.638 6.7777 109.67 6.58089 110.705 6.63092C112.435 6.63022 113.652 7.05144 114.358 7.89459C115.063 8.73764 115.416 10.1373 115.416 12.0935V33.9439H124.087V11.6813C124.09 7.81205 123.203 4.899 121.424 2.94211C119.646 0.985223 117.211 0.00677281 114.119 0.00677281Z" fill="black"/>
<path d="M144.857 0.0114784C139.942 0.00872146 135.948 1.52035 132.876 4.54637C129.804 7.57253 128.268 11.6805 128.268 16.8702V17.0063C128.271 22.8323 129.865 27.2361 133.051 30.2175C136.322 33.0988 140.532 34.6888 144.891 34.6896C149.25 34.6905 153.46 33.1025 156.733 30.2226C159.919 27.2419 161.512 22.8154 161.512 16.9434V16.8074C161.515 11.6182 159.969 7.52162 156.874 4.51759C153.779 1.51348 149.774 0.011443 144.857 0.0114784ZM152.713 17.9607C152.712 25.3341 150.095 29.0207 144.861 29.0207V29.0231C139.67 29.0231 137.075 25.3362 137.079 17.9628V15.5046C137.079 12.4098 137.773 10.0203 139.161 8.33624C139.85 7.5026 140.724 6.84052 141.714 6.40215C142.703 5.96377 143.781 5.76108 144.861 5.81004C145.947 5.76215 147.03 5.96515 148.024 6.40325C149.019 6.84138 149.899 7.50282 150.597 8.33624C152.008 10.0231 152.713 12.4125 152.713 15.5046V17.9607Z" fill="black"/>
<path d="M186.045 0.00614581C183.304 -0.082985 180.619 0.799754 178.466 2.49834C176.366 4.24711 174.942 6.67349 174.438 9.35951V8.67728C174.464 6.80167 174.188 4.93412 173.619 3.14667C173.425 2.34644 173.149 1.56853 172.794 0.825512H165.889V33.9381H174.572V16.0528C174.571 13.094 175.311 10.7839 176.791 9.1225C177.51 8.30707 178.4 7.66076 179.398 7.22989C180.396 6.79902 181.476 6.59427 182.563 6.63032C186.249 6.63032 188.092 8.4512 188.092 12.0929V33.9432H196.696V11.6806C196.696 7.81142 195.765 4.89837 193.896 2.9415C192.029 0.984595 189.411 0.00614581 186.045 0.00614581Z" fill="black"/>
<path d="M229.476 4.51757C226.38 1.51347 222.377 0.011443 217.461 0.0114784C212.544 0.00872146 208.55 1.52035 205.477 4.54637C202.405 7.57253 200.869 11.6805 200.869 16.8702V17.0063C200.869 22.8323 202.464 27.2361 205.649 30.2175C208.923 33.0996 213.133 34.6896 217.494 34.6896C221.856 34.6896 226.067 33.0996 229.34 30.2175C232.527 27.2367 234.119 22.8104 234.119 16.9383V16.8022C234.119 11.6165 232.571 7.52158 229.476 4.51757ZM225.313 17.9607C225.311 25.3341 222.694 29.0207 217.461 29.0207V29.0231C212.271 29.0231 209.677 25.3362 209.677 17.9628V15.5046C209.679 12.4098 210.374 10.0203 211.76 8.33624C212.45 7.50249 213.323 6.84033 214.313 6.40195C215.303 5.96356 216.38 5.76093 217.461 5.81004C218.546 5.76238 219.629 5.96548 220.623 6.40358C221.618 6.84167 222.497 7.50299 223.195 8.33624C224.607 10.0231 225.313 12.4125 225.313 15.5046V17.9607Z" fill="black"/>
<path d="M44.1043 0.237481C43.9246 0.106561 43.7123 0.0279508 43.4906 0.0103647C43.2689 -0.00722126 43.0469 0.036904 42.8487 0.137848C42.6508 0.238794 42.4845 0.392613 42.3687 0.582254C42.2526 0.771898 42.1913 0.989954 42.1917 1.21225V14.0198L23.401 0.237481C23.2213 0.106561 23.0088 0.0279508 22.7873 0.0103647C22.5657 -0.00722126 22.3436 0.036904 22.1455 0.137848C21.9475 0.238794 21.7813 0.392613 21.6652 0.582254C21.5493 0.771898 21.488 0.989954 21.4884 1.21225V14.0198L2.69766 0.237481C2.518 0.10656 2.3056 0.0279498 2.084 0.0103644C1.8624 -0.00722099 1.64026 0.0369055 1.44221 0.137852C1.24415 0.238797 1.07793 0.39262 0.961949 0.582264C0.845973 0.77191 0.784781 0.989967 0.785158 1.21226V19.3089C0.78585 19.4983 0.831064 19.6849 0.91715 19.8535C1.00324 20.0221 1.12778 20.1681 1.28072 20.2799L20.6111 34.458C20.7908 34.5889 21.0031 34.6674 21.2248 34.6851C21.4462 34.7026 21.6685 34.6585 21.8664 34.5576C22.0646 34.4567 22.2308 34.3029 22.3467 34.1133C22.4628 33.9235 22.5238 33.7055 22.5235 33.4833V20.6756L41.3144 34.458C41.494 34.5891 41.7064 34.6676 41.9278 34.6853C42.1495 34.7028 42.3716 34.6587 42.5697 34.5578C42.7677 34.4569 42.9339 34.3031 43.0498 34.1133C43.1657 33.9237 43.2265 33.7055 43.2262 33.4833V20.675L62.0208 34.458C62.2002 34.5891 62.4126 34.6676 62.6342 34.6853C62.8559 34.7028 63.078 34.6587 63.2759 34.5578C63.474 34.4569 63.6401 34.3031 63.756 34.1133C63.8719 33.9237 63.9329 33.7055 63.9324 33.4833V15.3889C63.9318 15.199 63.8863 15.0119 63.7997 14.8428C63.7132 14.6737 63.5882 14.5274 63.4346 14.4156L44.1043 0.237481Z" fill="black"/>
</g>
<defs>
<clipPath id="clip0_6069_10661">
<rect width="233.333" height="35" fill="white" transform="translate(0.785156)"/>
</clipPath>
</defs>
</svg>
