<svg width="17" height="17" viewBox="0 0 17 17" fill="none" xmlns="http://www.w3.org/2000/svg">
<path d="M13.8332 6.00016V12.5002C13.8332 14.5002 12.6398 15.1668 11.1665 15.1668H5.83317C4.35984 15.1668 3.1665 14.5002 3.1665 12.5002V6.00016C3.1665 3.8335 4.35984 3.3335 5.83317 3.3335C5.83317 3.74683 5.99982 4.12016 6.27315 4.39349C6.54649 4.66683 6.91984 4.8335 7.33317 4.8335H9.6665C10.4932 4.8335 11.1665 4.16016 11.1665 3.3335C12.6398 3.3335 13.8332 3.8335 13.8332 6.00016Z" stroke="white" stroke-width="1.5" stroke-linecap="round" stroke-linejoin="round"/>
<path d="M11.1668 3.3335C11.1668 4.16016 10.4935 4.8335 9.66683 4.8335H7.3335C6.92016 4.8335 6.54681 4.66683 6.27348 4.39349C6.00014 4.12016 5.8335 3.74683 5.8335 3.3335C5.8335 2.50683 6.50683 1.8335 7.3335 1.8335H9.66683C10.0802 1.8335 10.4535 2.00017 10.7268 2.2735C11.0002 2.54683 11.1668 2.92016 11.1668 3.3335Z" stroke="white" stroke-width="1.5" stroke-linecap="round" stroke-linejoin="round"/>
<path d="M5.8335 9.1665H8.50016" stroke="white" stroke-width="1.5" stroke-linecap="round" stroke-linejoin="round"/>
<path d="M5.8335 11.8335H11.1668" stroke="white" stroke-width="1.5" stroke-linecap="round" stroke-linejoin="round"/>
</svg>
