<svg width="228" height="172" viewBox="0 0 228 172" fill="none" xmlns="http://www.w3.org/2000/svg">
<path d="M108.961 165.561L11.0669 107.449C7.95135 105.694 5.27843 102.804 8.31455 100.917L106.56 44.0423C108.036 43.1246 110.272 42.5261 111.77 43.3982L214.533 103.3C217.648 105.118 218.21 110.196 215.1 112.015L121.866 165.469C119.908 166.61 117.688 167.218 115.425 167.234C113.162 167.25 110.934 166.673 108.961 165.561Z" fill="#FFDAAE"/>
<path d="M73.214 76.3672V80.7277L68.7194 83.2927L64.0942 80.551V76.1449L69.6501 74.6572L73.214 76.3672Z" fill="#FF671C"/>
<path d="M73.5825 76.4583L70.8074 75.8028L68.5091 78.6813L63.498 75.8028L65.9894 72.9927L68.5374 73.5399L73.5825 76.4583Z" fill="#B26542"/>
<path d="M70.8074 75.8028L65.9894 72.9927L63.498 75.8028L68.5091 78.6813L70.8074 75.8028Z" fill="#8E3F17"/>
<path d="M67.1528 81.6054V79.1658L68.0154 79.6674V82.05L67.1528 81.6054Z" fill="#8E3F17"/>
<path d="M65.7456 80.7447V78.3108L66.6139 78.8124V81.195L65.7456 80.7447Z" fill="#8E3F17"/>
<path d="M64.4404 79.9696V77.53L65.3087 78.0316V80.4199L64.4404 79.9696Z" fill="#8E3F17"/>
<path d="M71.9596 81.4401V79.4622L70.8076 80.1234V82.1013L71.9596 81.4401Z" fill="#8E3F17"/>
<path d="M71.9598 79.4621C71.9598 79.4621 71.9257 78.8009 71.3412 78.9491C70.7567 79.0973 70.8078 80.129 70.8078 80.129" fill="#8E3F17"/>
<path style="mix-blend-mode:multiply" opacity="0.68" d="M90.6303 68.2332L87.6793 66.5232L82.5037 68.9799C82.1178 69.8292 83.8203 71.3397 85.3412 71.106C87.1547 70.2453 88.9203 69.2863 90.6303 68.2332Z" fill="url(#paint0_linear_6788_6586)"/>
<path d="M86.9074 68.256C87.4889 68.5448 88.1307 68.6898 88.7792 68.6789C89.4278 68.668 90.0644 68.5015 90.6359 68.1933C91.2885 67.4751 91.4474 66.3864 91.3453 65.2293C91.1703 63.7414 90.7723 62.2886 90.1649 60.9201C89.8925 60.2931 89.132 59.0847 88.3148 59.6661C87.6395 60.1449 87.4466 61.0113 87.1798 61.758C86.584 63.5934 85.6362 65.9874 86.6123 67.857C86.6902 68.0042 86.7897 68.1387 86.9074 68.256Z" fill="#2C9135"/>
<path d="M87.5997 65.4802C87.7189 64.3402 88.1105 63.3427 88.0537 62.1742C87.9579 61.3495 88.0293 60.5138 88.2637 59.7175C87.6338 60.2077 87.4465 61.0399 87.2082 61.7638C86.6123 63.5992 85.6646 65.9932 86.6407 67.8628C86.7142 68.0048 86.8079 68.1354 86.9187 68.2504C87.6731 68.609 88.515 68.7397 89.342 68.6266C87.9686 68.1763 87.4465 66.9679 87.5997 65.4802Z" fill="#247728"/>
<path d="M63.396 68.9114L154.111 122.509L163.458 116.911L72.5157 63.7529L63.396 68.9114Z" fill="#53646C"/>
<path d="M154.565 68.3473L64.7807 121.021L55.8823 115.697L145.945 63.2002L154.565 68.3473Z" fill="#53646C"/>
<path d="M12.8657 98.2836L102.849 151.071L111.747 145.748L21.6222 93.2163L12.8657 98.2836Z" fill="#53646C"/>
<path d="M208.829 100.552L122.927 150.946L114.034 145.628L200.425 95.2627L208.829 100.552Z" fill="#53646C"/>
<path d="M133.562 71.1232V21.7612L122.842 27.769V77.3305L133.562 71.1232Z" fill="#68E1FD"/>
<path opacity="0.33" d="M133.562 71.1232V21.7612L122.842 27.769V77.3305L133.562 71.1232Z" fill="#1E4549"/>
<path d="M122.842 27.769L111.957 21.7612V70.9123L122.842 77.3305V27.769Z" fill="#68E1FD"/>
<path d="M133.562 21.7611L122.842 15.1548L111.957 21.7611L122.842 27.7689L133.562 21.7611Z" fill="#CCCCCC"/>
<path d="M111.957 21.7612L122.842 27.769L133.562 21.7612V23.2147L122.842 29.1427L111.957 23.1121V21.7612Z" fill="#1E4549"/>
<path d="M113.251 28.1165V25.8137L114.619 26.5661V28.7834L113.251 28.1165Z" fill="#1E4549"/>
<path d="M116.656 29.9635V27.655L118.018 28.4074V30.6247L116.656 29.9635Z" fill="#1E4549"/>
<path d="M120.186 32.1408V29.8323L121.548 30.5847V32.802L120.186 32.1408Z" fill="#1E4549"/>
<path d="M113.251 36.3874V34.0789L114.619 34.8313V37.0486L113.251 36.3874Z" fill="#1E4549"/>
<path d="M116.656 38.2283V35.9255L118.018 36.6779V38.8895L116.656 38.2283Z" fill="#1E4549"/>
<path d="M120.186 40.4058V38.103L121.548 38.8554V41.067L120.186 40.4058Z" fill="#1E4549"/>
<path d="M113.251 45.8437V43.5352L114.619 44.2876V46.5049L113.251 45.8437Z" fill="#1E4549"/>
<path d="M116.656 47.6846V45.3818L118.018 46.1342V48.3458L116.656 47.6846Z" fill="#1E4549"/>
<path d="M120.186 49.8678V47.5593L121.548 48.3117V50.529L120.186 49.8678Z" fill="#1E4549"/>
<path d="M113.251 55.2086V52.9001L114.619 53.6525V55.8698L113.251 55.2086Z" fill="#1E4549"/>
<path d="M116.656 57.0499V54.7471L118.018 55.4995V57.7111L116.656 57.0499Z" fill="#1E4549"/>
<path d="M120.186 59.2271V56.9243L121.548 57.6767V59.8883L120.186 59.2271Z" fill="#1E4549"/>
<path d="M113.251 64.5739V62.2654L114.619 63.0178V65.2351L113.251 64.5739Z" fill="#1E4549"/>
<path d="M116.656 66.4149V64.1121L118.018 64.8645V67.0761L116.656 66.4149Z" fill="#1E4549"/>
<path d="M120.186 68.5924V66.2896L121.548 67.042V69.2536L120.186 68.5924Z" fill="#1E4549"/>
<path d="M132.937 28.1452V25.8367L131.57 26.5891V28.8064L132.937 28.1452Z" fill="#1E4549"/>
<path d="M129.538 29.9862V27.6833L128.17 28.4357V30.6474L129.538 29.9862Z" fill="#1E4549"/>
<path d="M126.008 32.1636V29.8608L124.641 30.6132V32.8248L126.008 32.1636Z" fill="#1E4549"/>
<path d="M132.937 36.4101V34.1016L131.57 34.854V37.0713L132.937 36.4101Z" fill="#1E4549"/>
<path d="M129.538 38.2513V35.9485L128.17 36.7009V38.9125L129.538 38.2513Z" fill="#1E4549"/>
<path d="M126.008 40.4342V38.1257L124.641 38.8781V41.0954L126.008 40.4342Z" fill="#1E4549"/>
<path d="M132.937 45.8665V43.5637L131.57 44.3161V46.5277L132.937 45.8665Z" fill="#1E4549"/>
<path d="M129.538 47.7133V45.4048L128.17 46.1572V48.3745L129.538 47.7133Z" fill="#1E4549"/>
<path d="M126.008 49.8905V47.582L124.641 48.3344V50.5517L126.008 49.8905Z" fill="#1E4549"/>
<path d="M132.937 55.2315V52.9287L131.57 53.6811V55.8927L132.937 55.2315Z" fill="#1E4549"/>
<path d="M129.538 57.0783V54.7698L128.17 55.5222V57.7395L129.538 57.0783Z" fill="#1E4549"/>
<path d="M126.008 59.2558V56.9473L124.641 57.6997V59.917L126.008 59.2558Z" fill="#1E4549"/>
<path d="M132.937 64.5965V62.2937L131.57 63.0404V65.2577L132.937 64.5965Z" fill="#1E4549"/>
<path d="M129.538 66.4435V64.135L128.17 64.8874V67.1047L129.538 66.4435Z" fill="#1E4549"/>
<path d="M126.008 68.6208V66.3123L124.641 67.0647V69.282L126.008 68.6208Z" fill="#1E4549"/>
<path d="M133.062 32.1979V29.8894L131.7 30.6418V32.8591L133.062 32.1979Z" fill="#1E4549"/>
<path d="M129.663 34.0389V31.7361L128.295 32.4885V34.7001L129.663 34.0389Z" fill="#1E4549"/>
<path d="M126.133 36.2164V33.9136L124.766 34.666V36.8776L126.133 36.2164Z" fill="#1E4549"/>
<path d="M132.881 41.2721V38.9636L131.519 39.716V41.9333L132.881 41.2721Z" fill="#1E4549"/>
<path d="M129.481 43.1133V40.8105L128.114 41.5572V43.7745L129.481 43.1133Z" fill="#1E4549"/>
<path d="M125.952 45.2906V42.9878L124.584 43.7402V45.9518L125.952 45.2906Z" fill="#1E4549"/>
<path d="M132.881 50.7171V48.4143L131.519 49.1667V51.3783L132.881 50.7171Z" fill="#1E4549"/>
<path d="M129.481 52.5639V50.2554L128.114 51.0078V53.2251L129.481 52.5639Z" fill="#1E4549"/>
<path d="M125.952 54.7414V52.4329L124.584 53.1853V55.4026L125.952 54.7414Z" fill="#1E4549"/>
<path d="M132.881 60.2987V57.9902L131.519 58.7426V60.9542L132.881 60.2987Z" fill="#1E4549"/>
<path d="M129.481 62.1398V59.8313L128.114 60.5837V62.801L129.481 62.1398Z" fill="#1E4549"/>
<path d="M125.952 64.3173V62.0088L124.584 62.7612V64.9785L125.952 64.3173Z" fill="#1E4549"/>
<path d="M133 68.8031V66.4946L131.638 67.247V69.4643L133 68.8031Z" fill="#1E4549"/>
<path d="M129.601 70.6444V68.3416L128.233 69.094V71.3056L129.601 70.6444Z" fill="#1E4549"/>
<path d="M126.071 72.8273V70.5188L124.703 71.2712V73.4885L126.071 72.8273Z" fill="#1E4549"/>
<path d="M113.188 32.0269V29.7241L114.55 30.4765V32.6938L113.188 32.0269Z" fill="#1E4549"/>
<path d="M116.588 33.8737V31.5652L117.956 32.3176V34.5349L116.588 33.8737Z" fill="#1E4549"/>
<path d="M120.118 36.0509V33.7424L121.485 34.4948V36.7121L120.118 36.0509Z" fill="#1E4549"/>
<path d="M113.126 41.2721V38.9636L114.488 39.716V41.9333L113.126 41.2721Z" fill="#1E4549"/>
<path d="M116.525 43.1133V40.8105L117.893 41.5572V43.7745L116.525 43.1133Z" fill="#1E4549"/>
<path d="M120.055 45.2906V42.9878L121.423 43.7402V45.9518L120.055 45.2906Z" fill="#1E4549"/>
<path d="M113.126 50.5518V48.249L114.488 48.9957V51.213L113.126 50.5518Z" fill="#1E4549"/>
<path d="M116.525 52.3986V50.0901L117.893 50.8425V53.0598L116.525 52.3986Z" fill="#1E4549"/>
<path d="M120.055 54.5761V52.2676L121.423 53.02V55.2373L120.055 54.5761Z" fill="#1E4549"/>
<path d="M113.188 59.9796V57.6768L114.55 58.4292V60.6408L113.188 59.9796Z" fill="#1E4549"/>
<path d="M116.588 61.8263V59.5178L117.956 60.2702V62.4875L116.588 61.8263Z" fill="#1E4549"/>
<path d="M120.118 64.0038V61.6953L121.485 62.4477V64.665L120.118 64.0038Z" fill="#1E4549"/>
<path d="M113.126 68.8031V66.4946L114.488 67.247V69.4643L113.126 68.8031Z" fill="#1E4549"/>
<path d="M116.525 70.6444V68.3416L117.893 69.094V71.3056L116.525 70.6444Z" fill="#1E4549"/>
<path d="M120.055 72.8273V70.5188L121.423 71.2712V73.4885L120.055 72.8273Z" fill="#1E4549"/>
<path d="M102.849 151.071C102.849 151.071 113.972 156.84 122.927 150.946L114.034 145.628C113.318 145.947 112.511 145.992 111.764 145.753C110.328 145.371 102.849 151.071 102.849 151.071Z" fill="#53646C"/>
<path d="M106.055 142.43C106.055 142.43 112.729 146.42 119.562 142.43C119.562 142.43 119.692 148.045 115.362 148.974C111.032 149.903 106.055 142.43 106.055 142.43Z" fill="#53646C"/>
<path style="mix-blend-mode:multiply" opacity="0.68" d="M118.608 139.58L115.657 137.87L110.482 140.327C110.096 141.176 111.798 142.687 113.319 142.453C115.133 141.592 116.898 140.633 118.608 139.58Z" fill="url(#paint1_linear_6788_6586)"/>
<path d="M114.885 139.62C115.467 139.909 116.109 140.054 116.757 140.043C117.406 140.032 118.042 139.866 118.614 139.557C119.266 138.839 119.425 137.75 119.323 136.593C119.15 135.112 118.756 133.665 118.154 132.301C117.882 131.674 117.121 130.466 116.304 131.047C115.629 131.526 115.436 132.392 115.169 133.139C114.573 134.975 113.625 137.369 114.602 139.238C114.677 139.378 114.773 139.507 114.885 139.62Z" fill="#2C9135"/>
<path d="M115.578 136.855C115.697 135.715 116.089 134.718 116.032 133.549C115.936 132.725 116.007 131.889 116.242 131.093C115.612 131.583 115.425 132.415 115.186 133.139C114.59 134.974 113.643 137.368 114.619 139.238C114.692 139.38 114.786 139.511 114.897 139.626C115.651 139.984 116.493 140.115 117.32 140.002C115.947 139.546 115.425 138.332 115.578 136.855Z" fill="#247728"/>
<path style="mix-blend-mode:multiply" opacity="0.68" d="M126.706 135.67L123.755 133.96L118.58 136.417C118.194 137.266 119.896 138.776 121.417 138.543C123.231 137.682 124.996 136.723 126.706 135.67Z" fill="url(#paint2_linear_6788_6586)"/>
<path d="M122.876 135.807C123.457 136.096 124.099 136.241 124.747 136.23C125.396 136.219 126.033 136.052 126.604 135.744C127.257 135.026 127.416 133.937 127.313 132.78C127.14 131.299 126.746 129.852 126.144 128.488C125.872 127.861 125.112 126.653 124.294 127.234C123.619 127.713 123.426 128.579 123.159 129.326C122.563 131.161 121.616 133.555 122.592 135.425C122.668 135.565 122.763 135.694 122.876 135.807Z" fill="#2C9135"/>
<path d="M123.568 133.042C123.687 131.902 124.079 130.905 124.022 129.736C123.926 128.911 123.998 128.076 124.232 127.28C123.602 127.77 123.415 128.602 123.176 129.326C122.581 131.161 121.633 133.555 122.609 135.425C122.683 135.567 122.776 135.697 122.887 135.812C123.641 136.171 124.483 136.302 125.31 136.189C123.943 135.727 123.42 134.519 123.568 133.042Z" fill="#247728"/>
<path style="mix-blend-mode:multiply" opacity="0.68" d="M149.945 123.153L146.994 121.443L141.807 123.916C141.421 124.766 143.124 126.276 144.645 126.043C146.463 125.177 148.232 124.212 149.945 123.153Z" fill="url(#paint3_linear_6788_6586)"/>
<path d="M146.217 123.17C146.798 123.459 147.44 123.604 148.089 123.593C148.737 123.582 149.374 123.415 149.945 123.107C150.598 122.389 150.757 121.3 150.655 120.143C150.482 118.662 150.088 117.215 149.486 115.851C149.213 115.224 148.453 114.016 147.636 114.597C146.96 115.076 146.767 115.942 146.501 116.689C145.905 118.524 144.957 120.918 145.933 122.788C146.009 122.928 146.104 123.057 146.217 123.17Z" fill="#2C9135"/>
<path d="M146.915 120.405C147.034 119.265 147.426 118.268 147.369 117.099C147.273 116.275 147.345 115.439 147.579 114.643C146.949 115.133 146.762 115.965 146.524 116.689C145.928 118.524 144.98 120.918 145.956 122.788C146.03 122.93 146.123 123.06 146.234 123.175C146.989 123.534 147.83 123.665 148.657 123.552C147.284 123.096 146.762 121.91 146.915 120.405Z" fill="#247728"/>
<path style="mix-blend-mode:multiply" opacity="0.68" d="M78.1395 119.385L75.1885 117.675L70.0129 120.132C69.627 120.981 71.3295 122.492 72.8504 122.258C74.664 121.397 76.4296 120.438 78.1395 119.385Z" fill="url(#paint4_linear_6788_6586)"/>
<path d="M74.4112 119.402C74.9927 119.691 75.6345 119.836 76.283 119.825C76.9316 119.814 77.5682 119.648 78.1397 119.339C78.7923 118.621 78.9512 117.532 78.8491 116.375C78.676 114.894 78.2819 113.447 77.68 112.083C77.4076 111.456 76.6472 110.248 75.83 110.829C75.1546 111.308 74.9617 112.174 74.695 112.921C74.0991 114.757 73.1514 117.151 74.1275 119.02C74.2033 119.16 74.2988 119.289 74.4112 119.402Z" fill="#2C9135"/>
<path d="M75.1036 116.638C75.2228 115.498 75.6144 114.5 75.5576 113.332C75.4618 112.507 75.5332 111.671 75.7676 110.875C75.1377 111.365 74.9504 112.197 74.7121 112.921C74.1162 114.757 73.1685 117.151 74.1446 119.02C74.2181 119.162 74.3118 119.293 74.4226 119.408C75.177 119.766 76.0189 119.897 76.8459 119.784C75.4782 119.328 74.9561 118.114 75.1036 116.638Z" fill="#247728"/>
<path style="mix-blend-mode:multiply" opacity="0.68" d="M86.9076 115.566L83.9566 113.856L78.781 116.313C78.3951 117.162 80.0976 118.672 81.6185 118.439C83.432 117.578 85.1976 116.619 86.9076 115.566Z" fill="url(#paint5_linear_6788_6586)"/>
<path d="M83.1847 115.583C83.7661 115.872 84.4079 116.017 85.0565 116.006C85.705 115.995 86.3416 115.829 86.9131 115.52C87.5658 114.802 87.7247 113.714 87.6225 112.556C87.4494 111.075 87.0553 109.628 86.4535 108.264C86.1811 107.637 85.4206 106.429 84.6034 107.01C83.9281 107.489 83.7351 108.356 83.4684 109.102C82.8725 110.938 81.9248 113.332 82.9009 115.201C82.9767 115.342 83.0723 115.47 83.1847 115.583Z" fill="#2C9135"/>
<path d="M83.8771 112.819C83.9963 111.679 84.3878 110.681 84.3311 109.513C84.2352 108.688 84.3067 107.852 84.5411 107.056C83.9111 107.546 83.7239 108.378 83.4855 109.102C82.8896 110.938 81.9419 113.332 82.918 115.201C82.9916 115.343 83.0853 115.474 83.1961 115.589C83.9505 115.947 84.7923 116.078 85.6193 115.965C84.246 115.509 83.7239 114.295 83.8771 112.819Z" fill="#247728"/>
<path style="mix-blend-mode:multiply" opacity="0.68" d="M90.6303 92.9371L87.6793 91.2271L82.5037 93.6837C82.1178 94.533 83.8203 96.0436 85.3412 95.8099C87.1547 94.9491 88.9203 93.9901 90.6303 92.9371Z" fill="url(#paint6_linear_6788_6586)"/>
<path d="M86.9078 92.954C87.4893 93.2428 88.131 93.3878 88.7796 93.3769C89.4282 93.366 90.0648 93.1995 90.6363 92.8913C91.2889 92.1731 91.4478 91.0844 91.3457 89.9273C91.1726 88.4458 90.7785 86.9989 90.1766 85.6352C89.9042 85.0082 89.1438 83.7998 88.3266 84.3812C87.6512 84.86 87.4583 85.7264 87.1916 86.4731C86.5957 88.3085 85.648 90.7025 86.6241 92.5721C86.6998 92.7125 86.7954 92.8411 86.9078 92.954Z" fill="#2C9135"/>
<path d="M87.5997 90.1897C87.7189 89.0497 88.1105 88.0522 88.0537 86.8837C87.9579 86.059 88.0293 85.2233 88.2637 84.427C87.6338 84.9172 87.4465 85.7494 87.2082 86.4733C86.6123 88.3087 85.6646 90.7027 86.6407 92.5723C86.7142 92.7143 86.8079 92.8449 86.9187 92.9599C87.6731 93.3185 88.515 93.4491 89.342 93.3361C87.9686 92.8801 87.4465 91.666 87.5997 90.1897Z" fill="#247728"/>
<path style="mix-blend-mode:multiply" opacity="0.68" d="M65.9726 108.23L63.0216 106.52L57.8176 108.971C57.4317 109.82 59.1342 111.331 60.6551 111.097C62.4782 110.239 64.2533 109.282 65.9726 108.23Z" fill="url(#paint7_linear_6788_6586)"/>
<path d="M62.2442 108.23C62.8257 108.519 63.4675 108.664 64.116 108.653C64.7646 108.642 65.4012 108.476 65.9727 108.167C66.6253 107.449 66.7842 106.361 66.6821 105.203C66.509 103.722 66.1149 102.275 65.513 100.911C65.2406 100.284 64.4802 99.0759 63.663 99.6573C62.9877 100.136 62.7947 101.003 62.528 101.749C61.9321 103.585 60.9844 105.979 61.9605 107.848C62.0363 107.989 62.1318 108.117 62.2442 108.23Z" fill="#2C9135"/>
<path d="M62.9249 105.46C63.0441 104.32 63.4357 103.322 63.3789 102.154C63.2831 101.329 63.3545 100.494 63.5889 99.6973C62.959 100.187 62.7717 101.02 62.5334 101.744C61.9375 103.579 60.9898 105.973 61.9659 107.843C62.0394 107.985 62.1331 108.115 62.2439 108.23C62.9983 108.589 63.8402 108.719 64.6672 108.606C63.3108 108.15 62.7887 106.936 62.9249 105.46Z" fill="#247728"/>
<path style="mix-blend-mode:multiply" opacity="0.68" d="M83.1053 150.216L106.055 134.45L94.1375 128.75L71.0459 143.063C72.4249 144.055 81.7546 149.236 83.1053 150.216Z" fill="url(#paint8_linear_6788_6586)"/>
<path style="mix-blend-mode:multiply" opacity="0.68" d="M26.253 116.928L49.1743 101.145L37.3079 95.4451L14.2163 109.786C15.567 110.767 24.9023 115.954 26.253 116.928Z" fill="url(#paint9_linear_6788_6586)"/>
<path style="mix-blend-mode:multiply" opacity="0.68" d="M43.562 109.302C43.562 109.302 67.3459 95.3596 68.3788 94.6414L56.5124 88.9414L31.043 101.869C32.3936 102.855 42.2057 108.327 43.562 109.302Z" fill="url(#paint10_linear_6788_6586)"/>
<path d="M54.6962 98.3177V47.4167L43.647 53.6184V104.719L54.6962 98.3177Z" fill="#68E1FD"/>
<path opacity="0.33" d="M54.6962 98.3177V47.4167L43.647 53.6184V104.719L54.6962 98.3177Z" fill="#1E4549"/>
<path d="M43.647 53.6184L32.4219 47.4167V98.1011L43.647 104.719V53.6184Z" fill="#68E1FD"/>
<path d="M54.6962 47.4167L43.647 40.6052L32.4219 47.4167L43.647 53.6183L54.6962 47.4167Z" fill="#9D9CA1"/>
<path d="M52.0461 44.9146V46.824L43.2272 51.9427L34.4082 46.824V44.9146" fill="#CC9825"/>
<path d="M52.0461 44.9315L43.2953 39.5393L34.4082 44.9315L43.2953 49.8392L52.0461 44.9315Z" fill="#F9E1AA"/>
<path d="M32.4219 51.0022L43.7435 56.8846L54.6962 51.1048V51.994L43.7435 57.7681L32.4219 51.8914V51.0022Z" fill="#CCCCCC"/>
<path d="M32.4219 54.6958L43.7435 60.5725L54.6962 54.7927V55.6819L43.7435 61.4617L32.4219 55.5793V54.6958Z" fill="#CCCCCC"/>
<path d="M32.4219 58.7141L43.7889 64.6136L54.6962 58.8623V59.7515L43.7889 65.5028L32.4219 59.6033V58.7141Z" fill="#CCCCCC"/>
<path d="M32.4219 62.3564L43.8797 68.3015L54.6962 62.5958V63.4907L43.8797 69.1907L32.4219 63.2456V62.3564Z" fill="#CCCCCC"/>
<path d="M32.4219 65.9077L43.6981 71.7616L54.6962 65.959V66.8482L43.7038 72.6508L32.4219 66.7912V65.9077Z" fill="#CCCCCC"/>
<path d="M32.4219 69.5498L43.7889 75.4493L54.6962 69.698V70.5872L43.7889 76.3385L32.4219 70.4333V69.5498Z" fill="#CCCCCC"/>
<path d="M32.4219 73.1523L43.6527 78.9834L54.6962 73.158V74.0472L43.6584 79.8726L32.4219 74.0358V73.1523Z" fill="#CCCCCC"/>
<path d="M32.4219 76.9143L43.7435 82.791L54.6962 77.0169V77.9061L43.7435 83.6802L32.4219 77.8035V76.9143Z" fill="#CCCCCC"/>
<path d="M32.4219 80.6707L43.8343 86.5987L54.6962 80.8702V81.7594L43.8343 87.4879L32.4219 81.5599V80.6707Z" fill="#CCCCCC"/>
<path d="M32.4219 84.313L43.9194 90.2866L54.6962 84.6037V85.4929L43.9251 91.1758L32.4219 85.2022V84.313Z" fill="#CCCCCC"/>
<path d="M32.4219 88.3486L43.6527 94.1797L54.6962 88.3543V89.2435L43.6584 95.0689L32.4219 89.2378V88.3486Z" fill="#CCCCCC"/>
<path d="M32.4219 91.9907L43.7435 97.8674L54.6962 92.0933V92.9825L43.7435 98.7566L32.4219 92.8799V91.9907Z" fill="#CCCCCC"/>
<path d="M32.4219 95.5305L43.7889 101.436L54.6962 95.6787V96.5736L43.7889 102.325L32.4219 96.4197V95.5305Z" fill="#CCCCCC"/>
<path d="M68.3733 94.436V64.7561L61.9321 68.3699V98.1695L68.3733 94.436Z" fill="#68E1FD"/>
<path opacity="0.33" d="M68.3733 94.436V64.7561L61.9321 68.3699V98.1695L68.3733 94.436Z" fill="#1E4549"/>
<path d="M61.9319 68.3699L55.3887 64.7561V94.3106L61.9319 98.1695V68.3699Z" fill="#68E1FD"/>
<path d="M68.3731 64.7561L61.9319 60.7832L55.3887 64.7561L61.9319 68.3699L68.3731 64.7561Z" fill="#9D9CA1"/>
<path d="M66.8295 63.2971V64.4086L61.6879 67.3954L56.5464 64.4086V63.2971" fill="#CC9825"/>
<path d="M66.8295 63.3085L61.7277 60.1621L56.5464 63.3085L61.7277 66.1699L66.8295 63.3085Z" fill="#F9E1AA"/>
<path d="M55.3887 66.8481L61.9887 70.2738L68.3731 66.9051V67.4295L61.9887 70.7925L55.3887 67.3668V66.8481Z" fill="#CCCCCC"/>
<path d="M55.3887 68.9971L61.9887 72.4285L68.3731 69.0598V69.5785L61.9887 72.9472L55.3887 69.5158V68.9971Z" fill="#CCCCCC"/>
<path d="M55.3887 71.3455L62.0114 74.7826L68.3731 71.431V71.9497L62.0171 75.3013L55.3887 71.8585V71.3455Z" fill="#CCCCCC"/>
<path d="M55.3887 73.4658L62.0681 76.9371L68.3731 73.6083V74.127L62.0681 77.4558L55.3887 73.9845V73.4658Z" fill="#CCCCCC"/>
<path d="M55.3887 75.5405L61.9603 78.9548L68.3731 75.569V76.0877L61.966 79.4678L55.3887 76.0535V75.5405Z" fill="#CCCCCC"/>
<path d="M55.3887 77.6611L62.0114 81.1039L68.3731 77.7466V78.271L62.0171 81.6226L55.3887 78.1798V77.6611Z" fill="#CCCCCC"/>
<path d="M55.3887 79.7644L61.9376 83.1616L68.3731 79.7644V80.2888L61.9376 83.6803L55.3887 80.2831V79.7644Z" fill="#CCCCCC"/>
<path d="M55.3887 81.9587L61.9887 85.3844L68.3731 82.0157V82.5344L61.9887 85.9031L55.3887 82.4717V81.9587Z" fill="#CCCCCC"/>
<path d="M55.3887 84.1477L62.0398 87.6019L68.3731 84.2617V84.7804L62.0398 88.1206L55.3887 84.6664V84.1477Z" fill="#CCCCCC"/>
<path d="M55.3887 86.2737L62.0908 89.7564L68.3731 86.439V86.9634L62.0908 90.2751L55.3887 86.7924V86.2737Z" fill="#CCCCCC"/>
<path d="M55.3887 88.6221L61.9376 92.025L68.3731 88.6278V89.1465L61.9376 92.5437L55.3887 89.1408V88.6221Z" fill="#CCCCCC"/>
<path d="M55.3887 90.7483L61.9887 94.174L68.3731 90.811V91.3297L61.9887 94.6927L55.3887 91.267V90.7483Z" fill="#CCCCCC"/>
<path d="M55.3887 92.8174L62.0114 96.2545L68.3731 92.9029V93.4216L62.0171 96.7732L55.3887 93.3304V92.8174Z" fill="#CCCCCC"/>
<path style="mix-blend-mode:multiply" opacity="0.68" d="M166.011 111.491C166.011 111.491 191.299 98.6998 192.315 97.9702L178.371 90.7996L152.215 104.377C153.577 105.38 164.661 110.51 166.011 111.491Z" fill="url(#paint11_linear_6788_6586)"/>
<path d="M192.633 97.9246V62.5276L179.654 69.8122V103.471L179.927 103.533C184.024 101.35 188.507 100.034 192.633 97.9246Z" fill="#68E1FD"/>
<path opacity="0.33" d="M192.633 97.9246V62.5276L179.654 69.8122V103.471L179.927 103.533C184.024 101.35 188.507 100.034 192.633 97.9246Z" fill="#1E4549"/>
<path d="M179.654 103.465V69.8063L166.471 62.5217V97.0181C171.142 98.5742 174.921 102.188 179.654 103.465Z" fill="#68E1FD"/>
<path d="M192.633 62.5218L179.654 54.5247L166.471 62.5218L179.654 69.8064L192.633 62.5218Z" fill="#CCCCCC"/>
<path d="M166.471 62.5217L179.654 69.8063L192.633 62.5217V64.2887L179.654 71.465L166.471 64.1633V62.5217Z" fill="#1E4549"/>
<path d="M168.038 70.2283V67.4353L169.695 68.3473V71.0263L168.038 70.2283Z" fill="#E0E0E0"/>
<path d="M172.157 72.4627V69.6697L173.814 70.576V73.2607L172.157 72.4627Z" fill="#E0E0E0"/>
<path d="M176.437 75.096V72.303L178.088 73.215V75.8997L176.437 75.096Z" fill="#E0E0E0"/>
<path d="M168.038 80.2373V77.4443L169.695 78.3563V81.041L168.038 80.2373Z" fill="#E0E0E0"/>
<path d="M172.157 82.4717V79.6787L173.814 80.5907V83.2754L172.157 82.4717Z" fill="#E0E0E0"/>
<path d="M176.437 85.1109V82.3179L178.088 83.2299V85.9089L176.437 85.1109Z" fill="#E0E0E0"/>
<path d="M168.038 91.6944V88.9014L169.695 89.8134V92.4981L168.038 91.6944Z" fill="#E0E0E0"/>
<path d="M172.157 93.9287V91.1357L173.814 92.0477V94.7267L172.157 93.9287Z" fill="#E0E0E0"/>
<path d="M176.437 96.5623V93.7693L178.088 94.6813V97.366L176.437 96.5623Z" fill="#E0E0E0"/>
<path d="M191.878 70.2566V67.4636L190.227 68.3756V71.0603L191.878 70.2566Z" fill="#E0E0E0"/>
<path d="M187.758 72.4912V69.6982L186.106 70.6102V73.2892L187.758 72.4912Z" fill="#E0E0E0"/>
<path d="M183.485 75.1302V72.3372L181.833 73.2492V75.9282L183.485 75.1302Z" fill="#E0E0E0"/>
<path d="M191.878 80.2715V77.4785L190.227 78.3848V81.0695L191.878 80.2715Z" fill="#E0E0E0"/>
<path d="M187.758 82.5003V79.7073L186.106 80.6193V83.304L187.758 82.5003Z" fill="#E0E0E0"/>
<path d="M183.485 85.1394V82.3464L181.833 83.2584V85.9431L183.485 85.1394Z" fill="#E0E0E0"/>
<path d="M191.878 91.7229V88.9299L190.227 89.8419V92.5266L191.878 91.7229Z" fill="#E0E0E0"/>
<path d="M187.758 93.9573V91.1643L186.106 92.0763V94.761L187.758 93.9573Z" fill="#E0E0E0"/>
<path d="M183.485 96.5965V93.8035L181.833 94.7155V97.3945L183.485 96.5965Z" fill="#E0E0E0"/>
<path d="M166.471 83.2583L179.768 90.161L192.633 83.3723V86.1368L179.654 92.9141L166.471 86.1368V83.2583Z" fill="#2E5B5A"/>
<path d="M166.471 94.7268L179.768 101.635L192.633 94.8465V97.611L179.654 104.388L166.471 97.611V94.7268Z" fill="#2E5B5A"/>
<path d="M166.471 72.303L179.768 79.2114L192.633 72.4227V75.1872L179.654 81.9645L166.471 75.1872V72.303Z" fill="#2E5B5A"/>
<path style="mix-blend-mode:multiply" opacity="0.68" d="M141.093 99.68C141.093 99.68 164.553 84.974 165.586 84.2558L151.642 77.0852L125.486 90.6626C126.831 91.7 139.736 98.7338 141.093 99.68Z" fill="url(#paint12_linear_6788_6586)"/>
<path d="M143.056 73.9103V84.8144L154.298 91.2326L165.875 84.3812V73.3517L151.966 69.6296L143.056 73.9103Z" fill="#68E1FD"/>
<path d="M142.125 74.1328L149.077 72.4969L154.832 79.696L167.374 72.4969L161.131 65.4631L154.752 66.8254L142.125 74.1328Z" fill="#6B7B82"/>
<path d="M149.077 72.4969L161.131 65.4631L167.373 72.4969L154.832 79.696L149.077 72.4969Z" fill="#6B7B82"/>
<g style="mix-blend-mode:multiply">
<path d="M158.225 87.0089V80.9099L156.058 82.1639V88.1318L158.225 87.0089Z" fill="#6B7B82"/>
</g>
<g style="mix-blend-mode:multiply">
<path d="M161.738 84.8658V78.7668L159.57 80.0208V85.9887L161.738 84.8658Z" fill="#6B7B82"/>
</g>
<g style="mix-blend-mode:multiply">
<path d="M165.007 82.9163V76.823L162.839 78.0713V84.0392L165.007 82.9163Z" fill="#6B7B82"/>
</g>
<g style="mix-blend-mode:multiply">
<path d="M146.188 86.5986V81.6453L149.077 83.3097V88.2516L146.188 86.5986Z" fill="#6B7B82"/>
<path d="M146.188 81.6452C146.188 81.6452 146.279 79.9922 147.738 80.3627C149.196 80.7332 149.077 83.3096 149.077 83.3096" fill="#6B7B82"/>
</g>
<path d="M160.495 64.9158V70.2111L155.394 73.1751L150.286 70.2111V64.9158" fill="#53646C"/>
<path d="M160.495 64.9158L155.428 61.7922L150.286 64.9158L155.428 67.7601L160.495 64.9158Z" fill="#68E1FD"/>
<path d="M153.627 70.905C154.408 70.5447 154.658 69.4179 154.187 68.3883C153.715 67.3586 152.701 66.8159 151.921 67.1762C151.14 67.5365 150.89 68.6633 151.361 69.693C151.832 70.7227 152.847 71.2653 153.627 70.905Z" fill="white"/>
<path d="M155.507 66.0158C156.833 66.0158 157.907 65.5973 157.907 65.081C157.907 64.5648 156.833 64.1462 155.507 64.1462C154.181 64.1462 153.106 64.5648 153.106 65.081C153.106 65.5973 154.181 66.0158 155.507 66.0158Z" fill="#53646C"/>
<path d="M153.106 65.0869V61.3135H157.907V65.0869" fill="#53646C"/>
<path d="M155.507 62.2483C156.833 62.2483 157.907 61.8297 157.907 61.3135C157.907 60.7972 156.833 60.3787 155.507 60.3787C154.181 60.3787 153.106 60.7972 153.106 61.3135C153.106 61.8297 154.181 62.2483 155.507 62.2483Z" fill="#53646C"/>
<path d="M153.356 61.3818L155.507 55.0662L157.658 61.3362C157.058 61.8403 156.288 62.0934 155.507 62.043C154.733 62.0982 153.967 61.8625 153.356 61.3818Z" fill="#68E1FD"/>
<path d="M159.65 69.445C160.121 68.4153 159.871 67.2885 159.09 66.9282C158.31 66.5679 157.295 67.1105 156.824 68.1402C156.353 69.1699 156.603 70.2967 157.384 70.657C158.164 71.0173 159.178 70.4747 159.65 69.445Z" fill="white"/>
<path style="mix-blend-mode:multiply" opacity="0.68" d="M129.448 131.275C129.448 131.275 140.798 124.657 141.28 124.31L134.549 120.85L121.945 127.405C122.581 127.878 128.795 130.802 129.448 131.275Z" fill="url(#paint13_linear_6788_6586)"/>
<path d="M129.101 118.775V124.589L135.1 128.02L141.28 124.361V118.473L133.857 116.484L129.101 118.775Z" fill="#F9AC91"/>
<path d="M128.602 118.889L132.314 118.017L135.384 121.859L142.075 118.017L138.743 114.261L135.338 114.99L128.602 118.889Z" fill="#B26542"/>
<path d="M132.313 118.017L138.743 114.261L142.074 118.017L135.384 121.859L132.313 118.017Z" fill="#8E3F17"/>
<path d="M137.194 125.763V122.509L136.036 123.175V126.362L137.194 125.763Z" fill="#8E3F17"/>
<path d="M139.072 124.617V121.363L137.915 122.03V125.216L139.072 124.617Z" fill="#8E3F17"/>
<path d="M140.814 123.58V120.325L139.657 120.992V124.179L140.814 123.58Z" fill="#8E3F17"/>
<path d="M130.77 125.547V122.902L132.313 123.791V126.424L130.77 125.547Z" fill="#8E3F17"/>
<path d="M130.77 122.902C130.77 122.902 130.821 122.018 131.598 122.218C132.376 122.417 132.313 123.791 132.313 123.791" fill="#8E3F17"/>
<path style="mix-blend-mode:multiply" opacity="0.68" d="M116.957 124.042C116.957 124.042 128.307 117.424 128.789 117.077L122.058 113.617L109.46 120.166C110.09 120.645 116.304 123.569 116.957 124.042Z" fill="url(#paint14_linear_6788_6586)"/>
<path style="mix-blend-mode:multiply" opacity="0.68" d="M158.202 115.737C158.202 115.737 169.552 109.119 170.035 108.772L163.304 105.312L150.683 111.861C151.336 112.34 157.55 115.264 158.202 115.737Z" fill="url(#paint15_linear_6788_6586)"/>
<path style="mix-blend-mode:multiply" opacity="0.68" d="M140.9 106.691C140.9 106.691 152.25 100.073 152.732 99.7256L146.002 96.26L133.38 102.809C134.033 103.294 140.247 106.218 140.9 106.691Z" fill="url(#paint16_linear_6788_6586)"/>
<path style="mix-blend-mode:multiply" opacity="0.68" d="M128.908 99.4236C128.908 99.4236 140.258 92.8059 140.741 92.4582L134.01 88.9983L121.377 95.5533C122.041 96.0264 128.256 98.9562 128.908 99.4236Z" fill="url(#paint17_linear_6788_6586)"/>
<path d="M128.664 86.6271V92.4411L134.663 95.8725L140.843 92.2131V86.325L133.42 84.3357L128.664 86.6271Z" fill="#FF671C"/>
<path d="M128.165 86.7412L131.876 85.8691L134.947 89.7109L141.643 85.8691L138.306 82.1128L134.901 82.8424L128.165 86.7412Z" fill="#B26542"/>
<path d="M131.876 85.8691L138.306 82.1128L141.643 85.8691L134.947 89.7109L131.876 85.8691Z" fill="#8E3F17"/>
<path d="M136.757 93.6153V90.3606L135.599 91.0275V94.2138L136.757 93.6153Z" fill="#8E3F17"/>
<path d="M138.635 92.4695V89.2148L137.478 89.8817V93.068L138.635 92.4695Z" fill="#8E3F17"/>
<path d="M140.377 91.4322V88.1775L139.22 88.8444V92.0307L140.377 91.4322Z" fill="#8E3F17"/>
<path d="M130.333 93.3987V90.7539L131.876 91.6431V94.2765L130.333 93.3987Z" fill="#8E3F17"/>
<path d="M130.333 90.7539C130.333 90.7539 130.384 89.8704 131.161 90.0699C131.939 90.2694 131.876 91.6431 131.876 91.6431" fill="#8E3F17"/>
<path d="M141.093 93.889V99.7087L147.091 103.134L153.271 99.475V93.5926L145.848 91.6033L141.093 93.889Z" fill="#F9AC91"/>
<path d="M140.593 94.0085L144.305 93.1364L147.375 96.9782L154.071 93.1364L150.734 89.3801L147.335 90.1097L140.593 94.0085Z" fill="#B26542"/>
<path d="M144.305 93.1364L150.734 89.3801L154.071 93.1364L147.375 96.9782L144.305 93.1364Z" fill="#8E3F17"/>
<path d="M149.185 100.883V97.6282L148.027 98.2951V101.481L149.185 100.883Z" fill="#8E3F17"/>
<path d="M151.063 99.7371V96.4824L149.906 97.1493V100.336L151.063 99.7371Z" fill="#8E3F17"/>
<path d="M152.806 98.6996V95.4392L151.648 96.1118V99.2981L152.806 98.6996Z" fill="#8E3F17"/>
<path d="M142.761 100.66V98.0156L144.304 98.9048V101.544L142.761 100.66Z" fill="#8E3F17"/>
<path d="M142.761 98.0158C142.761 98.0158 142.812 97.1323 143.589 97.3318C144.367 97.5313 144.304 98.905 144.304 98.905" fill="#8E3F17"/>
<path d="M157.919 103.225V109.039L163.917 112.471L170.097 108.811V102.923L162.675 100.934L157.919 103.225Z" fill="#A2DB52"/>
<path d="M157.419 103.34L161.131 102.467L164.201 106.309L170.892 102.467L167.561 98.7112L164.156 99.4408L157.419 103.34Z" fill="#B26542"/>
<path d="M161.131 102.467L167.561 98.7112L170.892 102.467L164.201 106.309L161.131 102.467Z" fill="#8E3F17"/>
<path d="M166.011 110.214V106.959L164.854 107.626V110.812L166.011 110.214Z" fill="#8E3F17"/>
<path d="M167.89 109.068V105.813L166.732 106.48V109.666L167.89 109.068Z" fill="#8E3F17"/>
<path d="M169.632 108.031V104.776L168.475 105.443V108.629L169.632 108.031Z" fill="#8E3F17"/>
<path d="M159.587 109.997V107.352L161.131 108.241V110.875L159.587 109.997Z" fill="#8E3F17"/>
<path d="M159.587 107.352C159.587 107.352 159.638 106.469 160.416 106.668C161.193 106.868 161.103 108.23 161.103 108.23" fill="#8E3F17"/>
<path d="M116.673 111.508V117.327L122.671 120.753L128.851 117.094V111.211L121.428 109.222L116.673 111.508Z" fill="#FF671C"/>
<path d="M116.174 111.627L119.885 110.75L122.955 114.591L129.646 110.75L126.315 106.999L122.91 107.723L116.174 111.627Z" fill="#B26542"/>
<path d="M119.885 110.75L126.315 106.999L129.646 110.75L122.955 114.591L119.885 110.75Z" fill="#8E3F17"/>
<path d="M124.766 118.496V115.241L123.608 115.908V119.094L124.766 118.496Z" fill="#8E3F17"/>
<path d="M126.644 117.356V114.101L125.486 114.768V117.954L126.644 117.356Z" fill="#8E3F17"/>
<path d="M128.386 116.313V113.058L127.229 113.725V116.911L128.386 116.313Z" fill="#8E3F17"/>
<path d="M118.341 118.279V115.635L119.885 116.524V119.163L118.341 118.279Z" fill="#8E3F17"/>
<path d="M118.341 115.64C118.341 115.64 118.392 114.757 119.17 114.956C119.947 115.156 119.885 116.529 119.885 116.529" fill="#8E3F17"/>
<path d="M94.1377 54.3024C94.1377 54.3024 105.079 47.1717 105.295 47.0064C105.51 46.8411 117.865 54.3024 117.865 54.3024V128.75L106.055 134.45L94.1377 128.75V54.3024Z" fill="#68E1FD"/>
<path opacity="0.39" d="M94.1602 54.3025V128.756L106.027 134.427L105.805 61.1311L94.1602 54.3025Z" fill="#1E4549"/>
<g style="mix-blend-mode:multiply" opacity="0.74">
<path d="M95.6074 55.488L97.4348 56.6451V129.765L95.6074 128.893V55.488Z" fill="#53646C"/>
<path d="M98.4165 57.1924L100.244 58.3552V131.469L98.4165 130.597V57.1924Z" fill="#53646C"/>
<path d="M101.458 58.9707L103.286 60.1278V133.247L101.458 132.375V58.9707Z" fill="#53646C"/>
</g>
<path d="M117.893 54.3025V128.756L106.027 134.427L105.805 61.1311L117.893 54.3025Z" fill="#68E1FD"/>
<g style="mix-blend-mode:multiply" opacity="0.74">
<path d="M115.799 55.8472L113.972 57.01V130.124L115.799 129.252V55.8472Z" fill="#53646C"/>
<path d="M112.99 57.5571L111.163 58.7142V131.828L112.99 130.962V57.5571Z" fill="#53646C"/>
<path d="M109.954 59.3354L108.126 60.4925V133.606L109.954 132.74V59.3354Z" fill="#53646C"/>
</g>
<path d="M100.471 46.1515L111.849 39.9214L117.893 54.3025L105.805 61.1311L100.471 46.1515Z" fill="#68E1FD"/>
<path d="M105.856 33.1555L114.704 38.9524L109.653 44.7436L105.011 46.2427" fill="#68E1FD"/>
<path d="M98.1499 51.0478L105.857 46.693V33.1555L98.1499 37.8295V51.0478Z" fill="#68E1FD"/>
<path d="M106.997 56.8447L114.704 52.4899V38.9524L106.997 43.6264V56.8447Z" fill="#68E1FD"/>
<path d="M106.753 41.2951L110.759 39.0322V31.9927L106.753 34.4209V41.2951Z" fill="#68E1FD"/>
<path opacity="0.45" d="M106.997 56.8447L114.704 52.4899V38.9524L106.997 43.6264V56.8447Z" fill="white"/>
<path opacity="0.5" d="M106.997 43.6264L98.1499 38.1658V52.5526L106.997 56.8447" fill="#102C2D"/>
<path d="M94.1602 54.3024L100.471 46.1514L105.805 61.131L94.1602 54.3024Z" fill="#68E1FD"/>
<path opacity="0.39" d="M94.1602 54.3024L100.471 46.1514L105.805 61.131L94.1602 54.3024Z" fill="#1E4549"/>
<path d="M106.157 28.9773L110.76 31.9926L108.132 35.0022L105.72 35.7831" fill="#68E1FD"/>
<path d="M102.151 38.2797L106.157 36.0168V28.9773L102.151 31.4055V38.2797Z" fill="#68E1FD"/>
<path opacity="0.45" d="M106.753 41.2951L110.759 39.0322V31.9927L106.753 34.4209V41.2951Z" fill="white"/>
<path opacity="0.5" d="M106.753 34.4209L102.151 31.5823V38.2798L106.753 41.2951" fill="#102C2D"/>
<path d="M105.011 30.9153C104.319 29.9064 107.003 6.46802 107.003 6.46802L108.762 31.5822C108.762 31.5822 106.697 33.372 105.011 30.9153Z" fill="#68E1FD"/>
<path opacity="0.5" d="M105.011 30.9153C104.319 29.9064 107.003 6.46802 107.003 6.46802L108.762 31.5822C108.762 31.5822 106.697 33.372 105.011 30.9153Z" fill="#102C2D"/>
<path d="M100.471 46.1513L102.366 45.4502L108.126 60.4925L105.805 61.1309" fill="#68E1FD"/>
<path style="mix-blend-mode:multiply" opacity="0.68" d="M70.9383 103.892C70.9383 103.892 82.2883 97.2746 82.7707 96.9269L76.0401 93.467L63.4189 100.022C64.0602 100.495 70.3027 103.419 70.9383 103.892Z" fill="url(#paint18_linear_6788_6586)"/>
<path style="mix-blend-mode:multiply" opacity="0.68" d="M73.2821 94.8523C73.2821 94.8523 84.6321 88.2346 85.1144 87.8869L78.3839 84.427L65.7627 90.9763C66.4153 91.4494 72.6294 94.3792 73.2821 94.8523Z" fill="url(#paint19_linear_6788_6586)"/>
<path d="M85.1539 83.5833V87.9438L80.6593 90.5088L76.0342 87.7671V83.361L81.59 81.8733L85.1539 83.5833Z" fill="#FF671C"/>
<path d="M85.5228 83.6746L82.7477 83.0191L80.4493 85.8976L75.4326 83.0191L77.9296 80.209L80.4777 80.7562L85.5228 83.6746Z" fill="#B26542"/>
<path d="M82.7477 83.0191L77.9296 80.209L75.4326 83.0191L80.4493 85.8976L82.7477 83.0191Z" fill="#8E3F17"/>
<path d="M79.0933 88.8217V86.3821L79.9559 86.8837V89.2663L79.0933 88.8217Z" fill="#8E3F17"/>
<path d="M77.6855 87.961V85.5271L78.5538 86.0287V88.4113L77.6855 87.961Z" fill="#8E3F17"/>
<path d="M76.3804 87.1857V84.7461L77.2486 85.2477V87.636L76.3804 87.1857Z" fill="#8E3F17"/>
<path d="M83.9001 88.6564V86.6785L82.748 87.3397V89.3176L83.9001 88.6564Z" fill="#8E3F17"/>
<path d="M83.9227 86.6785C83.9227 86.6785 83.8886 86.0172 83.3041 86.1654C82.7196 86.3136 82.7707 87.3454 82.7707 87.3454" fill="#8E3F17"/>
<path d="M82.8102 92.6749V97.0297L78.3156 99.5947L73.6904 96.853V92.4526L79.2463 90.9592L82.8102 92.6749Z" fill="#F9AC91"/>
<path d="M83.1792 92.7603L80.4041 92.1105L78.1058 94.9833L73.0947 92.1105L75.5861 89.2947L78.1398 89.8419L83.1792 92.7603Z" fill="#B26542"/>
<path d="M80.4041 92.1105L75.5861 89.2947L73.0947 92.1105L78.1058 94.9833L80.4041 92.1105Z" fill="#8E3F17"/>
<path d="M76.7495 97.9074V95.4678L77.6178 95.9694V98.3577L76.7495 97.9074Z" fill="#8E3F17"/>
<path d="M75.3418 97.0524V94.6128L76.2101 95.1144V97.497L75.3418 97.0524Z" fill="#8E3F17"/>
<path d="M74.0425 96.2715V93.8376L74.9051 94.3335V96.7218L74.0425 96.2715Z" fill="#8E3F17"/>
<path d="M81.5563 97.7421V95.7642L80.4043 96.4311V98.4033L81.5563 97.7421Z" fill="#8E3F17"/>
<path d="M81.556 95.7641C81.556 95.7641 81.5219 95.1029 80.9374 95.2511C80.3529 95.3993 80.404 96.431 80.404 96.431" fill="#8E3F17"/>
<path style="mix-blend-mode:multiply" opacity="0.68" d="M155.95 106.794L152.999 105.084L147.823 107.54C147.437 108.39 149.14 109.9 150.66 109.667C152.474 108.806 154.24 107.847 155.95 106.794Z" fill="url(#paint20_linear_6788_6586)"/>
<path d="M152.221 106.811C152.803 107.1 153.445 107.245 154.093 107.234C154.742 107.223 155.378 107.056 155.95 106.748C156.602 106.03 156.761 104.941 156.659 103.784C156.486 102.302 156.092 100.856 155.49 99.4919C155.218 98.8649 154.457 97.6565 153.64 98.2379C152.965 98.7167 152.772 99.5831 152.505 100.33C151.909 102.165 150.961 104.559 151.938 106.429C152.013 106.569 152.109 106.698 152.221 106.811Z" fill="#2C9135"/>
<path d="M152.914 104.046C153.033 102.906 153.424 101.909 153.368 100.74C153.272 99.9156 153.343 99.08 153.578 98.2837C152.948 98.7739 152.76 99.6061 152.522 100.33C151.926 102.165 150.979 104.559 151.955 106.429C152.028 106.571 152.122 106.702 152.233 106.817C152.987 107.175 153.829 107.306 154.656 107.193C153.288 106.737 152.766 105.523 152.914 104.046Z" fill="#247728"/>
<defs>
<linearGradient id="paint0_linear_6788_6586" x1="89.5577" y1="65.7651" x2="85.2495" y2="69.8445" gradientUnits="userSpaceOnUse">
<stop stop-color="#7F4E00"/>
<stop offset="1" stop-color="white"/>
</linearGradient>
<linearGradient id="paint1_linear_6788_6586" x1="117.536" y1="137.135" x2="113.228" y2="141.209" gradientUnits="userSpaceOnUse">
<stop stop-color="#7F4E00"/>
<stop offset="1" stop-color="white"/>
</linearGradient>
<linearGradient id="paint2_linear_6788_6586" x1="125.628" y1="133.202" x2="121.32" y2="137.281" gradientUnits="userSpaceOnUse">
<stop stop-color="#7F4E00"/>
<stop offset="1" stop-color="white"/>
</linearGradient>
<linearGradient id="paint3_linear_6788_6586" x1="148.867" y1="120.685" x2="144.559" y2="124.758" gradientUnits="userSpaceOnUse">
<stop stop-color="#7F4E00"/>
<stop offset="1" stop-color="white"/>
</linearGradient>
<linearGradient id="paint4_linear_6788_6586" x1="77.0613" y1="116.917" x2="72.7531" y2="120.991" gradientUnits="userSpaceOnUse">
<stop stop-color="#7F4E00"/>
<stop offset="1" stop-color="white"/>
</linearGradient>
<linearGradient id="paint5_linear_6788_6586" x1="85.835" y1="113.098" x2="81.5268" y2="117.172" gradientUnits="userSpaceOnUse">
<stop stop-color="#7F4E00"/>
<stop offset="1" stop-color="white"/>
</linearGradient>
<linearGradient id="paint6_linear_6788_6586" x1="89.5577" y1="90.469" x2="85.2495" y2="94.5483" gradientUnits="userSpaceOnUse">
<stop stop-color="#7F4E00"/>
<stop offset="1" stop-color="white"/>
</linearGradient>
<linearGradient id="paint7_linear_6788_6586" x1="64.9" y1="105.739" x2="60.5918" y2="109.813" gradientUnits="userSpaceOnUse">
<stop stop-color="#7F4E00"/>
<stop offset="1" stop-color="white"/>
</linearGradient>
<linearGradient id="paint8_linear_6788_6586" x1="103.444" y1="124.526" x2="80.2451" y2="146.489" gradientUnits="userSpaceOnUse">
<stop stop-color="#7F4E00"/>
<stop offset="1" stop-color="white"/>
</linearGradient>
<linearGradient id="paint9_linear_6788_6586" x1="46.5865" y1="91.2442" x2="23.3929" y2="113.201" gradientUnits="userSpaceOnUse">
<stop stop-color="#7F4E00"/>
<stop offset="1" stop-color="white"/>
</linearGradient>
<linearGradient id="paint10_linear_6788_6586" x1="64.9624" y1="83.6917" x2="41.2046" y2="106.182" gradientUnits="userSpaceOnUse">
<stop stop-color="#7F4E00"/>
<stop offset="1" stop-color="white"/>
</linearGradient>
<linearGradient id="paint11_linear_6788_6586" x1="188.218" y1="85.966" x2="163.388" y2="109.466" gradientUnits="userSpaceOnUse">
<stop stop-color="#7F4E00"/>
<stop offset="1" stop-color="white"/>
</linearGradient>
<linearGradient id="paint12_linear_6788_6586" x1="161.471" y1="72.2687" x2="136.642" y2="95.7691" gradientUnits="userSpaceOnUse">
<stop stop-color="#7F4E00"/>
<stop offset="1" stop-color="white"/>
</linearGradient>
<linearGradient id="paint13_linear_6788_6586" x1="139.294" y1="118.513" x2="127.315" y2="129.855" gradientUnits="userSpaceOnUse">
<stop stop-color="#7F4E00"/>
<stop offset="1" stop-color="white"/>
</linearGradient>
<linearGradient id="paint14_linear_6788_6586" x1="126.803" y1="111.28" x2="114.824" y2="122.616" gradientUnits="userSpaceOnUse">
<stop stop-color="#7F4E00"/>
<stop offset="1" stop-color="white"/>
</linearGradient>
<linearGradient id="paint15_linear_6788_6586" x1="168.049" y1="102.975" x2="156.07" y2="114.316" gradientUnits="userSpaceOnUse">
<stop stop-color="#7F4E00"/>
<stop offset="1" stop-color="white"/>
</linearGradient>
<linearGradient id="paint16_linear_6788_6586" x1="150.746" y1="93.9287" x2="138.767" y2="105.27" gradientUnits="userSpaceOnUse">
<stop stop-color="#7F4E00"/>
<stop offset="1" stop-color="white"/>
</linearGradient>
<linearGradient id="paint17_linear_6788_6586" x1="138.76" y1="86.6613" x2="126.781" y2="98.003" gradientUnits="userSpaceOnUse">
<stop stop-color="#7F4E00"/>
<stop offset="1" stop-color="white"/>
</linearGradient>
<linearGradient id="paint18_linear_6788_6586" x1="80.7844" y1="91.13" x2="68.8058" y2="102.472" gradientUnits="userSpaceOnUse">
<stop stop-color="#7F4E00"/>
<stop offset="1" stop-color="white"/>
</linearGradient>
<linearGradient id="paint19_linear_6788_6586" x1="83.1282" y1="82.09" x2="71.1496" y2="93.426" gradientUnits="userSpaceOnUse">
<stop stop-color="#7F4E00"/>
<stop offset="1" stop-color="white"/>
</linearGradient>
<linearGradient id="paint20_linear_6788_6586" x1="154.871" y1="104.326" x2="150.563" y2="108.405" gradientUnits="userSpaceOnUse">
<stop stop-color="#7F4E00"/>
<stop offset="1" stop-color="white"/>
</linearGradient>
</defs>
</svg>
