<svg width="166" height="56" viewBox="0 0 166 56" fill="none" xmlns="http://www.w3.org/2000/svg">
<rect width="166" height="56" rx="28" fill="black"/>
<path d="M55.6659 29.5832L51.0326 31.8999C50.7159 32.0666 50.3326 31.9999 50.0659 31.7499L46.9492 28.6332C46.6159 28.2999 46.6159 27.7832 46.9492 27.4499L50.1159 24.2832C50.3659 24.0332 50.7659 23.9665 51.0826 24.1332L55.6659 26.4332C56.9826 27.0666 56.9826 28.9332 55.6659 29.5832Z" fill="white"/>
<path d="M47.1676 22.1501C47.6843 22.4001 47.7843 23.0835 47.3843 23.4835L44.6009 26.2668L43.4176 27.4501C43.0843 27.7835 42.5676 27.7835 42.2343 27.4501L30.3343 15.5501C29.6676 14.8834 30.4509 13.8001 31.3009 14.2168L47.1676 22.1501Z" fill="white"/>
<path d="M23.334 41.5833V13.8C23.334 13.0666 24.2173 12.6833 24.7507 13.1999L39.3673 27.3833C39.7173 27.7166 39.7006 28.2666 39.3507 28.5999L24.734 42.1999C24.2007 42.6999 23.334 42.3166 23.334 41.5833Z" fill="white"/>
<path d="M47.1169 33.8667L31.4669 41.7C30.6169 42.1167 29.8336 41.0334 30.5003 40.3667L42.2503 28.6167C42.5836 28.2834 43.1003 28.2834 43.4336 28.6167L47.3503 32.5334C47.7336 32.9334 47.6169 33.6167 47.1169 33.8667Z" fill="white"/>
<path d="M68.996 15.568C69.32 14.92 69.788 14.428 70.4 14.068C71 13.708 71.708 13.528 72.512 13.528C73.436 13.528 74.216 13.78 74.84 14.284C75.464 14.788 75.86 15.484 76.028 16.348H74.984C74.828 15.772 74.528 15.316 74.084 14.98C73.64 14.656 73.1 14.488 72.464 14.488C71.888 14.488 71.372 14.632 70.94 14.908C70.496 15.196 70.16 15.58 69.92 16.084C69.68 16.588 69.572 17.152 69.572 17.8C69.572 18.448 69.68 19.012 69.92 19.516C70.16 20.02 70.496 20.416 70.94 20.692C71.372 20.98 71.888 21.112 72.464 21.112C73.112 21.112 73.652 20.956 74.084 20.632C74.516 20.308 74.804 19.852 74.972 19.252H76.016C75.848 20.128 75.464 20.812 74.84 21.316C74.216 21.82 73.448 22.072 72.512 22.072C71.708 22.072 71 21.904 70.4 21.544C69.788 21.184 69.32 20.692 68.996 20.044C68.66 19.396 68.504 18.652 68.504 17.8C68.504 16.96 68.66 16.216 68.996 15.568ZM78.4275 21.676C77.9715 21.412 77.6115 21.052 77.3595 20.572C77.0955 20.104 76.9755 19.564 76.9755 18.94C76.9755 18.328 77.0955 17.788 77.3595 17.308C77.6115 16.84 77.9715 16.468 78.4275 16.204C78.8835 15.94 79.4115 15.808 80.0115 15.808C80.5995 15.808 81.1275 15.94 81.5835 16.204C82.0395 16.468 82.3995 16.84 82.6635 17.308C82.9155 17.788 83.0475 18.328 83.0475 18.94C83.0475 19.564 82.9155 20.104 82.6635 20.572C82.3995 21.052 82.0395 21.412 81.5835 21.676C81.1275 21.94 80.5995 22.072 80.0115 22.072C79.4115 22.072 78.8835 21.94 78.4275 21.676ZM81.0675 20.908C81.3795 20.716 81.6195 20.452 81.7875 20.104C81.9555 19.768 82.0395 19.372 82.0395 18.94C82.0395 18.508 81.9555 18.124 81.7875 17.776C81.6195 17.44 81.3795 17.164 81.0675 16.972C80.7555 16.78 80.4075 16.684 80.0115 16.684C79.6035 16.684 79.2555 16.78 78.9435 16.972C78.6315 17.164 78.4035 17.44 78.2355 17.776C78.0675 18.124 77.9835 18.508 77.9835 18.94C77.9835 19.372 78.0675 19.768 78.2355 20.104C78.4035 20.452 78.6315 20.716 78.9435 20.908C79.2555 21.1 79.6035 21.196 80.0115 21.196C80.4075 21.196 80.7555 21.1 81.0675 20.908ZM92.6719 16.456C93.1039 16.888 93.3199 17.56 93.3199 18.472V22H92.3359V18.532C92.3359 17.944 92.2039 17.488 91.9519 17.176C91.6999 16.864 91.3399 16.708 90.8839 16.708C90.3679 16.708 89.9599 16.888 89.6719 17.248C89.3839 17.608 89.2399 18.1 89.2399 18.724V22H88.2559V18.532C88.2559 17.944 88.1239 17.488 87.8719 17.176C87.6079 16.864 87.2479 16.708 86.7799 16.708C86.2759 16.708 85.8799 16.9 85.5919 17.284C85.3039 17.668 85.1599 18.16 85.1599 18.772V22H84.1759V15.88H85.0279L85.1599 16.72C85.5919 16.12 86.1919 15.808 86.9479 15.808C87.3799 15.808 87.7759 15.916 88.1119 16.108C88.4479 16.3 88.7119 16.588 88.8799 16.972C89.3119 16.204 90.0199 15.808 91.0039 15.808C91.6879 15.808 92.2399 16.024 92.6719 16.456ZM95.5302 13.696C95.6502 13.816 95.7102 13.972 95.7102 14.152C95.7102 14.344 95.6502 14.488 95.5302 14.608C95.4102 14.728 95.2542 14.788 95.0742 14.788C94.8822 14.788 94.7382 14.728 94.6182 14.608C94.4982 14.488 94.4382 14.344 94.4382 14.152C94.4382 13.972 94.4982 13.816 94.6182 13.696C94.7382 13.576 94.8822 13.516 95.0742 13.516C95.2542 13.516 95.4102 13.576 95.5302 13.696ZM94.5822 15.88H95.5662V22H94.5822V15.88ZM101.702 16.48C102.158 16.936 102.386 17.632 102.386 18.592V22H101.402V18.652C101.402 18.028 101.258 17.548 100.97 17.212C100.682 16.876 100.274 16.708 99.7462 16.708C99.1702 16.708 98.7142 16.912 98.3902 17.308C98.0542 17.716 97.8982 18.256 97.8982 18.94V22H96.9142V15.88H97.7662L97.8982 16.708C98.3542 16.108 99.0262 15.808 99.9142 15.808C100.658 15.808 101.246 16.036 101.702 16.48ZM109.449 15.88V21.7C109.449 23.548 108.429 24.472 106.413 24.472C105.621 24.472 104.973 24.292 104.469 23.932C103.965 23.572 103.677 23.068 103.605 22.396H104.613C104.685 22.78 104.889 23.08 105.225 23.284C105.549 23.5 105.969 23.596 106.485 23.596C107.805 23.596 108.465 22.96 108.465 21.664V20.944C108.021 21.7 107.325 22.072 106.365 22.072C105.789 22.072 105.285 21.952 104.841 21.7C104.397 21.46 104.049 21.1 103.797 20.62C103.545 20.152 103.425 19.588 103.425 18.94C103.425 18.328 103.545 17.788 103.797 17.308C104.049 16.84 104.397 16.468 104.853 16.204C105.297 15.94 105.801 15.808 106.365 15.808C106.857 15.808 107.277 15.916 107.637 16.108C107.985 16.3 108.261 16.576 108.465 16.936L108.597 15.88H109.449ZM107.505 20.92C107.817 20.728 108.057 20.464 108.225 20.128C108.393 19.792 108.477 19.396 108.477 18.964C108.477 18.532 108.393 18.136 108.225 17.788C108.057 17.44 107.817 17.164 107.505 16.972C107.193 16.78 106.845 16.684 106.461 16.684C105.849 16.684 105.357 16.9 104.985 17.32C104.613 17.74 104.433 18.28 104.433 18.94C104.433 19.612 104.613 20.152 104.985 20.572C105.357 20.992 105.849 21.196 106.461 21.196C106.845 21.196 107.193 21.112 107.505 20.92ZM114.698 19.984C114.71 20.356 114.866 20.656 115.178 20.884C115.49 21.124 115.886 21.232 116.378 21.232C116.81 21.232 117.158 21.148 117.422 20.98C117.686 20.812 117.83 20.584 117.83 20.296C117.83 20.056 117.758 19.876 117.638 19.744C117.506 19.624 117.338 19.528 117.134 19.48C116.93 19.432 116.642 19.384 116.27 19.336C115.742 19.276 115.31 19.192 114.974 19.084C114.638 18.988 114.362 18.82 114.158 18.592C113.942 18.364 113.846 18.052 113.846 17.644C113.846 17.284 113.942 16.972 114.146 16.684C114.35 16.408 114.626 16.192 114.986 16.036C115.334 15.88 115.73 15.796 116.174 15.796C116.894 15.796 117.47 15.964 117.926 16.3C118.382 16.636 118.634 17.116 118.682 17.74H117.698C117.65 17.428 117.494 17.164 117.23 16.948C116.954 16.744 116.618 16.636 116.21 16.636C115.79 16.636 115.454 16.732 115.202 16.9C114.938 17.068 114.818 17.296 114.818 17.572C114.818 17.788 114.878 17.944 114.998 18.052C115.118 18.172 115.262 18.244 115.454 18.28C115.646 18.328 115.934 18.364 116.318 18.412C116.846 18.484 117.29 18.568 117.638 18.676C117.986 18.796 118.262 18.976 118.478 19.216C118.694 19.468 118.802 19.804 118.802 20.224C118.802 20.596 118.694 20.92 118.478 21.196C118.262 21.484 117.962 21.7 117.602 21.844C117.23 22 116.822 22.072 116.378 22.072C115.574 22.072 114.926 21.892 114.446 21.52C113.966 21.16 113.714 20.644 113.714 19.984H114.698ZM121.154 21.676C120.698 21.412 120.338 21.052 120.086 20.572C119.822 20.104 119.702 19.564 119.702 18.94C119.702 18.328 119.822 17.788 120.086 17.308C120.338 16.84 120.698 16.468 121.154 16.204C121.61 15.94 122.138 15.808 122.738 15.808C123.326 15.808 123.854 15.94 124.31 16.204C124.766 16.468 125.126 16.84 125.39 17.308C125.642 17.788 125.774 18.328 125.774 18.94C125.774 19.564 125.642 20.104 125.39 20.572C125.126 21.052 124.766 21.412 124.31 21.676C123.854 21.94 123.326 22.072 122.738 22.072C122.138 22.072 121.61 21.94 121.154 21.676ZM123.794 20.908C124.106 20.716 124.346 20.452 124.514 20.104C124.682 19.768 124.766 19.372 124.766 18.94C124.766 18.508 124.682 18.124 124.514 17.776C124.346 17.44 124.106 17.164 123.794 16.972C123.482 16.78 123.134 16.684 122.738 16.684C122.33 16.684 121.982 16.78 121.67 16.972C121.358 17.164 121.13 17.44 120.962 17.776C120.794 18.124 120.71 18.508 120.71 18.94C120.71 19.372 120.794 19.768 120.962 20.104C121.13 20.452 121.358 20.716 121.67 20.908C121.982 21.1 122.33 21.196 122.738 21.196C123.134 21.196 123.482 21.1 123.794 20.908ZM128.138 21.676C127.682 21.412 127.322 21.052 127.07 20.572C126.806 20.104 126.686 19.564 126.686 18.94C126.686 18.328 126.806 17.788 127.07 17.308C127.322 16.84 127.682 16.468 128.138 16.204C128.594 15.94 129.122 15.808 129.722 15.808C130.31 15.808 130.838 15.94 131.294 16.204C131.75 16.468 132.11 16.84 132.374 17.308C132.626 17.788 132.758 18.328 132.758 18.94C132.758 19.564 132.626 20.104 132.374 20.572C132.11 21.052 131.75 21.412 131.294 21.676C130.838 21.94 130.31 22.072 129.722 22.072C129.122 22.072 128.594 21.94 128.138 21.676ZM130.778 20.908C131.09 20.716 131.33 20.452 131.498 20.104C131.666 19.768 131.75 19.372 131.75 18.94C131.75 18.508 131.666 18.124 131.498 17.776C131.33 17.44 131.09 17.164 130.778 16.972C130.466 16.78 130.118 16.684 129.722 16.684C129.314 16.684 128.966 16.78 128.654 16.972C128.342 17.164 128.114 17.44 127.946 17.776C127.778 18.124 127.694 18.508 127.694 18.94C127.694 19.372 127.778 19.768 127.946 20.104C128.114 20.452 128.342 20.716 128.654 20.908C128.966 21.1 129.314 21.196 129.722 21.196C130.118 21.196 130.466 21.1 130.778 20.908ZM138.675 16.48C139.131 16.936 139.359 17.632 139.359 18.592V22H138.375V18.652C138.375 18.028 138.231 17.548 137.943 17.212C137.655 16.876 137.247 16.708 136.719 16.708C136.143 16.708 135.687 16.912 135.363 17.308C135.027 17.716 134.871 18.256 134.871 18.94V22H133.887V15.88H134.739L134.871 16.708C135.327 16.108 135.999 15.808 136.887 15.808C137.631 15.808 138.219 16.036 138.675 16.48Z" fill="white"/>
<path d="M69.36 30.8H73.632C76.256 30.8 77.6 32.096 77.6 34.144C77.6 36.24 76.256 37.584 73.632 37.584H71.456V42H69.36V30.8ZM71.456 35.744H73.776C74.992 35.744 75.472 35.296 75.472 34.192C75.472 33.12 74.976 32.656 73.776 32.656H71.456V35.744ZM81.1059 42H79.0739V30.8H81.1059V42ZM89.0984 35.92V34.16H91.1304V42H89.0984V40.288C88.6024 41.536 87.6904 42.16 86.3784 42.16C85.2744 42.16 84.3944 41.792 83.7704 41.04C83.1304 40.304 82.8104 39.328 82.8104 38.096C82.8104 35.6 84.1064 34 86.2824 34C87.6424 34 88.5864 34.64 89.0984 35.92ZM86.9864 40.32C88.4744 40.32 89.1624 39.616 89.1624 38.096C89.1624 36.56 88.4744 35.84 86.9864 35.84C85.5624 35.84 84.8584 36.592 84.8584 38.096C84.8584 39.584 85.5624 40.32 86.9864 40.32ZM97.1296 38.8L98.6496 34.16H100.858L97.5296 42.864C97.0336 44.16 96.2816 44.72 94.6336 44.72H93.0016V42.928H95.7216L92.4416 34.16H94.6496L96.1536 38.8L96.6176 40.544L97.1296 38.8ZM109.543 42.16C106.967 42.16 105.271 41.024 104.951 38.608L107.111 38.032C107.287 39.824 108.039 40.368 109.591 40.368C111.015 40.368 111.623 39.92 111.623 38.912C111.623 38.448 111.511 38.144 111.287 37.968C111.047 37.792 110.615 37.648 109.959 37.52L108.055 37.152C106.167 36.784 105.223 35.712 105.223 33.936C105.223 32.944 105.591 32.144 106.343 31.536C107.095 30.944 108.071 30.64 109.287 30.64C111.831 30.64 113.431 31.824 113.639 34.128L111.623 34.688C111.543 32.944 110.759 32.464 109.271 32.464C108.039 32.464 107.415 32.928 107.415 33.84C107.415 34.784 107.847 35.024 109.111 35.264L110.871 35.6C112.823 35.968 113.799 36.976 113.799 38.624C113.799 39.696 113.415 40.544 112.647 41.184C111.879 41.84 110.839 42.16 109.543 42.16ZM120.455 34.16V35.952H118.183V40.208H120.263V42H118.583C117.127 42 116.151 41.024 116.151 39.568V35.952H114.647V34.16H116.151V31.824H118.183V34.16H120.455ZM125.659 34C126.827 34 127.819 34.368 128.635 35.12C129.451 35.872 129.851 36.864 129.851 38.096C129.851 39.312 129.451 40.288 128.635 41.04C127.819 41.792 126.827 42.16 125.659 42.16C124.475 42.16 123.483 41.792 122.667 41.04C121.851 40.288 121.451 39.312 121.451 38.096C121.451 36.864 121.851 35.872 122.667 35.12C123.483 34.368 124.475 34 125.659 34ZM125.659 40.32C127.083 40.32 127.803 39.584 127.803 38.096C127.803 36.56 127.115 35.84 125.659 35.84C124.187 35.84 123.499 36.56 123.499 38.096C123.499 39.584 124.219 40.32 125.659 40.32ZM135.894 34.032C136.326 34.032 136.646 34.064 136.838 34.144V36.064C136.566 35.952 136.214 35.904 135.782 35.904C134.438 35.904 133.606 36.832 133.606 38.752V42H131.574V34.16H133.606V36.384C133.878 34.816 134.646 34.032 135.894 34.032ZM145.225 37.968C145.225 38.256 145.225 38.512 145.209 38.72H139.641C139.769 40.016 140.345 40.576 141.577 40.576C142.489 40.576 142.905 40.304 143.289 39.472L145.049 40.112C144.521 41.472 143.337 42.16 141.529 42.16C140.329 42.16 139.353 41.792 138.633 41.056C137.897 40.32 137.529 39.344 137.529 38.128C137.529 36.896 137.897 35.904 138.633 35.136C139.353 34.384 140.297 34 141.465 34C142.601 34 143.513 34.352 144.201 35.072C144.889 35.792 145.225 36.768 145.225 37.968ZM141.481 35.536C140.345 35.536 139.785 36.064 139.641 37.328H143.209C143.193 36.032 142.649 35.536 141.481 35.536Z" fill="white"/>
</svg>
