<svg width="229" height="172" viewBox="0 0 229 172" fill="none" xmlns="http://www.w3.org/2000/svg">
<path d="M212.973 91.9736C190.988 103.773 126.333 141.096 105.944 152.878C104.058 153.974 101.916 154.552 99.7342 154.552C97.5527 154.552 95.4101 153.974 93.5241 152.878L16.0041 107.609C12.9204 105.807 13.9065 102.405 17.013 100.643L125.188 37.7609C125.745 37.4446 126.374 37.2783 127.014 37.2783C127.655 37.2783 128.284 37.4446 128.841 37.7609L213.047 85.6409C213.612 85.958 214.081 86.4215 214.405 86.9825C214.729 87.5435 214.896 88.1814 214.889 88.8292C214.881 89.477 214.699 90.1108 214.362 90.6641C214.025 91.2174 213.545 91.6697 212.973 91.9736Z" fill="#FFDAAE"/>
<path d="M119.733 41.9218C119.733 41.9218 117.892 54.5074 125.815 54.5473C133.424 54.5872 131.463 41.7679 131.463 41.7679C131.463 41.7679 125.9 36.9799 119.733 41.9218Z" fill="#68E1FD"/>
<path opacity="0.15" d="M119.733 41.9218C119.733 41.9218 117.892 54.5074 125.815 54.5473C133.424 54.5872 131.463 41.7679 131.463 41.7679C131.463 41.7679 125.9 36.9799 119.733 41.9218Z" fill="black"/>
<path d="M125.575 44.3387C128.808 44.3387 131.429 43.2567 131.429 41.9219C131.429 40.5872 128.808 39.5051 125.575 39.5051C122.342 39.5051 119.721 40.5872 119.721 41.9219C119.721 43.2567 122.342 44.3387 125.575 44.3387Z" fill="#68E1FD"/>
<path opacity="0.7" d="M125.575 44.3387C128.808 44.3387 131.429 43.2567 131.429 41.9219C131.429 40.5872 128.808 39.5051 125.575 39.5051C122.342 39.5051 119.721 40.5872 119.721 41.9219C119.721 43.2567 122.342 44.3387 125.575 44.3387Z" fill="black"/>
<path d="M116.358 23.5507C116.358 23.5507 112.277 22.5703 113.844 19.1731C113.844 19.1731 116.649 19.726 116.358 23.5507Z" fill="#938F05"/>
<path d="M118.838 26.9708C118.838 26.9708 118.268 24.0695 120.548 22.8953C120.542 22.901 122.36 25.9391 118.838 26.9708Z" fill="#938F05"/>
<path d="M121.385 31.4226C121.385 31.4226 120.707 27.9513 123.42 26.5491C123.42 26.5491 125.598 30.1857 121.385 31.4226Z" fill="#938F05"/>
<path d="M123.358 36.2732C123.358 36.2732 122.679 32.8019 125.392 31.3997C125.392 31.3997 127.57 35.0363 123.358 36.2732Z" fill="#938F05"/>
<path d="M118.593 27.0506C118.593 27.0506 117.151 24.4685 114.666 25.0385C114.666 25.01 115.236 28.5326 118.593 27.0506Z" fill="#938F05"/>
<path d="M121.175 31.5308C121.175 31.5308 119.334 28.5098 116.387 29.3078C116.381 29.3078 117.225 33.4631 121.175 31.5308Z" fill="#938F05"/>
<path d="M123.13 36.313C123.13 36.313 120.964 33.5143 118.125 34.603C118.125 34.6315 119.419 38.6899 123.13 36.313Z" fill="#938F05"/>
<path d="M124.657 44.39H124.714C124.905 44.3861 125.096 44.4013 125.284 44.4356C125.286 44.4166 125.286 44.3976 125.284 44.3786C124.392 36.6145 121.343 29.2553 116.483 23.1347C116.227 22.8155 115.782 23.2658 116.033 23.585C120.784 29.5793 123.767 36.7808 124.646 44.3786L124.657 44.39Z" fill="#42352F"/>
<path d="M134.313 29.0913C134.313 29.0913 137.813 28.2534 136.468 25.335C136.474 25.335 134.062 25.8138 134.313 29.0913Z" fill="#938F05"/>
<path d="M132.17 32.0268C132.17 32.0268 132.655 29.5359 130.711 28.5327C130.728 28.5384 129.16 31.1433 132.17 32.0268Z" fill="#938F05"/>
<path d="M130.004 35.84C130.004 35.84 130.574 32.8589 128.26 31.6619C128.26 31.6676 126.384 34.7855 130.004 35.84Z" fill="#938F05"/>
<path d="M128.311 40.0067C128.311 40.0067 128.881 37.0256 126.567 35.8286C126.567 35.84 124.697 38.9465 128.311 40.0067Z" fill="#938F05"/>
<path d="M132.398 32.095C132.398 32.095 133.635 29.8777 135.767 30.385C135.767 30.3679 135.282 33.3661 132.398 32.095Z" fill="#938F05"/>
<path d="M130.187 35.9369C130.187 35.9369 131.765 33.3491 134.296 34.0274C134.296 34.0274 133.572 37.5956 130.187 35.9369Z" fill="#938F05"/>
<path d="M128.505 40.0408C128.505 40.0408 130.363 37.6411 132.797 38.5987C132.803 38.5987 131.691 42.0586 128.505 40.0408Z" fill="#938F05"/>
<path d="M134.205 28.7208C130.59 33.2653 128.132 38.6186 127.04 44.3217C127.222 44.2932 127.416 44.2647 127.61 44.2476C128.689 38.7143 131.079 33.5207 134.581 29.1027C134.803 28.8348 134.45 28.4301 134.205 28.7208Z" fill="#42352F"/>
<path d="M185.761 64.1519L185.79 93.8831L122.32 131.879V99.7655L185.761 64.1519Z" fill="#76B52C"/>
<path d="M86.376 81.1323V111.137L122.32 131.879V99.7656L86.376 81.1323Z" fill="#8CCE46"/>
<path d="M185.248 64.813L121.961 103.63L86.376 82.8763L117.031 71.0716" fill="#63A01C"/>
<path d="M82.375 80.5338L117.641 101.151C128.425 99.4033 138.8 95.7023 148.256 90.2295C164.033 81.1095 185.767 64.1577 185.767 64.1577L153.351 45.1482L107.495 72.5652C107.495 72.5652 94.8238 78.8238 82.375 80.5338Z" fill="#8CCE46"/>
<path d="M86.376 81.1321L118.25 99.7654C118.25 99.7654 133.139 96.8242 147.4 88.5877C161.662 80.3512 181.304 65.0182 181.304 65.0182L152.017 47.8384L110.567 72.622C102.822 76.2952 94.7145 79.1474 86.376 81.1321Z" stroke="#736357" stroke-miterlimit="10"/>
<path d="M137.744 84.2273C146.757 84.2273 154.063 79.7946 154.063 74.3264C154.063 68.8583 146.757 64.4255 137.744 64.4255C128.732 64.4255 121.425 68.8583 121.425 74.3264C121.425 79.7946 128.732 84.2273 137.744 84.2273Z" fill="#63A01C"/>
<path d="M37.7038 108.851C37.3356 106.27 37.6037 103.638 38.4847 101.185C39.9496 97.1947 46.3393 107.837 46.3393 107.837" fill="#F2AE16"/>
<path d="M57.426 96.6191C66.717 97.8617 73.0212 104.029 71.505 110.373C69.9888 116.717 61.245 120.867 51.9312 119.624C42.6174 118.382 36.336 112.214 37.8522 105.87C39.3684 99.5261 48.135 95.3765 57.426 96.6191Z" fill="#F2AE16"/>
<path d="M57.7111 93.0451C67.0021 94.2877 73.3063 100.455 71.7901 106.799C70.2739 113.143 61.5301 117.293 52.2163 116.05C42.9025 114.808 36.6211 108.64 38.1373 102.296C39.6535 95.9521 48.4201 91.8025 57.7111 93.0451Z" fill="#FFD008"/>
<path d="M57.3746 94.4646C65.5199 95.5533 71.0546 100.951 69.7151 106.514C68.3756 112.078 60.7091 115.708 52.5638 114.62C44.4185 113.531 38.8838 108.133 40.2233 102.57C41.5628 97.0068 49.2293 93.3759 57.3746 94.4646Z" stroke="#F7931E" stroke-miterlimit="10"/>
<path d="M55.2768 99.6172C54.5729 99.9899 53.992 100.559 53.6046 101.255C53.2171 101.951 53.0397 102.744 53.0937 103.539C51.4407 103.771 49.7915 104.01 48.1461 104.257C48.1354 103.921 48.1719 103.585 48.2544 103.259C48.5109 102.262 46.419 102.119 46.1625 103.083C46.0476 103.571 46.0321 104.077 46.1169 104.57L43.3866 104.998C42.0699 105.209 42.3834 106.771 43.7115 106.554L46.6071 106.104C47.1937 107.335 48.194 108.322 49.4336 108.892C50.6731 109.462 52.0734 109.578 53.3901 109.222C55.7328 108.606 55.6245 106.839 55.4022 105.294C55.4022 105.14 55.3566 104.987 55.3281 104.833C56.8975 104.62 58.4707 104.415 60.0477 104.217C60.0091 104.922 59.8964 105.622 59.7114 106.303C59.4435 107.301 61.5354 107.443 61.8033 106.48C62.0277 105.659 62.1389 104.812 62.1339 103.961L63.7641 103.761C65.1036 103.607 64.7787 102.051 63.4392 102.205L61.9287 102.387C61.7059 101.51 61.2302 100.717 60.5607 100.107C59.8278 99.511 58.9342 99.146 57.9933 99.0587C57.0525 98.9714 56.1069 99.1658 55.2768 99.6172ZM53.4357 106.252C52.8657 107.723 51.4236 108.053 49.9359 107.141C49.3816 106.813 48.9174 106.353 48.585 105.802C50.1658 105.562 51.7485 105.332 53.3331 105.112C53.4583 105.478 53.4935 105.869 53.4357 106.252ZM58.9362 101.088C59.4344 101.474 59.7781 102.026 59.9052 102.644C58.332 102.841 56.7607 103.047 55.1913 103.259C55.1936 103.116 55.205 102.974 55.2255 102.832C55.4307 101.612 56.9298 99.6799 58.9362 101.088Z" fill="#F7931E"/>
<path d="M90.9364 14.8298L77.8264 20.7065L83.059 23.7275L69.379 51.8969L53.7838 46.5332L42.9766 73.46C45.0628 74.7083 47.1775 75.9053 49.2466 77.1878L57.8308 55.3967L73.1581 60.2531L88.3087 26.6231L94.2538 30.2027L90.9364 14.8298Z" fill="#68E1FD"/>
<path d="M102.684 90.748L106.264 89.3344L105.163 83.5603L101.823 82.8535L102.684 90.748Z" fill="#7C1251"/>
<path d="M155.095 38.063C155.095 38.063 156.993 38.7413 157.204 38.7413C157.415 38.7413 160.755 38.7014 160.539 40.6622C160.322 42.623 155.095 42.11 155.095 42.11L152.69 39.5849" fill="#EA831C"/>
<path d="M161.81 40.4342L159.137 39.545C159.137 39.545 155.888 38.8439 155.569 39.545C155.249 40.2461 156.139 42.566 156.463 42.6401L158.926 43.2101L161.354 43.4894" fill="#F7931E"/>
<path d="M140.72 66.449C140.72 66.449 124.144 77.336 122.52 77.4899C120.895 77.6438 104.548 84.0278 104.548 84.0278C104.548 84.0278 105.357 88.1432 104.924 90.0356C104.924 90.0356 134.792 82.5116 138.554 81.2291C142.316 79.9466 150.957 71.3909 148.751 69.0881C146.545 66.7853 140.72 66.449 140.72 66.449Z" fill="#E86A58"/>
<path d="M150.308 49.2919C148.951 48.0094 146.688 42.2809 147.241 40.9585C147.794 39.6361 151.448 41.8249 151.448 41.8249L155.101 38.0686C155.101 38.0686 150.011 33.8791 147.577 33.2065C145.143 32.5339 143.262 33.3205 142.487 36.2446C141.712 39.1687 144.26 49.4572 143.935 51.6346C143.61 53.812 140.72 66.4546 140.72 66.4546C143.046 70.4446 152.559 72.5422 153.887 72.2059C155.215 71.8696 161.964 56.7817 161.964 56.7817C161.964 56.7817 174.578 48.5623 172.92 44.7319C171.261 40.9015 163.948 39.8299 162.454 39.6475C160.961 39.4651 159.827 44.2987 159.827 44.2987C159.827 44.2987 164.609 45.6439 165.054 46.2595C165.498 46.8751 163.395 48.4426 159.411 49.3033C155.426 50.164 154.543 49.6852 154.543 49.6852" fill="#68E1FD"/>
<path d="M102.684 90.7482C102.684 90.7482 102.992 88.0179 103.208 86.7582C103.425 85.4985 104.217 78.5103 101.048 78.7497C97.8787 78.9891 99.9079 85.7892 99.7882 86.5416C99.6685 87.294 99.3664 89.4201 99.8338 90.0813C100.301 90.7425 101.664 91.4607 102.684 90.7482Z" fill="#7C1251"/>
<path d="M98.6994 85.3275C98.6994 85.3275 97.5594 86.1084 96.7785 85.1793C95.9976 84.2502 95.5644 76.6578 94.9887 75.1416C94.413 73.6254 94.3503 70.935 96.2028 70.7583C98.0553 70.5816 98.3175 71.4936 98.6994 72.7134C99.0813 73.9332 100.575 77.7066 101.965 78.1854C103.122 78.5522 104.298 78.8548 105.488 79.0917L105.169 83.5605L98.6994 85.3275Z" fill="#981E61"/>
<path d="M151.693 51.3212C151.693 51.3212 148.438 66.05 148.301 66.449C148.164 66.848 145.212 68.5637 145.212 68.5637L144.556 65.9132L150.786 51.0476L151.693 51.3212Z" fill="#091114"/>
<path d="M155.996 49.7993C155.996 49.7993 151.744 53.4758 151.932 53.2193C152.12 52.9628 151.026 51.5093 151.026 51.5093L149.116 52.0793L151.299 48.2603" fill="#091114"/>
<path d="M149.27 42.9535C149.27 42.9535 147.663 48.9043 150.319 50.2096C152.975 51.5149 154.839 49.5712 155.648 47.7928C156.458 46.0144 156.11 41.8591 152.69 41.4316C149.698 41.0611 149.27 42.9535 149.27 42.9535Z" fill="#F7931E"/>
<path d="M148.54 41.882C148.43 42.0223 148.355 42.1879 148.324 42.3641C148.293 42.5403 148.307 42.7214 148.363 42.891C148.42 43.0607 148.518 43.2136 148.648 43.336C148.779 43.4584 148.938 43.5463 149.11 43.592C149.33 43.646 149.559 43.6506 149.781 43.6052C150.003 43.5599 150.212 43.4658 150.393 43.3298C150.826 43.022 151.214 42.5147 151.812 42.7598C151.976 42.8277 152.115 42.9447 152.21 43.0947C152.305 43.2447 152.351 43.4204 152.342 43.5977C152.283 43.8286 152.255 44.0662 152.257 44.3045C152.303 44.4712 152.409 44.6155 152.553 44.7109C152.698 44.8062 152.872 44.8461 153.043 44.8232C153.613 44.8232 154.058 44.561 154.548 44.9999C154.732 45.1713 154.852 45.4002 154.888 45.6489C154.924 45.8975 154.875 46.1511 154.748 46.3679C154.659 46.4625 154.582 46.5678 154.52 46.6814C154.429 46.841 154.611 46.9607 154.753 46.9151C154.793 46.9075 154.829 46.8875 154.856 46.8581C154.933 46.7746 154.999 46.6828 155.056 46.5845C155.109 46.5331 155.175 46.4958 155.246 46.4759C155.318 46.456 155.393 46.4541 155.466 46.4705C155.848 46.5731 155.688 46.9721 155.466 47.1773C155.309 47.3393 155.117 47.4627 154.904 47.5379C154.692 47.613 154.464 47.6379 154.24 47.6105C154.202 47.6063 154.163 47.6142 154.129 47.6331C154.095 47.652 154.068 47.6809 154.051 47.7158C154.034 47.7508 154.029 47.7901 154.035 47.8284C154.041 47.8667 154.059 47.9021 154.087 47.9297C154.066 47.9494 154.051 47.9736 154.042 48.0004C154.033 48.0272 154.031 48.0557 154.035 48.0836C154.092 48.4733 154.029 48.8712 153.853 49.2236C153.838 49.2459 153.828 49.271 153.824 49.2972C153.819 49.3235 153.819 49.3504 153.825 49.3765C153.831 49.4025 153.842 49.4271 153.858 49.4489C153.873 49.4706 153.893 49.4889 153.916 49.5029C153.912 49.5285 153.916 49.5545 153.925 49.5784C153.935 49.6024 153.95 49.6236 153.97 49.6401C153.99 49.6565 154.014 49.6677 154.039 49.6726C154.064 49.6776 154.091 49.676 154.115 49.6682C154.809 49.4834 155.454 49.1509 156.008 48.6935C157.29 47.5369 158.173 46.0048 158.533 44.3159C158.892 42.6857 158.441 40.2917 156.355 40.2575C156.271 40.2638 156.185 40.2541 156.104 40.229C156.045 40.2005 155.991 40.1619 155.945 40.115C155.425 39.6577 154.798 39.3395 154.123 39.19C153.447 39.0405 152.744 39.0646 152.08 39.26C151.708 39.3466 151.36 39.514 151.06 39.7502C150.809 39.521 150.498 39.367 150.163 39.3055C149.829 39.2441 149.484 39.2777 149.168 39.4025C148.324 39.8072 148.444 41.1125 148.723 41.8307C148.691 41.8217 148.657 41.8217 148.625 41.8308C148.592 41.8398 148.563 41.8576 148.54 41.882ZM151.858 42.3779H151.915H151.949C151.982 42.4032 152.019 42.4242 152.057 42.4406C152.174 42.4873 152.273 42.5715 152.337 42.68C152.204 42.5461 152.042 42.4447 151.864 42.3836L151.858 42.3779ZM148.928 41.198C148.949 41.264 148.974 41.3287 149.002 41.3918C148.957 41.3405 148.945 41.2721 148.928 41.198Z" fill="#935542"/>
<path d="M153.881 72.2002C153.881 72.2002 151.145 80.7502 145.69 82.5286C140.235 84.307 135.835 80.8699 133.31 81.6793C130.785 82.4887 109.985 85.0366 104.565 84.0277C104.565 84.0277 103.647 78.1453 104.941 76.9141C106.235 75.6829 128.949 71.0488 131.161 70.7353C133.373 70.4218 143.273 68.8999 143.273 68.8999" fill="#FF7B61"/>
<path d="M37.6071 100.535C37.239 97.9541 37.507 95.3222 38.388 92.8685C39.8529 88.8785 46.2426 99.5204 46.2426 99.5204" fill="#F2AE16"/>
<path d="M57.3288 88.28C66.6198 89.5226 72.924 95.69 71.4078 102.034C69.8916 108.378 61.1478 112.528 51.834 111.285C42.5202 110.043 36.2388 103.875 37.755 97.5311C39.2712 91.187 48.0378 87.0602 57.3288 88.28Z" fill="#F2AE16"/>
<path d="M57.6139 84.729C66.9049 85.9716 73.2092 92.139 71.693 98.4831C70.1768 104.827 61.433 108.977 52.1192 107.734C42.8054 106.492 36.524 100.324 38.0402 93.9801C39.5564 87.636 48.3229 83.4864 57.6139 84.729Z" fill="#FFD008"/>
<path d="M57.2721 86.1539C65.4174 87.2426 70.9521 92.6405 69.6126 98.2037C68.2731 103.767 60.6066 107.398 52.4613 106.309C44.316 105.22 38.7813 99.8225 40.1208 94.2593C41.4603 88.6961 49.1325 85.0595 57.2721 86.1539Z" stroke="#F7931E" stroke-miterlimit="10"/>
<path d="M55.1743 91.301C54.4703 91.6738 53.8895 92.2426 53.502 92.9386C53.1146 93.6345 52.9372 94.4279 52.9912 95.2226C51.3382 95.4544 49.689 95.6938 48.0436 95.9408C48.0329 95.6049 48.0694 95.2691 48.1519 94.9433C48.4084 93.9458 46.3165 93.8033 46.06 94.7666C45.9451 95.2544 45.9296 95.7604 46.0144 96.2543L43.2841 96.6818C41.9674 96.8927 42.2809 98.4545 43.609 98.2379L46.5046 97.7876C47.0912 99.0193 48.0915 100.006 49.331 100.576C50.5706 101.146 51.9708 101.262 53.2876 100.906C55.6303 100.29 55.522 98.5229 55.2997 96.9782C55.2997 96.8243 55.2541 96.6704 55.2256 96.5165C56.795 96.3037 58.3682 96.0985 59.9452 95.9009C59.9066 96.6062 59.7938 97.3054 59.6089 97.9871C59.341 98.9846 61.4329 99.1271 61.7008 98.1638C61.9252 97.343 62.0364 96.4954 62.0314 95.6444L63.6616 95.4449C65.0011 95.291 64.6762 93.7349 63.3367 93.8888L61.8262 94.0712C61.6033 93.1937 61.1276 92.4008 60.4582 91.7912C59.7253 91.1949 58.8316 90.8298 57.8908 90.7425C56.95 90.6553 56.0044 90.8497 55.1743 91.301ZM53.3332 97.9358C52.7632 99.4064 51.3211 99.737 49.8334 98.825C49.2791 98.4973 48.8149 98.037 48.4825 97.4855C50.0633 97.2461 51.646 97.0162 53.2306 96.7958C53.3558 97.1621 53.391 97.5531 53.3332 97.9358ZM58.8337 92.7716C59.3319 93.1582 59.6755 93.7101 59.8027 94.3277C58.2295 94.5253 56.6582 94.7305 55.0888 94.9433C55.0911 94.8002 55.1025 94.6574 55.123 94.5158C55.3282 93.296 56.8615 91.3409 58.8337 92.7716Z" fill="#F7931E"/>
<path d="M36.4099 93.41C36.0417 90.8291 36.3098 88.1972 37.1908 85.7435C38.6557 81.7535 45.0454 92.3954 45.0454 92.3954" fill="#F2AE16"/>
<path d="M56.132 81.1777C65.423 82.4203 71.7272 88.5877 70.211 94.9318C68.6948 101.276 59.951 105.425 50.6372 104.183C41.3234 102.94 35.042 96.7729 36.5582 90.4288C38.0744 84.0847 46.841 79.9351 56.132 81.1777Z" fill="#F2AE16"/>
<path d="M56.4172 77.6097C65.7082 78.8523 72.0124 85.0197 70.4962 91.3638C68.98 97.7079 60.2362 101.857 50.9224 100.615C41.6086 99.3723 35.3272 93.2049 36.8434 86.8608C38.3596 80.5167 47.1262 76.3614 56.4172 77.6097Z" fill="#FFD008"/>
<path d="M56.0752 79.0288C64.2205 80.1175 69.7552 85.5154 68.4157 91.0786C67.0762 96.6418 59.404 100.25 51.2644 99.184C43.1248 98.1181 37.5844 92.6974 38.9239 87.1342C40.2634 81.571 47.9356 77.9401 56.0752 79.0288Z" stroke="#F7931E" stroke-miterlimit="10"/>
<path d="M53.9772 84.1818C53.2743 84.5553 52.6946 85.1245 52.3082 85.8204C51.9218 86.5163 51.7452 87.3093 51.7998 88.1034C50.1468 88.3352 48.4976 88.5746 46.8522 88.8216C46.8415 88.4857 46.878 88.1499 46.9605 87.8241C47.217 86.8266 45.1251 86.6841 44.8686 87.6474C44.7537 88.1352 44.7382 88.6411 44.823 89.1351L42.0927 89.5626C40.776 89.7735 41.0895 91.3353 42.4176 91.1187L45.3132 90.6684C45.8998 91.9001 46.9 92.8869 48.1396 93.4566C49.3792 94.0264 50.7794 94.1431 52.0962 93.7863C54.4389 93.1707 54.3306 91.4037 54.1083 89.859C54.1083 89.7051 54.0627 89.5512 54.0342 89.3973C55.6036 89.1845 57.1768 88.9793 58.7538 88.7817C58.7151 89.487 58.6024 90.1862 58.4175 90.8679C58.1496 91.8654 60.2415 92.0079 60.5094 91.0446C60.7337 90.2237 60.845 89.3761 60.84 88.5252L62.4702 88.3257C63.8097 88.1718 63.4848 86.6157 62.1453 86.7696L60.6348 86.952C60.4119 86.0744 59.9362 85.2816 59.2668 84.672C58.5333 84.0744 57.6386 83.7087 56.6966 83.6214C55.7546 83.5341 54.8079 83.7292 53.9772 84.1818ZM52.1361 90.8166C51.5661 92.2872 50.124 92.6178 48.6363 91.7058C48.082 91.3781 47.6178 90.9178 47.2854 90.3663C48.8662 90.1269 50.4489 89.897 52.0335 89.6766C52.1578 90.0411 52.193 90.43 52.1361 90.8109V90.8166ZM57.6366 85.6524C58.1348 86.039 58.4784 86.5908 58.6056 87.2085C57.0324 87.4061 55.4611 87.6113 53.8917 87.8241C53.8939 87.681 53.9054 87.5382 53.9259 87.3966C54.1311 86.1711 55.6644 84.216 57.6366 85.6467V85.6524Z" fill="#F7931E"/>
<path d="M68.4156 79.3994C68.4156 79.3994 68.6949 83.7314 65.3262 83.9993C65.3262 83.9993 68.1762 85.1849 68.655 87.4535C68.655 87.4535 69.0084 84.2843 71.904 83.9594C70.8784 83.7322 69.9661 83.1501 69.3278 82.3158C68.6896 81.4816 68.3665 80.4487 68.4156 79.3994Z" fill="white"/>
<path d="M185.75 69.3389C180.523 72.719 175.268 76.0478 170.007 79.3709L154.184 89.2718L138.292 99.0644L130.312 103.921L122.332 108.726L130.181 103.67L138.07 98.6768L153.893 88.7759L169.79 79.0004C175.097 75.74 180.415 72.5195 185.75 69.3389Z" fill="#009245"/>
<path d="M185.75 72.5935C180.523 75.9736 175.268 79.3024 170.007 82.6255L154.184 92.5264L138.292 102.319L130.312 107.175L122.332 111.981L130.187 106.936L138.081 101.96L153.904 92.059L169.79 82.2493C175.114 79.006 180.426 75.7741 185.75 72.5935Z" fill="#009245"/>
<path d="M186.388 76.2131C181.162 79.5932 175.906 82.922 170.645 86.2451L154.822 96.146L138.93 105.95L130.95 110.806L122.97 115.612L130.825 110.567L138.714 105.574L154.52 95.69L170.417 85.8974C175.724 82.6313 181.042 79.3994 186.388 76.2131Z" fill="#009245"/>
<path d="M186.388 80.5964C181.162 83.9765 175.906 87.3053 170.645 90.6284L154.822 100.535L138.93 110.328L130.95 115.184L122.97 119.989L130.825 114.945L138.697 109.94L154.52 100.039L170.417 90.2465C175.724 87.0146 181.042 83.7827 186.388 80.5964Z" fill="#009245"/>
<path d="M185.75 85.4927C180.523 88.8728 175.268 92.2016 170.007 95.5247L154.184 105.426L138.292 115.218L130.312 120.075L122.332 124.88L130.187 119.835L138.075 114.842L153.899 104.941L169.79 95.1542C175.103 91.9109 180.421 88.6733 185.75 85.4927Z" fill="#009245"/>
<path d="M185.784 88.7473C180.557 92.1274 175.302 95.4562 170.041 98.7793L154.218 108.68L138.32 118.49L130.34 123.346L122.36 128.151L130.215 123.107L138.104 118.114L153.927 108.213L169.79 98.4088C175.12 95.1655 180.438 91.9279 185.784 88.7473Z" fill="#009245"/>
<path d="M86.9346 88.7986C89.8416 90.292 92.7201 91.8424 95.5929 93.3985C98.4657 94.9546 101.293 96.5506 104.177 98.1295C107.061 99.7084 109.877 101.339 112.699 102.974L116.934 105.437C118.336 106.275 119.749 107.096 121.14 107.951C119.681 107.21 118.245 106.434 116.797 105.671L112.482 103.345C109.632 101.789 106.782 100.193 103.898 98.614C101.014 97.0351 98.1978 95.4049 95.3763 93.769C92.5548 92.1331 89.7276 90.4972 86.9346 88.7986Z" fill="#009245"/>
<path d="M86.9346 92.6804C89.8416 94.1738 92.7201 95.7242 95.5929 97.2803C98.4657 98.8364 101.293 100.432 104.177 102.011C107.061 103.59 109.877 105.22 112.699 106.856L116.934 109.319C118.336 110.157 119.749 110.977 121.14 111.832C119.681 111.091 118.245 110.316 116.797 109.552L112.482 107.227C109.632 105.671 106.782 104.075 103.898 102.496C101.014 100.917 98.1978 99.2867 95.3763 97.6508C92.5548 96.0149 89.7276 94.379 86.9346 92.6804Z" fill="#009245"/>
<path d="M87.4365 96.9211C90.3435 98.4145 93.222 99.9649 96.0948 101.521C98.9676 103.077 101.795 104.673 104.679 106.252C107.563 107.831 110.379 109.461 113.201 111.097L117.436 113.559C118.838 114.397 120.251 115.218 121.642 116.073C120.183 115.332 118.747 114.557 117.299 113.793L112.984 111.468C110.134 109.911 107.284 108.315 104.4 106.737C101.516 105.158 98.6997 103.527 95.8782 101.892C93.0567 100.256 90.2295 98.6197 87.4365 96.9211Z" fill="#009245"/>
<path d="M87.4365 100.82C90.3435 102.313 93.222 103.864 96.0948 105.42C98.9676 106.976 101.795 108.572 104.679 110.151C107.563 111.73 110.379 113.36 113.201 114.996L117.436 117.458C118.838 118.296 120.251 119.117 121.642 119.972C120.183 119.231 118.747 118.456 117.299 117.692L112.984 115.366C110.134 113.81 107.284 112.214 104.4 110.635C101.516 109.057 98.6997 107.426 95.8782 105.79C93.0567 104.155 90.2295 102.502 87.4365 100.82Z" fill="#009245"/>
<path d="M87.2427 103.63C90.1497 105.124 93.0282 106.674 95.901 108.23C98.7738 109.786 101.601 111.382 104.485 112.961C107.369 114.54 110.185 116.17 113.007 117.806L117.242 120.268C118.644 121.106 120.058 121.927 121.448 122.782C119.989 122.041 118.553 121.266 117.105 120.502L112.79 118.188C109.94 116.632 107.09 115.036 104.206 113.457C101.322 111.878 98.5059 110.248 95.6844 108.612C92.8629 106.976 90.0414 105.329 87.2427 103.63Z" fill="#009245"/>
<path d="M87.2427 107.512C90.1497 109.005 93.0282 110.556 95.901 112.112C98.7738 113.668 101.601 115.264 104.485 116.843C107.369 118.422 110.185 120.052 113.007 121.688L117.242 124.15C118.644 124.988 120.058 125.809 121.448 126.664C119.989 125.923 118.553 125.148 117.105 124.384L112.79 122.064C109.94 120.508 107.09 118.912 104.206 117.333C101.322 115.754 98.5059 114.124 95.6844 112.488C92.8629 110.852 90.0414 109.21 87.2427 107.512Z" fill="#009245"/>
</svg>
