<svg width="52" height="52" viewBox="0 0 52 52" fill="none" xmlns="http://www.w3.org/2000/svg">
<g clip-path="url(#clip0_6034_36238)">
<path d="M18.5945 18.984C18.7756 18.963 18.9589 18.9918 19.1248 19.0674C19.2906 19.143 19.4327 19.2625 19.5355 19.413C21.0115 21.572 22.7835 22.47 24.7505 22.674C24.8465 21.833 25.0735 21.002 25.5005 20.27C26.1265 19.196 27.1445 18.406 28.5985 18.114C30.6085 17.71 32.1385 18.438 33.0255 19.329L34.8175 18.994C35.0051 18.9589 35.1987 18.9781 35.3757 19.0495C35.5526 19.1208 35.7054 19.2413 35.8161 19.3967C35.9268 19.552 35.9908 19.7358 36.0004 19.9264C36.0101 20.1169 35.965 20.3062 35.8705 20.472L34.1505 23.494C34.3075 27.855 33.0955 30.899 30.5115 32.996C29.1415 34.108 27.1795 34.739 25.0265 34.934C22.8565 35.13 20.4035 34.893 17.9655 34.181C17.7572 34.1202 17.5743 33.9934 17.4445 33.8195C17.3146 33.6457 17.2448 33.4344 17.2456 33.2174C17.2464 33.0004 17.3177 32.7895 17.4488 32.6167C17.58 32.4438 17.7638 32.3182 17.9725 32.259C19.1985 31.91 20.1325 31.609 20.9755 31.082C19.7765 30.446 18.8935 29.614 18.2685 28.666C17.4005 27.348 17.0785 25.878 17.0145 24.553C16.9505 23.228 17.1415 22 17.3435 21.115C17.4585 20.61 17.5925 20.104 17.7775 19.62C17.8428 19.4494 17.9535 19.2999 18.0977 19.1878C18.2419 19.0757 18.4131 19.0052 18.5945 18.984Z" fill="white"/>
</g>
<rect x="0.5" y="0.5" width="51" height="51" rx="25.5" stroke="#ECEFEC"/>
<defs>
<clipPath id="clip0_6034_36238">
<rect width="24" height="24" fill="white" transform="translate(14 14)"/>
</clipPath>
</defs>
</svg>
