<svg width="113" height="40" viewBox="0 0 113 40" fill="none" xmlns="http://www.w3.org/2000/svg">
<path d="M12.9411 13.8101C12.9411 14.7115 12.6477 15.5389 12.1569 16.1919C12.0741 16.0817 11.9876 15.9776 11.8936 15.8794C11.2466 15.1903 10.3513 14.7636 9.36393 14.7636H4V10H9.36581C11.3406 10 12.943 11.7047 12.943 13.8101H12.9411Z" fill="white"/>
<path d="M12.9416 13.8103V18.5719C12.9416 20.6753 11.3411 22.382 9.36439 22.382H5.78906V17.6204H9.36627C10.3537 17.6204 11.247 17.1937 11.8959 16.5046C11.988 16.4065 12.0764 16.3023 12.1592 16.1921C12.6501 15.5391 12.9435 14.7117 12.9435 13.8103H12.9416Z" fill="white"/>
<path d="M16.5192 21.4282C16.5192 22.3297 16.2258 23.157 15.7349 23.81C15.6522 23.6998 15.5656 23.5957 15.4716 23.4975C14.8246 22.8084 13.9294 22.3817 12.942 22.3817H7.57617V17.6201H12.942C14.9168 17.6201 16.5192 19.3248 16.5192 21.4302V21.4282Z" fill="white"/>
<path d="M16.5183 21.4285V26.1901C16.5183 28.2935 14.9178 30.0002 12.9411 30.0002H4V25.2386H12.9411C13.9285 25.2386 14.8219 24.8119 15.4708 24.1228C15.5629 24.0246 15.6513 23.9205 15.7341 23.8103C16.2249 23.1572 16.5183 22.3299 16.5183 21.4285Z" fill="white"/>
<path d="M20.5176 30V14.2585C20.5176 13.0048 20.9247 11.9838 21.7454 11.189C22.566 10.3942 23.5935 10 24.8342 10C26.0749 10 27.083 10.3619 27.8972 11.0792C28.7114 11.7964 29.1185 12.7141 29.1185 13.8191C29.1185 14.5816 28.9182 15.2213 28.5176 15.7512C28.1169 16.2811 27.5806 16.643 26.8956 16.8433C27.7615 17.0307 28.4917 17.4766 29.0862 18.1809C29.6807 18.8853 29.978 19.7577 29.978 20.7787C29.978 22.0969 29.5127 23.1696 28.5887 23.9903C27.6646 24.811 26.5014 25.2181 25.0992 25.2181C24.4723 25.2181 23.8972 25.0953 23.3803 24.8562V22.5557C23.8455 22.8207 24.3173 22.9564 24.8019 22.9564C25.5903 22.9564 26.23 22.7237 26.7341 22.2585C27.2381 21.7932 27.4837 21.1793 27.4837 20.4168C27.4837 19.6995 27.2316 19.1179 26.7341 18.6785C26.2365 18.2391 25.5257 18.0129 24.6016 18V16.0614C25.3059 16.0355 25.8488 15.8417 26.23 15.4798C26.6113 15.1179 26.7987 14.6591 26.7987 14.0969C26.7987 13.5347 26.6177 13.063 26.2494 12.7076C25.8811 12.3522 25.4158 12.1777 24.8407 12.1777C24.2656 12.1777 23.7874 12.3716 23.3996 12.7593C23.0119 13.147 22.8181 13.6446 22.8181 14.2585V30H20.5176Z" fill="white"/>
<path d="M35.9357 14.7948C37.4026 14.7948 38.5981 15.2601 39.5286 16.1841C40.4527 17.1082 40.9309 18.3683 40.9567 19.9515C40.9567 20.2746 40.9503 20.5266 40.9373 20.714H33.0601C33.1829 21.5024 33.506 22.1098 34.0423 22.5428C34.5787 22.9757 35.2055 23.1954 35.9422 23.1954C37.1183 23.1954 38.0165 22.7883 38.6433 21.9741L40.1813 23.2536C39.716 23.8804 39.1021 24.3715 38.3396 24.7205C37.5771 25.0759 36.7887 25.2504 35.9616 25.2504C34.4818 25.2504 33.241 24.7463 32.2394 23.7382C31.2378 22.7302 30.7402 21.5024 30.7402 20.0484C30.7402 18.5945 31.2378 17.3085 32.233 16.3004C33.2281 15.2924 34.4624 14.7883 35.9422 14.7883L35.9357 14.7948ZM35.9551 16.7334C35.2378 16.7334 34.6239 16.9402 34.1134 17.3602C33.6029 17.7803 33.2669 18.3554 33.0924 19.092H38.7144C38.527 18.3295 38.1974 17.7479 37.7257 17.3408C37.254 16.9337 36.6595 16.7334 35.9551 16.7334Z" fill="white"/>
<path d="M46.7927 25.0372C45.7135 25.0372 44.8411 24.7335 44.1756 24.1196C43.51 23.5057 43.1739 22.6786 43.1739 21.6382V17.2763H41.0156V15.0986H43.1739V12.2166H45.636V15.0986H48.4147V17.2763H45.636V21.0954C45.636 22.2004 46.2111 22.7561 47.3549 22.7561C47.7168 22.7561 48.0657 22.698 48.4147 22.5752L48.6731 24.7335C48.0205 24.9338 47.3937 25.0308 46.7927 25.0308V25.0372Z" fill="white"/>
<path d="M53.7763 25.1598C52.4581 25.1598 51.3466 24.6687 50.4548 23.693C49.5631 22.7107 49.1172 21.5023 49.1172 20.0613C49.1172 18.6203 49.5631 17.3925 50.4484 16.4102C51.3337 15.428 52.4451 14.9434 53.7763 14.9434C55.2303 14.9434 56.3676 15.4345 57.1947 16.4232V15.1049H59.6955V25.0048H57.1947V23.7059C56.3547 24.6816 55.2173 25.1663 53.7763 25.1663V25.1598ZM52.4064 22.1421C52.9492 22.7043 53.6083 22.9821 54.3967 22.9821C55.185 22.9821 55.8442 22.7043 56.387 22.1421C56.9233 21.5799 57.1947 20.8884 57.1947 20.0613C57.1947 19.2342 56.9233 18.5233 56.387 17.9611C55.8442 17.3989 55.185 17.1211 54.3967 17.1211C53.6083 17.1211 52.9492 17.3989 52.4064 17.9611C51.8636 18.5233 51.5986 19.2212 51.5986 20.0613C51.5986 20.9014 51.87 21.5799 52.4064 22.1421Z" fill="white"/>
<path d="M65.2163 25.3603C64.1759 25.3603 63.2454 25.1147 62.4183 24.6171C61.5911 24.126 61.0225 23.4411 60.7188 22.5751L62.8771 21.8966C63.2906 22.8724 64.0855 23.3571 65.2551 23.3571C65.8561 23.3571 66.3278 23.2343 66.6767 22.9887C67.0257 22.7432 67.1937 22.4071 67.1937 21.9806C67.1937 21.58 66.974 21.315 66.5346 21.1793C66.0952 21.0436 65.4748 20.9467 64.6864 20.8821C63.8916 20.8175 63.2648 20.6882 62.7995 20.5008C61.6687 20.0226 61.1 19.202 61.1 18.0388C61.1 17.147 61.4877 16.391 62.2567 15.7706C63.0257 15.1503 63.9756 14.8401 65.0936 14.8401C66.1469 14.8401 67.0257 15.0856 67.7365 15.5832C68.4409 16.0743 68.9126 16.727 69.1388 17.5412L67.0192 18.1228C66.8965 17.6963 66.6767 17.3538 66.3601 17.0953C66.0435 16.8369 65.6299 16.7076 65.1194 16.7076C64.6089 16.7076 64.2147 16.8369 63.8916 17.0889C63.562 17.3409 63.4005 17.6446 63.4005 17.9871C63.4005 18.4265 63.6461 18.7302 64.1307 18.8853C64.6154 19.0404 65.268 19.1632 66.0887 19.2343C66.9094 19.3054 67.5233 19.4346 67.9368 19.622C69.0548 20.0873 69.617 20.8821 69.617 22C69.617 23.0146 69.2099 23.8288 68.3892 24.4427C67.5685 25.0566 66.5152 25.3603 65.2163 25.3603Z" fill="white"/>
<path d="M75.2892 25.2569C73.8353 25.2569 72.5946 24.7464 71.5607 23.7254C70.5267 22.7044 70.0098 21.4766 70.0098 20.0356C70.0098 18.5946 70.5267 17.3409 71.5607 16.307C72.5946 15.2731 73.8353 14.7561 75.2892 14.7561C76.1552 14.7561 76.9629 14.95 77.719 15.3441C78.475 15.7383 79.0954 16.2682 79.5865 16.9338L77.5445 18.4136C77.0275 17.5865 76.2715 17.1729 75.2828 17.1729C74.4686 17.16 73.7901 17.4314 73.2537 17.9807C72.7109 18.5364 72.446 19.2214 72.446 20.0485C72.446 20.8757 72.7174 21.5606 73.2537 22.097C73.7901 22.6398 74.4686 22.9047 75.2828 22.9047C75.761 22.9177 76.2069 22.8143 76.614 22.5816C77.0211 22.3555 77.3377 22.0388 77.5639 21.6446L79.5607 23.1244C79.0695 23.7771 78.4492 24.2941 77.6996 24.6753C76.95 25.0566 76.1487 25.244 75.2763 25.244L75.2892 25.2569Z" fill="white"/>
<path d="M88.9627 23.7383C87.9288 24.7529 86.6816 25.2569 85.2147 25.2569C83.7479 25.2569 82.4942 24.7464 81.4538 23.7254C80.4134 22.7044 79.8965 21.4766 79.8965 20.0356C79.8965 18.5946 80.4134 17.3409 81.4538 16.307C82.4942 15.2731 83.7479 14.7561 85.2147 14.7561C86.6816 14.7561 87.9159 15.2731 88.9563 16.307C89.9966 17.3409 90.5136 18.5816 90.5136 20.0356C90.5136 21.4895 89.9966 22.7238 88.9627 23.7383ZM85.2147 22.9177C85.9773 22.9306 86.617 22.6592 87.1469 22.1099C87.6768 21.5542 87.9353 20.8757 87.9353 20.0614C87.9353 19.2472 87.6703 18.5429 87.1469 17.9936C86.617 17.4378 85.9773 17.1729 85.2147 17.1858C84.4393 17.1729 83.7931 17.4443 83.2632 17.9936C82.7333 18.5493 82.4748 19.2343 82.4748 20.0614C82.4748 20.8886 82.7398 21.5606 83.2632 22.1099C83.7931 22.6656 84.4393 22.9306 85.2147 22.9177Z" fill="white"/>
<path d="M91.709 24.9984V15.0985H94.2098V16.3974C94.9852 15.3828 96.2518 14.8982 98.0095 14.937V17.5799C97.5959 17.3796 97.1436 17.2827 96.6524 17.2827C95.9868 17.2827 95.4117 17.5476 94.9335 18.084C94.4553 18.6203 94.2162 19.3441 94.2162 20.2617V24.9984H91.7154H91.709Z" fill="white"/>
<path d="M103.395 14.7948C104.862 14.7948 106.057 15.2601 106.988 16.1841C107.912 17.1082 108.39 18.3683 108.416 19.9515C108.416 20.2746 108.409 20.5266 108.396 20.714H100.519C100.642 21.5024 100.965 22.1098 101.501 22.5428C102.038 22.9757 102.664 23.1954 103.401 23.1954C104.577 23.1954 105.475 22.7883 106.102 21.9741L107.64 23.2536C107.175 23.8804 106.561 24.3715 105.799 24.7205C105.036 25.0759 104.248 25.2504 103.421 25.2504C101.941 25.2504 100.7 24.7463 99.6984 23.7382C98.6968 22.7302 98.1992 21.5024 98.1992 20.0484C98.1992 18.5945 98.6968 17.3085 99.6919 16.3004C100.687 15.2924 101.921 14.7883 103.401 14.7883L103.395 14.7948ZM103.414 16.7334C102.697 16.7334 102.083 16.9402 101.572 17.3602C101.062 17.7803 100.726 18.3554 100.551 19.092H106.173C105.986 18.3295 105.656 17.7479 105.185 17.3408C104.713 16.9337 104.118 16.7334 103.414 16.7334Z" fill="white"/>
</svg>
