<svg width="20" height="20" viewBox="0 0 20 20" fill="none" xmlns="http://www.w3.org/2000/svg">
<path d="M18.3333 4.04161V13.9499C18.3333 14.7583 17.675 15.4999 16.8667 15.5999L16.6083 15.6333C15.2417 15.8166 13.3167 16.3833 11.7667 17.0333C11.225 17.2583 10.625 16.8499 10.625 16.2583V4.66661C10.625 4.35828 10.8 4.07494 11.075 3.92494C12.6 3.09994 14.9083 2.36661 16.475 2.23328H16.525C17.525 2.23328 18.3333 3.04161 18.3333 4.04161Z" fill="#7EA2FF"/>
<path d="M8.92487 3.92494C7.39987 3.09994 5.09154 2.36661 3.52487 2.23328H3.46654C2.46654 2.23328 1.6582 3.04161 1.6582 4.04161V13.9499C1.6582 14.7583 2.31654 15.4999 3.12487 15.5999L3.3832 15.6333C4.74987 15.8166 6.67487 16.3833 8.22487 17.0333C8.76654 17.2583 9.36654 16.8499 9.36654 16.2583V4.66661C9.36654 4.34994 9.19987 4.07494 8.92487 3.92494ZM4.16654 6.44994H6.04154C6.3832 6.44994 6.66654 6.73328 6.66654 7.07494C6.66654 7.42494 6.3832 7.69994 6.04154 7.69994H4.16654C3.82487 7.69994 3.54154 7.42494 3.54154 7.07494C3.54154 6.73328 3.82487 6.44994 4.16654 6.44994ZM6.66654 10.1999H4.16654C3.82487 10.1999 3.54154 9.92494 3.54154 9.57494C3.54154 9.23328 3.82487 8.94994 4.16654 8.94994H6.66654C7.0082 8.94994 7.29154 9.23328 7.29154 9.57494C7.29154 9.92494 7.0082 10.1999 6.66654 10.1999Z" fill="#7EA2FF"/>
</svg>
