<svg width="150" height="150" viewBox="0 0 150 150" fill="none" xmlns="http://www.w3.org/2000/svg">
<path d="M119.159 89.1547C120.098 89.1547 120.582 88.0274 119.938 87.3433C117.777 85.066 116.298 83.1251 115.143 81.0592C113 77.1433 112.118 72.8956 111.316 69.2501C110.666 66.2524 109.513 60.8887 106.584 58.6092C104.327 56.8751 100.745 56.4751 96.9657 56.1887C94.0362 55.9683 85.3544 55.8206 75.3589 55.8206C43.6657 55.8206 42.418 55.3365 39.3294 69.5887C37.4975 77.9524 36.1203 81.716 30.7862 87.3456C30.0975 88.0774 30.6975 89.291 31.7316 89.1433C80.6475 81.5524 116.888 89.1547 119.159 89.1547ZM100.932 59.2524L100.368 58.6887C100.7 58.7365 101.02 58.7887 101.336 58.8478L100.932 59.2524ZM97.0975 58.3547C96.8771 58.5092 96.9703 58.4342 96.7657 58.641L96.4316 58.3069C97.0203 58.3433 96.6498 58.3206 97.0975 58.3547ZM90.8203 59.2524L89.6521 58.0842C90.468 58.1001 91.2316 58.116 91.9453 58.1342C91.9407 58.1387 91.9339 58.1365 91.9316 58.141L90.8203 59.2524ZM72.4294 57.9706L72.1498 58.2501L71.8725 57.9728C72.0544 57.9728 72.243 57.9706 72.4294 57.9706ZM65.5907 59.0297L64.5907 58.0297C65.2475 58.0206 65.9203 58.0137 66.6134 58.0069L65.5907 59.0297ZM60.1862 58.1001L58.9248 59.3615L57.7248 58.1615C58.4725 58.1387 59.2953 58.1183 60.1862 58.1001ZM55.4884 58.241L53.2566 60.4728L51.3453 58.5615C52.4884 58.4319 53.9794 58.3069 55.4884 58.241ZM47.2225 59.3933L46.643 59.9728L46.4066 59.7365C46.6612 59.6115 46.9316 59.4956 47.2225 59.3933ZM43.0112 64.1933L44.3839 65.566L42.1407 67.8092L41.968 67.6365C42.2339 66.5183 42.593 65.2887 43.0112 64.1933ZM35.0407 85.6728L35.1044 85.7365L34.6248 86.216C34.7725 86.0342 34.8998 85.8547 35.0407 85.6728ZM35.8634 84.9797L35.6975 84.8137C36.1703 84.1615 36.5975 83.5024 36.993 82.8456L37.4953 83.3478L35.8634 84.9797ZM38.9112 78.9865L39.5498 79.6251L37.8453 81.3297C38.2362 80.5501 38.5975 79.7706 38.9112 78.9865ZM39.3225 77.8819C39.7975 76.5569 40.1839 75.2433 40.5157 73.9524L40.5316 73.9365L42.8839 76.2887L40.3089 78.8637L39.3225 77.8819ZM41.4294 70.0365C41.4794 69.8047 41.5339 69.5774 41.5862 69.3456C41.6612 69.3819 41.7271 69.4387 41.8089 69.4387C41.9248 69.4387 42.0294 69.3797 42.1248 69.3069L42.8862 70.0683L41.0021 71.9524C41.1475 71.3024 41.2907 70.6615 41.4294 70.0365ZM36.3021 86.3342C36.4771 86.2274 36.5907 86.1433 36.5339 85.8228L38.2521 84.1047L38.9953 84.8478C39.0998 84.9524 39.2362 85.0047 39.3748 85.0047C39.5134 85.0047 39.6498 84.9524 39.7544 84.8478C39.9634 84.6387 39.9634 84.2978 39.7544 84.0887L39.0112 83.3456L40.5794 81.7774C40.7884 81.5683 40.7884 81.2274 40.5794 81.0183C40.3703 80.8092 40.0294 80.8092 39.8203 81.0183L38.2521 82.5865L38.1725 82.5069C38.343 82.3501 40.143 80.5433 40.3066 80.3797C40.5589 80.6319 41.268 81.4524 41.6021 81.4524C41.7407 81.4524 41.8771 81.4001 41.9816 81.2956C42.1907 81.0865 42.1907 80.7456 41.9816 80.5365L41.0657 79.6206L45.2112 75.4751C45.4203 75.266 45.4203 74.9251 45.2112 74.716C45.0021 74.5069 44.6612 74.5069 44.4521 74.716L43.6407 75.5274L41.2884 73.1751L43.6407 70.8206L44.2066 71.3865C44.3112 71.491 44.4475 71.5433 44.5862 71.5433C44.7248 71.5433 44.8612 71.491 44.9657 71.3865C45.1748 71.1774 45.1748 70.8365 44.9657 70.6274L44.3998 70.0615L45.5816 68.8774C45.7907 68.6683 45.7907 68.3274 45.5816 68.1183C45.0339 67.5706 44.2225 68.7206 43.6407 69.3024L42.8975 68.5592L45.1407 66.316L46.0271 67.2024C46.1316 67.3069 46.268 67.3592 46.4066 67.3592C46.5453 67.3592 46.6816 67.3069 46.7862 67.2024C46.9953 66.9933 46.9953 66.6524 46.7862 66.4433L45.8998 65.5569L47.1089 64.3478C47.318 64.1387 47.318 63.7978 47.1089 63.5887C46.8998 63.3797 46.5589 63.3797 46.3498 63.5887L45.1407 64.7978L43.4589 63.116C43.9794 61.9956 44.6339 60.9433 45.4566 60.2956L45.8816 60.7206L43.8703 62.7319C43.6612 62.941 43.6612 63.2819 43.8703 63.491C43.9748 63.5956 44.1112 63.6478 44.2498 63.6478C44.3884 63.6478 44.5248 63.5956 44.6293 63.491L46.6407 61.4797L48.6657 63.5047C48.7703 63.6092 48.9066 63.6615 49.0453 63.6615C49.1839 63.6615 49.3203 63.6092 49.4248 63.5047C49.6339 63.2956 49.6339 62.9547 49.4248 62.7456L47.3998 60.7206L49.2657 58.8547C49.5066 58.8092 49.7521 58.7683 50.0021 58.7297L52.4953 61.2228L50.8725 62.8433C50.6634 63.0524 50.6634 63.3933 50.8725 63.6024C50.9771 63.7069 51.1134 63.7592 51.2521 63.7592C51.3884 63.7592 51.5271 63.7069 51.6316 63.6024L53.2544 61.9819L53.7884 62.516C53.893 62.6206 54.0294 62.6728 54.168 62.6728C54.3066 62.6728 54.443 62.6206 54.5475 62.516C54.7566 62.3069 54.7566 61.966 54.5475 61.7569L54.0134 61.2228L56.5703 58.6683C56.5998 58.6387 56.593 58.5956 56.6134 58.5615L58.1634 60.1115L57.543 60.7319C57.3339 60.941 57.3339 61.2819 57.543 61.491C57.6475 61.5956 57.7839 61.6478 57.9225 61.6478C58.0612 61.6478 58.1975 61.5956 58.3021 61.491L58.9225 60.8706L59.2271 61.1751C59.3316 61.2797 59.468 61.3319 59.6066 61.3319C59.7453 61.3319 59.8816 61.2797 59.9862 61.1751C60.1953 60.966 60.1953 60.6251 59.9862 60.416L59.6816 60.1115L61.5794 58.2137C61.6203 58.1728 61.6157 58.1137 61.6407 58.0637C62.1112 58.0547 62.5953 58.0478 63.093 58.041L64.8316 59.7797L64.6566 59.9546C64.4475 60.1637 64.4475 60.5047 64.6566 60.7137C64.7612 60.8183 64.8975 60.8706 65.0362 60.8706C65.1748 60.8706 65.3112 60.8183 65.4157 60.7137L65.6884 60.441C65.7066 60.4433 65.718 60.4615 65.7362 60.4615C65.8748 60.4615 66.0112 60.4092 66.1157 60.3047C66.2339 60.1865 66.268 60.0319 66.2544 59.8774L68.1453 57.9865C68.868 57.9819 69.6089 57.9774 70.3612 57.9728L71.3907 59.0024L70.7703 59.6228C70.5612 59.8319 70.5612 60.1728 70.7703 60.3819C70.8748 60.4865 71.0112 60.5387 71.1498 60.5387C71.2884 60.5387 71.4248 60.4865 71.5294 60.3819L72.1498 59.7615L72.3862 59.9978C72.4907 60.1024 72.6271 60.1547 72.7657 60.1547C72.9021 60.1547 73.0407 60.1024 73.1453 59.9978C73.3543 59.7887 73.3543 59.4478 73.1453 59.2387L72.9089 59.0024L73.3384 58.5728C73.5066 58.4047 73.5021 58.1637 73.3998 57.9615C74.0475 57.9592 74.7021 57.9592 75.3634 57.9592H75.6839L76.2816 58.5569L75.4384 59.4001C75.2294 59.6092 75.2294 59.9501 75.4384 60.1592C75.543 60.2637 75.6794 60.316 75.818 60.316C75.9566 60.316 76.093 60.2637 76.1975 60.1592L77.0407 59.316L78.0453 60.3206C78.1498 60.4251 78.2862 60.4774 78.4248 60.4774C78.5634 60.4774 78.6998 60.4251 78.8044 60.3206C79.0134 60.1115 79.0134 59.7706 78.8044 59.5615L77.7998 58.5569L78.393 57.9637C80.0839 57.9683 81.718 57.9774 83.2748 57.991L83.4498 58.166L81.5498 60.066C81.3407 60.2751 81.3407 60.616 81.5498 60.8251C81.6544 60.9297 81.7907 60.9819 81.9294 60.9819C82.068 60.9819 82.2044 60.9297 82.3089 60.8251L84.2089 58.9251L84.9975 59.7137C85.1021 59.8183 85.2384 59.8706 85.3771 59.8706C85.5134 59.8706 85.6521 59.8183 85.7566 59.7137C85.9657 59.5047 85.9657 59.1637 85.7566 58.9547L84.968 58.166L85.1271 58.0069C86.168 58.0183 87.1657 58.0319 88.1134 58.0456L90.0657 59.9978L89.7725 60.2956C89.5634 60.5047 89.5634 60.8456 89.7725 61.0547C89.8771 61.1592 90.0134 61.2115 90.1521 61.2115C90.2884 61.2115 90.4271 61.1592 90.5316 61.0547L91.043 60.5456C91.1203 60.5206 91.2021 60.516 91.2634 60.4547C91.3248 60.3933 91.3294 60.3115 91.3544 60.2342L92.6907 58.9001C92.8975 58.6933 92.8953 58.366 92.6953 58.1547C93.4907 58.1774 94.2044 58.2001 94.8339 58.2274L96.0066 59.4001L95.3316 60.0751C95.1225 60.2842 95.1225 60.6251 95.3316 60.8342C95.4362 60.9387 95.5725 60.991 95.7112 60.991C96.0407 60.991 96.5112 60.4137 96.7657 60.1569C97.4453 60.8365 98.1725 60.0478 97.5248 59.3978C97.8453 59.0774 98.1407 58.8001 97.7862 58.4092C98.1271 58.4387 98.4634 58.4706 98.7975 58.5024C98.8975 58.7978 99.9475 59.7797 100.175 60.0069L99.9975 60.1819C99.7884 60.391 99.7884 60.7319 99.9975 60.941C100.102 61.0456 100.238 61.0978 100.377 61.0978C100.513 61.0978 100.652 61.0456 100.757 60.941L101.043 60.6547C101.366 60.6547 101.586 60.4024 101.584 60.116L102.588 59.1137C111.327 61.3956 106.695 74.9387 116.384 86.5797C89.443 82.6865 62.8066 82.6865 36.3021 86.3342Z" fill="#2864FF"/>
<path d="M123.082 80.5524C119 75.6615 118.782 72.0229 117.089 64.8956C116.084 60.8797 114.429 55.8819 110.502 52.8479C106.886 50.0569 102.27 49.4865 97.4567 49.1047C90.6454 48.5956 60.0817 48.5933 53.2635 49.1069C48.4545 49.4865 43.8408 50.0569 40.2226 52.8479C36.2954 55.8819 34.6408 60.8797 33.634 64.9047C31.809 72.5751 31.6613 76.1115 26.9817 81.3524C26.4613 67.4206 8.97264 67.582 6.55446 76.6342C5.509 80.5638 7.85673 87.7751 20.8749 87.4729C7.53173 100.946 5.39537 121.911 14.4726 130.936C14.2635 150.461 14.1863 147.768 33.1749 147.357C40.9181 147.202 38.5431 140.677 38.4204 137.455C55.0045 137.907 95.7317 137.907 112.302 137.455C112.17 140.893 109.854 147.202 117.548 147.357C129.391 147.614 132.557 148.366 134.477 146.493C136.304 144.605 136.279 133.509 136.252 130.936C145.323 121.941 143.204 100.971 129.852 87.4751C134.114 87.4047 138.195 86.9319 141.125 84.0979C143.207 82.0819 144.118 79.1524 143.448 76.6342C141.17 68.1115 124.643 66.9592 123.082 80.5524V80.5524ZM128.466 83.8683C127.959 83.3615 127.384 82.5342 126.882 83.041C126.377 83.5456 127.195 84.1138 127.707 84.6274L127.332 85.0024C126.795 84.4842 126.264 83.9729 125.745 83.4592L127.166 82.0388C127.391 82.2638 128.493 83.4365 128.793 83.541L128.466 83.8683ZM125.202 82.4865C125.104 81.7751 125.154 80.9819 125.302 80.1683L126.411 81.2774L125.202 82.4865ZM20.4135 81.8774L22.3363 83.8001L21.1885 84.9479L19.2658 83.0251L20.4135 81.8774ZM24.0749 84.2456C24.0749 84.0319 23.9817 83.9297 23.8522 83.8001L24.7045 82.9479C24.5772 83.4706 24.3704 83.9024 24.0749 84.2456ZM23.4772 84.7569C23.2295 84.9092 23.3704 84.916 22.5317 85.1206L23.0931 84.5592C23.209 84.6751 23.2567 84.7297 23.4772 84.7569ZM22.1658 74.791C23.0272 75.6319 23.859 77.1729 24.3658 78.8138C24.2158 78.8956 24.3749 78.7251 24.0454 79.0547L22.5545 77.5638C22.3476 77.3569 22.0067 77.3524 21.7954 77.5638C21.5863 77.7729 21.5863 78.1138 21.7954 78.3229L23.2863 79.8138L22.7817 80.3183C22.4431 80.6569 22.6863 81.2342 23.1613 81.2342C23.4795 81.2342 23.7999 80.8183 24.0431 80.5729C24.2658 80.7956 24.5522 81.1365 24.8272 81.2342C24.8476 81.5638 24.8431 81.882 24.8158 82.191C24.3363 81.5047 23.6999 82.4342 23.0908 83.0433L21.1681 81.1206L21.8817 80.407C22.3795 79.9092 21.6249 79.1456 21.1226 79.6479L18.1249 82.6456C18.1226 82.6456 18.1204 82.6479 18.1204 82.6501C17.9976 82.7729 15.9045 84.8638 15.7885 84.9888C13.5045 84.6229 11.6704 83.8229 10.3658 82.5615C3.734 76.141 15.5067 68.2956 22.1658 74.791V74.791ZM17.1408 85.1501L18.5067 83.7842L20.0476 85.3251C18.5954 85.291 18.3249 85.2433 17.1408 85.1501V85.1501ZM16.9363 139.884L18.9045 141.852L17.2431 143.514C17.1272 142.655 17.0022 140.75 16.9363 139.884ZM20.3431 134.757L19.7545 135.346L18.0363 133.627C18.7613 134.041 19.9658 134.605 20.3431 134.757ZM33.134 145.214C20.8408 145.482 18.2499 146.136 17.5272 144.614C17.8317 144.518 19.4385 142.836 19.6635 142.611C19.8999 142.848 20.1135 143.143 20.4158 143.143C20.8908 143.143 21.134 142.566 20.7954 142.227L20.4204 141.852L21.8272 140.446C22.3249 139.948 21.5704 139.184 21.0681 139.686L19.6613 141.093C19.4317 140.861 17.1385 138.477 16.8204 138.409C16.7226 136.827 16.6658 135.275 16.6363 133.746L18.9954 136.105L18.0204 137.08C17.6817 137.418 17.9249 137.996 18.3999 137.996C18.7385 137.996 19.5045 137.114 19.7545 136.864L21.3681 138.477C21.5772 138.686 21.9158 138.689 22.1272 138.477C22.3363 138.268 22.3363 137.927 22.1272 137.718L20.5135 136.105L21.4567 135.161C22.3295 135.468 23.3158 135.761 23.9976 135.93L24.8635 136.796L23.7385 137.921C23.3999 138.259 23.6431 138.836 24.1181 138.836C24.4635 138.836 25.3749 137.802 25.6226 137.555L27.1385 139.071C27.6408 139.573 28.3954 138.811 27.8976 138.311L26.3817 136.796L26.6908 136.486C27.684 136.657 28.1749 136.723 28.9204 136.818L29.259 137.157L28.3749 138.043C28.0363 138.382 28.2795 138.959 28.7545 138.959C29.0885 138.959 29.7635 138.171 30.0181 137.916C30.5726 138.473 31.5954 139.8 32.1272 139.268C32.6908 138.705 31.3908 137.773 30.7749 137.157L30.8863 137.046C31.6499 137.123 32.2022 137.182 32.9158 137.232L32.2272 137.921C31.8885 138.259 32.1317 138.836 32.6067 138.836C32.9454 138.836 33.7113 137.955 33.9613 137.705L34.1385 137.882C34.0954 138.259 34.3931 138.607 34.8658 138.386C35.0045 138.386 35.1408 138.334 35.2454 138.23C35.3045 138.171 35.309 138.089 35.334 138.016L35.9681 137.382C36.0749 137.386 36.1681 137.391 36.2772 137.393C36.4635 142.236 38.2772 145.118 33.134 145.214V145.214ZM122.684 136.705L123.016 137.036L121.702 138.35L120.35 136.998C120.625 136.968 122.05 136.796 122.684 136.705V136.705ZM131.65 134.161L131.475 134.336L131.407 134.268C131.489 134.232 131.573 134.2 131.65 134.161ZM130.373 134.75L130.718 135.096C130.466 135.348 129.386 136.305 129.386 136.65L128.757 136.021C128.87 135.784 128.861 135.571 128.62 135.391C128.741 135.35 130.325 134.768 130.373 134.75ZM127.054 135.834L127.286 136.066C127.079 136.273 125.62 137.716 125.441 137.946L124.532 137.034C124.784 136.782 124.995 136.655 124.961 136.314C125.445 136.221 126.32 136.027 127.054 135.834V135.834ZM114.327 143.848C113.945 143.032 113.948 141.98 114.045 141.143L115.539 142.636L114.327 143.848ZM114.261 139.841C114.37 139.275 114.407 138.559 114.439 137.716L115.566 138.843C115.514 139.193 115.729 139.482 116.145 139.423L117.525 140.802C117.218 140.882 116.532 141.648 116.3 141.88L114.261 139.841ZM115.591 137.35C115.9 137.336 116.52 137.309 116.941 137.286L116.234 137.993L115.591 137.35ZM130.425 145.493C117.627 145.216 116.116 145.468 115.004 144.689L116.298 143.396C116.548 143.646 116.786 143.968 117.093 143.968C117.568 143.968 117.811 143.391 117.473 143.052L117.057 142.636L118.027 141.666C118.177 141.516 118.182 141.309 118.116 141.121C118.625 141.084 118.759 140.518 118.459 140.221L116.993 138.755L118.573 137.173C118.704 137.161 118.839 137.146 118.968 137.134C119.22 137.386 122.093 140.393 122.45 140.393C122.925 140.393 123.168 139.816 122.829 139.477L122.461 139.109L123.773 137.798C124.043 138.068 125.632 139.782 125.979 139.782C126.454 139.782 126.698 139.205 126.359 138.866L126.166 138.673C126.391 138.498 127.843 137.027 128.045 136.827C128.291 137.073 129.157 138.061 129.502 138.061C129.954 138.061 130.209 137.534 129.893 137.177C130.298 137.198 131.177 136.152 131.475 135.857C131.959 136.341 132.434 137.014 132.914 136.536C133.393 136.059 132.718 135.582 132.234 135.098L132.568 134.764C132.777 134.555 132.777 134.214 132.568 134.005C132.479 133.916 132.364 133.886 132.248 133.873C132.764 133.598 133.977 132.834 134.125 132.732C134.043 146.016 133.286 145.539 130.425 145.493V145.493ZM134.457 129.711L134.461 129.716C130.084 133.632 124.311 134.505 118.227 135.048C110.398 135.75 41.2999 136.057 30.2545 134.823C25.2226 134.259 19.9272 133.155 16.2704 129.709C8.04537 122.041 10.1908 104.271 18.9817 92.841C26.0431 93.5615 32.9022 96.4774 38.3113 101.064C38.5135 101.236 38.759 101.318 39.0045 101.318C39.309 101.318 39.609 101.191 39.8226 100.939C40.2067 100.489 40.1522 99.8092 39.6999 99.4274C34.3272 94.8683 27.6022 91.891 20.6181 90.8979C21.5204 89.8819 21.5658 89.7365 24.634 86.7865C33.3408 78.4115 33.0295 76.6319 35.7204 65.4138C38.5931 53.9251 43.2454 52.0479 53.4272 51.2456C56.8113 50.991 66.0885 50.8615 75.3681 50.8615C84.6408 50.8615 93.9158 50.9888 97.2954 51.2433C121.861 53.1888 109.564 69.8319 123.4 84.1069C123.916 85.5138 124.884 86.5206 126.354 87.0388C129.004 89.5888 129.154 89.8251 130.066 90.8456C122.95 91.7819 116.077 94.7842 110.607 99.4251C109.527 100.339 110.909 101.98 111.993 101.064C121.179 93.2729 129.529 93.457 131.675 92.7524C140.623 104.311 142.623 122.096 134.457 129.711V129.711ZM129.518 85.3297C129.616 84.9729 129.47 84.8729 129.225 84.6274L130.868 82.9819L133.018 85.1297C131.864 85.2297 131.075 85.3297 129.518 85.3297V85.3297ZM134.373 84.966L130.909 81.5047C130.45 81.0456 129.695 81.6547 130.127 82.207L129.429 82.9047C129.327 82.6047 128.152 81.5001 127.927 81.2774L129.384 79.8206C129.882 79.3229 129.127 78.5592 128.625 79.0615L127.168 80.5183L125.595 78.9456C128.452 69.3319 139.907 71.6638 141.373 77.191C142.068 79.8047 140.42 83.9319 134.373 84.966V84.966Z" fill="#2864FF"/>
<path d="M115.866 114.805C121.138 122.948 133.709 116.664 132.804 107.546C131.538 94.7228 108.243 103.046 115.866 114.805ZM125.545 103.205L125.273 103.477L125.027 103.232C125.334 103.216 125.22 103.205 125.545 103.205ZM123.682 103.407L124.513 104.239L123.248 105.505C123.009 105.266 121.918 104.066 121.582 104.036C122.588 103.621 123.027 103.536 123.682 103.407ZM121.136 104.232C121.038 104.357 121.013 104.5 121.043 104.65L118.929 106.764L118.325 106.159C119.045 105.414 120.025 104.746 121.136 104.232ZM116.923 111.939L117.223 112.239V112.696C117.113 112.446 116.995 112.2 116.923 111.939ZM123.273 116.4C121.332 116.561 119.552 115.777 118.295 114.373V113.314C118.736 113.755 119.15 114.307 119.598 113.859C120.159 113.298 118.9 112.402 118.295 111.796C118.295 111.182 118.388 110.539 117.759 110.539C117.561 110.539 117.418 110.664 117.327 110.825L116.711 110.209C116.732 109.075 117.013 107.98 117.654 107.002L118.218 107.566C118.002 108.007 118.352 108.496 118.886 108.234C119.157 108.505 120.934 110.405 121.279 110.405C121.754 110.405 121.998 109.827 121.659 109.489L119.691 107.521L121.72 105.491C122.293 106.064 123.875 107.989 124.427 107.439C124.852 107.014 124.42 106.675 124.009 106.261L125.275 104.996C125.725 105.446 126.145 106.014 126.598 105.561C127.054 105.105 126.488 104.693 126.032 104.236L126.9 103.368C133.62 104.766 130.725 115.857 123.273 116.4Z" fill="#2864FF"/>
<path d="M26.0931 101.402C13.3772 104.471 16.8909 119.214 26.7772 118.541C32.2886 118.137 36.6591 112.691 36.1545 107.546C35.7091 103.007 31.8841 100.007 26.0931 101.402ZM29.25 103.248L29.0636 103.434L28.8318 103.202C29.1113 103.205 29.0068 103.237 29.25 103.248ZM20.2841 112.007L22.2295 113.952L21.7204 114.462C21.1022 113.796 20.6818 113.364 20.2841 112.007ZM22.5181 115.184L22.9909 114.712C23.6091 115.33 24.35 114.555 23.75 113.952L25.7318 111.971C25.9409 111.762 25.9409 111.421 25.7318 111.212C25.5227 111.002 25.1818 111.002 24.9727 111.212L22.9909 113.193L20.0591 110.262C20.0818 107.614 21.4636 105.891 23.7227 104.623C23.9136 104.848 24.8591 105.784 25.0681 105.993L23.7568 107.305L22.9681 106.516C22.4704 106.018 21.7068 106.773 22.2091 107.275L22.9977 108.064C22.6227 108.439 22.2477 108.755 22.6568 109.164C23.0659 109.573 23.3863 109.193 23.7568 108.823C24.0272 109.093 25.3477 110.539 25.6931 110.539C26.1681 110.539 26.4113 109.962 26.0727 109.623L24.5159 108.066L25.8272 106.755C26.0727 107 26.9159 107.966 27.2591 107.966C27.7341 107.966 27.9772 107.389 27.6386 107.05L26.5863 105.998C27.0318 105.552 27.5568 105.159 27.1113 104.714C26.6659 104.268 26.2727 104.793 25.8272 105.239L24.7159 104.127C25.7681 103.668 26.6545 103.446 27.5795 103.312C27.6431 103.616 28.0727 103.966 28.3045 104.198C27.7113 104.791 28.4545 105.566 29.0636 104.957L31.1931 107.084C31.6954 107.587 32.45 106.825 31.9522 106.325L29.8227 104.198L30.5954 103.425C39.3386 105.791 30.3113 121.039 22.5181 115.184Z" fill="#2864FF"/>
<path d="M117.85 124.2C114.55 128.064 120.877 132.921 124.427 128.568C128.541 123.527 120.202 118.58 117.85 124.2ZM119.175 126.836C119.889 126.409 119.598 126.023 119.725 125.38C120.034 125.168 120.198 124.823 120.193 124.473C121.186 123.361 122.777 123.936 123.196 125.027C124.225 127.696 119.716 129.455 119.175 126.836Z" fill="#2864FF"/>
<path d="M26.1135 124.202C24.0567 126.611 25.9294 130.275 29.1863 130.275C32.2794 130.275 34.5294 127.03 33.4635 124.257C32.2544 121.132 27.5726 120.711 26.1135 124.202ZM29.0635 128.125C28.3181 128.077 27.5817 127.525 27.4385 126.836C28.1544 126.407 27.859 126.027 27.9885 125.382C28.2999 125.171 28.4635 124.823 28.459 124.473C28.7044 124.198 29.0203 123.993 29.3658 123.914C32.3112 123.239 32.2931 128.252 29.0635 128.125Z" fill="#2864FF"/>
<path d="M90.2433 105.302C91.6569 105.302 91.6637 103.157 90.2433 103.157C60.0819 103.157 59.4092 102.475 59.4092 104.23C59.4092 105.984 60.0819 105.302 90.2433 105.302Z" fill="#2864FF"/>
<path d="M58.9248 110.523C58.9248 112.277 59.5066 111.596 90.7271 111.596C91.3203 111.596 91.7998 111.116 91.7998 110.523C91.7998 109.93 91.3203 109.45 90.7271 109.45C59.5066 109.45 58.9248 108.768 58.9248 110.523Z" fill="#2864FF"/>
<path d="M91.9295 115.748C58.0795 115.748 57.7227 115.066 57.7227 116.821C57.7227 118.575 58.0795 117.893 91.9295 117.893C93.3431 117.893 93.3499 115.748 91.9295 115.748Z" fill="#2864FF"/>
<path d="M98.0748 72.2388L94.9589 75.3547L91.8134 72.2092C91.9134 72.0092 91.9157 71.7728 91.7498 71.6047C91.5839 71.4388 91.3453 71.441 91.1453 71.541L89.6521 70.0478C89.443 69.8388 89.1021 69.8388 88.893 70.0478C88.6839 70.2569 88.6839 70.5978 88.893 70.8069L90.3407 72.2547L88.1089 74.4865L85.6907 71.9206L88.3293 69.2819C88.5384 69.0728 88.5384 68.7319 88.3293 68.5228C88.1203 68.3138 87.7793 68.3138 87.5703 68.5228L84.9543 71.1388L83.2975 69.3797C83.0953 69.166 82.7566 69.1547 82.5384 69.3592C82.3248 69.5615 82.3134 69.9024 82.518 70.1183L84.1953 71.8978L82.1612 73.9319C81.5543 73.3251 80.6521 72.0569 80.0884 72.6183C79.5248 73.1819 80.7953 74.0842 81.4021 74.6888L79.4112 76.6774C78.9089 77.1797 79.6703 77.9342 80.1703 77.4365L82.1612 75.4456L84.6543 77.9365C84.2725 78.3183 83.8748 78.6456 84.2884 79.0615C84.4975 79.2706 84.8362 79.2728 85.0475 79.0615L85.443 78.666C85.9612 78.9933 86.443 78.4501 86.1407 77.9683L88.0862 76.0206C92.6725 80.8865 91.193 80.6297 94.9566 76.866C95.2134 77.1228 95.6475 77.6638 95.9748 77.6638C96.4498 77.6638 96.693 77.0865 96.3543 76.7479L95.7157 76.1092L98.8316 72.9933C99.0407 72.7842 99.0407 72.4433 98.8316 72.2342C98.6248 72.0297 98.2862 72.0297 98.0748 72.2388ZM85.4134 77.1819L82.9203 74.691L84.9339 72.6797L87.3521 75.2456L85.4134 77.1819ZM91.8543 78.4592L88.8453 75.2683L91.0998 73.0138L94.1998 76.1138L91.8543 78.4592Z" fill="#2864FF"/>
</svg>
