<svg width="50" height="50" viewBox="0 0 50 50" fill="none" xmlns="http://www.w3.org/2000/svg">
<g clip-path="url(#clip0_4926_23679)">
<path d="M44.9093 18.5993C45.0713 17.8027 44.7538 16.926 44.1193 16.4179C43.7248 16.102 43.2184 15.9369 42.7132 15.9369C42.4057 15.9369 42.0986 15.9981 41.8179 16.1239C41.7185 16.1684 41.6225 16.2203 41.5296 16.2705C41.3846 16.3488 41.2476 16.4227 41.0997 16.4707C40.4231 16.6897 39.7726 16.3294 39.0841 15.9477C38.7761 15.7769 38.4575 15.6004 38.1346 15.479C37.549 15.2588 36.9184 15.2206 36.3086 15.1836C35.8592 15.1563 35.3946 15.1282 34.9561 15.0268C34.3047 14.876 33.6789 14.4239 33.3988 13.9019C33.2216 13.5719 33.1905 13.2303 33.3087 12.9143C33.3886 12.701 33.5288 12.5185 33.6773 12.3253C33.8079 12.1553 33.9431 11.9794 34.0363 11.7778C34.2413 11.3344 34.2136 10.8452 34.1868 10.3721C34.1693 10.0622 34.1512 9.74189 34.2001 9.44218C34.2787 8.96132 34.533 8.5122 34.7791 8.07783C35.0796 7.54716 35.3904 6.99843 35.3966 6.37499C35.3999 6.05058 35.3186 5.73642 35.2398 5.43271C35.2022 5.2874 35.1632 5.1371 35.1348 4.98964C35.0176 4.38046 35.0761 3.73867 35.3038 3.12734L35.3588 3.04208C33.0849 2.09697 30.6942 1.52099 28.2777 1.3121C28.0398 1.98896 27.3653 2.70156 27.0891 3.35693C26.9574 3.66943 26.9243 4.01503 26.8083 4.33369C26.6923 4.65234 26.4544 4.96474 26.1188 5.01269C26.0159 5.02744 25.9073 5.01669 25.8117 5.05771C25.5501 5.16982 25.5738 5.54296 25.4535 5.80107C25.3272 6.07226 25.0181 6.2204 24.7195 6.23906C24.4208 6.25781 24.1271 6.16992 23.8407 6.083C23.4712 5.97079 23.0742 5.83935 22.852 5.52363C22.7301 5.35058 22.6747 5.13915 22.5661 4.95742C22.3737 4.63544 22.0353 4.43583 21.7325 4.21435C21.0515 3.71601 20.5034 2.83701 20.1411 2.01201C18.7351 2.38222 17.3566 2.88378 16.0243 3.51542L16.0796 3.59814C16.1091 3.91279 16.2636 4.20078 16.5135 4.40068L18.257 5.7954C18.488 5.98027 18.6205 6.25605 18.6205 6.55195V8.5332C18.6205 9.17831 19.1454 9.70312 19.7906 9.70312H20.6053C21.1395 9.70312 21.5741 10.1377 21.5741 10.6719V11.61C21.5741 11.9155 21.4276 12.2065 21.182 12.3884L16.3988 15.9315C16.2331 16.0543 16.0283 16.1219 15.8221 16.1219H12.865C12.2199 16.1219 11.695 16.6467 11.695 17.2918V19.2423C11.695 19.5548 11.8167 19.8486 12.0377 20.0696L14.1103 22.1421C14.3313 22.3631 14.6251 22.4848 14.9376 22.4848H17.8556C18.3898 22.4848 18.8243 22.9193 18.8243 23.4535V24.3191C18.8243 24.9643 19.3491 25.4892 19.9943 25.4892H22.0312C22.5654 25.4892 23 25.9237 23 26.4579C23 27.103 23.5249 27.6278 24.17 27.6278H26.8181C27.3523 27.6278 27.7868 28.0624 27.7868 28.5967V31.3961C27.7868 31.69 27.6557 31.9645 27.4271 32.1494L23.4344 35.3775C23.1583 35.6008 23 35.9324 23 36.2874V37.6554C23 37.9225 22.8882 38.1804 22.6932 38.3628L21.1938 39.7657C20.9582 39.9861 20.8231 40.2975 20.8231 40.62V43.6698C20.8231 44.204 20.3885 44.6387 19.8543 44.6387H18.2629C17.7287 44.6387 17.2942 44.2041 17.2942 43.6698V41.7242C17.2942 41.5495 17.2541 41.374 17.1783 41.2167L16.066 38.9065C16.0033 38.7764 15.9701 38.6311 15.9701 38.4863V34.084C15.9701 33.7087 15.7883 33.3538 15.4838 33.1345L11.2806 30.1081C11.0284 29.9266 10.8779 29.6326 10.8779 29.3219V26.2773C10.8779 26.1129 10.9201 25.9499 11.0001 25.8062L11.222 25.4078C11.476 24.9514 11.3944 24.3758 11.0235 24.008L7.33245 20.3478C7.15032 20.1672 7.04583 19.9165 7.04583 19.66V17.3293C7.04583 17.0023 6.90765 16.6882 6.66682 16.4672L4.84915 14.7996L4.76858 14.7354C0.5387 23.5764 2.08431 34.4894 9.40862 41.8139C18.6947 51.0999 33.7502 51.0999 43.0363 41.8139C43.6589 41.1912 44.2383 40.5419 44.7774 39.8708H44.6501C43.9067 39.336 43.3427 38.8553 42.8803 38.3626C41.7217 37.1283 40.9499 35.5259 40.7074 33.8505C40.665 33.5576 40.6374 33.2559 40.6109 32.9642C40.5646 32.456 40.5166 31.9307 40.3883 31.4246C40.2124 30.7307 39.8867 30.0763 39.5718 29.4434C39.151 28.5977 38.7534 27.799 38.6703 26.9011C38.5515 25.6169 39.1603 24.3134 40.2214 23.5804C40.844 23.1503 41.5936 22.9226 42.3184 22.7026C43.0021 22.495 43.709 22.2804 44.3258 21.8954C44.4823 21.7977 44.653 21.6722 44.732 21.482C44.8431 21.2144 44.7387 20.951 44.6378 20.6962C44.595 20.5883 44.5547 20.4863 44.5302 20.385C44.439 20.0079 44.5735 19.6316 44.7158 19.2332C44.7895 19.0274 44.8655 18.8148 44.9093 18.5993Z" fill="#23A8FE"/>
<path d="M18.2628 44.639C17.7287 44.639 17.2941 44.2044 17.2941 43.6701V43.525C16.6369 42.9947 16.0012 42.4244 15.3906 41.8139C9.89703 36.3204 7.65425 28.8077 8.6605 21.6648L7.33238 20.3478C7.15025 20.1671 7.04576 19.9164 7.04576 19.6599V17.3292C7.04576 17.0022 6.90757 16.6881 6.66675 16.4671L4.84908 14.7995L4.76851 14.7354C0.538724 23.5764 2.08433 34.4895 9.40865 41.8139C14.814 47.2192 22.1741 49.4769 29.2134 48.5894C25.5453 48.1269 21.9645 46.8099 18.7927 44.639H18.2628Z" fill="#0193FA"/>
<path d="M20.141 2.01376C18.735 2.38427 17.3557 2.88349 16.0234 3.51542L16.0787 3.59814C16.1082 3.91279 16.2627 4.20078 16.5126 4.40068L18.2193 5.76611C19.2135 5.04179 20.2518 4.40595 21.3224 3.85497C20.83 3.35038 20.4274 2.66562 20.141 2.01376Z" fill="#0193FA"/>
<path d="M26.818 27.5275H24.1699C23.5793 27.5275 23.1005 27.0487 23.1005 26.4581C23.1005 25.8675 22.6217 25.3887 22.0312 25.3887H19.9942C19.4036 25.3887 18.9249 24.9099 18.9249 24.3192V23.4536C18.9249 22.863 18.4461 22.3842 17.8556 22.3842H14.9376C14.6539 22.3842 14.3819 22.2715 14.1814 22.071L12.109 19.9985C11.9084 19.7979 11.7958 19.526 11.7958 19.2424V17.292C11.7958 16.7014 12.2746 16.2225 12.8651 16.2225H15.8222C16.0514 16.2225 16.2745 16.1489 16.4587 16.0125L21.2419 12.4693C21.5142 12.2677 21.6748 11.9488 21.6748 11.61V10.672C21.6748 10.0813 21.196 9.60253 20.6055 9.60253H19.7907C19.2001 9.60253 18.7214 9.12372 18.7214 8.53309V6.55194C18.7214 6.22704 18.5737 5.91981 18.32 5.71688L16.5766 4.32216C16.3229 4.11923 16.1752 3.812 16.1752 3.4871V3.44208C13.7257 4.58348 11.4305 6.16454 9.40889 8.18612C7.42285 10.1722 5.86309 12.4225 4.72656 14.8234L6.59893 16.5412C6.81973 16.7437 6.94541 17.0296 6.94541 17.3292V19.6598C6.94541 19.9449 7.05928 20.2182 7.26182 20.4191L10.9528 24.0793C11.2933 24.4169 11.3674 24.9398 11.1343 25.3587L10.9125 25.7571C10.8239 25.9162 10.7775 26.0952 10.7775 26.2772V29.3221C10.7775 29.666 10.943 29.9889 11.2221 30.1899L15.4253 33.2163C15.7044 33.4173 15.8698 33.7402 15.8698 34.0842V38.4865C15.8698 38.6472 15.906 38.8057 15.9757 38.9504L17.088 41.2604C17.1577 41.4052 17.1938 41.5638 17.1938 41.7244V43.67C17.1938 44.2606 17.6727 44.7394 18.2632 44.7394H19.8545C20.4451 44.7394 20.9238 44.2606 20.9238 43.67V40.6202C20.9238 40.3242 21.0465 40.0415 21.2626 39.8393L22.762 38.4363C22.9781 38.2342 23.1008 37.9514 23.1008 37.6555V36.2875C23.1008 35.9645 23.2467 35.6589 23.4978 35.4558L27.4905 32.2277C27.7416 32.0247 27.8876 31.719 27.8876 31.3962V28.5968C27.8873 28.0062 27.4086 27.5275 26.818 27.5275Z" fill="#43CB8E"/>
<path d="M16.1732 3.48702V3.44327C11.0201 5.84346 6.93516 10.0625 4.72461 14.8235L6.59697 16.5413C6.81777 16.7439 6.94336 17.0297 6.94336 17.3293V19.6599C6.94336 19.945 7.05723 20.2185 7.25977 20.4192L8.64219 21.7901C9.31631 16.8143 11.5642 12.0108 15.3888 8.18614C16.3072 7.26768 17.2828 6.44131 18.303 5.70489L16.5745 4.32217C16.3209 4.11924 16.1732 3.81192 16.1732 3.48702Z" fill="#00BA66"/>
<path d="M50.0004 25C50.0004 18.9146 47.679 12.8292 43.0359 8.18613C40.7353 5.88555 38.0803 4.15576 35.247 2.99512C34.9908 3.63057 34.9062 4.33516 35.0358 5.00859C35.1236 5.46475 35.3005 5.90947 35.2958 6.37393C35.2845 7.47646 34.2785 8.3377 34.1006 9.42588C33.9752 10.1938 34.2712 11.0293 33.9447 11.7355C33.7543 12.1474 33.3734 12.454 33.2142 12.8789C32.8393 13.8801 33.8916 14.8835 34.9331 15.1246C35.9746 15.3657 37.0982 15.1967 38.0988 15.573C39.1216 15.9577 40.0906 16.9028 41.1302 16.5662C41.3869 16.4831 41.6124 16.3259 41.8586 16.2156C42.5674 15.8981 43.4497 16.0108 44.0559 16.4963C44.6623 16.9818 44.965 17.8181 44.8102 18.5792C44.6844 19.1973 44.2837 19.7954 44.432 20.4084C44.5167 20.7586 44.7769 21.1104 44.6387 21.4433C44.5713 21.6056 44.4212 21.7169 44.2721 21.81C43.0115 22.5969 41.3866 22.6529 40.1639 23.4976C39.081 24.2456 38.4485 25.5998 38.5698 26.9104C38.7196 28.5291 39.891 29.8735 40.2904 31.4493C40.4901 32.2372 40.4909 33.0604 40.6073 33.8648C40.8533 35.5631 41.6321 37.1803 42.8064 38.4314C43.3644 39.0259 44.0029 39.5337 44.668 40.0076C48.2221 35.6492 49.9971 30.3246 49.9971 25H50.0004Z" fill="#43CB8E"/>
<path d="M41.1301 16.5663C41.3868 16.4832 41.6123 16.326 41.8585 16.2157C42.5673 15.8982 43.4496 16.0108 44.0558 16.4964C44.6622 16.9819 44.965 17.8182 44.8101 18.5793C44.6843 19.1974 44.2836 19.7954 44.4319 20.4085C44.5166 20.7588 44.7768 21.1106 44.6386 21.4434C44.6346 21.453 44.6294 21.462 44.6248 21.4713C45.7266 20.9697 47.0066 20.8155 48.0415 20.1696C48.1905 20.0766 48.3406 19.9652 48.4081 19.8029C48.5462 19.4702 48.2861 19.1183 48.2013 18.7681C48.0531 18.1551 48.4538 17.5569 48.5795 16.9389C48.5817 16.9283 48.5828 16.9177 48.5848 16.9071C48.3216 16.1782 48.0215 15.4598 47.6848 14.7543C47.0879 14.3567 46.2839 14.2814 45.6279 14.5753C45.3817 14.6855 45.1562 14.8428 44.8996 14.9259C43.8599 15.2624 42.8909 14.3173 41.8681 13.9327C40.8674 13.5564 39.7439 13.7254 38.7024 13.4843C37.6609 13.2432 36.6087 12.2397 36.9836 11.2386C37.1426 10.8137 37.5236 10.507 37.714 10.0952C38.0406 9.38896 37.7445 8.55341 37.87 7.78554C38.0347 6.77744 38.9096 5.96406 39.0466 4.97324C37.8296 4.19247 36.5578 3.53212 35.2469 2.99521C34.9907 3.63066 34.9061 4.33525 35.0358 5.00869C35.1236 5.46484 35.3005 5.90956 35.2958 6.37412C35.2845 7.47666 34.2785 8.33789 34.1006 9.42607C33.9752 10.1939 34.2712 11.0294 33.9447 11.7357C33.7544 12.1476 33.3734 12.4542 33.2142 12.8791C32.8393 13.8803 33.8916 14.8837 34.9331 15.1248C35.9746 15.3659 37.0982 15.1969 38.0988 15.5732C39.1215 15.9577 40.0905 16.9028 41.1301 16.5663Z" fill="#00BA66"/>
<path d="M46.5756 36.791C45.4012 35.5398 44.6224 33.9226 44.3764 32.2244C44.2599 31.42 44.2592 30.5968 44.0595 29.8089C43.6601 28.2331 42.4887 26.8887 42.3389 25.2699C42.2337 24.1336 42.696 22.9651 43.5264 22.1867C42.4138 22.6459 41.1561 22.8119 40.1636 23.4975C39.0807 24.2456 38.4482 25.5998 38.5695 26.9103C38.7193 28.5291 39.8907 29.8734 40.2901 31.4493C40.4898 32.2372 40.4906 33.0604 40.607 33.8648C40.853 35.5631 41.6318 37.1803 42.8062 38.4314C43.3642 39.0259 44.0026 39.5337 44.6678 40.0076C45.4538 39.0438 46.1522 38.0327 46.7642 36.985C46.7005 36.9212 46.6374 36.8568 46.5756 36.791Z" fill="#00BA66"/>
<path d="M26.8085 4.43428C26.9245 4.11563 26.9575 3.77002 27.0893 3.45752C27.3703 2.79062 28.0648 2.06445 28.291 1.37705C28.2979 1.35625 28.3029 1.33525 28.3088 1.31436C27.6147 1.25361 26.9187 1.22168 26.2225 1.22168V1.22471C24.1635 1.22471 22.1047 1.49111 20.1016 2.02217C20.463 2.87266 21.0266 3.79844 21.7326 4.31504C22.0354 4.53652 22.3738 4.73603 22.5663 5.0581C22.6749 5.23984 22.7303 5.45117 22.8521 5.62422C23.0745 5.93994 23.4715 6.07139 23.8409 6.18359C24.1271 6.27051 24.421 6.3584 24.7196 6.33965C25.0183 6.3209 25.3274 6.17285 25.4537 5.90156C25.5739 5.64355 25.5503 5.27031 25.8119 5.1582C25.9074 5.11729 26.0161 5.12793 26.1189 5.11328C26.4546 5.06533 26.6925 4.75293 26.8085 4.43428Z" fill="#43CB8E"/>
<path d="M28.3087 1.31456C27.6033 1.25284 26.9042 1.22159 26.2225 1.22159V1.22462C24.2227 1.22462 22.1266 1.4834 20.1016 2.02208C20.3777 2.67198 20.7723 3.36514 21.2579 3.88682C23.467 2.74171 25.818 1.96602 28.2195 1.56036C28.278 1.42598 28.2908 1.37901 28.3087 1.31456Z" fill="#00BA66"/>
<path d="M25.8023 27.3908L24.3717 25.9603C24.2071 25.7956 24.1025 25.5936 24.0573 25.3813C19.4577 29.8432 14.8822 33.8396 10.9783 36.7943C7.47243 39.4478 5.35172 40.6307 4.14528 41.1576C3.93561 41.2492 3.72389 41.0362 3.81559 40.8266C4.15299 40.0549 4.75895 38.9091 5.84547 37.2666C5.81667 37.2189 5.78913 37.1705 5.76061 37.1226C5.28922 36.2886 4.12292 33.7934 4.12292 33.7934C2.64987 35.8639 1.56012 37.6423 0.879849 39.0892C0.423502 40.0598 -0.788607 42.638 0.773111 44.1996C1.27907 44.7056 1.92243 44.9634 2.73288 44.9634C4.67585 44.9634 7.57751 43.4803 11.837 40.3767C16.138 37.2428 21.2799 32.8042 26.5068 27.7252C26.2493 27.6991 25.9991 27.5877 25.8023 27.3908Z" fill="#FEE55A"/>
<path d="M24.3714 25.9603C24.2068 25.7956 24.1022 25.5936 24.057 25.3813C19.4574 29.8432 14.8819 33.8396 10.978 36.7943C9.16586 38.1658 7.72397 39.1443 6.58705 39.8425L6.58696 39.8424C5.83871 40.302 4.95287 40.8048 4.14506 41.1576C3.96684 41.2356 3.78774 41.0931 3.79428 40.9198C3.79418 40.9201 3.4225 42.5892 5.9811 41.4092C7.18744 40.8822 9.30824 39.6993 12.8141 37.0459C16.4514 34.2929 20.6717 30.6356 24.9513 26.54L24.3714 25.9603Z" fill="#FFD301"/>
<path d="M2.60905 44.4512C1.04733 42.8895 2.25944 40.3113 2.71579 39.3407C3.22917 38.2489 3.97585 36.9682 4.94421 35.5158C4.51989 34.6427 4.12292 33.7934 4.12292 33.7934C2.64987 35.8639 1.56012 37.6423 0.879849 39.0892C0.423502 40.0598 -0.788607 42.638 0.773111 44.1996C1.27907 44.7056 1.92243 44.9634 2.73288 44.9634C2.9028 44.9634 3.08053 44.9514 3.26549 44.9285C3.02477 44.8074 2.80631 44.6484 2.60905 44.4512Z" fill="#FFD301"/>
<path d="M39.7769 27.3169L36.0795 19.1206L32.2031 22.8343L37.6115 29.1511C37.8175 29.3916 38.1846 29.4058 38.4085 29.1819L39.6658 27.9247C39.8256 27.7648 39.8698 27.5229 39.7769 27.3169Z" fill="#B1DBFC"/>
<path d="M39.2907 27.6071L33.8518 21.2547L32.2031 22.8342L37.6115 29.151C37.8175 29.3915 38.1846 29.4057 38.4085 29.1818L39.6657 27.9245C39.7029 27.8873 39.7332 27.8453 39.7576 27.8007C39.5868 27.8135 39.4117 27.7485 39.2907 27.6071Z" fill="#8BCAFF"/>
<path d="M32.6423 15.6828L24.4459 11.9853C24.2399 11.8925 23.9979 11.9367 23.8383 12.0964L22.581 13.3537C22.3571 13.5776 22.3714 13.9447 22.6119 14.1507L28.9287 19.5591L32.6423 15.6828Z" fill="#B1DBFC"/>
<path d="M23.9653 12.6618C23.814 12.5322 23.7502 12.3407 23.776 12.1588L22.581 13.3538C22.3572 13.5777 22.3713 13.9448 22.6118 14.1508L28.9286 19.5592L30.3222 18.1047L23.9653 12.6618Z" fill="#8BCAFF"/>
<path d="M30.9534 29.3608L30.0784 24.8693L27.4283 27.4082C27.2755 27.5547 27.0926 27.6501 26.9004 27.697L28.4252 30.6495C28.5704 30.9308 28.9246 31.0289 29.1938 30.8623L30.706 29.9267C30.898 29.808 30.9967 29.5826 30.9534 29.3608Z" fill="#FF656F"/>
<path d="M24.354 24.3335L26.8928 21.6834L22.4013 20.8084C22.1795 20.7651 21.9542 20.8637 21.8353 21.0558L20.8998 22.568C20.7332 22.8372 20.8312 23.1913 21.1126 23.3366L24.0651 24.8614C24.1121 24.6693 24.2075 24.4863 24.354 24.3335Z" fill="#FF656F"/>
<path d="M29.4179 27.8759C29.2521 27.5549 29.3336 27.1713 29.5958 26.9227C29.5974 26.9213 29.5988 26.9198 29.6004 26.9184L30.3397 26.2101L30.0784 24.8692L27.4283 27.4081C27.2755 27.5546 27.0926 27.65 26.9004 27.6969L28.4252 30.6493C28.5704 30.9307 28.9246 31.0288 29.1938 30.8621L30.5324 30.034L29.4179 27.8759Z" fill="#FF4756"/>
<path d="M23.2846 22.8468C23.0033 22.7016 22.9052 22.3475 23.0718 22.0782L23.7008 21.0616L22.4013 20.8085C22.1795 20.7652 21.9542 20.8638 21.8353 21.056L20.8998 22.568C20.7332 22.8373 20.8312 23.1913 21.1126 23.3366L24.0651 24.8615C24.112 24.6693 24.2074 24.4864 24.3539 24.3336L24.9528 23.7084L23.2846 22.8468Z" fill="#FF4756"/>
<path d="M40.865 11.9281C40.7499 11.4147 40.3489 11.0136 39.8354 10.8984C38.4944 10.5979 37.0939 11.0207 36.1431 12.013L24.2855 24.3899C23.8461 24.8486 23.8538 25.5745 24.303 26.0237L25.7397 27.4605C26.1889 27.9097 26.9148 27.9174 27.3735 27.4779L39.7505 15.6203C40.7428 14.6697 41.1656 13.2691 40.865 11.9281Z" fill="#DFEBFA"/>
<path d="M25.9128 27.5622C25.4635 27.113 25.4558 26.3872 25.8953 25.9284L37.7529 13.5515C38.5835 12.6846 39.7574 12.2524 40.9349 12.3575C40.9191 12.2142 40.897 12.0708 40.8651 11.9282C40.75 11.4147 40.349 11.0137 39.8354 10.8986C38.4944 10.598 37.0939 11.0209 36.1431 12.0132L24.2855 24.3901C23.8461 24.8488 23.8538 25.5747 24.303 26.0239L25.7397 27.4606C25.8233 27.5442 25.9165 27.6124 26.0157 27.6653L25.9128 27.5622Z" fill="#B1DBFC"/>
</g>
<defs>
<clipPath id="clip0_4926_23679">
<rect width="50" height="50" fill="white"/>
</clipPath>
</defs>
</svg>
