<svg width="20" height="20" viewBox="0 0 20 20" fill="none" xmlns="http://www.w3.org/2000/svg">
<path d="M6.65625 1.91172C7.6875 1.48516 8.81641 1.25 10 1.25C14.0469 1.25 17.4531 3.99609 18.4531 7.73047C18.2852 7.82812 18.1445 7.87891 17.9531 7.83984L16.7227 7.60156C16.457 7.54297 16.1562 7.6875 16.0195 7.96094C15.793 8.41406 15.2695 8.59766 14.7891 8.47266L14.2383 8.28906C13.9375 8.1875 13.6094 8.26562 13.3867 8.48828C13.207 8.63281 13.207 8.83203 13.3867 9.01172L14.6953 10.3203C14.8906 10.5156 15 10.7461 15 11.0586C15 11.5391 14.6719 11.957 14.207 12.0742L14 12.125C13.8516 12.1602 13.75 12.293 13.75 12.4453V12.918C13.75 13.457 13.5742 13.9492 13.25 14.418L12.25 15.75C12.0156 16.0664 11.6445 16.25 11.25 16.25C10.5586 16.25 10 15.6914 10 15V13.125C10 12.7812 9.71875 12.5 9.375 12.5H8.125C7.08984 12.5 6.25 11.6602 6.25 10.625V9.53125C6.25 9.03906 6.48047 8.57812 6.875 8.28125L8.41406 7.12891C8.59766 6.96484 8.89844 6.875 9.17188 6.875C9.30469 6.875 9.44141 6.89844 9.53516 6.94141L10.7852 7.35547C11.1016 7.44922 11.4023 7.46094 11.6914 7.39062L13.0742 7.04297C13.4727 6.94531 13.75 6.58594 13.75 6.17578C13.75 5.83984 13.5586 5.53125 13.2578 5.37891L12.1133 4.80859C11.9727 4.73438 11.7969 4.73047 11.6836 4.87891L11.5313 5.03125C11.3516 5.21094 11.1055 5.3125 10.8516 5.3125C10.668 5.3125 10.5547 5.27734 10.4219 5.21094L9.82813 4.91406C9.5625 4.78125 9.24219 4.85156 9.05859 5.08203L8.52734 5.74609C8.3125 5.98047 7.91406 6.03906 7.66797 5.79297C7.5625 5.6875 7.5 5.53906 7.5 5.38672V3.76953C7.5 3.55195 7.44141 3.33828 7.33594 3.14922L6.72266 2.07617C6.69141 2.02266 6.66797 1.96758 6.65625 1.91172Z" fill="#262B3F"/>
<path opacity="0.4" d="M6.72266 2.07607L7.33594 3.14912C7.44141 3.33818 7.46484 3.55186 7.46484 3.76943V5.38662C7.46484 5.53896 7.5625 5.6874 7.66797 5.79287C7.91406 6.03896 8.3125 5.98037 8.52734 5.746L9.05859 5.08193C9.24219 4.85146 9.5625 4.78115 9.82812 4.91396L10.4219 5.21084C10.5547 5.27725 10.668 5.27725 10.8516 5.27725C11.1055 5.27725 11.3516 5.21084 11.5312 5.03115L11.6836 4.8749C11.7969 4.73037 11.9727 4.73428 12.1133 4.8085L13.2578 5.37881C13.5586 5.53115 13.75 5.83975 13.75 6.17568C13.75 6.58584 13.4727 6.94521 13.0742 7.04287L11.6914 7.39053C11.4023 7.46084 11.1016 7.44912 10.7852 7.35537L9.53516 6.94131C9.44141 6.89834 9.30469 6.8749 9.17188 6.8749C8.89844 6.8749 8.59766 6.96475 8.41406 7.12881L6.83984 8.28115C6.48047 8.57803 6.21484 9.03896 6.21484 9.53115V10.6249C6.21484 11.6601 7.08984 12.4999 8.08984 12.4999H9.33984C9.71875 12.4999 9.96484 12.7812 9.96484 13.1249V14.9999C9.96484 15.6913 10.5586 16.2499 11.25 16.2499C11.6445 16.2499 12.0156 16.0663 12.25 15.7499L13.25 14.4179C13.5742 13.9491 13.75 13.4569 13.75 12.9179V12.4452C13.75 12.2929 13.8516 12.1601 14 12.1249L14.207 12.0741C14.6719 11.9569 15 11.539 15 11.0585C15 10.746 14.8906 10.5155 14.6953 10.3202L13.3867 9.01162C13.207 8.83193 13.207 8.63271 13.3867 8.48818C13.6094 8.26553 13.9375 8.1874 14.2383 8.28896L14.7891 8.47256C15.2695 8.59756 15.793 8.41396 16.0195 7.96084C16.1562 7.6874 16.457 7.54287 16.7227 7.60147L17.9531 7.83975C18.1445 7.87881 18.2852 7.82803 18.4531 7.73037C18.6484 8.45303 18.75 9.21475 18.75 9.96475C18.75 14.8319 14.832 18.7499 10 18.7499C5.16797 18.7499 1.25 14.8319 1.25 9.96475C1.25 6.35147 3.48281 3.2249 6.65625 1.91162C6.66797 1.96748 6.69141 2.02256 6.72266 2.07607Z" fill="#262B3F"/>
</svg>
