<svg width="1440" height="1324" viewBox="0 0 1440 1324" fill="none" xmlns="http://www.w3.org/2000/svg">
<g opacity="0.1">
<path opacity="0.01" d="M889.378 764.173C793.688 770.317 831.809 791.951 855.205 814.606C888.768 846.822 874.639 854.768 823.734 861.05C749.2 868.082 762.374 880.209 795.16 903.22C842.2 938.961 812.765 946.538 757.125 959.352C703.056 970 693.209 981.374 720.442 1013.49C759.219 1057.86 731.259 1064.76 678.159 1075.89C619.816 1084.19 612.891 1098.57 636.263 1137.72C663.181 1170.06 656.806 1181.31 602.476 1187.58C540.454 1195.74 529.989 1209.34 559.228 1251.41C603.162 1299.13 574.972 1304.36 518.683 1311.24" stroke="white"/>
<path opacity="0.0204082" d="M883.836 758.694C787.731 759.075 822.968 782.912 843.405 806.885C872.76 840.991 857.678 848.06 806.173 851.265C731.031 853.8 742.619 866.67 772.366 891.56C814.7 929.986 784.418 935.769 727.367 945.197C672.155 952.562 660.905 963.302 683.967 996.928C716.977 1043.45 688.25 1048.65 633.943 1056.55C574.77 1061.32 566.05 1075.24 584.375 1115.64C607.094 1149.47 599.319 1160.29 544.401 1163.28C481.583 1167.69 469.434 1180.61 493.235 1224.27C530.958 1274.45 502.212 1277.97 445.266 1281.45" stroke="white"/>
<path opacity="0.0408163" d="M878.583 753.329C782.795 747.944 814.879 773.805 832.202 798.912C857.126 834.649 841.207 840.786 789.491 840.889C714.315 838.908 724.228 852.424 750.71 879.004C788.016 919.823 757.117 923.767 699.089 929.737C643.155 933.763 630.587 943.787 649.302 978.668C676.295 1027 647.019 1030.45 591.917 1035.07C532.366 1036.27 521.916 1049.61 535.055 1090.95C553.402 1126.02 544.287 1136.34 489.199 1136.02C426.061 1136.64 412.322 1148.79 430.504 1193.71C461.727 1245.96 432.645 1247.74 375.476 1247.79" stroke="white"/>
<path opacity="0.0612245" d="M873.603 748.095C778.862 736.986 807.548 764.673 821.626 790.723C841.929 827.819 825.293 832.978 773.761 829.979C699.121 823.496 707.286 837.556 730.3 865.623C762.295 908.524 731.013 910.6 672.45 913.067C616.219 913.722 602.429 922.955 616.656 958.826C637.425 1008.59 607.824 1010.27 552.346 1011.57C492.87 1009.19 480.77 1021.85 488.623 1063.83C502.459 1099.87 492.072 1109.59 437.234 1105.98C374.258 1102.81 359.032 1114.09 371.456 1159.92C395.943 1213.85 366.746 1213.88 309.789 1210.5" stroke="white"/>
<path opacity="0.0816327" d="M868.878 743.01C775.905 726.261 800.976 755.562 811.701 782.358C827.229 820.53 810.002 824.672 759.046 818.594C685.512 807.659 691.864 822.155 711.236 851.495C737.676 896.152 706.251 896.344 647.598 895.289C591.498 892.569 576.591 900.94 586.221 937.527C600.608 988.348 570.907 988.248 515.476 986.212C456.527 980.277 442.87 992.166 445.377 1034.45C454.596 1071.18 443.017 1080.25 388.846 1073.36C326.51 1066.42 309.914 1076.74 316.485 1123.15C334.05 1178.34 304.96 1176.62 248.648 1169.84" stroke="white"/>
<path opacity="0.102041" d="M864.39 738.087C773.892 715.825 795.156 746.519 802.447 773.856C813.081 812.814 795.396 815.907 745.403 806.796C673.534 791.492 678.026 806.314 693.609 836.704C714.292 882.777 682.962 881.084 624.666 876.515C569.124 870.44 553.214 877.885 558.173 914.911C566.069 966.401 536.493 964.52 481.532 959.167C423.559 949.719 408.448 960.744 405.59 1003.02C410.122 1040.16 397.438 1048.5 344.347 1038.38C283.126 1027.74 265.287 1037.03 265.955 1083.65C276.463 1139.68 247.702 1136.22 192.463 1126.09" stroke="white"/>
<path opacity="0.122449" d="M860.117 733.34C772.782 705.735 790.078 737.587 793.879 765.257C799.539 804.705 781.529 806.726 732.881 794.65C663.223 775.094 665.821 790.129 677.495 821.339C692.265 868.477 661.269 864.911 603.773 856.863C549.212 847.48 532.42 853.942 532.671 891.124C534.016 942.892 504.79 939.245 450.716 930.616C394.16 917.726 377.71 927.803 369.509 969.746C369.32 1007.02 355.628 1014.57 304.02 1001.3C244.381 987.027 225.433 995.208 220.194 1041.7C223.565 1098.15 195.352 1092.97 141.607 1079.56" stroke="white"/>
<path opacity="0.142857" d="M856.035 728.781C772.529 696.043 785.725 728.811 786.007 756.604C786.649 796.242 768.452 797.174 721.518 782.227C654.602 758.567 655.286 773.701 662.964 805.492C671.707 853.336 641.28 847.925 585.023 836.459C531.857 823.839 514.311 829.269 509.852 866.326C504.635 917.977 475.983 912.591 423.207 900.751C368.499 884.519 350.836 893.57 337.354 934.862C332.445 971.982 317.85 978.678 268.117 962.371C210.513 944.572 190.601 951.585 179.494 997.582C175.704 1054.02 148.253 1047.18 96.4103 1030.59" stroke="white"/>
<path opacity="0.163265" d="M852.12 724.421C773.078 686.799 782.074 720.234 778.834 747.939C774.454 787.464 756.208 787.301 711.346 769.596C647.681 742.013 646.446 757.129 650.068 789.26C652.719 837.447 623.093 830.231 568.502 815.434C517.137 799.674 498.969 804.031 489.834 840.679C478.096 891.821 450.235 884.736 399.159 869.777C346.715 850.325 327.973 858.282 309.313 898.608C299.721 935.293 284.333 941.088 236.855 921.86C181.725 900.674 161.001 906.466 144.11 951.622C133.187 1007.62 106.707 999.153 57.1619 979.524" stroke="white"/>
<path opacity="0.183673" d="M848.346 720.27C774.369 678.05 779.096 711.897 772.361 739.302C762.991 778.414 744.835 777.157 702.386 756.829C642.457 725.532 639.312 740.517 638.851 772.743C635.389 820.905 606.79 811.94 554.281 793.925C505.107 775.144 486.457 778.395 472.715 814.356C454.544 864.599 427.687 855.87 378.7 837.904C328.919 815.38 309.24 822.184 285.544 861.237C271.343 897.207 255.28 902.057 210.418 880.054C158.18 855.642 136.801 860.169 114.256 904.14C96.2825 959.267 70.9751 949.247 24.1048 926.721" stroke="white"/>
<path opacity="0.204082" d="M844.686 716.334C776.338 669.838 776.76 703.84 766.58 730.736C752.293 769.137 734.365 766.797 694.652 743.999C638.914 709.227 633.884 723.967 629.343 756.042C619.794 803.814 592.44 793.167 542.411 772.072C495.803 750.413 476.812 752.533 458.569 787.532C434.104 836.495 408.454 826.188 361.929 805.352C315.19 779.928 294.724 785.525 266.172 823.009C247.47 857.99 230.854 861.858 188.949 837.249C140.002 809.796 118.131 813.024 90.1028 855.476C65.2158 909.315 41.2738 897.815 -2.56532 872.563" stroke="white"/>
<path opacity="0.22449" d="M841.112 712.62C778.913 662.201 775.028 696.1 761.48 722.283C742.383 759.681 724.82 756.274 688.145 731.182C637.024 693.199 630.146 707.581 621.56 739.261C605.998 786.278 580.095 774.032 532.929 750.016C489.241 725.644 470.054 726.617 447.448 760.389C416.875 807.698 392.628 795.892 348.919 772.344C305.577 744.214 284.481 748.563 251.29 784.191C228.228 817.917 211.186 820.774 172.557 793.745C127.273 763.461 105.077 765.365 71.7788 805.974C40.1679 858.115 17.7735 845.223 -22.7008 817.438" stroke="white"/>
<path opacity="0.244898" d="M837.597 709.132C782.02 655.175 773.856 688.711 757.043 713.982C733.283 750.093 716.219 745.645 682.861 718.449C636.745 677.544 628.071 691.459 615.506 722.504C594.048 768.409 569.795 754.655 525.85 727.902C485.416 701.002 466.178 700.82 439.38 733.108C402.932 778.403 380.273 765.188 339.712 739.109C300.099 708.486 278.531 711.552 240.955 745.055C213.71 777.269 196.37 779.093 161.311 749.85C120.035 716.965 97.682 717.53 59.3679 755.988C21.2737 806.035 0.597253 791.848 -36.2041 761.742" stroke="white"/>
<path opacity="0.265306" d="M834.11 705.874C785.579 648.788 773.198 681.707 753.249 705.874C725.006 740.421 708.57 734.968 678.784 705.874C638.023 662.359 627.62 675.7 611.171 705.874C583.981 750.317 561.563 735.161 521.173 705.874C484.299 676.651 465.158 675.316 434.373 705.874C392.327 748.81 371.427 734.286 334.324 705.874C298.739 672.991 276.866 674.753 235.189 705.874C203.968 736.332 186.463 737.108 155.242 705.874C118.287 670.638 95.9476 669.86 52.9088 705.874C8.62116 753.445 -10.18 738.073 -43.0283 705.874" stroke="white"/>
<path opacity="0.285714" d="M830.624 702.845C789.507 643.065 773.004 675.117 750.071 697.995C717.56 730.717 701.876 724.298 675.888 693.528C640.794 647.734 628.741 660.401 608.533 689.473C575.818 732.116 555.404 715.673 518.877 684.075C485.845 652.752 466.946 650.274 432.407 678.869C385.084 719.12 366.103 703.398 332.74 672.868C301.455 637.977 279.441 638.419 233.982 666.922C199.022 695.392 181.485 695.116 154.339 662.127C121.987 624.809 99.8311 622.695 52.3951 655.989C2.25113 700.724 -14.5316 684.282 -43.1769 650.235" stroke="white"/>
<path opacity="0.306122" d="M827.109 700.044C793.719 638.027 773.22 668.966 747.476 690.382C710.945 721.029 696.134 713.694 674.142 681.483C644.98 633.758 631.369 645.654 607.556 673.403C569.565 713.922 551.311 696.317 518.925 662.648C489.985 629.464 471.472 625.861 433.444 652.276C381.203 689.536 364.285 672.735 334.915 640.32C308.168 603.685 286.183 602.805 237.286 628.473C198.854 654.738 181.419 653.411 158.553 618.92C131.051 579.803 109.247 576.368 57.7751 606.691C2.15643 648.248 -12.4801 630.862 -36.7045 595.226" stroke="white"/>
<path opacity="0.326531" d="M823.535 697.471C798.127 633.686 773.788 663.278 745.429 683.068C705.155 711.408 691.33 703.213 673.501 669.805C650.495 620.513 635.429 631.547 608.192 657.762C565.214 695.848 549.259 677.216 521.261 641.732C496.634 606.938 478.647 602.239 437.418 626.272C380.657 660.257 365.932 642.506 340.779 608.452C318.773 570.353 296.983 568.158 245.022 590.795C203.409 614.654 186.208 612.287 167.798 576.556C145.355 535.939 124.069 531.209 68.9522 558.329C8.2821 596.392 -4.09686 578.194 -23.7159 541.241" stroke="white"/>
<path opacity="0.346939" d="M819.875 695.119C802.642 630.053 774.647 658.073 743.891 676.086C700.181 701.903 687.446 692.91 673.916 658.559C657.24 608.075 640.834 618.163 610.381 642.645C562.743 678.009 549.209 658.49 525.81 621.463C505.683 585.324 488.36 579.564 444.245 601.033C383.395 631.484 370.974 612.917 350.23 577.484C333.133 538.21 311.704 534.716 257.073 554.151C212.597 575.423 195.762 572.033 181.947 535.334C164.733 493.525 144.128 487.536 85.7859 511.248C20.5261 545.527 10.4989 526.656 -4.36545 488.667" stroke="white"/>
<path opacity="0.367347" d="M816.101 692.982C807.174 627.131 775.737 653.365 742.816 669.465C696.003 692.562 684.456 682.839 675.328 647.808C665.109 596.516 647.488 605.582 614.05 628.144C562.114 660.515 551.103 640.259 532.484 601.969C517.01 564.761 500.483 557.984 453.816 576.725C389.341 603.41 379.319 584.169 363.141 547.627C351.084 507.477 330.178 502.711 273.294 518.795C226.293 537.319 209.952 532.932 200.837 495.544C188.984 452.862 169.215 445.66 108.092 465.782C38.7393 496.016 31.1402 476.616 21.1436 437.88" stroke="white"/>
<path opacity="0.387755" d="M812.186 691.055C811.632 624.918 776.993 649.167 742.158 663.231C692.598 683.433 682.326 673.054 677.669 637.609C673.986 585.899 655.284 593.873 619.115 614.344C563.277 643.477 554.874 622.638 541.174 583.377C530.472 545.382 514.866 537.639 466.003 553.51C398.395 576.227 390.847 556.458 379.359 519.085C372.432 478.364 352.21 472.362 293.505 484.974C244.337 500.608 228.613 495.258 224.269 457.465C217.866 414.234 199.084 405.874 135.646 422.253C62.7277 448.213 57.6145 428.431 52.5618 389.243" stroke="white"/>
<path opacity="0.408163" d="M808.104 689.326C815.929 623.408 778.35 645.486 741.867 657.408C689.937 674.56 681.018 663.605 680.868 628.015C683.747 576.281 664.106 583.103 625.483 601.327C566.168 627 560.436 605.736 551.761 565.803C545.911 527.31 531.345 518.661 480.658 531.541C410.43 550.117 405.415 529.97 398.703 492.05C396.96 451.068 377.575 443.877 317.497 452.919C266.535 465.545 251.549 459.272 252.007 421.362C251.104 377.913 233.453 368.458 168.181 380.97C92.2529 402.457 89.6645 382.443 89.5942 343.101" stroke="white"/>
<path opacity="0.428571" d="M803.831 687.785C819.974 622.587 779.742 642.328 741.887 652.016C687.983 665.988 680.486 654.539 684.843 619.076C694.264 567.712 673.834 573.33 633.049 589.168C570.708 611.186 567.691 589.659 564.107 549.357C563.154 510.66 549.739 501.171 497.614 510.961C425.3 525.254 422.856 504.883 420.972 466.705C424.426 425.775 406.025 417.448 345.03 422.852C292.664 432.374 278.529 425.226 283.787 387.488C288.39 344.149 272.003 333.671 205.395 342.221C127.035 359.072 126.991 338.98 131.903 299.783" stroke="white"/>
<path opacity="0.44898" d="M799.342 686.42C823.681 622.439 781.103 639.691 742.165 647.072C686.696 657.758 680.677 645.903 689.51 610.836C705.4 560.232 684.336 564.604 641.7 577.935C576.808 596.13 576.529 574.504 578.062 534.141C582.015 495.534 569.852 485.276 516.685 491.903C442.836 501.804 442.982 481.364 445.94 443.218C454.565 402.651 437.288 393.252 375.841 394.978C322.468 401.322 309.292 393.353 319.31 356.074C329.384 313.177 314.386 301.756 246.949 306.278C166.753 318.365 169.254 298.346 179.112 259.594" stroke="white"/>
<path opacity="0.469388" d="M794.618 685.218C826.968 622.94 782.366 637.573 742.642 642.59C686.031 649.908 681.536 637.738 694.776 603.334C717.015 553.875 695.477 556.967 651.316 567.691C584.366 581.924 586.827 560.364 593.466 520.246C602.293 482.023 591.476 471.075 537.672 474.488C462.85 479.921 465.584 459.568 473.362 421.745C487.091 381.849 471.071 371.45 409.639 369.484C355.666 372.603 343.55 363.874 358.25 327.338C373.719 285.207 360.225 272.931 292.472 273.391C211.049 280.622 216.076 260.829 230.804 222.815" stroke="white"/>
<path opacity="0.489796" d="M789.639 684.163C829.752 624.062 783.467 635.965 743.258 638.58C685.936 642.475 683 630.081 700.547 596.603C728.964 548.666 707.117 550.454 661.766 558.488C593.268 568.652 598.45 547.321 610.145 507.755C623.779 470.207 614.389 458.651 560.358 458.824C485.133 459.749 490.434 439.637 502.973 402.424C521.703 363.504 507.06 352.184 446.111 346.54C391.948 346.41 380.984 336.988 400.255 301.472C421.001 260.43 409.113 247.391 341.56 243.785C259.531 246.106 267.046 226.69 286.532 189.704" stroke="white"/>
<path opacity="0.510204" d="M784.385 683.241C831.958 625.774 784.341 634.855 743.954 635.049C686.357 635.491 685.002 622.968 706.722 590.67C741.102 544.62 719.112 545.091 672.915 550.374C603.391 556.391 611.255 535.452 627.916 496.737C646.254 460.15 638.364 448.075 584.516 445.006C509.46 441.417 517.288 421.699 534.492 385.38C558.08 347.731 544.927 335.576 484.924 326.298C430.984 322.92 421.254 312.876 444.951 278.651C470.815 239.009 460.624 225.307 393.784 217.663C311.774 215.055 321.719 196.163 345.816 160.487" stroke="white"/>
<path opacity="0.530612" d="M778.843 682.433C833.512 628.038 784.927 634.229 744.669 632C687.235 628.985 687.471 616.429 713.199 585.556C753.28 541.743 731.314 540.894 684.624 543.386C614.603 545.21 625.088 524.823 646.589 487.254C669.491 451.906 663.16 439.404 609.906 433.117C535.59 425.039 545.885 405.866 567.624 370.717C595.89 334.626 584.326 321.728 525.727 308.887C472.42 302.286 464 291.697 491.94 259.024C522.727 221.084 514.31 206.823 448.692 195.199C367.325 187.682 379.624 169.459 408.148 135.364" stroke="white"/>
<path opacity="0.55102" d="M772.998 681.722C834.348 630.813 785.164 634.066 745.341 629.431C688.507 622.983 690.333 610.489 719.873 581.276C765.351 540.035 743.575 537.871 696.748 537.553C626.762 535.171 639.79 515.49 665.967 479.354C693.258 445.514 688.534 432.679 636.279 423.223C563.269 410.718 575.953 392.235 602.061 358.524C634.79 324.266 624.904 310.723 568.154 294.416C515.886 284.643 508.839 273.589 540.811 242.716C576.285 206.768 569.707 192.055 505.811 176.541C425.705 164.172 440.265 146.756 472.999 114.501" stroke="white"/>
<path opacity="0.571429" d="M766.839 681.09C834.403 634.054 784.994 634.345 745.91 627.339C690.109 617.507 693.51 605.169 726.637 577.84C777.165 539.483 755.747 536.021 709.138 532.896C639.72 526.325 655.191 507.5 685.845 473.072C717.318 440.998 714.238 427.929 663.379 415.374C592.231 398.538 607.207 380.886 637.485 348.869C674.428 316.704 666.295 302.62 611.827 282.972C560.995 270.101 555.374 258.666 591.135 229.829C631.027 196.144 626.337 181.093 564.649 161.805C486.414 144.679 503.125 128.202 539.819 98.0336" stroke="white"/>
<path opacity="0.591837" d="M760.358 680.517C833.622 637.713 784.364 635.039 746.316 625.715C691.972 612.574 696.923 600.487 733.385 575.249C788.579 540.068 767.68 535.335 721.645 529.426C653.323 518.717 671.119 500.891 706.017 468.433C741.432 438.368 740.019 425.164 690.944 409.607C622.198 388.568 639.353 371.881 673.571 341.802C714.447 311.976 708.129 297.457 656.356 274.616C607.348 258.746 603.196 247.018 642.473 220.434C686.48 189.271 683.713 173.996 624.703 151.081C548.935 129.328 567.669 113.916 608.044 86.0631" stroke="white"/>
<path opacity="0.612245" d="M753.548 679.984C831.954 641.737 783.222 636.119 746.5 624.549C694.027 608.198 700.49 596.454 740.01 573.499C799.449 541.762 779.23 535.794 734.117 527.146C667.412 512.38 687.398 495.69 726.273 465.448C765.361 437.622 765.626 424.383 718.708 405.941C652.889 380.859 672.092 365.265 709.988 337.353C754.487 310.091 750.031 295.249 701.348 269.39C654.536 250.641 651.886 238.708 694.38 214.582C742.166 186.176 741.345 170.794 685.461 144.427C612.737 118.211 633.351 103.982 677.1 78.6567" stroke="white"/>
<path opacity="0.632653" d="M746.405 679.471C829.357 646.073 781.522 637.553 746.405 623.824C696.203 604.388 704.128 593.077 746.405 572.579C809.637 544.529 790.251 537.37 746.405 526.05C681.824 507.339 703.847 491.911 746.405 464.115C788.869 438.74 790.809 425.567 746.405 404.382C684.013 375.447 705.118 361.065 746.405 335.531C794.187 311.043 791.628 295.99 746.405 267.309C702.146 245.823 701.017 233.777 746.405 212.291C797.606 186.86 798.736 171.487 746.405 141.868C677.277 111.391 699.615 98.4524 746.405 75.847" stroke="white"/>
<path opacity="0.653061" d="M738.929 678.958C825.795 650.662 779.221 639.306 745.976 623.523C698.426 601.15 707.754 590.357 752.466 572.473C819.01 548.322 800.604 540.027 758.359 526.121C696.393 503.607 720.287 489.559 766.203 464.422C811.719 441.69 815.32 428.684 773.768 404.916C715.278 372.349 738.124 359.287 782.488 336.327C833.189 314.797 832.546 299.648 791.128 268.364C749.758 244.306 750.16 232.238 798.096 213.556C852.323 191.292 855.396 176.045 807.015 143.401C742.01 108.893 765.902 97.3439 815.376 77.6309" stroke="white"/>
<path opacity="0.673469" d="M731.12 678.425C821.239 655.447 776.28 641.34 745.161 623.624C700.626 598.484 711.285 588.291 758.092 573.157C827.441 553.089 810.156 543.722 769.833 527.335C710.954 501.19 736.536 488.628 785.461 466.341C833.682 446.425 838.917 433.685 800.533 407.515C746.39 371.564 770.804 359.922 817.907 339.71C871.142 321.304 872.42 306.174 835.121 272.525C796.956 246.076 798.884 234.078 849.004 218.343C905.844 199.417 910.837 184.412 866.774 148.99C806.387 110.714 831.65 100.642 883.433 83.9714" stroke="white"/>
<path opacity="0.693878" d="M722.982 677.852C815.668 660.367 772.667 643.617 743.91 624.102C702.729 596.386 714.638 586.872 763.183 574.603C834.811 558.77 818.777 548.403 780.683 529.659C725.339 500.082 752.415 489.103 803.976 469.835C854.536 452.887 861.365 440.509 826.442 412.137C777.058 373.075 802.853 362.941 852.336 345.632C907.7 330.488 910.889 315.493 877.994 279.734C843.324 251.098 846.764 239.261 898.686 226.591C957.707 211.146 964.581 196.498 925.172 158.568C869.862 116.816 896.305 108.298 950.002 94.7963" stroke="white"/>
<path opacity="0.714286" d="M714.522 677.22C809.07 665.36 768.354 646.095 742.178 624.929C704.663 594.849 717.732 586.085 767.647 576.775C841.006 565.299 826.347 554.009 790.771 533.051C739.384 500.268 767.747 490.954 821.553 474.852C874.067 461.001 882.437 449.08 851.24 418.721C806.991 376.846 833.971 368.298 885.459 354.022C942.53 342.257 947.606 327.51 919.365 289.914C888.453 259.307 893.38 247.722 946.709 238.214C1007.46 226.368 1016.16 212.188 981.708 172.039C931.897 127.129 959.318 120.228 1014.52 109.999" stroke="white"/>
<path opacity="0.734694" d="M705.748 676.509C801.438 670.365 763.317 648.732 739.921 626.076C706.358 593.861 720.488 585.914 771.392 579.632C845.926 572.6 832.752 560.474 799.966 537.462C752.926 501.722 782.361 494.144 838.001 481.331C892.07 470.682 901.917 459.308 874.684 427.194C835.907 382.824 863.867 375.927 916.967 364.794C975.31 356.496 982.235 342.109 958.863 302.963C931.945 270.619 938.32 259.373 992.65 253.1C1054.67 244.943 1065.14 231.339 1035.9 189.276C991.964 141.549 1020.15 136.319 1076.44 129.44" stroke="white"/>
<path opacity="0.755102" d="M696.671 675.701C792.776 675.32 757.539 651.482 737.102 627.51C707.747 593.404 722.829 586.335 774.335 583.13C849.476 580.595 837.888 567.725 808.141 542.835C765.807 504.408 796.089 498.626 853.14 489.198C908.352 481.833 919.602 471.093 896.54 437.467C863.53 390.94 892.257 385.747 946.564 377.84C1005.74 373.074 1014.46 359.157 996.132 318.758C973.413 284.922 981.188 274.101 1036.11 271.112C1098.92 266.705 1111.07 253.78 1087.27 210.124C1049.55 159.943 1078.3 156.425 1135.24 152.947" stroke="white"/>
<path opacity="0.77551" d="M687.306 674.778C783.093 680.163 751.009 654.302 733.686 629.195C708.762 593.458 724.681 587.321 776.397 587.218C851.574 589.199 841.66 575.683 815.178 549.103C777.872 508.284 808.771 504.339 866.799 498.369C922.733 494.344 935.302 484.32 916.586 449.438C889.593 401.109 918.869 397.658 973.971 393.039C1033.52 391.84 1043.97 378.499 1030.83 337.155C1012.49 302.085 1021.6 291.772 1076.69 292.087C1139.83 291.465 1153.57 279.318 1135.38 234.4C1104.16 182.148 1133.24 180.367 1190.41 180.318" stroke="white"/>
<path opacity="0.795918" d="M677.667 673.724C772.407 684.833 743.721 657.146 729.643 631.096C709.34 594 725.977 588.841 777.509 591.84C852.148 598.323 843.984 584.263 820.969 556.196C788.974 513.295 820.256 511.219 878.819 508.752C935.05 508.097 948.84 498.864 934.613 462.993C913.844 413.229 943.446 411.547 998.923 410.25C1058.4 412.627 1070.5 399.964 1062.65 357.989C1048.81 321.952 1059.2 312.225 1114.04 315.843C1177.01 319.011 1192.24 307.734 1179.81 261.896C1155.33 207.97 1184.52 207.94 1241.48 211.321" stroke="white"/>
<path opacity="0.816327" d="M667.772 672.521C760.745 689.271 735.675 659.969 724.949 633.173C709.422 595.001 726.648 590.859 777.604 596.938C851.138 607.872 844.786 593.377 825.414 564.036C798.974 519.379 830.399 519.187 889.052 520.242C945.152 522.962 960.059 514.592 950.429 478.004C936.042 427.183 965.744 427.283 1021.17 429.319C1080.12 435.254 1093.78 423.365 1091.27 381.079C1082.05 344.349 1093.63 335.282 1147.8 342.175C1210.14 349.108 1226.74 338.787 1220.16 292.379C1202.6 237.19 1231.69 238.911 1288 245.695" stroke="white"/>
<path opacity="0.836735" d="M657.641 671.157C748.139 693.419 726.875 662.725 719.584 635.388C708.95 596.429 726.636 593.336 776.628 602.448C848.497 617.752 844.005 602.93 828.422 572.539C807.739 526.467 839.069 528.16 897.365 532.729C952.907 538.803 968.817 531.359 963.858 494.333C955.962 442.842 985.538 444.723 1040.5 450.076C1098.47 459.525 1113.58 448.5 1116.44 406.224C1111.91 369.081 1124.59 360.743 1177.68 370.859C1238.9 381.504 1256.74 372.218 1256.08 325.592C1245.57 269.56 1274.33 273.019 1329.57 283.155" stroke="white"/>
<path opacity="0.857143" d="M647.295 669.616C734.63 697.221 717.334 665.369 713.533 637.698C707.873 598.25 725.883 596.23 774.532 608.305C844.189 627.861 841.591 612.827 829.917 581.617C815.147 534.479 846.143 538.045 903.639 546.093C958.2 555.476 974.993 549.014 974.741 511.831C973.397 460.063 1002.62 463.711 1056.7 472.34C1113.25 485.23 1129.7 475.153 1137.9 433.21C1138.09 395.936 1151.78 388.39 1203.39 401.653C1263.03 415.929 1281.98 407.748 1287.22 361.26C1283.85 304.81 1312.06 309.981 1365.81 323.392" stroke="white"/>
<path opacity="0.877551" d="M636.758 667.887C720.264 700.625 707.068 667.857 706.786 640.064C706.144 600.426 724.341 599.494 771.275 614.441C838.191 638.101 837.507 622.967 829.83 591.176C821.086 543.332 851.513 548.743 907.77 560.209C960.936 572.829 978.483 567.399 982.941 530.342C988.158 478.691 1016.81 484.078 1069.59 495.917C1124.29 512.15 1141.96 503.098 1155.44 461.806C1160.35 424.686 1174.94 417.99 1224.68 434.297C1282.28 452.096 1302.19 445.083 1313.3 399.086C1317.09 342.648 1344.54 349.492 1396.38 366.075" stroke="white"/>
<path opacity="0.897959" d="M626.055 665.959C705.097 703.581 696.101 670.146 699.34 642.442C703.72 602.917 721.966 603.079 766.828 620.785C830.493 648.368 831.728 633.251 828.106 601.121C825.455 552.934 855.081 560.15 909.672 574.946C961.038 590.706 979.205 586.349 988.34 549.701C1000.08 498.559 1027.94 505.644 1079.01 520.604C1131.46 540.056 1150.2 532.098 1168.86 491.772C1178.45 455.087 1193.84 449.292 1241.32 468.52C1296.45 489.707 1317.17 483.915 1334.06 438.758C1344.99 382.763 1371.47 391.227 1421.01 410.857" stroke="white"/>
<path opacity="0.918367" d="M615.21 663.823C689.186 706.043 684.459 672.195 691.194 644.791C700.564 605.679 718.72 606.935 761.169 627.264C821.098 658.561 824.243 643.575 824.704 611.35C828.166 563.187 856.765 572.153 909.275 590.167C958.448 608.948 977.099 605.698 990.84 569.737C1009.01 519.494 1035.87 528.222 1084.86 546.189C1134.64 568.712 1154.32 561.909 1178.01 522.855C1192.21 486.886 1208.28 482.036 1253.14 504.038C1305.38 528.451 1326.75 523.923 1349.3 479.952C1367.27 424.825 1392.58 434.846 1439.45 457.372" stroke="white"/>
<path opacity="0.938776" d="M604.251 661.471C672.598 707.967 672.176 673.965 682.356 647.069C696.644 608.668 714.572 611.008 754.285 633.805C810.022 668.577 815.053 653.838 819.594 621.763C829.142 573.991 856.497 584.638 906.525 605.733C953.133 627.392 972.124 625.272 990.368 590.273C1014.83 541.31 1040.48 551.617 1087.01 572.453C1133.75 597.876 1154.21 592.279 1182.76 554.796C1201.47 519.815 1218.08 515.947 1259.99 540.556C1308.93 568.009 1330.81 564.781 1358.83 522.329C1383.72 468.49 1407.66 479.99 1451.5 505.242" stroke="white"/>
<path opacity="0.959184" d="M593.205 658.897C655.404 709.316 659.29 675.418 672.838 649.234C691.934 611.836 709.497 615.243 746.172 640.336C797.294 678.318 804.172 663.937 812.757 632.256C828.32 585.239 854.222 597.485 901.388 621.501C945.076 645.873 964.263 644.901 986.87 611.128C1017.44 563.82 1041.69 575.625 1085.4 599.173C1128.74 627.303 1149.84 622.955 1183.03 587.326C1206.09 553.6 1223.13 550.743 1261.76 577.772C1307.04 608.056 1329.24 606.153 1362.54 565.543C1394.15 513.402 1416.54 526.294 1457.02 554.079" stroke="white"/>
<path opacity="0.979592" d="M582.101 656.097C637.678 710.054 645.842 676.518 662.655 651.247C686.415 615.137 703.48 619.584 736.837 646.781C782.954 687.685 791.627 673.771 804.193 642.726C825.65 596.821 849.903 610.574 893.848 637.328C934.283 664.227 953.52 664.409 980.318 632.121C1016.77 586.826 1039.43 600.041 1079.99 626.121C1119.6 656.743 1141.17 653.677 1178.74 620.175C1205.99 587.96 1223.33 586.136 1258.39 615.38C1299.66 648.264 1322.02 647.699 1360.33 609.242C1398.42 559.195 1419.1 573.381 1455.9 603.488" stroke="white"/>
<path d="M570.969 653.068C619.501 710.153 631.881 677.235 651.83 653.068C680.073 618.52 696.51 623.974 726.296 653.068C767.056 696.583 777.459 683.241 793.908 653.068C821.098 608.625 843.517 623.781 883.906 653.068C920.78 682.29 939.921 683.626 970.707 653.068C1012.75 610.131 1033.65 624.655 1070.76 653.068C1106.34 685.95 1128.21 684.189 1169.89 653.068C1201.11 622.61 1218.62 621.833 1249.84 653.068C1286.79 688.303 1309.13 689.081 1352.17 653.068C1396.46 605.496 1415.26 620.869 1448.11 653.068" stroke="white"/>
</g>
<g opacity="0.1">
<path opacity="0.01" d="M1269.38 684.173C1173.69 690.317 1211.81 711.951 1235.2 734.606C1268.77 766.822 1254.64 774.768 1203.73 781.05C1129.2 788.082 1142.37 800.209 1175.16 823.22C1222.2 858.961 1192.77 866.538 1137.13 879.352C1083.06 890 1073.21 901.374 1100.44 933.489C1139.22 977.858 1111.26 984.755 1058.16 995.889C999.816 1004.19 992.891 1018.57 1016.26 1057.72C1043.18 1090.06 1036.81 1101.31 982.476 1107.58C920.454 1115.74 909.989 1129.34 939.228 1171.41C983.162 1219.13 954.972 1224.36 898.683 1231.24" stroke="white"/>
<path opacity="0.0204082" d="M1263.84 678.694C1167.73 679.075 1202.97 702.912 1223.41 726.885C1252.76 760.991 1237.68 768.06 1186.17 771.265C1111.03 773.8 1122.62 786.67 1152.37 811.56C1194.7 849.986 1164.42 855.769 1107.37 865.197C1052.16 872.562 1040.9 883.302 1063.97 916.928C1096.98 963.454 1068.25 968.648 1013.94 976.554C954.77 981.321 946.05 995.238 964.375 1035.64C987.094 1069.47 979.319 1080.29 924.401 1083.28C861.583 1087.69 849.434 1100.61 873.235 1144.27C910.958 1194.45 882.212 1197.97 825.266 1201.45" stroke="white"/>
<path opacity="0.0408163" d="M1258.58 673.329C1162.8 667.944 1194.88 693.805 1212.2 718.912C1237.13 754.649 1221.21 760.786 1169.49 760.889C1094.31 758.908 1104.23 772.424 1130.71 799.004C1168.02 839.823 1137.12 843.767 1079.09 849.737C1023.15 853.763 1010.59 863.787 1029.3 898.668C1056.29 946.998 1027.02 950.449 971.917 955.068C912.366 956.267 901.916 969.608 915.055 1010.95C933.402 1046.02 924.287 1056.34 869.199 1056.02C806.061 1056.64 792.322 1068.79 810.504 1113.71C841.727 1165.96 812.645 1167.74 755.476 1167.79" stroke="white"/>
<path opacity="0.0612245" d="M1253.6 668.095C1158.86 656.986 1187.55 684.673 1201.63 710.723C1221.93 747.819 1205.29 752.978 1153.76 749.979C1079.12 743.496 1087.29 757.556 1110.3 785.623C1142.29 828.524 1111.01 830.6 1052.45 833.067C996.219 833.722 982.429 842.955 996.656 878.826C1017.42 928.59 987.824 930.272 932.346 931.569C872.87 929.192 860.77 941.855 868.623 983.83C882.459 1019.87 872.072 1029.59 817.234 1025.98C754.258 1022.81 739.032 1034.09 751.456 1079.92C775.943 1133.85 746.746 1133.88 689.789 1130.5" stroke="white"/>
<path opacity="0.0816327" d="M1248.88 663.01C1155.91 646.261 1180.98 675.562 1191.7 702.358C1207.23 740.53 1190 744.672 1139.05 738.594C1065.51 727.659 1071.86 742.155 1091.24 771.495C1117.68 816.152 1086.25 816.344 1027.6 815.289C971.498 812.569 956.591 820.94 966.221 857.527C980.608 908.348 950.907 908.248 895.476 906.212C836.527 900.277 822.87 912.166 825.377 954.453C834.596 991.182 823.017 1000.25 768.846 993.356C706.51 986.423 689.914 996.744 696.485 1043.15C714.05 1098.34 684.96 1096.62 628.648 1089.84" stroke="white"/>
<path opacity="0.102041" d="M1244.39 658.087C1153.89 635.825 1175.16 666.519 1182.45 693.856C1193.08 732.814 1175.4 735.907 1125.4 726.796C1053.53 711.492 1058.03 726.314 1073.61 756.704C1094.29 802.777 1062.96 801.084 1004.67 796.515C949.124 790.44 933.214 797.885 938.173 834.911C946.069 886.401 916.493 884.52 861.532 879.167C803.559 869.719 788.448 880.744 785.59 923.02C790.122 960.163 777.438 968.501 724.347 958.384C663.126 947.739 645.287 957.025 645.955 1003.65C656.463 1059.68 627.702 1056.22 572.463 1046.09" stroke="white"/>
<path opacity="0.122449" d="M1240.12 653.34C1152.78 625.735 1170.08 657.587 1173.88 685.257C1179.54 724.705 1161.53 726.726 1112.88 714.65C1043.22 695.094 1045.82 710.129 1057.5 741.339C1072.27 788.477 1041.27 784.911 983.773 776.863C929.212 767.48 912.42 773.942 912.671 811.124C914.016 862.892 884.79 859.245 830.716 850.616C774.16 837.726 757.71 847.803 749.509 889.746C749.32 927.02 735.628 934.565 684.02 921.303C624.381 907.027 605.433 915.208 600.194 961.696C603.565 1018.15 575.352 1012.97 521.607 999.564" stroke="white"/>
<path opacity="0.142857" d="M1236.03 648.781C1152.53 616.043 1165.72 648.811 1166.01 676.604C1166.65 716.242 1148.45 717.174 1101.52 702.227C1034.6 678.567 1035.29 693.701 1042.96 725.492C1051.71 773.336 1021.28 767.925 965.023 756.459C911.857 743.839 894.311 749.269 889.852 786.326C884.635 837.977 855.983 832.591 803.207 820.751C748.499 804.519 730.836 813.57 717.354 854.862C712.445 891.982 697.85 898.678 648.117 882.371C590.513 864.572 570.601 871.585 559.494 917.582C555.704 974.02 528.253 967.176 476.41 950.593" stroke="white"/>
<path opacity="0.163265" d="M1232.12 644.421C1153.08 606.799 1162.07 640.234 1158.83 667.939C1154.45 707.464 1136.21 707.301 1091.35 689.596C1027.68 662.013 1026.45 677.129 1030.07 709.26C1032.72 757.447 1003.09 750.231 948.502 735.434C897.137 719.674 878.969 724.031 869.834 760.679C858.096 811.821 830.235 804.736 779.159 789.777C726.715 770.325 707.973 778.282 689.313 818.608C679.721 855.293 664.333 861.088 616.855 841.86C561.725 820.674 541.001 826.466 524.11 871.622C513.187 927.617 486.707 919.153 437.162 899.524" stroke="white"/>
<path opacity="0.183673" d="M1228.35 640.27C1154.37 598.05 1159.1 631.897 1152.36 659.302C1142.99 698.414 1124.84 697.157 1082.39 676.829C1022.46 645.532 1019.31 660.517 1018.85 692.743C1015.39 740.905 986.79 731.94 934.281 713.925C885.107 695.144 866.457 698.395 852.715 734.356C834.544 784.599 807.687 775.87 758.7 757.904C708.919 735.38 689.24 742.184 665.544 781.237C651.343 817.207 635.28 822.057 590.418 800.054C538.18 775.642 516.801 780.169 494.256 824.14C476.282 879.267 450.975 869.247 404.105 846.721" stroke="white"/>
<path opacity="0.204082" d="M1224.69 636.334C1156.34 589.838 1156.76 623.84 1146.58 650.736C1132.29 689.137 1114.36 686.797 1074.65 663.999C1018.91 629.227 1013.88 643.967 1009.34 676.042C999.794 723.814 972.44 713.167 922.411 692.072C875.803 670.413 856.812 672.533 838.569 707.532C814.104 756.495 788.454 746.188 741.929 725.352C695.19 699.928 674.724 705.525 646.172 743.009C627.47 777.99 610.854 781.858 568.949 757.249C520.002 729.796 498.131 733.024 470.103 775.476C445.216 829.315 421.274 817.815 377.435 792.563" stroke="white"/>
<path opacity="0.22449" d="M1221.11 632.62C1158.91 582.201 1155.03 616.1 1141.48 642.283C1122.38 679.681 1104.82 676.274 1068.15 651.182C1017.02 613.199 1010.15 627.581 1001.56 659.261C985.998 706.278 960.095 694.032 912.929 670.016C869.241 645.644 850.054 646.617 827.448 680.389C796.875 727.698 772.628 715.892 728.919 692.344C685.577 664.214 664.481 668.563 631.29 704.191C608.228 737.917 591.186 740.774 552.557 713.745C507.273 683.461 485.077 685.365 451.779 725.974C420.168 778.115 397.773 765.223 357.299 737.438" stroke="white"/>
<path opacity="0.244898" d="M1217.6 629.132C1162.02 575.175 1153.86 608.711 1137.04 633.982C1113.28 670.093 1096.22 665.645 1062.86 638.449C1016.74 597.544 1008.07 611.459 995.506 642.504C974.048 688.409 949.795 674.655 905.85 647.902C865.416 621.002 846.178 620.82 819.38 653.108C782.932 698.403 760.273 685.188 719.712 659.109C680.099 628.486 658.531 631.552 620.955 665.055C593.71 697.269 576.37 699.093 541.311 669.85C500.035 636.965 477.682 637.53 439.368 675.988C401.274 726.035 380.597 711.848 343.796 681.742" stroke="white"/>
<path opacity="0.265306" d="M1214.11 625.874C1165.58 568.788 1153.2 601.707 1133.25 625.874C1105.01 660.421 1088.57 654.968 1058.78 625.874C1018.02 582.359 1007.62 595.7 991.171 625.874C963.981 670.317 941.563 655.161 901.173 625.874C864.299 596.651 845.158 595.316 814.373 625.874C772.327 668.81 751.427 654.286 714.324 625.874C678.739 592.991 656.866 594.753 615.189 625.874C583.968 656.332 566.463 657.108 535.242 625.874C498.287 590.638 475.948 589.86 432.909 625.874C388.621 673.445 369.82 658.073 336.972 625.874" stroke="white"/>
<path opacity="0.285714" d="M1210.62 622.845C1169.51 563.065 1153 595.117 1130.07 617.995C1097.56 650.717 1081.88 644.298 1055.89 613.528C1020.79 567.734 1008.74 580.401 988.533 609.473C955.818 652.116 935.404 635.673 898.877 604.075C865.845 572.752 846.946 570.274 812.407 598.869C765.084 639.12 746.103 623.398 712.74 592.868C681.455 557.977 659.441 558.419 613.982 586.922C579.022 615.392 561.485 615.116 534.339 582.127C501.987 544.809 479.831 542.695 432.395 575.989C382.251 620.724 365.468 604.282 336.823 570.235" stroke="white"/>
<path opacity="0.306122" d="M1207.11 620.044C1173.72 558.027 1153.22 588.966 1127.48 610.382C1090.94 641.029 1076.13 633.694 1054.14 601.483C1024.98 553.758 1011.37 565.654 987.556 593.403C949.565 633.922 931.311 616.317 898.925 582.648C869.985 549.464 851.472 545.861 813.444 572.276C761.203 609.536 744.285 592.735 714.915 560.32C688.168 523.685 666.183 522.805 617.286 548.473C578.854 574.738 561.419 573.411 538.553 538.92C511.051 499.803 489.247 496.368 437.775 526.691C382.156 568.248 367.52 550.862 343.296 515.226" stroke="white"/>
<path opacity="0.326531" d="M1203.54 617.471C1178.13 553.686 1153.79 583.278 1125.43 603.068C1085.16 631.408 1071.33 623.213 1053.5 589.805C1030.49 540.513 1015.43 551.547 988.192 577.762C945.214 615.848 929.259 597.216 901.261 561.732C876.634 526.938 858.647 522.239 817.418 546.272C760.657 580.257 745.932 562.506 720.779 528.452C698.773 490.353 676.983 488.158 625.022 510.795C583.409 534.654 566.208 532.287 547.798 496.556C525.355 455.939 504.069 451.209 448.952 478.329C388.282 516.392 375.903 498.194 356.284 461.241" stroke="white"/>
<path opacity="0.346939" d="M1199.88 615.119C1182.64 550.053 1154.65 578.073 1123.89 596.086C1080.18 621.903 1067.45 612.91 1053.92 578.559C1037.24 528.075 1020.83 538.163 990.381 562.645C942.743 598.009 929.209 578.49 905.81 541.463C885.683 505.324 868.36 499.564 824.245 521.033C763.395 551.484 750.974 532.917 730.23 497.484C713.133 458.21 691.704 454.716 637.073 474.151C592.597 495.423 575.762 492.033 561.947 455.334C544.733 413.525 524.128 407.536 465.786 431.248C400.526 465.527 390.499 446.656 375.635 408.667" stroke="white"/>
<path opacity="0.367347" d="M1196.1 612.982C1187.17 547.131 1155.74 573.365 1122.82 589.465C1076 612.562 1064.46 602.839 1055.33 567.808C1045.11 516.516 1027.49 525.582 994.05 548.144C942.114 580.515 931.103 560.259 912.484 521.969C897.01 484.761 880.483 477.984 833.816 496.725C769.341 523.41 759.319 504.169 743.141 467.627C731.084 427.477 710.178 422.711 653.294 438.795C606.293 457.319 589.952 452.932 580.837 415.544C568.984 372.862 549.215 365.66 488.092 385.782C418.739 416.016 411.14 396.616 401.144 357.88" stroke="white"/>
<path opacity="0.387755" d="M1192.19 611.055C1191.63 544.918 1156.99 569.167 1122.16 583.231C1072.6 603.433 1062.33 593.054 1057.67 557.609C1053.99 505.899 1035.28 513.873 999.115 534.344C943.277 563.477 934.874 542.638 921.174 503.377C910.472 465.382 894.866 457.639 846.003 473.51C778.395 496.227 770.847 476.458 759.359 439.085C752.432 398.364 732.21 392.362 673.505 404.974C624.337 420.608 608.613 415.258 604.269 377.465C597.866 334.234 579.084 325.874 515.646 342.253C442.728 368.213 437.615 348.431 432.562 309.243" stroke="white"/>
<path opacity="0.408163" d="M1188.1 609.326C1195.93 543.408 1158.35 565.486 1121.87 577.408C1069.94 594.56 1061.02 583.605 1060.87 548.015C1063.75 496.281 1044.11 503.103 1005.48 521.327C946.168 547 940.436 525.736 931.761 485.803C925.911 447.31 911.345 438.661 860.658 451.541C790.43 470.117 785.415 449.97 778.703 412.05C776.96 371.068 757.575 363.877 697.497 372.919C646.535 385.545 631.549 379.272 632.007 341.362C631.104 297.913 613.453 288.458 548.181 300.97C472.253 322.457 469.665 302.443 469.594 263.101" stroke="white"/>
<path opacity="0.428571" d="M1183.83 607.785C1199.97 542.587 1159.74 562.328 1121.89 572.016C1067.98 585.988 1060.49 574.539 1064.84 539.076C1074.26 487.712 1053.83 493.33 1013.05 509.168C950.708 531.186 947.691 509.659 944.107 469.357C943.154 430.66 929.739 421.171 877.614 430.961C805.3 445.254 802.856 424.883 800.972 386.705C804.426 345.775 786.025 337.448 725.03 342.852C672.664 352.374 658.529 345.226 663.787 307.488C668.39 264.149 652.003 253.671 585.395 262.221C507.035 279.072 506.991 258.98 511.903 219.783" stroke="white"/>
<path opacity="0.44898" d="M1179.34 606.42C1203.68 542.439 1161.1 559.691 1122.16 567.072C1066.7 577.758 1060.68 565.903 1069.51 530.836C1085.4 480.232 1064.34 484.604 1021.7 497.935C956.808 516.13 956.529 494.504 958.062 454.141C962.015 415.534 949.852 405.276 896.685 411.903C822.836 421.804 822.982 401.364 825.94 363.218C834.565 322.651 817.288 313.252 755.841 314.978C702.468 321.322 689.292 313.353 699.31 276.074C709.384 233.177 694.386 221.756 626.949 226.278C546.753 238.365 549.254 218.346 559.112 179.594" stroke="white"/>
<path opacity="0.469388" d="M1174.62 605.218C1206.97 542.94 1162.37 557.573 1122.64 562.59C1066.03 569.908 1061.54 557.738 1074.78 523.334C1097.01 473.875 1075.48 476.967 1031.32 487.691C964.366 501.924 966.827 480.364 973.466 440.246C982.293 402.023 971.476 391.075 917.672 394.488C842.85 399.921 845.584 379.568 853.362 341.745C867.091 301.849 851.071 291.45 789.639 289.484C735.666 292.603 723.55 283.874 738.25 247.338C753.719 205.207 740.225 192.931 672.472 193.391C591.049 200.622 596.076 180.829 610.804 142.815" stroke="white"/>
<path opacity="0.489796" d="M1169.64 604.163C1209.75 544.062 1163.47 555.965 1123.26 558.58C1065.94 562.475 1063 550.081 1080.55 516.603C1108.96 468.666 1087.12 470.454 1041.77 478.488C973.268 488.652 978.45 467.321 990.145 427.755C1003.78 390.207 994.389 378.651 940.358 378.824C865.133 379.749 870.434 359.637 882.973 322.424C901.703 283.504 887.06 272.184 826.111 266.54C771.948 266.41 760.984 256.988 780.255 221.472C801.001 180.43 789.113 167.391 721.56 163.785C639.531 166.106 647.046 146.69 666.532 109.704" stroke="white"/>
<path opacity="0.510204" d="M1164.39 603.241C1211.96 545.774 1164.34 554.855 1123.95 555.049C1066.36 555.491 1065 542.968 1086.72 510.67C1121.1 464.62 1099.11 465.091 1052.92 470.374C983.391 476.391 991.255 455.452 1007.92 416.737C1026.25 380.15 1018.36 368.075 964.516 365.006C889.46 361.417 897.288 341.699 914.492 305.38C938.08 267.731 924.927 255.576 864.924 246.298C810.984 242.92 801.254 232.876 824.951 198.651C850.815 159.009 840.624 145.307 773.784 137.663C691.774 135.055 701.719 116.163 725.816 80.4869" stroke="white"/>
<path opacity="0.530612" d="M1158.84 602.433C1213.51 548.038 1164.93 554.229 1124.67 552C1067.23 548.985 1067.47 536.429 1093.2 505.556C1133.28 461.743 1111.31 460.894 1064.62 463.386C994.603 465.21 1005.09 444.823 1026.59 407.254C1049.49 371.906 1043.16 359.404 989.906 353.117C915.59 345.039 925.885 325.866 947.624 290.717C975.89 254.626 964.326 241.728 905.727 228.887C852.42 222.286 844 211.697 871.94 179.024C902.727 141.084 894.31 126.823 828.692 115.199C747.325 107.682 759.624 89.459 788.148 55.3635" stroke="white"/>
<path opacity="0.55102" d="M1153 601.722C1214.35 550.813 1165.16 554.066 1125.34 549.431C1068.51 542.983 1070.33 530.489 1099.87 501.276C1145.35 460.035 1123.58 457.871 1076.75 457.553C1006.76 455.171 1019.79 435.49 1045.97 399.354C1073.26 365.514 1068.53 352.679 1016.28 343.223C943.269 330.718 955.953 312.235 982.061 278.524C1014.79 244.266 1004.9 230.723 948.154 214.416C895.886 204.643 888.839 193.589 920.811 162.716C956.285 126.768 949.707 112.055 885.811 96.5406C805.705 84.1716 820.265 66.7557 852.999 34.5008" stroke="white"/>
<path opacity="0.571429" d="M1146.84 601.09C1214.4 554.054 1164.99 554.345 1125.91 547.339C1070.11 537.507 1073.51 525.169 1106.64 497.84C1157.17 459.483 1135.75 456.021 1089.14 452.896C1019.72 446.325 1035.19 427.5 1065.84 393.072C1097.32 360.998 1094.24 347.929 1043.38 335.374C972.231 318.538 987.207 300.886 1017.48 268.869C1054.43 236.704 1046.3 222.62 991.827 202.972C940.995 190.101 935.374 178.666 971.135 149.829C1011.03 116.144 1006.34 101.093 944.649 81.8053C866.414 64.6788 883.125 48.2025 919.819 18.0336" stroke="white"/>
<path opacity="0.591837" d="M1140.36 600.517C1213.62 557.713 1164.36 555.039 1126.32 545.715C1071.97 532.574 1076.92 520.487 1113.39 495.249C1168.58 460.068 1147.68 455.335 1101.64 449.426C1033.32 438.717 1051.12 420.891 1086.02 388.433C1121.43 358.368 1120.02 345.164 1070.94 329.607C1002.2 308.568 1019.35 291.881 1053.57 261.802C1094.45 231.976 1088.13 217.457 1036.36 194.616C987.348 178.746 983.196 167.018 1022.47 140.434C1066.48 109.271 1063.71 93.9961 1004.7 71.0814C928.935 49.3277 947.669 33.9164 988.044 6.06308" stroke="white"/>
<path opacity="0.612245" d="M1133.55 599.984C1211.95 561.737 1163.22 556.119 1126.5 544.549C1074.03 528.198 1080.49 516.454 1120.01 493.499C1179.45 461.762 1159.23 455.794 1114.12 447.146C1047.41 432.38 1067.4 415.69 1106.27 385.448C1145.36 357.622 1145.63 344.383 1098.71 325.941C1032.89 300.859 1052.09 285.265 1089.99 257.353C1134.49 230.091 1130.03 215.249 1081.35 189.39C1034.54 170.641 1031.89 158.708 1074.38 134.582C1122.17 106.176 1121.34 90.7936 1065.46 64.4269C992.737 38.2114 1013.35 23.9824 1057.1 -1.34327" stroke="white"/>
<path opacity="0.632653" d="M1126.41 599.471C1209.36 566.073 1161.52 557.553 1126.41 543.824C1076.2 524.388 1084.13 513.077 1126.41 492.579C1189.64 464.529 1170.25 457.37 1126.41 446.05C1061.82 427.339 1083.85 411.911 1126.41 384.115C1168.87 358.74 1170.81 345.567 1126.41 324.382C1064.01 295.447 1085.12 281.065 1126.41 255.531C1174.19 231.043 1171.63 215.99 1126.41 187.309C1082.15 165.823 1081.02 153.777 1126.41 132.291C1177.61 106.86 1178.74 91.4866 1126.41 61.8684C1057.28 31.3908 1079.62 18.4524 1126.41 -4.153" stroke="white"/>
<path opacity="0.653061" d="M1118.93 598.958C1205.79 570.662 1159.22 559.306 1125.98 543.523C1078.43 521.15 1087.75 510.357 1132.47 492.473C1199.01 468.322 1180.6 460.027 1138.36 446.121C1076.39 423.607 1100.29 409.559 1146.2 384.422C1191.72 361.69 1195.32 348.684 1153.77 324.916C1095.28 292.349 1118.12 279.287 1162.49 256.327C1213.19 234.797 1212.55 219.648 1171.13 188.364C1129.76 164.306 1130.16 152.238 1178.1 133.556C1232.32 111.292 1235.4 96.0453 1187.01 63.401C1122.01 28.8933 1145.9 17.3439 1195.38 -2.36911" stroke="white"/>
<path opacity="0.673469" d="M1111.12 598.425C1201.24 575.447 1156.28 561.34 1125.16 543.624C1080.63 518.484 1091.28 508.291 1138.09 493.157C1207.44 473.089 1190.16 463.722 1149.83 447.335C1090.95 421.19 1116.54 408.628 1165.46 386.341C1213.68 366.425 1218.92 353.685 1180.53 327.515C1126.39 291.564 1150.8 279.922 1197.91 259.71C1251.14 241.304 1252.42 226.174 1215.12 192.525C1176.96 166.076 1178.88 154.078 1229 138.343C1285.84 119.417 1290.84 104.412 1246.77 68.9898C1186.39 30.7145 1211.65 20.642 1263.43 3.97141" stroke="white"/>
<path opacity="0.693878" d="M1102.98 597.852C1195.67 580.367 1152.67 563.617 1123.91 544.102C1082.73 516.386 1094.64 506.872 1143.18 494.603C1214.81 478.77 1198.78 468.403 1160.68 449.659C1105.34 420.082 1132.41 409.103 1183.98 389.835C1234.54 372.887 1241.36 360.509 1206.44 332.137C1157.06 293.075 1182.85 282.941 1232.34 265.632C1287.7 250.488 1290.89 235.493 1257.99 199.734C1223.32 171.098 1226.76 159.261 1278.69 146.591C1337.71 131.146 1344.58 116.498 1305.17 78.568C1249.86 36.8165 1276.31 28.2976 1330 14.7963" stroke="white"/>
<path opacity="0.714286" d="M1094.52 597.22C1189.07 585.36 1148.35 566.095 1122.18 544.929C1084.66 514.849 1097.73 506.085 1147.65 496.775C1221.01 485.299 1206.35 474.009 1170.77 453.051C1119.38 420.268 1147.75 410.954 1201.55 394.852C1254.07 381.001 1262.44 369.08 1231.24 338.721C1186.99 296.846 1213.97 288.298 1265.46 274.022C1322.53 262.257 1327.61 247.51 1299.36 209.914C1268.45 179.307 1273.38 167.722 1326.71 158.214C1387.46 146.368 1396.16 132.188 1361.71 92.0387C1311.9 47.1286 1339.32 40.2282 1394.52 29.9989" stroke="white"/>
<path opacity="0.734694" d="M1085.75 596.509C1181.44 590.365 1143.32 568.732 1119.92 546.076C1086.36 513.861 1100.49 505.914 1151.39 499.632C1225.93 492.6 1212.75 480.474 1179.97 457.462C1132.93 421.722 1162.36 414.144 1218 401.331C1272.07 390.682 1281.92 379.308 1254.68 347.194C1215.91 302.824 1243.87 295.927 1296.97 284.794C1355.31 276.496 1362.24 262.109 1338.86 222.963C1311.95 190.619 1318.32 179.373 1372.65 173.1C1434.67 164.943 1445.14 151.339 1415.9 109.276C1371.96 61.5488 1400.15 56.3193 1456.44 49.4399" stroke="white"/>
<path opacity="0.755102" d="M1076.67 595.701C1172.78 595.32 1137.54 571.482 1117.1 547.51C1087.75 513.404 1102.83 506.335 1154.33 503.13C1229.48 500.595 1217.89 487.725 1188.14 462.835C1145.81 424.408 1176.09 418.626 1233.14 409.198C1288.35 401.833 1299.6 391.093 1276.54 357.467C1243.53 310.94 1272.26 305.747 1326.56 297.84C1385.74 293.074 1394.46 279.157 1376.13 238.758C1353.41 204.922 1361.19 194.101 1416.11 191.112C1478.92 186.705 1491.07 173.78 1467.27 130.124C1429.55 79.9433 1458.3 76.4246 1515.24 72.9474" stroke="white"/>
<path opacity="0.77551" d="M1067.31 594.778C1163.09 600.163 1131.01 574.302 1113.69 549.195C1088.76 513.458 1104.68 507.321 1156.4 507.218C1231.57 509.199 1221.66 495.683 1195.18 469.103C1157.87 428.284 1188.77 424.339 1246.8 418.369C1302.73 414.344 1315.3 404.32 1296.59 369.438C1269.59 321.109 1298.87 317.658 1353.97 313.039C1413.52 311.84 1423.97 298.499 1410.83 257.155C1392.49 222.085 1401.6 211.772 1456.69 212.087C1519.83 211.465 1533.57 199.318 1515.38 154.4C1484.16 102.148 1513.24 100.367 1570.41 100.318" stroke="white"/>
<path opacity="0.795918" d="M1057.67 593.724C1152.41 604.833 1123.72 577.146 1109.64 551.096C1089.34 514 1105.98 508.841 1157.51 511.84C1232.15 518.323 1223.98 504.263 1200.97 476.196C1168.97 433.295 1200.26 431.219 1258.82 428.752C1315.05 428.097 1328.84 418.864 1314.61 382.993C1293.84 333.229 1323.45 331.547 1378.92 330.25C1438.4 332.627 1450.5 319.964 1442.65 277.989C1428.81 241.952 1439.2 232.225 1494.04 235.843C1557.01 239.011 1572.24 227.734 1559.81 181.896C1535.33 127.97 1564.52 127.94 1621.48 131.321" stroke="white"/>
<path opacity="0.816327" d="M1047.77 592.521C1140.74 609.271 1115.67 579.969 1104.95 553.173C1089.42 515.001 1106.65 510.859 1157.6 516.938C1231.14 527.872 1224.79 513.377 1205.41 484.036C1178.97 439.379 1210.4 439.187 1269.05 440.242C1325.15 442.962 1340.06 434.592 1330.43 398.004C1316.04 347.183 1345.74 347.283 1401.17 349.319C1460.12 355.254 1473.78 343.365 1471.27 301.079C1462.05 264.349 1473.63 255.282 1527.8 262.175C1590.14 269.108 1606.74 258.787 1600.16 212.379C1582.6 157.19 1611.69 158.911 1668 165.695" stroke="white"/>
<path opacity="0.836735" d="M1037.64 591.157C1128.14 613.419 1106.87 582.725 1099.58 555.388C1088.95 516.429 1106.64 513.336 1156.63 522.448C1228.5 537.752 1224 522.93 1208.42 492.539C1187.74 446.467 1219.07 448.16 1277.36 452.729C1332.91 458.803 1348.82 451.359 1343.86 414.333C1335.96 362.842 1365.54 364.723 1420.5 370.076C1478.47 379.525 1493.58 368.5 1496.44 326.224C1491.91 289.081 1504.59 280.743 1557.68 290.859C1618.9 301.504 1636.74 292.218 1636.08 245.592C1625.57 189.56 1654.33 193.019 1709.57 203.155" stroke="white"/>
<path opacity="0.857143" d="M1027.3 589.616C1114.63 617.221 1097.33 585.369 1093.53 557.698C1087.87 518.25 1105.88 516.23 1154.53 528.305C1224.19 547.861 1221.59 532.827 1209.92 501.617C1195.15 454.479 1226.14 458.045 1283.64 466.093C1338.2 475.476 1354.99 469.014 1354.74 431.831C1353.4 380.063 1382.62 383.711 1436.7 392.34C1493.25 405.23 1509.7 395.153 1517.9 353.21C1518.09 315.936 1531.78 308.39 1583.39 321.653C1643.03 335.929 1661.98 327.748 1667.22 281.26C1663.85 224.81 1692.06 229.981 1745.81 243.392" stroke="white"/>
<path opacity="0.877551" d="M1016.76 587.887C1100.26 620.625 1087.07 587.857 1086.79 560.064C1086.14 520.426 1104.34 519.494 1151.28 534.441C1218.19 558.101 1217.51 542.967 1209.83 511.176C1201.09 463.332 1231.51 468.743 1287.77 480.209C1340.94 492.829 1358.48 487.399 1362.94 450.342C1368.16 398.691 1396.81 404.078 1449.59 415.917C1504.29 432.15 1521.96 423.098 1535.44 381.806C1540.35 344.686 1554.94 337.99 1604.68 354.297C1662.28 372.096 1682.19 365.083 1693.3 319.086C1697.09 262.648 1724.54 269.492 1776.38 286.075" stroke="white"/>
<path opacity="0.897959" d="M1006.05 585.959C1085.1 623.581 1076.1 590.146 1079.34 562.442C1083.72 522.917 1101.97 523.079 1146.83 540.785C1210.49 568.368 1211.73 553.251 1208.11 521.121C1205.46 472.934 1235.08 480.15 1289.67 494.946C1341.04 510.706 1359.21 506.349 1368.34 469.701C1380.08 418.559 1407.94 425.644 1459.01 440.604C1511.46 460.056 1530.2 452.098 1548.86 411.772C1558.45 375.087 1573.84 369.292 1621.32 388.52C1676.45 409.707 1697.17 403.915 1714.06 358.758C1724.99 302.763 1751.47 311.227 1801.01 330.857" stroke="white"/>
<path opacity="0.918367" d="M995.21 583.823C1069.19 626.043 1064.46 592.195 1071.19 564.791C1080.56 525.679 1098.72 526.935 1141.17 547.264C1201.1 578.561 1204.24 563.575 1204.7 531.35C1208.17 483.187 1236.77 492.153 1289.27 510.167C1338.45 528.948 1357.1 525.698 1370.84 489.737C1389.01 439.494 1415.87 448.222 1464.86 466.189C1514.64 488.712 1534.32 481.909 1558.01 442.855C1572.21 406.886 1588.28 402.036 1633.14 424.038C1685.38 448.451 1706.75 443.923 1729.3 399.952C1747.27 344.825 1772.58 354.846 1819.45 377.372" stroke="white"/>
<path opacity="0.938776" d="M984.251 581.471C1052.6 627.967 1052.18 593.965 1062.36 567.069C1076.64 528.668 1094.57 531.008 1134.28 553.805C1190.02 588.577 1195.05 573.838 1199.59 541.763C1209.14 493.991 1236.5 504.638 1286.52 525.733C1333.13 547.392 1352.12 545.272 1370.37 510.273C1394.83 461.31 1420.48 471.617 1467.01 492.453C1513.75 517.876 1534.21 512.279 1562.76 474.796C1581.47 439.815 1598.08 435.947 1639.99 460.556C1688.93 488.009 1710.81 484.781 1738.83 442.329C1763.72 388.49 1787.66 399.99 1831.5 425.242" stroke="white"/>
<path opacity="0.959184" d="M973.205 578.897C1035.4 629.316 1039.29 595.418 1052.84 569.234C1071.93 531.836 1089.5 535.243 1126.17 560.336C1177.29 598.318 1184.17 583.937 1192.76 552.256C1208.32 505.239 1234.22 517.485 1281.39 541.501C1325.08 565.873 1344.26 564.901 1366.87 531.128C1397.44 483.82 1421.69 495.625 1465.4 519.173C1508.74 547.303 1529.84 542.955 1563.03 507.326C1586.09 473.6 1603.13 470.743 1641.76 497.772C1687.04 528.056 1709.24 526.153 1742.54 485.543C1774.15 433.402 1796.54 446.294 1837.02 474.079" stroke="white"/>
<path opacity="0.979592" d="M962.101 576.097C1017.68 630.054 1025.84 596.518 1042.66 571.247C1066.41 535.137 1083.48 539.584 1116.84 566.781C1162.95 607.685 1171.63 593.771 1184.19 562.726C1205.65 516.821 1229.9 530.574 1273.85 557.328C1314.28 584.227 1333.52 584.409 1360.32 552.121C1396.77 506.826 1419.43 520.041 1459.99 546.121C1499.6 576.743 1521.17 573.677 1558.74 540.175C1585.99 507.96 1603.33 506.136 1638.39 535.38C1679.66 568.264 1702.02 567.699 1740.33 529.242C1778.42 479.195 1799.1 493.381 1835.9 523.488" stroke="white"/>
<path d="M950.969 573.068C999.501 630.153 1011.88 597.235 1031.83 573.068C1060.07 538.52 1076.51 543.974 1106.3 573.068C1147.06 616.583 1157.46 603.241 1173.91 573.068C1201.1 528.625 1223.52 543.781 1263.91 573.068C1300.78 602.29 1319.92 603.626 1350.71 573.068C1392.75 530.131 1413.65 544.655 1450.76 573.068C1486.34 605.95 1508.21 604.189 1549.89 573.068C1581.11 542.61 1598.62 541.833 1629.84 573.068C1666.79 608.303 1689.13 609.081 1732.17 573.068C1776.46 525.496 1795.26 540.869 1828.11 573.068" stroke="white"/>
</g>
<g opacity="0.1">
<path opacity="0.01" d="M479.378 684.173C383.688 690.317 421.809 711.951 445.205 734.606C478.768 766.822 464.639 774.768 413.734 781.05C339.2 788.082 352.374 800.209 385.16 823.22C432.2 858.961 402.765 866.538 347.125 879.352C293.056 890 283.209 901.374 310.442 933.489C349.219 977.858 321.259 984.755 268.159 995.889C209.816 1004.19 202.891 1018.57 226.263 1057.72C253.181 1090.06 246.806 1101.31 192.476 1107.58C130.454 1115.74 119.989 1129.34 149.228 1171.41C193.162 1219.13 164.972 1224.36 108.683 1231.24" stroke="white"/>
<path opacity="0.0204082" d="M473.836 678.694C377.731 679.075 412.968 702.912 433.405 726.885C462.76 760.991 447.678 768.06 396.173 771.265C321.031 773.8 332.619 786.67 362.366 811.56C404.7 849.986 374.418 855.769 317.367 865.197C262.155 872.562 250.905 883.302 273.967 916.928C306.977 963.454 278.25 968.648 223.943 976.554C164.77 981.321 156.05 995.238 174.375 1035.64C197.094 1069.47 189.319 1080.29 134.401 1083.28C71.5826 1087.69 59.434 1100.61 83.235 1144.27C120.958 1194.45 92.2116 1197.97 35.2664 1201.45" stroke="white"/>
<path opacity="0.0408163" d="M468.583 673.329C372.795 667.944 404.879 693.805 422.202 718.912C447.126 754.649 431.207 760.786 379.491 760.889C304.315 758.908 314.228 772.424 340.71 799.004C378.016 839.823 347.117 843.767 289.089 849.737C233.155 853.763 220.587 863.787 239.302 898.668C266.295 946.998 237.019 950.449 181.917 955.068C122.366 956.267 111.916 969.608 125.055 1010.95C143.402 1046.02 134.287 1056.34 79.1993 1056.02C16.0615 1056.64 2.32221 1068.79 20.5036 1113.71C51.7274 1165.96 22.6452 1167.74 -34.5237 1167.79" stroke="white"/>
<path opacity="0.0612245" d="M463.603 668.095C368.862 656.986 397.548 684.673 411.626 710.723C431.929 747.819 415.293 752.978 363.761 749.979C289.121 743.496 297.286 757.556 320.3 785.623C352.295 828.524 321.013 830.6 262.45 833.067C206.219 833.722 192.429 842.955 206.656 878.826C227.425 928.59 197.824 930.272 142.346 931.569C82.8698 929.192 70.7702 941.855 78.6234 983.83C92.4592 1019.87 82.072 1029.59 27.2341 1025.98C-35.7422 1022.81 -50.9675 1034.09 -38.5441 1079.92C-14.0568 1133.85 -43.2539 1133.88 -100.211 1130.5" stroke="white"/>
<path opacity="0.0816327" d="M458.878 663.01C365.905 646.261 390.976 675.562 401.701 702.358C417.229 740.53 400.002 744.672 349.046 738.594C275.512 727.659 281.864 742.155 301.236 771.495C327.676 816.152 296.251 816.344 237.598 815.289C181.498 812.569 166.591 820.94 176.221 857.527C190.608 908.348 160.907 908.248 105.476 906.212C46.5271 900.277 32.8698 912.166 35.3771 954.453C44.5962 991.182 33.0166 1000.25 -21.1544 993.356C-83.4899 986.423 -100.086 996.744 -93.5146 1043.15C-75.95 1098.34 -105.04 1096.62 -161.352 1089.84" stroke="white"/>
<path opacity="0.102041" d="M454.39 658.087C363.892 635.825 385.156 666.519 392.447 693.856C403.081 732.814 385.396 735.907 335.403 726.796C263.534 711.492 268.026 726.314 283.609 756.704C304.292 802.777 272.962 801.084 214.666 796.515C159.124 790.44 143.214 797.885 148.173 834.911C156.069 886.401 126.493 884.52 71.5317 879.167C13.5587 869.719 -1.55237 880.744 -4.41009 923.02C0.122152 960.163 -12.5617 968.501 -65.6535 958.384C-126.874 947.739 -144.713 957.025 -144.045 1003.65C-133.537 1059.68 -162.298 1056.22 -217.537 1046.09" stroke="white"/>
<path opacity="0.122449" d="M450.117 653.34C362.782 625.735 380.078 657.587 383.879 685.257C389.539 724.705 371.529 726.726 322.881 714.65C253.223 695.094 255.821 710.129 267.495 741.339C282.265 788.477 251.269 784.911 193.773 776.863C139.212 767.48 122.42 773.942 122.671 811.124C124.016 862.892 94.7903 859.245 40.7157 850.616C-15.8401 837.726 -32.2899 847.803 -40.4909 889.746C-40.68 927.02 -54.3716 934.565 -105.98 921.303C-165.619 907.027 -184.567 915.208 -189.806 961.696C-186.435 1018.15 -214.648 1012.97 -268.393 999.564" stroke="white"/>
<path opacity="0.142857" d="M446.035 648.781C362.529 616.043 375.725 648.811 376.007 676.604C376.649 716.242 358.452 717.174 311.518 702.227C244.602 678.567 245.286 693.701 252.964 725.492C261.707 773.336 231.28 767.925 175.023 756.459C121.857 743.839 104.311 749.269 99.8518 786.326C94.6353 837.977 65.9832 832.591 13.2071 820.751C-41.5011 804.519 -59.1644 813.57 -72.6463 854.862C-77.5552 891.982 -92.1504 898.678 -141.883 882.371C-199.487 864.572 -219.399 871.585 -230.506 917.582C-234.296 974.02 -261.747 967.176 -313.59 950.593" stroke="white"/>
<path opacity="0.163265" d="M442.12 644.421C363.078 606.799 372.074 640.234 368.834 667.939C364.454 707.464 346.208 707.301 301.346 689.596C237.681 662.013 236.446 677.129 240.068 709.26C242.719 757.447 213.093 750.231 158.502 735.434C107.137 719.674 88.9693 724.031 79.8342 760.679C68.096 811.821 40.2351 804.736 -10.8406 789.777C-63.2848 770.325 -82.0273 778.282 -100.687 818.608C-110.279 855.293 -125.667 861.088 -173.145 841.86C-228.275 820.674 -248.999 826.466 -265.89 871.622C-276.813 927.617 -303.293 919.153 -352.838 899.524" stroke="white"/>
<path opacity="0.183673" d="M438.346 640.27C364.369 598.05 369.096 631.897 362.361 659.302C352.991 698.414 334.835 697.157 292.386 676.829C232.457 645.532 229.312 660.517 228.851 692.743C225.389 740.905 196.79 731.94 144.281 713.925C95.1069 695.144 76.4567 698.395 62.715 734.356C44.5444 784.599 17.6868 775.87 -31.2999 757.904C-81.081 735.38 -100.76 742.184 -124.456 781.237C-138.657 817.207 -154.72 822.057 -199.582 800.054C-251.82 775.642 -273.199 780.169 -295.744 824.14C-313.718 879.267 -339.025 869.247 -385.895 846.721" stroke="white"/>
<path opacity="0.204082" d="M434.686 636.334C366.338 589.838 366.76 623.84 356.58 650.736C342.293 689.137 324.365 686.797 284.652 663.999C228.914 629.227 223.884 643.967 219.343 676.042C209.794 723.814 182.44 713.167 132.411 692.072C85.8033 670.413 66.8124 672.533 48.5687 707.532C24.104 756.495 -1.54588 746.188 -48.0708 725.352C-94.8099 699.928 -115.276 705.525 -143.828 743.009C-162.53 777.99 -179.146 781.858 -221.051 757.249C-269.998 729.796 -291.869 733.024 -319.897 775.476C-344.784 829.315 -368.726 817.815 -412.565 792.563" stroke="white"/>
<path opacity="0.22449" d="M431.112 632.62C368.913 582.201 365.028 616.1 351.48 642.283C332.383 679.681 314.82 676.274 278.145 651.182C227.024 613.199 220.146 627.581 211.56 659.261C195.998 706.278 170.095 694.032 122.929 670.016C79.2415 645.644 60.0544 646.617 37.4475 680.389C6.87492 727.698 -17.3721 715.892 -61.0812 692.344C-104.423 664.214 -125.519 668.563 -158.71 704.191C-181.772 737.917 -198.814 740.774 -237.443 713.745C-282.727 683.461 -304.923 685.365 -338.221 725.974C-369.832 778.115 -392.227 765.223 -432.701 737.438" stroke="white"/>
<path opacity="0.244898" d="M427.597 629.132C372.02 575.175 363.856 608.711 347.043 633.982C323.283 670.093 306.219 665.645 272.861 638.449C226.745 597.544 218.071 611.459 205.506 642.504C184.048 688.409 159.795 674.655 115.85 647.902C75.4156 621.002 56.1783 620.82 29.3803 653.108C-7.0675 698.403 -29.7271 685.188 -70.2876 659.109C-109.901 628.486 -131.469 631.552 -169.045 665.055C-196.29 697.269 -213.63 699.093 -248.689 669.85C-289.965 636.965 -312.318 637.53 -350.632 675.988C-388.726 726.035 -409.403 711.848 -446.204 681.742" stroke="white"/>
<path opacity="0.265306" d="M424.11 625.874C375.579 568.788 363.198 601.707 343.249 625.874C315.006 660.421 298.57 654.968 268.784 625.874C228.023 582.359 217.62 595.7 201.171 625.874C173.981 670.317 151.563 655.161 111.173 625.874C74.2989 596.651 55.158 595.316 24.3728 625.874C-17.6729 668.81 -38.5726 654.286 -75.6759 625.874C-111.261 592.991 -133.134 594.753 -174.811 625.874C-206.032 656.332 -223.537 657.108 -254.758 625.874C-291.713 590.638 -314.052 589.86 -357.091 625.874C-401.379 673.445 -420.18 658.073 -453.028 625.874" stroke="white"/>
<path opacity="0.285714" d="M420.624 622.845C379.507 563.065 363.004 595.117 340.071 617.995C307.56 650.717 291.876 644.298 265.888 613.528C230.794 567.734 218.741 580.401 198.533 609.473C165.818 652.116 145.404 635.673 108.877 604.075C75.8446 572.752 56.9456 570.274 22.4075 598.869C-24.916 639.12 -43.8968 623.398 -77.2604 592.868C-108.545 557.977 -130.559 558.419 -176.018 586.922C-210.978 615.392 -228.515 615.116 -255.661 582.127C-288.013 544.809 -310.169 542.695 -357.605 575.989C-407.749 620.724 -424.532 604.282 -453.177 570.235" stroke="white"/>
<path opacity="0.306122" d="M417.109 620.044C383.719 558.027 363.22 588.966 337.476 610.382C300.945 641.029 286.134 633.694 264.142 601.483C234.98 553.758 221.369 565.654 197.556 593.403C159.565 633.922 141.311 616.317 108.925 582.648C79.9852 549.464 61.472 545.861 23.4438 572.276C-28.7974 609.536 -45.7147 592.735 -75.0849 560.32C-101.832 523.685 -123.817 522.805 -172.714 548.473C-211.146 574.738 -228.581 573.411 -251.447 538.92C-278.949 499.803 -300.753 496.368 -352.225 526.691C-407.844 568.248 -422.48 550.862 -446.704 515.226" stroke="white"/>
<path opacity="0.326531" d="M413.535 617.471C388.127 553.686 363.788 583.278 335.429 603.068C295.155 631.408 281.33 623.213 263.501 589.805C240.495 540.513 225.429 551.547 198.192 577.762C155.214 615.848 139.259 597.216 111.261 561.732C86.6335 526.938 68.6469 522.239 27.4182 546.272C-29.3431 580.257 -44.0683 562.506 -69.2214 528.452C-91.2269 490.353 -113.017 488.158 -164.978 510.795C-206.591 534.654 -223.792 532.287 -242.202 496.556C-264.645 455.939 -285.931 451.209 -341.048 478.329C-401.718 516.392 -414.097 498.194 -433.716 461.241" stroke="white"/>
<path opacity="0.346939" d="M409.875 615.119C392.642 550.053 364.647 578.073 333.891 596.086C290.181 621.903 277.446 612.91 263.916 578.559C247.24 528.075 230.834 538.163 200.381 562.645C152.743 598.009 139.209 578.49 115.81 541.463C95.6834 505.324 78.3604 499.564 34.2448 521.033C-26.6046 551.484 -39.0256 532.917 -59.7702 497.484C-76.8666 458.21 -98.2962 454.716 -152.927 474.151C-197.403 495.423 -214.238 492.033 -228.053 455.334C-245.267 413.525 -265.872 407.536 -324.214 431.248C-389.474 465.527 -399.501 446.656 -414.365 408.667" stroke="white"/>
<path opacity="0.367347" d="M406.101 612.982C397.174 547.131 365.737 573.365 332.816 589.465C286.003 612.562 274.456 602.839 265.328 567.808C255.109 516.516 237.488 525.582 204.05 548.144C152.114 580.515 141.103 560.259 122.484 521.969C107.01 484.761 90.4826 477.984 43.8159 496.725C-20.6585 523.41 -30.6807 504.169 -46.859 467.627C-58.9163 427.477 -79.8219 422.711 -136.706 438.795C-183.707 457.319 -200.048 452.932 -209.163 415.544C-221.016 372.862 -240.785 365.66 -301.908 385.782C-371.261 416.016 -378.86 396.616 -388.856 357.88" stroke="white"/>
<path opacity="0.387755" d="M402.186 611.055C401.632 544.918 366.993 569.167 332.158 583.231C282.598 603.433 272.326 593.054 267.669 557.609C263.986 505.899 245.284 513.873 209.115 534.344C153.277 563.477 144.874 542.638 131.174 503.377C120.472 465.382 104.866 457.639 56.0033 473.51C-11.6055 496.227 -19.1527 476.458 -30.6414 439.085C-37.5679 398.364 -57.7904 392.362 -116.495 404.974C-165.663 420.608 -181.387 415.258 -185.731 377.465C-192.134 334.234 -210.916 325.874 -274.354 342.253C-347.272 368.213 -352.385 348.431 -357.438 309.243" stroke="white"/>
<path opacity="0.408163" d="M398.104 609.326C405.929 543.408 368.35 565.486 331.867 577.408C279.937 594.56 271.018 583.605 270.868 548.015C273.747 496.281 254.106 503.103 215.483 521.327C156.168 547 150.436 525.736 141.761 485.803C135.911 447.31 121.345 438.661 70.6582 451.541C0.429716 470.117 -4.58501 449.97 -11.2968 412.05C-13.0397 371.068 -32.4252 363.877 -92.5034 372.919C-143.465 385.545 -158.451 379.272 -157.993 341.362C-158.896 297.913 -176.547 288.458 -241.819 300.97C-317.747 322.457 -320.335 302.443 -320.406 263.101" stroke="white"/>
<path opacity="0.428571" d="M393.831 607.785C409.974 542.587 369.742 562.328 331.887 572.016C277.983 585.988 270.486 574.539 274.843 539.076C284.264 487.712 263.834 493.33 223.049 509.168C160.708 531.186 157.691 509.659 154.107 469.357C153.154 430.66 139.739 421.171 87.6138 430.961C15.3 445.254 12.8558 424.883 10.972 386.705C14.426 345.775 -3.97497 337.448 -64.9697 342.852C-117.336 352.374 -131.471 345.226 -126.213 307.488C-121.61 264.149 -137.997 253.671 -204.605 262.221C-282.965 279.072 -283.009 258.98 -278.097 219.783" stroke="white"/>
<path opacity="0.44898" d="M389.342 606.42C413.681 542.439 371.103 559.691 332.165 567.072C276.696 577.758 270.677 565.903 279.51 530.836C295.4 480.232 274.336 484.604 231.7 497.935C166.808 516.13 166.529 494.504 168.062 454.141C172.015 415.534 159.852 405.276 106.685 411.903C32.8365 421.804 32.9816 401.364 35.9401 363.218C44.5646 322.651 27.2883 313.252 -34.1589 314.978C-87.5317 321.322 -100.708 313.353 -90.6903 276.074C-80.6163 233.177 -95.6136 221.756 -163.051 226.278C-243.247 238.365 -240.746 218.346 -230.888 179.594" stroke="white"/>
<path opacity="0.469388" d="M384.618 605.218C416.968 542.94 372.366 557.573 332.642 562.59C276.031 569.908 271.536 557.738 284.776 523.334C307.015 473.875 285.477 476.967 241.316 487.691C174.366 501.924 176.827 480.364 183.466 440.246C192.293 402.023 181.476 391.075 127.672 394.488C52.8503 399.921 55.5836 379.568 63.3619 341.745C77.0914 301.849 61.071 291.45 -0.360778 289.484C-54.334 292.603 -66.4504 283.874 -51.7501 247.338C-36.2815 205.207 -49.7753 192.931 -117.528 193.391C-198.951 200.622 -193.924 180.829 -179.196 142.815" stroke="white"/>
<path opacity="0.489796" d="M379.639 604.163C419.752 544.062 373.467 555.965 333.258 558.58C275.936 562.475 273 550.081 290.547 516.603C318.964 468.666 297.117 470.454 251.766 478.488C183.268 488.652 188.45 467.321 200.145 427.755C213.779 390.207 204.389 378.651 150.358 378.824C75.1332 379.749 80.4338 359.637 92.9728 322.424C111.703 283.504 97.0603 272.184 36.1113 266.54C-18.0515 266.41 -29.0164 256.988 -9.7447 221.472C11.0007 180.43 -0.886928 167.391 -68.4404 163.785C-150.469 166.106 -142.954 146.69 -123.468 109.704" stroke="white"/>
<path opacity="0.510204" d="M374.385 603.241C421.958 545.774 374.341 554.855 333.954 555.049C276.357 555.491 275.002 542.968 296.722 510.67C331.102 464.62 309.112 465.091 262.915 470.374C193.391 476.391 201.255 455.452 217.916 416.737C236.254 380.15 228.364 368.075 174.516 365.006C99.4602 361.417 107.288 341.699 124.492 305.38C148.08 267.731 134.927 255.576 74.9244 246.298C20.9842 242.92 11.2543 232.876 34.9507 198.651C60.815 159.009 50.624 145.307 -16.2158 137.663C-98.2259 135.055 -88.2811 116.163 -64.1843 80.4869" stroke="white"/>
<path opacity="0.530612" d="M368.843 602.433C423.512 548.038 374.927 554.229 334.669 552C277.235 548.985 277.471 536.429 303.199 505.556C343.28 461.743 321.314 460.894 274.624 463.386C204.603 465.21 215.088 444.823 236.589 407.254C259.491 371.906 253.16 359.404 199.906 353.117C125.59 345.039 135.885 325.866 157.624 290.717C185.89 254.626 174.326 241.728 115.727 228.887C62.4203 222.286 53.9996 211.697 81.9402 179.024C112.727 141.084 104.31 126.823 38.6925 115.199C-42.6753 107.682 -30.3757 89.459 -1.85228 55.3635" stroke="white"/>
<path opacity="0.55102" d="M362.998 601.722C424.348 550.813 375.164 554.066 335.341 549.431C278.507 542.983 280.333 530.489 309.873 501.276C355.351 460.035 333.575 457.871 286.748 457.553C216.762 455.171 229.79 435.49 255.967 399.354C283.258 365.514 278.534 352.679 226.279 343.223C153.269 330.718 165.953 312.235 192.061 278.524C224.79 244.266 214.904 230.723 158.154 214.416C105.886 204.643 98.8385 193.589 130.811 162.716C166.285 126.768 159.707 112.055 95.8109 96.5406C15.7049 84.1716 30.2655 66.7557 62.9985 34.5008" stroke="white"/>
<path opacity="0.571429" d="M356.839 601.09C424.403 554.054 374.994 554.345 335.91 547.339C280.109 537.507 283.51 525.169 316.637 497.84C367.165 459.483 345.747 456.021 299.138 452.896C229.72 446.325 245.191 427.5 275.845 393.072C307.318 360.998 304.238 347.929 253.379 335.374C182.231 318.538 197.207 300.886 227.485 268.869C264.428 236.704 256.295 222.62 201.827 202.972C150.995 190.101 145.374 178.666 181.135 149.829C221.027 116.144 216.337 101.093 154.649 81.8053C76.4143 64.6788 93.1251 48.2025 129.819 18.0336" stroke="white"/>
<path opacity="0.591837" d="M350.358 600.517C423.622 557.713 374.364 555.039 336.316 545.715C281.972 532.574 286.923 520.487 323.385 495.249C378.579 460.068 357.68 455.335 311.645 449.426C243.323 438.717 261.119 420.891 296.017 388.433C331.432 358.368 330.019 345.164 280.944 329.607C212.198 308.568 229.353 291.881 263.571 261.802C304.447 231.976 298.129 217.457 246.356 194.616C197.348 178.746 193.196 167.018 232.473 140.434C276.48 109.271 273.713 93.9961 214.703 71.0814C138.935 49.3277 157.669 33.9164 198.044 6.06308" stroke="white"/>
<path opacity="0.612245" d="M343.548 599.984C421.954 561.737 373.222 556.119 336.5 544.549C284.027 528.198 290.49 516.454 330.01 493.499C389.449 461.762 369.23 455.794 324.117 447.146C257.412 432.38 277.398 415.69 316.273 385.448C355.361 357.622 355.626 344.383 308.708 325.941C242.889 300.859 262.092 285.265 299.988 257.353C344.487 230.091 340.031 215.249 291.348 189.39C244.536 170.641 241.886 158.708 284.38 134.582C332.166 106.176 331.345 90.7936 275.461 64.4269C202.737 38.2114 223.351 23.9824 267.1 -1.34327" stroke="white"/>
<path opacity="0.632653" d="M336.405 599.471C419.357 566.073 371.522 557.553 336.405 543.824C286.203 524.388 294.128 513.077 336.405 492.579C399.637 464.529 380.251 457.37 336.405 446.05C271.824 427.339 293.847 411.911 336.405 384.115C378.869 358.74 380.809 345.567 336.405 324.382C274.013 295.447 295.118 281.065 336.405 255.531C384.187 231.043 381.628 215.99 336.405 187.309C292.146 165.823 291.017 153.777 336.405 132.291C387.606 106.86 388.736 91.4866 336.405 61.8684C267.277 31.3908 289.615 18.4524 336.405 -4.153" stroke="white"/>
<path opacity="0.653061" d="M328.929 598.958C415.795 570.662 369.221 559.306 335.976 543.523C288.426 521.15 297.754 510.357 342.466 492.473C409.01 468.322 390.604 460.027 348.359 446.121C286.393 423.607 310.287 409.559 356.203 384.422C401.719 361.69 405.32 348.684 363.768 324.916C305.278 292.349 328.124 279.287 372.488 256.327C423.189 234.797 422.546 219.648 381.128 188.364C339.758 164.306 340.16 152.238 388.096 133.556C442.323 111.292 445.396 96.0453 397.015 63.401C332.01 28.8933 355.902 17.3439 405.376 -2.36911" stroke="white"/>
<path opacity="0.673469" d="M321.12 598.425C411.239 575.447 366.28 561.34 335.161 543.624C290.626 518.484 301.285 508.291 348.092 493.157C417.441 473.089 400.156 463.722 359.833 447.335C300.954 421.19 326.536 408.628 375.461 386.341C423.682 366.425 428.917 353.685 390.533 327.515C336.39 291.564 360.804 279.922 407.907 259.71C461.142 241.304 462.42 226.174 425.121 192.525C386.956 166.076 388.884 154.078 439.004 138.343C495.844 119.417 500.837 104.412 456.774 68.9898C396.387 30.7145 421.65 20.642 473.433 3.97141" stroke="white"/>
<path opacity="0.693878" d="M312.982 597.852C405.668 580.367 362.667 563.617 333.91 544.102C292.729 516.386 304.638 506.872 353.183 494.603C424.811 478.77 408.777 468.403 370.683 449.659C315.339 420.082 342.415 409.103 393.976 389.835C444.536 372.887 451.365 360.509 416.442 332.137C367.058 293.075 392.853 282.941 442.336 265.632C497.7 250.488 500.889 235.493 467.994 199.734C433.324 171.098 436.764 159.261 488.686 146.591C547.707 131.146 554.581 116.498 515.172 78.568C459.862 36.8165 486.305 28.2976 540.002 14.7963" stroke="white"/>
<path opacity="0.714286" d="M304.522 597.22C399.07 585.36 358.354 566.095 332.178 544.929C294.663 514.849 307.732 506.085 357.647 496.775C431.006 485.299 416.347 474.009 380.771 453.051C329.384 420.268 357.747 410.954 411.553 394.852C464.067 381.001 472.437 369.08 441.24 338.721C396.991 296.846 423.971 288.298 475.459 274.022C532.53 262.257 537.606 247.51 509.365 209.914C478.453 179.307 483.38 167.722 536.709 158.214C597.461 146.368 606.164 132.188 571.708 92.0387C521.897 47.1286 549.318 40.2282 604.521 29.9989" stroke="white"/>
<path opacity="0.734694" d="M295.748 596.509C391.438 590.365 353.317 568.732 329.921 546.076C296.358 513.861 310.488 505.914 361.392 499.632C435.926 492.6 422.752 480.474 389.966 457.462C342.926 421.722 372.361 414.144 428.001 401.331C482.07 390.682 491.917 379.308 464.684 347.194C425.907 302.824 453.867 295.927 506.967 284.794C565.31 276.496 572.235 262.109 548.863 222.963C521.945 190.619 528.32 179.373 582.65 173.1C644.672 164.943 655.137 151.339 625.898 109.276C581.964 61.5488 610.155 56.3193 666.443 49.4399" stroke="white"/>
<path opacity="0.755102" d="M286.671 595.701C382.776 595.32 347.539 571.482 327.102 547.51C297.747 513.404 312.829 506.335 364.335 503.13C439.476 500.595 427.888 487.725 398.141 462.835C355.807 424.408 386.089 418.626 443.14 409.198C498.352 401.833 509.602 391.093 486.54 357.467C453.53 310.94 482.257 305.747 536.564 297.84C595.737 293.074 604.457 279.157 586.132 238.758C563.413 204.922 571.188 194.101 626.106 191.112C688.924 186.705 701.073 173.78 677.272 130.124C639.55 79.9433 668.295 76.4246 725.241 72.9474" stroke="white"/>
<path opacity="0.77551" d="M277.306 594.778C373.093 600.163 341.009 574.302 323.686 549.195C298.762 513.458 314.681 507.321 366.397 507.218C441.574 509.199 431.66 495.683 405.178 469.103C367.872 428.284 398.771 424.339 456.799 418.369C512.733 414.344 525.302 404.32 506.586 369.438C479.593 321.109 508.869 317.658 563.971 313.039C623.522 311.84 633.972 298.499 620.833 257.155C602.486 222.085 611.601 211.772 666.689 212.087C729.827 211.465 743.566 199.318 725.385 154.4C694.161 102.148 723.243 100.367 780.412 100.318" stroke="white"/>
<path opacity="0.795918" d="M267.667 593.724C362.407 604.833 333.721 577.146 319.643 551.096C299.34 514 315.977 508.841 367.509 511.84C442.148 518.323 433.984 504.263 410.969 476.196C378.974 433.295 410.256 431.219 468.819 428.752C525.05 428.097 538.84 418.864 524.613 382.993C503.844 333.229 533.446 331.547 588.923 330.25C648.399 332.627 660.499 319.964 652.646 277.989C638.81 241.952 649.197 232.225 704.035 235.843C767.011 239.011 782.237 227.734 769.813 181.896C745.326 127.97 774.523 127.94 831.481 131.321" stroke="white"/>
<path opacity="0.816327" d="M257.772 592.521C350.745 609.271 325.675 579.969 314.949 553.173C299.422 515.001 316.648 510.859 367.604 516.938C441.138 527.872 434.786 513.377 415.414 484.036C388.974 439.379 420.399 439.187 479.052 440.242C535.152 442.962 550.059 434.592 540.429 398.004C526.042 347.183 555.744 347.283 611.174 349.319C670.123 355.254 683.78 343.365 681.273 301.079C672.054 264.349 683.634 255.282 737.805 262.175C800.14 269.108 816.736 258.787 810.165 212.379C792.6 157.19 821.69 158.911 878.003 165.695" stroke="white"/>
<path opacity="0.836735" d="M247.641 591.157C338.139 613.419 316.875 582.725 309.584 555.388C298.95 516.429 316.636 513.336 366.628 522.448C438.497 537.752 434.005 522.93 418.422 492.539C397.739 446.467 429.069 448.16 487.365 452.729C542.907 458.803 558.817 451.359 553.858 414.333C545.962 362.842 575.538 364.723 630.499 370.076C688.472 379.525 703.583 368.5 706.441 326.224C701.909 289.081 714.593 280.743 767.685 290.859C828.905 301.504 846.744 292.218 846.076 245.592C835.568 189.56 864.329 193.019 919.568 203.155" stroke="white"/>
<path opacity="0.857143" d="M237.295 589.616C324.63 617.221 307.334 585.369 303.533 557.698C297.873 518.25 315.883 516.23 364.532 528.305C434.189 547.861 431.591 532.827 419.917 501.617C405.147 454.479 436.143 458.045 493.639 466.093C548.2 475.476 564.993 469.014 564.741 431.831C563.397 380.063 592.622 383.711 646.696 392.34C703.252 405.23 719.702 395.153 727.903 353.21C728.092 315.936 741.784 308.39 793.392 321.653C853.031 335.929 871.979 327.748 877.218 281.26C873.847 224.81 902.06 229.981 955.806 243.392" stroke="white"/>
<path opacity="0.877551" d="M226.758 587.887C310.264 620.625 297.068 587.857 296.786 560.064C296.144 520.426 314.341 519.494 361.275 534.441C428.191 558.101 427.507 542.967 419.83 511.176C411.086 463.332 441.513 468.743 497.77 480.209C550.936 492.829 568.483 487.399 572.941 450.342C578.158 398.691 606.81 404.078 659.586 415.917C714.294 432.15 731.958 423.098 745.44 381.806C750.349 344.686 764.944 337.99 814.676 354.297C872.28 372.096 892.192 365.083 903.299 319.086C907.089 262.648 934.541 269.492 986.383 286.075" stroke="white"/>
<path opacity="0.897959" d="M216.055 585.959C295.097 623.581 286.101 590.146 289.34 562.442C293.72 522.917 311.966 523.079 356.828 540.785C420.493 568.368 421.728 553.251 418.106 521.121C415.455 472.934 445.081 480.15 499.672 494.946C551.038 510.706 569.205 506.349 578.34 469.701C590.078 418.559 617.939 425.644 669.015 440.604C721.459 460.056 740.202 452.098 758.862 411.772C768.453 375.087 783.841 369.292 831.319 388.52C886.45 409.707 907.174 403.915 924.064 358.758C934.987 302.763 961.468 311.227 1011.01 330.857" stroke="white"/>
<path opacity="0.918367" d="M205.21 583.823C279.186 626.043 274.459 592.195 281.194 564.791C290.564 525.679 308.72 526.935 351.169 547.264C411.098 578.561 414.243 563.575 414.704 531.35C418.166 483.187 446.765 492.153 499.275 510.167C548.448 528.948 567.099 525.698 580.84 489.737C599.011 439.494 625.868 448.222 674.855 466.189C724.636 488.712 744.315 481.909 768.012 442.855C782.213 406.886 798.276 402.036 843.138 424.038C895.375 448.451 916.754 443.923 939.299 399.952C957.273 344.825 982.58 354.846 1029.45 377.372" stroke="white"/>
<path opacity="0.938776" d="M194.251 581.471C262.598 627.967 262.176 593.965 272.356 567.069C286.644 528.668 304.572 531.008 344.285 553.805C400.022 588.577 405.053 573.838 409.594 541.763C419.142 493.991 446.497 504.638 496.525 525.733C543.133 547.392 562.124 545.272 580.368 510.273C604.832 461.31 630.482 471.617 677.007 492.453C723.746 517.876 744.212 512.279 772.764 474.796C791.467 439.815 808.083 435.947 849.988 460.556C898.935 488.009 920.806 484.781 948.834 442.329C973.72 388.49 997.663 399.99 1041.5 425.242" stroke="white"/>
<path opacity="0.959184" d="M183.205 578.897C245.404 629.316 249.29 595.418 262.838 569.234C281.934 531.836 299.497 535.243 336.172 560.336C387.294 598.318 394.172 583.937 402.757 552.256C418.32 505.239 444.222 517.485 491.388 541.501C535.076 565.873 554.263 564.901 576.87 531.128C607.442 483.82 631.689 495.625 675.398 519.173C718.74 547.303 739.837 542.955 773.027 507.326C796.089 473.6 813.132 470.743 851.76 497.772C897.044 528.056 919.241 526.153 952.539 485.543C984.149 433.402 1006.54 446.294 1047.02 474.079" stroke="white"/>
<path opacity="0.979592" d="M172.101 576.097C227.678 630.054 235.842 596.518 252.655 571.247C276.415 535.137 293.48 539.584 326.837 566.781C372.954 607.685 381.627 593.771 394.193 562.726C415.65 516.821 439.903 530.574 483.848 557.328C524.283 584.227 543.52 584.409 570.318 552.121C606.766 506.826 629.425 520.041 669.986 546.121C709.6 576.743 731.167 573.677 768.744 540.175C795.989 507.96 813.329 506.136 848.387 535.38C889.663 568.264 912.016 567.699 950.33 529.242C988.425 479.195 1009.1 493.381 1045.9 523.488" stroke="white"/>
<path d="M160.969 573.068C209.501 630.153 221.881 597.235 241.83 573.068C270.073 538.52 286.51 543.974 316.296 573.068C357.056 616.583 367.459 603.241 383.908 573.068C411.098 528.625 433.517 543.781 473.906 573.068C510.78 602.29 529.921 603.626 560.707 573.068C602.752 530.131 623.652 544.655 660.755 573.068C696.34 605.95 718.213 604.189 759.89 573.068C791.112 542.61 808.616 541.833 839.838 573.068C876.792 608.303 899.132 609.081 942.171 573.068C986.458 525.496 1005.26 540.869 1038.11 573.068" stroke="white"/>
</g>
</svg>
