<svg width="132" height="150" viewBox="0 0 132 150" fill="none" xmlns="http://www.w3.org/2000/svg">
<path d="M130.76 67.5957C129.808 63.5923 127.868 59.917 126.265 56.1459C125.227 53.7943 123.529 48.8487 122.076 45.3662C120.729 41.9763 120.043 40.3114 118.7 37.2033C117.751 35.2562 117.147 32.9213 115.254 31.6574C113.436 30.5131 111.137 30.4732 109.015 30.2544C109.038 30.1138 109.038 29.9705 109.015 29.8299C108.909 27.2064 108.826 24.5758 108.875 21.9491C108.875 21.5644 108.875 21.1794 108.902 20.7948C109.826 21.1358 110.863 20.9562 111.618 20.3237C112.647 19.5476 113.207 18.3336 113.651 17.1526C114.107 15.9353 114.41 14.6665 114.553 13.3748C115.084 9.88557 114.587 5.97153 112.109 3.2982C108.892 0.332793 104.012 0.269512 99.8764 0.273027C96.5295 0.273027 93.173 0.428886 89.8329 0.10047C87.4912 -0.0685722 85.0001 -0.131853 82.8011 0.810329C81.7663 1.28464 81.0034 2.19343 80.4228 3.14879C80.1711 3.58707 79.9558 4.04527 79.7794 4.51871C79.5931 4.84917 79.514 5.22944 79.5538 5.60679V5.67973C78.9216 7.75013 78.6667 9.91721 78.8009 12.0781C78.9667 14.1412 79.4047 16.2772 80.8241 17.8628C82.0347 19.3156 84.0515 20.3802 85.942 19.9789C85.7 22.3238 85.6104 24.6854 85.5239 27.0405C85.4973 28.0721 85.5239 29.1004 85.5802 30.1284C81.7725 30.2014 77.9513 30.2014 74.1504 30.1882C67.2612 30.0985 60.3786 30.47 53.4894 30.427C46.9188 30.427 40.3513 30.2512 33.7839 30.2081C30.6327 30.228 27.4819 30.4038 24.3342 30.5166C21.8566 30.6062 19.3588 30.5928 16.8979 30.7255C14.8878 30.8415 12.7617 30.9909 11.0435 32.1385C10.8047 32.1968 10.5888 32.3251 10.4233 32.5067C9.42808 33.734 9.09644 35.3558 8.50611 36.7955C6.98034 40.8188 5.77624 44.9584 4.549 49.0679C3.26551 53.3566 2.45605 57.7646 1.69638 62.1729C1.36474 64.2292 0.960156 66.2926 0.913574 68.3852C0.95459 69.379 1.06533 70.3689 1.24521 71.3471C1.26836 71.4201 1.29824 71.4798 1.3249 71.546C1.36797 71.6952 1.41777 71.8478 1.46435 71.9972C1.69668 72.7326 2.00224 73.4424 2.37636 74.1168C3.07714 75.2931 4.09285 76.2499 5.30837 76.8798C5.90427 77.1713 6.55319 77.3392 7.21559 77.374C7.50094 82.3492 7.23229 87.3645 7.28854 92.3564C7.33834 98.2936 7.66676 104.224 7.6401 110.161C7.74615 118.785 6.97682 137.28 12.6156 143.775C13.5448 144.923 14.7144 145.854 16.0418 146.501C16.3371 146.627 16.6289 146.757 16.9307 146.866C17.2257 146.946 17.5386 146.928 17.823 146.816C22.6491 148.501 27.8466 148.753 32.9381 148.952C39.3066 149.158 45.6748 149.42 52.0434 149.655C59.7153 150.066 67.4004 149.874 75.0791 149.854C78.595 149.854 82.1076 149.99 85.6235 150C89.2721 149.96 92.8941 149.814 96.5295 149.705C100.762 149.502 105.024 149.658 109.226 149.068C111.451 148.783 113.549 147.873 115.276 146.444C115.754 146.016 116.391 145.612 116.713 145.044C116.902 144.865 117.087 144.68 117.263 144.487C118.215 143.492 118.726 142.182 119.253 140.922C120.792 136.905 120.437 132.46 120.52 128.235C120.52 122.334 120.52 116.433 120.537 110.529C120.716 100.449 120.932 90.3759 120.152 80.309C120.066 78.9821 120.012 77.6444 119.99 76.2956C119.924 75.6622 120.059 74.9688 119.821 74.3884H120.832C123.635 74.3087 126.574 73.7251 128.833 71.977C129.872 71.0999 130.646 69.9517 131.072 68.66C131.128 68.2768 131.014 67.8881 130.76 67.5957ZM85.2954 17.2487C85.1718 17.2569 85.0476 17.2569 84.9239 17.2487C84.7279 17.2077 84.5352 17.1535 84.3468 17.0861C83.8411 16.8488 83.3894 16.5101 83.0199 16.0909C82.894 15.9219 82.8573 15.8885 82.8808 15.9283C81.8062 14.4922 81.8094 13.424 81.6137 11.9481C81.5938 9.84192 81.6137 9.00608 81.9453 7.56966C82.078 7.0057 82.2571 6.45199 82.4428 5.91118C82.5843 5.59858 82.6567 5.25933 82.6552 4.91597C83.2224 3.84137 83.4014 3.75846 83.9155 3.3902C84.6884 3.02545 85.5939 2.88278 87.2325 2.81627C88.8213 2.79635 90.4036 2.99528 91.9888 3.07819C94.4799 3.19772 96.9643 3.07819 99.4683 3.09811C104.327 2.93551 108.676 3.59234 110.281 5.49634C111.727 7.66898 111.986 8.99553 111.86 11.8449C111.837 13.417 111.197 16.1006 110.503 17.2947C110.431 17.4342 110.258 17.6861 110.172 17.8089L110.139 17.8487C110.06 17.9386 109.976 18.0239 109.887 18.1042L109.814 18.144H109.741L109.655 18.1241C108.693 17.6067 108.457 17.1722 107.17 16.114C105.956 15.0427 104.202 14.4723 102.63 15.0227C101.303 15.4672 100.461 16.6382 99.6678 17.7195C99.1006 18.5621 98.394 19.1392 98.142 19.2054L98.0324 19.2286H97.83H97.777L97.651 19.1656C97.2426 18.8978 96.9022 18.5392 96.6558 18.1174C95.5015 16.1571 93.9426 13.8617 91.4117 13.8652C89.8926 13.9118 88.589 14.8139 87.4745 15.7724C86.2508 16.9402 85.531 17.2487 85.2954 17.2487ZM4.56248 62.0267C5.57732 55.4891 7.32867 49.1141 9.39526 42.8353C10.2012 40.152 11.1964 37.5481 12.1913 34.9378L12.3041 34.7054C12.5725 34.486 12.8693 34.3041 13.1866 34.1649C15.034 33.5016 15.777 33.6344 18.1055 33.5016C23.2268 33.4187 28.3447 33.1369 33.4692 33.0405C40.1463 33.0637 46.823 33.2629 53.5 33.2561C59.5999 33.3124 65.6927 32.9775 71.7893 33.0141C76.5823 33.0141 81.3717 33.054 86.1614 32.9512C89.1468 32.8782 92.1517 32.6195 95.1502 32.5929C99.6977 32.5929 104.255 32.6526 108.786 33.044C111.476 33.3525 113.141 33.3757 114.076 34.3243C114.909 35.1335 116.919 40.2416 117.393 41.2899C118.743 44.4973 121.042 50.3815 122.7 54.8062C123.695 57.3867 124.879 59.8842 125.977 62.4351C126.06 62.6108 126.16 62.8297 126.266 63.0983C124.837 63.7071 123.326 64.1006 121.782 64.2658C118.494 64.6505 116.106 64.3587 113.085 63.5727C109.463 62.7635 106.06 60.8958 102.295 60.8463C98.1921 60.8463 94.3047 62.4717 90.7921 64.475C88.9478 65.5065 87.243 66.7636 85.3789 67.7621C83.2297 68.8335 81.7303 69.5931 79.4783 69.5334C74.042 69.3939 68.7847 64.7372 62.5357 64.2263C59.6037 63.9743 56.8172 65.1517 54.2799 66.4918C50.8899 68.2364 47.7555 70.472 44.2794 72.0309C43.2611 72.5451 39.5196 73.6695 38.2493 73.7257C35.5095 73.8552 33.5428 73.8286 31.0883 73.0457C28.6968 72.1039 25.1909 70.0604 22.6204 68.1898C21.6618 67.4931 19.9371 65.9577 18.4477 65.0223C17.446 64.3974 16.3371 63.9632 15.1773 63.742C12.0264 63.2779 8.80845 63.7077 5.88991 64.9824C5.27234 65.225 4.66883 65.5018 4.08231 65.8115C4.02254 65.8513 3.97274 65.8976 3.91649 65.941C4.07498 64.7896 4.31726 63.539 4.56248 62.0267ZM69.2417 124.085C67.7889 123.687 66.356 122.583 66.1105 121.024C65.603 118.51 67.1054 116.782 69.162 116.112C69.7037 115.797 70.3406 115.687 70.9564 115.803H71.5834C71.8145 115.806 72.0416 115.863 72.2467 115.969C72.5244 116.07 72.7799 116.223 72.9996 116.42C73.4525 116.878 73.7932 117.434 73.9948 118.045C74.9314 119.651 74.6683 121.686 73.3547 123.001C72.2669 124.055 70.708 124.466 69.2417 124.085ZM117.701 109.896C117.648 117.389 117.721 124.881 117.658 132.371C117.657 134.148 117.521 135.922 117.254 137.678C116.938 139.327 116.316 140.902 115.419 142.322C114.511 143.283 114.076 143.648 113.562 143.98C113.154 144.275 112.587 144.391 112.295 144.826C112.183 144.952 112.099 145.102 112.049 145.264C111.597 145.53 111.11 145.736 110.603 145.874C107.19 146.885 103.223 146.63 98.8484 146.826C93.1865 146.985 87.5214 147.287 81.8528 147.157C81.8528 146.763 81.7997 146.358 81.8261 145.973C81.8261 145.253 81.8261 144.53 81.8261 143.807C81.8592 140.198 81.8261 136.586 81.793 132.978C81.7531 123.223 81.6735 113.385 79.8826 103.766C79.5046 101.943 78.8551 100.188 77.9554 98.5585C76.2008 95.7492 73.5671 93.404 70.4162 92.3095C67.3184 91.2812 63.9615 91.6462 60.8371 92.3693C59.405 92.7106 58.0196 93.2241 56.7109 93.8983C55.4013 94.6723 54.1627 95.5603 53.0093 96.5517C51.6771 97.6852 50.5123 99.0017 49.5499 100.462C48.9927 101.45 48.5307 102.488 48.17 103.564C47.1751 106.472 46.767 109.534 46.4453 112.579C45.9479 117.362 45.8515 122.175 45.8251 126.981C45.7689 131.259 45.6162 135.535 45.7753 139.814C45.8061 142.09 45.9602 144.364 46.2365 146.623C42.3192 146.471 38.3987 146.318 34.4814 146.195C29.1743 145.956 25.0151 145.943 20.4577 144.716C19.4294 144.421 18.4277 144.053 17.4328 143.648C16.9518 143.502 16.4909 143.17 15.9867 143.197C15.4207 142.75 14.9165 142.23 14.4876 141.651C14.2951 141.379 13.8443 140.742 13.7614 140.56C13.6784 140.377 13.3568 139.807 13.2739 139.648C12.6742 138.091 12.2016 136.488 11.8609 134.855C10.7198 129.418 10.481 122.662 10.4579 116.105C10.4977 109.252 10.3782 102.399 10.1426 95.54C9.95688 89.4006 10.3615 83.2677 10.0199 77.118L10.5903 77.0052C12.4743 76.5408 13.7745 76.2356 14.8324 76.1761C19.5457 75.6388 22.9189 78.5576 27.8246 81.4832C30.1429 82.8871 32.6249 84.001 35.2147 84.8002C39.7191 86.3028 43.9548 85.2976 47.5302 82.256C50.5152 79.9343 55.5669 76.687 57.9185 75.8676C60.8839 74.7432 63.9785 75.3833 66.2537 76.4447C71.8359 79.3237 77.5743 83.2178 84.1282 81.0883C87.2759 79.997 89.9527 77.9108 92.646 76.0103C96.248 73.317 98.5068 71.7546 102.063 71.9041C104.384 71.8709 106.776 72.783 109.867 73.3469C112.303 73.8262 114.769 74.1441 117.247 74.2988C117.149 74.4953 117.098 74.7124 117.101 74.9322C117.171 78.2723 117.397 81.6057 117.596 84.9393C117.788 88.9993 117.889 93.0612 117.897 97.1256C117.904 101.381 117.718 105.637 117.701 109.896ZM127.237 69.589C126.938 69.9081 126.579 70.1641 126.179 70.3419C125.075 70.9003 123.886 71.2704 122.66 71.4365C120.948 71.7948 114.178 71.3703 112.315 70.949C105.86 69.8876 100.861 67.2573 94.6554 71.1746C85.4645 77.3638 82.7478 81.3906 73.5767 77.1282C70.2932 75.6323 67.3146 73.2939 63.6724 72.7135C61.5929 72.3136 59.4469 72.4367 57.4266 73.0718C54.7732 74.0404 52.3053 75.5363 49.9404 77.0951C48.5641 78.0271 47.2173 79.0056 45.884 79.9973C44.938 80.7768 43.905 81.4445 42.8058 81.9874C42.5802 82.0703 42.033 82.2727 41.834 82.319C41.5654 82.4186 40.9185 82.5514 40.6897 82.6044C39.8255 82.699 38.9536 82.699 38.0893 82.6044C36.4976 82.295 34.9417 81.8236 33.4458 81.1981C31.9145 80.5694 30.4379 79.815 29.0311 78.9426C24.3378 76.0736 19.7437 72.4648 13.8961 73.4597C12.4134 73.6223 10.984 74.0436 9.5312 74.3585C8.33384 74.5841 7.68697 74.6439 7.09664 74.5343C6.94459 74.5003 6.79489 74.4558 6.64899 74.4016C6.51188 74.3357 6.37917 74.2613 6.25085 74.1792C6.14128 74.1063 6.032 74.0266 5.91921 73.9504L5.65056 73.7149C4.9407 72.9719 5.19939 73.3036 4.79158 72.6403C4.68552 72.4578 4.45994 71.977 4.45994 72.0001C4.2742 71.5358 4.15818 70.9753 3.96248 70.521C3.80809 69.7267 3.73573 68.9187 3.74686 68.1095C3.81248 68.0193 3.88455 67.9341 3.96248 67.8541C4.6823 67.131 4.62576 67.0083 5.44519 66.6898C6.89596 66.0101 8.42086 65.5013 9.9894 65.174C11.1006 64.9385 14.1885 64.8424 15.3363 65.1939C18.1655 65.8572 19.7809 67.8473 22.5009 69.7812C23.8576 70.7498 25.3037 71.5888 26.7465 72.4346C28.1651 73.2892 29.6692 73.9929 31.2342 74.5343C33.4839 75.0927 35.8089 75.2864 38.1201 75.1082C40.1958 74.8706 42.2293 74.3494 44.1634 73.5593C48.0575 71.9805 51.4606 69.4563 55.2021 67.569C57.9352 66.1859 60.0581 65.2704 63.1295 65.665C64.8677 65.8508 67.9125 66.9585 69.624 67.7647C72.6524 69.1314 75.7139 70.6668 79.0804 70.9024C83.0208 71.1678 86.4805 68.7763 89.6744 66.7762C91.8974 65.3193 94.2787 64.1199 96.7724 63.2006C99.3663 62.3316 101.943 62 104.129 62.3879C105.93 62.7195 107.648 63.3664 109.38 63.9368C111.232 64.5497 113.121 65.0448 115.035 65.4195C117.37 65.8695 119.764 65.9313 122.12 65.602C123.731 65.4359 125.306 65.0208 126.79 64.3716C127.045 65.0349 127.317 65.7945 127.579 66.5641C127.762 67.1911 127.911 67.828 128.07 68.4646C127.859 68.8847 127.578 69.2653 127.237 69.589ZM33.2604 102.4C32.7163 102.353 32.1028 102.33 31.6616 102.688C31.5439 102.655 31.4223 102.64 31.3001 102.642C29.1043 102.618 26.9085 102.512 24.7128 102.559C23.313 102.598 21.8238 102.529 20.5301 103.139C19.9219 103.49 19.3749 103.938 18.9114 104.466C17.4885 106.015 17.1437 108.191 16.991 110.217C16.8425 112.028 16.8179 113.847 16.9181 115.66C17.0871 117.916 17.2497 120.188 17.7606 122.394C18.2218 124.43 19.9928 125.933 21.9135 126.576C23.7498 127.131 25.6652 127.376 27.5821 127.303C29.721 127.313 31.8544 127.08 33.9406 126.606C38.0369 125.753 38.6638 122.387 38.8065 118.752C38.936 115.435 39.052 112.094 38.677 108.784C38.4113 105.683 36.6236 102.632 33.2604 102.4ZM20.1518 108.051C20.4835 106.97 20.3575 107.368 20.6959 106.725C20.8154 106.506 20.9247 106.366 21.6079 105.766C21.6879 105.708 21.7708 105.655 21.8566 105.607C22.0585 105.548 22.2647 105.504 22.4736 105.477C24.0791 105.315 25.6977 105.378 27.3128 105.375C27.2797 108.247 27.4256 111.119 27.5747 113.998C25.8656 113.998 24.1585 113.998 22.4534 113.998C21.5314 114.018 20.6092 114.048 19.6904 114.068C19.6377 111.78 19.7473 109.703 20.1518 108.051ZM25.3927 124.414C24.6167 124.381 24.0096 124.255 22.5436 123.81L22.4209 123.763C21.0442 123.04 20.789 122.496 20.5998 122.072C19.9629 119.727 20.0194 118.781 19.7572 116.055C19.7572 115.859 19.7405 115.667 19.7306 115.474C22.3687 115.413 25.0054 115.382 27.6413 115.382C27.6413 115.6 27.6644 115.819 27.6744 116.045C27.8003 118.834 27.6744 121.684 28.0359 124.433C28.0435 124.449 28.0523 124.465 28.0625 124.48C27.2534 124.477 26.3844 124.454 25.3927 124.414ZM36.0928 115.667C36.0266 119.093 35.9436 122.241 34.8954 123.12C34.8257 123.186 34.7428 123.256 34.673 123.316C34.5567 123.4 34.4337 123.474 34.3048 123.538H34.2717L34.1158 123.595C32.5578 124.075 30.945 124.356 29.3164 124.43C29.3862 124.179 29.3964 123.914 29.3463 123.658C29.1538 121.223 29.1638 118.782 29.0944 116.344C29.0944 116.012 29.0613 115.701 29.0478 115.379C31.3341 115.396 33.6207 115.443 35.907 115.518C35.9712 115.52 36.035 115.51 36.096 115.491C36.0963 115.561 36.0928 115.614 36.0928 115.667ZM36.0928 114.171C35.8927 114.118 35.6855 114.098 35.479 114.112C33.3064 114.032 31.134 113.999 28.9581 113.986C28.8685 112.327 28.7724 110.639 28.7393 108.964C28.7126 107.912 28.6795 106.864 28.683 105.813C28.6748 105.675 28.6748 105.536 28.683 105.398C29.373 105.418 30.0629 105.448 30.7529 105.451C31.1112 105.451 31.499 105.517 31.8275 105.332C31.947 105.283 32.0586 105.217 32.1591 105.136C32.4365 105.19 32.7192 105.211 33.0017 105.199C33.1077 105.199 33.2106 105.199 33.3333 105.226L33.4429 105.245L33.7215 105.328C33.8973 105.41 34.0678 105.502 34.2324 105.604C35.9472 106.579 36.1396 109.975 36.1098 114.171H36.0928ZM103.425 100.861C99.9792 98.9634 95.8794 99.6167 92.1315 99.9351C90.8943 100.148 89.5742 100.267 88.4829 100.93C87.0661 102.028 86.14 103.641 85.9057 105.418C85.7193 106.493 85.7407 107.594 85.9686 108.662V108.755C85.9024 110.532 86.0448 112.324 86.0615 114.102C86.1055 115.877 86.2481 117.649 86.4893 119.409C86.6384 120.623 86.8739 121.866 87.5439 122.908C89.6568 126.248 94.1345 126.065 97.6273 125.976C99.8002 125.777 101.939 125.302 103.992 124.563C105.501 124.046 106.457 122.623 107.024 121.2C107.651 119.541 107.564 117.767 107.641 116.039C107.812 113.299 107.719 110.548 107.362 107.826C107.027 104.897 106.218 102.29 103.432 100.861H103.425V100.861ZM88.8113 109.567V109.498C88.8098 109.484 88.8098 109.471 88.8113 109.458C88.8743 109.18 88.8743 108.893 88.8113 108.615C88.8113 108.363 88.8312 108.111 88.8544 107.859C88.947 107.481 88.8948 107.083 88.7085 106.741C88.6754 106.685 88.6388 106.632 88.6024 106.579C88.6496 106.009 88.7609 105.446 88.9341 104.9C88.954 104.857 88.9672 104.821 88.9806 104.791C89.4649 103.796 89.4482 103.902 89.9759 103.325C90.052 103.275 90.1317 103.232 90.2114 103.189C91.3973 102.833 92.6231 102.628 93.86 102.579C94.7688 102.509 95.6146 102.449 96.4006 102.416C96.3839 105.879 96.5697 109.335 96.802 112.785C94.1685 112.828 91.4618 112.752 88.8646 112.967C88.8377 111.803 88.8113 110.639 88.8113 109.567ZM96.5131 123.183C93.362 123.203 91.4216 123.041 90.2111 121.797C89.2757 120.871 89.017 117.707 88.9109 114.334H89.2824C91.823 114.244 94.3671 114.228 96.9113 114.201C96.9113 114.281 96.9113 114.36 96.928 114.44C97.1368 117.342 97.2198 120.281 97.5912 123.167C97.2365 123.173 96.8814 123.186 96.4967 123.183H96.5131ZM97.9094 107.405C97.7867 105.746 97.8763 104.055 97.8332 102.393C100.301 102.416 102.145 102.884 103.581 104.546C104.454 105.819 104.832 109.1 104.908 112.682C102.682 112.642 100.46 112.742 98.2346 112.768C98.0987 110.98 98.0026 109.192 97.893 107.405H97.9094ZM104.726 118.802C104.613 120.221 103.73 121.827 102.934 121.959C101.627 122.373 100.298 122.717 98.9541 122.991L98.9342 122.775C98.6623 119.913 98.4666 117.04 98.2941 114.171C99.6839 114.171 101.07 114.131 102.46 114.088C103.27 114.068 104.079 114.088 104.888 114.088C104.878 115.697 104.815 117.316 104.709 118.802H104.726Z" fill="#2864FF"/>
</svg>
