<svg width="24" height="24" viewBox="0 0 24 24" fill="none" xmlns="http://www.w3.org/2000/svg">
<g clip-path="url(#clip0_4959_66342)">
<path d="M4.59453 4.9839C4.77558 4.96286 4.95895 4.99171 5.12479 5.06732C5.29064 5.14293 5.43267 5.26243 5.53553 5.4129C7.01153 7.5719 8.78353 8.4699 10.7505 8.6739C10.8465 7.8329 11.0735 7.0019 11.5005 6.2699C12.1265 5.1959 13.1445 4.4059 14.5985 4.1139C16.6085 3.7099 18.1385 4.4379 19.0255 5.3289L20.8175 4.9939C21.0051 4.95877 21.1987 4.97801 21.3757 5.04935C21.5526 5.1207 21.7054 5.24117 21.8161 5.39655C21.9268 5.55193 21.9908 5.73574 22.0004 5.92628C22.0101 6.11682 21.965 6.30614 21.8705 6.4719L20.1505 9.4939C20.3075 13.8549 19.0955 16.8989 16.5115 18.9959C15.1415 20.1079 13.1795 20.7389 11.0265 20.9339C8.85653 21.1299 6.40353 20.8929 3.96553 20.1809C3.75722 20.1201 3.57433 19.9933 3.44446 19.8194C3.31458 19.6456 3.24477 19.4343 3.24556 19.2173C3.24635 19.0003 3.3177 18.7894 3.44884 18.6166C3.57998 18.4437 3.76379 18.3181 3.97253 18.2589C5.19853 17.9099 6.13253 17.6089 6.97553 17.0819C5.77653 16.4459 4.89353 15.6139 4.26853 14.6659C3.40053 13.3479 3.07853 11.8779 3.01453 10.5529C2.95053 9.2279 3.14153 7.9999 3.34353 7.1149C3.45853 6.6099 3.59253 6.1039 3.77753 5.6199C3.84279 5.44929 3.95353 5.29982 4.09773 5.1877C4.24194 5.07558 4.4131 5.0051 4.59453 4.9839Z" fill="white"/>
</g>
<defs>
<clipPath id="clip0_4959_66342">
<rect width="24" height="24" fill="white"/>
</clipPath>
</defs>
</svg>
