<svg width="150" height="150" viewBox="0 0 150 150" fill="none" xmlns="http://www.w3.org/2000/svg">
<g clip-path="url(#clip0_2684_7266)">
<path d="M149.95 87.0675C148.659 81.7069 145.368 77.188 142.412 72.6369C139.136 67.5928 135.884 62.5338 132.578 57.5103C129.352 52.6095 126.177 47.6709 122.898 42.8056C121.526 40.7703 119.963 39.0492 117.529 38.3578C115.055 37.6537 112.347 37.9301 109.812 37.9805C107.949 38.0172 106.086 38.0528 104.223 38.0883C104.28 37.9266 104.341 37.7673 104.394 37.6021C108.248 25.8513 102.092 13.1223 90.7084 8.4818C85.8881 6.51759 80.7349 6.45338 76.0771 7.88669C66.3096 10.4712 59.3927 20.3634 59.5312 30.7062C59.5701 33.5522 60.1446 36.3145 61.1597 38.8784C53.5036 39.0079 45.8475 39.1329 38.1914 39.243C36.5663 39.2671 34.9401 39.2785 33.3151 39.3256C32.6536 39.3451 31.8685 39.2464 31.2666 39.5813C30.7012 39.8954 30.3327 40.6247 29.9585 41.1338C27.9947 43.8055 25.9966 46.452 24.0133 49.1076C21.4407 52.5522 18.979 56.077 16.5391 59.6167C14.5261 62.2998 12.5131 64.983 10.5001 67.6673C7.35982 71.8537 4.0662 75.9473 0.987738 80.1773C-1.69133 83.858 1.57711 87.1558 4.865 88.7806C5.71759 89.2014 6.50265 88.9652 7.07257 88.2268C8.15633 86.8244 9.23093 85.4163 10.3032 84.0059C10.0023 91.1771 10.2563 98.4033 10.2769 105.57C10.2998 113.79 10.349 122.012 10.3891 130.232C10.3982 132.059 10.404 133.886 10.4165 135.713C10.428 137.471 10.4795 139.268 11.8139 140.583C12.7191 141.477 13.9825 141.806 15.1979 142.002C17.172 142.321 19.1804 142.475 21.1729 142.628C29.0842 143.238 37.0264 143.219 44.9549 143.177C61.2158 143.088 77.4767 143.002 93.7365 142.925C101.87 142.886 110.003 142.849 118.135 142.81C122.304 142.79 126.472 142.771 130.64 142.75C132.515 142.742 134.421 142.833 136.293 142.714C137.997 142.607 139.263 141.78 139.789 140.107C140.403 138.148 140.535 135.87 140.686 133.83C140.842 131.734 140.897 129.631 140.881 127.528C140.848 123.202 140.507 118.885 140.102 114.579C139.309 106.134 138.445 97.7577 138.599 89.2702C141.818 89.2358 145.036 89.2209 148.252 89.2507C149.398 89.261 150.214 88.1637 149.95 87.0675V87.0675ZM66.2134 17.6802C66.6506 16.9934 67.1278 16.3444 67.6382 15.7309C68.6911 14.66 69.8721 13.7105 71.163 12.9136C75.5392 10.2144 80.7017 9.58717 85.6959 10.5699C96.0539 12.6109 103.504 22.6017 101.917 33.1703C100.484 42.7105 92.5898 49.8702 82.9413 50.174C73.271 50.4802 64.9672 43.7344 62.8397 34.3307C61.5408 28.5952 63.0972 22.5776 66.2134 17.6802V17.6802ZM95.6568 49.9481C97.6596 49.9825 99.6623 50.0502 101.663 50.1603C102.666 50.2164 103.759 50.1763 104.738 50.4217C105.968 50.7313 106.769 51.8103 105.335 52.4387C103.776 53.1221 101.666 53.0326 100.001 53.192C97.9148 53.3904 95.8274 53.567 93.7365 53.724C85.475 54.3421 77.1094 54.7996 68.8227 54.5622C66.9974 54.5095 65.0175 54.4877 63.2334 54.0692C62.5067 53.8983 61.6964 53.6656 61.8166 52.7976C61.97 51.691 63.4119 51.4571 64.3103 51.292C66.5476 50.8804 68.833 50.6591 71.1218 50.51C73.5216 51.9032 76.1961 52.8664 79.0549 53.27C84.7048 54.0669 90.2289 52.7884 94.7642 49.939C95.0617 49.9424 95.3593 49.9435 95.6568 49.9481V49.9481ZM29.5168 140.04C28.5978 140.013 27.68 139.979 26.7622 139.935C26.3593 132.588 25.7871 125.26 25.6692 117.896C25.6555 116.995 25.6452 116.093 25.6418 115.19C25.6372 114.311 25.4335 113.035 25.6441 112.183C25.7265 111.852 25.6441 111.806 25.6166 111.803C25.6406 111.801 25.731 111.779 25.9725 111.644C26.3914 111.41 27.2771 111.475 27.7452 111.425C28.6493 111.326 29.5534 111.238 30.4586 111.159C34.1058 110.842 37.7668 110.685 41.4289 110.699C41.9451 120.513 42.3273 130.346 43.0094 140.148C38.5107 140.178 34.012 140.175 29.5168 140.04ZM56.8316 101.659C56.6095 106.09 56.5111 110.534 56.4333 114.97L56.1976 128.284C56.1609 130.402 56.1369 132.52 56.1197 134.637C56.106 136.364 55.8977 138.26 56.0511 140.035C54.7979 140.044 53.546 140.055 52.2928 140.066C50.0772 140.083 47.8617 140.107 45.6461 140.126C45.1826 129.919 44.393 119.715 43.7704 109.517C43.7303 108.869 43.2703 108.302 42.5814 108.299C38.038 108.269 33.5016 108.418 28.9766 108.839C27.5129 108.975 24.8167 108.724 23.6963 109.919C22.5896 111.099 23.0932 113.414 23.1264 114.862C23.3175 123.192 23.7787 131.625 25.1989 139.85C22.8769 139.721 20.5583 139.544 18.2466 139.299C17.0438 139.171 15.0926 139.229 14.1633 138.28C13.5843 137.691 13.6564 136.826 13.6369 136.052C13.6072 134.936 13.5843 133.819 13.5579 132.703C13.3577 124.175 13.17 115.648 12.9526 107.121C12.7363 98.6556 12.8347 90.097 12.0851 81.6565C15.2975 77.415 18.4972 73.1655 21.7943 68.9848C26.2838 63.2906 30.9221 57.6811 35.3098 51.9032C39.306 59.1729 42.8491 66.719 46.2664 74.2709C48.086 78.2933 49.6389 82.4809 51.5753 86.4449C52.2436 87.8117 53.1832 89.1108 54.5748 89.8034C55.496 90.2632 56.5203 90.4146 57.5617 90.4467C56.9643 94.124 57.0181 97.963 56.8316 101.659V101.659ZM137.237 132.075C137.151 133.792 137.004 135.509 136.816 137.219C136.734 137.954 136.817 139.077 136.096 139.356C135.315 139.657 133.663 139.381 132.812 139.388C128.949 139.421 125.085 139.455 121.222 139.488C113.597 139.553 105.973 139.619 98.3473 139.685C85.4395 139.795 72.5317 139.902 59.6239 140.005C59.799 138.351 59.664 136.594 59.6972 134.98C59.7441 132.762 59.7841 130.543 59.8093 128.323C59.8585 123.885 59.9089 119.448 59.9592 115.009C60.0096 110.573 60.0405 106.129 59.9455 101.694C59.8665 97.9756 60.0313 94.1228 59.5312 90.4111C59.926 90.3951 60.3163 90.3767 60.6962 90.371C79.341 90.0339 97.9891 89.8711 116.635 89.6349C122.817 89.5569 129.007 89.4055 135.196 89.3126C134.178 103.583 137.957 117.783 137.237 132.075V132.075ZM120.928 86.1938C111.909 86.3279 102.89 86.4609 93.8704 86.5928L66.8131 86.9907C64.5838 87.0239 62.3545 87.0457 60.124 87.0664C58.3777 87.0824 56.2353 87.5078 55.0577 85.9231C54.0014 84.5013 53.4269 82.591 52.7174 80.9811C51.7733 78.8403 50.8154 76.7064 49.8381 74.5805C45.7628 65.71 41.2344 57.0883 36.8227 48.3864C36.4164 47.5826 35.058 47.3085 34.4503 48.0527C29.3279 54.3249 24.5317 60.8941 19.5913 67.3096C14.9026 73.3971 10.0355 79.3299 5.27127 85.3556C4.2413 84.7547 3.1667 83.9188 3.20446 82.8811C3.23307 82.0612 4.29508 81.0269 4.75972 80.3848C5.41089 79.487 6.05862 78.5869 6.71208 77.6913C9.50559 73.8569 12.4055 70.0971 15.2574 66.3062C20.9337 58.7521 27.4557 51.3929 32.4098 43.3469C32.5403 43.1359 32.6765 42.9146 32.8893 42.7873C33.1217 42.6486 33.4066 42.6451 33.6755 42.644C43.395 42.6256 53.1122 42.4605 62.8294 42.2747C64.2508 44.6598 66.0853 46.7811 68.2356 48.5217C67.8477 48.5527 67.4597 48.5813 67.0717 48.618C65.1125 48.8003 62.6749 48.7831 61.0098 49.9665C59.7727 50.846 59.0242 52.5143 59.6937 53.9763C60.3346 55.3752 61.9116 55.9015 63.3227 56.116C67.9964 56.8257 72.8625 56.6148 77.574 56.5448C82.6586 56.4703 87.7421 56.2708 92.8176 55.9463C95.4051 55.7811 97.9903 55.5828 100.572 55.3546C102.449 55.1872 104.571 55.2353 106.332 54.4808C107.719 53.8869 108.788 52.6233 108.496 51.0225C108.16 49.1799 106.409 48.2545 104.713 48.0183C102.451 47.703 100.104 47.6823 97.7992 47.6674C99.7081 45.975 101.345 43.9523 102.621 41.6556C104.7 41.6303 106.779 41.6062 108.858 41.581C111.051 41.5546 113.367 41.3127 115.543 41.6406C117.509 41.9376 118.641 43.0269 119.709 44.6277C120.927 46.4543 122.101 48.3119 123.296 50.1545C125.848 54.0875 128.384 58.0332 130.961 61.949C133.876 66.3785 136.787 70.8103 139.701 75.2398C141.939 78.6454 144.35 82.0475 145.862 85.8498C137.558 86.0963 129.233 86.0711 120.928 86.1938V86.1938Z" fill="#2864FF"/>
<path d="M33.212 70.5764C29.9035 70.3103 27.3114 73.2526 26.0033 75.9771C25.6692 76.6743 25.3544 77.4597 25.0752 78.3048C23.94 80.9306 23.5543 83.9555 23.9125 86.9333C23.9457 87.2085 23.9892 87.4837 24.0384 87.7578C24.2959 89.5982 24.8967 91.2952 25.9598 92.6287C26.5927 93.5415 27.3755 94.3476 28.3299 94.9851C30.6565 96.5388 33.9307 96.9424 36.3923 95.4644C39.33 93.7009 40.8624 89.5683 41.5708 86.3852C42.31 83.0622 42.0571 79.6991 40.5133 76.6421C39.1698 73.9808 36.3831 70.8321 33.212 70.5764ZM26.8216 79.4411C27.0367 78.7313 27.3148 77.9918 27.6616 77.2785C28.4329 75.9415 29.4492 74.7502 30.7069 73.7847C30.9701 73.6414 31.2447 73.5164 31.5366 73.4189C31.6808 73.3719 31.8249 73.3364 31.9691 73.31C31.7025 76.1445 31.7837 79.0696 31.849 81.9202C29.9012 82.0922 27.9694 82.3456 26.0777 82.6689C26.2643 81.5074 26.5298 80.4032 26.8216 79.4411ZM29.9161 93.1791C27.6993 91.9729 26.5618 89.5282 26.1166 87.1386C25.9553 86.2763 25.8706 85.4083 25.8557 84.5449C25.8591 84.5036 25.8637 84.4623 25.8671 84.4199C27.8699 84.4153 29.8852 84.3889 31.9028 84.3385C31.9691 87.5273 32.0596 90.715 32.1568 93.9038C31.3946 93.8144 30.6313 93.5679 29.9161 93.1791ZM33.4592 73.3845C35.2776 73.8695 36.9279 75.6652 37.8594 77.0939C38.7475 78.4584 39.2476 80.0328 39.4238 81.6771C37.5825 81.6266 35.7137 81.661 33.8448 81.7723C33.7807 78.9905 33.7636 76.1514 33.4592 73.3845ZM36.4678 92.1265C35.8647 92.9177 35.1083 93.4326 34.2809 93.7055C34.1298 90.5648 34.0165 87.4218 33.9192 84.2788C35.772 84.2158 37.6237 84.1286 39.4627 84.0128C39.2625 86.9643 38.1513 89.9249 36.4678 92.1265Z" fill="#2864FF"/>
<path d="M92.2955 98.7232C90.7746 97.4401 88.1733 97.3782 86.2907 97.252C81.6891 96.9447 77.0576 97.0021 72.4491 97.1832C69.548 96.9975 65.7772 97.0697 65.2221 99.8939C64.8079 102.004 64.8319 104.329 64.698 106.475C64.5481 108.885 64.4531 111.298 64.4108 113.713C64.373 115.925 64.3753 118.139 64.4222 120.351C64.4577 122.083 64.0629 124.641 65.0974 126.141C66.0232 127.482 67.7925 127.475 69.2516 127.599C71.6595 127.805 74.0696 127.98 76.4843 128.076C78.6987 128.166 80.9143 128.198 83.1299 128.173C85.3546 128.147 87.7853 128.303 89.9723 127.885C91.6203 127.569 92.3447 126.38 92.6457 124.801C93.0714 122.564 93.2968 120.264 93.5028 118C93.9137 113.483 94.0132 108.951 93.7386 104.424C93.6287 102.617 93.8256 100.014 92.2955 98.7232ZM76.5655 125.571C73.827 125.488 71.0792 125.325 68.3773 124.959C67.2329 124.803 67.1505 124.441 67.083 123.396C67.0246 122.492 66.988 121.586 66.9513 120.682C66.8747 118.771 66.8312 116.859 66.8289 114.947C66.8277 114.58 66.8346 114.213 66.8358 113.847C70.1523 114.247 73.5145 114.427 76.8574 114.562C76.5552 118.22 76.3492 121.933 76.5655 125.571ZM77.1114 111.652C77.0988 111.794 77.0862 111.937 77.0737 112.079C73.6713 111.968 70.245 111.9 66.8495 112.063C66.8918 109.403 66.9994 106.745 67.1722 104.091C67.2363 103.118 67.1036 101.641 67.4423 100.733C67.8108 99.7437 69.1658 99.7586 70.1454 99.6726C72.1447 99.496 74.1611 99.6508 76.1627 99.691C77.0542 99.7093 77.9457 99.7299 78.8361 99.7494C77.9411 103.651 77.4753 107.684 77.1114 111.652ZM90.7025 118.559C90.5628 120.435 90.6315 122.723 90.0719 124.521C89.6244 125.961 86.5666 125.558 85.2722 125.596C83.3599 125.651 81.4465 125.665 79.533 125.636C79.351 125.634 79.1679 125.63 78.986 125.627C79.1759 121.973 79.1862 118.316 79.3693 114.662C83.1814 114.827 87.0792 115.196 90.8924 115.09C90.8478 116.247 90.7894 117.404 90.7025 118.559ZM90.9611 112.561C87.1948 112.183 83.3118 112.263 79.525 112.157C79.5296 112.097 79.533 112.036 79.5376 111.975C79.8626 107.903 80.4337 103.857 80.8353 99.793C83.1196 99.8457 85.4027 99.9008 87.6869 99.9558C88.4239 100.046 89.2754 100.154 89.8991 100.466C90.7746 100.902 90.6212 101.712 90.6864 102.623C90.9233 105.928 91.0103 109.248 90.9611 112.561Z" fill="#2864FF"/>
<path d="M127.74 99.1142C126.218 97.8311 123.617 97.768 121.736 97.6419C117.133 97.3357 112.503 97.3931 107.893 97.5742C104.992 97.3885 101.221 97.4607 100.666 100.285C100.252 102.395 100.276 104.719 100.142 106.864C99.9931 109.275 99.8969 111.688 99.8557 114.103C99.8168 116.316 99.8203 118.529 99.866 120.742C99.9015 122.473 99.5067 125.032 100.541 126.531C101.467 127.872 103.236 127.865 104.695 127.99C107.103 128.196 109.513 128.371 111.929 128.467C114.143 128.557 116.358 128.589 118.574 128.564C120.798 128.538 123.229 128.693 125.416 128.276C127.064 127.96 127.789 126.77 128.09 125.192C128.515 122.955 128.741 120.655 128.947 118.391C129.358 113.874 129.457 109.342 129.181 104.815C129.074 103.007 129.271 100.404 127.74 99.1142ZM112.009 125.962C109.272 125.878 106.524 125.716 103.822 125.35C102.677 125.194 102.594 124.832 102.528 123.787C102.47 122.882 102.432 121.976 102.396 121.071C102.319 119.161 102.276 117.25 102.273 115.337C102.272 114.971 102.278 114.604 102.28 114.237C105.597 114.636 108.958 114.818 112.301 114.952C111.999 118.61 111.794 122.322 112.009 125.962ZM112.556 112.043C112.543 112.185 112.53 112.327 112.518 112.469C109.116 112.359 105.69 112.291 102.294 112.454C102.337 109.794 102.443 107.135 102.617 104.481C102.68 103.508 102.549 102.032 102.886 101.124C103.256 100.134 104.61 100.15 105.589 100.062C107.589 99.887 109.605 100.042 111.607 100.082C112.498 100.099 113.39 100.121 114.28 100.14C113.385 104.041 112.92 108.075 112.556 112.043ZM126.147 118.949C126.007 120.825 126.076 123.112 125.517 124.91C125.068 126.351 122.012 125.948 120.717 125.986C118.804 126.042 116.89 126.056 114.977 126.027C114.795 126.025 114.613 126.02 114.43 126.017C114.62 122.363 114.63 118.707 114.813 115.053C118.625 115.217 122.524 115.586 126.337 115.481C126.292 116.638 126.234 117.794 126.147 118.949ZM126.405 112.952C122.639 112.572 118.757 112.654 114.97 112.548C114.975 112.488 114.977 112.427 114.983 112.366C115.306 108.293 115.877 104.247 116.279 100.184C118.563 100.237 120.847 100.292 123.131 100.347C123.868 100.437 124.719 100.545 125.344 100.857C126.218 101.293 126.065 102.104 126.13 103.015C126.368 106.319 126.455 109.638 126.405 112.952Z" fill="#2864FF"/>
<path d="M29.9849 123.205C29.3932 123.032 28.7192 123.198 28.2614 123.605C28.1847 123.661 28.1103 123.72 28.0428 123.787C27.537 124.279 27.3836 125.04 27.5553 125.708C27.7258 126.376 28.258 126.899 28.9091 127.095C29.5683 127.294 30.3683 127.073 30.8523 126.588C31.3639 126.073 31.6008 125.342 31.4028 124.627C31.2151 123.948 30.6578 123.403 29.9849 123.205Z" fill="#2864FF"/>
<path d="M78.7297 47.0517C86.5861 48.6111 94.7744 43.9523 97.6514 36.4967C100.644 28.7431 97.442 19.3417 90.0067 15.4706C86.0677 13.4193 81.3127 12.8219 77.0635 14.2242C72.9905 15.5681 69.9967 18.3476 68.2915 22.1327C67.2341 24.0774 66.5085 26.2514 66.1904 28.5493C65.5942 32.8664 66.3277 37.4508 68.9805 40.987C71.3254 44.1139 74.9074 46.2937 78.7297 47.0517ZM74.4359 17.5644C78.0969 15.5257 82.7741 15.1897 86.8218 16.6677C93.5155 19.1101 97.4843 26.2273 96.2289 33.2471C95.009 40.0663 88.4996 45.2044 81.6491 45.2228C74.1315 45.2422 68.1485 39.282 67.9208 31.8253C67.7537 26.3844 70.2611 20.8438 74.4359 17.5644Z" fill="#2864FF"/>
</g>
<defs>
<clipPath id="clip0_2684_7266">
<rect width="150" height="150" fill="white"/>
</clipPath>
</defs>
</svg>
