<svg width="564" height="120" viewBox="0 0 564 120" fill="none" xmlns="http://www.w3.org/2000/svg">
<rect width="417" height="100" transform="translate(72 20)" fill="#103BA4"/>
<rect width="508" height="100" transform="translate(29 10)" fill="#174CCE"/>
<rect width="564" height="100" fill="#1957F0"/>
<path d="M108.346 46H113.082C114.085 46 114.947 45.8405 115.67 45.5215C116.393 45.196 116.949 44.7337 117.34 44.1348C117.73 43.5358 117.926 42.8262 117.926 42.0059V41.9863C117.926 41.3743 117.789 40.8242 117.516 40.3359C117.242 39.8477 116.861 39.4538 116.373 39.1543C115.891 38.8483 115.331 38.666 114.693 38.6074V38.4609C115.175 38.3893 115.605 38.207 115.982 37.9141C116.367 37.6211 116.669 37.2598 116.891 36.8301C117.118 36.4004 117.232 35.9382 117.232 35.4434V35.4238C117.232 34.7012 117.06 34.0794 116.715 33.5586C116.376 33.0312 115.888 32.6243 115.25 32.3379C114.612 32.0514 113.847 31.9082 112.955 31.9082H108.346V33.8613H112.34C113.102 33.8613 113.694 34.0339 114.117 34.3789C114.54 34.724 114.752 35.209 114.752 35.834V35.8535C114.752 36.498 114.518 36.9928 114.049 37.3379C113.58 37.6829 112.896 37.8555 111.998 37.8555H108.346V39.6426H112.398C113.043 39.6426 113.583 39.724 114.02 39.8867C114.462 40.0495 114.794 40.2936 115.016 40.6191C115.237 40.9447 115.348 41.3451 115.348 41.8203V41.8398C115.348 42.556 115.107 43.1029 114.625 43.4805C114.143 43.8581 113.437 44.0469 112.506 44.0469H108.346V46ZM107.086 46H109.605V31.9082H107.086V46ZM124.752 46.2148C125.468 46.2148 126.096 46.1237 126.637 45.9414C127.184 45.7526 127.646 45.5085 128.023 45.209C128.401 44.903 128.704 44.571 128.932 44.2129C129.16 43.8483 129.316 43.487 129.4 43.1289L129.42 43.041H127.125L127.096 43.1094C127.018 43.2852 126.881 43.4674 126.686 43.6562C126.49 43.8385 126.236 43.9948 125.924 44.125C125.611 44.2487 125.24 44.3105 124.811 44.3105C124.257 44.3105 123.775 44.1868 123.365 43.9395C122.962 43.6921 122.649 43.3372 122.428 42.875C122.213 42.4128 122.105 41.8561 122.105 41.2051V40.2383C122.105 39.5612 122.216 38.9883 122.438 38.5195C122.665 38.0508 122.971 37.696 123.355 37.4551C123.74 37.2142 124.179 37.0938 124.674 37.0938C125.169 37.0938 125.602 37.2109 125.973 37.4453C126.35 37.6797 126.646 38.028 126.861 38.4902C127.076 38.9525 127.184 39.5352 127.184 40.2383V41.2051L128.346 39.6816H120.904V41.3125H129.527V40.5117C129.527 39.444 129.329 38.513 128.932 37.7188C128.541 36.918 127.978 36.2962 127.242 35.8535C126.513 35.4108 125.647 35.1895 124.645 35.1895C123.635 35.1895 122.76 35.4206 122.018 35.8828C121.275 36.3385 120.699 36.9798 120.289 37.8066C119.885 38.6335 119.684 39.6035 119.684 40.7168V40.7266C119.684 41.8529 119.885 42.8262 120.289 43.6465C120.699 44.4668 121.282 45.1016 122.037 45.5508C122.799 45.9935 123.704 46.2148 124.752 46.2148ZM135.865 46.0879C136.106 46.0879 136.334 46.0749 136.549 46.0488C136.764 46.0293 136.952 46.0065 137.115 45.9805V44.125C136.992 44.1315 136.871 44.1413 136.754 44.1543C136.643 44.1608 136.51 44.1641 136.354 44.1641C135.865 44.1641 135.507 44.0501 135.279 43.8223C135.058 43.5879 134.947 43.2103 134.947 42.6895V37.2793H137.115V35.4043H134.947V32.7773H132.477V35.4043H130.865V37.2793H132.477V43.168C132.477 44.2096 132.743 44.9583 133.277 45.4141C133.818 45.8633 134.68 46.0879 135.865 46.0879ZM142.281 46.1758C142.75 46.1758 143.183 46.1107 143.58 45.9805C143.977 45.8438 144.329 45.6517 144.635 45.4043C144.947 45.1504 145.201 44.8509 145.396 44.5059H145.543V46H147.955V38.7539C147.955 38.0117 147.786 37.377 147.447 36.8496C147.109 36.3158 146.62 35.9056 145.982 35.6191C145.344 35.3327 144.573 35.1895 143.668 35.1895C142.815 35.1895 142.066 35.3197 141.422 35.5801C140.784 35.834 140.273 36.1888 139.889 36.6445C139.511 37.1003 139.283 37.6309 139.205 38.2363L139.195 38.3242H141.48L141.49 38.2754C141.607 37.9173 141.839 37.6374 142.184 37.4355C142.535 37.2272 142.994 37.123 143.561 37.123C144.205 37.123 144.697 37.2695 145.035 37.5625C145.374 37.849 145.543 38.2591 145.543 38.793V42.1035C145.543 42.5202 145.432 42.8978 145.211 43.2363C144.99 43.5684 144.69 43.832 144.312 44.0273C143.935 44.2227 143.502 44.3203 143.014 44.3203C142.48 44.3203 142.04 44.1934 141.695 43.9395C141.357 43.6855 141.188 43.334 141.188 42.8848V42.8652C141.188 42.4355 141.347 42.097 141.666 41.8496C141.992 41.5957 142.486 41.4525 143.15 41.4199L146.754 41.1855V39.584L142.799 39.8184C141.946 39.8704 141.22 40.0267 140.621 40.2871C140.022 40.5475 139.566 40.9056 139.254 41.3613C138.941 41.8105 138.785 42.3509 138.785 42.9824V43.002C138.785 43.64 138.935 44.1999 139.234 44.6816C139.534 45.1569 139.947 45.5247 140.475 45.7852C141.002 46.0456 141.604 46.1758 142.281 46.1758ZM154.674 46.2148C155.546 46.2148 156.318 46.0749 156.988 45.7949C157.665 45.515 158.196 45.1243 158.58 44.623C158.971 44.1152 159.166 43.526 159.166 42.8555V42.8359C159.166 42.0612 158.919 41.446 158.424 40.9902C157.936 40.5345 157.164 40.1895 156.109 39.9551L154.391 39.5645C154.013 39.4733 153.707 39.3724 153.473 39.2617C153.245 39.1445 153.079 39.0078 152.975 38.8516C152.87 38.6888 152.818 38.5065 152.818 38.3047V38.2949C152.818 38.028 152.896 37.7969 153.053 37.6016C153.209 37.4062 153.424 37.2565 153.697 37.1523C153.971 37.0417 154.29 36.9863 154.654 36.9863C155.221 36.9863 155.673 37.11 156.012 37.3574C156.357 37.5983 156.568 37.8978 156.646 38.2559L156.656 38.2949H158.932V38.2559C158.886 37.6764 158.688 37.1556 158.336 36.6934C157.991 36.2311 157.506 35.8665 156.881 35.5996C156.262 35.3262 155.52 35.1895 154.654 35.1895C153.821 35.1895 153.085 35.3262 152.447 35.5996C151.809 35.873 151.311 36.2539 150.953 36.7422C150.595 37.224 150.416 37.7871 150.416 38.4316V38.4414C150.416 38.9557 150.523 39.4082 150.738 39.7988C150.96 40.1895 151.292 40.5182 151.734 40.7852C152.177 41.0521 152.734 41.2604 153.404 41.4102L155.133 41.791C155.706 41.9212 156.113 42.0905 156.354 42.2988C156.601 42.5072 156.725 42.7676 156.725 43.0801V43.0898C156.725 43.3568 156.64 43.5911 156.471 43.793C156.301 43.9883 156.067 44.1413 155.768 44.252C155.468 44.3626 155.113 44.418 154.703 44.418C154.104 44.418 153.626 44.3008 153.268 44.0664C152.91 43.8255 152.672 43.5098 152.555 43.1191L152.545 43.0801H150.133L150.143 43.1191C150.208 43.7311 150.426 44.2715 150.797 44.7402C151.174 45.2025 151.689 45.5638 152.34 45.8242C152.991 46.0846 153.769 46.2148 154.674 46.2148ZM165.982 46.2148C166.874 46.2148 167.646 46.0586 168.297 45.7461C168.948 45.4336 169.465 45.0007 169.85 44.4473C170.24 43.8939 170.488 43.2559 170.592 42.5332L170.602 42.4648H168.316L168.297 42.5234C168.154 43.0768 167.89 43.5033 167.506 43.8027C167.122 44.0957 166.614 44.2422 165.982 44.2422C165.442 44.2422 164.977 44.1022 164.586 43.8223C164.195 43.5423 163.896 43.1387 163.688 42.6113C163.479 42.0775 163.375 41.4362 163.375 40.6875V40.668C163.375 39.9323 163.479 39.304 163.688 38.7832C163.896 38.2624 164.192 37.862 164.576 37.582C164.967 37.3021 165.436 37.1621 165.982 37.1621C166.64 37.1621 167.164 37.3314 167.555 37.6699C167.945 38.0085 168.193 38.4349 168.297 38.9492L168.307 38.9883H170.602V38.9395C170.517 38.2103 170.283 37.5658 169.898 37.0059C169.514 36.446 168.99 36.0033 168.326 35.6777C167.669 35.3522 166.884 35.1895 165.973 35.1895C164.918 35.1895 164.01 35.4108 163.248 35.8535C162.493 36.2897 161.91 36.918 161.5 37.7383C161.096 38.5521 160.895 39.5286 160.895 40.668V40.6875C160.895 41.8333 161.096 42.8197 161.5 43.6465C161.91 44.4733 162.493 45.1081 163.248 45.5508C164.01 45.9935 164.921 46.2148 165.982 46.2148ZM177.33 46.2148C178.385 46.2148 179.293 45.9935 180.055 45.5508C180.816 45.1081 181.402 44.4766 181.812 43.6562C182.229 42.8294 182.438 41.8464 182.438 40.707V40.6875C182.438 39.5482 182.229 38.5684 181.812 37.748C181.396 36.9277 180.807 36.2962 180.045 35.8535C179.283 35.4108 178.378 35.1895 177.33 35.1895C176.288 35.1895 175.383 35.4108 174.615 35.8535C173.854 36.2962 173.264 36.931 172.848 37.7578C172.431 38.5781 172.223 39.5547 172.223 40.6875V40.707C172.223 41.8464 172.428 42.8294 172.838 43.6562C173.255 44.4766 173.844 45.1081 174.605 45.5508C175.374 45.9935 176.282 46.2148 177.33 46.2148ZM177.33 44.2422C176.783 44.2422 176.314 44.1055 175.924 43.832C175.533 43.5521 175.234 43.1484 175.025 42.6211C174.817 42.0938 174.713 41.4557 174.713 40.707V40.6875C174.713 39.9453 174.817 39.3138 175.025 38.793C175.234 38.2656 175.533 37.862 175.924 37.582C176.314 37.3021 176.783 37.1621 177.33 37.1621C177.883 37.1621 178.355 37.3021 178.746 37.582C179.137 37.862 179.436 38.2656 179.645 38.793C179.853 39.3138 179.957 39.9453 179.957 40.6875V40.707C179.957 41.4492 179.853 42.084 179.645 42.6113C179.436 43.1387 179.137 43.5423 178.746 43.8223C178.355 44.1022 177.883 44.2422 177.33 44.2422ZM184.664 46H187.096V39.8477C187.096 39.3333 187.2 38.8939 187.408 38.5293C187.623 38.1582 187.923 37.875 188.307 37.6797C188.697 37.4779 189.153 37.377 189.674 37.377C189.882 37.377 190.081 37.39 190.27 37.416C190.465 37.4355 190.65 37.4681 190.826 37.5137V35.3262C190.715 35.3001 190.576 35.2773 190.406 35.2578C190.243 35.2318 190.071 35.2188 189.889 35.2188C189.218 35.2188 188.652 35.3815 188.189 35.707C187.727 36.0326 187.408 36.4883 187.232 37.0742H187.096V35.4043H184.664V46ZM196.9 46.2148C197.617 46.2148 198.245 46.1237 198.785 45.9414C199.332 45.7526 199.794 45.5085 200.172 45.209C200.549 44.903 200.852 44.571 201.08 44.2129C201.308 43.8483 201.464 43.487 201.549 43.1289L201.568 43.041H199.273L199.244 43.1094C199.166 43.2852 199.029 43.4674 198.834 43.6562C198.639 43.8385 198.385 43.9948 198.072 44.125C197.76 44.2487 197.389 44.3105 196.959 44.3105C196.406 44.3105 195.924 44.1868 195.514 43.9395C195.11 43.6921 194.798 43.3372 194.576 42.875C194.361 42.4128 194.254 41.8561 194.254 41.2051V40.2383C194.254 39.5612 194.365 38.9883 194.586 38.5195C194.814 38.0508 195.12 37.696 195.504 37.4551C195.888 37.2142 196.327 37.0938 196.822 37.0938C197.317 37.0938 197.75 37.2109 198.121 37.4453C198.499 37.6797 198.795 38.028 199.01 38.4902C199.225 38.9525 199.332 39.5352 199.332 40.2383V41.2051L200.494 39.6816H193.053V41.3125H201.676V40.5117C201.676 39.444 201.477 38.513 201.08 37.7188C200.689 36.918 200.126 36.2962 199.391 35.8535C198.661 35.4108 197.796 35.1895 196.793 35.1895C195.784 35.1895 194.908 35.4206 194.166 35.8828C193.424 36.3385 192.848 36.9798 192.438 37.8066C192.034 38.6335 191.832 39.6035 191.832 40.7168V40.7266C191.832 41.8529 192.034 42.8262 192.438 43.6465C192.848 44.4668 193.43 45.1016 194.186 45.5508C194.947 45.9935 195.852 46.2148 196.9 46.2148Z" fill="white"/>
<path d="M491.08 42.2734C492.161 42.2734 493.115 42.1009 493.941 41.7559C494.768 41.4108 495.413 40.9323 495.875 40.3203C496.344 39.7018 496.578 38.9889 496.578 38.1816V38.1621C496.578 37.5632 496.441 37.0163 496.168 36.5215C495.901 36.0267 495.527 35.6133 495.045 35.2812C494.57 34.9427 494.02 34.7116 493.395 34.5879V34.5293C494.195 34.3145 494.84 33.9303 495.328 33.377C495.816 32.8171 496.061 32.1595 496.061 31.4043V31.3848C496.061 30.6621 495.849 30.0208 495.426 29.4609C495.003 28.8945 494.417 28.4486 493.668 28.123C492.919 27.7975 492.057 27.6348 491.08 27.6348C490.117 27.6348 489.257 27.7975 488.502 28.123C487.753 28.4486 487.164 28.8945 486.734 29.4609C486.311 30.0208 486.1 30.6621 486.1 31.3848V31.4043C486.1 32.1595 486.344 32.8171 486.832 33.377C487.327 33.9303 487.975 34.3145 488.775 34.5293V34.5879C488.157 34.7116 487.607 34.9427 487.125 35.2812C486.643 35.6133 486.266 36.0267 485.992 36.5215C485.725 37.0163 485.592 37.5632 485.592 38.1621V38.1816C485.592 38.9889 485.823 39.7018 486.285 40.3203C486.754 40.9323 487.402 41.4108 488.229 41.7559C489.055 42.1009 490.006 42.2734 491.08 42.2734ZM491.08 40.3496C490.52 40.3496 490.022 40.252 489.586 40.0566C489.156 39.8548 488.814 39.5781 488.561 39.2266C488.313 38.875 488.189 38.4714 488.189 38.0156V37.9961C488.189 37.5404 488.313 37.1367 488.561 36.7852C488.808 36.4336 489.146 36.1569 489.576 35.9551C490.012 35.7533 490.514 35.6523 491.08 35.6523C491.653 35.6523 492.154 35.7533 492.584 35.9551C493.02 36.1569 493.359 36.4336 493.6 36.7852C493.847 37.1367 493.971 37.5404 493.971 37.9961V38.0156C493.971 38.4714 493.847 38.875 493.6 39.2266C493.352 39.5781 493.01 39.8548 492.574 40.0566C492.145 40.252 491.646 40.3496 491.08 40.3496ZM491.08 33.7285C490.592 33.7285 490.159 33.6406 489.781 33.4648C489.41 33.2891 489.117 33.0449 488.902 32.7324C488.694 32.4134 488.59 32.0488 488.59 31.6387V31.6191C488.59 31.209 488.694 30.8477 488.902 30.5352C489.117 30.2227 489.41 29.9785 489.781 29.8027C490.159 29.627 490.592 29.5391 491.08 29.5391C491.575 29.5391 492.008 29.627 492.379 29.8027C492.757 29.9785 493.049 30.2227 493.258 30.5352C493.473 30.8477 493.58 31.209 493.58 31.6191V31.6387C493.58 32.0488 493.473 32.4134 493.258 32.7324C493.049 33.0449 492.757 33.2891 492.379 33.4648C492.008 33.6406 491.575 33.7285 491.08 33.7285ZM504.254 42.3223C505.38 42.3223 506.344 42.0228 507.145 41.4238C507.952 40.8249 508.574 39.9753 509.01 38.875C509.446 37.7747 509.664 36.4694 509.664 34.959V34.9395C509.664 33.429 509.446 32.1237 509.01 31.0234C508.574 29.9232 507.952 29.0768 507.145 28.4844C506.344 27.8854 505.38 27.5859 504.254 27.5859C503.128 27.5859 502.161 27.8854 501.354 28.4844C500.546 29.0768 499.924 29.9232 499.488 31.0234C499.059 32.1237 498.844 33.429 498.844 34.9395V34.959C498.844 36.4694 499.059 37.7747 499.488 38.875C499.924 39.9753 500.546 40.8249 501.354 41.4238C502.161 42.0228 503.128 42.3223 504.254 42.3223ZM504.254 40.2812C503.648 40.2812 503.131 40.0697 502.701 39.6465C502.271 39.2168 501.943 38.6048 501.715 37.8105C501.493 37.0163 501.383 36.0658 501.383 34.959V34.9395C501.383 33.8327 501.493 32.8854 501.715 32.0977C501.943 31.3034 502.271 30.6947 502.701 30.2715C503.131 29.8483 503.648 29.6367 504.254 29.6367C504.859 29.6367 505.377 29.8483 505.807 30.2715C506.236 30.6947 506.562 31.3034 506.783 32.0977C507.011 32.8854 507.125 33.8327 507.125 34.9395V34.959C507.125 36.0658 507.011 37.0163 506.783 37.8105C506.562 38.6048 506.236 39.2168 505.807 39.6465C505.377 40.0697 504.859 40.2812 504.254 40.2812ZM517.418 42.3223C518.544 42.3223 519.508 42.0228 520.309 41.4238C521.116 40.8249 521.738 39.9753 522.174 38.875C522.61 37.7747 522.828 36.4694 522.828 34.959V34.9395C522.828 33.429 522.61 32.1237 522.174 31.0234C521.738 29.9232 521.116 29.0768 520.309 28.4844C519.508 27.8854 518.544 27.5859 517.418 27.5859C516.292 27.5859 515.325 27.8854 514.518 28.4844C513.71 29.0768 513.089 29.9232 512.652 31.0234C512.223 32.1237 512.008 33.429 512.008 34.9395V34.959C512.008 36.4694 512.223 37.7747 512.652 38.875C513.089 39.9753 513.71 40.8249 514.518 41.4238C515.325 42.0228 516.292 42.3223 517.418 42.3223ZM517.418 40.2812C516.812 40.2812 516.295 40.0697 515.865 39.6465C515.436 39.2168 515.107 38.6048 514.879 37.8105C514.658 37.0163 514.547 36.0658 514.547 34.959V34.9395C514.547 33.8327 514.658 32.8854 514.879 32.0977C515.107 31.3034 515.436 30.6947 515.865 30.2715C516.295 29.8483 516.812 29.6367 517.418 29.6367C518.023 29.6367 518.541 29.8483 518.971 30.2715C519.4 30.6947 519.726 31.3034 519.947 32.0977C520.175 32.8854 520.289 33.8327 520.289 34.9395V34.959C520.289 36.0658 520.175 37.0163 519.947 37.8105C519.726 38.6048 519.4 39.2168 518.971 39.6465C518.541 40.0697 518.023 40.2812 517.418 40.2812Z" fill="white"/>
<path d="M110.977 74.2656C111.779 74.2656 112.497 74.125 113.133 73.8438C113.773 73.5625 114.302 73.1693 114.719 72.6641C115.135 72.1536 115.406 71.5547 115.531 70.8672V70.8516H114.109L114.094 70.8672C113.979 71.2995 113.776 71.6745 113.484 71.9922C113.193 72.3047 112.833 72.5469 112.406 72.7188C111.979 72.8854 111.503 72.9688 110.977 72.9688C110.253 72.9688 109.625 72.7812 109.094 72.4062C108.568 72.0312 108.161 71.5 107.875 70.8125C107.589 70.125 107.445 69.3125 107.445 68.375V68.3594C107.445 67.4167 107.589 66.6016 107.875 65.9141C108.161 65.2266 108.568 64.6953 109.094 64.3203C109.625 63.9453 110.25 63.7578 110.969 63.7578C111.49 63.7578 111.961 63.8542 112.383 64.0469C112.81 64.2396 113.172 64.513 113.469 64.8672C113.766 65.2161 113.977 65.6328 114.102 66.1172L114.109 66.1328H115.523L115.531 66.1172C115.422 65.3984 115.156 64.7656 114.734 64.2188C114.312 63.6667 113.776 63.237 113.125 62.9297C112.479 62.6172 111.76 62.4609 110.969 62.4609C109.948 62.4609 109.065 62.7005 108.32 63.1797C107.581 63.6589 107.008 64.3385 106.602 65.2188C106.201 66.099 106 67.1458 106 68.3594V68.375C106 69.5833 106.201 70.6276 106.602 71.5078C107.008 72.388 107.583 73.0677 108.328 73.5469C109.073 74.026 109.956 74.2656 110.977 74.2656ZM117.719 74H119.078V68.7812C119.078 68.3698 119.172 68.0104 119.359 67.7031C119.552 67.3958 119.815 67.1562 120.148 66.9844C120.482 66.8125 120.865 66.7266 121.297 66.7266C121.448 66.7266 121.589 66.7344 121.719 66.75C121.854 66.7604 121.992 66.7786 122.133 66.8047V65.4844C122.065 65.474 121.966 65.4635 121.836 65.4531C121.711 65.4375 121.583 65.4297 121.453 65.4297C120.885 65.4297 120.409 65.5521 120.023 65.7969C119.638 66.0417 119.365 66.3854 119.203 66.8281H119.078V65.5781H117.719V74ZM127.016 74.1484C127.51 74.1484 127.956 74.0859 128.352 73.9609C128.753 73.8307 129.099 73.6589 129.391 73.4453C129.682 73.2266 129.919 72.9844 130.102 72.7188C130.289 72.4479 130.419 72.1693 130.492 71.8828L130.508 71.8203H129.148L129.117 71.8906C129.044 72.0573 128.917 72.2214 128.734 72.3828C128.552 72.5443 128.32 72.6771 128.039 72.7812C127.758 72.8854 127.427 72.9375 127.047 72.9375C126.536 72.9375 126.094 72.8255 125.719 72.6016C125.344 72.3724 125.055 72.0469 124.852 71.625C124.648 71.1979 124.547 70.6849 124.547 70.0859V69.5469C124.547 68.9167 124.651 68.3854 124.859 67.9531C125.068 67.5208 125.349 67.1953 125.703 66.9766C126.062 66.7526 126.469 66.6406 126.922 66.6406C127.375 66.6406 127.776 66.7474 128.125 66.9609C128.474 67.1693 128.747 67.487 128.945 67.9141C129.143 68.3411 129.242 68.8854 129.242 69.5469V70.0859L129.914 69.0938H123.859V70.1797H130.609V69.6484C130.609 68.8099 130.461 68.0755 130.164 67.4453C129.872 66.8099 129.451 66.3151 128.898 65.9609C128.352 65.6068 127.695 65.4297 126.93 65.4297C126.169 65.4297 125.505 65.6146 124.938 65.9844C124.37 66.3542 123.93 66.8672 123.617 67.5234C123.31 68.1797 123.156 68.9427 123.156 69.8125V69.8203C123.156 70.7005 123.31 71.4661 123.617 72.1172C123.93 72.763 124.372 73.263 124.945 73.6172C125.523 73.9714 126.214 74.1484 127.016 74.1484ZM135.828 74.1484C136.219 74.1484 136.581 74.0885 136.914 73.9688C137.247 73.849 137.544 73.6797 137.805 73.4609C138.065 73.237 138.281 72.9688 138.453 72.6562H138.578V74H139.938V62.2344H138.578V66.9062H138.453C138.302 66.6042 138.094 66.3438 137.828 66.125C137.562 65.9062 137.258 65.737 136.914 65.6172C136.576 65.4922 136.214 65.4297 135.828 65.4297C135.115 65.4297 134.492 65.6094 133.961 65.9688C133.435 66.3281 133.026 66.8333 132.734 67.4844C132.443 68.1354 132.297 68.901 132.297 69.7812V69.7969C132.297 70.6719 132.443 71.4375 132.734 72.0938C133.026 72.7448 133.438 73.25 133.969 73.6094C134.5 73.9688 135.12 74.1484 135.828 74.1484ZM136.141 72.9453C135.63 72.9453 135.19 72.8203 134.82 72.5703C134.456 72.3151 134.174 71.9531 133.977 71.4844C133.784 71.0104 133.688 70.4479 133.688 69.7969V69.7812C133.688 69.125 133.784 68.5625 133.977 68.0938C134.174 67.625 134.456 67.2656 134.82 67.0156C135.19 66.7604 135.63 66.6328 136.141 66.6328C136.651 66.6328 137.091 66.7604 137.461 67.0156C137.831 67.2708 138.115 67.6328 138.312 68.1016C138.51 68.5703 138.609 69.1302 138.609 69.7812V69.7969C138.609 70.4427 138.51 71.0026 138.312 71.4766C138.115 71.9453 137.831 72.3073 137.461 72.5625C137.091 72.8177 136.651 72.9453 136.141 72.9453ZM142.578 74H143.938V65.5781H142.578V74ZM143.266 63.9531C143.526 63.9531 143.747 63.862 143.93 63.6797C144.112 63.4922 144.203 63.2708 144.203 63.0156C144.203 62.7552 144.112 62.5339 143.93 62.3516C143.747 62.1693 143.526 62.0781 143.266 62.0781C143.01 62.0781 142.789 62.1693 142.602 62.3516C142.419 62.5339 142.328 62.7552 142.328 63.0156C142.328 63.2708 142.419 63.4922 142.602 63.6797C142.789 63.862 143.01 63.9531 143.266 63.9531ZM149.492 74.0625C149.628 74.0625 149.76 74.0547 149.891 74.0391C150.021 74.0234 150.151 74.0052 150.281 73.9844V72.8281C150.156 72.8385 150.049 72.8464 149.961 72.8516C149.878 72.8568 149.776 72.8594 149.656 72.8594C149.219 72.8594 148.906 72.7526 148.719 72.5391C148.531 72.3203 148.438 71.9635 148.438 71.4688V66.7031H150.281V65.5781H148.438V63.3984H147.031V65.5781H145.703V66.7031H147.031V71.8125C147.031 72.6146 147.224 73.1901 147.609 73.5391C148 73.888 148.628 74.0625 149.492 74.0625ZM159.703 74.1484C160.344 74.1484 160.917 74.0417 161.422 73.8281C161.932 73.6146 162.336 73.3177 162.633 72.9375C162.93 72.5521 163.078 72.1094 163.078 71.6094V71.5938C163.078 70.9896 162.883 70.5078 162.492 70.1484C162.107 69.7891 161.518 69.513 160.727 69.3203L159.43 69.0078C159.102 68.9245 158.833 68.8281 158.625 68.7188C158.417 68.6094 158.263 68.4818 158.164 68.3359C158.065 68.1901 158.016 68.0234 158.016 67.8359V67.8203C158.016 67.5703 158.091 67.3516 158.242 67.1641C158.393 66.9766 158.599 66.8307 158.859 66.7266C159.12 66.6172 159.417 66.5625 159.75 66.5625C160.26 66.5625 160.674 66.6667 160.992 66.875C161.31 67.0833 161.513 67.3542 161.602 67.6875H162.938C162.875 67.2292 162.703 66.8307 162.422 66.4922C162.146 66.1536 161.779 65.8932 161.32 65.7109C160.867 65.5234 160.346 65.4297 159.758 65.4297C159.164 65.4297 158.63 65.5365 158.156 65.75C157.682 65.9635 157.307 66.2552 157.031 66.625C156.76 66.9948 156.625 67.4141 156.625 67.8828V67.8906C156.625 68.2917 156.706 68.6406 156.867 68.9375C157.029 69.2292 157.279 69.4766 157.617 69.6797C157.956 69.8776 158.388 70.0391 158.914 70.1641L160.219 70.4766C160.74 70.6016 161.115 70.7656 161.344 70.9688C161.573 71.1667 161.688 71.4089 161.688 71.6953V71.7109C161.688 71.9661 161.604 72.1927 161.438 72.3906C161.271 72.5833 161.042 72.737 160.75 72.8516C160.464 72.9609 160.13 73.0156 159.75 73.0156C159.214 73.0156 158.779 72.9089 158.445 72.6953C158.112 72.4818 157.888 72.2005 157.773 71.8516H156.383C156.435 72.3151 156.604 72.7188 156.891 73.0625C157.182 73.4062 157.568 73.6745 158.047 73.8672C158.526 74.0547 159.078 74.1484 159.703 74.1484ZM168.633 74.1484C169.31 74.1484 169.888 74.0365 170.367 73.8125C170.846 73.5885 171.232 73.2812 171.523 72.8906C171.815 72.4948 172.018 72.0443 172.133 71.5391L172.148 71.4531L170.805 71.4609L170.789 71.5078C170.633 71.9766 170.375 72.3333 170.016 72.5781C169.656 72.8229 169.193 72.9453 168.625 72.9453C168.125 72.9453 167.69 72.8151 167.32 72.5547C166.951 72.2943 166.664 71.9271 166.461 71.4531C166.258 70.974 166.156 70.4115 166.156 69.7656V69.75C166.156 69.1146 166.255 68.5651 166.453 68.1016C166.656 67.6328 166.943 67.2708 167.312 67.0156C167.682 66.7604 168.12 66.6328 168.625 66.6328C169.229 66.6328 169.716 66.7786 170.086 67.0703C170.456 67.362 170.693 67.7161 170.797 68.1328L170.805 68.1562H172.156L172.148 68.1094C172.065 67.6094 171.875 67.1589 171.578 66.7578C171.281 66.3516 170.885 66.0286 170.391 65.7891C169.896 65.5495 169.307 65.4297 168.625 65.4297C167.839 65.4297 167.156 65.6094 166.578 65.9688C166 66.3229 165.552 66.8229 165.234 67.4688C164.922 68.1146 164.766 68.875 164.766 69.75V69.7656C164.766 70.6562 164.924 71.4297 165.242 72.0859C165.56 72.7422 166.008 73.25 166.586 73.6094C167.164 73.9688 167.846 74.1484 168.633 74.1484ZM177.602 74.1484C178.404 74.1484 179.094 73.974 179.672 73.625C180.25 73.2708 180.695 72.7682 181.008 72.1172C181.326 71.4661 181.484 70.6927 181.484 69.7969V69.7812C181.484 68.8802 181.326 68.1042 181.008 67.4531C180.695 66.8021 180.25 66.3021 179.672 65.9531C179.094 65.6042 178.404 65.4297 177.602 65.4297C176.805 65.4297 176.115 65.6042 175.531 65.9531C174.953 66.3021 174.505 66.8021 174.188 67.4531C173.875 68.1042 173.719 68.8802 173.719 69.7812V69.7969C173.719 70.6927 173.875 71.4661 174.188 72.1172C174.505 72.7682 174.953 73.2708 175.531 73.625C176.115 73.974 176.805 74.1484 177.602 74.1484ZM177.602 72.9453C177.07 72.9453 176.62 72.8203 176.25 72.5703C175.88 72.3203 175.596 71.9609 175.398 71.4922C175.206 71.0234 175.109 70.4583 175.109 69.7969V69.7812C175.109 69.1146 175.206 68.5469 175.398 68.0781C175.596 67.6094 175.88 67.2526 176.25 67.0078C176.62 66.7578 177.07 66.6328 177.602 66.6328C178.133 66.6328 178.583 66.7578 178.953 67.0078C179.323 67.2526 179.604 67.6094 179.797 68.0781C179.995 68.5469 180.094 69.1146 180.094 69.7812V69.7969C180.094 70.4583 179.995 71.0234 179.797 71.4922C179.604 71.9609 179.323 72.3203 178.953 72.5703C178.583 72.8203 178.133 72.9453 177.602 72.9453ZM183.594 74H184.953V68.7812C184.953 68.3698 185.047 68.0104 185.234 67.7031C185.427 67.3958 185.69 67.1562 186.023 66.9844C186.357 66.8125 186.74 66.7266 187.172 66.7266C187.323 66.7266 187.464 66.7344 187.594 66.75C187.729 66.7604 187.867 66.7786 188.008 66.8047V65.4844C187.94 65.474 187.841 65.4635 187.711 65.4531C187.586 65.4375 187.458 65.4297 187.328 65.4297C186.76 65.4297 186.284 65.5521 185.898 65.7969C185.513 66.0417 185.24 66.3854 185.078 66.8281H184.953V65.5781H183.594V74ZM192.891 74.1484C193.385 74.1484 193.831 74.0859 194.227 73.9609C194.628 73.8307 194.974 73.6589 195.266 73.4453C195.557 73.2266 195.794 72.9844 195.977 72.7188C196.164 72.4479 196.294 72.1693 196.367 71.8828L196.383 71.8203H195.023L194.992 71.8906C194.919 72.0573 194.792 72.2214 194.609 72.3828C194.427 72.5443 194.195 72.6771 193.914 72.7812C193.633 72.8854 193.302 72.9375 192.922 72.9375C192.411 72.9375 191.969 72.8255 191.594 72.6016C191.219 72.3724 190.93 72.0469 190.727 71.625C190.523 71.1979 190.422 70.6849 190.422 70.0859V69.5469C190.422 68.9167 190.526 68.3854 190.734 67.9531C190.943 67.5208 191.224 67.1953 191.578 66.9766C191.938 66.7526 192.344 66.6406 192.797 66.6406C193.25 66.6406 193.651 66.7474 194 66.9609C194.349 67.1693 194.622 67.487 194.82 67.9141C195.018 68.3411 195.117 68.8854 195.117 69.5469V70.0859L195.789 69.0938H189.734V70.1797H196.484V69.6484C196.484 68.8099 196.336 68.0755 196.039 67.4453C195.747 66.8099 195.326 66.3151 194.773 65.9609C194.227 65.6068 193.57 65.4297 192.805 65.4297C192.044 65.4297 191.38 65.6146 190.812 65.9844C190.245 66.3542 189.805 66.8672 189.492 67.5234C189.185 68.1797 189.031 68.9427 189.031 69.8125V69.8203C189.031 70.7005 189.185 71.4661 189.492 72.1172C189.805 72.763 190.247 73.263 190.82 73.6172C191.398 73.9714 192.089 74.1484 192.891 74.1484Z" fill="#A8C1FF"/>
<path d="M449.523 70.1484C450.326 70.1484 451.016 69.974 451.594 69.625C452.172 69.2708 452.617 68.7682 452.93 68.1172C453.247 67.4661 453.406 66.6927 453.406 65.7969V65.7812C453.406 64.8802 453.247 64.1042 452.93 63.4531C452.617 62.8021 452.172 62.3021 451.594 61.9531C451.016 61.6042 450.326 61.4297 449.523 61.4297C448.727 61.4297 448.036 61.6042 447.453 61.9531C446.875 62.3021 446.427 62.8021 446.109 63.4531C445.797 64.1042 445.641 64.8802 445.641 65.7812V65.7969C445.641 66.6927 445.797 67.4661 446.109 68.1172C446.427 68.7682 446.875 69.2708 447.453 69.625C448.036 69.974 448.727 70.1484 449.523 70.1484ZM449.523 68.9453C448.992 68.9453 448.542 68.8203 448.172 68.5703C447.802 68.3203 447.518 67.9609 447.32 67.4922C447.128 67.0234 447.031 66.4583 447.031 65.7969V65.7812C447.031 65.1146 447.128 64.5469 447.32 64.0781C447.518 63.6094 447.802 63.2526 448.172 63.0078C448.542 62.7578 448.992 62.6328 449.523 62.6328C450.055 62.6328 450.505 62.7578 450.875 63.0078C451.245 63.2526 451.526 63.6094 451.719 64.0781C451.917 64.5469 452.016 65.1146 452.016 65.7812V65.7969C452.016 66.4583 451.917 67.0234 451.719 67.4922C451.526 67.9609 451.245 68.3203 450.875 68.5703C450.505 68.8203 450.055 68.9453 449.523 68.9453ZM458.336 70.1484C458.747 70.1484 459.115 70.0938 459.438 69.9844C459.766 69.875 460.047 69.7161 460.281 69.5078C460.516 69.2943 460.701 69.0391 460.836 68.7422H460.961V70H462.32V61.5781H460.961V66.5625C460.961 66.9323 460.911 67.2656 460.812 67.5625C460.719 67.8542 460.576 68.1042 460.383 68.3125C460.19 68.5156 459.951 68.6719 459.664 68.7812C459.383 68.8906 459.057 68.9453 458.688 68.9453C458.016 68.9453 457.531 68.7604 457.234 68.3906C456.943 68.0208 456.797 67.4583 456.797 66.7031V61.5781H455.438V67.0312C455.438 67.6927 455.544 68.2578 455.758 68.7266C455.977 69.1901 456.302 69.5443 456.734 69.7891C457.167 70.0286 457.701 70.1484 458.336 70.1484ZM467.852 70.0625C467.987 70.0625 468.12 70.0547 468.25 70.0391C468.38 70.0234 468.51 70.0052 468.641 69.9844V68.8281C468.516 68.8385 468.409 68.8464 468.32 68.8516C468.237 68.8568 468.135 68.8594 468.016 68.8594C467.578 68.8594 467.266 68.7526 467.078 68.5391C466.891 68.3203 466.797 67.9635 466.797 67.4688V62.7031H468.641V61.5781H466.797V59.3984H465.391V61.5781H464.062V62.7031H465.391V67.8125C465.391 68.6146 465.583 69.1901 465.969 69.5391C466.359 69.888 466.987 70.0625 467.852 70.0625ZM478.633 70.1484C479.435 70.1484 480.125 69.974 480.703 69.625C481.281 69.2708 481.727 68.7682 482.039 68.1172C482.357 67.4661 482.516 66.6927 482.516 65.7969V65.7812C482.516 64.8802 482.357 64.1042 482.039 63.4531C481.727 62.8021 481.281 62.3021 480.703 61.9531C480.125 61.6042 479.435 61.4297 478.633 61.4297C477.836 61.4297 477.146 61.6042 476.562 61.9531C475.984 62.3021 475.536 62.8021 475.219 63.4531C474.906 64.1042 474.75 64.8802 474.75 65.7812V65.7969C474.75 66.6927 474.906 67.4661 475.219 68.1172C475.536 68.7682 475.984 69.2708 476.562 69.625C477.146 69.974 477.836 70.1484 478.633 70.1484ZM478.633 68.9453C478.102 68.9453 477.651 68.8203 477.281 68.5703C476.911 68.3203 476.628 67.9609 476.43 67.4922C476.237 67.0234 476.141 66.4583 476.141 65.7969V65.7812C476.141 65.1146 476.237 64.5469 476.43 64.0781C476.628 63.6094 476.911 63.2526 477.281 63.0078C477.651 62.7578 478.102 62.6328 478.633 62.6328C479.164 62.6328 479.615 62.7578 479.984 63.0078C480.354 63.2526 480.635 63.6094 480.828 64.0781C481.026 64.5469 481.125 65.1146 481.125 65.7812V65.7969C481.125 66.4583 481.026 67.0234 480.828 67.4922C480.635 67.9609 480.354 68.3203 479.984 68.5703C479.615 68.8203 479.164 68.9453 478.633 68.9453ZM485.188 70H486.547V62.7031H488.461V61.5781H486.547V60.6797C486.547 60.2161 486.651 59.8672 486.859 59.6328C487.073 59.3984 487.422 59.2812 487.906 59.2812C488.026 59.2812 488.141 59.2839 488.25 59.2891C488.359 59.2943 488.456 59.3047 488.539 59.3203V58.2344C488.398 58.2083 488.253 58.1901 488.102 58.1797C487.956 58.1641 487.799 58.1562 487.633 58.1562C487.102 58.1562 486.654 58.2474 486.289 58.4297C485.924 58.6068 485.648 58.8802 485.461 59.25C485.279 59.6146 485.188 60.0781 485.188 60.6406V61.5781H483.789V62.7031H485.188V70ZM498.602 58.4609C497.846 58.4609 497.169 58.6276 496.57 58.9609C495.977 59.2943 495.508 59.7552 495.164 60.3438C494.826 60.9271 494.656 61.5938 494.656 62.3438V62.3594C494.656 63.0781 494.818 63.724 495.141 64.2969C495.464 64.8646 495.904 65.3125 496.461 65.6406C497.018 65.9688 497.648 66.1328 498.352 66.1328C498.862 66.1328 499.315 66.0521 499.711 65.8906C500.112 65.7292 500.451 65.5156 500.727 65.25C501.008 64.9844 501.216 64.6979 501.352 64.3906H501.625V62.3594H501.164V62.3672C501.164 62.8568 501.049 63.2943 500.82 63.6797C500.596 64.0599 500.292 64.3594 499.906 64.5781C499.521 64.7969 499.083 64.9062 498.594 64.9062C498.109 64.9062 497.677 64.7969 497.297 64.5781C496.917 64.3542 496.617 64.0495 496.398 63.6641C496.18 63.2734 496.07 62.8281 496.07 62.3281V62.3125C496.07 61.8229 496.185 61.3828 496.414 60.9922C496.643 60.5964 496.951 60.2839 497.336 60.0547C497.721 59.8203 498.148 59.7031 498.617 59.7031C499.096 59.7031 499.526 59.8229 499.906 60.0625C500.292 60.2969 500.596 60.6146 500.82 61.0156C501.049 61.4167 501.164 61.8646 501.164 62.3594L501.5 64.2344C501.5 64.3021 501.5 64.3724 501.5 64.4453C501.5 64.513 501.497 64.5833 501.492 64.6562C501.466 65.4375 501.349 66.1589 501.141 66.8203C500.932 67.4818 500.615 68.013 500.188 68.4141C499.76 68.8099 499.206 69.0078 498.523 69.0078C498.143 69.0078 497.802 68.9453 497.5 68.8203C497.203 68.6953 496.948 68.5182 496.734 68.2891C496.526 68.0599 496.365 67.7891 496.25 67.4766L496.219 67.3906H494.805L494.828 67.4922C494.958 68.0443 495.193 68.5286 495.531 68.9453C495.87 69.362 496.292 69.6875 496.797 69.9219C497.307 70.151 497.878 70.2656 498.508 70.2656C499.419 70.2656 500.198 70.026 500.844 69.5469C501.49 69.0625 501.984 68.3672 502.328 67.4609C502.672 66.5495 502.844 65.4531 502.844 64.1719V64.1562C502.844 63.0938 502.721 62.2005 502.477 61.4766C502.232 60.7474 501.904 60.1615 501.492 59.7188C501.086 59.276 500.63 58.9557 500.125 58.7578C499.625 58.5599 499.117 58.4609 498.602 58.4609ZM508.875 70.2656C509.708 70.2656 510.422 70.026 511.016 69.5469C511.609 69.0677 512.065 68.388 512.383 67.5078C512.706 66.6224 512.867 65.5755 512.867 64.3672V64.3516C512.867 63.1432 512.706 62.099 512.383 61.2188C512.065 60.3385 511.609 59.6589 511.016 59.1797C510.422 58.7005 509.708 58.4609 508.875 58.4609C508.042 58.4609 507.328 58.7005 506.734 59.1797C506.146 59.6589 505.693 60.3385 505.375 61.2188C505.057 62.099 504.898 63.1432 504.898 64.3516V64.3672C504.898 65.5755 505.057 66.6224 505.375 67.5078C505.693 68.388 506.146 69.0677 506.734 69.5469C507.328 70.026 508.042 70.2656 508.875 70.2656ZM508.875 69.0391C508.339 69.0391 507.878 68.849 507.492 68.4688C507.112 68.0885 506.82 67.5495 506.617 66.8516C506.414 66.1536 506.312 65.3255 506.312 64.3672V64.3516C506.312 63.3932 506.414 62.5677 506.617 61.875C506.82 61.1771 507.112 60.6406 507.492 60.2656C507.878 59.8854 508.339 59.6953 508.875 59.6953C509.417 59.6953 509.878 59.8854 510.258 60.2656C510.643 60.6406 510.938 61.1771 511.141 61.875C511.349 62.5677 511.453 63.3932 511.453 64.3516V64.3672C511.453 65.3255 511.349 66.1536 511.141 66.8516C510.938 67.5495 510.643 68.0885 510.258 68.4688C509.878 68.849 509.417 69.0391 508.875 69.0391ZM518.953 70.2656C519.786 70.2656 520.5 70.026 521.094 69.5469C521.688 69.0677 522.143 68.388 522.461 67.5078C522.784 66.6224 522.945 65.5755 522.945 64.3672V64.3516C522.945 63.1432 522.784 62.099 522.461 61.2188C522.143 60.3385 521.688 59.6589 521.094 59.1797C520.5 58.7005 519.786 58.4609 518.953 58.4609C518.12 58.4609 517.406 58.7005 516.812 59.1797C516.224 59.6589 515.771 60.3385 515.453 61.2188C515.135 62.099 514.977 63.1432 514.977 64.3516V64.3672C514.977 65.5755 515.135 66.6224 515.453 67.5078C515.771 68.388 516.224 69.0677 516.812 69.5469C517.406 70.026 518.12 70.2656 518.953 70.2656ZM518.953 69.0391C518.417 69.0391 517.956 68.849 517.57 68.4688C517.19 68.0885 516.898 67.5495 516.695 66.8516C516.492 66.1536 516.391 65.3255 516.391 64.3672V64.3516C516.391 63.3932 516.492 62.5677 516.695 61.875C516.898 61.1771 517.19 60.6406 517.57 60.2656C517.956 59.8854 518.417 59.6953 518.953 59.6953C519.495 59.6953 519.956 59.8854 520.336 60.2656C520.721 60.6406 521.016 61.1771 521.219 61.875C521.427 62.5677 521.531 63.3932 521.531 64.3516V64.3672C521.531 65.3255 521.427 66.1536 521.219 66.8516C521.016 67.5495 520.721 68.0885 520.336 68.4688C519.956 68.849 519.495 69.0391 518.953 69.0391Z" fill="#A8C1FF"/>
<path d="M90 41.6666V73.1515C90 74.1706 89.1727 74.9979 88.1536 74.9979H56.6674V60.2374H73.3925C74.4116 60.2374 75.2348 59.4102 75.2348 58.3911V41.6666H90Z" fill="white"/>
<path d="M41.8464 25H73.3326V56.4849C73.3326 57.504 72.5054 58.3313 71.4862 58.3313H40V26.8463C40 25.8272 40.8273 25 41.8464 25Z" fill="white"/>
<path d="M75.2368 25H88.0504C89.1253 25 89.9979 25.8726 89.9979 26.9474V39.7605H75.2368V25Z" fill="white"/>
<path d="M54.7632 60.2374V75H41.9475C40.8727 75 40 74.1273 40 73.0525V60.2374H54.7632Z" fill="white"/>
<rect x="219" y="26" width="112" height="28" rx="14" fill="white"/>
<g clip-path="url(#clip0_1215_4070)">
<path d="M238.667 37.1333C238.667 37.0412 238.742 36.9666 238.833 36.9666H242.833C242.925 36.9666 243 37.0412 243 37.1333V41.1333C243 41.225 242.925 41.3 242.833 41.3C242.742 41.3 242.667 41.225 242.667 41.1333V37.5354L237.785 42.4187C237.719 42.4833 237.615 42.4833 237.548 42.4187L234.981 39.8687L231.285 43.5854C231.219 43.65 231.114 43.65 231.049 43.5854C230.984 43.5187 230.984 43.4146 231.049 43.3479L234.881 39.5146C234.948 39.45 235.052 39.45 235.119 39.5146L237.667 42.0646L242.431 37.2812H238.833C238.742 37.2812 238.667 37.225 238.667 37.1146V37.1333Z" fill="#157F1F"/>
</g>
<circle cx="237" cy="40" r="10" fill="#157F1F" fill-opacity="0.1"/>
<path d="M256.938 46.1875C257.693 46.1875 258.365 46.0469 258.953 45.7656C259.542 45.4792 260.005 45.0885 260.344 44.5938C260.682 44.099 260.852 43.5391 260.852 42.9141V42.8984C260.852 42.0964 260.596 41.4531 260.086 40.9688C259.581 40.4792 258.917 40.2005 258.094 40.1328V40.1016C258.562 40.0026 258.977 39.8333 259.336 39.5938C259.695 39.3542 259.977 39.0547 260.18 38.6953C260.383 38.3359 260.484 37.9245 260.484 37.4609V37.4453C260.484 36.8724 260.336 36.3698 260.039 35.9375C259.747 35.5 259.333 35.1589 258.797 34.9141C258.266 34.6641 257.641 34.5391 256.922 34.5391C256.219 34.5391 255.596 34.6667 255.055 34.9219C254.518 35.1771 254.086 35.5339 253.758 35.9922C253.435 36.4505 253.242 36.987 253.18 37.6016L253.172 37.6797H254.523L254.531 37.6016C254.573 37.2214 254.698 36.8932 254.906 36.6172C255.115 36.3411 255.391 36.1302 255.734 35.9844C256.083 35.8333 256.479 35.7578 256.922 35.7578C257.38 35.7578 257.768 35.8307 258.086 35.9766C258.409 36.1224 258.654 36.3333 258.82 36.6094C258.987 36.8854 259.07 37.2214 259.07 37.6172V37.6328C259.07 38.0078 258.974 38.3438 258.781 38.6406C258.589 38.9323 258.32 39.1641 257.977 39.3359C257.633 39.5026 257.237 39.5859 256.789 39.5859H255.438V40.7734H256.852C257.643 40.7734 258.268 40.9609 258.727 41.3359C259.19 41.7057 259.422 42.237 259.422 42.9297V42.9453C259.422 43.3411 259.318 43.6927 259.109 44C258.901 44.3021 258.609 44.5391 258.234 44.7109C257.865 44.8828 257.432 44.9688 256.938 44.9688C256.438 44.9688 255.995 44.8906 255.609 44.7344C255.229 44.5729 254.924 44.3516 254.695 44.0703C254.471 43.7891 254.341 43.4635 254.305 43.0938L254.297 43.0156H252.945L252.953 43.1094C253.005 43.7031 253.198 44.2318 253.531 44.6953C253.87 45.1589 254.328 45.5234 254.906 45.7891C255.484 46.0547 256.161 46.1875 256.938 46.1875ZM266.906 46.2656C267.74 46.2656 268.453 46.026 269.047 45.5469C269.641 45.0677 270.096 44.388 270.414 43.5078C270.737 42.6224 270.898 41.5755 270.898 40.3672V40.3516C270.898 39.1432 270.737 38.099 270.414 37.2188C270.096 36.3385 269.641 35.6589 269.047 35.1797C268.453 34.7005 267.74 34.4609 266.906 34.4609C266.073 34.4609 265.359 34.7005 264.766 35.1797C264.177 35.6589 263.724 36.3385 263.406 37.2188C263.089 38.099 262.93 39.1432 262.93 40.3516V40.3672C262.93 41.5755 263.089 42.6224 263.406 43.5078C263.724 44.388 264.177 45.0677 264.766 45.5469C265.359 46.026 266.073 46.2656 266.906 46.2656ZM266.906 45.0391C266.37 45.0391 265.909 44.849 265.523 44.4688C265.143 44.0885 264.852 43.5495 264.648 42.8516C264.445 42.1536 264.344 41.3255 264.344 40.3672V40.3516C264.344 39.3932 264.445 38.5677 264.648 37.875C264.852 37.1771 265.143 36.6406 265.523 36.2656C265.909 35.8854 266.37 35.6953 266.906 35.6953C267.448 35.6953 267.909 35.8854 268.289 36.2656C268.674 36.6406 268.969 37.1771 269.172 37.875C269.38 38.5677 269.484 39.3932 269.484 40.3516V40.3672C269.484 41.3255 269.38 42.1536 269.172 42.8516C268.969 43.5495 268.674 44.0885 268.289 44.4688C267.909 44.849 267.448 45.0391 266.906 45.0391ZM277.719 48.8125H279.078V44.6719H279.203C279.359 44.974 279.568 45.2344 279.828 45.4531C280.094 45.6719 280.396 45.8438 280.734 45.9688C281.078 46.0885 281.443 46.1484 281.828 46.1484C282.542 46.1484 283.161 45.9688 283.688 45.6094C284.219 45.25 284.63 44.7448 284.922 44.0938C285.214 43.4427 285.359 42.6771 285.359 41.7969V41.7812C285.359 40.9062 285.214 40.1432 284.922 39.4922C284.63 38.8411 284.219 38.3359 283.688 37.9766C283.161 37.612 282.542 37.4297 281.828 37.4297C281.438 37.4297 281.076 37.4896 280.742 37.6094C280.409 37.7292 280.112 37.901 279.852 38.125C279.591 38.3438 279.375 38.6094 279.203 38.9219H279.078V37.5781H277.719V48.8125ZM281.516 44.9453C281.005 44.9453 280.565 44.8177 280.195 44.5625C279.826 44.3073 279.542 43.9453 279.344 43.4766C279.146 43.0026 279.047 42.4427 279.047 41.7969V41.7812C279.047 41.1302 279.146 40.5703 279.344 40.1016C279.542 39.6328 279.826 39.2708 280.195 39.0156C280.565 38.7604 281.005 38.6328 281.516 38.6328C282.031 38.6328 282.471 38.7604 282.836 39.0156C283.201 39.2656 283.479 39.625 283.672 40.0938C283.87 40.5625 283.969 41.125 283.969 41.7812V41.7969C283.969 42.4479 283.87 43.0104 283.672 43.4844C283.479 43.9531 283.201 44.3151 282.836 44.5703C282.471 44.8203 282.031 44.9453 281.516 44.9453ZM290.945 46.1484C291.747 46.1484 292.438 45.974 293.016 45.625C293.594 45.2708 294.039 44.7682 294.352 44.1172C294.669 43.4661 294.828 42.6927 294.828 41.7969V41.7812C294.828 40.8802 294.669 40.1042 294.352 39.4531C294.039 38.8021 293.594 38.3021 293.016 37.9531C292.438 37.6042 291.747 37.4297 290.945 37.4297C290.148 37.4297 289.458 37.6042 288.875 37.9531C288.297 38.3021 287.849 38.8021 287.531 39.4531C287.219 40.1042 287.062 40.8802 287.062 41.7812V41.7969C287.062 42.6927 287.219 43.4661 287.531 44.1172C287.849 44.7682 288.297 45.2708 288.875 45.625C289.458 45.974 290.148 46.1484 290.945 46.1484ZM290.945 44.9453C290.414 44.9453 289.964 44.8203 289.594 44.5703C289.224 44.3203 288.94 43.9609 288.742 43.4922C288.549 43.0234 288.453 42.4583 288.453 41.7969V41.7812C288.453 41.1146 288.549 40.5469 288.742 40.0781C288.94 39.6094 289.224 39.2526 289.594 39.0078C289.964 38.7578 290.414 38.6328 290.945 38.6328C291.477 38.6328 291.927 38.7578 292.297 39.0078C292.667 39.2526 292.948 39.6094 293.141 40.0781C293.339 40.5469 293.438 41.1146 293.438 41.7812V41.7969C293.438 42.4583 293.339 43.0234 293.141 43.4922C292.948 43.9609 292.667 44.3203 292.297 44.5703C291.927 44.8203 291.477 44.9453 290.945 44.9453ZM296.969 46H298.328V37.5781H296.969V46ZM297.656 35.9531C297.917 35.9531 298.138 35.862 298.32 35.6797C298.503 35.4922 298.594 35.2708 298.594 35.0156C298.594 34.7552 298.503 34.5339 298.32 34.3516C298.138 34.1693 297.917 34.0781 297.656 34.0781C297.401 34.0781 297.18 34.1693 296.992 34.3516C296.81 34.5339 296.719 34.7552 296.719 35.0156C296.719 35.2708 296.81 35.4922 296.992 35.6797C297.18 35.862 297.401 35.9531 297.656 35.9531ZM300.891 46H302.25V41.0156C302.25 40.5208 302.339 40.0964 302.516 39.7422C302.698 39.388 302.953 39.1146 303.281 38.9219C303.609 38.7292 303.997 38.6328 304.445 38.6328C305.117 38.6328 305.612 38.8177 305.93 39.1875C306.253 39.5521 306.414 40.1146 306.414 40.875V46H307.773V40.5469C307.773 39.5469 307.518 38.7786 307.008 38.2422C306.503 37.7005 305.776 37.4297 304.828 37.4297C304.208 37.4297 303.698 37.5547 303.297 37.8047C302.896 38.0495 302.589 38.3958 302.375 38.8438H302.25V37.5781H300.891V46ZM313.227 46.0625C313.362 46.0625 313.495 46.0547 313.625 46.0391C313.755 46.0234 313.885 46.0052 314.016 45.9844V44.8281C313.891 44.8385 313.784 44.8464 313.695 44.8516C313.612 44.8568 313.51 44.8594 313.391 44.8594C312.953 44.8594 312.641 44.7526 312.453 44.5391C312.266 44.3203 312.172 43.9635 312.172 43.4688V38.7031H314.016V37.5781H312.172V35.3984H310.766V37.5781H309.438V38.7031H310.766V43.8125C310.766 44.6146 310.958 45.1901 311.344 45.5391C311.734 45.888 312.362 46.0625 313.227 46.0625ZM318.781 46.1484C319.422 46.1484 319.995 46.0417 320.5 45.8281C321.01 45.6146 321.414 45.3177 321.711 44.9375C322.008 44.5521 322.156 44.1094 322.156 43.6094V43.5938C322.156 42.9896 321.961 42.5078 321.57 42.1484C321.185 41.7891 320.596 41.513 319.805 41.3203L318.508 41.0078C318.18 40.9245 317.911 40.8281 317.703 40.7188C317.495 40.6094 317.341 40.4818 317.242 40.3359C317.143 40.1901 317.094 40.0234 317.094 39.8359V39.8203C317.094 39.5703 317.169 39.3516 317.32 39.1641C317.471 38.9766 317.677 38.8307 317.938 38.7266C318.198 38.6172 318.495 38.5625 318.828 38.5625C319.339 38.5625 319.753 38.6667 320.07 38.875C320.388 39.0833 320.591 39.3542 320.68 39.6875H322.016C321.953 39.2292 321.781 38.8307 321.5 38.4922C321.224 38.1536 320.857 37.8932 320.398 37.7109C319.945 37.5234 319.424 37.4297 318.836 37.4297C318.242 37.4297 317.708 37.5365 317.234 37.75C316.76 37.9635 316.385 38.2552 316.109 38.625C315.839 38.9948 315.703 39.4141 315.703 39.8828V39.8906C315.703 40.2917 315.784 40.6406 315.945 40.9375C316.107 41.2292 316.357 41.4766 316.695 41.6797C317.034 41.8776 317.466 42.0391 317.992 42.1641L319.297 42.4766C319.818 42.6016 320.193 42.7656 320.422 42.9688C320.651 43.1667 320.766 43.4089 320.766 43.6953V43.7109C320.766 43.9661 320.682 44.1927 320.516 44.3906C320.349 44.5833 320.12 44.737 319.828 44.8516C319.542 44.9609 319.208 45.0156 318.828 45.0156C318.292 45.0156 317.857 44.9089 317.523 44.6953C317.19 44.4818 316.966 44.2005 316.852 43.8516H315.461C315.513 44.3151 315.682 44.7188 315.969 45.0625C316.26 45.4062 316.646 45.6745 317.125 45.8672C317.604 46.0547 318.156 46.1484 318.781 46.1484Z" fill="#262B3F"/>
<defs>
<clipPath id="clip0_1215_4070">
<rect width="12" height="10.6667" fill="white" transform="translate(231 34.8)"/>
</clipPath>
</defs>
</svg>
