<svg width="100" height="100" viewBox="0 0 100 100" fill="none" xmlns="http://www.w3.org/2000/svg">
<circle cx="50" cy="50" r="49.5" stroke="#97A0AF"/>
<path d="M46.6562 41.9117C47.6875 41.4852 48.8164 41.25 50 41.25C54.0469 41.25 57.4531 43.9961 58.4531 47.7305C58.2852 47.8281 58.1445 47.8789 57.9531 47.8398L56.7227 47.6016C56.457 47.543 56.1562 47.6875 56.0195 47.9609C55.793 48.4141 55.2695 48.5977 54.7891 48.4727L54.2383 48.2891C53.9375 48.1875 53.6094 48.2656 53.3867 48.4883C53.207 48.6328 53.207 48.832 53.3867 49.0117L54.6953 50.3203C54.8906 50.5156 55 50.7461 55 51.0586C55 51.5391 54.6719 51.957 54.207 52.0742L54 52.125C53.8516 52.1602 53.75 52.293 53.75 52.4453V52.918C53.75 53.457 53.5742 53.9492 53.25 54.418L52.25 55.75C52.0156 56.0664 51.6445 56.25 51.25 56.25C50.5586 56.25 50 55.6914 50 55V53.125C50 52.7812 49.7188 52.5 49.375 52.5H48.125C47.0898 52.5 46.25 51.6602 46.25 50.625V49.5312C46.25 49.0391 46.4805 48.5781 46.875 48.2812L48.4141 47.1289C48.5977 46.9648 48.8984 46.875 49.1719 46.875C49.3047 46.875 49.4414 46.8984 49.5352 46.9414L50.7852 47.3555C51.1016 47.4492 51.4023 47.4609 51.6914 47.3906L53.0742 47.043C53.4727 46.9453 53.75 46.5859 53.75 46.1758C53.75 45.8398 53.5586 45.5312 53.2578 45.3789L52.1133 44.8086C51.9727 44.7344 51.7969 44.7305 51.6836 44.8789L51.5313 45.0312C51.3516 45.2109 51.1055 45.3125 50.8516 45.3125C50.668 45.3125 50.5547 45.2773 50.4219 45.2109L49.8281 44.9141C49.5625 44.7812 49.2422 44.8516 49.0586 45.082L48.5273 45.7461C48.3125 45.9805 47.9141 46.0391 47.668 45.793C47.5625 45.6875 47.5 45.5391 47.5 45.3867V43.7695C47.5 43.552 47.4414 43.3383 47.3359 43.1492L46.7227 42.0762C46.6914 42.0227 46.668 41.9676 46.6562 41.9117Z" fill="#262B3F"/>
<path opacity="0.4" d="M46.7227 42.0762L47.3359 43.1492C47.4414 43.3383 47.4648 43.552 47.4648 43.7696V45.3867C47.4648 45.5391 47.5625 45.6875 47.668 45.793C47.9141 46.0391 48.3125 45.9805 48.5273 45.7461L49.0586 45.0821C49.2422 44.8516 49.5625 44.7813 49.8281 44.9141L50.4219 45.211C50.5547 45.2774 50.668 45.2774 50.8516 45.2774C51.1055 45.2774 51.3516 45.211 51.5312 45.0313L51.6836 44.875C51.7969 44.7305 51.9727 44.7344 52.1133 44.8086L53.2578 45.3789C53.5586 45.5313 53.75 45.8399 53.75 46.1758C53.75 46.586 53.4727 46.9453 53.0742 47.043L51.6914 47.3906C51.4023 47.461 51.1016 47.4492 50.7852 47.3555L49.5352 46.9414C49.4414 46.8985 49.3047 46.875 49.1719 46.875C48.8984 46.875 48.5977 46.9649 48.4141 47.1289L46.8398 48.2813C46.4805 48.5781 46.2148 49.0391 46.2148 49.5313V50.625C46.2148 51.6602 47.0898 52.5 48.0898 52.5H49.3398C49.7188 52.5 49.9648 52.7813 49.9648 53.125V55C49.9648 55.6914 50.5586 56.25 51.25 56.25C51.6445 56.25 52.0156 56.0664 52.25 55.75L53.25 54.418C53.5742 53.9492 53.75 53.4571 53.75 52.918V52.4453C53.75 52.293 53.8516 52.1602 54 52.125L54.207 52.0742C54.6719 51.9571 55 51.5391 55 51.0586C55 50.7461 54.8906 50.5156 54.6953 50.3203L53.3867 49.0117C53.207 48.8321 53.207 48.6328 53.3867 48.4883C53.6094 48.2656 53.9375 48.1875 54.2383 48.2891L54.7891 48.4727C55.2695 48.5977 55.793 48.4141 56.0195 47.961C56.1562 47.6875 56.457 47.543 56.7227 47.6016L57.9531 47.8399C58.1445 47.8789 58.2852 47.8281 58.4531 47.7305C58.6484 48.4531 58.75 49.2149 58.75 49.9649C58.75 54.8321 54.832 58.75 50 58.75C45.168 58.75 41.25 54.8321 41.25 49.9649C41.25 46.3516 43.4828 43.225 46.6562 41.9117C46.668 41.9676 46.6914 42.0227 46.7227 42.0762Z" fill="#262B3F"/>
</svg>
