<svg width="351" height="59" viewBox="0 0 351 59" fill="none" xmlns="http://www.w3.org/2000/svg">
<g clip-path="url(#clip0_2090_594)">
<path d="M27.7627 25.3574C33.7119 23.8511 40.4047 19.583 40.4047 12.3021C40.4047 1.50638 30.2415 1.50638 25.036 1.50638H3.71822C4.70975 2.00851 5.20551 4.77021 5.20551 8.53617C5.20551 13.0553 4.95763 19.3319 4.21398 27.8681L3.9661 31.383C2.97458 46.1957 2.47881 54.7319 0 56.7404H19.0869C33.7119 56.7404 42.6356 49.2085 42.6356 39.417C42.8835 30.3787 36.4386 26.3617 27.7627 25.3574ZM15.1208 19.834C15.3686 15.817 15.8644 11.8 16.3602 8.03404C17.5996 7.78298 19.0869 7.78298 20.0784 7.78298C26.5233 7.78298 29.4979 10.5447 29.4979 14.3106C29.4979 20.8383 23.053 23.3489 16.1123 23.3489H14.8729L15.1208 19.834ZM18.5911 49.7106C14.8729 49.7106 13.3856 48.7064 13.3856 48.2043C13.3856 44.6894 13.6335 41.9277 13.8814 38.1617L14.3771 30.1277H18.3432C25.5318 30.1277 31.233 32.3872 31.233 39.6681C31.233 46.1957 26.2754 49.7106 18.5911 49.7106ZM338.854 24.6043C333.4 21.0894 328.195 18.0766 328.195 14.0596C328.195 9.0383 332.409 7.02979 337.119 7.02979C342.572 7.02979 347.282 10.2936 349.513 14.3106L351 1.25532C347.282 1.25532 343.564 0.251064 337.614 0.251064C327.451 0.251064 317.536 4.26809 317.536 16.0681C317.536 24.1021 323.237 28.3702 332.161 33.8936C336.375 36.4043 339.845 39.166 339.845 43.183C339.845 48.2043 335.631 50.966 329.93 50.966C322.494 50.966 317.536 46.6979 314.809 40.9234L313.818 54.7319C319.519 56.9915 324.477 57.7447 329.186 57.7447C340.837 57.7447 350.752 51.217 350.752 40.9234C350.752 32.8894 344.803 28.3702 338.854 24.6043ZM299.936 26.8638C302.663 22.3447 315.305 2.00851 318.28 1.50638H303.655C304.15 2.00851 304.398 3.51489 304.398 4.77021C304.398 6.52766 303.655 8.03404 302.911 9.54043C299.441 15.0638 296.962 19.3319 292.996 25.1064C291.508 20.5872 288.782 14.5617 285.311 6.2766C283.08 1.25532 282.089 0.753192 278.371 0.753192C276.388 0.753192 271.926 1.00426 268.703 1.25532C270.686 2.25957 273.661 7.02979 276.388 12.0511C280.602 20.0851 283.328 26.8638 285.311 33.8936C285.559 38.6638 284.32 54.2298 281.841 56.7404H296.714C295.475 55.4851 295.227 52.2213 295.227 49.7106C295.227 43.6851 295.722 38.1617 296.466 34.1447C296.962 31.8851 298.697 29.1234 299.936 26.8638ZM139.557 47.4511L128.403 32.3872C127.659 31.383 126.419 29.6255 125.676 29.1234C132.864 26.8638 138.814 22.0936 138.814 13.3064C138.814 2.51064 129.642 1.50638 123.197 1.50638H102.871C103.862 2.00851 104.358 4.51915 104.358 8.53617C104.358 13.0553 104.11 19.3319 103.367 27.8681L103.119 31.383C101.879 48.4553 101.136 54.983 98.9047 56.7404H113.778C112.786 56.2383 112.29 53.4766 112.29 49.7106C112.29 46.4468 112.538 41.9277 112.786 36.1532L113.034 32.1362H113.282C115.265 32.1362 116.008 33.3915 117.248 34.8979L132.617 56.4894C133.856 58.2468 134.847 59 139.061 59C141.788 59 146.002 58.7489 148.977 58.4979C147.242 57.2425 146.498 56.7404 139.557 47.4511ZM116.504 25.1064C115.761 25.1064 114.769 25.1064 114.025 24.8553L114.273 21.0894C114.769 14.5617 115.017 10.2936 115.513 8.03404C116.752 7.78298 118.487 7.78298 119.727 7.78298C124.932 7.78298 127.907 10.2936 127.907 14.5617C127.907 21.0894 123.197 25.1064 116.504 25.1064ZM86.0148 31.8851L83.7839 23.3489C81.0572 13.3064 77.8347 1.50638 77.8347 1.50638H65.9364C66.4322 2.00851 66.6801 3.26383 66.6801 4.51915C66.6801 5.77447 62.9619 14.0596 59.4915 21.5915L55.7733 29.8766C49.0805 44.1872 44.3708 52.9745 40.6525 56.7404H53.7903C53.5424 56.2383 53.5424 54.983 53.5424 54.2298C53.5424 51.217 56.2691 45.9447 57.2606 43.434L58.5 41.1745H64.9449C71.3898 41.1745 75.3559 40.4213 77.8347 39.417L79.0742 44.1872C82.7924 57.2426 83.2881 57.4936 87.9979 57.4936C89.4852 57.4936 93.2034 57.2426 96.4258 56.9915C92.7076 53.7277 90.2288 46.6979 86.0148 31.8851ZM61.4746 33.3915L70.3983 14.0596L75.8517 33.3915H61.4746ZM157.653 30.6298C157.653 19.583 162.362 6.77872 174.013 6.77872C179.962 6.77872 184.424 10.0426 186.903 15.0638L188.39 1.00426C183.68 1.00426 180.953 0 175.004 0C156.165 0 146.25 14.3106 146.25 32.6383C146.25 45.9447 154.43 57.7447 168.559 57.7447C179.466 57.7447 185.911 52.2213 188.886 42.9319C181.945 47.9532 177.731 49.2085 173.021 49.2085C164.345 49.2085 157.653 42.6809 157.653 30.6298ZM263.994 31.8851L261.763 23.3489C260.771 19.583 255.814 1.50638 255.814 1.50638H243.915C244.411 2.00851 244.659 3.26383 244.659 4.51915C244.659 6.02553 241.189 13.8085 237.47 21.5915L233.752 29.8766C231.025 36.1532 228.051 41.9277 225.324 46.6979C221.11 49.4596 218.879 49.7106 209.955 49.7106C207.477 49.7106 206.485 49.2085 206.485 46.6979C206.485 41.1745 207.229 35.6511 207.477 30.1277L207.725 26.8638C208.716 12.0511 209.46 3.01277 211.691 1.75745H196.818C197.809 3.01277 198.057 5.02128 198.305 8.78723C198.305 13.3064 198.057 19.583 197.314 28.1191L197.066 31.634C196.074 46.4468 195.331 54.4809 193.1 56.9915H231.769C231.521 56.4894 231.521 55.234 231.521 54.4809C231.521 51.4681 233.752 47.2 235.239 43.6851L236.479 41.4255H242.924C249.369 41.4255 253.335 40.6723 255.814 39.6681L257.053 44.4383C260.771 57.4936 261.267 57.7447 265.977 57.7447C267.464 57.7447 271.43 57.4936 274.405 57.2425C270.439 53.7277 267.96 46.6979 263.994 31.8851ZM239.453 33.3915L248.377 14.0596L253.83 33.3915H239.453Z" fill="#C7C7C7"/>
</g>
<defs>
<clipPath id="clip0_2090_594">
<rect width="351" height="59" fill="white"/>
</clipPath>
</defs>
</svg>
