<svg width="337" height="61" viewBox="0 0 337 61" fill="none" xmlns="http://www.w3.org/2000/svg">
<g clip-path="url(#clip0_2090_596)">
<mask id="mask0_2090_596" style="mask-type:luminance" maskUnits="userSpaceOnUse" x="0" y="0" width="337" height="61">
<path d="M336.689 0H0V61H336.689V0Z" fill="white"/>
</mask>
<g mask="url(#mask0_2090_596)">
<path d="M331.861 3.89917C334.514 3.89917 336.689 5.9325 336.689 8.5878C336.689 11.2431 334.514 13.2764 331.861 13.2764C329.208 13.2764 327.033 11.2431 327.033 8.5878C327.177 5.9325 329.208 3.89917 331.861 3.89917ZM331.861 4.52113C329.686 4.52113 327.965 6.24348 327.965 8.42035C327.965 10.5972 329.686 12.487 331.861 12.487C334.036 12.487 335.757 10.7647 335.757 8.5878C335.757 6.38701 334.036 4.52113 331.861 4.52113ZM331.072 11.2431H330.14V6.07603C330.618 6.07603 331.072 5.90858 331.694 5.90858C332.483 5.90858 333.104 6.07603 333.415 6.38701C333.725 6.55446 333.893 7.00897 333.893 7.48741C333.893 8.10937 333.415 8.5878 332.793 8.73133C333.271 8.89878 333.582 9.20976 333.725 9.97525C333.893 10.7647 334.036 11.0756 334.036 11.2192H333.104C332.937 11.0517 332.793 10.5972 332.793 9.8078C332.626 9.18584 332.315 8.87486 331.694 8.87486H331.072V11.2431ZM331.072 8.42035H331.694C332.483 8.42035 332.937 8.10937 332.937 7.48741C332.937 7.00897 332.626 6.55446 331.694 6.55446C331.383 6.55446 331.216 6.55446 331.072 6.55446V8.42035Z" fill="#D3D3D3"/>
<path d="M0 46.1686L10.7553 0H53.2986L51.267 9.35333H27.8921L26.1713 17.1518H46.4391L44.4075 26.1941H23.9963L21.8213 36.3608H45.8177L43.6427 46.1926H0V46.1686Z" fill="#D3D3D3"/>
<path d="M51.6015 19.0416C55.9753 2.82279 67.4955 2.96632 81.3818 3.2773C90.8943 3.44475 105.545 3.58828 102.892 17.9412C102.892 17.9412 102.271 22.0079 101.339 26.3616H86.5205L116.444 61H96.487L83.5568 46.0251C83.5568 46.0251 78.5615 47.7475 70.7699 47.4365C62.9783 47.1255 48.4705 47.4365 48.9485 34.184C49.2592 27.462 51.6015 19.0416 51.6015 19.0416ZM69.8378 16.8408C66.8741 24.9502 65.7746 32.4377 65.7746 32.4377C64.6752 37.8918 68.8817 39.9251 72.7775 39.9251C76.0519 39.9251 80.5692 38.0593 81.9793 34.3036C84.943 26.5051 86.0424 18.5393 86.0424 18.5393C87.4526 9.80789 79.0395 11.0518 79.0395 11.0518C72.3234 10.5973 69.8378 16.8408 69.8378 16.8408Z" fill="#D3D3D3"/>
<path d="M110.66 5.14319H127.965C127.965 5.14319 122.348 28.7059 121.272 34.6385C121.272 34.6385 121.44 39.4706 126.722 39.4706C126.722 39.4706 133.581 40.571 134.991 34.9495L141.994 5.14319H159.609C159.609 5.14319 152.917 34.6385 151.817 38.3702C150.718 41.9585 144.814 46.9581 131.717 47.5801C129.375 47.7475 125.479 47.5801 120.962 46.9581L105.068 28.8495C105.068 28.8734 109.274 9.97535 110.66 5.14319Z" fill="#D3D3D3"/>
<path d="M166.158 5.14319H183.773L174.26 46.0251H156.956L166.158 5.14319Z" fill="#D3D3D3"/>
<path d="M198.735 46.0251H181.287L190.489 5.14319H228.515L226.483 13.1091H206.383L204.519 20.764H221.655L219.935 28.5624H202.941L198.735 46.0251Z" fill="#D3D3D3"/>
<path d="M222.587 46.0251H210.422L240.202 5.14319H261.402L265.609 38.3702L279.782 25.7397L265.776 5.14319H288.386L295.078 15.5969L306.001 5.14319H323.138L300.838 24.1848L315.489 46.0251H293.811L286.474 33.8491L274.308 46.0251H248.113L247.325 37.1263H228.778L222.587 46.0251ZM234.896 28.2275H245.962L244.552 14.8075L234.896 28.2275Z" fill="#D3D3D3"/>
</g>
</g>
<defs>
<clipPath id="clip0_2090_596">
<rect width="337" height="61" fill="white"/>
</clipPath>
</defs>
</svg>
