<svg width="317" height="49" viewBox="0 0 317 49" fill="none" xmlns="http://www.w3.org/2000/svg">
<g clip-path="url(#clip0_2090_613)">
<path d="M153.973 0.00938428C150.371 -0.0517976 146.862 1.18195 144.048 3.49846C141.08 6.02901 139.023 9.51261 138.205 13.3913C137.586 4.47002 133.411 0.00938428 125.682 0.00938428C122.206 -0.0735274 118.816 1.13062 116.128 3.40327C113.369 5.83745 111.476 9.15072 110.75 12.8185V12.149C110.781 9.52288 110.403 6.90865 109.63 4.40611C109.369 3.28605 108.996 2.19698 108.516 1.15649H99.1475V47.514H110.935V22.4674C110.996 18.2616 111.924 15.0116 113.717 12.7174C114.59 11.5909 115.709 10.6924 116.982 10.0945C118.255 9.49661 119.647 9.21622 121.045 9.27605C123.394 9.27505 125.048 9.86471 126.007 11.045C126.966 12.2254 127.445 14.185 127.445 16.9237V47.514H139.225V22.4747C139.287 18.2689 140.199 15.0189 141.961 12.7247C142.838 11.5896 143.963 10.6855 145.245 10.0871C146.527 9.48869 147.929 9.21314 149.335 9.28319C151.685 9.28221 153.339 9.87192 154.298 11.0523C155.256 12.2326 155.736 14.1921 155.736 16.9308V47.5213H167.516V16.3537C167.52 10.9368 166.314 6.8585 163.898 4.11886C161.482 1.37921 158.173 0.00938428 153.973 0.00938428Z" fill="#D3D3D3"/>
<path d="M195.733 0.0159965C189.054 0.0121368 183.628 2.12842 179.455 6.36484C175.281 10.6015 173.194 16.3526 173.194 23.6183V23.8087C173.199 31.9652 175.365 38.1305 179.693 42.3045C184.137 46.3383 189.856 48.5642 195.778 48.5653C201.701 48.5667 207.42 46.3434 211.866 42.3115C216.195 38.1386 218.359 31.9415 218.359 23.7206V23.5302C218.363 16.2654 216.263 10.5302 212.058 6.32455C207.854 2.1188 202.412 0.015947 195.733 0.0159965ZM206.405 25.1449C206.404 35.4676 202.849 40.6289 195.738 40.6289V40.6322C188.685 40.6322 185.16 35.4706 185.165 25.1478V21.7063C185.166 17.3736 186.109 14.0284 187.993 11.6707C188.93 10.5036 190.118 9.57666 191.462 8.96293C192.806 8.34921 194.27 8.06544 195.738 8.13399C197.213 8.06694 198.684 8.35114 200.035 8.96448C201.387 9.57785 202.583 10.5039 203.531 11.6707C205.447 14.0322 206.405 17.3774 206.405 21.7063V25.1449Z" fill="#D3D3D3"/>
<path d="M251.688 0.00860414C247.964 -0.116179 244.317 1.11966 241.392 3.49767C238.539 5.94596 236.604 9.34289 235.92 13.1033V12.1482C235.955 9.52233 235.579 6.90778 234.807 4.40534C234.544 3.28501 234.168 2.19594 233.686 1.15572H224.305V47.5134H236.102V22.4739C236.101 18.3316 237.106 15.0975 239.116 12.7715C240.093 11.6299 241.302 10.7251 242.658 10.1218C244.014 9.51863 245.482 9.23198 246.958 9.28245C251.966 9.28245 254.47 11.8317 254.47 16.9301V47.5205H266.159V16.3529C266.159 10.936 264.893 6.85771 262.355 4.1181C259.818 1.37843 256.262 0.00860414 251.688 0.00860414Z" fill="#D3D3D3"/>
<path d="M310.692 6.32453C306.486 2.11879 301.047 0.015947 294.369 0.0159965C287.688 0.0121368 282.262 2.12842 278.088 6.36484C273.915 10.6015 271.828 16.3526 271.828 23.6183V23.8087C271.828 31.9652 273.994 38.1305 278.321 42.3045C282.769 46.3393 288.489 48.5653 294.414 48.5653C300.339 48.5653 306.061 46.3393 310.507 42.3045C314.837 38.1313 317 31.9344 317 23.7135V23.5231C317 16.263 314.897 10.5301 310.692 6.32453ZM305.036 25.1449C305.033 35.4676 301.478 40.6289 294.369 40.6289V40.6322C287.318 40.6322 283.794 35.4706 283.794 25.1478V21.7063C283.797 17.3736 284.74 14.0284 286.624 11.6707C287.561 10.5034 288.748 9.57638 290.092 8.96266C291.437 8.34891 292.9 8.06522 294.369 8.13399C295.843 8.06726 297.314 8.3516 298.664 8.96494C300.017 9.57826 301.211 10.5041 302.159 11.6707C304.077 14.0322 305.036 17.3774 305.036 21.7063V25.1449Z" fill="#D3D3D3"/>
<path d="M58.8521 0.3324C58.608 0.149112 58.3195 0.0390579 58.0184 0.0144374C57.7172 -0.010183 57.4156 0.0515924 57.1464 0.192915C56.8775 0.334238 56.6516 0.549585 56.4942 0.815083C56.3364 1.08058 56.2532 1.38586 56.2538 1.69707V19.6276L30.7252 0.3324C30.4811 0.149112 30.1924 0.0390579 29.8915 0.0144374C29.5904 -0.010183 29.2887 0.0515924 29.0195 0.192915C28.7506 0.334238 28.5247 0.549585 28.367 0.815083C28.2096 1.08058 28.1264 1.38586 28.1269 1.69707V19.6276L2.59827 0.3324C2.3542 0.149111 2.06564 0.0390565 1.76458 0.0144369C1.46352 -0.0101826 1.16172 0.0515945 0.892654 0.192919C0.623581 0.334243 0.397748 0.549595 0.240186 0.815096C0.0826237 1.0806 -0.000509707 1.38588 2.35129e-06 1.6971V27.0324C0.000942446 27.2975 0.0623695 27.5588 0.179323 27.7948C0.296276 28.0308 0.465478 28.2353 0.67326 28.3918L26.935 48.2412C27.1791 48.4244 27.4675 48.5344 27.7687 48.5591C28.0696 48.5836 28.3715 48.5218 28.6404 48.3805C28.9096 48.2393 29.1355 48.0239 29.2929 47.7585C29.4506 47.4928 29.5336 47.1877 29.533 46.8765V28.9458L55.0618 48.2412C55.3059 48.4246 55.5944 48.5346 55.8953 48.5594C56.1964 48.5839 56.4981 48.5221 56.7673 48.3808C57.0362 48.2395 57.2621 48.0242 57.4195 47.7585C57.577 47.4931 57.6597 47.1877 57.6591 46.8765V28.945L83.1929 48.2412C83.4368 48.4246 83.7252 48.5346 84.0264 48.5594C84.3275 48.5839 84.6292 48.5221 84.8981 48.3808C85.1673 48.2395 85.3929 48.0242 85.5504 47.7585C85.7078 47.4931 85.7908 47.1877 85.79 46.8765V21.5444C85.7892 21.2785 85.7274 21.0166 85.6098 20.7798C85.4923 20.5431 85.3224 20.3382 85.1137 20.1818L58.8521 0.3324Z" fill="#D3D3D3"/>
</g>
<defs>
<clipPath id="clip0_2090_613">
<rect width="317" height="49" fill="white"/>
</clipPath>
</defs>
</svg>
