<svg width="224" height="80" viewBox="0 0 224 80" fill="none" xmlns="http://www.w3.org/2000/svg">
<g clip-path="url(#clip0_2090_588)">
<path d="M51.46 49.47C55.31 44.13 57.48 37.73 57.48 31.09V30.36C57.24 22.18 53.95 14.57 48.17 8.82C42.39 3.16 34.76 0 26.66 0C19.19 0 12.05 2.75 6.43001 7.69C5.23001 8.74 5.15001 10.6 6.27001 11.74L11.09 16.6L3.54001 24.21C2.50001 25.26 2.50001 27.04 3.54001 28.1L6.03001 30.61C2.10001 35.87 0.0100098 42.35 0.0100098 48.99C0.0100098 57.17 3.14001 64.86 8.76001 70.69C14.38 76.52 22.01 79.84 30.04 80H30.84C38.31 80 45.45 77.25 51.07 72.31C52.27 71.26 52.35 69.39 51.23 68.26L46.41 63.4L53.96 55.79C55 54.74 55 52.96 53.96 51.9L51.47 49.47H51.46ZM40.54 65.43L45.12 70.05C40.95 72.97 35.97 74.5 30.83 74.5H30.19C23.53 74.34 17.34 71.59 12.69 66.81C8.03001 62.03 5.46001 55.64 5.46001 48.92C5.46001 43.74 6.99001 38.72 9.88001 34.51L31 55.81L33.57 58.4L35.02 59.86L38.87 55.97L37.42 54.51L9.55001 26.32L9.39001 26.16L16.94 18.55C17.98 17.5 17.98 15.72 16.94 14.66L12.36 10.04C16.53 7.13 21.51 5.59 26.65 5.59C33.31 5.59 39.58 8.18 44.39 12.88C49.13 17.58 51.86 23.81 52.02 30.53V31.1C52.02 36.28 50.49 41.3 47.6 45.51L36.12 34.01L23.84 21.62L22.39 20.16L18.46 24.05L34.6 40.33L48.09 53.93L40.54 61.54C39.5 62.59 39.5 64.29 40.54 65.43Z" fill="#C7C7C7"/>
<path d="M79.8 40.08C79.8 25.59 88.95 15.95 102.68 15.95C116.41 15.95 125.56 25.59 125.56 40.08C125.56 54.57 116.41 64.2099 102.68 64.2099C88.95 64.2099 79.8 54.49 79.8 40.08ZM115.05 40.08C115.05 30.77 110.07 24.61 102.69 24.61C95.31 24.61 90.33 30.76 90.33 40.08C90.33 49.4 95.31 55.5499 102.69 55.5499C110.07 55.5499 115.05 49.32 115.05 40.08Z" fill="#D3D3D3"/>
<path d="M165.79 63.48H154.71L143.07 50.12L140.5 52.79V63.48H130.71V16.52H140.42V29.07C140.42 39.19 140.26 40.97 140.26 40.97H140.42L151.66 29.07H163.62L148.85 44.21L165.79 63.48Z" fill="#D3D3D3"/>
<path d="M190.6 29.07V38.95H190.36C190.36 38.95 189.72 38.71 187.55 38.71C181.77 38.71 177.76 42.27 177.76 49.56V63.49H167.97V29.07H177.68V35.47H177.84C179.28 32.15 183.06 28.75 188.68 28.75C189.56 28.83 190.05 28.83 190.61 29.07H190.6Z" fill="#D3D3D3"/>
<path d="M222.96 56.52V41.78C222.96 33.76 217.42 28.5 207.63 28.5C198.64 28.5 192.54 33.6 192.54 40.4H202.33C202.33 37.48 204.26 35.54 207.87 35.54C211.24 35.54 213.25 37.48 213.25 42.34L207.15 42.74C197.76 43.47 191.57 46.22 191.57 53.91C191.57 58.44 194.14 61.85 198.23 63.3C199.68 63.79 201.2 64.11 202.97 64.11C204.74 64.11 206.58 63.87 208.27 63.3C210.6 62.49 212.6 61.11 213.89 58.93H214.05C214.05 60.63 214.53 62.49 214.93 63.3H224V62.9C223.2 61.93 222.96 61.69 222.96 56.5V56.52ZM213.24 49.31C213.24 54.01 210.51 57.08 206.42 57.08C203.61 57.08 201.76 55.46 201.76 53.11C201.76 50.76 203.69 49.39 206.98 49.06L213.24 48.49V49.3V49.31Z" fill="#D3D3D3"/>
</g>
<defs>
<clipPath id="clip0_2090_588">
<rect width="224" height="80" fill="white"/>
</clipPath>
</defs>
</svg>
